<?xml version="1.0" encoding="utf-8" standalone="no"?>
<!DOCTYPE svg PUBLIC "-//W3C//DTD SVG 1.1//EN"
  "http://www.w3.org/Graphics/SVG/1.1/DTD/svg11.dtd">
<svg height="345.6pt" version="1.1" viewBox="0 0 345.6 345.6" width="345.6pt" xmlns="http://www.w3.org/2000/svg" xmlns:xlink="http://www.w3.org/1999/xlink">
 <metadata>
  <rdf:RDF xmlns:cc="http://creativecommons.org/ns#" xmlns:dc="http://purl.org/dc/elements/1.1/" xmlns:rdf="http://www.w3.org/1999/02/22-rdf-syntax-ns#">
   <cc:Work>
    <dc:type rdf:resource="http://purl.org/dc/dcmitype/StillImage"/>
    <dc:date>2022-08-08T17:24:29.544206</dc:date>
    <dc:format>image/svg+xml</dc:format>
    <dc:creator>
     <cc:Agent>
      <dc:title>Matplotlib v3.4.2, https://matplotlib.org/</dc:title>
     </cc:Agent>
    </dc:creator>
   </cc:Work>
  </rdf:RDF>
 </metadata>
 <defs>
  <style type="text/css">*{stroke-linecap:butt;stroke-linejoin:round;}</style>
 </defs>
 <g id="figure_1">
  <g id="patch_1">
   <path d="M 0 345.6 
L 345.6 345.6 
L 345.6 0 
L 0 0 
z
" style="fill:#ffffff;"/>
  </g>
  <g id="axes_1">
   <g id="patch_2">
    <path d="M 35.3 310.64 
L 334.8 310.64 
L 334.8 10.8 
L 35.3 10.8 
z
" style="fill:#ffffff;"/>
   </g>
   <g id="matplotlib.axis_1">
    <g id="text_1">
     <!-- $x$ -->
     <g transform="translate(179.05 329.836875)scale(0.2 -0.2)">
      <defs>
       <path d="M 3841 3500 
L 2234 1784 
L 3219 0 
L 2559 0 
L 1819 1388 
L 531 0 
L -166 0 
L 1556 1844 
L 641 3500 
L 1300 3500 
L 1972 2234 
L 3144 3500 
L 3841 3500 
z
" id="DejaVuSans-Oblique-78" transform="scale(0.015625)"/>
      </defs>
      <use transform="translate(0 0.3125)" xlink:href="#DejaVuSans-Oblique-78"/>
     </g>
    </g>
   </g>
   <g id="matplotlib.axis_2">
    <g id="text_2">
     <!-- $\dot{x}$ -->
     <g transform="translate(27.140625 166.72)rotate(-90)scale(0.2 -0.2)">
      <defs>
       <path d="M -1894 4863 
L -1319 4863 
L -1319 4134 
L -1894 4134 
L -1894 4863 
z
M -1600 3584 
L -1600 3584 
z
" id="DejaVuSans-307" transform="scale(0.015625)"/>
      </defs>
      <use transform="translate(62.388672 12.015625)" xlink:href="#DejaVuSans-307"/>
      <use transform="translate(0 0.828125)" xlink:href="#DejaVuSans-Oblique-78"/>
     </g>
    </g>
   </g>
   <g id="line2d_1">
    <path clip-path="url(#p4241609e76)" d="M 185.05 310.64 
L 185.05 10.8 
" style="fill:none;stroke:#000000;stroke-linecap:square;stroke-width:3;"/>
   </g>
   <g id="line2d_2">
    <path clip-path="url(#p4241609e76)" d="M 35.3 160.72 
L 334.8 160.72 
" style="fill:none;stroke:#000000;stroke-linecap:square;stroke-width:3;"/>
   </g>
   <g id="line2d_3">
    <path clip-path="url(#p4241609e76)" d="M 35.3 145.728 
L 38.325253 145.728 
L 41.350505 145.728 
L 44.375758 145.728 
L 47.40101 145.728 
L 50.426263 145.728 
L 53.451515 145.728 
L 56.476768 145.728 
L 59.50202 145.728 
L 62.527273 145.728 
L 65.552525 145.728 
L 68.577778 145.728 
L 71.60303 145.728 
L 74.628283 145.728 
L 77.653535 145.728 
L 80.678788 145.728 
L 83.70404 145.728 
L 86.729293 145.728 
L 89.754545 145.728 
L 92.779798 145.728 
L 95.805051 145.728 
L 98.830303 145.728 
L 101.855556 145.728 
L 104.880808 145.728 
L 107.906061 145.728 
L 110.931313 145.728 
L 113.956566 145.728 
L 116.981818 145.728 
L 120.007071 145.728 
L 123.032323 145.728 
L 126.057576 145.728 
L 129.082828 145.728 
L 132.108081 145.728 
L 135.133333 145.728 
L 138.158586 145.728 
L 141.183838 145.728 
L 144.209091 145.728 
L 147.234343 145.728 
L 150.259596 145.728 
L 153.284848 145.728 
L 156.310101 145.728 
L 159.335354 145.728 
L 162.360606 145.728 
L 165.385859 145.728 
L 168.411111 145.728 
L 171.436364 145.728 
L 174.461616 145.728 
L 177.486869 145.728 
L 180.512121 145.728 
L 183.537374 145.728 
L 186.562626 145.728 
L 189.587879 145.728 
L 192.613131 145.728 
L 195.638384 145.728 
L 198.663636 145.728 
L 201.688889 145.728 
L 204.714141 145.728 
L 207.739394 145.728 
L 210.764646 145.728 
L 213.789899 145.728 
L 216.815152 145.728 
L 219.840404 145.728 
L 222.865657 145.728 
L 225.890909 145.728 
L 228.916162 145.728 
L 231.941414 145.728 
L 234.966667 145.728 
L 237.991919 145.728 
L 241.017172 145.728 
L 244.042424 145.728 
L 247.067677 145.728 
L 250.092929 145.728 
L 253.118182 145.728 
L 256.143434 145.728 
L 259.168687 145.728 
L 262.193939 145.728 
L 265.219192 145.728 
L 268.244444 145.728 
L 271.269697 145.728 
L 274.294949 145.728 
L 277.320202 145.728 
L 280.345455 145.728 
L 283.370707 145.728 
L 286.39596 145.728 
L 289.421212 145.728 
L 292.446465 145.728 
L 295.471717 145.728 
L 298.49697 145.728 
L 301.522222 145.728 
L 304.547475 145.728 
L 307.572727 145.728 
L 310.59798 145.728 
L 313.623232 145.728 
L 316.648485 145.728 
L 319.673737 145.728 
L 322.69899 145.728 
L 325.724242 145.728 
L 328.749495 145.728 
L 331.774747 145.728 
L 334.8 145.728 
" style="fill:none;stroke:#000000;stroke-linecap:square;stroke-width:5;"/>
   </g>
  </g>
 </g>
 <defs>
  <clipPath id="p4241609e76">
   <rect height="299.84" width="299.5" x="35.3" y="10.8"/>
  </clipPath>
 </defs>
</svg>
