<?xml version="1.0" encoding="utf-8" standalone="no"?>
<!DOCTYPE svg PUBLIC "-//W3C//DTD SVG 1.1//EN"
  "http://www.w3.org/Graphics/SVG/1.1/DTD/svg11.dtd">
<svg xmlns:xlink="http://www.w3.org/1999/xlink" width="460.8pt" height="345.6pt" viewBox="0 0 460.8 345.6" xmlns="http://www.w3.org/2000/svg" version="1.1">
 <metadata>
  <rdf:RDF xmlns:dc="http://purl.org/dc/elements/1.1/" xmlns:cc="http://creativecommons.org/ns#" xmlns:rdf="http://www.w3.org/1999/02/22-rdf-syntax-ns#">
   <cc:Work>
    <dc:type rdf:resource="http://purl.org/dc/dcmitype/StillImage"/>
    <dc:date>2022-06-29T11:28:23.593080</dc:date>
    <dc:format>image/svg+xml</dc:format>
    <dc:creator>
     <cc:Agent>
      <dc:title>Matplotlib v3.5.1, https://matplotlib.org/</dc:title>
     </cc:Agent>
    </dc:creator>
   </cc:Work>
  </rdf:RDF>
 </metadata>
 <defs>
  <style type="text/css">*{stroke-linejoin: round; stroke-linecap: butt}</style>
 </defs>
 <g id="figure_1">
  <g id="patch_1">
   <path d="M 0 345.6 
L 460.8 345.6 
L 460.8 0 
L 0 0 
z
" style="fill: #ffffff"/>
  </g>
  <g id="axes_1">
   <g id="patch_2">
    <path d="M 34.96 283.48 
L 421.29 283.48 
L 421.29 10.8 
L 34.96 10.8 
z
" style="fill: #ffffff"/>
   </g>
   <g id="matplotlib.axis_1">
    <g id="xtick_1">
     <g id="line2d_1">
      <defs>
       <path id="md701d007f9" d="M 0 0 
L 0 3.5 
" style="stroke: #000000; stroke-width: 0.8"/>
      </defs>
      <g>
       <use xlink:href="#md701d007f9" x="34.96" y="283.48" style="stroke: #000000; stroke-width: 0.8"/>
      </g>
     </g>
     <g id="text_1">
      <!-- 0.0 -->
      <g transform="translate(19.056875 305.676875)scale(0.2 -0.2)">
       <defs>
        <path id="DejaVuSans-30" d="M 2034 4250 
Q 1547 4250 1301 3770 
Q 1056 3291 1056 2328 
Q 1056 1369 1301 889 
Q 1547 409 2034 409 
Q 2525 409 2770 889 
Q 3016 1369 3016 2328 
Q 3016 3291 2770 3770 
Q 2525 4250 2034 4250 
z
M 2034 4750 
Q 2819 4750 3233 4129 
Q 3647 3509 3647 2328 
Q 3647 1150 3233 529 
Q 2819 -91 2034 -91 
Q 1250 -91 836 529 
Q 422 1150 422 2328 
Q 422 3509 836 4129 
Q 1250 4750 2034 4750 
z
" transform="scale(0.015625)"/>
        <path id="DejaVuSans-2e" d="M 684 794 
L 1344 794 
L 1344 0 
L 684 0 
L 684 794 
z
" transform="scale(0.015625)"/>
       </defs>
       <use xlink:href="#DejaVuSans-30"/>
       <use xlink:href="#DejaVuSans-2e" x="63.623047"/>
       <use xlink:href="#DejaVuSans-30" x="95.410156"/>
      </g>
     </g>
    </g>
    <g id="xtick_2">
     <g id="line2d_2">
      <g>
       <use xlink:href="#md701d007f9" x="163.736667" y="283.48" style="stroke: #000000; stroke-width: 0.8"/>
      </g>
     </g>
     <g id="text_2">
      <!-- 33.0 -->
      <g transform="translate(141.471042 305.676875)scale(0.2 -0.2)">
       <defs>
        <path id="DejaVuSans-33" d="M 2597 2516 
Q 3050 2419 3304 2112 
Q 3559 1806 3559 1356 
Q 3559 666 3084 287 
Q 2609 -91 1734 -91 
Q 1441 -91 1130 -33 
Q 819 25 488 141 
L 488 750 
Q 750 597 1062 519 
Q 1375 441 1716 441 
Q 2309 441 2620 675 
Q 2931 909 2931 1356 
Q 2931 1769 2642 2001 
Q 2353 2234 1838 2234 
L 1294 2234 
L 1294 2753 
L 1863 2753 
Q 2328 2753 2575 2939 
Q 2822 3125 2822 3475 
Q 2822 3834 2567 4026 
Q 2313 4219 1838 4219 
Q 1578 4219 1281 4162 
Q 984 4106 628 3988 
L 628 4550 
Q 988 4650 1302 4700 
Q 1616 4750 1894 4750 
Q 2613 4750 3031 4423 
Q 3450 4097 3450 3541 
Q 3450 3153 3228 2886 
Q 3006 2619 2597 2516 
z
" transform="scale(0.015625)"/>
       </defs>
       <use xlink:href="#DejaVuSans-33"/>
       <use xlink:href="#DejaVuSans-33" x="63.623047"/>
       <use xlink:href="#DejaVuSans-2e" x="127.246094"/>
       <use xlink:href="#DejaVuSans-30" x="159.033203"/>
      </g>
     </g>
    </g>
    <g id="xtick_3">
     <g id="line2d_3">
      <g>
       <use xlink:href="#md701d007f9" x="292.513333" y="283.48" style="stroke: #000000; stroke-width: 0.8"/>
      </g>
     </g>
     <g id="text_3">
      <!-- 67.0 -->
      <g transform="translate(270.247708 305.676875)scale(0.2 -0.2)">
       <defs>
        <path id="DejaVuSans-36" d="M 2113 2584 
Q 1688 2584 1439 2293 
Q 1191 2003 1191 1497 
Q 1191 994 1439 701 
Q 1688 409 2113 409 
Q 2538 409 2786 701 
Q 3034 994 3034 1497 
Q 3034 2003 2786 2293 
Q 2538 2584 2113 2584 
z
M 3366 4563 
L 3366 3988 
Q 3128 4100 2886 4159 
Q 2644 4219 2406 4219 
Q 1781 4219 1451 3797 
Q 1122 3375 1075 2522 
Q 1259 2794 1537 2939 
Q 1816 3084 2150 3084 
Q 2853 3084 3261 2657 
Q 3669 2231 3669 1497 
Q 3669 778 3244 343 
Q 2819 -91 2113 -91 
Q 1303 -91 875 529 
Q 447 1150 447 2328 
Q 447 3434 972 4092 
Q 1497 4750 2381 4750 
Q 2619 4750 2861 4703 
Q 3103 4656 3366 4563 
z
" transform="scale(0.015625)"/>
        <path id="DejaVuSans-37" d="M 525 4666 
L 3525 4666 
L 3525 4397 
L 1831 0 
L 1172 0 
L 2766 4134 
L 525 4134 
L 525 4666 
z
" transform="scale(0.015625)"/>
       </defs>
       <use xlink:href="#DejaVuSans-36"/>
       <use xlink:href="#DejaVuSans-37" x="63.623047"/>
       <use xlink:href="#DejaVuSans-2e" x="127.246094"/>
       <use xlink:href="#DejaVuSans-30" x="159.033203"/>
      </g>
     </g>
    </g>
    <g id="xtick_4">
     <g id="line2d_4">
      <g>
       <use xlink:href="#md701d007f9" x="421.29" y="283.48" style="stroke: #000000; stroke-width: 0.8"/>
      </g>
     </g>
     <g id="text_4">
      <!-- 100.0 -->
      <g transform="translate(392.661875 305.676875)scale(0.2 -0.2)">
       <defs>
        <path id="DejaVuSans-31" d="M 794 531 
L 1825 531 
L 1825 4091 
L 703 3866 
L 703 4441 
L 1819 4666 
L 2450 4666 
L 2450 531 
L 3481 531 
L 3481 0 
L 794 0 
L 794 531 
z
" transform="scale(0.015625)"/>
       </defs>
       <use xlink:href="#DejaVuSans-31"/>
       <use xlink:href="#DejaVuSans-30" x="63.623047"/>
       <use xlink:href="#DejaVuSans-30" x="127.246094"/>
       <use xlink:href="#DejaVuSans-2e" x="190.869141"/>
       <use xlink:href="#DejaVuSans-30" x="222.65625"/>
      </g>
     </g>
    </g>
    <g id="text_5">
     <!-- $T$ -->
     <g transform="translate(221.925 329.033125)scale(0.2 -0.2)">
      <defs>
       <path id="DejaVuSans-Oblique-54" d="M 378 4666 
L 4325 4666 
L 4225 4134 
L 2559 4134 
L 1759 0 
L 1125 0 
L 1925 4134 
L 275 4134 
L 378 4666 
z
" transform="scale(0.015625)"/>
      </defs>
      <use xlink:href="#DejaVuSans-Oblique-54" transform="translate(0 0.09375)"/>
     </g>
    </g>
   </g>
   <g id="matplotlib.axis_2">
    <g id="text_6">
     <!-- $x$ -->
     <g transform="translate(26.800625 153.14)rotate(-90)scale(0.2 -0.2)">
      <defs>
       <path id="DejaVuSans-Oblique-78" d="M 3841 3500 
L 2234 1784 
L 3219 0 
L 2559 0 
L 1819 1388 
L 531 0 
L -166 0 
L 1556 1844 
L 641 3500 
L 1300 3500 
L 1972 2234 
L 3144 3500 
L 3841 3500 
z
" transform="scale(0.015625)"/>
      </defs>
      <use xlink:href="#DejaVuSans-Oblique-78" transform="translate(0 0.3125)"/>
     </g>
    </g>
   </g>
   <g id="line2d_5">
    <path d="M 34.96 271.085455 
L 38.8233 265.040563 
L 42.6866 259.290485 
L 46.5499 253.820841 
L 50.4132 248.617955 
L 54.2765 243.668817 
L 58.1398 238.961051 
L 62.0031 234.482886 
L 65.8664 230.223123 
L 69.7297 226.171111 
L 73.593 222.316718 
L 77.4563 218.650306 
L 81.3196 215.162708 
L 85.1829 211.845201 
L 89.0462 208.689491 
L 92.9095 205.687687 
L 96.7728 202.832283 
L 100.6361 200.116138 
L 104.4994 197.532461 
L 108.3627 195.074792 
L 112.226 192.736985 
L 116.0893 190.513193 
L 119.9526 188.397858 
L 123.8159 186.385688 
L 127.6792 184.471654 
L 131.5425 182.650967 
L 135.4058 180.919077 
L 139.2691 179.271652 
L 143.1324 177.704573 
L 146.9957 176.213921 
L 150.859 174.795969 
L 154.7223 173.447172 
L 158.5856 172.164156 
L 162.4489 170.943713 
L 166.3122 169.782792 
L 170.1755 168.67849 
L 174.0388 167.628046 
L 177.9021 166.628832 
L 181.7654 165.67835 
L 185.6287 164.774224 
L 189.492 163.914193 
L 193.3553 163.096106 
L 197.2186 162.317918 
L 201.0819 161.577682 
L 204.9452 160.873548 
L 208.8085 160.203755 
L 212.6718 159.566628 
L 216.5351 158.960574 
L 220.3984 158.384078 
L 224.2617 157.835698 
L 228.125 157.314062 
L 231.9883 156.817868 
L 235.8516 156.345872 
L 239.7149 155.896897 
L 243.5782 155.469818 
L 247.4415 155.063568 
L 251.3048 154.677131 
L 255.1681 154.309541 
L 259.0314 153.959878 
L 262.8947 153.627269 
L 266.758 153.310881 
L 270.6213 153.009923 
L 274.4846 152.723644 
L 278.3479 152.451326 
L 282.2112 152.19229 
L 286.0745 151.945887 
L 289.9378 151.711501 
L 293.8011 151.488546 
L 297.6644 151.276465 
L 301.5277 151.074727 
L 305.391 150.882828 
L 309.2543 150.700289 
L 313.1176 150.526651 
L 316.9809 150.361482 
L 320.8442 150.204369 
L 324.7075 150.054918 
L 328.5708 149.912755 
L 332.4341 149.777527 
L 336.2974 149.648893 
L 340.1607 149.526533 
L 344.024 149.41014 
L 347.8873 149.299424 
L 351.7506 149.194108 
L 355.6139 149.093928 
L 359.4772 148.998634 
L 363.3405 148.907987 
L 367.2038 148.821761 
L 371.0671 148.739741 
L 374.9304 148.66172 
L 378.7937 148.587505 
L 382.657 148.51691 
L 386.5203 148.449757 
L 390.3836 148.385879 
L 394.2469 148.325117 
L 398.1102 148.267318 
L 401.9735 148.212338 
L 405.8368 148.16004 
L 409.7001 148.110292 
L 413.5634 148.06297 
L 417.4267 148.017956 
" clip-path="url(#p05ee5a580d)" style="fill: none; stroke: #9e0142; stroke-width: 5; stroke-linecap: square"/>
   </g>
   <g id="line2d_6">
    <path d="M 34.96 243.54202 
L 38.8233 238.840438 
L 42.6866 234.368155 
L 46.5499 230.113988 
L 50.4132 226.067299 
L 54.2765 222.217969 
L 58.1398 218.556373 
L 62.0031 215.073355 
L 65.8664 211.760207 
L 69.7297 208.608642 
L 73.593 205.610781 
L 77.4563 202.759127 
L 81.3196 200.04655 
L 85.1829 197.466268 
L 89.0462 195.011826 
L 92.9095 192.67709 
L 96.7728 190.45622 
L 100.6361 188.343663 
L 104.4994 186.334137 
L 108.3627 184.422616 
L 112.226 182.604321 
L 116.0893 180.874706 
L 119.9526 179.229445 
L 123.8159 177.664424 
L 127.6792 176.175731 
L 131.5425 174.759641 
L 135.4058 173.412615 
L 139.2691 172.131285 
L 143.1324 170.912445 
L 146.9957 169.75305 
L 150.859 168.650198 
L 154.7223 167.601133 
L 158.5856 166.603232 
L 162.4489 165.653999 
L 166.3122 164.751061 
L 170.1755 163.892159 
L 174.0388 163.075147 
L 177.9021 162.29798 
L 181.7654 161.558717 
L 185.6287 160.855508 
L 189.492 160.186595 
L 193.3553 159.550305 
L 197.2186 158.945047 
L 201.0819 158.369308 
L 204.9452 157.821648 
L 208.8085 157.300698 
L 212.6718 156.805155 
L 216.5351 156.33378 
L 220.3984 155.885394 
L 224.2617 155.458876 
L 228.125 155.05316 
L 231.9883 154.66723 
L 235.8516 154.300123 
L 239.7149 153.95092 
L 243.5782 153.618747 
L 247.4415 153.302775 
L 251.3048 153.002213 
L 255.1681 152.716309 
L 259.0314 152.44435 
L 262.8947 152.185653 
L 266.758 151.939574 
L 270.6213 151.705496 
L 274.4846 151.482834 
L 278.3479 151.271032 
L 282.2112 151.069559 
L 286.0745 150.877912 
L 289.9378 150.695612 
L 293.8011 150.522203 
L 297.6644 150.357251 
L 301.5277 150.200343 
L 305.391 150.051089 
L 309.2543 149.909113 
L 313.1176 149.774062 
L 316.9809 149.645597 
L 320.8442 149.523398 
L 324.7075 149.407158 
L 328.5708 149.296588 
L 332.4341 149.19141 
L 336.2974 149.091361 
L 340.1607 148.996192 
L 344.024 148.905665 
L 347.8873 148.819552 
L 351.7506 148.737639 
L 355.6139 148.659722 
L 359.4772 148.585604 
L 363.3405 148.515101 
L 367.2038 148.448037 
L 371.0671 148.384243 
L 374.9304 148.32356 
L 378.7937 148.265837 
L 382.657 148.21093 
L 386.5203 148.1587 
L 390.3836 148.109017 
L 394.2469 148.061758 
L 398.1102 148.016803 
L 401.9735 147.974041 
L 405.8368 147.933364 
L 409.7001 147.894671 
L 413.5634 147.857866 
L 417.4267 147.822855 
" clip-path="url(#p05ee5a580d)" style="fill: none; stroke: #d8434e; stroke-width: 5; stroke-linecap: square"/>
   </g>
   <g id="line2d_7">
    <path d="M 34.96 215.998586 
L 38.8233 212.640313 
L 42.6866 209.445825 
L 46.5499 206.407134 
L 50.4132 203.516642 
L 54.2765 200.767121 
L 58.1398 198.151695 
L 62.0031 195.663825 
L 65.8664 193.29729 
L 69.7297 191.046173 
L 73.593 188.904844 
L 77.4563 186.867948 
L 81.3196 184.930393 
L 85.1829 183.087334 
L 89.0462 181.334162 
L 92.9095 179.666493 
L 96.7728 178.080157 
L 100.6361 176.571188 
L 104.4994 175.135812 
L 108.3627 173.77044 
L 112.226 172.471658 
L 116.0893 171.236219 
L 119.9526 170.061032 
L 123.8159 168.94316 
L 127.6792 167.879808 
L 131.5425 166.868315 
L 135.4058 165.906154 
L 139.2691 164.990918 
L 143.1324 164.120318 
L 146.9957 163.292178 
L 150.859 162.504427 
L 154.7223 161.755095 
L 158.5856 161.042309 
L 162.4489 160.364285 
L 166.3122 159.719329 
L 170.1755 159.105828 
L 174.0388 158.522248 
L 177.9021 157.967129 
L 181.7654 157.439084 
L 185.6287 156.936791 
L 189.492 156.458996 
L 193.3553 156.004503 
L 197.2186 155.572176 
L 201.0819 155.160934 
L 204.9452 154.769749 
L 208.8085 154.397642 
L 212.6718 154.043682 
L 216.5351 153.706986 
L 220.3984 153.38671 
L 224.2617 153.082054 
L 228.125 152.792257 
L 231.9883 152.516593 
L 235.8516 152.254374 
L 239.7149 152.004943 
L 243.5782 151.767677 
L 247.4415 151.541982 
L 251.3048 151.327295 
L 255.1681 151.123078 
L 259.0314 150.928821 
L 262.8947 150.744038 
L 266.758 150.568267 
L 270.6213 150.401069 
L 274.4846 150.242024 
L 278.3479 150.090737 
L 282.2112 149.946828 
L 286.0745 149.809937 
L 289.9378 149.679723 
L 293.8011 149.555859 
L 297.6644 149.438036 
L 301.5277 149.32596 
L 305.391 149.219349 
L 309.2543 149.117938 
L 313.1176 149.021473 
L 316.9809 148.929712 
L 320.8442 148.842427 
L 324.7075 148.759399 
L 328.5708 148.68042 
L 332.4341 148.605293 
L 336.2974 148.533829 
L 340.1607 148.465852 
L 344.024 148.401189 
L 347.8873 148.33968 
L 351.7506 148.281171 
L 355.6139 148.225515 
L 359.4772 148.172574 
L 363.3405 148.122215 
L 367.2038 148.074312 
L 371.0671 148.028745 
L 374.9304 147.9854 
L 378.7937 147.94417 
L 382.657 147.90495 
L 386.5203 147.867643 
L 390.3836 147.832155 
L 394.2469 147.798398 
L 398.1102 147.766288 
L 401.9735 147.735743 
L 405.8368 147.706689 
L 409.7001 147.679051 
L 413.5634 147.652761 
L 417.4267 147.627754 
" clip-path="url(#p05ee5a580d)" style="fill: none; stroke: #f67a49; stroke-width: 5; stroke-linecap: square"/>
   </g>
   <g id="line2d_8">
    <path d="M 34.96 188.455152 
L 38.8233 186.440188 
L 42.6866 184.523495 
L 46.5499 182.70028 
L 50.4132 180.965985 
L 54.2765 179.316272 
L 58.1398 177.747017 
L 62.0031 176.254295 
L 65.8664 174.834374 
L 69.7297 173.483704 
L 73.593 172.198906 
L 77.4563 170.976769 
L 81.3196 169.814236 
L 85.1829 168.7084 
L 89.0462 167.656497 
L 92.9095 166.655896 
L 96.7728 165.704094 
L 100.6361 164.798713 
L 104.4994 163.937487 
L 108.3627 163.118264 
L 112.226 162.338995 
L 116.0893 161.597731 
L 119.9526 160.892619 
L 123.8159 160.221896 
L 127.6792 159.583885 
L 131.5425 158.976989 
L 135.4058 158.399692 
L 139.2691 157.850551 
L 143.1324 157.328191 
L 146.9957 156.831307 
L 150.859 156.358656 
L 154.7223 155.909057 
L 158.5856 155.481385 
L 162.4489 155.074571 
L 166.3122 154.687597 
L 170.1755 154.319497 
L 174.0388 153.969349 
L 177.9021 153.636277 
L 181.7654 153.31945 
L 185.6287 153.018075 
L 189.492 152.731398 
L 193.3553 152.458702 
L 197.2186 152.199306 
L 201.0819 151.952561 
L 204.9452 151.717849 
L 208.8085 151.494585 
L 212.6718 151.282209 
L 216.5351 151.080191 
L 220.3984 150.888026 
L 224.2617 150.705233 
L 228.125 150.531354 
L 231.9883 150.365956 
L 235.8516 150.208624 
L 239.7149 150.058966 
L 243.5782 149.916606 
L 247.4415 149.781189 
L 251.3048 149.652377 
L 255.1681 149.529847 
L 259.0314 149.413293 
L 262.8947 149.302423 
L 266.758 149.19696 
L 270.6213 149.096641 
L 274.4846 149.001215 
L 278.3479 148.910442 
L 282.2112 148.824097 
L 286.0745 148.741962 
L 289.9378 148.663834 
L 293.8011 148.589515 
L 297.6644 148.518822 
L 301.5277 148.451576 
L 305.391 148.387609 
L 309.2543 148.326763 
L 313.1176 148.268884 
L 316.9809 148.213827 
L 320.8442 148.161456 
L 324.7075 148.111639 
L 328.5708 148.064252 
L 332.4341 148.019176 
L 336.2974 147.976298 
L 340.1607 147.935511 
L 344.024 147.896713 
L 347.8873 147.859808 
L 351.7506 147.824703 
L 355.6139 147.791309 
L 359.4772 147.759545 
L 363.3405 147.729329 
L 367.2038 147.700587 
L 371.0671 147.673247 
L 374.9304 147.64724 
L 378.7937 147.622502 
L 382.657 147.59897 
L 386.5203 147.576586 
L 390.3836 147.555293 
L 394.2469 147.535039 
L 398.1102 147.515773 
L 401.9735 147.497446 
L 405.8368 147.480013 
L 409.7001 147.463431 
L 413.5634 147.447657 
L 417.4267 147.432652 
" clip-path="url(#p05ee5a580d)" style="fill: none; stroke: #fdbf6f; stroke-width: 5; stroke-linecap: square"/>
   </g>
   <g id="line2d_9">
    <path d="M 34.96 160.911717 
L 38.8233 160.240063 
L 42.6866 159.601165 
L 46.5499 158.993427 
L 50.4132 158.415328 
L 54.2765 157.865424 
L 58.1398 157.342339 
L 62.0031 156.844765 
L 65.8664 156.371458 
L 69.7297 155.921235 
L 73.593 155.492969 
L 77.4563 155.08559 
L 81.3196 154.698079 
L 85.1829 154.329467 
L 89.0462 153.978832 
L 92.9095 153.645299 
L 96.7728 153.328031 
L 100.6361 153.026238 
L 104.4994 152.739162 
L 108.3627 152.466088 
L 112.226 152.206332 
L 116.0893 151.959244 
L 119.9526 151.724206 
L 123.8159 151.500632 
L 127.6792 151.287962 
L 131.5425 151.085663 
L 135.4058 150.893231 
L 139.2691 150.710184 
L 143.1324 150.536064 
L 146.9957 150.370436 
L 150.859 150.212885 
L 154.7223 150.063019 
L 158.5856 149.920462 
L 162.4489 149.784857 
L 166.3122 149.655866 
L 170.1755 149.533166 
L 174.0388 149.41645 
L 177.9021 149.305426 
L 181.7654 149.199817 
L 185.6287 149.099358 
L 189.492 149.003799 
L 193.3553 148.912901 
L 197.2186 148.826435 
L 201.0819 148.744187 
L 204.9452 148.66595 
L 208.8085 148.591528 
L 212.6718 148.520736 
L 216.5351 148.453397 
L 220.3984 148.389342 
L 224.2617 148.328411 
L 228.125 148.270451 
L 231.9883 148.215319 
L 235.8516 148.162875 
L 239.7149 148.112989 
L 243.5782 148.065535 
L 247.4415 148.020396 
L 251.3048 147.977459 
L 255.1681 147.936616 
L 259.0314 147.897764 
L 262.8947 147.860808 
L 266.758 147.825653 
L 270.6213 147.792214 
L 274.4846 147.760405 
L 278.3479 147.730147 
L 282.2112 147.701366 
L 286.0745 147.673987 
L 289.9378 147.647945 
L 293.8011 147.623172 
L 297.6644 147.599607 
L 301.5277 147.577192 
L 305.391 147.55587 
L 309.2543 147.535588 
L 313.1176 147.516295 
L 316.9809 147.497942 
L 320.8442 147.480485 
L 324.7075 147.46388 
L 328.5708 147.448084 
L 332.4341 147.433059 
L 336.2974 147.418766 
L 340.1607 147.40517 
L 344.024 147.392238 
L 347.8873 147.379936 
L 351.7506 147.368234 
L 355.6139 147.357103 
L 359.4772 147.346515 
L 363.3405 147.336443 
L 367.2038 147.326862 
L 371.0671 147.317749 
L 374.9304 147.30908 
L 378.7937 147.300834 
L 382.657 147.29299 
L 386.5203 147.285529 
L 390.3836 147.278431 
L 394.2469 147.27168 
L 398.1102 147.265258 
L 401.9735 147.259149 
L 405.8368 147.253338 
L 409.7001 147.24781 
L 413.5634 147.242552 
L 417.4267 147.237551 
" clip-path="url(#p05ee5a580d)" style="fill: none; stroke: #feeda1; stroke-width: 5; stroke-linecap: square"/>
   </g>
   <g id="line2d_10">
    <path d="M 34.96 133.368283 
L 38.8233 134.039937 
L 42.6866 134.678835 
L 46.5499 135.286573 
L 50.4132 135.864672 
L 54.2765 136.414576 
L 58.1398 136.937661 
L 62.0031 137.435235 
L 65.8664 137.908542 
L 69.7297 138.358765 
L 73.593 138.787031 
L 77.4563 139.19441 
L 81.3196 139.581921 
L 85.1829 139.950533 
L 89.0462 140.301168 
L 92.9095 140.634701 
L 96.7728 140.951969 
L 100.6361 141.253762 
L 104.4994 141.540838 
L 108.3627 141.813912 
L 112.226 142.073668 
L 116.0893 142.320756 
L 119.9526 142.555794 
L 123.8159 142.779368 
L 127.6792 142.992038 
L 131.5425 143.194337 
L 135.4058 143.386769 
L 139.2691 143.569816 
L 143.1324 143.743936 
L 146.9957 143.909564 
L 150.859 144.067115 
L 154.7223 144.216981 
L 158.5856 144.359538 
L 162.4489 144.495143 
L 166.3122 144.624134 
L 170.1755 144.746834 
L 174.0388 144.86355 
L 177.9021 144.974574 
L 181.7654 145.080183 
L 185.6287 145.180642 
L 189.492 145.276201 
L 193.3553 145.367099 
L 197.2186 145.453565 
L 201.0819 145.535813 
L 204.9452 145.61405 
L 208.8085 145.688472 
L 212.6718 145.759264 
L 216.5351 145.826603 
L 220.3984 145.890658 
L 224.2617 145.951589 
L 228.125 146.009549 
L 231.9883 146.064681 
L 235.8516 146.117125 
L 239.7149 146.167011 
L 243.5782 146.214465 
L 247.4415 146.259604 
L 251.3048 146.302541 
L 255.1681 146.343384 
L 259.0314 146.382236 
L 262.8947 146.419192 
L 266.758 146.454347 
L 270.6213 146.487786 
L 274.4846 146.519595 
L 278.3479 146.549853 
L 282.2112 146.578634 
L 286.0745 146.606013 
L 289.9378 146.632055 
L 293.8011 146.656828 
L 297.6644 146.680393 
L 301.5277 146.702808 
L 305.391 146.72413 
L 309.2543 146.744412 
L 313.1176 146.763705 
L 316.9809 146.782058 
L 320.8442 146.799515 
L 324.7075 146.81612 
L 328.5708 146.831916 
L 332.4341 146.846941 
L 336.2974 146.861234 
L 340.1607 146.87483 
L 344.024 146.887762 
L 347.8873 146.900064 
L 351.7506 146.911766 
L 355.6139 146.922897 
L 359.4772 146.933485 
L 363.3405 146.943557 
L 367.2038 146.953138 
L 371.0671 146.962251 
L 374.9304 146.97092 
L 378.7937 146.979166 
L 382.657 146.98701 
L 386.5203 146.994471 
L 390.3836 147.001569 
L 394.2469 147.00832 
L 398.1102 147.014742 
L 401.9735 147.020851 
L 405.8368 147.026662 
L 409.7001 147.03219 
L 413.5634 147.037448 
L 417.4267 147.042449 
" clip-path="url(#p05ee5a580d)" style="fill: none; stroke: #f1f9a9; stroke-width: 5; stroke-linecap: square"/>
   </g>
   <g id="line2d_11">
    <path d="M 34.96 105.824848 
L 38.8233 107.839812 
L 42.6866 109.756505 
L 46.5499 111.57972 
L 50.4132 113.314015 
L 54.2765 114.963728 
L 58.1398 116.532983 
L 62.0031 118.025705 
L 65.8664 119.445626 
L 69.7297 120.796296 
L 73.593 122.081094 
L 77.4563 123.303231 
L 81.3196 124.465764 
L 85.1829 125.5716 
L 89.0462 126.623503 
L 92.9095 127.624104 
L 96.7728 128.575906 
L 100.6361 129.481287 
L 104.4994 130.342513 
L 108.3627 131.161736 
L 112.226 131.941005 
L 116.0893 132.682269 
L 119.9526 133.387381 
L 123.8159 134.058104 
L 127.6792 134.696115 
L 131.5425 135.303011 
L 135.4058 135.880308 
L 139.2691 136.429449 
L 143.1324 136.951809 
L 146.9957 137.448693 
L 150.859 137.921344 
L 154.7223 138.370943 
L 158.5856 138.798615 
L 162.4489 139.205429 
L 166.3122 139.592403 
L 170.1755 139.960503 
L 174.0388 140.310651 
L 177.9021 140.643723 
L 181.7654 140.96055 
L 185.6287 141.261925 
L 189.492 141.548602 
L 193.3553 141.821298 
L 197.2186 142.080694 
L 201.0819 142.327439 
L 204.9452 142.562151 
L 208.8085 142.785415 
L 212.6718 142.997791 
L 216.5351 143.199809 
L 220.3984 143.391974 
L 224.2617 143.574767 
L 228.125 143.748646 
L 231.9883 143.914044 
L 235.8516 144.071376 
L 239.7149 144.221034 
L 243.5782 144.363394 
L 247.4415 144.498811 
L 251.3048 144.627623 
L 255.1681 144.750153 
L 259.0314 144.866707 
L 262.8947 144.977577 
L 266.758 145.08304 
L 270.6213 145.183359 
L 274.4846 145.278785 
L 278.3479 145.369558 
L 282.2112 145.455903 
L 286.0745 145.538038 
L 289.9378 145.616166 
L 293.8011 145.690485 
L 297.6644 145.761178 
L 301.5277 145.828424 
L 305.391 145.892391 
L 309.2543 145.953237 
L 313.1176 146.011116 
L 316.9809 146.066173 
L 320.8442 146.118544 
L 324.7075 146.168361 
L 328.5708 146.215748 
L 332.4341 146.260824 
L 336.2974 146.303702 
L 340.1607 146.344489 
L 344.024 146.383287 
L 347.8873 146.420192 
L 351.7506 146.455297 
L 355.6139 146.488691 
L 359.4772 146.520455 
L 363.3405 146.550671 
L 367.2038 146.579413 
L 371.0671 146.606753 
L 374.9304 146.63276 
L 378.7937 146.657498 
L 382.657 146.68103 
L 386.5203 146.703414 
L 390.3836 146.724707 
L 394.2469 146.744961 
L 398.1102 146.764227 
L 401.9735 146.782554 
L 405.8368 146.799987 
L 409.7001 146.816569 
L 413.5634 146.832343 
L 417.4267 146.847348 
" clip-path="url(#p05ee5a580d)" style="fill: none; stroke: #bfe5a0; stroke-width: 5; stroke-linecap: square"/>
   </g>
   <g id="line2d_12">
    <path d="M 34.96 78.281414 
L 38.8233 81.639687 
L 42.6866 84.834175 
L 46.5499 87.872866 
L 50.4132 90.763358 
L 54.2765 93.512879 
L 58.1398 96.128305 
L 62.0031 98.616175 
L 65.8664 100.98271 
L 69.7297 103.233827 
L 73.593 105.375156 
L 77.4563 107.412052 
L 81.3196 109.349607 
L 85.1829 111.192666 
L 89.0462 112.945838 
L 92.9095 114.613507 
L 96.7728 116.199843 
L 100.6361 117.708812 
L 104.4994 119.144188 
L 108.3627 120.50956 
L 112.226 121.808342 
L 116.0893 123.043781 
L 119.9526 124.218968 
L 123.8159 125.33684 
L 127.6792 126.400192 
L 131.5425 127.411685 
L 135.4058 128.373846 
L 139.2691 129.289082 
L 143.1324 130.159682 
L 146.9957 130.987822 
L 150.859 131.775573 
L 154.7223 132.524905 
L 158.5856 133.237691 
L 162.4489 133.915715 
L 166.3122 134.560671 
L 170.1755 135.174172 
L 174.0388 135.757752 
L 177.9021 136.312871 
L 181.7654 136.840916 
L 185.6287 137.343209 
L 189.492 137.821004 
L 193.3553 138.275497 
L 197.2186 138.707824 
L 201.0819 139.119066 
L 204.9452 139.510251 
L 208.8085 139.882358 
L 212.6718 140.236318 
L 216.5351 140.573014 
L 220.3984 140.89329 
L 224.2617 141.197946 
L 228.125 141.487743 
L 231.9883 141.763407 
L 235.8516 142.025626 
L 239.7149 142.275057 
L 243.5782 142.512323 
L 247.4415 142.738018 
L 251.3048 142.952705 
L 255.1681 143.156922 
L 259.0314 143.351179 
L 262.8947 143.535962 
L 266.758 143.711733 
L 270.6213 143.878931 
L 274.4846 144.037976 
L 278.3479 144.189263 
L 282.2112 144.333172 
L 286.0745 144.470063 
L 289.9378 144.600277 
L 293.8011 144.724141 
L 297.6644 144.841964 
L 301.5277 144.95404 
L 305.391 145.060651 
L 309.2543 145.162062 
L 313.1176 145.258527 
L 316.9809 145.350288 
L 320.8442 145.437573 
L 324.7075 145.520601 
L 328.5708 145.59958 
L 332.4341 145.674707 
L 336.2974 145.746171 
L 340.1607 145.814148 
L 344.024 145.878811 
L 347.8873 145.94032 
L 351.7506 145.998829 
L 355.6139 146.054485 
L 359.4772 146.107426 
L 363.3405 146.157785 
L 367.2038 146.205688 
L 371.0671 146.251255 
L 374.9304 146.2946 
L 378.7937 146.33583 
L 382.657 146.37505 
L 386.5203 146.412357 
L 390.3836 146.447845 
L 394.2469 146.481602 
L 398.1102 146.513712 
L 401.9735 146.544257 
L 405.8368 146.573311 
L 409.7001 146.600949 
L 413.5634 146.627239 
L 417.4267 146.652246 
" clip-path="url(#p05ee5a580d)" style="fill: none; stroke: #74c7a5; stroke-width: 5; stroke-linecap: square"/>
   </g>
   <g id="line2d_13">
    <path d="M 34.96 50.73798 
L 38.8233 55.439562 
L 42.6866 59.911845 
L 46.5499 64.166012 
L 50.4132 68.212701 
L 54.2765 72.062031 
L 58.1398 75.723627 
L 62.0031 79.206645 
L 65.8664 82.519793 
L 69.7297 85.671358 
L 73.593 88.669219 
L 77.4563 91.520873 
L 81.3196 94.23345 
L 85.1829 96.813732 
L 89.0462 99.268174 
L 92.9095 101.60291 
L 96.7728 103.82378 
L 100.6361 105.936337 
L 104.4994 107.945863 
L 108.3627 109.857384 
L 112.226 111.675679 
L 116.0893 113.405294 
L 119.9526 115.050555 
L 123.8159 116.615576 
L 127.6792 118.104269 
L 131.5425 119.520359 
L 135.4058 120.867385 
L 139.2691 122.148715 
L 143.1324 123.367555 
L 146.9957 124.52695 
L 150.859 125.629802 
L 154.7223 126.678867 
L 158.5856 127.676768 
L 162.4489 128.626001 
L 166.3122 129.528939 
L 170.1755 130.387841 
L 174.0388 131.204853 
L 177.9021 131.98202 
L 181.7654 132.721283 
L 185.6287 133.424492 
L 189.492 134.093405 
L 193.3553 134.729695 
L 197.2186 135.334953 
L 201.0819 135.910692 
L 204.9452 136.458352 
L 208.8085 136.979302 
L 212.6718 137.474845 
L 216.5351 137.94622 
L 220.3984 138.394606 
L 224.2617 138.821124 
L 228.125 139.22684 
L 231.9883 139.61277 
L 235.8516 139.979877 
L 239.7149 140.32908 
L 243.5782 140.661253 
L 247.4415 140.977225 
L 251.3048 141.277787 
L 255.1681 141.563691 
L 259.0314 141.83565 
L 262.8947 142.094347 
L 266.758 142.340426 
L 270.6213 142.574504 
L 274.4846 142.797166 
L 278.3479 143.008968 
L 282.2112 143.210441 
L 286.0745 143.402088 
L 289.9378 143.584388 
L 293.8011 143.757797 
L 297.6644 143.922749 
L 301.5277 144.079657 
L 305.391 144.228911 
L 309.2543 144.370887 
L 313.1176 144.505938 
L 316.9809 144.634403 
L 320.8442 144.756602 
L 324.7075 144.872842 
L 328.5708 144.983412 
L 332.4341 145.08859 
L 336.2974 145.188639 
L 340.1607 145.283808 
L 344.024 145.374335 
L 347.8873 145.460448 
L 351.7506 145.542361 
L 355.6139 145.620278 
L 359.4772 145.694396 
L 363.3405 145.764899 
L 367.2038 145.831963 
L 371.0671 145.895757 
L 374.9304 145.95644 
L 378.7937 146.014163 
L 382.657 146.06907 
L 386.5203 146.1213 
L 390.3836 146.170983 
L 394.2469 146.218242 
L 398.1102 146.263197 
L 401.9735 146.305959 
L 405.8368 146.346636 
L 409.7001 146.385329 
L 413.5634 146.422134 
L 417.4267 146.457145 
" clip-path="url(#p05ee5a580d)" style="fill: none; stroke: #378ebb; stroke-width: 5; stroke-linecap: square"/>
   </g>
   <g id="line2d_14">
    <path d="M 34.96 23.194545 
L 38.8233 29.239437 
L 42.6866 34.989515 
L 46.5499 40.459159 
L 50.4132 45.662045 
L 54.2765 50.611183 
L 58.1398 55.318949 
L 62.0031 59.797114 
L 65.8664 64.056877 
L 69.7297 68.108889 
L 73.593 71.963282 
L 77.4563 75.629694 
L 81.3196 79.117292 
L 85.1829 82.434799 
L 89.0462 85.590509 
L 92.9095 88.592313 
L 96.7728 91.447717 
L 100.6361 94.163862 
L 104.4994 96.747539 
L 108.3627 99.205208 
L 112.226 101.543015 
L 116.0893 103.766807 
L 119.9526 105.882142 
L 123.8159 107.894312 
L 127.6792 109.808346 
L 131.5425 111.629033 
L 135.4058 113.360923 
L 139.2691 115.008348 
L 143.1324 116.575427 
L 146.9957 118.066079 
L 150.859 119.484031 
L 154.7223 120.832828 
L 158.5856 122.115844 
L 162.4489 123.336287 
L 166.3122 124.497208 
L 170.1755 125.60151 
L 174.0388 126.651954 
L 177.9021 127.651168 
L 181.7654 128.60165 
L 185.6287 129.505776 
L 189.492 130.365807 
L 193.3553 131.183894 
L 197.2186 131.962082 
L 201.0819 132.702318 
L 204.9452 133.406452 
L 208.8085 134.076245 
L 212.6718 134.713372 
L 216.5351 135.319426 
L 220.3984 135.895922 
L 224.2617 136.444302 
L 228.125 136.965938 
L 231.9883 137.462132 
L 235.8516 137.934128 
L 239.7149 138.383103 
L 243.5782 138.810182 
L 247.4415 139.216432 
L 251.3048 139.602869 
L 255.1681 139.970459 
L 259.0314 140.320122 
L 262.8947 140.652731 
L 266.758 140.969119 
L 270.6213 141.270077 
L 274.4846 141.556356 
L 278.3479 141.828674 
L 282.2112 142.08771 
L 286.0745 142.334113 
L 289.9378 142.568499 
L 293.8011 142.791454 
L 297.6644 143.003535 
L 301.5277 143.205273 
L 305.391 143.397172 
L 309.2543 143.579711 
L 313.1176 143.753349 
L 316.9809 143.918518 
L 320.8442 144.075631 
L 324.7075 144.225082 
L 328.5708 144.367245 
L 332.4341 144.502473 
L 336.2974 144.631107 
L 340.1607 144.753467 
L 344.024 144.86986 
L 347.8873 144.980576 
L 351.7506 145.085892 
L 355.6139 145.186072 
L 359.4772 145.281366 
L 363.3405 145.372013 
L 367.2038 145.458239 
L 371.0671 145.540259 
L 374.9304 145.61828 
L 378.7937 145.692495 
L 382.657 145.76309 
L 386.5203 145.830243 
L 390.3836 145.894121 
L 394.2469 145.954883 
L 398.1102 146.012682 
L 401.9735 146.067662 
L 405.8368 146.11996 
L 409.7001 146.169708 
L 413.5634 146.21703 
L 417.4267 146.262044 
" clip-path="url(#p05ee5a580d)" style="fill: none; stroke: #5e4fa2; stroke-width: 5; stroke-linecap: square"/>
   </g>
   <g id="patch_3">
    <path d="M 34.96 283.48 
L 34.96 10.8 
" style="fill: none; stroke: #000000; stroke-width: 3; stroke-linejoin: miter; stroke-linecap: square"/>
   </g>
   <g id="patch_4">
    <path d="M 34.96 283.48 
L 421.29 283.48 
" style="fill: none; stroke: #000000; stroke-width: 3; stroke-linejoin: miter; stroke-linecap: square"/>
   </g>
  </g>
 </g>
 <defs>
  <clipPath id="p05ee5a580d">
   <rect x="34.96" y="10.8" width="386.33" height="272.68"/>
  </clipPath>
 </defs>
</svg>
