<?xml version="1.0" encoding="utf-8" standalone="no"?>
<!DOCTYPE svg PUBLIC "-//W3C//DTD SVG 1.1//EN"
  "http://www.w3.org/Graphics/SVG/1.1/DTD/svg11.dtd">
<svg height="345.6pt" version="1.1" viewBox="0 0 345.6 345.6" width="345.6pt" xmlns="http://www.w3.org/2000/svg" xmlns:xlink="http://www.w3.org/1999/xlink">
 <metadata>
  <rdf:RDF xmlns:cc="http://creativecommons.org/ns#" xmlns:dc="http://purl.org/dc/elements/1.1/" xmlns:rdf="http://www.w3.org/1999/02/22-rdf-syntax-ns#">
   <cc:Work>
    <dc:type rdf:resource="http://purl.org/dc/dcmitype/StillImage"/>
    <dc:date>2022-08-08T15:19:48.610765</dc:date>
    <dc:format>image/svg+xml</dc:format>
    <dc:creator>
     <cc:Agent>
      <dc:title>Matplotlib v3.4.2, https://matplotlib.org/</dc:title>
     </cc:Agent>
    </dc:creator>
   </cc:Work>
  </rdf:RDF>
 </metadata>
 <defs>
  <style type="text/css">*{stroke-linecap:butt;stroke-linejoin:round;}</style>
 </defs>
 <g id="figure_1">
  <g id="patch_1">
   <path d="M 0 345.6 
L 345.6 345.6 
L 345.6 0 
L 0 0 
z
" style="fill:#ffffff;"/>
  </g>
  <g id="axes_1">
   <g id="patch_2">
    <path d="M 34.96 283.48 
L 306.09 283.48 
L 306.09 10.8 
L 34.96 10.8 
z
" style="fill:#ffffff;"/>
   </g>
   <g id="matplotlib.axis_1">
    <g id="xtick_1">
     <g id="line2d_1">
      <defs>
       <path d="M 0 0 
L 0 3.5 
" id="m31e03412fb" style="stroke:#000000;stroke-width:0.8;"/>
      </defs>
      <g>
       <use style="stroke:#000000;stroke-width:0.8;" x="34.96" xlink:href="#m31e03412fb" y="283.48"/>
      </g>
     </g>
     <g id="text_1">
      <!-- 0.0 -->
      <g transform="translate(19.056875 305.676875)scale(0.2 -0.2)">
       <defs>
        <path d="M 2034 4250 
Q 1547 4250 1301 3770 
Q 1056 3291 1056 2328 
Q 1056 1369 1301 889 
Q 1547 409 2034 409 
Q 2525 409 2770 889 
Q 3016 1369 3016 2328 
Q 3016 3291 2770 3770 
Q 2525 4250 2034 4250 
z
M 2034 4750 
Q 2819 4750 3233 4129 
Q 3647 3509 3647 2328 
Q 3647 1150 3233 529 
Q 2819 -91 2034 -91 
Q 1250 -91 836 529 
Q 422 1150 422 2328 
Q 422 3509 836 4129 
Q 1250 4750 2034 4750 
z
" id="DejaVuSans-30" transform="scale(0.015625)"/>
        <path d="M 684 794 
L 1344 794 
L 1344 0 
L 684 0 
L 684 794 
z
" id="DejaVuSans-2e" transform="scale(0.015625)"/>
       </defs>
       <use xlink:href="#DejaVuSans-30"/>
       <use x="63.623047" xlink:href="#DejaVuSans-2e"/>
       <use x="95.410156" xlink:href="#DejaVuSans-30"/>
      </g>
     </g>
    </g>
    <g id="xtick_2">
     <g id="line2d_2">
      <g>
       <use style="stroke:#000000;stroke-width:0.8;" x="125.336667" xlink:href="#m31e03412fb" y="283.48"/>
      </g>
     </g>
     <g id="text_2">
      <!-- 33.0 -->
      <g transform="translate(103.071042 305.676875)scale(0.2 -0.2)">
       <defs>
        <path d="M 2597 2516 
Q 3050 2419 3304 2112 
Q 3559 1806 3559 1356 
Q 3559 666 3084 287 
Q 2609 -91 1734 -91 
Q 1441 -91 1130 -33 
Q 819 25 488 141 
L 488 750 
Q 750 597 1062 519 
Q 1375 441 1716 441 
Q 2309 441 2620 675 
Q 2931 909 2931 1356 
Q 2931 1769 2642 2001 
Q 2353 2234 1838 2234 
L 1294 2234 
L 1294 2753 
L 1863 2753 
Q 2328 2753 2575 2939 
Q 2822 3125 2822 3475 
Q 2822 3834 2567 4026 
Q 2313 4219 1838 4219 
Q 1578 4219 1281 4162 
Q 984 4106 628 3988 
L 628 4550 
Q 988 4650 1302 4700 
Q 1616 4750 1894 4750 
Q 2613 4750 3031 4423 
Q 3450 4097 3450 3541 
Q 3450 3153 3228 2886 
Q 3006 2619 2597 2516 
z
" id="DejaVuSans-33" transform="scale(0.015625)"/>
       </defs>
       <use xlink:href="#DejaVuSans-33"/>
       <use x="63.623047" xlink:href="#DejaVuSans-33"/>
       <use x="127.246094" xlink:href="#DejaVuSans-2e"/>
       <use x="159.033203" xlink:href="#DejaVuSans-30"/>
      </g>
     </g>
    </g>
    <g id="xtick_3">
     <g id="line2d_3">
      <g>
       <use style="stroke:#000000;stroke-width:0.8;" x="215.713333" xlink:href="#m31e03412fb" y="283.48"/>
      </g>
     </g>
     <g id="text_3">
      <!-- 67.0 -->
      <g transform="translate(193.447708 305.676875)scale(0.2 -0.2)">
       <defs>
        <path d="M 2113 2584 
Q 1688 2584 1439 2293 
Q 1191 2003 1191 1497 
Q 1191 994 1439 701 
Q 1688 409 2113 409 
Q 2538 409 2786 701 
Q 3034 994 3034 1497 
Q 3034 2003 2786 2293 
Q 2538 2584 2113 2584 
z
M 3366 4563 
L 3366 3988 
Q 3128 4100 2886 4159 
Q 2644 4219 2406 4219 
Q 1781 4219 1451 3797 
Q 1122 3375 1075 2522 
Q 1259 2794 1537 2939 
Q 1816 3084 2150 3084 
Q 2853 3084 3261 2657 
Q 3669 2231 3669 1497 
Q 3669 778 3244 343 
Q 2819 -91 2113 -91 
Q 1303 -91 875 529 
Q 447 1150 447 2328 
Q 447 3434 972 4092 
Q 1497 4750 2381 4750 
Q 2619 4750 2861 4703 
Q 3103 4656 3366 4563 
z
" id="DejaVuSans-36" transform="scale(0.015625)"/>
        <path d="M 525 4666 
L 3525 4666 
L 3525 4397 
L 1831 0 
L 1172 0 
L 2766 4134 
L 525 4134 
L 525 4666 
z
" id="DejaVuSans-37" transform="scale(0.015625)"/>
       </defs>
       <use xlink:href="#DejaVuSans-36"/>
       <use x="63.623047" xlink:href="#DejaVuSans-37"/>
       <use x="127.246094" xlink:href="#DejaVuSans-2e"/>
       <use x="159.033203" xlink:href="#DejaVuSans-30"/>
      </g>
     </g>
    </g>
    <g id="xtick_4">
     <g id="line2d_4">
      <g>
       <use style="stroke:#000000;stroke-width:0.8;" x="306.09" xlink:href="#m31e03412fb" y="283.48"/>
      </g>
     </g>
     <g id="text_4">
      <!-- 100.0 -->
      <g transform="translate(277.461875 305.676875)scale(0.2 -0.2)">
       <defs>
        <path d="M 794 531 
L 1825 531 
L 1825 4091 
L 703 3866 
L 703 4441 
L 1819 4666 
L 2450 4666 
L 2450 531 
L 3481 531 
L 3481 0 
L 794 0 
L 794 531 
z
" id="DejaVuSans-31" transform="scale(0.015625)"/>
       </defs>
       <use xlink:href="#DejaVuSans-31"/>
       <use x="63.623047" xlink:href="#DejaVuSans-30"/>
       <use x="127.246094" xlink:href="#DejaVuSans-30"/>
       <use x="190.869141" xlink:href="#DejaVuSans-2e"/>
       <use x="222.65625" xlink:href="#DejaVuSans-30"/>
      </g>
     </g>
    </g>
    <g id="text_5">
     <!-- $T$ -->
     <g transform="translate(164.325 329.033125)scale(0.2 -0.2)">
      <defs>
       <path d="M 378 4666 
L 4325 4666 
L 4225 4134 
L 2559 4134 
L 1759 0 
L 1125 0 
L 1925 4134 
L 275 4134 
L 378 4666 
z
" id="DejaVuSans-Oblique-54" transform="scale(0.015625)"/>
      </defs>
      <use transform="translate(0 0.09375)" xlink:href="#DejaVuSans-Oblique-54"/>
     </g>
    </g>
   </g>
   <g id="matplotlib.axis_2">
    <g id="text_6">
     <!-- $x$ -->
     <g transform="translate(26.800625 153.14)rotate(-90)scale(0.2 -0.2)">
      <defs>
       <path d="M 3841 3500 
L 2234 1784 
L 3219 0 
L 2559 0 
L 1819 1388 
L 531 0 
L -166 0 
L 1556 1844 
L 641 3500 
L 1300 3500 
L 1972 2234 
L 3144 3500 
L 3841 3500 
z
" id="DejaVuSans-Oblique-78" transform="scale(0.015625)"/>
      </defs>
      <use transform="translate(0 0.3125)" xlink:href="#DejaVuSans-Oblique-78"/>
     </g>
    </g>
   </g>
   <g id="line2d_5">
    <path clip-path="url(#pa87a79c0d8)" d="M 34.96 271.085455 
L 37.6713 264.888182 
L 40.3826 259.000773 
L 43.0939 253.407734 
L 45.8052 248.094347 
L 48.5165 243.04663 
L 51.2278 238.251299 
L 53.9391 233.695734 
L 56.6504 229.367947 
L 59.3617 225.25655 
L 62.073 221.350722 
L 64.7843 217.640186 
L 67.4956 214.115177 
L 70.2069 210.766418 
L 72.9182 207.585097 
L 75.6295 204.562842 
L 78.3408 201.6917 
L 81.0521 198.964115 
L 83.7634 196.372909 
L 86.4747 193.911264 
L 89.186 191.572701 
L 91.8973 189.351066 
L 94.6086 187.240512 
L 97.3199 185.235487 
L 100.0312 183.330712 
L 102.7425 181.521177 
L 105.4538 179.802118 
L 108.1651 178.169012 
L 110.8764 176.617561 
L 113.5877 175.143683 
L 116.299 173.743499 
L 119.0103 172.413324 
L 121.7216 171.149658 
L 124.4329 169.949175 
L 127.1442 168.808716 
L 129.8555 167.725281 
L 132.5668 166.696016 
L 135.2781 165.718216 
L 137.9894 164.789305 
L 140.7007 163.90684 
L 143.412 163.068498 
L 146.1233 162.272073 
L 148.8346 161.515469 
L 151.5459 160.796696 
L 154.2572 160.113861 
L 156.9685 159.465168 
L 159.6798 158.848909 
L 162.3911 158.263464 
L 165.1024 157.707291 
L 167.8137 157.178926 
L 170.525 156.67698 
L 173.2363 156.200131 
L 175.9476 155.747124 
L 178.6589 155.316768 
L 181.3702 154.90793 
L 184.0815 154.519533 
L 186.7928 154.150557 
L 189.5041 153.800029 
L 192.2154 153.467027 
L 194.9267 153.150676 
L 197.638 152.850142 
L 200.3493 152.564635 
L 203.0606 152.293403 
L 205.7719 152.035733 
L 208.4832 151.790946 
L 211.1945 151.558399 
L 213.9058 151.337479 
L 216.6171 151.127605 
L 219.3284 150.928225 
L 222.0397 150.738814 
L 224.751 150.558873 
L 227.4623 150.387929 
L 230.1736 150.225533 
L 232.8849 150.071256 
L 235.5962 149.924693 
L 238.3075 149.785459 
L 241.0188 149.653186 
L 243.7301 149.527527 
L 246.4414 149.40815 
L 249.1527 149.294743 
L 251.864 149.187006 
L 254.5753 149.084655 
L 257.2866 148.987423 
L 259.9979 148.895051 
L 262.7092 148.807299 
L 265.4205 148.723934 
L 268.1318 148.644737 
L 270.8431 148.5695 
L 273.5544 148.498025 
L 276.2657 148.430124 
L 278.977 148.365618 
L 281.6883 148.304337 
L 284.3996 148.24612 
L 287.1109 148.190814 
L 289.8222 148.138273 
L 292.5335 148.08836 
L 295.2448 148.040942 
L 297.9561 147.995895 
L 300.6674 147.9531 
L 303.3787 147.912445 
" style="fill:none;stroke:#9e0142;stroke-linecap:square;stroke-width:5;"/>
   </g>
   <g id="line2d_6">
    <path clip-path="url(#pa87a79c0d8)" d="M 34.96 246.296364 
L 37.6713 241.338545 
L 40.3826 236.628618 
L 43.0939 232.154187 
L 45.8052 227.903478 
L 48.5165 223.865304 
L 51.2278 220.029039 
L 53.9391 216.384587 
L 56.6504 212.922358 
L 59.3617 209.63324 
L 62.073 206.508578 
L 64.7843 203.540149 
L 67.4956 200.720141 
L 70.2069 198.041134 
L 72.9182 195.496078 
L 75.6295 193.078274 
L 78.3408 190.78136 
L 81.0521 188.599292 
L 83.7634 186.526327 
L 86.4747 184.557011 
L 89.186 182.68616 
L 91.8973 180.908852 
L 94.6086 179.22041 
L 97.3199 177.616389 
L 100.0312 176.09257 
L 102.7425 174.644941 
L 105.4538 173.269694 
L 108.1651 171.96321 
L 110.8764 170.722049 
L 113.5877 169.542947 
L 116.299 168.422799 
L 119.0103 167.358659 
L 121.7216 166.347726 
L 124.4329 165.38734 
L 127.1442 164.474973 
L 129.8555 163.608224 
L 132.5668 162.784813 
L 135.2781 162.002573 
L 137.9894 161.259444 
L 140.7007 160.553472 
L 143.412 159.882798 
L 146.1233 159.245658 
L 148.8346 158.640375 
L 151.5459 158.065357 
L 154.2572 157.519089 
L 156.9685 157.000134 
L 159.6798 156.507128 
L 162.3911 156.038771 
L 165.1024 155.593833 
L 167.8137 155.171141 
L 170.525 154.769584 
L 173.2363 154.388105 
L 175.9476 154.0257 
L 178.6589 153.681415 
L 181.3702 153.354344 
L 184.0815 153.043627 
L 186.7928 152.748445 
L 189.5041 152.468023 
L 192.2154 152.201622 
L 194.9267 151.948541 
L 197.638 151.708114 
L 200.3493 151.479708 
L 203.0606 151.262723 
L 205.7719 151.056587 
L 208.4832 150.860757 
L 211.1945 150.674719 
L 213.9058 150.497983 
L 216.6171 150.330084 
L 219.3284 150.17058 
L 222.0397 150.019051 
L 224.751 149.875098 
L 227.4623 149.738344 
L 230.1736 149.608426 
L 232.8849 149.485005 
L 235.5962 149.367755 
L 238.3075 149.256367 
L 241.0188 149.150549 
L 243.7301 149.050021 
L 246.4414 148.95452 
L 249.1527 148.863794 
L 251.864 148.777604 
L 254.5753 148.695724 
L 257.2866 148.617938 
L 259.9979 148.544041 
L 262.7092 148.473839 
L 265.4205 148.407147 
L 268.1318 148.34379 
L 270.8431 148.2836 
L 273.5544 148.22642 
L 276.2657 148.172099 
L 278.977 148.120494 
L 281.6883 148.07147 
L 284.3996 148.024896 
L 287.1109 147.980651 
L 289.8222 147.938619 
L 292.5335 147.898688 
L 295.2448 147.860753 
L 297.9561 147.824716 
L 300.6674 147.79048 
L 303.3787 147.757956 
" style="fill:none;stroke:#d43d4f;stroke-linecap:square;stroke-width:5;"/>
   </g>
   <g id="line2d_7">
    <path clip-path="url(#pa87a79c0d8)" d="M 34.96 221.507273 
L 37.6713 217.788909 
L 40.3826 214.256464 
L 43.0939 210.90064 
L 45.8052 207.712608 
L 48.5165 204.683978 
L 51.2278 201.806779 
L 53.9391 199.07344 
L 56.6504 196.476768 
L 59.3617 194.00993 
L 62.073 191.666433 
L 64.7843 189.440112 
L 67.4956 187.325106 
L 70.2069 185.315851 
L 72.9182 183.407058 
L 75.6295 181.593705 
L 78.3408 179.87102 
L 81.0521 178.234469 
L 83.7634 176.679746 
L 86.4747 175.202758 
L 89.186 173.79962 
L 91.8973 172.466639 
L 94.6086 171.200307 
L 97.3199 169.997292 
L 100.0312 168.854427 
L 102.7425 167.768706 
L 105.4538 166.737271 
L 108.1651 165.757407 
L 110.8764 164.826537 
L 113.5877 163.94221 
L 116.299 163.102099 
L 119.0103 162.303995 
L 121.7216 161.545795 
L 124.4329 160.825505 
L 127.1442 160.14123 
L 129.8555 159.491168 
L 132.5668 158.87361 
L 135.2781 158.286929 
L 137.9894 157.729583 
L 140.7007 157.200104 
L 143.412 156.697099 
L 146.1233 156.219244 
L 148.8346 155.765281 
L 151.5459 155.334017 
L 154.2572 154.924317 
L 156.9685 154.535101 
L 159.6798 154.165346 
L 162.3911 153.814078 
L 165.1024 153.480374 
L 167.8137 153.163356 
L 170.525 152.862188 
L 173.2363 152.576079 
L 175.9476 152.304275 
L 178.6589 152.046061 
L 181.3702 151.800758 
L 184.0815 151.56772 
L 186.7928 151.346334 
L 189.5041 151.136017 
L 192.2154 150.936216 
L 194.9267 150.746406 
L 197.638 150.566085 
L 200.3493 150.394781 
L 203.0606 150.232042 
L 205.7719 150.07744 
L 208.4832 149.930568 
L 211.1945 149.791039 
L 213.9058 149.658488 
L 216.6171 149.532563 
L 219.3284 149.412935 
L 222.0397 149.299288 
L 224.751 149.191324 
L 227.4623 149.088758 
L 230.1736 148.99132 
L 232.8849 148.898754 
L 235.5962 148.810816 
L 238.3075 148.727275 
L 241.0188 148.647912 
L 243.7301 148.572516 
L 246.4414 148.50089 
L 249.1527 148.432846 
L 251.864 148.368203 
L 254.5753 148.306793 
L 257.2866 148.248454 
L 259.9979 148.193031 
L 262.7092 148.140379 
L 265.4205 148.09036 
L 268.1318 148.042842 
L 270.8431 147.9977 
L 273.5544 147.954815 
L 276.2657 147.914074 
L 278.977 147.875371 
L 281.6883 147.838602 
L 284.3996 147.803672 
L 287.1109 147.770488 
L 289.8222 147.738964 
L 292.5335 147.709016 
L 295.2448 147.680565 
L 297.9561 147.653537 
L 300.6674 147.62786 
L 303.3787 147.603467 
" style="fill:none;stroke:#f46d43;stroke-linecap:square;stroke-width:5;"/>
   </g>
   <g id="line2d_8">
    <path clip-path="url(#pa87a79c0d8)" d="M 34.96 196.718182 
L 37.6713 194.239273 
L 40.3826 191.884309 
L 43.0939 189.647094 
L 45.8052 187.521739 
L 48.5165 185.502652 
L 51.2278 183.584519 
L 53.9391 181.762293 
L 56.6504 180.031179 
L 59.3617 178.38662 
L 62.073 176.824289 
L 64.7843 175.340074 
L 67.4956 173.930071 
L 70.2069 172.590567 
L 72.9182 171.318039 
L 75.6295 170.109137 
L 78.3408 168.96068 
L 81.0521 167.869646 
L 83.7634 166.833164 
L 86.4747 165.848506 
L 89.186 164.91308 
L 91.8973 164.024426 
L 94.6086 163.180205 
L 97.3199 162.378195 
L 100.0312 161.616285 
L 102.7425 160.892471 
L 105.4538 160.204847 
L 108.1651 159.551605 
L 110.8764 158.931025 
L 113.5877 158.341473 
L 116.299 157.7814 
L 119.0103 157.24933 
L 121.7216 156.743863 
L 124.4329 156.26367 
L 127.1442 155.807487 
L 129.8555 155.374112 
L 132.5668 154.962407 
L 135.2781 154.571286 
L 137.9894 154.199722 
L 140.7007 153.846736 
L 143.412 153.511399 
L 146.1233 153.192829 
L 148.8346 152.890188 
L 151.5459 152.602678 
L 154.2572 152.329544 
L 156.9685 152.070067 
L 159.6798 151.823564 
L 162.3911 151.589386 
L 165.1024 151.366916 
L 167.8137 151.15557 
L 170.525 150.954792 
L 173.2363 150.764052 
L 175.9476 150.58285 
L 178.6589 150.410707 
L 181.3702 150.247172 
L 184.0815 150.091813 
L 186.7928 149.944223 
L 189.5041 149.804012 
L 192.2154 149.670811 
L 194.9267 149.54427 
L 197.638 149.424057 
L 200.3493 149.309854 
L 203.0606 149.201361 
L 205.7719 149.098293 
L 208.4832 149.000379 
L 211.1945 148.90736 
L 213.9058 148.818992 
L 216.6171 148.735042 
L 219.3284 148.65529 
L 222.0397 148.579525 
L 224.751 148.507549 
L 227.4623 148.439172 
L 230.1736 148.374213 
L 232.8849 148.312503 
L 235.5962 148.253877 
L 238.3075 148.198184 
L 241.0188 148.145274 
L 243.7301 148.095011 
L 246.4414 148.04726 
L 249.1527 148.001897 
L 251.864 147.958802 
L 254.5753 147.917862 
L 257.2866 147.878969 
L 259.9979 147.842021 
L 262.7092 147.80692 
L 265.4205 147.773574 
L 268.1318 147.741895 
L 270.8431 147.7118 
L 273.5544 147.68321 
L 276.2657 147.65605 
L 278.977 147.630247 
L 281.6883 147.605735 
L 284.3996 147.582448 
L 287.1109 147.560326 
L 289.8222 147.539309 
L 292.5335 147.519344 
L 295.2448 147.500377 
L 297.9561 147.482358 
L 300.6674 147.46524 
L 303.3787 147.448978 
" style="fill:none;stroke:#fdad60;stroke-linecap:square;stroke-width:5;"/>
   </g>
   <g id="line2d_9">
    <path clip-path="url(#pa87a79c0d8)" d="M 34.96 171.929091 
L 37.6713 170.689636 
L 40.3826 169.512155 
L 43.0939 168.393547 
L 45.8052 167.330869 
L 48.5165 166.321326 
L 51.2278 165.36226 
L 53.9391 164.451147 
L 56.6504 163.585589 
L 59.3617 162.76331 
L 62.073 161.982144 
L 64.7843 161.240037 
L 67.4956 160.535035 
L 70.2069 159.865284 
L 72.9182 159.229019 
L 75.6295 158.624568 
L 78.3408 158.05034 
L 81.0521 157.504823 
L 83.7634 156.986582 
L 86.4747 156.494253 
L 89.186 156.02654 
L 91.8973 155.582213 
L 94.6086 155.160102 
L 97.3199 154.759097 
L 100.0312 154.378142 
L 102.7425 154.016235 
L 105.4538 153.672424 
L 108.1651 153.345802 
L 110.8764 153.035512 
L 113.5877 152.740737 
L 116.299 152.4607 
L 119.0103 152.194665 
L 121.7216 151.941932 
L 124.4329 151.701835 
L 127.1442 151.473743 
L 129.8555 151.257056 
L 132.5668 151.051203 
L 135.2781 150.855643 
L 137.9894 150.669861 
L 140.7007 150.493368 
L 143.412 150.3257 
L 146.1233 150.166415 
L 148.8346 150.015094 
L 151.5459 149.871339 
L 154.2572 149.734772 
L 156.9685 149.605034 
L 159.6798 149.481782 
L 162.3911 149.364693 
L 165.1024 149.253458 
L 167.8137 149.147785 
L 170.525 149.047396 
L 173.2363 148.952026 
L 175.9476 148.861425 
L 178.6589 148.775354 
L 181.3702 148.693586 
L 184.0815 148.615907 
L 186.7928 148.542111 
L 189.5041 148.472006 
L 192.2154 148.405405 
L 194.9267 148.342135 
L 197.638 148.282028 
L 200.3493 148.224927 
L 203.0606 148.170681 
L 205.7719 148.119147 
L 208.4832 148.070189 
L 211.1945 148.02368 
L 213.9058 147.979496 
L 216.6171 147.937521 
L 219.3284 147.897645 
L 222.0397 147.859763 
L 224.751 147.823775 
L 227.4623 147.789586 
L 230.1736 147.757107 
L 232.8849 147.726251 
L 235.5962 147.696939 
L 238.3075 147.669092 
L 241.0188 147.642637 
L 243.7301 147.617505 
L 246.4414 147.59363 
L 249.1527 147.570949 
L 251.864 147.549401 
L 254.5753 147.528931 
L 257.2866 147.509485 
L 259.9979 147.49101 
L 262.7092 147.47346 
L 265.4205 147.456787 
L 268.1318 147.440947 
L 270.8431 147.4259 
L 273.5544 147.411605 
L 276.2657 147.398025 
L 278.977 147.385124 
L 281.6883 147.372867 
L 284.3996 147.361224 
L 287.1109 147.350163 
L 289.8222 147.339655 
L 292.5335 147.329672 
L 295.2448 147.320188 
L 297.9561 147.311179 
L 300.6674 147.30262 
L 303.3787 147.294489 
" style="fill:none;stroke:#fee08b;stroke-linecap:square;stroke-width:5;"/>
   </g>
   <g id="line2d_10">
    <path clip-path="url(#pa87a79c0d8)" d="M 34.96 147.14 
L 37.6713 147.14 
L 40.3826 147.14 
L 43.0939 147.14 
L 45.8052 147.14 
L 48.5165 147.14 
L 51.2278 147.14 
L 53.9391 147.14 
L 56.6504 147.14 
L 59.3617 147.14 
L 62.073 147.14 
L 64.7843 147.14 
L 67.4956 147.14 
L 70.2069 147.14 
L 72.9182 147.14 
L 75.6295 147.14 
L 78.3408 147.14 
L 81.0521 147.14 
L 83.7634 147.14 
L 86.4747 147.14 
L 89.186 147.14 
L 91.8973 147.14 
L 94.6086 147.14 
L 97.3199 147.14 
L 100.0312 147.14 
L 102.7425 147.14 
L 105.4538 147.14 
L 108.1651 147.14 
L 110.8764 147.14 
L 113.5877 147.14 
L 116.299 147.14 
L 119.0103 147.14 
L 121.7216 147.14 
L 124.4329 147.14 
L 127.1442 147.14 
L 129.8555 147.14 
L 132.5668 147.14 
L 135.2781 147.14 
L 137.9894 147.14 
L 140.7007 147.14 
L 143.412 147.14 
L 146.1233 147.14 
L 148.8346 147.14 
L 151.5459 147.14 
L 154.2572 147.14 
L 156.9685 147.14 
L 159.6798 147.14 
L 162.3911 147.14 
L 165.1024 147.14 
L 167.8137 147.14 
L 170.525 147.14 
L 173.2363 147.14 
L 175.9476 147.14 
L 178.6589 147.14 
L 181.3702 147.14 
L 184.0815 147.14 
L 186.7928 147.14 
L 189.5041 147.14 
L 192.2154 147.14 
L 194.9267 147.14 
L 197.638 147.14 
L 200.3493 147.14 
L 203.0606 147.14 
L 205.7719 147.14 
L 208.4832 147.14 
L 211.1945 147.14 
L 213.9058 147.14 
L 216.6171 147.14 
L 219.3284 147.14 
L 222.0397 147.14 
L 224.751 147.14 
L 227.4623 147.14 
L 230.1736 147.14 
L 232.8849 147.14 
L 235.5962 147.14 
L 238.3075 147.14 
L 241.0188 147.14 
L 243.7301 147.14 
L 246.4414 147.14 
L 249.1527 147.14 
L 251.864 147.14 
L 254.5753 147.14 
L 257.2866 147.14 
L 259.9979 147.14 
L 262.7092 147.14 
L 265.4205 147.14 
L 268.1318 147.14 
L 270.8431 147.14 
L 273.5544 147.14 
L 276.2657 147.14 
L 278.977 147.14 
L 281.6883 147.14 
L 284.3996 147.14 
L 287.1109 147.14 
L 289.8222 147.14 
L 292.5335 147.14 
L 295.2448 147.14 
L 297.9561 147.14 
L 300.6674 147.14 
L 303.3787 147.14 
" style="fill:none;stroke:#ffffbe;stroke-linecap:square;stroke-width:5;"/>
   </g>
   <g id="line2d_11">
    <path clip-path="url(#pa87a79c0d8)" d="M 34.96 122.350909 
L 37.6713 123.590364 
L 40.3826 124.767845 
L 43.0939 125.886453 
L 45.8052 126.949131 
L 48.5165 127.958674 
L 51.2278 128.91774 
L 53.9391 129.828853 
L 56.6504 130.694411 
L 59.3617 131.51669 
L 62.073 132.297856 
L 64.7843 133.039963 
L 67.4956 133.744965 
L 70.2069 134.414716 
L 72.9182 135.050981 
L 75.6295 135.655432 
L 78.3408 136.22966 
L 81.0521 136.775177 
L 83.7634 137.293418 
L 86.4747 137.785747 
L 89.186 138.25346 
L 91.8973 138.697787 
L 94.6086 139.119898 
L 97.3199 139.520903 
L 100.0312 139.901858 
L 102.7425 140.263765 
L 105.4538 140.607576 
L 108.1651 140.934198 
L 110.8764 141.244488 
L 113.5877 141.539263 
L 116.299 141.8193 
L 119.0103 142.085335 
L 121.7216 142.338068 
L 124.4329 142.578165 
L 127.1442 142.806257 
L 129.8555 143.022944 
L 132.5668 143.228797 
L 135.2781 143.424357 
L 137.9894 143.610139 
L 140.7007 143.786632 
L 143.412 143.9543 
L 146.1233 144.113585 
L 148.8346 144.264906 
L 151.5459 144.408661 
L 154.2572 144.545228 
L 156.9685 144.674966 
L 159.6798 144.798218 
L 162.3911 144.915307 
L 165.1024 145.026542 
L 167.8137 145.132215 
L 170.525 145.232604 
L 173.2363 145.327974 
L 175.9476 145.418575 
L 178.6589 145.504646 
L 181.3702 145.586414 
L 184.0815 145.664093 
L 186.7928 145.737889 
L 189.5041 145.807994 
L 192.2154 145.874595 
L 194.9267 145.937865 
L 197.638 145.997972 
L 200.3493 146.055073 
L 203.0606 146.109319 
L 205.7719 146.160853 
L 208.4832 146.209811 
L 211.1945 146.25632 
L 213.9058 146.300504 
L 216.6171 146.342479 
L 219.3284 146.382355 
L 222.0397 146.420237 
L 224.751 146.456225 
L 227.4623 146.490414 
L 230.1736 146.522893 
L 232.8849 146.553749 
L 235.5962 146.583061 
L 238.3075 146.610908 
L 241.0188 146.637363 
L 243.7301 146.662495 
L 246.4414 146.68637 
L 249.1527 146.709051 
L 251.864 146.730599 
L 254.5753 146.751069 
L 257.2866 146.770515 
L 259.9979 146.78899 
L 262.7092 146.80654 
L 265.4205 146.823213 
L 268.1318 146.839053 
L 270.8431 146.8541 
L 273.5544 146.868395 
L 276.2657 146.881975 
L 278.977 146.894876 
L 281.6883 146.907133 
L 284.3996 146.918776 
L 287.1109 146.929837 
L 289.8222 146.940345 
L 292.5335 146.950328 
L 295.2448 146.959812 
L 297.9561 146.968821 
L 300.6674 146.97738 
L 303.3787 146.985511 
" style="fill:none;stroke:#e6f598;stroke-linecap:square;stroke-width:5;"/>
   </g>
   <g id="line2d_12">
    <path clip-path="url(#pa87a79c0d8)" d="M 34.96 97.561818 
L 37.6713 100.040727 
L 40.3826 102.395691 
L 43.0939 104.632906 
L 45.8052 106.758261 
L 48.5165 108.777348 
L 51.2278 110.695481 
L 53.9391 112.517707 
L 56.6504 114.248821 
L 59.3617 115.89338 
L 62.073 117.455711 
L 64.7843 118.939926 
L 67.4956 120.349929 
L 70.2069 121.689433 
L 72.9182 122.961961 
L 75.6295 124.170863 
L 78.3408 125.31932 
L 81.0521 126.410354 
L 83.7634 127.446836 
L 86.4747 128.431494 
L 89.186 129.36692 
L 91.8973 130.255574 
L 94.6086 131.099795 
L 97.3199 131.901805 
L 100.0312 132.663715 
L 102.7425 133.387529 
L 105.4538 134.075153 
L 108.1651 134.728395 
L 110.8764 135.348975 
L 113.5877 135.938527 
L 116.299 136.4986 
L 119.0103 137.03067 
L 121.7216 137.536137 
L 124.4329 138.01633 
L 127.1442 138.472513 
L 129.8555 138.905888 
L 132.5668 139.317593 
L 135.2781 139.708714 
L 137.9894 140.080278 
L 140.7007 140.433264 
L 143.412 140.768601 
L 146.1233 141.087171 
L 148.8346 141.389812 
L 151.5459 141.677322 
L 154.2572 141.950456 
L 156.9685 142.209933 
L 159.6798 142.456436 
L 162.3911 142.690614 
L 165.1024 142.913084 
L 167.8137 143.12443 
L 170.525 143.325208 
L 173.2363 143.515948 
L 175.9476 143.69715 
L 178.6589 143.869293 
L 181.3702 144.032828 
L 184.0815 144.188187 
L 186.7928 144.335777 
L 189.5041 144.475988 
L 192.2154 144.609189 
L 194.9267 144.73573 
L 197.638 144.855943 
L 200.3493 144.970146 
L 203.0606 145.078639 
L 205.7719 145.181707 
L 208.4832 145.279621 
L 211.1945 145.37264 
L 213.9058 145.461008 
L 216.6171 145.544958 
L 219.3284 145.62471 
L 222.0397 145.700475 
L 224.751 145.772451 
L 227.4623 145.840828 
L 230.1736 145.905787 
L 232.8849 145.967497 
L 235.5962 146.026123 
L 238.3075 146.081816 
L 241.0188 146.134726 
L 243.7301 146.184989 
L 246.4414 146.23274 
L 249.1527 146.278103 
L 251.864 146.321198 
L 254.5753 146.362138 
L 257.2866 146.401031 
L 259.9979 146.437979 
L 262.7092 146.47308 
L 265.4205 146.506426 
L 268.1318 146.538105 
L 270.8431 146.5682 
L 273.5544 146.59679 
L 276.2657 146.62395 
L 278.977 146.649753 
L 281.6883 146.674265 
L 284.3996 146.697552 
L 287.1109 146.719674 
L 289.8222 146.740691 
L 292.5335 146.760656 
L 295.2448 146.779623 
L 297.9561 146.797642 
L 300.6674 146.81476 
L 303.3787 146.831022 
" style="fill:none;stroke:#aadca4;stroke-linecap:square;stroke-width:5;"/>
   </g>
   <g id="line2d_13">
    <path clip-path="url(#pa87a79c0d8)" d="M 34.96 72.772727 
L 37.6713 76.491091 
L 40.3826 80.023536 
L 43.0939 83.37936 
L 45.8052 86.567392 
L 48.5165 89.596022 
L 51.2278 92.473221 
L 53.9391 95.20656 
L 56.6504 97.803232 
L 59.3617 100.27007 
L 62.073 102.613567 
L 64.7843 104.839888 
L 67.4956 106.954894 
L 70.2069 108.964149 
L 72.9182 110.872942 
L 75.6295 112.686295 
L 78.3408 114.40898 
L 81.0521 116.045531 
L 83.7634 117.600254 
L 86.4747 119.077242 
L 89.186 120.48038 
L 91.8973 121.813361 
L 94.6086 123.079693 
L 97.3199 124.282708 
L 100.0312 125.425573 
L 102.7425 126.511294 
L 105.4538 127.542729 
L 108.1651 128.522593 
L 110.8764 129.453463 
L 113.5877 130.33779 
L 116.299 131.177901 
L 119.0103 131.976005 
L 121.7216 132.734205 
L 124.4329 133.454495 
L 127.1442 134.13877 
L 129.8555 134.788832 
L 132.5668 135.40639 
L 135.2781 135.993071 
L 137.9894 136.550417 
L 140.7007 137.079896 
L 143.412 137.582901 
L 146.1233 138.060756 
L 148.8346 138.514719 
L 151.5459 138.945983 
L 154.2572 139.355683 
L 156.9685 139.744899 
L 159.6798 140.114654 
L 162.3911 140.465922 
L 165.1024 140.799626 
L 167.8137 141.116644 
L 170.525 141.417812 
L 173.2363 141.703921 
L 175.9476 141.975725 
L 178.6589 142.233939 
L 181.3702 142.479242 
L 184.0815 142.71228 
L 186.7928 142.933666 
L 189.5041 143.143983 
L 192.2154 143.343784 
L 194.9267 143.533594 
L 197.638 143.713915 
L 200.3493 143.885219 
L 203.0606 144.047958 
L 205.7719 144.20256 
L 208.4832 144.349432 
L 211.1945 144.488961 
L 213.9058 144.621512 
L 216.6171 144.747437 
L 219.3284 144.867065 
L 222.0397 144.980712 
L 224.751 145.088676 
L 227.4623 145.191242 
L 230.1736 145.28868 
L 232.8849 145.381246 
L 235.5962 145.469184 
L 238.3075 145.552725 
L 241.0188 145.632088 
L 243.7301 145.707484 
L 246.4414 145.77911 
L 249.1527 145.847154 
L 251.864 145.911797 
L 254.5753 145.973207 
L 257.2866 146.031546 
L 259.9979 146.086969 
L 262.7092 146.139621 
L 265.4205 146.18964 
L 268.1318 146.237158 
L 270.8431 146.2823 
L 273.5544 146.325185 
L 276.2657 146.365926 
L 278.977 146.404629 
L 281.6883 146.441398 
L 284.3996 146.476328 
L 287.1109 146.509512 
L 289.8222 146.541036 
L 292.5335 146.570984 
L 295.2448 146.599435 
L 297.9561 146.626463 
L 300.6674 146.65214 
L 303.3787 146.676533 
" style="fill:none;stroke:#66c2a5;stroke-linecap:square;stroke-width:5;"/>
   </g>
   <g id="line2d_14">
    <path clip-path="url(#pa87a79c0d8)" d="M 34.96 47.983636 
L 37.6713 52.941455 
L 40.3826 57.651382 
L 43.0939 62.125813 
L 45.8052 66.376522 
L 48.5165 70.414696 
L 51.2278 74.250961 
L 53.9391 77.895413 
L 56.6504 81.357642 
L 59.3617 84.64676 
L 62.073 87.771422 
L 64.7843 90.739851 
L 67.4956 93.559859 
L 70.2069 96.238866 
L 72.9182 98.783922 
L 75.6295 101.201726 
L 78.3408 103.49864 
L 81.0521 105.680708 
L 83.7634 107.753673 
L 86.4747 109.722989 
L 89.186 111.59384 
L 91.8973 113.371148 
L 94.6086 115.05959 
L 97.3199 116.663611 
L 100.0312 118.18743 
L 102.7425 119.635059 
L 105.4538 121.010306 
L 108.1651 122.31679 
L 110.8764 123.557951 
L 113.5877 124.737053 
L 116.299 125.857201 
L 119.0103 126.921341 
L 121.7216 127.932274 
L 124.4329 128.89266 
L 127.1442 129.805027 
L 129.8555 130.671776 
L 132.5668 131.495187 
L 135.2781 132.277427 
L 137.9894 133.020556 
L 140.7007 133.726528 
L 143.412 134.397202 
L 146.1233 135.034342 
L 148.8346 135.639625 
L 151.5459 136.214643 
L 154.2572 136.760911 
L 156.9685 137.279866 
L 159.6798 137.772872 
L 162.3911 138.241229 
L 165.1024 138.686167 
L 167.8137 139.108859 
L 170.525 139.510416 
L 173.2363 139.891895 
L 175.9476 140.2543 
L 178.6589 140.598585 
L 181.3702 140.925656 
L 184.0815 141.236373 
L 186.7928 141.531555 
L 189.5041 141.811977 
L 192.2154 142.078378 
L 194.9267 142.331459 
L 197.638 142.571886 
L 200.3493 142.800292 
L 203.0606 143.017277 
L 205.7719 143.223413 
L 208.4832 143.419243 
L 211.1945 143.605281 
L 213.9058 143.782017 
L 216.6171 143.949916 
L 219.3284 144.10942 
L 222.0397 144.260949 
L 224.751 144.404902 
L 227.4623 144.541656 
L 230.1736 144.671574 
L 232.8849 144.794995 
L 235.5962 144.912245 
L 238.3075 145.023633 
L 241.0188 145.129451 
L 243.7301 145.229979 
L 246.4414 145.32548 
L 249.1527 145.416206 
L 251.864 145.502396 
L 254.5753 145.584276 
L 257.2866 145.662062 
L 259.9979 145.735959 
L 262.7092 145.806161 
L 265.4205 145.872853 
L 268.1318 145.93621 
L 270.8431 145.9964 
L 273.5544 146.05358 
L 276.2657 146.107901 
L 278.977 146.159506 
L 281.6883 146.20853 
L 284.3996 146.255104 
L 287.1109 146.299349 
L 289.8222 146.341381 
L 292.5335 146.381312 
L 295.2448 146.419247 
L 297.9561 146.455284 
L 300.6674 146.48952 
L 303.3787 146.522044 
" style="fill:none;stroke:#3387bc;stroke-linecap:square;stroke-width:5;"/>
   </g>
   <g id="line2d_15">
    <path clip-path="url(#pa87a79c0d8)" d="M 34.96 23.194545 
L 37.6713 29.391818 
L 40.3826 35.279227 
L 43.0939 40.872266 
L 45.8052 46.185653 
L 48.5165 51.23337 
L 51.2278 56.028701 
L 53.9391 60.584266 
L 56.6504 64.912053 
L 59.3617 69.02345 
L 62.073 72.929278 
L 64.7843 76.639814 
L 67.4956 80.164823 
L 70.2069 83.513582 
L 72.9182 86.694903 
L 75.6295 89.717158 
L 78.3408 92.5883 
L 81.0521 95.315885 
L 83.7634 97.907091 
L 86.4747 100.368736 
L 89.186 102.707299 
L 91.8973 104.928934 
L 94.6086 107.039488 
L 97.3199 109.044513 
L 100.0312 110.949288 
L 102.7425 112.758823 
L 105.4538 114.477882 
L 108.1651 116.110988 
L 110.8764 117.662439 
L 113.5877 119.136317 
L 116.299 120.536501 
L 119.0103 121.866676 
L 121.7216 123.130342 
L 124.4329 124.330825 
L 127.1442 125.471284 
L 129.8555 126.554719 
L 132.5668 127.583984 
L 135.2781 128.561784 
L 137.9894 129.490695 
L 140.7007 130.37316 
L 143.412 131.211502 
L 146.1233 132.007927 
L 148.8346 132.764531 
L 151.5459 133.483304 
L 154.2572 134.166139 
L 156.9685 134.814832 
L 159.6798 135.431091 
L 162.3911 136.016536 
L 165.1024 136.572709 
L 167.8137 137.101074 
L 170.525 137.60302 
L 173.2363 138.079869 
L 175.9476 138.532876 
L 178.6589 138.963232 
L 181.3702 139.37207 
L 184.0815 139.760467 
L 186.7928 140.129443 
L 189.5041 140.479971 
L 192.2154 140.812973 
L 194.9267 141.129324 
L 197.638 141.429858 
L 200.3493 141.715365 
L 203.0606 141.986597 
L 205.7719 142.244267 
L 208.4832 142.489054 
L 211.1945 142.721601 
L 213.9058 142.942521 
L 216.6171 143.152395 
L 219.3284 143.351775 
L 222.0397 143.541186 
L 224.751 143.721127 
L 227.4623 143.892071 
L 230.1736 144.054467 
L 232.8849 144.208744 
L 235.5962 144.355307 
L 238.3075 144.494541 
L 241.0188 144.626814 
L 243.7301 144.752473 
L 246.4414 144.87185 
L 249.1527 144.985257 
L 251.864 145.092994 
L 254.5753 145.195345 
L 257.2866 145.292577 
L 259.9979 145.384949 
L 262.7092 145.472701 
L 265.4205 145.556066 
L 268.1318 145.635263 
L 270.8431 145.7105 
L 273.5544 145.781975 
L 276.2657 145.849876 
L 278.977 145.914382 
L 281.6883 145.975663 
L 284.3996 146.03388 
L 287.1109 146.089186 
L 289.8222 146.141727 
L 292.5335 146.19164 
L 295.2448 146.239058 
L 297.9561 146.284105 
L 300.6674 146.3269 
L 303.3787 146.367555 
" style="fill:none;stroke:#5e4fa2;stroke-linecap:square;stroke-width:5;"/>
   </g>
   <g id="patch_3">
    <path d="M 34.96 283.48 
L 34.96 10.8 
" style="fill:none;stroke:#000000;stroke-linecap:square;stroke-linejoin:miter;stroke-width:3;"/>
   </g>
   <g id="patch_4">
    <path d="M 34.96 283.48 
L 306.09 283.48 
" style="fill:none;stroke:#000000;stroke-linecap:square;stroke-linejoin:miter;stroke-width:3;"/>
   </g>
  </g>
 </g>
 <defs>
  <clipPath id="pa87a79c0d8">
   <rect height="272.68" width="271.13" x="34.96" y="10.8"/>
  </clipPath>
 </defs>
</svg>
