<?xml version="1.0" encoding="utf-8" standalone="no"?>
<!DOCTYPE svg PUBLIC "-//W3C//DTD SVG 1.1//EN"
  "http://www.w3.org/Graphics/SVG/1.1/DTD/svg11.dtd">
<svg xmlns:xlink="http://www.w3.org/1999/xlink" width="460.8pt" height="345.6pt" viewBox="0 0 460.8 345.6" xmlns="http://www.w3.org/2000/svg" version="1.1">
 <metadata>
  <rdf:RDF xmlns:dc="http://purl.org/dc/elements/1.1/" xmlns:cc="http://creativecommons.org/ns#" xmlns:rdf="http://www.w3.org/1999/02/22-rdf-syntax-ns#">
   <cc:Work>
    <dc:type rdf:resource="http://purl.org/dc/dcmitype/StillImage"/>
    <dc:date>2022-06-29T11:17:44.544309</dc:date>
    <dc:format>image/svg+xml</dc:format>
    <dc:creator>
     <cc:Agent>
      <dc:title>Matplotlib v3.5.1, https://matplotlib.org/</dc:title>
     </cc:Agent>
    </dc:creator>
   </cc:Work>
  </rdf:RDF>
 </metadata>
 <defs>
  <style type="text/css">*{stroke-linejoin: round; stroke-linecap: butt}</style>
 </defs>
 <g id="figure_1">
  <g id="patch_1">
   <path d="M 0 345.6 
L 460.8 345.6 
L 460.8 0 
L 0 0 
z
" style="fill: #ffffff"/>
  </g>
  <g id="axes_1">
   <g id="patch_2">
    <path d="M 35.3 310.64 
L 450 310.64 
L 450 10.8 
L 35.3 10.8 
z
" style="fill: #ffffff"/>
   </g>
   <g id="matplotlib.axis_1">
    <g id="text_1">
     <!-- $x$ -->
     <g transform="translate(236.65 329.836875)scale(0.2 -0.2)">
      <defs>
       <path id="DejaVuSans-Oblique-78" d="M 3841 3500 
L 2234 1784 
L 3219 0 
L 2559 0 
L 1819 1388 
L 531 0 
L -166 0 
L 1556 1844 
L 641 3500 
L 1300 3500 
L 1972 2234 
L 3144 3500 
L 3841 3500 
z
" transform="scale(0.015625)"/>
      </defs>
      <use xlink:href="#DejaVuSans-Oblique-78" transform="translate(0 0.3125)"/>
     </g>
    </g>
   </g>
   <g id="matplotlib.axis_2">
    <g id="text_2">
     <!-- $\dot{x}$ -->
     <g transform="translate(27.140625 166.72)rotate(-90)scale(0.2 -0.2)">
      <defs>
       <path id="DejaVuSans-307" d="M -1894 4863 
L -1319 4863 
L -1319 4134 
L -1894 4134 
L -1894 4863 
z
M -1600 3584 
L -1600 3584 
z
" transform="scale(0.015625)"/>
      </defs>
      <use xlink:href="#DejaVuSans-307" transform="translate(62.388672 12.015625)"/>
      <use xlink:href="#DejaVuSans-Oblique-78" transform="translate(0 0.828125)"/>
     </g>
    </g>
   </g>
   <g id="line2d_1">
    <path d="M 241.069625 161.862656 
L 240.990607 161.919789 
L 240.907637 161.979778 
L 240.820519 162.042767 
L 240.729045 162.108906 
L 240.632997 162.178351 
L 240.532147 162.251269 
L 240.426254 162.327832 
L 240.315067 162.408224 
L 240.19832 162.492635 
L 240.075736 162.581267 
L 239.947023 162.67433 
L 239.811874 162.772046 
L 239.669968 162.874649 
L 239.520966 162.982381 
L 239.364515 163.0955 
L 239.20024 163.214275 
L 239.027752 163.338989 
L 238.84664 163.469938 
L 238.656472 163.607435 
L 238.456796 163.751807 
L 238.247135 163.903397 
L 238.026992 164.062567 
L 237.795842 164.229696 
L 237.553134 164.40518 
L 237.298291 164.589439 
L 237.030705 164.782911 
L 236.74974 164.986057 
L 236.454727 165.19936 
L 236.144964 165.423328 
L 235.819712 165.658494 
L 235.478198 165.905419 
L 235.119607 166.16469 
L 234.743088 166.436924 
L 234.347742 166.722771 
L 233.932629 167.022909 
L 233.496761 167.338055 
L 233.039099 167.668957 
L 232.558554 168.016405 
L 232.053981 168.381225 
L 231.524181 168.764287 
L 230.96789 169.166501 
L 230.383784 169.588826 
L 229.770473 170.032267 
L 229.126497 170.497881 
L 228.450322 170.986775 
L 227.740338 171.500114 
L 226.994855 172.039119 
L 226.212097 172.605075 
L 225.390202 173.199329 
L 224.527212 173.823295 
L 223.621073 174.47846 
L 222.669627 175.166383 
L 221.670608 175.888702 
L 220.621638 176.647137 
L 219.52022 177.443494 
L 218.363731 178.279669 
L 217.149418 179.157653 
L 215.874389 180.079535 
L 214.535608 181.047512 
L 213.129889 182.063888 
L 211.653883 183.131082 
L 210.104077 184.251636 
L 208.476781 185.428218 
L 206.76812 186.663629 
L 204.974026 187.96081 
L 203.090228 189.322851 
L 201.112239 190.752993 
L 199.035351 192.254643 
L 196.854618 193.831375 
L 194.564849 195.486944 
L 192.160592 197.225291 
L 189.636121 199.050555 
L 186.985428 200.967083 
L 184.202199 202.979437 
L 181.279809 205.092409 
L 178.211299 207.31103 
L 174.989364 209.640581 
L 171.606332 212.08661 
L 168.054149 214.654941 
L 164.324357 217.351688 
L 160.408074 220.183272 
L 156.295978 223.156436 
L 151.978277 226.278258 
L 147.444691 229.55617 
L 142.684425 232.997979 
L 137.686147 236.611878 
L 132.437954 240.406472 
L 126.927352 244.390795 
L 121.141219 248.574335 
L 115.06578 252.967052 
L 108.686569 257.579405 
L 101.988398 262.422375 
L 94.955318 267.507494 
L 87.570584 272.846868 
L 79.816613 278.453212 
L 71.674943 284.339872 
L 63.12619 290.520866 
L 54.15 297.010909 
" clip-path="url(#p12e209bf75)" style="fill: none; stroke: #000000; stroke-width: 5; stroke-linecap: square"/>
   </g>
   <g id="line2d_2">
    <path d="M 241.42082 161.608733 
L 241.359361 161.653169 
L 241.294829 161.699828 
L 241.22707 161.748819 
L 241.155924 161.80026 
L 241.08122 161.854273 
L 241.002781 161.910987 
L 240.92042 161.970536 
L 240.833941 162.033063 
L 240.743138 162.098716 
L 240.647795 162.167652 
L 240.547685 162.240034 
L 240.442569 162.316036 
L 240.332197 162.395838 
L 240.216307 162.47963 
L 240.094623 162.567611 
L 239.966854 162.659992 
L 239.832696 162.756991 
L 239.691831 162.858841 
L 239.543923 162.965783 
L 239.388619 163.078072 
L 239.22555 163.195976 
L 239.054327 163.319775 
L 238.874544 163.449763 
L 238.685771 163.586251 
L 238.487559 163.729564 
L 238.279437 163.880042 
L 238.060909 164.038044 
L 237.831455 164.203947 
L 237.590527 164.378144 
L 237.337554 164.561051 
L 237.071931 164.753104 
L 236.793028 164.954759 
L 236.500179 165.166497 
L 236.192688 165.388822 
L 235.869823 165.622263 
L 235.530814 165.867376 
L 235.174855 166.124745 
L 234.801097 166.394982 
L 234.408652 166.678731 
L 233.996585 166.976667 
L 233.563914 167.289501 
L 233.10961 167.617976 
L 232.63259 167.962875 
L 232.13172 168.325018 
L 231.605806 168.705269 
L 231.053596 169.104533 
L 230.473776 169.523759 
L 229.864965 169.963947 
L 229.225713 170.426145 
L 228.554499 170.911452 
L 227.849724 171.421025 
L 227.10971 171.956076 
L 226.332695 172.51788 
L 225.51683 173.107774 
L 224.660171 173.727162 
L 223.76068 174.37752 
L 222.816214 175.060396 
L 221.824525 175.777416 
L 220.783251 176.530287 
L 219.689913 177.320801 
L 218.541909 178.150841 
L 217.336505 179.022384 
L 216.07083 179.937503 
L 214.741871 180.898378 
L 213.346465 181.907297 
L 211.881288 182.966662 
L 210.342853 184.078995 
L 208.727495 185.246944 
L 207.03137 186.473292 
L 205.250438 187.760956 
L 203.38046 189.113004 
L 201.416983 190.532654 
L 199.355333 192.023287 
L 197.190599 193.588451 
L 194.917629 195.231874 
L 192.531011 196.957468 
L 190.025061 198.769341 
L 187.393814 200.671808 
L 184.631005 202.669398 
L 181.730055 204.766868 
L 178.684058 206.969212 
L 175.485761 209.281672 
L 172.127549 211.709756 
L 168.601426 214.259244 
L 164.898998 216.936206 
L 161.011447 219.747016 
L 156.92952 222.698367 
L 152.643496 225.797285 
L 148.143171 229.05115 
L 143.417829 232.467707 
L 138.456221 236.055092 
L 133.246532 239.821847 
L 127.776358 243.776939 
L 122.032676 247.929786 
L 116.00181 252.290276 
L 109.6694 256.868789 
L 103.02037 261.676229 
L 96.038889 266.72404 
" clip-path="url(#p12e209bf75)" style="fill: none; stroke: #000000; stroke-width: 5; stroke-linecap: square"/>
   </g>
   <g id="line2d_3">
    <path d="M 241.772014 161.354809 
L 241.728115 161.386549 
L 241.682021 161.419877 
L 241.633622 161.454871 
L 241.582803 161.491614 
L 241.529443 161.530195 
L 241.473415 161.570705 
L 241.414586 161.61324 
L 241.352815 161.657902 
L 241.287956 161.704797 
L 241.219853 161.754037 
L 241.148346 161.805739 
L 241.073263 161.860026 
L 240.994427 161.917027 
L 240.911648 161.976878 
L 240.82473 162.039722 
L 240.733467 162.105708 
L 240.63764 162.174994 
L 240.537022 162.247744 
L 240.431373 162.324131 
L 240.320442 162.404337 
L 240.203964 162.488554 
L 240.081662 162.576982 
L 239.953245 162.669831 
L 239.818408 162.767322 
L 239.676828 162.869689 
L 239.52817 162.977173 
L 239.372078 163.090032 
L 239.208182 163.208533 
L 239.036091 163.33296 
L 238.855396 163.463608 
L 238.665665 163.600788 
L 238.466449 163.744828 
L 238.257271 163.896069 
L 238.037635 164.054873 
L 237.807016 164.221616 
L 237.564867 164.396697 
L 237.31061 164.580532 
L 237.043641 164.773558 
L 236.763323 164.976236 
L 236.468989 165.189048 
L 236.159939 165.412501 
L 235.835436 165.647126 
L 235.494707 165.893482 
L 235.136943 166.152156 
L 234.76129 166.423764 
L 234.366854 166.708952 
L 233.952697 167.0084 
L 233.517832 167.32282 
L 233.061224 167.652961 
L 232.581785 167.999609 
L 232.078374 168.363589 
L 231.549793 168.745768 
L 230.994782 169.147057 
L 230.412021 169.56841 
L 229.800122 170.01083 
L 229.157629 170.475372 
L 228.48301 170.96314 
L 227.77466 171.475297 
L 227.030894 172.013062 
L 226.249938 172.577715 
L 225.429935 173.170601 
L 224.568932 173.793131 
L 223.664878 174.446788 
L 222.715622 175.133127 
L 221.718903 175.853783 
L 220.672349 176.610473 
L 219.573466 177.404996 
L 218.419639 178.239246 
L 217.208121 179.115208 
L 215.936027 180.034969 
L 214.600329 181.000717 
L 213.197845 182.014753 
L 211.725238 183.079491 
L 210.178999 184.197465 
L 208.555449 185.371338 
L 206.850722 186.603905 
L 205.060758 187.898101 
L 203.181296 189.257006 
L 201.207861 190.683856 
L 199.135754 192.182049 
L 196.960041 193.755151 
L 194.675543 195.406909 
L 192.276821 197.141254 
L 189.758162 198.962317 
L 187.11357 200.874433 
L 184.336748 202.882154 
L 181.421086 204.990262 
L 178.35964 207.203775 
L 175.145122 209.527964 
L 171.769878 211.968362 
L 168.225872 214.53078 
L 164.504665 217.221319 
L 160.597399 220.046385 
L 156.494769 223.012705 
L 152.187007 226.12734 
L 147.663857 229.397707 
L 142.91455 232.831592 
L 137.927778 236.437172 
" clip-path="url(#p12e209bf75)" style="fill: none; stroke: #000000; stroke-width: 5; stroke-linecap: square"/>
   </g>
   <g id="line2d_4">
    <path d="M 242.123208 161.100885 
L 242.096869 161.11993 
L 242.069212 161.139926 
L 242.040173 161.160922 
L 242.009682 161.182969 
L 241.977666 161.206117 
L 241.944049 161.230423 
L 241.908751 161.255944 
L 241.871689 161.282741 
L 241.832773 161.310878 
L 241.791912 161.340422 
L 241.749008 161.371443 
L 241.703958 161.404015 
L 241.656656 161.438216 
L 241.606989 161.474127 
L 241.554838 161.511833 
L 241.50008 161.551425 
L 241.442584 161.592996 
L 241.382213 161.636646 
L 241.318824 161.682478 
L 241.252265 161.730602 
L 241.182378 161.781132 
L 241.108997 161.834189 
L 241.031947 161.889899 
L 240.951045 161.948393 
L 240.866097 162.009813 
L 240.776902 162.074304 
L 240.683247 162.142019 
L 240.584909 162.21312 
L 240.481655 162.287776 
L 240.373237 162.366165 
L 240.259399 162.448473 
L 240.139869 162.534897 
L 240.014363 162.625641 
L 239.882581 162.720924 
L 239.74421 162.82097 
L 239.59892 162.926018 
L 239.446366 163.036319 
L 239.286185 163.152135 
L 239.117994 163.273742 
L 238.941394 163.401429 
L 238.755963 163.5355 
L 238.561261 163.676275 
L 238.356824 163.824089 
L 238.142166 163.979294 
L 237.916774 164.142258 
L 237.680113 164.313371 
L 237.431618 164.49304 
L 237.170699 164.681692 
L 236.896734 164.879776 
L 236.609071 165.087765 
L 236.307024 165.306153 
L 235.989876 165.535461 
L 235.656869 165.776234 
L 235.307213 166.029046 
L 234.940073 166.294498 
L 234.554577 166.573223 
L 234.149806 166.865884 
L 233.724796 167.173178 
L 233.278536 167.495837 
L 232.809963 167.834629 
L 232.317961 168.190361 
L 231.801359 168.563879 
L 231.258927 168.956073 
L 230.689373 169.367876 
L 230.091342 169.80027 
L 229.463409 170.254284 
L 228.80408 170.730998 
L 228.111784 171.231548 
L 227.384873 171.757125 
L 226.621616 172.308981 
L 225.820197 172.88843 
L 224.978707 173.496852 
L 224.095143 174.135694 
L 223.1674 174.806479 
L 222.19327 175.510803 
L 221.170433 176.250343 
L 220.096455 177.02686 
L 218.968777 177.842203 
L 217.784716 178.698314 
L 216.541452 179.597229 
L 215.236025 180.541091 
L 213.865326 181.532145 
L 212.426092 182.572753 
L 210.914897 183.66539 
L 209.328142 184.81266 
L 207.662049 186.017293 
L 205.912651 187.282157 
L 204.075784 188.610265 
L 202.147073 190.004778 
L 200.121927 191.469017 
L 197.995523 193.006468 
L 195.762799 194.620792 
L 193.418439 196.315831 
L 190.956861 198.095623 
L 188.372204 199.964404 
L 185.658314 201.926624 
L 182.80873 203.986955 
L 179.816667 206.150303 
" clip-path="url(#p12e209bf75)" style="fill: none; stroke: #000000; stroke-width: 5; stroke-linecap: square"/>
   </g>
   <g id="line2d_5">
    <path d="M 242.474403 160.846962 
L 242.465623 160.85331 
L 242.456404 160.859975 
L 242.446724 160.866974 
L 242.436561 160.874323 
L 242.425889 160.882039 
L 242.414683 160.890141 
L 242.402917 160.898648 
L 242.390563 160.90758 
L 242.377591 160.916959 
L 242.363971 160.926807 
L 242.349669 160.937148 
L 242.334653 160.948005 
L 242.318885 160.959405 
L 242.30233 160.971376 
L 242.284946 160.983944 
L 242.266693 160.997142 
L 242.247528 161.010999 
L 242.227404 161.025549 
L 242.206275 161.040826 
L 242.184088 161.056867 
L 242.160793 161.073711 
L 242.136332 161.091396 
L 242.110649 161.109966 
L 242.083682 161.129464 
L 242.055366 161.149938 
L 242.025634 161.171435 
L 241.994416 161.194006 
L 241.961636 161.217707 
L 241.927218 161.242592 
L 241.891079 161.268722 
L 241.853133 161.296158 
L 241.81329 161.324966 
L 241.771454 161.355214 
L 241.727527 161.386975 
L 241.681403 161.420323 
L 241.632973 161.455339 
L 241.582122 161.492106 
L 241.528728 161.530712 
L 241.472665 161.571247 
L 241.413798 161.61381 
L 241.351988 161.6585 
L 241.287087 161.705425 
L 241.218941 161.754696 
L 241.147389 161.806431 
L 241.072258 161.860753 
L 240.993371 161.91779 
L 240.910539 161.97768 
L 240.823566 162.040564 
L 240.732245 162.106592 
L 240.636357 162.175922 
L 240.535675 162.248718 
L 240.429959 162.325154 
L 240.318956 162.405411 
L 240.202404 162.489682 
L 240.080024 162.578166 
L 239.951526 162.671074 
L 239.816602 162.768628 
L 239.674932 162.871059 
L 239.526179 162.978612 
L 239.369988 163.091543 
L 239.205987 163.21012 
L 239.033786 163.334626 
L 238.852976 163.465358 
L 238.663124 163.602625 
L 238.463781 163.746757 
L 238.25447 163.898095 
L 238.034693 164.056999 
L 237.803928 164.223849 
L 237.561624 164.399042 
L 237.307205 164.582994 
L 237.040066 164.776143 
L 236.759569 164.978951 
L 236.465048 165.191898 
L 236.1558 165.415493 
L 235.83109 165.650268 
L 235.490144 165.896781 
L 235.132152 166.15562 
L 234.756259 166.427401 
L 234.361572 166.712771 
L 233.947151 167.01241 
L 233.512008 167.32703 
L 233.055109 167.657382 
L 232.575364 168.004251 
L 232.071632 168.368463 
L 231.542714 168.750887 
L 230.98735 169.152431 
L 230.404217 169.574052 
L 229.791928 170.016755 
L 229.149024 170.481593 
L 228.473976 170.969672 
L 227.765174 171.482156 
L 227.020933 172.020264 
L 226.23948 172.585277 
L 225.418954 173.178541 
L 224.557401 173.801468 
L 223.652771 174.455541 
L 222.70291 175.142318 
L 221.705556 175.863434 
" clip-path="url(#p12e209bf75)" style="fill: none; stroke: #000000; stroke-width: 5; stroke-linecap: square"/>
   </g>
   <g id="line2d_6">
    <path d="M 242.825597 160.593038 
L 242.834377 160.58669 
L 242.843596 160.580025 
L 242.853276 160.573026 
L 242.863439 160.565677 
L 242.874111 160.557961 
L 242.885317 160.549859 
L 242.897083 160.541352 
L 242.909437 160.53242 
L 242.922409 160.523041 
L 242.936029 160.513193 
L 242.950331 160.502852 
L 242.965347 160.491995 
L 242.981115 160.480595 
L 242.99767 160.468624 
L 243.015054 160.456056 
L 243.033307 160.442858 
L 243.052472 160.429001 
L 243.072596 160.414451 
L 243.093725 160.399174 
L 243.115912 160.383133 
L 243.139207 160.366289 
L 243.163668 160.348604 
L 243.189351 160.330034 
L 243.216318 160.310536 
L 243.244634 160.290062 
L 243.274366 160.268565 
L 243.305584 160.245994 
L 243.338364 160.222293 
L 243.372782 160.197408 
L 243.408921 160.171278 
L 243.446867 160.143842 
L 243.48671 160.115034 
L 243.528546 160.084786 
L 243.572473 160.053025 
L 243.618597 160.019677 
L 243.667027 159.984661 
L 243.717878 159.947894 
L 243.771272 159.909288 
L 243.827335 159.868753 
L 243.886202 159.82619 
L 243.948012 159.7815 
L 244.012913 159.734575 
L 244.081059 159.685304 
L 244.152611 159.633569 
L 244.227742 159.579247 
L 244.306629 159.52221 
L 244.389461 159.46232 
L 244.476434 159.399436 
L 244.567755 159.333408 
L 244.663643 159.264078 
L 244.764325 159.191282 
L 244.870041 159.114846 
L 244.981044 159.034589 
L 245.097596 158.950318 
L 245.219976 158.861834 
L 245.348474 158.768926 
L 245.483398 158.671372 
L 245.625068 158.568941 
L 245.773821 158.461388 
L 245.930012 158.348457 
L 246.094013 158.22988 
L 246.266214 158.105374 
L 246.447024 157.974642 
L 246.636876 157.837375 
L 246.836219 157.693243 
L 247.04553 157.541905 
L 247.265307 157.383001 
L 247.496072 157.216151 
L 247.738376 157.040958 
L 247.992795 156.857006 
L 248.259934 156.663857 
L 248.540431 156.461049 
L 248.834952 156.248102 
L 249.1442 156.024507 
L 249.46891 155.789732 
L 249.809856 155.543219 
L 250.167848 155.28438 
L 250.543741 155.012599 
L 250.938428 154.727229 
L 251.352849 154.42759 
L 251.787992 154.11297 
L 252.244891 153.782618 
L 252.724636 153.435749 
L 253.228368 153.071537 
L 253.757286 152.689113 
L 254.31265 152.287569 
L 254.895783 151.865948 
L 255.508072 151.423245 
L 256.150976 150.958407 
L 256.826024 150.470328 
L 257.534826 149.957844 
L 258.279067 149.419736 
L 259.06052 148.854723 
L 259.881046 148.261459 
L 260.742599 147.638532 
L 261.647229 146.984459 
L 262.59709 146.297682 
L 263.594444 145.576566 
" clip-path="url(#p12e209bf75)" style="fill: none; stroke: #000000; stroke-width: 5; stroke-linecap: square"/>
   </g>
   <g id="line2d_7">
    <path d="M 243.176792 160.339115 
L 243.203131 160.32007 
L 243.230788 160.300074 
L 243.259827 160.279078 
L 243.290318 160.257031 
L 243.322334 160.233883 
L 243.355951 160.209577 
L 243.391249 160.184056 
L 243.428311 160.157259 
L 243.467227 160.129122 
L 243.508088 160.099578 
L 243.550992 160.068557 
L 243.596042 160.035985 
L 243.643344 160.001784 
L 243.693011 159.965873 
L 243.745162 159.928167 
L 243.79992 159.888575 
L 243.857416 159.847004 
L 243.917787 159.803354 
L 243.981176 159.757522 
L 244.047735 159.709398 
L 244.117622 159.658868 
L 244.191003 159.605811 
L 244.268053 159.550101 
L 244.348955 159.491607 
L 244.433903 159.430187 
L 244.523098 159.365696 
L 244.616753 159.297981 
L 244.715091 159.22688 
L 244.818345 159.152224 
L 244.926763 159.073835 
L 245.040601 158.991527 
L 245.160131 158.905103 
L 245.285637 158.814359 
L 245.417419 158.719076 
L 245.55579 158.61903 
L 245.70108 158.513982 
L 245.853634 158.403681 
L 246.013815 158.287865 
L 246.182006 158.166258 
L 246.358606 158.038571 
L 246.544037 157.9045 
L 246.738739 157.763725 
L 246.943176 157.615911 
L 247.157834 157.460706 
L 247.383226 157.297742 
L 247.619887 157.126629 
L 247.868382 156.94696 
L 248.129301 156.758308 
L 248.403266 156.560224 
L 248.690929 156.352235 
L 248.992976 156.133847 
L 249.310124 155.904539 
L 249.643131 155.663766 
L 249.992787 155.410954 
L 250.359927 155.145502 
L 250.745423 154.866777 
L 251.150194 154.574116 
L 251.575204 154.266822 
L 252.021464 153.944163 
L 252.490037 153.605371 
L 252.982039 153.249639 
L 253.498641 152.876121 
L 254.041073 152.483927 
L 254.610627 152.072124 
L 255.208658 151.63973 
L 255.836591 151.185716 
L 256.49592 150.709002 
L 257.188216 150.208452 
L 257.915127 149.682875 
L 258.678384 149.131019 
L 259.479803 148.55157 
L 260.321293 147.943148 
L 261.204857 147.304306 
L 262.1326 146.633521 
L 263.10673 145.929197 
L 264.129567 145.189657 
L 265.203545 144.41314 
L 266.331223 143.597797 
L 267.515284 142.741686 
L 268.758548 141.842771 
L 270.063975 140.898909 
L 271.434674 139.907855 
L 272.873908 138.867247 
L 274.385103 137.77461 
L 275.971858 136.62734 
L 277.637951 135.422707 
L 279.387349 134.157843 
L 281.224216 132.829735 
L 283.152927 131.435222 
L 285.178073 129.970983 
L 287.304477 128.433532 
L 289.537201 126.819208 
L 291.881561 125.124169 
L 294.343139 123.344377 
L 296.927796 121.475596 
L 299.641686 119.513376 
L 302.49127 117.453045 
L 305.483333 115.289697 
" clip-path="url(#p12e209bf75)" style="fill: none; stroke: #000000; stroke-width: 5; stroke-linecap: square"/>
   </g>
   <g id="line2d_8">
    <path d="M 243.527986 160.085191 
L 243.571885 160.053451 
L 243.617979 160.020123 
L 243.666378 159.985129 
L 243.717197 159.948386 
L 243.770557 159.909805 
L 243.826585 159.869295 
L 243.885414 159.82676 
L 243.947185 159.782098 
L 244.012044 159.735203 
L 244.080147 159.685963 
L 244.151654 159.634261 
L 244.226737 159.579974 
L 244.305573 159.522973 
L 244.388352 159.463122 
L 244.47527 159.400278 
L 244.566533 159.334292 
L 244.66236 159.265006 
L 244.762978 159.192256 
L 244.868627 159.115869 
L 244.979558 159.035663 
L 245.096036 158.951446 
L 245.218338 158.863018 
L 245.346755 158.770169 
L 245.481592 158.672678 
L 245.623172 158.570311 
L 245.77183 158.462827 
L 245.927922 158.349968 
L 246.091818 158.231467 
L 246.263909 158.10704 
L 246.444604 157.976392 
L 246.634335 157.839212 
L 246.833551 157.695172 
L 247.042729 157.543931 
L 247.262365 157.385127 
L 247.492984 157.218384 
L 247.735133 157.043303 
L 247.98939 156.859468 
L 248.256359 156.666442 
L 248.536677 156.463764 
L 248.831011 156.250952 
L 249.140061 156.027499 
L 249.464564 155.792874 
L 249.805293 155.546518 
L 250.163057 155.287844 
L 250.53871 155.016236 
L 250.933146 154.731048 
L 251.347303 154.4316 
L 251.782168 154.11718 
L 252.238776 153.787039 
L 252.718215 153.440391 
L 253.221626 153.076411 
L 253.750207 152.694232 
L 254.305218 152.292943 
L 254.887979 151.87159 
L 255.499878 151.42917 
L 256.142371 150.964628 
L 256.81699 150.47686 
L 257.52534 149.964703 
L 258.269106 149.426938 
L 259.050062 148.862285 
L 259.870065 148.269399 
L 260.731068 147.646869 
L 261.635122 146.993212 
L 262.584378 146.306873 
L 263.581097 145.586217 
L 264.627651 144.829527 
L 265.726534 144.035004 
L 266.880361 143.200754 
L 268.091879 142.324792 
L 269.363973 141.405031 
L 270.699671 140.439283 
L 272.102155 139.425247 
L 273.574762 138.360509 
L 275.121001 137.242535 
L 276.744551 136.068662 
L 278.449278 134.836095 
L 280.239242 133.541899 
L 282.118704 132.182994 
L 284.092139 130.756144 
L 286.164246 129.257951 
L 288.339959 127.684849 
L 290.624457 126.033091 
L 293.023179 124.298746 
L 295.541838 122.477683 
L 298.18643 120.565567 
L 300.963252 118.557846 
L 303.878914 116.449738 
L 306.94036 114.236225 
L 310.154878 111.912036 
L 313.530122 109.471638 
L 317.074128 106.90922 
L 320.795335 104.218681 
L 324.702601 101.393615 
L 328.805231 98.427295 
L 333.112993 95.31266 
L 337.636143 92.042293 
L 342.38545 88.608408 
L 347.372222 85.002828 
" clip-path="url(#p12e209bf75)" style="fill: none; stroke: #000000; stroke-width: 5; stroke-linecap: square"/>
   </g>
   <g id="line2d_9">
    <path d="M 243.87918 159.831267 
L 243.940639 159.786831 
L 244.005171 159.740172 
L 244.07293 159.691181 
L 244.144076 159.63974 
L 244.21878 159.585727 
L 244.297219 159.529013 
L 244.37958 159.469464 
L 244.466059 159.406937 
L 244.556862 159.341284 
L 244.652205 159.272348 
L 244.752315 159.199966 
L 244.857431 159.123964 
L 244.967803 159.044162 
L 245.083693 158.96037 
L 245.205377 158.872389 
L 245.333146 158.780008 
L 245.467304 158.683009 
L 245.608169 158.581159 
L 245.756077 158.474217 
L 245.911381 158.361928 
L 246.07445 158.244024 
L 246.245673 158.120225 
L 246.425456 157.990237 
L 246.614229 157.853749 
L 246.812441 157.710436 
L 247.020563 157.559958 
L 247.239091 157.401956 
L 247.468545 157.236053 
L 247.709473 157.061856 
L 247.962446 156.878949 
L 248.228069 156.686896 
L 248.506972 156.485241 
L 248.799821 156.273503 
L 249.107312 156.051178 
L 249.430177 155.817737 
L 249.769186 155.572624 
L 250.125145 155.315255 
L 250.498903 155.045018 
L 250.891348 154.761269 
L 251.303415 154.463333 
L 251.736086 154.150499 
L 252.19039 153.822024 
L 252.66741 153.477125 
L 253.16828 153.114982 
L 253.694194 152.734731 
L 254.246404 152.335467 
L 254.826224 151.916241 
L 255.435035 151.476053 
L 256.074287 151.013855 
L 256.745501 150.528548 
L 257.450276 150.018975 
L 258.19029 149.483924 
L 258.967305 148.92212 
L 259.78317 148.332226 
L 260.639829 147.712838 
L 261.53932 147.06248 
L 262.483786 146.379604 
L 263.475475 145.662584 
L 264.516749 144.909713 
L 265.610087 144.119199 
L 266.758091 143.289159 
L 267.963495 142.417616 
L 269.22917 141.502497 
L 270.558129 140.541622 
L 271.953535 139.532703 
L 273.418712 138.473338 
L 274.957147 137.361005 
L 276.572505 136.193056 
L 278.26863 134.966708 
L 280.049562 133.679044 
L 281.91954 132.326996 
L 283.883017 130.907346 
L 285.944667 129.416713 
L 288.109401 127.851549 
L 290.382371 126.208126 
L 292.768989 124.482532 
L 295.274939 122.670659 
L 297.906186 120.768192 
L 300.668995 118.770602 
L 303.569945 116.673132 
L 306.615942 114.470788 
L 309.814239 112.158328 
L 313.172451 109.730244 
L 316.698574 107.180756 
L 320.401002 104.503794 
L 324.288553 101.692984 
L 328.37048 98.741633 
L 332.656504 95.642715 
L 337.156829 92.38885 
L 341.882171 88.972293 
L 346.843779 85.384908 
L 352.053468 81.618153 
L 357.523642 77.663061 
L 363.267324 73.510214 
L 369.29819 69.149724 
L 375.6306 64.571211 
L 382.27963 59.763771 
L 389.261111 54.71596 
" clip-path="url(#p12e209bf75)" style="fill: none; stroke: #000000; stroke-width: 5; stroke-linecap: square"/>
   </g>
   <g id="line2d_10">
    <path d="M 244.230375 159.577344 
L 244.309393 159.520211 
L 244.392363 159.460222 
L 244.479481 159.397233 
L 244.570955 159.331094 
L 244.667003 159.261649 
L 244.767853 159.188731 
L 244.873746 159.112168 
L 244.984933 159.031776 
L 245.10168 158.947365 
L 245.224264 158.858733 
L 245.352977 158.76567 
L 245.488126 158.667954 
L 245.630032 158.565351 
L 245.779034 158.457619 
L 245.935485 158.3445 
L 246.09976 158.225725 
L 246.272248 158.101011 
L 246.45336 157.970062 
L 246.643528 157.832565 
L 246.843204 157.688193 
L 247.052865 157.536603 
L 247.273008 157.377433 
L 247.504158 157.210304 
L 247.746866 157.03482 
L 248.001709 156.850561 
L 248.269295 156.657089 
L 248.55026 156.453943 
L 248.845273 156.24064 
L 249.155036 156.016672 
L 249.480288 155.781506 
L 249.821802 155.534581 
L 250.180393 155.27531 
L 250.556912 155.003076 
L 250.952258 154.717229 
L 251.367371 154.417091 
L 251.803239 154.101945 
L 252.260901 153.771043 
L 252.741446 153.423595 
L 253.246019 153.058775 
L 253.775819 152.675713 
L 254.33211 152.273499 
L 254.916216 151.851174 
L 255.529527 151.407733 
L 256.173503 150.942119 
L 256.849678 150.453225 
L 257.559662 149.939886 
L 258.305145 149.400881 
L 259.087903 148.834925 
L 259.909798 148.240671 
L 260.772788 147.616705 
L 261.678927 146.96154 
L 262.630373 146.273617 
L 263.629392 145.551298 
L 264.678362 144.792863 
L 265.77978 143.996506 
L 266.936269 143.160331 
L 268.150582 142.282347 
L 269.425611 141.360465 
L 270.764392 140.392488 
L 272.170111 139.376112 
L 273.646117 138.308918 
L 275.195923 137.188364 
L 276.823219 136.011782 
L 278.53188 134.776371 
L 280.325974 133.47919 
L 282.209772 132.117149 
L 284.187761 130.687007 
L 286.264649 129.185357 
L 288.445382 127.608625 
L 290.735151 125.953056 
L 293.139408 124.214709 
L 295.663879 122.389445 
L 298.314572 120.472917 
L 301.097801 118.460563 
L 304.020191 116.347591 
L 307.088701 114.12897 
L 310.310636 111.799419 
L 313.693668 109.35339 
L 317.245851 106.785059 
L 320.975643 104.088312 
L 324.891926 101.256728 
L 329.004022 98.283564 
L 333.321723 95.161742 
L 337.855309 91.88383 
L 342.615575 88.442021 
L 347.613853 84.828122 
L 352.862046 81.033528 
L 358.372648 77.049205 
L 364.158781 72.865665 
L 370.23422 68.472948 
L 376.613431 63.860595 
L 383.311602 59.017625 
L 390.344682 53.932506 
L 397.729416 48.593132 
L 405.483387 42.986788 
L 413.625057 37.100128 
L 422.17381 30.919134 
L 431.15 24.429091 
" clip-path="url(#p12e209bf75)" style="fill: none; stroke: #000000; stroke-width: 5; stroke-linecap: square"/>
   </g>
   <g id="line2d_11">
    <path d="M 242.65 310.64 
L 242.65 10.8 
" clip-path="url(#p12e209bf75)" style="fill: none; stroke: #000000; stroke-width: 3; stroke-linecap: square"/>
   </g>
   <g id="line2d_12">
    <path d="M 35.3 160.72 
L 450 160.72 
" clip-path="url(#p12e209bf75)" style="fill: none; stroke: #000000; stroke-width: 3; stroke-linecap: square"/>
   </g>
  </g>
 </g>
 <defs>
  <clipPath id="p12e209bf75">
   <rect x="35.3" y="10.8" width="414.7" height="299.84"/>
  </clipPath>
 </defs>
</svg>
