<?xml version="1.0" encoding="utf-8" standalone="no"?>
<!DOCTYPE svg PUBLIC "-//W3C//DTD SVG 1.1//EN"
  "http://www.w3.org/Graphics/SVG/1.1/DTD/svg11.dtd">
<svg height="345.6pt" version="1.1" viewBox="0 0 345.6 345.6" width="345.6pt" xmlns="http://www.w3.org/2000/svg" xmlns:xlink="http://www.w3.org/1999/xlink">
 <metadata>
  <rdf:RDF xmlns:cc="http://creativecommons.org/ns#" xmlns:dc="http://purl.org/dc/elements/1.1/" xmlns:rdf="http://www.w3.org/1999/02/22-rdf-syntax-ns#">
   <cc:Work>
    <dc:type rdf:resource="http://purl.org/dc/dcmitype/StillImage"/>
    <dc:date>2022-08-08T16:40:16.081100</dc:date>
    <dc:format>image/svg+xml</dc:format>
    <dc:creator>
     <cc:Agent>
      <dc:title>Matplotlib v3.4.2, https://matplotlib.org/</dc:title>
     </cc:Agent>
    </dc:creator>
   </cc:Work>
  </rdf:RDF>
 </metadata>
 <defs>
  <style type="text/css">*{stroke-linecap:butt;stroke-linejoin:round;}</style>
 </defs>
 <g id="figure_1">
  <g id="patch_1">
   <path d="M 0 345.6 
L 345.6 345.6 
L 345.6 0 
L 0 0 
z
" style="fill:#ffffff;"/>
  </g>
  <g id="axes_1">
   <g id="patch_2">
    <path d="M 35.3 310.64 
L 334.8 310.64 
L 334.8 10.8 
L 35.3 10.8 
z
" style="fill:#ffffff;"/>
   </g>
   <g id="patch_3">
    <path clip-path="url(#p4975f99c4f)" d="M 65.25 160.72 
L 50.275 168.216 
L 50.275 160.727496 
L 35.3 160.727496 
L 35.3 160.712504 
L 50.275 160.712504 
L 50.275 153.224 
z
" style="stroke:#000000;stroke-linejoin:miter;"/>
   </g>
   <g id="patch_4">
    <path clip-path="url(#p4975f99c4f)" d="M 98.527778 160.72 
L 83.552778 168.216 
L 83.552778 160.727496 
L 68.577778 160.727496 
L 68.577778 160.712504 
L 83.552778 160.712504 
L 83.552778 153.224 
z
" style="stroke:#000000;stroke-linejoin:miter;"/>
   </g>
   <g id="patch_5">
    <path clip-path="url(#p4975f99c4f)" d="M 131.805556 160.72 
L 116.830556 168.216 
L 116.830556 160.727496 
L 101.855556 160.727496 
L 101.855556 160.712504 
L 116.830556 160.712504 
L 116.830556 153.224 
z
" style="stroke:#000000;stroke-linejoin:miter;"/>
   </g>
   <g id="patch_6">
    <path clip-path="url(#p4975f99c4f)" d="M 165.083333 160.72 
L 150.108333 168.216 
L 150.108333 160.727496 
L 135.133333 160.727496 
L 135.133333 160.712504 
L 150.108333 160.712504 
L 150.108333 153.224 
z
" style="stroke:#000000;stroke-linejoin:miter;"/>
   </g>
   <g id="patch_7">
    <path clip-path="url(#p4975f99c4f)" d="M 198.361111 160.72 
L 183.386111 168.216 
L 183.386111 160.727496 
L 168.411111 160.727496 
L 168.411111 160.712504 
L 183.386111 160.712504 
L 183.386111 153.224 
z
" style="stroke:#000000;stroke-linejoin:miter;"/>
   </g>
   <g id="patch_8">
    <path clip-path="url(#p4975f99c4f)" d="M 231.638889 160.72 
L 216.663889 168.216 
L 216.663889 160.727496 
L 201.688889 160.727496 
L 201.688889 160.712504 
L 216.663889 160.712504 
L 216.663889 153.224 
z
" style="stroke:#000000;stroke-linejoin:miter;"/>
   </g>
   <g id="patch_9">
    <path clip-path="url(#p4975f99c4f)" d="M 264.916667 160.72 
L 249.941667 168.216 
L 249.941667 160.727496 
L 234.966667 160.727496 
L 234.966667 160.712504 
L 249.941667 160.712504 
L 249.941667 153.224 
z
" style="stroke:#000000;stroke-linejoin:miter;"/>
   </g>
   <g id="patch_10">
    <path clip-path="url(#p4975f99c4f)" d="M 238.294444 160.72 
L 253.269444 153.224 
L 253.269444 160.712504 
L 268.244444 160.712504 
L 268.244444 160.727496 
L 253.269444 160.727496 
L 253.269444 168.216 
z
" style="stroke:#000000;stroke-linejoin:miter;"/>
   </g>
   <g id="patch_11">
    <path clip-path="url(#p4975f99c4f)" d="M 271.572222 160.72 
L 286.547222 153.224 
L 286.547222 160.712504 
L 301.522222 160.712504 
L 301.522222 160.727496 
L 286.547222 160.727496 
L 286.547222 168.216 
z
" style="stroke:#000000;stroke-linejoin:miter;"/>
   </g>
   <g id="patch_12">
    <path clip-path="url(#p4975f99c4f)" d="M 304.85 160.72 
L 319.825 153.224 
L 319.825 160.712504 
L 334.8 160.712504 
L 334.8 160.727496 
L 319.825 160.727496 
L 319.825 168.216 
z
" style="stroke:#000000;stroke-linejoin:miter;"/>
   </g>
   <g id="matplotlib.axis_1">
    <g id="text_1">
     <!-- $x$ -->
     <g transform="translate(179.05 329.836875)scale(0.2 -0.2)">
      <defs>
       <path d="M 3841 3500 
L 2234 1784 
L 3219 0 
L 2559 0 
L 1819 1388 
L 531 0 
L -166 0 
L 1556 1844 
L 641 3500 
L 1300 3500 
L 1972 2234 
L 3144 3500 
L 3841 3500 
z
" id="DejaVuSans-Oblique-78" transform="scale(0.015625)"/>
      </defs>
      <use transform="translate(0 0.3125)" xlink:href="#DejaVuSans-Oblique-78"/>
     </g>
    </g>
   </g>
   <g id="matplotlib.axis_2">
    <g id="text_2">
     <!-- $\dot{x}$ -->
     <g transform="translate(27.140625 166.72)rotate(-90)scale(0.2 -0.2)">
      <defs>
       <path d="M -1894 4863 
L -1319 4863 
L -1319 4134 
L -1894 4134 
L -1894 4863 
z
M -1600 3584 
L -1600 3584 
z
" id="DejaVuSans-307" transform="scale(0.015625)"/>
      </defs>
      <use transform="translate(62.388672 12.015625)" xlink:href="#DejaVuSans-307"/>
      <use transform="translate(0 0.828125)" xlink:href="#DejaVuSans-Oblique-78"/>
     </g>
    </g>
   </g>
   <g id="line2d_1">
    <path clip-path="url(#p4975f99c4f)" d="M 185.05 310.64 
L 185.05 10.8 
" style="fill:none;stroke:#000000;stroke-linecap:square;stroke-width:3;"/>
   </g>
   <g id="line2d_2">
    <path clip-path="url(#p4975f99c4f)" d="M 35.3 160.72 
L 334.8 160.72 
" style="fill:none;stroke:#000000;stroke-linecap:square;stroke-width:3;"/>
   </g>
   <g id="line2d_3">
    <path clip-path="url(#p4975f99c4f)" d="M 200.369251 -1 
L 201.688889 14.70738 
L 204.714141 43.78197 
L 207.739394 66.663837 
L 210.764646 84.094624 
L 213.789899 96.815974 
L 216.815152 105.569531 
L 219.840404 111.096939 
L 222.865657 114.13984 
L 225.890909 115.43988 
L 228.916162 115.7387 
L 231.941414 115.777946 
L 234.966667 116.299259 
L 237.991919 118.044285 
L 241.017172 121.754666 
L 244.042424 128.172046 
L 247.067677 138.038068 
L 250.092929 152.094376 
L 253.118182 171.082615 
L 256.143434 195.744426 
L 259.168687 226.821454 
L 262.193939 265.055342 
L 265.219192 311.187735 
L 267.175118 346.6 
" style="fill:none;stroke:#000000;stroke-linecap:square;stroke-width:5;"/>
   </g>
  </g>
 </g>
 <defs>
  <clipPath id="p4975f99c4f">
   <rect height="299.84" width="299.5" x="35.3" y="10.8"/>
  </clipPath>
 </defs>
</svg>
