<?xml version="1.0" encoding="utf-8" standalone="no"?>
<!DOCTYPE svg PUBLIC "-//W3C//DTD SVG 1.1//EN"
  "http://www.w3.org/Graphics/SVG/1.1/DTD/svg11.dtd">
<svg xmlns:xlink="http://www.w3.org/1999/xlink" width="460.8pt" height="345.6pt" viewBox="0 0 460.8 345.6" xmlns="http://www.w3.org/2000/svg" version="1.1">
 <metadata>
  <rdf:RDF xmlns:dc="http://purl.org/dc/elements/1.1/" xmlns:cc="http://creativecommons.org/ns#" xmlns:rdf="http://www.w3.org/1999/02/22-rdf-syntax-ns#">
   <cc:Work>
    <dc:type rdf:resource="http://purl.org/dc/dcmitype/StillImage"/>
    <dc:date>2022-06-29T11:28:10.725628</dc:date>
    <dc:format>image/svg+xml</dc:format>
    <dc:creator>
     <cc:Agent>
      <dc:title>Matplotlib v3.5.1, https://matplotlib.org/</dc:title>
     </cc:Agent>
    </dc:creator>
   </cc:Work>
  </rdf:RDF>
 </metadata>
 <defs>
  <style type="text/css">*{stroke-linejoin: round; stroke-linecap: butt}</style>
 </defs>
 <g id="figure_1">
  <g id="patch_1">
   <path d="M 0 345.6 
L 460.8 345.6 
L 460.8 0 
L 0 0 
z
" style="fill: #ffffff"/>
  </g>
  <g id="axes_1">
   <g id="patch_2">
    <path d="M 35.3 310.64 
L 450 310.64 
L 450 10.8 
L 35.3 10.8 
z
" style="fill: #ffffff"/>
   </g>
   <g id="matplotlib.axis_1">
    <g id="text_1">
     <!-- $x$ -->
     <g transform="translate(236.65 329.836875)scale(0.2 -0.2)">
      <defs>
       <path id="DejaVuSans-Oblique-78" d="M 3841 3500 
L 2234 1784 
L 3219 0 
L 2559 0 
L 1819 1388 
L 531 0 
L -166 0 
L 1556 1844 
L 641 3500 
L 1300 3500 
L 1972 2234 
L 3144 3500 
L 3841 3500 
z
" transform="scale(0.015625)"/>
      </defs>
      <use xlink:href="#DejaVuSans-Oblique-78" transform="translate(0 0.3125)"/>
     </g>
    </g>
   </g>
   <g id="matplotlib.axis_2">
    <g id="text_2">
     <!-- $\dot{x}$ -->
     <g transform="translate(27.140625 166.72)rotate(-90)scale(0.2 -0.2)">
      <defs>
       <path id="DejaVuSans-307" d="M -1894 4863 
L -1319 4863 
L -1319 4134 
L -1894 4134 
L -1894 4863 
z
M -1600 3584 
L -1600 3584 
z
" transform="scale(0.015625)"/>
      </defs>
      <use xlink:href="#DejaVuSans-307" transform="translate(62.388672 12.015625)"/>
      <use xlink:href="#DejaVuSans-Oblique-78" transform="translate(0 0.828125)"/>
     </g>
    </g>
   </g>
   <g id="line2d_1">
    <path d="M 54.15 160.72 
L 63.343253 160.72 
L 72.088147 160.72 
L 80.406546 160.72 
L 88.319253 160.72 
L 95.846052 160.72 
L 103.005765 160.72 
L 109.816295 160.72 
L 116.294671 160.72 
L 122.457093 160.72 
L 128.318971 160.72 
L 133.894961 160.72 
L 139.199007 160.72 
L 144.244371 160.72 
L 149.04367 160.72 
L 153.608905 160.72 
L 157.95149 160.72 
L 162.082285 160.72 
L 166.011619 160.72 
L 169.749317 160.72 
L 173.304725 160.72 
L 176.686734 160.72 
L 179.903801 160.72 
L 182.963969 160.72 
L 185.874891 160.72 
L 188.643846 160.72 
L 191.277757 160.72 
L 193.783211 160.72 
L 196.166472 160.72 
L 198.433501 160.72 
L 200.589965 160.72 
L 202.641257 160.72 
L 204.592506 160.72 
L 206.448592 160.72 
L 208.214156 160.72 
L 209.893612 160.72 
L 211.49116 160.72 
L 213.010794 160.72 
L 214.456315 160.72 
L 215.831338 160.72 
L 217.139299 160.72 
L 218.383471 160.72 
L 219.566963 160.72 
L 220.692736 160.72 
L 221.763605 160.72 
L 222.782246 160.72 
L 223.751208 160.72 
L 224.672913 160.72 
L 225.549666 160.72 
L 226.383659 160.72 
L 227.176978 160.72 
L 227.931606 160.72 
L 228.649431 160.72 
L 229.332246 160.72 
L 229.981761 160.72 
L 230.599598 160.72 
L 231.187303 160.72 
L 231.746346 160.72 
L 232.278123 160.72 
L 232.783965 160.72 
L 233.265138 160.72 
L 233.722843 160.72 
L 234.158225 160.72 
L 234.572374 160.72 
L 234.966325 160.72 
L 235.341062 160.72 
L 235.697523 160.72 
L 236.036599 160.72 
L 236.359139 160.72 
L 236.665948 160.72 
L 236.957793 160.72 
L 237.235405 160.72 
L 237.499478 160.72 
L 237.750672 160.72 
L 237.989615 160.72 
L 238.216905 160.72 
L 238.43311 160.72 
L 238.63877 160.72 
L 238.8344 160.72 
L 239.020489 160.72 
L 239.197502 160.72 
L 239.365882 160.72 
L 239.526051 160.72 
L 239.678407 160.72 
L 239.823334 160.72 
L 239.961192 160.72 
L 240.092327 160.72 
L 240.217066 160.72 
L 240.335721 160.72 
L 240.44859 160.72 
L 240.555954 160.72 
L 240.658082 160.72 
L 240.755229 160.72 
L 240.847638 160.72 
L 240.93554 160.72 
L 241.019155 160.72 
L 241.098693 160.72 
L 241.174351 160.72 
L 241.246319 160.72 
" clip-path="url(#p9b9ce596c4)" style="fill: none; stroke: #000000; stroke-width: 5; stroke-linecap: square"/>
   </g>
   <g id="line2d_2">
    <path d="M 96.038889 160.72 
L 103.189197 160.72 
L 109.990781 160.72 
L 116.460647 160.72 
L 122.614975 160.72 
L 128.469152 160.72 
L 134.037818 160.72 
L 139.334896 160.72 
L 144.373633 160.72 
L 149.166628 160.72 
L 153.725866 160.72 
L 158.062747 160.72 
L 162.188116 160.72 
L 166.112289 160.72 
L 169.845077 160.72 
L 173.395815 160.72 
L 176.773381 160.72 
L 179.986222 160.72 
L 183.04237 160.72 
L 185.949469 160.72 
L 188.714786 160.72 
L 191.345238 160.72 
L 193.847401 160.72 
L 196.227531 160.72 
L 198.491582 160.72 
L 200.645213 160.72 
L 202.693811 160.72 
L 204.642497 160.72 
L 206.496145 160.72 
L 208.259389 160.72 
L 209.936639 160.72 
L 211.532089 160.72 
L 213.049727 160.72 
L 214.49335 160.72 
L 215.866566 160.72 
L 217.172809 160.72 
L 218.415346 160.72 
L 219.597284 160.72 
L 220.721579 160.72 
L 221.79104 160.72 
L 222.808344 160.72 
L 223.776033 160.72 
L 224.696527 160.72 
L 225.572128 160.72 
L 226.405026 160.72 
L 227.197303 160.72 
L 227.95094 160.72 
L 228.667821 160.72 
L 229.34974 160.72 
L 229.998401 160.72 
L 230.615427 160.72 
L 231.20236 160.72 
L 231.760668 160.72 
L 232.291747 160.72 
L 232.796925 160.72 
L 233.277465 160.72 
L 233.734569 160.72 
L 234.16938 160.72 
L 234.582985 160.72 
L 234.976418 160.72 
L 235.350663 160.72 
L 235.706655 160.72 
L 236.045286 160.72 
L 236.367402 160.72 
L 236.673808 160.72 
L 236.96527 160.72 
L 237.242518 160.72 
L 237.506244 160.72 
L 237.757108 160.72 
L 237.995737 160.72 
L 238.222728 160.72 
L 238.438649 160.72 
L 238.644039 160.72 
L 238.839412 160.72 
L 239.025256 160.72 
L 239.202037 160.72 
L 239.370196 160.72 
L 239.530154 160.72 
L 239.682311 160.72 
L 239.827047 160.72 
L 239.964724 160.72 
L 240.095686 160.72 
L 240.220262 160.72 
L 240.338761 160.72 
L 240.451482 160.72 
L 240.558705 160.72 
L 240.660698 160.72 
L 240.757718 160.72 
L 240.850006 160.72 
L 240.937792 160.72 
L 241.021298 160.72 
L 241.10073 160.72 
L 241.176289 160.72 
L 241.248163 160.72 
L 241.316531 160.72 
L 241.381565 160.72 
L 241.443428 160.72 
L 241.502273 160.72 
L 241.558248 160.72 
" clip-path="url(#p9b9ce596c4)" style="fill: none; stroke: #000000; stroke-width: 5; stroke-linecap: square"/>
   </g>
   <g id="line2d_3">
    <path d="M 137.927778 160.72 
L 143.035141 160.72 
L 147.893415 160.72 
L 152.514748 160.72 
L 156.910696 160.72 
L 161.092251 160.72 
L 165.06987 160.72 
L 168.853497 160.72 
L 172.452595 160.72 
L 175.876163 160.72 
L 179.132761 160.72 
L 182.230534 160.72 
L 185.177226 160.72 
L 187.980206 160.72 
L 190.646483 160.72 
L 193.182725 160.72 
L 195.595272 160.72 
L 197.890159 160.72 
L 200.073122 160.72 
L 202.149621 160.72 
L 204.124847 160.72 
L 206.003741 160.72 
L 207.791 160.72 
L 209.491094 160.72 
L 211.108273 160.72 
L 212.646581 160.72 
L 214.109865 160.72 
L 215.501784 160.72 
L 216.825818 160.72 
L 218.085278 160.72 
L 219.283314 160.72 
L 220.422921 160.72 
L 221.506948 160.72 
L 222.538107 160.72 
L 223.518975 160.72 
L 224.452006 160.72 
L 225.339533 160.72 
L 226.183775 160.72 
L 226.986842 160.72 
L 227.750743 160.72 
L 228.477388 160.72 
L 229.168595 160.72 
L 229.826091 160.72 
L 230.45152 160.72 
L 231.046447 160.72 
L 231.612359 160.72 
L 232.150671 160.72 
L 232.662729 160.72 
L 233.149814 160.72 
L 233.613144 160.72 
L 234.053877 160.72 
L 234.473114 160.72 
L 234.871906 160.72 
L 235.251248 160.72 
L 235.612089 160.72 
L 235.955332 160.72 
L 236.281835 160.72 
L 236.592414 160.72 
L 236.887846 160.72 
L 237.16887 160.72 
L 237.436188 160.72 
L 237.690468 160.72 
L 237.932347 160.72 
L 238.16243 160.72 
L 238.381291 160.72 
L 238.589479 160.72 
L 238.787513 160.72 
L 238.975888 160.72 
L 239.155077 160.72 
L 239.325526 160.72 
L 239.487663 160.72 
L 239.641892 160.72 
L 239.788599 160.72 
L 239.928151 160.72 
L 240.060897 160.72 
L 240.187169 160.72 
L 240.307283 160.72 
L 240.421539 160.72 
L 240.530222 160.72 
L 240.633605 160.72 
L 240.731946 160.72 
L 240.82549 160.72 
L 240.914473 160.72 
L 240.999115 160.72 
L 241.07963 160.72 
L 241.156218 160.72 
L 241.22907 160.72 
L 241.29837 160.72 
L 241.36429 160.72 
L 241.426995 160.72 
L 241.486641 160.72 
L 241.543379 160.72 
L 241.597349 160.72 
L 241.648688 160.72 
L 241.697522 160.72 
L 241.743975 160.72 
L 241.788163 160.72 
L 241.830195 160.72 
L 241.870177 160.72 
" clip-path="url(#p9b9ce596c4)" style="fill: none; stroke: #000000; stroke-width: 5; stroke-linecap: square"/>
   </g>
   <g id="line2d_4">
    <path d="M 179.816667 160.72 
L 182.881084 160.72 
L 185.796049 160.72 
L 188.568849 160.72 
L 191.206418 160.72 
L 193.715351 160.72 
L 196.101922 160.72 
L 198.372098 160.72 
L 200.531557 160.72 
L 202.585698 160.72 
L 204.539657 160.72 
L 206.39832 160.72 
L 208.166336 160.72 
L 209.848124 160.72 
L 211.44789 160.72 
L 212.969635 160.72 
L 214.417163 160.72 
L 215.794095 160.72 
L 217.103873 160.72 
L 218.349772 160.72 
L 219.534908 160.72 
L 220.662245 160.72 
L 221.7346 160.72 
L 222.754656 160.72 
L 223.724964 160.72 
L 224.647949 160.72 
L 225.525919 160.72 
L 226.36107 160.72 
L 227.155491 160.72 
L 227.911167 160.72 
L 228.629988 160.72 
L 229.313752 160.72 
L 229.964169 160.72 
L 230.582864 160.72 
L 231.171385 160.72 
L 231.731204 160.72 
L 232.26372 160.72 
L 232.770265 160.72 
L 233.252105 160.72 
L 233.710446 160.72 
L 234.146433 160.72 
L 234.561157 160.72 
L 234.955654 160.72 
L 235.330912 160.72 
L 235.687868 160.72 
L 236.027415 160.72 
L 236.350403 160.72 
L 236.657638 160.72 
L 236.949889 160.72 
L 237.227886 160.72 
L 237.492326 160.72 
L 237.743869 160.72 
L 237.983144 160.72 
L 238.210749 160.72 
L 238.427254 160.72 
L 238.633199 160.72 
L 238.829101 160.72 
L 239.015449 160.72 
L 239.192708 160.72 
L 239.361322 160.72 
L 239.521713 160.72 
L 239.674281 160.72 
L 239.819408 160.72 
L 239.957458 160.72 
L 240.088775 160.72 
L 240.213687 160.72 
L 240.332508 160.72 
L 240.445533 160.72 
L 240.553046 160.72 
L 240.655316 160.72 
L 240.752598 160.72 
L 240.845135 160.72 
L 240.933159 160.72 
L 241.016891 160.72 
L 241.096538 160.72 
L 241.172302 160.72 
L 241.24437 160.72 
L 241.312923 160.72 
L 241.378133 160.72 
L 241.440163 160.72 
L 241.499167 160.72 
L 241.555294 160.72 
L 241.608684 160.72 
L 241.659469 160.72 
L 241.707778 160.72 
L 241.753731 160.72 
L 241.797442 160.72 
L 241.839022 160.72 
L 241.878574 160.72 
L 241.916197 160.72 
L 241.951985 160.72 
L 241.986027 160.72 
L 242.01841 160.72 
L 242.049213 160.72 
L 242.078513 160.72 
L 242.106385 160.72 
L 242.132898 160.72 
L 242.158117 160.72 
L 242.182106 160.72 
" clip-path="url(#p9b9ce596c4)" style="fill: none; stroke: #000000; stroke-width: 5; stroke-linecap: square"/>
   </g>
   <g id="line2d_5">
    <path d="M 221.705556 160.72 
L 222.727028 160.72 
L 223.698683 160.72 
L 224.62295 160.72 
L 225.502139 160.72 
L 226.33845 160.72 
L 227.133974 160.72 
L 227.890699 160.72 
L 228.610519 160.72 
L 229.295233 160.72 
L 229.946552 160.72 
L 230.566107 160.72 
L 231.155445 160.72 
L 231.716041 160.72 
L 232.249297 160.72 
L 232.756545 160.72 
L 233.239054 160.72 
L 233.698032 160.72 
L 234.134624 160.72 
L 234.549924 160.72 
L 234.944969 160.72 
L 235.320748 160.72 
L 235.6782 160.72 
L 236.018219 160.72 
L 236.341655 160.72 
L 236.649316 160.72 
L 236.941973 160.72 
L 237.220357 160.72 
L 237.485164 160.72 
L 237.737056 160.72 
L 237.976663 160.72 
L 238.204584 160.72 
L 238.42139 160.72 
L 238.627621 160.72 
L 238.823795 160.72 
L 239.010401 160.72 
L 239.187907 160.72 
L 239.356755 160.72 
L 239.517368 160.72 
L 239.670149 160.72 
L 239.815478 160.72 
L 239.953719 160.72 
L 240.085218 160.72 
L 240.210304 160.72 
L 240.329289 160.72 
L 240.442472 160.72 
L 240.550134 160.72 
L 240.652546 160.72 
L 240.749963 160.72 
L 240.842629 160.72 
L 240.930775 160.72 
L 241.014623 160.72 
L 241.094381 160.72 
L 241.17025 160.72 
L 241.242418 160.72 
L 241.311066 160.72 
L 241.376367 160.72 
L 241.438483 160.72 
L 241.497569 160.72 
L 241.553774 160.72 
L 241.607238 160.72 
L 241.658094 160.72 
L 241.706469 160.72 
L 241.752486 160.72 
L 241.796258 160.72 
L 241.837896 160.72 
L 241.877503 160.72 
L 241.915178 160.72 
L 241.951015 160.72 
L 241.985105 160.72 
L 242.017533 160.72 
L 242.048378 160.72 
L 242.07772 160.72 
L 242.10563 160.72 
L 242.132179 160.72 
L 242.157434 160.72 
L 242.181457 160.72 
L 242.204308 160.72 
L 242.226044 160.72 
L 242.246721 160.72 
L 242.266389 160.72 
L 242.285098 160.72 
L 242.302895 160.72 
L 242.319823 160.72 
L 242.335926 160.72 
L 242.351244 160.72 
L 242.365814 160.72 
L 242.379674 160.72 
L 242.392858 160.72 
L 242.405399 160.72 
L 242.417328 160.72 
L 242.428676 160.72 
L 242.43947 160.72 
L 242.449738 160.72 
L 242.459504 160.72 
L 242.468795 160.72 
L 242.477633 160.72 
L 242.486039 160.72 
L 242.494035 160.72 
" clip-path="url(#p9b9ce596c4)" style="fill: none; stroke: #000000; stroke-width: 5; stroke-linecap: square"/>
   </g>
   <g id="line2d_6">
    <path d="M 263.594444 160.72 
L 262.572972 160.72 
L 261.601317 160.72 
L 260.67705 160.72 
L 259.797861 160.72 
L 258.96155 160.72 
L 258.166026 160.72 
L 257.409301 160.72 
L 256.689481 160.72 
L 256.004767 160.72 
L 255.353448 160.72 
L 254.733893 160.72 
L 254.144555 160.72 
L 253.583959 160.72 
L 253.050703 160.72 
L 252.543455 160.72 
L 252.060946 160.72 
L 251.601968 160.72 
L 251.165376 160.72 
L 250.750076 160.72 
L 250.355031 160.72 
L 249.979252 160.72 
L 249.6218 160.72 
L 249.281781 160.72 
L 248.958345 160.72 
L 248.650684 160.72 
L 248.358027 160.72 
L 248.079643 160.72 
L 247.814836 160.72 
L 247.562944 160.72 
L 247.323337 160.72 
L 247.095416 160.72 
L 246.87861 160.72 
L 246.672379 160.72 
L 246.476205 160.72 
L 246.289599 160.72 
L 246.112093 160.72 
L 245.943245 160.72 
L 245.782632 160.72 
L 245.629851 160.72 
L 245.484522 160.72 
L 245.346281 160.72 
L 245.214782 160.72 
L 245.089696 160.72 
L 244.970711 160.72 
L 244.857528 160.72 
L 244.749866 160.72 
L 244.647454 160.72 
L 244.550037 160.72 
L 244.457371 160.72 
L 244.369225 160.72 
L 244.285377 160.72 
L 244.205619 160.72 
L 244.12975 160.72 
L 244.057582 160.72 
L 243.988934 160.72 
L 243.923633 160.72 
L 243.861517 160.72 
L 243.802431 160.72 
L 243.746226 160.72 
L 243.692762 160.72 
L 243.641906 160.72 
L 243.593531 160.72 
L 243.547514 160.72 
L 243.503742 160.72 
L 243.462104 160.72 
L 243.422497 160.72 
L 243.384822 160.72 
L 243.348985 160.72 
L 243.314895 160.72 
L 243.282467 160.72 
L 243.251622 160.72 
L 243.22228 160.72 
L 243.19437 160.72 
L 243.167821 160.72 
L 243.142566 160.72 
L 243.118543 160.72 
L 243.095692 160.72 
L 243.073956 160.72 
L 243.053279 160.72 
L 243.033611 160.72 
L 243.014902 160.72 
L 242.997105 160.72 
L 242.980177 160.72 
L 242.964074 160.72 
L 242.948756 160.72 
L 242.934186 160.72 
L 242.920326 160.72 
L 242.907142 160.72 
L 242.894601 160.72 
L 242.882672 160.72 
L 242.871324 160.72 
L 242.86053 160.72 
L 242.850262 160.72 
L 242.840496 160.72 
L 242.831205 160.72 
L 242.822367 160.72 
L 242.813961 160.72 
L 242.805965 160.72 
" clip-path="url(#p9b9ce596c4)" style="fill: none; stroke: #000000; stroke-width: 5; stroke-linecap: square"/>
   </g>
   <g id="line2d_7">
    <path d="M 305.483333 160.72 
L 302.418916 160.72 
L 299.503951 160.72 
L 296.731151 160.72 
L 294.093582 160.72 
L 291.584649 160.72 
L 289.198078 160.72 
L 286.927902 160.72 
L 284.768443 160.72 
L 282.714302 160.72 
L 280.760343 160.72 
L 278.90168 160.72 
L 277.133664 160.72 
L 275.451876 160.72 
L 273.85211 160.72 
L 272.330365 160.72 
L 270.882837 160.72 
L 269.505905 160.72 
L 268.196127 160.72 
L 266.950228 160.72 
L 265.765092 160.72 
L 264.637755 160.72 
L 263.5654 160.72 
L 262.545344 160.72 
L 261.575036 160.72 
L 260.652051 160.72 
L 259.774081 160.72 
L 258.93893 160.72 
L 258.144509 160.72 
L 257.388833 160.72 
L 256.670012 160.72 
L 255.986248 160.72 
L 255.335831 160.72 
L 254.717136 160.72 
L 254.128615 160.72 
L 253.568796 160.72 
L 253.03628 160.72 
L 252.529735 160.72 
L 252.047895 160.72 
L 251.589554 160.72 
L 251.153567 160.72 
L 250.738843 160.72 
L 250.344346 160.72 
L 249.969088 160.72 
L 249.612132 160.72 
L 249.272585 160.72 
L 248.949597 160.72 
L 248.642362 160.72 
L 248.350111 160.72 
L 248.072114 160.72 
L 247.807674 160.72 
L 247.556131 160.72 
L 247.316856 160.72 
L 247.089251 160.72 
L 246.872746 160.72 
L 246.666801 160.72 
L 246.470899 160.72 
L 246.284551 160.72 
L 246.107292 160.72 
L 245.938678 160.72 
L 245.778287 160.72 
L 245.625719 160.72 
L 245.480592 160.72 
L 245.342542 160.72 
L 245.211225 160.72 
L 245.086313 160.72 
L 244.967492 160.72 
L 244.854467 160.72 
L 244.746954 160.72 
L 244.644684 160.72 
L 244.547402 160.72 
L 244.454865 160.72 
L 244.366841 160.72 
L 244.283109 160.72 
L 244.203462 160.72 
L 244.127698 160.72 
L 244.05563 160.72 
L 243.987077 160.72 
L 243.921867 160.72 
L 243.859837 160.72 
L 243.800833 160.72 
L 243.744706 160.72 
L 243.691316 160.72 
L 243.640531 160.72 
L 243.592222 160.72 
L 243.546269 160.72 
L 243.502558 160.72 
L 243.460978 160.72 
L 243.421426 160.72 
L 243.383803 160.72 
L 243.348015 160.72 
L 243.313973 160.72 
L 243.28159 160.72 
L 243.250787 160.72 
L 243.221487 160.72 
L 243.193615 160.72 
L 243.167102 160.72 
L 243.141883 160.72 
L 243.117894 160.72 
" clip-path="url(#p9b9ce596c4)" style="fill: none; stroke: #000000; stroke-width: 5; stroke-linecap: square"/>
   </g>
   <g id="line2d_8">
    <path d="M 347.372222 160.72 
L 342.264859 160.72 
L 337.406585 160.72 
L 332.785252 160.72 
L 328.389304 160.72 
L 324.207749 160.72 
L 320.23013 160.72 
L 316.446503 160.72 
L 312.847405 160.72 
L 309.423837 160.72 
L 306.167239 160.72 
L 303.069466 160.72 
L 300.122774 160.72 
L 297.319794 160.72 
L 294.653517 160.72 
L 292.117275 160.72 
L 289.704728 160.72 
L 287.409841 160.72 
L 285.226878 160.72 
L 283.150379 160.72 
L 281.175153 160.72 
L 279.296259 160.72 
L 277.509 160.72 
L 275.808906 160.72 
L 274.191727 160.72 
L 272.653419 160.72 
L 271.190135 160.72 
L 269.798216 160.72 
L 268.474182 160.72 
L 267.214722 160.72 
L 266.016686 160.72 
L 264.877079 160.72 
L 263.793052 160.72 
L 262.761893 160.72 
L 261.781025 160.72 
L 260.847994 160.72 
L 259.960467 160.72 
L 259.116225 160.72 
L 258.313158 160.72 
L 257.549257 160.72 
L 256.822612 160.72 
L 256.131405 160.72 
L 255.473909 160.72 
L 254.84848 160.72 
L 254.253553 160.72 
L 253.687641 160.72 
L 253.149329 160.72 
L 252.637271 160.72 
L 252.150186 160.72 
L 251.686856 160.72 
L 251.246123 160.72 
L 250.826886 160.72 
L 250.428094 160.72 
L 250.048752 160.72 
L 249.687911 160.72 
L 249.344668 160.72 
L 249.018165 160.72 
L 248.707586 160.72 
L 248.412154 160.72 
L 248.13113 160.72 
L 247.863812 160.72 
L 247.609532 160.72 
L 247.367653 160.72 
L 247.13757 160.72 
L 246.918709 160.72 
L 246.710521 160.72 
L 246.512487 160.72 
L 246.324112 160.72 
L 246.144923 160.72 
L 245.974474 160.72 
L 245.812337 160.72 
L 245.658108 160.72 
L 245.511401 160.72 
L 245.371849 160.72 
L 245.239103 160.72 
L 245.112831 160.72 
L 244.992717 160.72 
L 244.878461 160.72 
L 244.769778 160.72 
L 244.666395 160.72 
L 244.568054 160.72 
L 244.47451 160.72 
L 244.385527 160.72 
L 244.300885 160.72 
L 244.22037 160.72 
L 244.143782 160.72 
L 244.07093 160.72 
L 244.00163 160.72 
L 243.93571 160.72 
L 243.873005 160.72 
L 243.813359 160.72 
L 243.756621 160.72 
L 243.702651 160.72 
L 243.651312 160.72 
L 243.602478 160.72 
L 243.556025 160.72 
L 243.511837 160.72 
L 243.469805 160.72 
L 243.429823 160.72 
" clip-path="url(#p9b9ce596c4)" style="fill: none; stroke: #000000; stroke-width: 5; stroke-linecap: square"/>
   </g>
   <g id="line2d_9">
    <path d="M 389.261111 160.72 
L 382.110803 160.72 
L 375.309219 160.72 
L 368.839353 160.72 
L 362.685025 160.72 
L 356.830848 160.72 
L 351.262182 160.72 
L 345.965104 160.72 
L 340.926367 160.72 
L 336.133372 160.72 
L 331.574134 160.72 
L 327.237253 160.72 
L 323.111884 160.72 
L 319.187711 160.72 
L 315.454923 160.72 
L 311.904185 160.72 
L 308.526619 160.72 
L 305.313778 160.72 
L 302.25763 160.72 
L 299.350531 160.72 
L 296.585214 160.72 
L 293.954762 160.72 
L 291.452599 160.72 
L 289.072469 160.72 
L 286.808418 160.72 
L 284.654787 160.72 
L 282.606189 160.72 
L 280.657503 160.72 
L 278.803855 160.72 
L 277.040611 160.72 
L 275.363361 160.72 
L 273.767911 160.72 
L 272.250273 160.72 
L 270.80665 160.72 
L 269.433434 160.72 
L 268.127191 160.72 
L 266.884654 160.72 
L 265.702716 160.72 
L 264.578421 160.72 
L 263.50896 160.72 
L 262.491656 160.72 
L 261.523967 160.72 
L 260.603473 160.72 
L 259.727872 160.72 
L 258.894974 160.72 
L 258.102697 160.72 
L 257.34906 160.72 
L 256.632179 160.72 
L 255.95026 160.72 
L 255.301599 160.72 
L 254.684573 160.72 
L 254.09764 160.72 
L 253.539332 160.72 
L 253.008253 160.72 
L 252.503075 160.72 
L 252.022535 160.72 
L 251.565431 160.72 
L 251.13062 160.72 
L 250.717015 160.72 
L 250.323582 160.72 
L 249.949337 160.72 
L 249.593345 160.72 
L 249.254714 160.72 
L 248.932598 160.72 
L 248.626192 160.72 
L 248.33473 160.72 
L 248.057482 160.72 
L 247.793756 160.72 
L 247.542892 160.72 
L 247.304263 160.72 
L 247.077272 160.72 
L 246.861351 160.72 
L 246.655961 160.72 
L 246.460588 160.72 
L 246.274744 160.72 
L 246.097963 160.72 
L 245.929804 160.72 
L 245.769846 160.72 
L 245.617689 160.72 
L 245.472953 160.72 
L 245.335276 160.72 
L 245.204314 160.72 
L 245.079738 160.72 
L 244.961239 160.72 
L 244.848518 160.72 
L 244.741295 160.72 
L 244.639302 160.72 
L 244.542282 160.72 
L 244.449994 160.72 
L 244.362208 160.72 
L 244.278702 160.72 
L 244.19927 160.72 
L 244.123711 160.72 
L 244.051837 160.72 
L 243.983469 160.72 
L 243.918435 160.72 
L 243.856572 160.72 
L 243.797727 160.72 
L 243.741752 160.72 
" clip-path="url(#p9b9ce596c4)" style="fill: none; stroke: #000000; stroke-width: 5; stroke-linecap: square"/>
   </g>
   <g id="line2d_10">
    <path d="M 431.15 160.72 
L 421.956747 160.72 
L 413.211853 160.72 
L 404.893454 160.72 
L 396.980747 160.72 
L 389.453948 160.72 
L 382.294235 160.72 
L 375.483705 160.72 
L 369.005329 160.72 
L 362.842907 160.72 
L 356.981029 160.72 
L 351.405039 160.72 
L 346.100993 160.72 
L 341.055629 160.72 
L 336.25633 160.72 
L 331.691095 160.72 
L 327.34851 160.72 
L 323.217715 160.72 
L 319.288381 160.72 
L 315.550683 160.72 
L 311.995275 160.72 
L 308.613266 160.72 
L 305.396199 160.72 
L 302.336031 160.72 
L 299.425109 160.72 
L 296.656154 160.72 
L 294.022243 160.72 
L 291.516789 160.72 
L 289.133528 160.72 
L 286.866499 160.72 
L 284.710035 160.72 
L 282.658743 160.72 
L 280.707494 160.72 
L 278.851408 160.72 
L 277.085844 160.72 
L 275.406388 160.72 
L 273.80884 160.72 
L 272.289206 160.72 
L 270.843685 160.72 
L 269.468662 160.72 
L 268.160701 160.72 
L 266.916529 160.72 
L 265.733037 160.72 
L 264.607264 160.72 
L 263.536395 160.72 
L 262.517754 160.72 
L 261.548792 160.72 
L 260.627087 160.72 
L 259.750334 160.72 
L 258.916341 160.72 
L 258.123022 160.72 
L 257.368394 160.72 
L 256.650569 160.72 
L 255.967754 160.72 
L 255.318239 160.72 
L 254.700402 160.72 
L 254.112697 160.72 
L 253.553654 160.72 
L 253.021877 160.72 
L 252.516035 160.72 
L 252.034862 160.72 
L 251.577157 160.72 
L 251.141775 160.72 
L 250.727626 160.72 
L 250.333675 160.72 
L 249.958938 160.72 
L 249.602477 160.72 
L 249.263401 160.72 
L 248.940861 160.72 
L 248.634052 160.72 
L 248.342207 160.72 
L 248.064595 160.72 
L 247.800522 160.72 
L 247.549328 160.72 
L 247.310385 160.72 
L 247.083095 160.72 
L 246.86689 160.72 
L 246.66123 160.72 
L 246.4656 160.72 
L 246.279511 160.72 
L 246.102498 160.72 
L 245.934118 160.72 
L 245.773949 160.72 
L 245.621593 160.72 
L 245.476666 160.72 
L 245.338808 160.72 
L 245.207673 160.72 
L 245.082934 160.72 
L 244.964279 160.72 
L 244.85141 160.72 
L 244.744046 160.72 
L 244.641918 160.72 
L 244.544771 160.72 
L 244.452362 160.72 
L 244.36446 160.72 
L 244.280845 160.72 
L 244.201307 160.72 
L 244.125649 160.72 
L 244.053681 160.72 
" clip-path="url(#p9b9ce596c4)" style="fill: none; stroke: #000000; stroke-width: 5; stroke-linecap: square"/>
   </g>
   <g id="line2d_11">
    <path d="M 242.65 310.64 
L 242.65 10.8 
" clip-path="url(#p9b9ce596c4)" style="fill: none; stroke: #000000; stroke-width: 3; stroke-linecap: square"/>
   </g>
   <g id="line2d_12">
    <path d="M 35.3 160.72 
L 450 160.72 
" clip-path="url(#p9b9ce596c4)" style="fill: none; stroke: #000000; stroke-width: 3; stroke-linecap: square"/>
   </g>
  </g>
 </g>
 <defs>
  <clipPath id="p9b9ce596c4">
   <rect x="35.3" y="10.8" width="414.7" height="299.84"/>
  </clipPath>
 </defs>
</svg>
