<?xml version="1.0" encoding="utf-8" standalone="no"?>
<!DOCTYPE svg PUBLIC "-//W3C//DTD SVG 1.1//EN"
  "http://www.w3.org/Graphics/SVG/1.1/DTD/svg11.dtd">
<svg height="345.6pt" version="1.1" viewBox="0 0 345.6 345.6" width="345.6pt" xmlns="http://www.w3.org/2000/svg" xmlns:xlink="http://www.w3.org/1999/xlink">
 <metadata>
  <rdf:RDF xmlns:cc="http://creativecommons.org/ns#" xmlns:dc="http://purl.org/dc/elements/1.1/" xmlns:rdf="http://www.w3.org/1999/02/22-rdf-syntax-ns#">
   <cc:Work>
    <dc:type rdf:resource="http://purl.org/dc/dcmitype/StillImage"/>
    <dc:date>2022-08-08T17:24:45.918630</dc:date>
    <dc:format>image/svg+xml</dc:format>
    <dc:creator>
     <cc:Agent>
      <dc:title>Matplotlib v3.4.2, https://matplotlib.org/</dc:title>
     </cc:Agent>
    </dc:creator>
   </cc:Work>
  </rdf:RDF>
 </metadata>
 <defs>
  <style type="text/css">*{stroke-linecap:butt;stroke-linejoin:round;}</style>
 </defs>
 <g id="figure_1">
  <g id="patch_1">
   <path d="M 0 345.6 
L 345.6 345.6 
L 345.6 0 
L 0 0 
z
" style="fill:#ffffff;"/>
  </g>
  <g id="axes_1">
   <g id="patch_2">
    <path d="M 35.3 310.64 
L 334.8 310.64 
L 334.8 10.8 
L 35.3 10.8 
z
" style="fill:#ffffff;"/>
   </g>
   <g id="patch_3">
    <path clip-path="url(#p9274cc8d53)" d="M 35.3 153.224 
L 35.3 168.216 
L 50.275 160.72 
z
"/>
   </g>
   <g id="patch_4">
    <path clip-path="url(#p9274cc8d53)" d="M 56.692857 153.224 
L 56.692857 168.216 
L 71.667857 160.72 
z
"/>
   </g>
   <g id="patch_5">
    <path clip-path="url(#p9274cc8d53)" d="M 78.085714 153.224 
L 78.085714 168.216 
L 93.060714 160.72 
z
"/>
   </g>
   <g id="patch_6">
    <path clip-path="url(#p9274cc8d53)" d="M 99.478571 153.224 
L 99.478571 168.216 
L 114.453571 160.72 
z
"/>
   </g>
   <g id="patch_7">
    <path clip-path="url(#p9274cc8d53)" d="M 120.871429 153.224 
L 120.871429 168.216 
L 135.846429 160.72 
z
"/>
   </g>
   <g id="patch_8">
    <path clip-path="url(#p9274cc8d53)" d="M 142.264286 153.224 
L 142.264286 168.216 
L 157.239286 160.72 
z
"/>
   </g>
   <g id="patch_9">
    <path clip-path="url(#p9274cc8d53)" d="M 163.657143 153.224 
L 163.657143 168.216 
L 178.632143 160.72 
z
"/>
   </g>
   <g id="patch_10">
    <path clip-path="url(#p9274cc8d53)" d="M 185.05 153.224 
L 185.05 168.216 
L 200.025 160.72 
z
"/>
   </g>
   <g id="patch_11">
    <path clip-path="url(#p9274cc8d53)" d="M 206.442857 153.224 
L 206.442857 168.216 
L 221.417857 160.72 
z
"/>
   </g>
   <g id="patch_12">
    <path clip-path="url(#p9274cc8d53)" d="M 227.835714 153.224 
L 227.835714 168.216 
L 242.810714 160.72 
z
"/>
   </g>
   <g id="patch_13">
    <path clip-path="url(#p9274cc8d53)" d="M 249.228571 153.224 
L 249.228571 168.216 
L 264.203571 160.72 
z
"/>
   </g>
   <g id="patch_14">
    <path clip-path="url(#p9274cc8d53)" d="M 270.621429 153.224 
L 270.621429 168.216 
L 285.596429 160.72 
z
"/>
   </g>
   <g id="patch_15">
    <path clip-path="url(#p9274cc8d53)" d="M 292.014286 153.224 
L 292.014286 168.216 
L 306.989286 160.72 
z
"/>
   </g>
   <g id="patch_16">
    <path clip-path="url(#p9274cc8d53)" d="M 313.407143 153.224 
L 313.407143 168.216 
L 298.432143 160.72 
z
"/>
   </g>
   <g id="patch_17">
    <path clip-path="url(#p9274cc8d53)" d="M 334.8 153.224 
L 334.8 168.216 
L 319.825 160.72 
z
"/>
   </g>
   <g id="matplotlib.axis_1">
    <g id="text_1">
     <!-- $x$ -->
     <g transform="translate(179.05 329.836875)scale(0.2 -0.2)">
      <defs>
       <path d="M 3841 3500 
L 2234 1784 
L 3219 0 
L 2559 0 
L 1819 1388 
L 531 0 
L -166 0 
L 1556 1844 
L 641 3500 
L 1300 3500 
L 1972 2234 
L 3144 3500 
L 3841 3500 
z
" id="DejaVuSans-Oblique-78" transform="scale(0.015625)"/>
      </defs>
      <use transform="translate(0 0.3125)" xlink:href="#DejaVuSans-Oblique-78"/>
     </g>
    </g>
   </g>
   <g id="matplotlib.axis_2">
    <g id="text_2">
     <!-- $\dot{x}$ -->
     <g transform="translate(27.140625 166.72)rotate(-90)scale(0.2 -0.2)">
      <defs>
       <path d="M -1894 4863 
L -1319 4863 
L -1319 4134 
L -1894 4134 
L -1894 4863 
z
M -1600 3584 
L -1600 3584 
z
" id="DejaVuSans-307" transform="scale(0.015625)"/>
      </defs>
      <use transform="translate(62.388672 12.015625)" xlink:href="#DejaVuSans-307"/>
      <use transform="translate(0 0.828125)" xlink:href="#DejaVuSans-Oblique-78"/>
     </g>
    </g>
   </g>
   <g id="line2d_1">
    <path clip-path="url(#p9274cc8d53)" d="M 185.05 310.64 
L 185.05 10.8 
" style="fill:none;stroke:#000000;stroke-linecap:square;stroke-width:3;"/>
   </g>
   <g id="line2d_2">
    <path clip-path="url(#p9274cc8d53)" d="M 35.3 160.72 
L 334.8 160.72 
" style="fill:none;stroke:#000000;stroke-linecap:square;stroke-width:3;"/>
   </g>
   <g id="line2d_3">
    <path clip-path="url(#p9274cc8d53)" d="M 35.3 25.792 
L 38.325253 27.306343 
L 41.350505 28.820687 
L 44.375758 30.33503 
L 47.40101 31.849374 
L 50.426263 33.363717 
L 53.451515 34.878061 
L 56.476768 36.392404 
L 59.50202 37.906747 
L 62.527273 39.421091 
L 65.552525 40.935434 
L 68.577778 42.449778 
L 71.60303 43.964121 
L 74.628283 45.478465 
L 77.653535 46.992808 
L 80.678788 48.507152 
L 83.70404 50.021495 
L 86.729293 51.535838 
L 89.754545 53.050182 
L 92.779798 54.564525 
L 95.805051 56.078869 
L 98.830303 57.593212 
L 101.855556 59.107556 
L 104.880808 60.621899 
L 107.906061 62.136242 
L 110.931313 63.650586 
L 113.956566 65.164929 
L 116.981818 66.679273 
L 120.007071 68.193616 
L 123.032323 69.70796 
L 126.057576 71.222303 
L 129.082828 72.736646 
L 132.108081 74.25099 
L 135.133333 75.765333 
L 138.158586 77.279677 
L 141.183838 78.79402 
L 144.209091 80.308364 
L 147.234343 81.822707 
L 150.259596 83.337051 
L 153.284848 84.851394 
L 156.310101 86.365737 
L 159.335354 87.880081 
L 162.360606 89.394424 
L 165.385859 90.908768 
L 168.411111 92.423111 
L 171.436364 93.937455 
L 174.461616 95.451798 
L 177.486869 96.966141 
L 180.512121 98.480485 
L 183.537374 99.994828 
L 186.562626 101.509172 
L 189.587879 103.023515 
L 192.613131 104.537859 
L 195.638384 106.052202 
L 198.663636 107.566545 
L 201.688889 109.080889 
L 204.714141 110.595232 
L 207.739394 112.109576 
L 210.764646 113.623919 
L 213.789899 115.138263 
L 216.815152 116.652606 
L 219.840404 118.166949 
L 222.865657 119.681293 
L 225.890909 121.195636 
L 228.916162 122.70998 
L 231.941414 124.224323 
L 234.966667 125.738667 
L 237.991919 127.25301 
L 241.017172 128.767354 
L 244.042424 130.281697 
L 247.067677 131.79604 
L 250.092929 133.310384 
L 253.118182 134.824727 
L 256.143434 136.339071 
L 259.168687 137.853414 
L 262.193939 139.367758 
L 265.219192 140.882101 
L 268.244444 142.396444 
L 271.269697 143.910788 
L 274.294949 145.425131 
L 277.320202 146.939475 
L 280.345455 148.453818 
L 283.370707 149.968162 
L 286.39596 151.482505 
L 289.421212 152.996848 
L 292.446465 154.511192 
L 295.471717 156.025535 
L 298.49697 157.539879 
L 301.522222 159.054222 
L 304.547475 160.568566 
L 307.572727 162.082909 
L 310.59798 163.597253 
L 313.623232 165.111596 
L 316.648485 166.625939 
L 319.673737 168.140283 
L 322.69899 169.654626 
L 325.724242 171.16897 
L 328.749495 172.683313 
L 331.774747 174.197657 
L 334.8 175.712 
" style="fill:none;stroke:#000000;stroke-linecap:square;stroke-width:5;"/>
   </g>
   <g id="line2d_4">
    <defs>
     <path d="M 0 7 
C 1.856422 7 3.637059 6.262436 4.949747 4.949747 
C 6.262436 3.637059 7 1.856422 7 0 
C 7 -1.856422 6.262436 -3.637059 4.949747 -4.949747 
C 3.637059 -6.262436 1.856422 -7 0 -7 
C -1.856422 -7 -3.637059 -6.262436 -4.949747 -4.949747 
C -6.262436 -3.637059 -7 -1.856422 -7 0 
C -7 1.856422 -6.262436 3.637059 -4.949747 4.949747 
C -3.637059 6.262436 -1.856422 7 0 7 
z
" id="mcd71169121" style="stroke:#000000;stroke-width:5;"/>
    </defs>
    <g clip-path="url(#p9274cc8d53)">
     <use style="fill:#ffffff;stroke:#000000;stroke-width:5;" x="185.05" xlink:href="#mcd71169121" y="160.72"/>
    </g>
   </g>
   <g id="line2d_5">
    <defs>
     <path d="M 0 7 
C 1.856422 7 3.637059 6.262436 4.949747 4.949747 
C 6.262436 3.637059 7 1.856422 7 0 
C 7 -1.856422 6.262436 -3.637059 4.949747 -4.949747 
C 3.637059 -6.262436 1.856422 -7 0 -7 
C -1.856422 -7 -3.637059 -6.262436 -4.949747 -4.949747 
C -6.262436 -3.637059 -7 -1.856422 -7 0 
C -7 1.856422 -6.262436 3.637059 -4.949747 4.949747 
C -3.637059 6.262436 -1.856422 7 0 7 
z
" id="m9e6eb3004b" style="stroke:#000000;stroke-width:5;"/>
    </defs>
    <g clip-path="url(#p9274cc8d53)">
     <use style="stroke:#000000;stroke-width:5;" x="304.85" xlink:href="#m9e6eb3004b" y="160.72"/>
    </g>
   </g>
  </g>
 </g>
 <defs>
  <clipPath id="p9274cc8d53">
   <rect height="299.84" width="299.5" x="35.3" y="10.8"/>
  </clipPath>
 </defs>
</svg>
