<?xml version="1.0" encoding="utf-8" standalone="no"?>
<!DOCTYPE svg PUBLIC "-//W3C//DTD SVG 1.1//EN"
  "http://www.w3.org/Graphics/SVG/1.1/DTD/svg11.dtd">
<svg xmlns:xlink="http://www.w3.org/1999/xlink" width="460.8pt" height="345.6pt" viewBox="0 0 460.8 345.6" xmlns="http://www.w3.org/2000/svg" version="1.1">
 <metadata>
  <rdf:RDF xmlns:dc="http://purl.org/dc/elements/1.1/" xmlns:cc="http://creativecommons.org/ns#" xmlns:rdf="http://www.w3.org/1999/02/22-rdf-syntax-ns#">
   <cc:Work>
    <dc:type rdf:resource="http://purl.org/dc/dcmitype/StillImage"/>
    <dc:date>2022-06-29T11:17:44.333136</dc:date>
    <dc:format>image/svg+xml</dc:format>
    <dc:creator>
     <cc:Agent>
      <dc:title>Matplotlib v3.5.1, https://matplotlib.org/</dc:title>
     </cc:Agent>
    </dc:creator>
   </cc:Work>
  </rdf:RDF>
 </metadata>
 <defs>
  <style type="text/css">*{stroke-linejoin: round; stroke-linecap: butt}</style>
 </defs>
 <g id="figure_1">
  <g id="patch_1">
   <path d="M 0 345.6 
L 460.8 345.6 
L 460.8 0 
L 0 0 
z
" style="fill: #ffffff"/>
  </g>
  <g id="axes_1">
   <g id="patch_2">
    <path d="M 34.96 283.48 
L 421.29 283.48 
L 421.29 10.8 
L 34.96 10.8 
z
" style="fill: #ffffff"/>
   </g>
   <g id="matplotlib.axis_1">
    <g id="xtick_1">
     <g id="line2d_1">
      <defs>
       <path id="maa02eb5420" d="M 0 0 
L 0 3.5 
" style="stroke: #000000; stroke-width: 0.8"/>
      </defs>
      <g>
       <use xlink:href="#maa02eb5420" x="34.96" y="283.48" style="stroke: #000000; stroke-width: 0.8"/>
      </g>
     </g>
     <g id="text_1">
      <!-- 0.0 -->
      <g transform="translate(19.056875 305.676875)scale(0.2 -0.2)">
       <defs>
        <path id="DejaVuSans-30" d="M 2034 4250 
Q 1547 4250 1301 3770 
Q 1056 3291 1056 2328 
Q 1056 1369 1301 889 
Q 1547 409 2034 409 
Q 2525 409 2770 889 
Q 3016 1369 3016 2328 
Q 3016 3291 2770 3770 
Q 2525 4250 2034 4250 
z
M 2034 4750 
Q 2819 4750 3233 4129 
Q 3647 3509 3647 2328 
Q 3647 1150 3233 529 
Q 2819 -91 2034 -91 
Q 1250 -91 836 529 
Q 422 1150 422 2328 
Q 422 3509 836 4129 
Q 1250 4750 2034 4750 
z
" transform="scale(0.015625)"/>
        <path id="DejaVuSans-2e" d="M 684 794 
L 1344 794 
L 1344 0 
L 684 0 
L 684 794 
z
" transform="scale(0.015625)"/>
       </defs>
       <use xlink:href="#DejaVuSans-30"/>
       <use xlink:href="#DejaVuSans-2e" x="63.623047"/>
       <use xlink:href="#DejaVuSans-30" x="95.410156"/>
      </g>
     </g>
    </g>
    <g id="xtick_2">
     <g id="line2d_2">
      <g>
       <use xlink:href="#maa02eb5420" x="163.736667" y="283.48" style="stroke: #000000; stroke-width: 0.8"/>
      </g>
     </g>
     <g id="text_2">
      <!-- 33.0 -->
      <g transform="translate(141.471042 305.676875)scale(0.2 -0.2)">
       <defs>
        <path id="DejaVuSans-33" d="M 2597 2516 
Q 3050 2419 3304 2112 
Q 3559 1806 3559 1356 
Q 3559 666 3084 287 
Q 2609 -91 1734 -91 
Q 1441 -91 1130 -33 
Q 819 25 488 141 
L 488 750 
Q 750 597 1062 519 
Q 1375 441 1716 441 
Q 2309 441 2620 675 
Q 2931 909 2931 1356 
Q 2931 1769 2642 2001 
Q 2353 2234 1838 2234 
L 1294 2234 
L 1294 2753 
L 1863 2753 
Q 2328 2753 2575 2939 
Q 2822 3125 2822 3475 
Q 2822 3834 2567 4026 
Q 2313 4219 1838 4219 
Q 1578 4219 1281 4162 
Q 984 4106 628 3988 
L 628 4550 
Q 988 4650 1302 4700 
Q 1616 4750 1894 4750 
Q 2613 4750 3031 4423 
Q 3450 4097 3450 3541 
Q 3450 3153 3228 2886 
Q 3006 2619 2597 2516 
z
" transform="scale(0.015625)"/>
       </defs>
       <use xlink:href="#DejaVuSans-33"/>
       <use xlink:href="#DejaVuSans-33" x="63.623047"/>
       <use xlink:href="#DejaVuSans-2e" x="127.246094"/>
       <use xlink:href="#DejaVuSans-30" x="159.033203"/>
      </g>
     </g>
    </g>
    <g id="xtick_3">
     <g id="line2d_3">
      <g>
       <use xlink:href="#maa02eb5420" x="292.513333" y="283.48" style="stroke: #000000; stroke-width: 0.8"/>
      </g>
     </g>
     <g id="text_3">
      <!-- 67.0 -->
      <g transform="translate(270.247708 305.676875)scale(0.2 -0.2)">
       <defs>
        <path id="DejaVuSans-36" d="M 2113 2584 
Q 1688 2584 1439 2293 
Q 1191 2003 1191 1497 
Q 1191 994 1439 701 
Q 1688 409 2113 409 
Q 2538 409 2786 701 
Q 3034 994 3034 1497 
Q 3034 2003 2786 2293 
Q 2538 2584 2113 2584 
z
M 3366 4563 
L 3366 3988 
Q 3128 4100 2886 4159 
Q 2644 4219 2406 4219 
Q 1781 4219 1451 3797 
Q 1122 3375 1075 2522 
Q 1259 2794 1537 2939 
Q 1816 3084 2150 3084 
Q 2853 3084 3261 2657 
Q 3669 2231 3669 1497 
Q 3669 778 3244 343 
Q 2819 -91 2113 -91 
Q 1303 -91 875 529 
Q 447 1150 447 2328 
Q 447 3434 972 4092 
Q 1497 4750 2381 4750 
Q 2619 4750 2861 4703 
Q 3103 4656 3366 4563 
z
" transform="scale(0.015625)"/>
        <path id="DejaVuSans-37" d="M 525 4666 
L 3525 4666 
L 3525 4397 
L 1831 0 
L 1172 0 
L 2766 4134 
L 525 4134 
L 525 4666 
z
" transform="scale(0.015625)"/>
       </defs>
       <use xlink:href="#DejaVuSans-36"/>
       <use xlink:href="#DejaVuSans-37" x="63.623047"/>
       <use xlink:href="#DejaVuSans-2e" x="127.246094"/>
       <use xlink:href="#DejaVuSans-30" x="159.033203"/>
      </g>
     </g>
    </g>
    <g id="xtick_4">
     <g id="line2d_4">
      <g>
       <use xlink:href="#maa02eb5420" x="421.29" y="283.48" style="stroke: #000000; stroke-width: 0.8"/>
      </g>
     </g>
     <g id="text_4">
      <!-- 100.0 -->
      <g transform="translate(392.661875 305.676875)scale(0.2 -0.2)">
       <defs>
        <path id="DejaVuSans-31" d="M 794 531 
L 1825 531 
L 1825 4091 
L 703 3866 
L 703 4441 
L 1819 4666 
L 2450 4666 
L 2450 531 
L 3481 531 
L 3481 0 
L 794 0 
L 794 531 
z
" transform="scale(0.015625)"/>
       </defs>
       <use xlink:href="#DejaVuSans-31"/>
       <use xlink:href="#DejaVuSans-30" x="63.623047"/>
       <use xlink:href="#DejaVuSans-30" x="127.246094"/>
       <use xlink:href="#DejaVuSans-2e" x="190.869141"/>
       <use xlink:href="#DejaVuSans-30" x="222.65625"/>
      </g>
     </g>
    </g>
    <g id="text_5">
     <!-- $T$ -->
     <g transform="translate(221.925 329.033125)scale(0.2 -0.2)">
      <defs>
       <path id="DejaVuSans-Oblique-54" d="M 378 4666 
L 4325 4666 
L 4225 4134 
L 2559 4134 
L 1759 0 
L 1125 0 
L 1925 4134 
L 275 4134 
L 378 4666 
z
" transform="scale(0.015625)"/>
      </defs>
      <use xlink:href="#DejaVuSans-Oblique-54" transform="translate(0 0.09375)"/>
     </g>
    </g>
   </g>
   <g id="matplotlib.axis_2">
    <g id="text_6">
     <!-- $x$ -->
     <g transform="translate(26.800625 153.14)rotate(-90)scale(0.2 -0.2)">
      <defs>
       <path id="DejaVuSans-Oblique-78" d="M 3841 3500 
L 2234 1784 
L 3219 0 
L 2559 0 
L 1819 1388 
L 531 0 
L -166 0 
L 1556 1844 
L 641 3500 
L 1300 3500 
L 1972 2234 
L 3144 3500 
L 3841 3500 
z
" transform="scale(0.015625)"/>
      </defs>
      <use xlink:href="#DejaVuSans-Oblique-78" transform="translate(0 0.3125)"/>
     </g>
    </g>
   </g>
   <g id="line2d_5">
    <path d="M 34.96 148.129669 
L 38.8233 148.179153 
L 42.6866 148.23111 
L 46.5499 148.285666 
L 50.4132 148.342949 
L 54.2765 148.403096 
L 58.1398 148.466251 
L 62.0031 148.532564 
L 65.8664 148.602192 
L 69.7297 148.675302 
L 73.593 148.752067 
L 77.4563 148.83267 
L 81.3196 148.917303 
L 85.1829 149.006169 
L 89.0462 149.099477 
L 92.9095 149.197451 
L 96.7728 149.300323 
L 100.6361 149.40834 
L 104.4994 149.521757 
L 108.3627 149.640844 
L 112.226 149.765887 
L 116.0893 149.897181 
L 119.9526 150.03504 
L 123.8159 150.179792 
L 127.6792 150.331782 
L 131.5425 150.491371 
L 135.4058 150.658939 
L 139.2691 150.834886 
L 143.1324 151.019631 
L 146.9957 151.213612 
L 150.859 151.417293 
L 154.7223 151.631157 
L 158.5856 151.855715 
L 162.4489 152.091501 
L 166.3122 152.339076 
L 170.1755 152.59903 
L 174.0388 152.871981 
L 177.9021 153.15858 
L 181.7654 153.459509 
L 185.6287 153.775485 
L 189.492 154.107259 
L 193.3553 154.455622 
L 197.2186 154.821403 
L 201.0819 155.205473 
L 204.9452 155.608747 
L 208.8085 156.032184 
L 212.6718 156.476794 
L 216.5351 156.943633 
L 220.3984 157.433815 
L 224.2617 157.948506 
L 228.125 158.488931 
L 231.9883 159.056377 
L 235.8516 159.652196 
L 239.7149 160.277806 
L 243.5782 160.934696 
L 247.4415 161.624431 
L 251.3048 162.348653 
L 255.1681 163.109085 
L 259.0314 163.90754 
L 262.8947 164.745917 
L 266.758 165.626212 
L 270.6213 166.550523 
L 274.4846 167.521049 
L 278.3479 168.540102 
L 282.2112 169.610107 
L 286.0745 170.733612 
L 289.9378 171.913293 
L 293.8011 173.151957 
L 297.6644 174.452555 
L 301.5277 175.818183 
L 305.391 177.252092 
L 309.2543 178.757697 
L 313.1176 180.338582 
L 316.9809 181.998511 
L 320.8442 183.741436 
L 324.7075 185.571508 
L 328.5708 187.493083 
L 332.4341 189.510738 
L 336.2974 191.629275 
L 340.1607 193.853738 
L 344.024 196.189425 
L 347.8873 198.641896 
L 351.7506 201.216991 
L 355.6139 203.920841 
L 359.4772 206.759883 
L 363.3405 209.740877 
L 367.2038 212.870921 
L 371.0671 216.157467 
L 374.9304 219.60834 
L 378.7937 223.231757 
L 382.657 227.036345 
L 386.5203 231.031162 
L 390.3836 235.22572 
L 394.2469 239.630007 
L 398.1102 244.254507 
L 401.9735 249.110232 
L 405.8368 254.208744 
L 409.7001 259.562181 
L 413.5634 265.18329 
L 417.4267 271.085455 
" clip-path="url(#p0e76c8e92c)" style="fill: none; stroke: #9e0142; stroke-width: 5; stroke-linecap: square"/>
   </g>
   <g id="line2d_6">
    <path d="M 34.96 147.909743 
L 38.8233 147.94823 
L 42.6866 147.988641 
L 46.5499 148.031073 
L 50.4132 148.075627 
L 54.2765 148.122408 
L 58.1398 148.171529 
L 62.0031 148.223105 
L 65.8664 148.27726 
L 69.7297 148.334123 
L 73.593 148.39383 
L 77.4563 148.456521 
L 81.3196 148.522347 
L 85.1829 148.591464 
L 89.0462 148.664038 
L 92.9095 148.74024 
L 96.7728 148.820252 
L 100.6361 148.904264 
L 104.4994 148.992477 
L 108.3627 149.085101 
L 112.226 149.182356 
L 116.0893 149.284474 
L 119.9526 149.391698 
L 123.8159 149.504283 
L 127.6792 149.622497 
L 131.5425 149.746622 
L 135.4058 149.876953 
L 139.2691 150.0138 
L 143.1324 150.15749 
L 146.9957 150.308365 
L 150.859 150.466783 
L 154.7223 150.633122 
L 158.5856 150.807778 
L 162.4489 150.991167 
L 166.3122 151.183726 
L 170.1755 151.385912 
L 174.0388 151.598208 
L 177.9021 151.821118 
L 181.7654 152.055174 
L 185.6287 152.300933 
L 189.492 152.558979 
L 193.3553 152.829928 
L 197.2186 153.114425 
L 201.0819 153.413146 
L 204.9452 153.726803 
L 208.8085 154.056143 
L 212.6718 154.401951 
L 216.5351 154.765048 
L 220.3984 155.1463 
L 224.2617 155.546615 
L 228.125 155.966946 
L 231.9883 156.408294 
L 235.8516 156.871708 
L 239.7149 157.358294 
L 243.5782 157.869208 
L 247.4415 158.405669 
L 251.3048 158.968952 
L 255.1681 159.5604 
L 259.0314 160.18142 
L 262.8947 160.833491 
L 266.758 161.518165 
L 270.6213 162.237074 
L 274.4846 162.991927 
L 278.3479 163.784524 
L 282.2112 164.61675 
L 286.0745 165.490587 
L 289.9378 166.408117 
L 293.8011 167.371522 
L 297.6644 168.383099 
L 301.5277 169.445253 
L 305.391 170.560516 
L 309.2543 171.731542 
L 313.1176 172.961119 
L 316.9809 174.252175 
L 320.8442 175.607784 
L 324.7075 177.031173 
L 328.5708 178.525732 
L 332.4341 180.095018 
L 336.2974 181.742769 
L 340.1607 183.472908 
L 344.024 185.289553 
L 347.8873 187.197031 
L 351.7506 189.199882 
L 355.6139 191.302876 
L 359.4772 193.51102 
L 363.3405 195.829571 
L 367.2038 198.26405 
L 371.0671 200.820252 
L 374.9304 203.504265 
L 378.7937 206.322478 
L 382.657 209.281602 
L 386.5203 212.388682 
L 390.3836 215.651116 
L 394.2469 219.076672 
L 398.1102 222.673505 
L 401.9735 226.450181 
L 405.8368 230.41569 
L 409.7001 234.579474 
L 413.5634 238.951448 
L 417.4267 243.54202 
" clip-path="url(#p0e76c8e92c)" style="fill: none; stroke: #d8434e; stroke-width: 5; stroke-linecap: square"/>
   </g>
   <g id="line2d_7">
    <path d="M 34.96 147.689816 
L 38.8233 147.717307 
L 42.6866 147.746172 
L 46.5499 147.776481 
L 50.4132 147.808305 
L 54.2765 147.84172 
L 58.1398 147.876806 
L 62.0031 147.913647 
L 65.8664 147.952329 
L 69.7297 147.992945 
L 73.593 148.035593 
L 77.4563 148.080372 
L 81.3196 148.127391 
L 85.1829 148.17676 
L 89.0462 148.228598 
L 92.9095 148.283028 
L 96.7728 148.34018 
L 100.6361 148.400189 
L 104.4994 148.463198 
L 108.3627 148.529358 
L 112.226 148.598826 
L 116.0893 148.671767 
L 119.9526 148.748356 
L 123.8159 148.828773 
L 127.6792 148.913212 
L 131.5425 149.001873 
L 135.4058 149.094966 
L 139.2691 149.192715 
L 143.1324 149.29535 
L 146.9957 149.403118 
L 150.859 149.516274 
L 154.7223 149.635087 
L 158.5856 149.759842 
L 162.4489 149.890834 
L 166.3122 150.028376 
L 170.1755 150.172794 
L 174.0388 150.324434 
L 177.9021 150.483656 
L 181.7654 150.650839 
L 185.6287 150.82638 
L 189.492 151.010699 
L 193.3553 151.204234 
L 197.2186 151.407446 
L 201.0819 151.620818 
L 204.9452 151.844859 
L 208.8085 152.080102 
L 212.6718 152.327108 
L 216.5351 152.586463 
L 220.3984 152.858786 
L 224.2617 153.144725 
L 228.125 153.444962 
L 231.9883 153.76021 
L 235.8516 154.09122 
L 239.7149 154.438781 
L 243.5782 154.80372 
L 247.4415 155.186906 
L 251.3048 155.589252 
L 255.1681 156.011714 
L 259.0314 156.4553 
L 262.8947 156.921065 
L 266.758 157.410118 
L 270.6213 157.923624 
L 274.4846 158.462805 
L 278.3479 159.028945 
L 282.2112 159.623393 
L 286.0745 160.247562 
L 289.9378 160.90294 
L 293.8011 161.591087 
L 297.6644 162.313642 
L 301.5277 163.072324 
L 305.391 163.86894 
L 309.2543 164.705387 
L 313.1176 165.583656 
L 316.9809 166.505839 
L 320.8442 167.474131 
L 324.7075 168.490838 
L 328.5708 169.55838 
L 332.4341 170.679299 
L 336.2974 171.856264 
L 340.1607 173.092077 
L 344.024 174.389681 
L 347.8873 175.752165 
L 351.7506 177.182773 
L 355.6139 178.684912 
L 359.4772 180.262157 
L 363.3405 181.918265 
L 367.2038 183.657178 
L 371.0671 185.483037 
L 374.9304 187.400189 
L 378.7937 189.413198 
L 382.657 191.526858 
L 386.5203 193.746201 
L 390.3836 196.076511 
L 394.2469 198.523337 
L 398.1102 201.092504 
L 401.9735 203.790129 
L 405.8368 206.622635 
L 409.7001 209.596767 
L 413.5634 212.719606 
L 417.4267 215.998586 
" clip-path="url(#p0e76c8e92c)" style="fill: none; stroke: #f67a49; stroke-width: 5; stroke-linecap: square"/>
   </g>
   <g id="line2d_8">
    <path d="M 34.96 147.46989 
L 38.8233 147.486384 
L 42.6866 147.503703 
L 46.5499 147.521889 
L 50.4132 147.540983 
L 54.2765 147.561032 
L 58.1398 147.582084 
L 62.0031 147.604188 
L 65.8664 147.627397 
L 69.7297 147.651767 
L 73.593 147.677356 
L 77.4563 147.704223 
L 81.3196 147.732434 
L 85.1829 147.762056 
L 89.0462 147.793159 
L 92.9095 147.825817 
L 96.7728 147.860108 
L 100.6361 147.896113 
L 104.4994 147.933919 
L 108.3627 147.973615 
L 112.226 148.015296 
L 116.0893 148.05906 
L 119.9526 148.105013 
L 123.8159 148.153264 
L 127.6792 148.203927 
L 131.5425 148.257124 
L 135.4058 148.31298 
L 139.2691 148.371629 
L 143.1324 148.43321 
L 146.9957 148.497871 
L 150.859 148.565764 
L 154.7223 148.637052 
L 158.5856 148.711905 
L 162.4489 148.7905 
L 166.3122 148.873025 
L 170.1755 148.959677 
L 174.0388 149.05066 
L 177.9021 149.146193 
L 181.7654 149.246503 
L 185.6287 149.351828 
L 189.492 149.46242 
L 193.3553 149.578541 
L 197.2186 149.700468 
L 201.0819 149.828491 
L 204.9452 149.962916 
L 208.8085 150.104061 
L 212.6718 150.252265 
L 216.5351 150.407878 
L 220.3984 150.571272 
L 224.2617 150.742835 
L 228.125 150.922977 
L 231.9883 151.112126 
L 235.8516 151.310732 
L 239.7149 151.519269 
L 243.5782 151.738232 
L 247.4415 151.968144 
L 251.3048 152.209551 
L 255.1681 152.463028 
L 259.0314 152.72918 
L 262.8947 153.008639 
L 266.758 153.302071 
L 270.6213 153.610174 
L 274.4846 153.933683 
L 278.3479 154.273367 
L 282.2112 154.630036 
L 286.0745 155.004537 
L 289.9378 155.397764 
L 293.8011 155.810652 
L 297.6644 156.244185 
L 301.5277 156.699394 
L 305.391 157.177364 
L 309.2543 157.679232 
L 313.1176 158.206194 
L 316.9809 158.759504 
L 320.8442 159.340479 
L 324.7075 159.950503 
L 328.5708 160.591028 
L 332.4341 161.263579 
L 336.2974 161.969758 
L 340.1607 162.711246 
L 344.024 163.489808 
L 347.8873 164.307299 
L 351.7506 165.165664 
L 355.6139 166.066947 
L 359.4772 167.013294 
L 363.3405 168.006959 
L 367.2038 169.050307 
L 371.0671 170.145822 
L 374.9304 171.296113 
L 378.7937 172.503919 
L 382.657 173.772115 
L 386.5203 175.103721 
L 390.3836 176.501907 
L 394.2469 177.970002 
L 398.1102 179.511502 
L 401.9735 181.130077 
L 405.8368 182.829581 
L 409.7001 184.61406 
L 413.5634 186.487763 
L 417.4267 188.455152 
" clip-path="url(#p0e76c8e92c)" style="fill: none; stroke: #fdbf6f; stroke-width: 5; stroke-linecap: square"/>
   </g>
   <g id="line2d_9">
    <path d="M 34.96 147.249963 
L 38.8233 147.255461 
L 42.6866 147.261234 
L 46.5499 147.267296 
L 50.4132 147.273661 
L 54.2765 147.280344 
L 58.1398 147.287361 
L 62.0031 147.294729 
L 65.8664 147.302466 
L 69.7297 147.310589 
L 73.593 147.319119 
L 77.4563 147.328074 
L 81.3196 147.337478 
L 85.1829 147.347352 
L 89.0462 147.35772 
L 92.9095 147.368606 
L 96.7728 147.380036 
L 100.6361 147.392038 
L 104.4994 147.40464 
L 108.3627 147.417872 
L 112.226 147.431765 
L 116.0893 147.446353 
L 119.9526 147.461671 
L 123.8159 147.477755 
L 127.6792 147.494642 
L 131.5425 147.512375 
L 135.4058 147.530993 
L 139.2691 147.550543 
L 143.1324 147.57107 
L 146.9957 147.592624 
L 150.859 147.615255 
L 154.7223 147.639017 
L 158.5856 147.663968 
L 162.4489 147.690167 
L 166.3122 147.717675 
L 170.1755 147.746559 
L 174.0388 147.776887 
L 177.9021 147.808731 
L 181.7654 147.842168 
L 185.6287 147.877276 
L 189.492 147.91414 
L 193.3553 147.952847 
L 197.2186 147.993489 
L 201.0819 148.036164 
L 204.9452 148.080972 
L 208.8085 148.12802 
L 212.6718 148.177422 
L 216.5351 148.229293 
L 220.3984 148.283757 
L 224.2617 148.340945 
L 228.125 148.400992 
L 231.9883 148.464042 
L 235.8516 148.530244 
L 239.7149 148.599756 
L 243.5782 148.672744 
L 247.4415 148.749381 
L 251.3048 148.82985 
L 255.1681 148.914343 
L 259.0314 149.00306 
L 262.8947 149.096213 
L 266.758 149.194024 
L 270.6213 149.296725 
L 274.4846 149.404561 
L 278.3479 149.517789 
L 282.2112 149.636679 
L 286.0745 149.761512 
L 289.9378 149.892588 
L 293.8011 150.030217 
L 297.6644 150.174728 
L 301.5277 150.326465 
L 305.391 150.485788 
L 309.2543 150.653077 
L 313.1176 150.828731 
L 316.9809 151.013168 
L 320.8442 151.206826 
L 324.7075 151.410168 
L 328.5708 151.623676 
L 332.4341 151.84786 
L 336.2974 152.083253 
L 340.1607 152.330415 
L 344.024 152.589936 
L 347.8873 152.862433 
L 351.7506 153.148555 
L 355.6139 153.448982 
L 359.4772 153.764431 
L 363.3405 154.095653 
L 367.2038 154.443436 
L 371.0671 154.808607 
L 374.9304 155.192038 
L 378.7937 155.59464 
L 382.657 156.017372 
L 386.5203 156.46124 
L 390.3836 156.927302 
L 394.2469 157.416667 
L 398.1102 157.930501 
L 401.9735 158.470026 
L 405.8368 159.036527 
L 409.7001 159.631353 
L 413.5634 160.255921 
L 417.4267 160.911717 
" clip-path="url(#p0e76c8e92c)" style="fill: none; stroke: #feeda1; stroke-width: 5; stroke-linecap: square"/>
   </g>
   <g id="line2d_10">
    <path d="M 34.96 147.030037 
L 38.8233 147.024539 
L 42.6866 147.018766 
L 46.5499 147.012704 
L 50.4132 147.006339 
L 54.2765 146.999656 
L 58.1398 146.992639 
L 62.0031 146.985271 
L 65.8664 146.977534 
L 69.7297 146.969411 
L 73.593 146.960881 
L 77.4563 146.951926 
L 81.3196 146.942522 
L 85.1829 146.932648 
L 89.0462 146.92228 
L 92.9095 146.911394 
L 96.7728 146.899964 
L 100.6361 146.887962 
L 104.4994 146.87536 
L 108.3627 146.862128 
L 112.226 146.848235 
L 116.0893 146.833647 
L 119.9526 146.818329 
L 123.8159 146.802245 
L 127.6792 146.785358 
L 131.5425 146.767625 
L 135.4058 146.749007 
L 139.2691 146.729457 
L 143.1324 146.70893 
L 146.9957 146.687376 
L 150.859 146.664745 
L 154.7223 146.640983 
L 158.5856 146.616032 
L 162.4489 146.589833 
L 166.3122 146.562325 
L 170.1755 146.533441 
L 174.0388 146.503113 
L 177.9021 146.471269 
L 181.7654 146.437832 
L 185.6287 146.402724 
L 189.492 146.36586 
L 193.3553 146.327153 
L 197.2186 146.286511 
L 201.0819 146.243836 
L 204.9452 146.199028 
L 208.8085 146.15198 
L 212.6718 146.102578 
L 216.5351 146.050707 
L 220.3984 145.996243 
L 224.2617 145.939055 
L 228.125 145.879008 
L 231.9883 145.815958 
L 235.8516 145.749756 
L 239.7149 145.680244 
L 243.5782 145.607256 
L 247.4415 145.530619 
L 251.3048 145.45015 
L 255.1681 145.365657 
L 259.0314 145.27694 
L 262.8947 145.183787 
L 266.758 145.085976 
L 270.6213 144.983275 
L 274.4846 144.875439 
L 278.3479 144.762211 
L 282.2112 144.643321 
L 286.0745 144.518488 
L 289.9378 144.387412 
L 293.8011 144.249783 
L 297.6644 144.105272 
L 301.5277 143.953535 
L 305.391 143.794212 
L 309.2543 143.626923 
L 313.1176 143.451269 
L 316.9809 143.266832 
L 320.8442 143.073174 
L 324.7075 142.869832 
L 328.5708 142.656324 
L 332.4341 142.43214 
L 336.2974 142.196747 
L 340.1607 141.949585 
L 344.024 141.690064 
L 347.8873 141.417567 
L 351.7506 141.131445 
L 355.6139 140.831018 
L 359.4772 140.515569 
L 363.3405 140.184347 
L 367.2038 139.836564 
L 371.0671 139.471393 
L 374.9304 139.087962 
L 378.7937 138.68536 
L 382.657 138.262628 
L 386.5203 137.81876 
L 390.3836 137.352698 
L 394.2469 136.863333 
L 398.1102 136.349499 
L 401.9735 135.809974 
L 405.8368 135.243473 
L 409.7001 134.648647 
L 413.5634 134.024079 
L 417.4267 133.368283 
" clip-path="url(#p0e76c8e92c)" style="fill: none; stroke: #f1f9a9; stroke-width: 5; stroke-linecap: square"/>
   </g>
   <g id="line2d_11">
    <path d="M 34.96 146.81011 
L 38.8233 146.793616 
L 42.6866 146.776297 
L 46.5499 146.758111 
L 50.4132 146.739017 
L 54.2765 146.718968 
L 58.1398 146.697916 
L 62.0031 146.675812 
L 65.8664 146.652603 
L 69.7297 146.628233 
L 73.593 146.602644 
L 77.4563 146.575777 
L 81.3196 146.547566 
L 85.1829 146.517944 
L 89.0462 146.486841 
L 92.9095 146.454183 
L 96.7728 146.419892 
L 100.6361 146.383887 
L 104.4994 146.346081 
L 108.3627 146.306385 
L 112.226 146.264704 
L 116.0893 146.22094 
L 119.9526 146.174987 
L 123.8159 146.126736 
L 127.6792 146.076073 
L 131.5425 146.022876 
L 135.4058 145.96702 
L 139.2691 145.908371 
L 143.1324 145.84679 
L 146.9957 145.782129 
L 150.859 145.714236 
L 154.7223 145.642948 
L 158.5856 145.568095 
L 162.4489 145.4895 
L 166.3122 145.406975 
L 170.1755 145.320323 
L 174.0388 145.22934 
L 177.9021 145.133807 
L 181.7654 145.033497 
L 185.6287 144.928172 
L 189.492 144.81758 
L 193.3553 144.701459 
L 197.2186 144.579532 
L 201.0819 144.451509 
L 204.9452 144.317084 
L 208.8085 144.175939 
L 212.6718 144.027735 
L 216.5351 143.872122 
L 220.3984 143.708728 
L 224.2617 143.537165 
L 228.125 143.357023 
L 231.9883 143.167874 
L 235.8516 142.969268 
L 239.7149 142.760731 
L 243.5782 142.541768 
L 247.4415 142.311856 
L 251.3048 142.070449 
L 255.1681 141.816972 
L 259.0314 141.55082 
L 262.8947 141.271361 
L 266.758 140.977929 
L 270.6213 140.669826 
L 274.4846 140.346317 
L 278.3479 140.006633 
L 282.2112 139.649964 
L 286.0745 139.275463 
L 289.9378 138.882236 
L 293.8011 138.469348 
L 297.6644 138.035815 
L 301.5277 137.580606 
L 305.391 137.102636 
L 309.2543 136.600768 
L 313.1176 136.073806 
L 316.9809 135.520496 
L 320.8442 134.939521 
L 324.7075 134.329497 
L 328.5708 133.688972 
L 332.4341 133.016421 
L 336.2974 132.310242 
L 340.1607 131.568754 
L 344.024 130.790192 
L 347.8873 129.972701 
L 351.7506 129.114336 
L 355.6139 128.213053 
L 359.4772 127.266706 
L 363.3405 126.273041 
L 367.2038 125.229693 
L 371.0671 124.134178 
L 374.9304 122.983887 
L 378.7937 121.776081 
L 382.657 120.507885 
L 386.5203 119.176279 
L 390.3836 117.778093 
L 394.2469 116.309998 
L 398.1102 114.768498 
L 401.9735 113.149923 
L 405.8368 111.450419 
L 409.7001 109.66594 
L 413.5634 107.792237 
L 417.4267 105.824848 
" clip-path="url(#p0e76c8e92c)" style="fill: none; stroke: #bfe5a0; stroke-width: 5; stroke-linecap: square"/>
   </g>
   <g id="line2d_12">
    <path d="M 34.96 146.590184 
L 38.8233 146.562693 
L 42.6866 146.533828 
L 46.5499 146.503519 
L 50.4132 146.471695 
L 54.2765 146.43828 
L 58.1398 146.403194 
L 62.0031 146.366353 
L 65.8664 146.327671 
L 69.7297 146.287055 
L 73.593 146.244407 
L 77.4563 146.199628 
L 81.3196 146.152609 
L 85.1829 146.10324 
L 89.0462 146.051402 
L 92.9095 145.996972 
L 96.7728 145.93982 
L 100.6361 145.879811 
L 104.4994 145.816802 
L 108.3627 145.750642 
L 112.226 145.681174 
L 116.0893 145.608233 
L 119.9526 145.531644 
L 123.8159 145.451227 
L 127.6792 145.366788 
L 131.5425 145.278127 
L 135.4058 145.185034 
L 139.2691 145.087285 
L 143.1324 144.98465 
L 146.9957 144.876882 
L 150.859 144.763726 
L 154.7223 144.644913 
L 158.5856 144.520158 
L 162.4489 144.389166 
L 166.3122 144.251624 
L 170.1755 144.107206 
L 174.0388 143.955566 
L 177.9021 143.796344 
L 181.7654 143.629161 
L 185.6287 143.45362 
L 189.492 143.269301 
L 193.3553 143.075766 
L 197.2186 142.872554 
L 201.0819 142.659182 
L 204.9452 142.435141 
L 208.8085 142.199898 
L 212.6718 141.952892 
L 216.5351 141.693537 
L 220.3984 141.421214 
L 224.2617 141.135275 
L 228.125 140.835038 
L 231.9883 140.51979 
L 235.8516 140.18878 
L 239.7149 139.841219 
L 243.5782 139.47628 
L 247.4415 139.093094 
L 251.3048 138.690748 
L 255.1681 138.268286 
L 259.0314 137.8247 
L 262.8947 137.358935 
L 266.758 136.869882 
L 270.6213 136.356376 
L 274.4846 135.817195 
L 278.3479 135.251055 
L 282.2112 134.656607 
L 286.0745 134.032438 
L 289.9378 133.37706 
L 293.8011 132.688913 
L 297.6644 131.966358 
L 301.5277 131.207676 
L 305.391 130.41106 
L 309.2543 129.574613 
L 313.1176 128.696344 
L 316.9809 127.774161 
L 320.8442 126.805869 
L 324.7075 125.789162 
L 328.5708 124.72162 
L 332.4341 123.600701 
L 336.2974 122.423736 
L 340.1607 121.187923 
L 344.024 119.890319 
L 347.8873 118.527835 
L 351.7506 117.097227 
L 355.6139 115.595088 
L 359.4772 114.017843 
L 363.3405 112.361735 
L 367.2038 110.622822 
L 371.0671 108.796963 
L 374.9304 106.879811 
L 378.7937 104.866802 
L 382.657 102.753142 
L 386.5203 100.533799 
L 390.3836 98.203489 
L 394.2469 95.756663 
L 398.1102 93.187496 
L 401.9735 90.489871 
L 405.8368 87.657365 
L 409.7001 84.683233 
L 413.5634 81.560394 
L 417.4267 78.281414 
" clip-path="url(#p0e76c8e92c)" style="fill: none; stroke: #74c7a5; stroke-width: 5; stroke-linecap: square"/>
   </g>
   <g id="line2d_13">
    <path d="M 34.96 146.370257 
L 38.8233 146.33177 
L 42.6866 146.291359 
L 46.5499 146.248927 
L 50.4132 146.204373 
L 54.2765 146.157592 
L 58.1398 146.108471 
L 62.0031 146.056895 
L 65.8664 146.00274 
L 69.7297 145.945877 
L 73.593 145.88617 
L 77.4563 145.823479 
L 81.3196 145.757653 
L 85.1829 145.688536 
L 89.0462 145.615962 
L 92.9095 145.53976 
L 96.7728 145.459748 
L 100.6361 145.375736 
L 104.4994 145.287523 
L 108.3627 145.194899 
L 112.226 145.097644 
L 116.0893 144.995526 
L 119.9526 144.888302 
L 123.8159 144.775717 
L 127.6792 144.657503 
L 131.5425 144.533378 
L 135.4058 144.403047 
L 139.2691 144.2662 
L 143.1324 144.12251 
L 146.9957 143.971635 
L 150.859 143.813217 
L 154.7223 143.646878 
L 158.5856 143.472222 
L 162.4489 143.288833 
L 166.3122 143.096274 
L 170.1755 142.894088 
L 174.0388 142.681792 
L 177.9021 142.458882 
L 181.7654 142.224826 
L 185.6287 141.979067 
L 189.492 141.721021 
L 193.3553 141.450072 
L 197.2186 141.165575 
L 201.0819 140.866854 
L 204.9452 140.553197 
L 208.8085 140.223857 
L 212.6718 139.878049 
L 216.5351 139.514952 
L 220.3984 139.1337 
L 224.2617 138.733385 
L 228.125 138.313054 
L 231.9883 137.871706 
L 235.8516 137.408292 
L 239.7149 136.921706 
L 243.5782 136.410792 
L 247.4415 135.874331 
L 251.3048 135.311048 
L 255.1681 134.7196 
L 259.0314 134.09858 
L 262.8947 133.446509 
L 266.758 132.761835 
L 270.6213 132.042926 
L 274.4846 131.288073 
L 278.3479 130.495476 
L 282.2112 129.66325 
L 286.0745 128.789413 
L 289.9378 127.871883 
L 293.8011 126.908478 
L 297.6644 125.896901 
L 301.5277 124.834747 
L 305.391 123.719484 
L 309.2543 122.548458 
L 313.1176 121.318881 
L 316.9809 120.027825 
L 320.8442 118.672216 
L 324.7075 117.248827 
L 328.5708 115.754268 
L 332.4341 114.184982 
L 336.2974 112.537231 
L 340.1607 110.807092 
L 344.024 108.990447 
L 347.8873 107.082969 
L 351.7506 105.080118 
L 355.6139 102.977124 
L 359.4772 100.76898 
L 363.3405 98.450429 
L 367.2038 96.01595 
L 371.0671 93.459748 
L 374.9304 90.775735 
L 378.7937 87.957522 
L 382.657 84.998398 
L 386.5203 81.891318 
L 390.3836 78.628884 
L 394.2469 75.203328 
L 398.1102 71.606495 
L 401.9735 67.829819 
L 405.8368 63.86431 
L 409.7001 59.700526 
L 413.5634 55.328552 
L 417.4267 50.73798 
" clip-path="url(#p0e76c8e92c)" style="fill: none; stroke: #378ebb; stroke-width: 5; stroke-linecap: square"/>
   </g>
   <g id="line2d_14">
    <path d="M 34.96 146.150331 
L 38.8233 146.100847 
L 42.6866 146.04889 
L 46.5499 145.994334 
L 50.4132 145.937051 
L 54.2765 145.876904 
L 58.1398 145.813749 
L 62.0031 145.747436 
L 65.8664 145.677808 
L 69.7297 145.604698 
L 73.593 145.527933 
L 77.4563 145.44733 
L 81.3196 145.362697 
L 85.1829 145.273831 
L 89.0462 145.180523 
L 92.9095 145.082549 
L 96.7728 144.979677 
L 100.6361 144.87166 
L 104.4994 144.758243 
L 108.3627 144.639156 
L 112.226 144.514113 
L 116.0893 144.382819 
L 119.9526 144.24496 
L 123.8159 144.100208 
L 127.6792 143.948218 
L 131.5425 143.788629 
L 135.4058 143.621061 
L 139.2691 143.445114 
L 143.1324 143.260369 
L 146.9957 143.066388 
L 150.859 142.862707 
L 154.7223 142.648843 
L 158.5856 142.424285 
L 162.4489 142.188499 
L 166.3122 141.940924 
L 170.1755 141.68097 
L 174.0388 141.408019 
L 177.9021 141.12142 
L 181.7654 140.820491 
L 185.6287 140.504515 
L 189.492 140.172741 
L 193.3553 139.824378 
L 197.2186 139.458597 
L 201.0819 139.074527 
L 204.9452 138.671253 
L 208.8085 138.247816 
L 212.6718 137.803206 
L 216.5351 137.336367 
L 220.3984 136.846185 
L 224.2617 136.331494 
L 228.125 135.791069 
L 231.9883 135.223623 
L 235.8516 134.627804 
L 239.7149 134.002194 
L 243.5782 133.345304 
L 247.4415 132.655569 
L 251.3048 131.931347 
L 255.1681 131.170915 
L 259.0314 130.37246 
L 262.8947 129.534083 
L 266.758 128.653788 
L 270.6213 127.729477 
L 274.4846 126.758951 
L 278.3479 125.739898 
L 282.2112 124.669893 
L 286.0745 123.546388 
L 289.9378 122.366707 
L 293.8011 121.128043 
L 297.6644 119.827445 
L 301.5277 118.461817 
L 305.391 117.027908 
L 309.2543 115.522303 
L 313.1176 113.941418 
L 316.9809 112.281489 
L 320.8442 110.538564 
L 324.7075 108.708492 
L 328.5708 106.786917 
L 332.4341 104.769262 
L 336.2974 102.650725 
L 340.1607 100.426262 
L 344.024 98.090575 
L 347.8873 95.638104 
L 351.7506 93.063009 
L 355.6139 90.359159 
L 359.4772 87.520117 
L 363.3405 84.539123 
L 367.2038 81.409079 
L 371.0671 78.122533 
L 374.9304 74.67166 
L 378.7937 71.048243 
L 382.657 67.243655 
L 386.5203 63.248838 
L 390.3836 59.05428 
L 394.2469 54.649993 
L 398.1102 50.025493 
L 401.9735 45.169768 
L 405.8368 40.071256 
L 409.7001 34.717819 
L 413.5634 29.09671 
L 417.4267 23.194545 
" clip-path="url(#p0e76c8e92c)" style="fill: none; stroke: #5e4fa2; stroke-width: 5; stroke-linecap: square"/>
   </g>
   <g id="patch_3">
    <path d="M 34.96 283.48 
L 34.96 10.8 
" style="fill: none; stroke: #000000; stroke-width: 3; stroke-linejoin: miter; stroke-linecap: square"/>
   </g>
   <g id="patch_4">
    <path d="M 34.96 283.48 
L 421.29 283.48 
" style="fill: none; stroke: #000000; stroke-width: 3; stroke-linejoin: miter; stroke-linecap: square"/>
   </g>
  </g>
 </g>
 <defs>
  <clipPath id="p0e76c8e92c">
   <rect x="34.96" y="10.8" width="386.33" height="272.68"/>
  </clipPath>
 </defs>
</svg>
