<?xml version="1.0" encoding="utf-8" standalone="no"?>
<!DOCTYPE svg PUBLIC "-//W3C//DTD SVG 1.1//EN"
  "http://www.w3.org/Graphics/SVG/1.1/DTD/svg11.dtd">
<svg height="345.6pt" version="1.1" viewBox="0 0 345.6 345.6" width="345.6pt" xmlns="http://www.w3.org/2000/svg" xmlns:xlink="http://www.w3.org/1999/xlink">
 <metadata>
  <rdf:RDF xmlns:cc="http://creativecommons.org/ns#" xmlns:dc="http://purl.org/dc/elements/1.1/" xmlns:rdf="http://www.w3.org/1999/02/22-rdf-syntax-ns#">
   <cc:Work>
    <dc:type rdf:resource="http://purl.org/dc/dcmitype/StillImage"/>
    <dc:date>2022-08-08T17:29:50.816834</dc:date>
    <dc:format>image/svg+xml</dc:format>
    <dc:creator>
     <cc:Agent>
      <dc:title>Matplotlib v3.4.2, https://matplotlib.org/</dc:title>
     </cc:Agent>
    </dc:creator>
   </cc:Work>
  </rdf:RDF>
 </metadata>
 <defs>
  <style type="text/css">*{stroke-linecap:butt;stroke-linejoin:round;}</style>
 </defs>
 <g id="figure_1">
  <g id="patch_1">
   <path d="M 0 345.6 
L 345.6 345.6 
L 345.6 0 
L 0 0 
z
" style="fill:#ffffff;"/>
  </g>
  <g id="axes_1">
   <g id="patch_2">
    <path d="M 35.3 310.64 
L 334.8 310.64 
L 334.8 10.8 
L 35.3 10.8 
z
" style="fill:#ffffff;"/>
   </g>
   <g id="patch_3">
    <path clip-path="url(#pc75b1d6998)" d="M 35.3 153.224 
L 35.3 168.216 
L 50.275 160.72 
z
"/>
   </g>
   <g id="patch_4">
    <path clip-path="url(#pc75b1d6998)" d="M 56.692857 153.224 
L 56.692857 168.216 
L 71.667857 160.72 
z
"/>
   </g>
   <g id="patch_5">
    <path clip-path="url(#pc75b1d6998)" d="M 78.085714 153.224 
L 78.085714 168.216 
L 93.060714 160.72 
z
"/>
   </g>
   <g id="patch_6">
    <path clip-path="url(#pc75b1d6998)" d="M 99.478571 153.224 
L 99.478571 168.216 
L 114.453571 160.72 
z
"/>
   </g>
   <g id="patch_7">
    <path clip-path="url(#pc75b1d6998)" d="M 120.871429 153.224 
L 120.871429 168.216 
L 105.896429 160.72 
z
"/>
   </g>
   <g id="patch_8">
    <path clip-path="url(#pc75b1d6998)" d="M 142.264286 153.224 
L 142.264286 168.216 
L 127.289286 160.72 
z
"/>
   </g>
   <g id="patch_9">
    <path clip-path="url(#pc75b1d6998)" d="M 163.657143 153.224 
L 163.657143 168.216 
L 178.632143 160.72 
z
"/>
   </g>
   <g id="patch_10">
    <path clip-path="url(#pc75b1d6998)" d="M 185.05 153.224 
L 185.05 168.216 
L 200.025 160.72 
z
"/>
   </g>
   <g id="patch_11">
    <path clip-path="url(#pc75b1d6998)" d="M 206.442857 153.224 
L 206.442857 168.216 
L 221.417857 160.72 
z
"/>
   </g>
   <g id="patch_12">
    <path clip-path="url(#pc75b1d6998)" d="M 227.835714 153.224 
L 227.835714 168.216 
L 242.810714 160.72 
z
"/>
   </g>
   <g id="patch_13">
    <path clip-path="url(#pc75b1d6998)" d="M 249.228571 153.224 
L 249.228571 168.216 
L 264.203571 160.72 
z
"/>
   </g>
   <g id="patch_14">
    <path clip-path="url(#pc75b1d6998)" d="M 270.621429 153.224 
L 270.621429 168.216 
L 285.596429 160.72 
z
"/>
   </g>
   <g id="patch_15">
    <path clip-path="url(#pc75b1d6998)" d="M 292.014286 153.224 
L 292.014286 168.216 
L 306.989286 160.72 
z
"/>
   </g>
   <g id="patch_16">
    <path clip-path="url(#pc75b1d6998)" d="M 313.407143 153.224 
L 313.407143 168.216 
L 328.382143 160.72 
z
"/>
   </g>
   <g id="patch_17">
    <path clip-path="url(#pc75b1d6998)" d="M 334.8 153.224 
L 334.8 168.216 
L 349.775 160.72 
z
"/>
   </g>
   <g id="matplotlib.axis_1">
    <g id="text_1">
     <!-- $x$ -->
     <g transform="translate(179.05 329.836875)scale(0.2 -0.2)">
      <defs>
       <path d="M 3841 3500 
L 2234 1784 
L 3219 0 
L 2559 0 
L 1819 1388 
L 531 0 
L -166 0 
L 1556 1844 
L 641 3500 
L 1300 3500 
L 1972 2234 
L 3144 3500 
L 3841 3500 
z
" id="DejaVuSans-Oblique-78" transform="scale(0.015625)"/>
      </defs>
      <use transform="translate(0 0.3125)" xlink:href="#DejaVuSans-Oblique-78"/>
     </g>
    </g>
   </g>
   <g id="matplotlib.axis_2">
    <g id="text_2">
     <!-- $\dot{x}$ -->
     <g transform="translate(27.140625 166.72)rotate(-90)scale(0.2 -0.2)">
      <defs>
       <path d="M -1894 4863 
L -1319 4863 
L -1319 4134 
L -1894 4134 
L -1894 4863 
z
M -1600 3584 
L -1600 3584 
z
" id="DejaVuSans-307" transform="scale(0.015625)"/>
      </defs>
      <use transform="translate(62.388672 12.015625)" xlink:href="#DejaVuSans-307"/>
      <use transform="translate(0 0.828125)" xlink:href="#DejaVuSans-Oblique-78"/>
     </g>
    </g>
   </g>
   <g id="line2d_1">
    <path clip-path="url(#pc75b1d6998)" d="M 185.05 310.64 
L 185.05 10.8 
" style="fill:none;stroke:#000000;stroke-linecap:square;stroke-width:3;"/>
   </g>
   <g id="line2d_2">
    <path clip-path="url(#pc75b1d6998)" d="M 35.3 160.72 
L 334.8 160.72 
" style="fill:none;stroke:#000000;stroke-linecap:square;stroke-width:3;"/>
   </g>
   <g id="line2d_3">
    <path clip-path="url(#pc75b1d6998)" d="M 35.3 132.401778 
L 38.325253 132.519882 
L 41.350505 132.651007 
L 44.375758 132.79714 
L 47.40101 132.96066 
L 50.426263 133.144441 
L 53.451515 133.351973 
L 56.476768 133.587532 
L 59.50202 133.856402 
L 62.527273 134.165172 
L 65.552525 134.522147 
L 68.577778 134.93791 
L 71.60303 135.426114 
L 74.628283 136.004622 
L 77.653535 136.697158 
L 80.678788 137.535787 
L 83.70404 138.564685 
L 86.729293 139.846087 
L 89.754545 141.469917 
L 92.779798 143.570011 
L 95.805051 146.3526 
L 98.830303 150.148946 
L 101.855556 155.518694 
L 104.880808 163.468589 
L 107.906061 175.961175 
L 110.931313 197.253244 
L 113.956566 238.067331 
L 116.981818 332.295111 
L 117.122841 346.6 
M 133.419104 346.6 
L 135.133333 265.664 
L 138.158586 210.204141 
L 141.183838 183.045218 
L 144.209091 167.757061 
L 147.234343 158.309014 
L 150.259596 152.065161 
L 153.284848 147.724853 
L 156.310101 144.586183 
L 159.335354 142.24329 
L 162.360606 140.448247 
L 165.385859 139.042665 
L 168.411111 137.921515 
L 171.436364 137.012927 
L 174.461616 136.266377 
L 177.486869 135.645506 
L 180.512121 135.123608 
L 183.537374 134.680712 
L 186.562626 134.301643 
L 189.587879 133.9747 
L 192.613131 133.690747 
L 195.638384 133.442563 
L 198.663636 133.224384 
L 201.688889 133.031561 
L 204.714141 132.860313 
L 207.739394 132.707536 
L 210.764646 132.570666 
L 213.789899 132.44757 
L 216.815152 132.33646 
L 219.840404 132.235827 
L 222.865657 132.144396 
L 225.890909 132.061078 
L 228.916162 131.98494 
L 231.941414 131.915181 
L 234.966667 131.851107 
L 237.991919 131.792118 
L 241.017172 131.737688 
L 244.042424 131.68736 
L 247.067677 131.640732 
L 250.092929 131.59745 
L 253.118182 131.557201 
L 256.143434 131.519708 
L 259.168687 131.484725 
L 262.193939 131.452034 
L 265.219192 131.421438 
L 268.244444 131.392761 
L 271.269697 131.365848 
L 274.294949 131.340555 
L 277.320202 131.316756 
L 280.345455 131.294335 
L 283.370707 131.273188 
L 286.39596 131.25322 
L 289.421212 131.234345 
L 292.446465 131.216485 
L 295.471717 131.199568 
L 298.49697 131.183529 
L 301.522222 131.168308 
L 304.547475 131.15385 
L 307.572727 131.140106 
L 310.59798 131.127029 
L 313.623232 131.114577 
L 316.648485 131.10271 
L 319.673737 131.091392 
L 322.69899 131.080591 
L 325.724242 131.070274 
L 328.749495 131.060414 
L 331.774747 131.050984 
L 334.8 131.041959 
" style="fill:none;stroke:#000000;stroke-linecap:square;stroke-width:5;"/>
   </g>
   <g id="line2d_4">
    <defs>
     <path d="M 0 7 
C 1.856422 7 3.637059 6.262436 4.949747 4.949747 
C 6.262436 3.637059 7 1.856422 7 0 
C 7 -1.856422 6.262436 -3.637059 4.949747 -4.949747 
C 3.637059 -6.262436 1.856422 -7 0 -7 
C -1.856422 -7 -3.637059 -6.262436 -4.949747 -4.949747 
C -6.262436 -3.637059 -7 -1.856422 -7 0 
C -7 1.856422 -6.262436 3.637059 -4.949747 4.949747 
C -3.637059 6.262436 -1.856422 7 0 7 
z
" id="m2bd825b367" style="stroke:#000000;stroke-width:5;"/>
    </defs>
    <g clip-path="url(#pc75b1d6998)">
     <use style="stroke:#000000;stroke-width:5;" x="103.972152" xlink:href="#m2bd825b367" y="160.72"/>
    </g>
   </g>
   <g id="line2d_5">
    <defs>
     <path d="M 0 7 
C 1.856422 7 3.637059 6.262436 4.949747 4.949747 
C 6.262436 3.637059 7 1.856422 7 0 
C 7 -1.856422 6.262436 -3.637059 4.949747 -4.949747 
C 3.637059 -6.262436 1.856422 -7 0 -7 
C -1.856422 -7 -3.637059 -6.262436 -4.949747 -4.949747 
C -6.262436 -3.637059 -7 -1.856422 -7 0 
C -7 1.856422 -6.262436 3.637059 -4.949747 4.949747 
C -3.637059 6.262436 -1.856422 7 0 7 
z
" id="m92179f4a2f" style="stroke:#000000;stroke-width:5;"/>
    </defs>
    <g clip-path="url(#pc75b1d6998)">
     <use style="fill:#ffffff;stroke:#000000;stroke-width:5;" x="146.327848" xlink:href="#m92179f4a2f" y="160.72"/>
    </g>
   </g>
  </g>
 </g>
 <defs>
  <clipPath id="pc75b1d6998">
   <rect height="299.84" width="299.5" x="35.3" y="10.8"/>
  </clipPath>
 </defs>
</svg>
