<?xml version="1.0" encoding="utf-8" standalone="no"?>
<!DOCTYPE svg PUBLIC "-//W3C//DTD SVG 1.1//EN"
  "http://www.w3.org/Graphics/SVG/1.1/DTD/svg11.dtd">
<svg height="345.6pt" version="1.1" viewBox="0 0 460.8 345.6" width="460.8pt" xmlns="http://www.w3.org/2000/svg" xmlns:xlink="http://www.w3.org/1999/xlink">
 <metadata>
  <rdf:RDF xmlns:cc="http://creativecommons.org/ns#" xmlns:dc="http://purl.org/dc/elements/1.1/" xmlns:rdf="http://www.w3.org/1999/02/22-rdf-syntax-ns#">
   <cc:Work>
    <dc:type rdf:resource="http://purl.org/dc/dcmitype/StillImage"/>
    <dc:date>2022-08-08T16:14:35.511719</dc:date>
    <dc:format>image/svg+xml</dc:format>
    <dc:creator>
     <cc:Agent>
      <dc:title>Matplotlib v3.4.2, https://matplotlib.org/</dc:title>
     </cc:Agent>
    </dc:creator>
   </cc:Work>
  </rdf:RDF>
 </metadata>
 <defs>
  <style type="text/css">*{stroke-linecap:butt;stroke-linejoin:round;}</style>
 </defs>
 <g id="figure_1">
  <g id="patch_1">
   <path d="M 0 345.6 
L 460.8 345.6 
L 460.8 0 
L 0 0 
z
" style="fill:#ffffff;"/>
  </g>
  <g id="axes_1">
   <g id="patch_2">
    <path d="M 35.3 310.64 
L 450 310.64 
L 450 10.8 
L 35.3 10.8 
z
" style="fill:#ffffff;"/>
   </g>
   <g id="matplotlib.axis_1">
    <g id="text_1">
     <!-- $x$ -->
     <g transform="translate(236.65 329.836875)scale(0.2 -0.2)">
      <defs>
       <path d="M 3841 3500 
L 2234 1784 
L 3219 0 
L 2559 0 
L 1819 1388 
L 531 0 
L -166 0 
L 1556 1844 
L 641 3500 
L 1300 3500 
L 1972 2234 
L 3144 3500 
L 3841 3500 
z
" id="DejaVuSans-Oblique-78" transform="scale(0.015625)"/>
      </defs>
      <use transform="translate(0 0.3125)" xlink:href="#DejaVuSans-Oblique-78"/>
     </g>
    </g>
   </g>
   <g id="matplotlib.axis_2">
    <g id="text_2">
     <!-- $\dot{x}$ -->
     <g transform="translate(27.140625 166.72)rotate(-90)scale(0.2 -0.2)">
      <defs>
       <path d="M -1894 4863 
L -1319 4863 
L -1319 4134 
L -1894 4134 
L -1894 4863 
z
M -1600 3584 
L -1600 3584 
z
" id="DejaVuSans-307" transform="scale(0.015625)"/>
      </defs>
      <use transform="translate(62.388672 12.015625)" xlink:href="#DejaVuSans-307"/>
      <use transform="translate(0 0.828125)" xlink:href="#DejaVuSans-Oblique-78"/>
     </g>
    </g>
   </g>
   <g id="line2d_1">
    <path clip-path="url(#pc4316c6205)" d="M 54.15 54.610777 
L 54.15 54.610777 
L 54.15 54.610777 
L 54.15 54.610777 
L 54.15 54.610777 
L 54.15 54.610777 
L 54.15 54.610777 
L 54.15 54.610777 
L 54.15 54.610777 
L 54.15 54.610777 
L 54.15 54.610777 
L 54.15 54.610777 
L 54.15 54.610777 
L 54.15 54.610777 
L 54.15 54.610777 
L 54.15 54.610777 
L 54.15 54.610777 
L 54.15 54.610777 
L 54.15 54.610777 
L 54.15 54.610777 
L 54.15 54.610777 
L 54.15 54.610777 
L 54.15 54.610777 
L 54.15 54.610777 
L 54.15 54.610777 
L 54.15 54.610777 
L 54.15 54.610777 
L 54.15 54.610777 
L 54.15 54.610777 
L 54.15 54.610777 
L 54.15 54.610777 
L 54.15 54.610777 
L 54.15 54.610777 
L 54.15 54.610777 
L 54.15 54.610777 
L 54.15 54.610777 
L 54.15 54.610777 
L 54.15 54.610777 
L 54.15 54.610777 
L 54.15 54.610777 
L 54.15 54.610777 
L 54.15 54.610777 
L 54.15 54.610777 
L 54.15 54.610777 
L 54.15 54.610777 
L 54.15 54.610777 
L 54.15 54.610777 
L 54.15 54.610777 
L 54.15 54.610777 
L 54.15 54.610777 
L 54.15 54.610777 
L 54.15 54.610777 
L 54.15 54.610777 
L 54.15 54.610777 
L 54.15 54.610777 
L 54.15 54.610777 
L 54.15 54.610777 
L 54.15 54.610777 
L 54.15 54.610777 
L 54.15 54.610777 
L 54.15 54.610777 
L 54.15 54.610777 
L 54.15 54.610777 
L 54.15 54.610777 
L 54.15 54.610777 
L 54.15 54.610777 
L 54.15 54.610777 
L 54.15 54.610777 
L 54.15 54.610777 
L 54.15 54.610777 
L 54.15 54.610777 
L 54.15 54.610777 
L 54.15 54.610777 
L 54.15 54.610777 
L 54.15 54.610777 
L 54.15 54.610777 
L 54.15 54.610777 
L 54.15 54.610777 
L 54.15 54.610777 
L 54.15 54.610777 
L 54.15 54.610777 
L 54.15 54.610777 
L 54.15 54.610777 
L 54.15 54.610777 
L 54.15 54.610777 
L 54.15 54.610777 
L 54.15 54.610777 
L 54.15 54.610777 
L 54.15 54.610777 
L 54.15 54.610777 
L 54.15 54.610777 
L 54.15 54.610777 
L 54.15 54.610777 
L 54.15 54.610777 
L 54.15 54.610777 
L 54.15 54.610777 
L 54.15 54.610777 
L 54.15 54.610777 
L 54.15 54.610777 
" style="fill:none;stroke:#000000;stroke-linecap:square;stroke-width:5;"/>
   </g>
   <g id="line2d_2">
    <path clip-path="url(#pc4316c6205)" d="M 96.113433 33.662617 
L 96.146064 33.650983 
L 96.178713 33.63935 
L 96.21138 33.627717 
L 96.244065 33.616085 
L 96.276769 33.604454 
L 96.30949 33.592824 
L 96.34223 33.581195 
L 96.374987 33.569566 
L 96.407763 33.557938 
L 96.440557 33.546312 
L 96.473369 33.534686 
L 96.506199 33.523061 
L 96.539048 33.511437 
L 96.571914 33.499814 
L 96.604798 33.488192 
L 96.637701 33.476571 
L 96.670621 33.464951 
L 96.70356 33.453331 
L 96.736517 33.441713 
L 96.769492 33.430096 
L 96.802485 33.41848 
L 96.835496 33.406865 
L 96.868525 33.395251 
L 96.901572 33.383638 
L 96.934637 33.372026 
L 96.967721 33.360415 
L 97.000822 33.348805 
L 97.033941 33.337197 
L 97.067079 33.325589 
L 97.100235 33.313983 
L 97.133408 33.302378 
L 97.1666 33.290774 
L 97.19981 33.279171 
L 97.233038 33.267569 
L 97.266284 33.255969 
L 97.299548 33.24437 
L 97.33283 33.232772 
L 97.36613 33.221175 
L 97.399448 33.209579 
L 97.432784 33.197985 
L 97.466139 33.186392 
L 97.499511 33.174801 
L 97.532901 33.16321 
L 97.56631 33.151621 
L 97.599736 33.140034 
L 97.633181 33.128447 
L 97.666643 33.116862 
L 97.700124 33.105279 
L 97.733622 33.093697 
L 97.767139 33.082116 
L 97.800673 33.070536 
L 97.834226 33.058958 
L 97.867797 33.047382 
L 97.901385 33.035807 
L 97.934992 33.024233 
L 97.968617 33.012661 
L 98.00226 33.001091 
L 98.03592 32.989521 
L 98.069599 32.977954 
L 98.103296 32.966388 
L 98.137011 32.954823 
L 98.170743 32.94326 
L 98.204494 32.931699 
L 98.238263 32.920139 
L 98.27205 32.908581 
L 98.305855 32.897024 
L 98.339677 32.885469 
L 98.373518 32.873916 
L 98.407377 32.862364 
L 98.441254 32.850814 
L 98.475148 32.839266 
L 98.509061 32.827719 
L 98.542991 32.816174 
L 98.57694 32.804631 
L 98.610907 32.793089 
L 98.644891 32.78155 
L 98.678894 32.770012 
L 98.712914 32.758475 
L 98.746953 32.746941 
L 98.781009 32.735408 
L 98.815083 32.723877 
L 98.849176 32.712348 
L 98.883286 32.700821 
L 98.917414 32.689296 
L 98.95156 32.677772 
L 98.985724 32.666251 
L 99.019906 32.654731 
L 99.054106 32.643213 
L 99.088324 32.631697 
L 99.12256 32.620184 
L 99.156813 32.608672 
L 99.191085 32.597161 
L 99.225374 32.585653 
L 99.259682 32.574147 
L 99.294007 32.562643 
L 99.32835 32.551141 
L 99.362712 32.539641 
L 99.397091 32.528143 
" style="fill:none;stroke:#000000;stroke-linecap:square;stroke-width:5;"/>
   </g>
   <g id="line2d_3">
    <path clip-path="url(#pc4316c6205)" d="M 138.058229 24.684835 
L 138.104824 24.681517 
L 138.151424 24.678214 
L 138.19803 24.674925 
L 138.24464 24.67165 
L 138.291255 24.66839 
L 138.337876 24.665145 
L 138.384501 24.661914 
L 138.431132 24.658697 
L 138.477767 24.655495 
L 138.524408 24.652307 
L 138.571053 24.649134 
L 138.617703 24.645975 
L 138.664358 24.64283 
L 138.711019 24.639701 
L 138.757683 24.636585 
L 138.804353 24.633484 
L 138.851028 24.630398 
L 138.897707 24.627326 
L 138.944391 24.624269 
L 138.99108 24.621226 
L 139.037774 24.618198 
L 139.084472 24.615184 
L 139.131175 24.612185 
L 139.177882 24.6092 
L 139.224594 24.60623 
L 139.271311 24.603275 
L 139.318033 24.600334 
L 139.364758 24.597407 
L 139.411489 24.594496 
L 139.458224 24.591598 
L 139.504963 24.588716 
L 139.551707 24.585848 
L 139.598456 24.582994 
L 139.645208 24.580156 
L 139.691965 24.577331 
L 139.738727 24.574522 
L 139.785493 24.571727 
L 139.832263 24.568947 
L 139.879038 24.566181 
L 139.925816 24.56343 
L 139.9726 24.560693 
L 140.019387 24.557972 
L 140.066178 24.555265 
L 140.112974 24.552572 
L 140.159774 24.549894 
L 140.206578 24.547231 
L 140.253386 24.544583 
L 140.300198 24.541949 
L 140.347015 24.53933 
L 140.393835 24.536726 
L 140.440659 24.534136 
L 140.487488 24.531561 
L 140.53432 24.529001 
L 140.581157 24.526455 
L 140.627997 24.523924 
L 140.674841 24.521408 
L 140.721689 24.518907 
L 140.768541 24.51642 
L 140.815397 24.513949 
L 140.862257 24.511491 
L 140.90912 24.509049 
L 140.955988 24.506621 
L 141.002859 24.504209 
L 141.049733 24.50181 
L 141.096612 24.499427 
L 141.143494 24.497058 
L 141.19038 24.494705 
L 141.237269 24.492366 
L 141.284162 24.490041 
L 141.331059 24.487732 
L 141.377959 24.485437 
L 141.424863 24.483158 
L 141.47177 24.480892 
L 141.518681 24.478642 
L 141.565595 24.476407 
L 141.612513 24.474186 
L 141.659434 24.47198 
L 141.706359 24.46979 
L 141.753287 24.467613 
L 141.800218 24.465452 
L 141.847153 24.463306 
L 141.894091 24.461174 
L 141.941032 24.459057 
L 141.987977 24.456956 
L 142.034924 24.454868 
L 142.081875 24.452796 
L 142.12883 24.450739 
L 142.175787 24.448697 
L 142.222748 24.446669 
L 142.269711 24.444656 
L 142.316678 24.442659 
L 142.363648 24.440676 
L 142.410621 24.438708 
L 142.457597 24.436754 
L 142.504576 24.434816 
L 142.551558 24.432893 
L 142.598543 24.430984 
L 142.645531 24.429091 
" style="fill:none;stroke:#000000;stroke-linecap:square;stroke-width:5;"/>
   </g>
   <g id="line2d_4">
    <path clip-path="url(#pc4316c6205)" d="M 179.98439 27.677429 
L 180.026307 27.686413 
L 180.06821 27.695405 
L 180.110098 27.704407 
L 180.151973 27.713418 
L 180.193834 27.722437 
L 180.235681 27.731466 
L 180.277513 27.740503 
L 180.319332 27.749549 
L 180.361136 27.758604 
L 180.402927 27.767668 
L 180.444703 27.776741 
L 180.486465 27.785823 
L 180.528213 27.794913 
L 180.569947 27.804012 
L 180.611666 27.81312 
L 180.653371 27.822237 
L 180.695063 27.831362 
L 180.73674 27.840497 
L 180.778402 27.849639 
L 180.820051 27.858791 
L 180.861685 27.867951 
L 180.903305 27.87712 
L 180.944911 27.886298 
L 180.986502 27.895484 
L 181.028079 27.904679 
L 181.069642 27.913882 
L 181.11119 27.923094 
L 181.152724 27.932315 
L 181.194244 27.941544 
L 181.235749 27.950782 
L 181.27724 27.960028 
L 181.318716 27.969283 
L 181.360178 27.978546 
L 181.401626 27.987818 
L 181.443059 27.997098 
L 181.484478 28.006387 
L 181.525882 28.015684 
L 181.567272 28.02499 
L 181.608647 28.034304 
L 181.650008 28.043626 
L 181.691354 28.052957 
L 181.732685 28.062296 
L 181.774002 28.071643 
L 181.815305 28.080999 
L 181.856593 28.090363 
L 181.897866 28.099736 
L 181.939125 28.109116 
L 181.980369 28.118505 
L 182.021599 28.127902 
L 182.062814 28.137308 
L 182.104014 28.146722 
L 182.145199 28.156143 
L 182.18637 28.165574 
L 182.227526 28.175012 
L 182.268668 28.184458 
L 182.309795 28.193913 
L 182.350907 28.203376 
L 182.392004 28.212846 
L 182.433086 28.222325 
L 182.474154 28.231812 
L 182.515207 28.241308 
L 182.556245 28.250811 
L 182.597268 28.260322 
L 182.638277 28.269841 
L 182.679271 28.279368 
L 182.72025 28.288904 
L 182.761214 28.298447 
L 182.802163 28.307998 
L 182.843097 28.317557 
L 182.884016 28.327124 
L 182.924921 28.336699 
L 182.96581 28.346282 
L 183.006685 28.355873 
L 183.047545 28.365472 
L 183.088389 28.375078 
L 183.129219 28.384693 
L 183.170034 28.394315 
L 183.210833 28.403945 
L 183.251618 28.413583 
L 183.292388 28.423228 
L 183.333143 28.432882 
L 183.373882 28.442543 
L 183.414607 28.452212 
L 183.455316 28.461888 
L 183.496011 28.471573 
L 183.53669 28.481265 
L 183.577355 28.490964 
L 183.618004 28.500672 
L 183.658638 28.510387 
L 183.699257 28.520109 
L 183.73986 28.529839 
L 183.780449 28.539577 
L 183.821022 28.549323 
L 183.861581 28.559076 
L 183.902124 28.568836 
L 183.942652 28.578604 
L 183.983164 28.58838 
L 184.023662 28.598163 
" style="fill:none;stroke:#000000;stroke-linecap:square;stroke-width:5;"/>
   </g>
   <g id="line2d_5">
    <path clip-path="url(#pc4316c6205)" d="M 221.891915 42.6404 
L 221.910536 42.649711 
L 221.929143 42.659018 
L 221.947736 42.66832 
L 221.966314 42.677617 
L 221.984877 42.686909 
L 222.003426 42.696196 
L 222.021961 42.705478 
L 222.040481 42.714755 
L 222.058987 42.724027 
L 222.077478 42.733295 
L 222.095955 42.742557 
L 222.114417 42.751815 
L 222.132865 42.761068 
L 222.151299 42.770316 
L 222.169718 42.779559 
L 222.188123 42.788797 
L 222.206514 42.79803 
L 222.22489 42.807258 
L 222.243252 42.816482 
L 222.261599 42.8257 
L 222.279932 42.834914 
L 222.298251 42.844122 
L 222.316555 42.853326 
L 222.334845 42.862525 
L 222.353121 42.871719 
L 222.371383 42.880908 
L 222.38963 42.890092 
L 222.407863 42.899271 
L 222.426081 42.908445 
L 222.444286 42.917614 
L 222.462476 42.926778 
L 222.480652 42.935938 
L 222.498813 42.945092 
L 222.516961 42.954242 
L 222.535094 42.963386 
L 222.553212 42.972526 
L 222.571317 42.981661 
L 222.589408 42.990791 
L 222.607484 42.999916 
L 222.625546 43.009035 
L 222.643594 43.01815 
L 222.661627 43.02726 
L 222.679647 43.036366 
L 222.697652 43.045466 
L 222.715643 43.054561 
L 222.73362 43.063651 
L 222.751583 43.072736 
L 222.769532 43.081817 
L 222.787466 43.090892 
L 222.805387 43.099963 
L 222.823293 43.109028 
L 222.841185 43.118089 
L 222.859063 43.127144 
L 222.876927 43.136195 
L 222.894777 43.14524 
L 222.912613 43.154281 
L 222.930435 43.163317 
L 222.948243 43.172348 
L 222.966037 43.181373 
L 222.983816 43.190394 
L 223.001582 43.19941 
L 223.019334 43.208421 
L 223.037071 43.217427 
L 223.054795 43.226428 
L 223.072504 43.235424 
L 223.0902 43.244415 
L 223.107881 43.253401 
L 223.125549 43.262382 
L 223.143203 43.271358 
L 223.160842 43.280329 
L 223.178468 43.289296 
L 223.19608 43.298257 
L 223.213677 43.307213 
L 223.231261 43.316164 
L 223.248831 43.32511 
L 223.266387 43.334052 
L 223.283929 43.342988 
L 223.301458 43.351919 
L 223.318972 43.360845 
L 223.336472 43.369767 
L 223.353959 43.378683 
L 223.371432 43.387594 
L 223.38889 43.396501 
L 223.406335 43.405402 
L 223.423766 43.414298 
L 223.441184 43.42319 
L 223.458587 43.432076 
L 223.475977 43.440957 
L 223.493352 43.449834 
L 223.510714 43.458705 
L 223.528062 43.467571 
L 223.545397 43.476433 
L 223.562717 43.485289 
L 223.580024 43.49414 
L 223.597317 43.502987 
L 223.614596 43.511828 
L 223.631862 43.520665 
L 223.649114 43.529496 
" style="fill:none;stroke:#000000;stroke-linecap:square;stroke-width:5;"/>
   </g>
   <g id="line2d_6">
    <path clip-path="url(#pc4316c6205)" d="M 263.780804 69.573748 
L 263.757537 69.555462 
L 263.734299 69.537202 
L 263.71109 69.518967 
L 263.687908 69.500759 
L 263.664755 69.482577 
L 263.641631 69.46442 
L 263.618534 69.44629 
L 263.595466 69.428185 
L 263.572426 69.410105 
L 263.549414 69.392052 
L 263.52643 69.374024 
L 263.503474 69.356022 
L 263.480546 69.338045 
L 263.457646 69.320094 
L 263.434774 69.302168 
L 263.41193 69.284267 
L 263.389113 69.266392 
L 263.366325 69.248543 
L 263.343564 69.230718 
L 263.320831 69.212919 
L 263.298125 69.195145 
L 263.275447 69.177396 
L 263.252797 69.159672 
L 263.230174 69.141974 
L 263.207579 69.1243 
L 263.185011 69.106651 
L 263.162471 69.089027 
L 263.139958 69.071428 
L 263.117473 69.053854 
L 263.095015 69.036305 
L 263.072584 69.018781 
L 263.05018 69.001281 
L 263.027804 68.983806 
L 263.005454 68.966355 
L 262.983132 68.948929 
L 262.960837 68.931528 
L 262.938569 68.914151 
L 262.916328 68.896799 
L 262.894114 68.879471 
L 262.871927 68.862167 
L 262.849767 68.844888 
L 262.827633 68.827633 
L 262.805527 68.810403 
L 262.783447 68.793196 
L 262.761394 68.776014 
L 262.739368 68.758856 
L 262.717368 68.741722 
L 262.695395 68.724611 
L 262.673449 68.707525 
L 262.651529 68.690463 
L 262.629636 68.673425 
L 262.607769 68.656411 
L 262.585929 68.639421 
L 262.564115 68.622454 
L 262.542328 68.605511 
L 262.520567 68.588592 
L 262.498832 68.571697 
L 262.477123 68.554825 
L 262.455441 68.537977 
L 262.433784 68.521152 
L 262.412154 68.504351 
L 262.390551 68.487573 
L 262.368973 68.470819 
L 262.347421 68.454088 
L 262.325895 68.437381 
L 262.304395 68.420697 
L 262.282922 68.404036 
L 262.261474 68.387398 
L 262.240052 68.370784 
L 262.218655 68.354193 
L 262.197285 68.337624 
L 262.17594 68.321079 
L 262.154621 68.304557 
L 262.133328 68.288058 
L 262.11206 68.271582 
L 262.090818 68.255129 
L 262.069602 68.238699 
L 262.048411 68.222292 
L 262.027245 68.205907 
L 262.006106 68.189546 
L 261.984991 68.173207 
L 261.963902 68.15689 
L 261.942838 68.140597 
L 261.9218 68.124326 
L 261.900787 68.108077 
L 261.879799 68.091851 
L 261.858836 68.075648 
L 261.837899 68.059467 
L 261.816987 68.043308 
L 261.7961 68.027172 
L 261.775237 68.011058 
L 261.7544 67.994967 
L 261.733589 67.978898 
L 261.712802 67.962851 
L 261.692039 67.946826 
L 261.671302 67.930824 
L 261.65059 67.914843 
L 261.629903 67.898885 
" style="fill:none;stroke:#000000;stroke-linecap:square;stroke-width:5;"/>
   </g>
   <g id="line2d_7">
    <path clip-path="url(#pc4316c6205)" d="M 305.651057 108.477473 
L 305.567335 108.387719 
L 305.483752 108.298162 
L 305.400309 108.208803 
L 305.317004 108.119639 
L 305.233838 108.030671 
L 305.15081 107.941898 
L 305.06792 107.85332 
L 304.985168 107.764935 
L 304.902553 107.676744 
L 304.820075 107.588745 
L 304.737734 107.500939 
L 304.655529 107.413325 
L 304.57346 107.325902 
L 304.491527 107.238669 
L 304.409729 107.151627 
L 304.328067 107.064774 
L 304.24654 106.97811 
L 304.165147 106.891635 
L 304.083889 106.805348 
L 304.002764 106.719248 
L 303.921774 106.633334 
L 303.840916 106.547608 
L 303.760192 106.462067 
L 303.679601 106.376711 
L 303.599143 106.29154 
L 303.518817 106.206553 
L 303.438623 106.12175 
L 303.35856 106.037131 
L 303.278629 105.952693 
L 303.198829 105.868439 
L 303.11916 105.784365 
L 303.039622 105.700473 
L 302.960214 105.616762 
L 302.880936 105.53323 
L 302.801788 105.449879 
L 302.722769 105.366706 
L 302.64388 105.283712 
L 302.565119 105.200896 
L 302.486487 105.118258 
L 302.407984 105.035797 
L 302.329609 104.953512 
L 302.251361 104.871404 
L 302.173241 104.789471 
L 302.095248 104.707714 
L 302.017382 104.626131 
L 301.939643 104.544722 
L 301.862031 104.463487 
L 301.784545 104.382425 
L 301.707184 104.301536 
L 301.62995 104.220819 
L 301.55284 104.140274 
L 301.475856 104.0599 
L 301.398997 103.979697 
L 301.322262 103.899664 
L 301.245651 103.819801 
L 301.169165 103.740108 
L 301.092803 103.660583 
L 301.016564 103.581227 
L 300.940448 103.502039 
L 300.864455 103.423019 
L 300.788585 103.344165 
L 300.712838 103.265478 
L 300.637213 103.186957 
L 300.56171 103.108602 
L 300.486328 103.030413 
L 300.411068 102.952388 
L 300.335929 102.874527 
L 300.260912 102.79683 
L 300.186014 102.719297 
L 300.111238 102.641926 
L 300.036581 102.564718 
L 299.962045 102.487672 
L 299.887628 102.410788 
L 299.813331 102.334065 
L 299.739153 102.257503 
L 299.665093 102.181101 
L 299.591153 102.104859 
L 299.517331 102.028777 
L 299.443627 101.952853 
L 299.370041 101.877088 
L 299.296573 101.801481 
L 299.223222 101.726032 
L 299.149988 101.65074 
L 299.076872 101.575605 
L 299.003872 101.500627 
L 298.930989 101.425804 
L 298.858222 101.351137 
L 298.785571 101.276626 
L 298.713035 101.202269 
L 298.640615 101.128066 
L 298.568311 101.054017 
L 298.496121 100.980122 
L 298.424047 100.90638 
L 298.352087 100.83279 
L 298.280241 100.759353 
L 298.208509 100.686068 
L 298.136891 100.612934 
L 298.065387 100.539951 
" style="fill:none;stroke:#000000;stroke-linecap:square;stroke-width:5;"/>
   </g>
   <g id="line2d_8">
    <path clip-path="url(#pc4316c6205)" d="M 347.502674 159.351575 
L 347.339953 159.130546 
L 347.177576 158.910164 
L 347.015541 158.690426 
L 346.853847 158.47133 
L 346.692494 158.252874 
L 346.531479 158.035054 
L 346.370802 157.817869 
L 346.210463 157.601317 
L 346.05046 157.385393 
L 345.890792 157.170097 
L 345.731458 156.955426 
L 345.572457 156.741377 
L 345.413789 156.527948 
L 345.255452 156.315136 
L 345.097445 156.10294 
L 344.939768 155.891356 
L 344.782419 155.680384 
L 344.625397 155.470019 
L 344.468703 155.26026 
L 344.312333 155.051105 
L 344.156289 154.842551 
L 344.000568 154.634597 
L 343.84517 154.427238 
L 343.690094 154.220475 
L 343.535339 154.014303 
L 343.380904 153.808722 
L 343.226788 153.603728 
L 343.072991 153.39932 
L 342.919511 153.195495 
L 342.766347 152.992251 
L 342.613498 152.789586 
L 342.460965 152.587497 
L 342.308745 152.385983 
L 342.156837 152.185042 
L 342.005242 151.984671 
L 341.853958 151.784868 
L 341.702984 151.585631 
L 341.552319 151.386957 
L 341.401963 151.188846 
L 341.251914 150.991294 
L 341.102172 150.7943 
L 340.952736 150.597861 
L 340.803605 150.401975 
L 340.654778 150.206641 
L 340.506254 150.011856 
L 340.358032 149.817618 
L 340.210112 149.623926 
L 340.062493 149.430777 
L 339.915174 149.238168 
L 339.768153 149.046099 
L 339.621431 148.854568 
L 339.475006 148.663571 
L 339.328878 148.473107 
L 339.183046 148.283175 
L 339.037508 148.093772 
L 338.892264 147.904897 
L 338.747314 147.716546 
L 338.602656 147.52872 
L 338.458289 147.341414 
L 338.314214 147.154629 
L 338.170428 146.968361 
L 338.026931 146.782608 
L 337.883723 146.59737 
L 337.740803 146.412644 
L 337.598169 146.228428 
L 337.455821 146.04472 
L 337.313759 145.861519 
L 337.171981 145.678822 
L 337.030486 145.496629 
L 336.889275 145.314936 
L 336.748345 145.133742 
L 336.607697 144.953045 
L 336.46733 144.772845 
L 336.327242 144.593137 
L 336.187433 144.413922 
L 336.047902 144.235197 
L 335.908649 144.05696 
L 335.769673 143.87921 
L 335.630973 143.701945 
L 335.492547 143.525162 
L 335.354397 143.348862 
L 335.21652 143.17304 
L 335.078916 142.997697 
L 334.941584 142.82283 
L 334.804524 142.648438 
L 334.667734 142.474518 
L 334.531215 142.301069 
L 334.394965 142.12809 
L 334.258983 141.955578 
L 334.123269 141.783533 
L 333.987823 141.611952 
L 333.852643 141.440834 
L 333.717728 141.270177 
L 333.583079 141.099979 
L 333.448693 140.930239 
L 333.314572 140.760955 
L 333.180713 140.592126 
L 333.047116 140.42375 
" style="fill:none;stroke:#000000;stroke-linecap:square;stroke-width:5;"/>
   </g>
   <g id="line2d_9">
    <path clip-path="url(#pc4316c6205)" d="M 389.335655 222.196053 
L 389.075418 221.768012 
L 388.815846 221.341525 
L 388.556935 220.916586 
L 388.298683 220.493186 
L 388.041088 220.07132 
L 387.784147 219.650978 
L 387.527859 219.232154 
L 387.27222 218.814841 
L 387.017228 218.399032 
L 386.762882 217.984718 
L 386.509178 217.571894 
L 386.256115 217.160551 
L 386.003689 216.750684 
L 385.7519 216.342284 
L 385.500744 215.935345 
L 385.250219 215.52986 
L 385.000323 215.125822 
L 384.751055 214.723224 
L 384.50241 214.32206 
L 384.254388 213.922322 
L 384.006986 213.524004 
L 383.760202 213.127099 
L 383.514034 212.731601 
L 383.268479 212.337502 
L 383.023536 211.944797 
L 382.779202 211.553479 
L 382.535475 211.16354 
L 382.292353 210.774976 
L 382.049833 210.387779 
L 381.807915 210.001942 
L 381.566595 209.617461 
L 381.325871 209.234327 
L 381.085742 208.852536 
L 380.846205 208.472081 
L 380.607258 208.092955 
L 380.3689 207.715152 
L 380.131127 207.338667 
L 379.893939 206.963493 
L 379.657333 206.589624 
L 379.421307 206.217054 
L 379.185859 205.845777 
L 378.950986 205.475787 
L 378.716688 205.107079 
L 378.482962 204.739646 
L 378.249806 204.373482 
L 378.017218 204.008582 
L 377.785196 203.64494 
L 377.553739 203.28255 
L 377.322843 202.921406 
L 377.092508 202.561503 
L 376.862731 202.202835 
L 376.633511 201.845396 
L 376.404846 201.489181 
L 376.176733 201.134185 
L 375.94917 200.780401 
L 375.722157 200.427824 
L 375.495691 200.076449 
L 375.26977 199.72627 
L 375.044392 199.377283 
L 374.819556 199.02948 
L 374.595259 198.682858 
L 374.3715 198.337411 
L 374.148277 197.993134 
L 373.925588 197.65002 
L 373.703432 197.308066 
L 373.481806 196.967266 
L 373.260709 196.627614 
L 373.040139 196.289106 
L 372.820095 195.951737 
L 372.600573 195.615501 
L 372.381574 195.280393 
L 372.163094 194.946409 
L 371.945133 194.613543 
L 371.727688 194.28179 
L 371.510757 193.951146 
L 371.29434 193.621605 
L 371.078435 193.293163 
L 370.863038 192.965815 
L 370.64815 192.639556 
L 370.433768 192.31438 
L 370.219891 191.990284 
L 370.006516 191.667263 
L 369.793643 191.345311 
L 369.581269 191.024425 
L 369.369393 190.704599 
L 369.158014 190.385829 
L 368.947129 190.06811 
L 368.736737 189.751438 
L 368.526836 189.435808 
L 368.317426 189.121216 
L 368.108503 188.807656 
L 367.900067 188.495125 
L 367.692116 188.183617 
L 367.484648 187.87313 
L 367.277662 187.563657 
L 367.071157 187.255195 
L 366.86513 186.94774 
L 366.65958 186.641286 
" style="fill:none;stroke:#000000;stroke-linecap:square;stroke-width:5;"/>
   </g>
   <g id="line2d_10">
    <path clip-path="url(#pc4316c6205)" d="M 431.15 297.010909 
L 430.773754 296.284193 
L 430.398634 295.560622 
L 430.024637 294.840176 
L 429.651755 294.122838 
L 429.279986 293.40859 
L 428.909324 292.697415 
L 428.539765 291.989294 
L 428.171303 291.284211 
L 427.803934 290.582147 
L 427.437654 289.883087 
L 427.072457 289.187012 
L 426.708339 288.493906 
L 426.345296 287.803752 
L 425.983322 287.116533 
L 425.622414 286.432232 
L 425.262567 285.750834 
L 424.903776 285.072322 
L 424.546037 284.396679 
L 424.189345 283.723889 
L 423.833696 283.053937 
L 423.479086 282.386806 
L 423.125511 281.722481 
L 422.772965 281.060946 
L 422.421444 280.402185 
L 422.070945 279.746183 
L 421.721463 279.092925 
L 421.372994 278.442395 
L 421.025533 277.794578 
L 420.679077 277.149459 
L 420.333621 276.507023 
L 419.989161 275.867256 
L 419.645692 275.230142 
L 419.303212 274.595667 
L 418.961715 273.963816 
L 418.621198 273.334576 
L 418.281656 272.707931 
L 417.943086 272.083867 
L 417.605484 271.462371 
L 417.268845 270.843428 
L 416.933166 270.227024 
L 416.598442 269.613145 
L 416.26467 269.001778 
L 415.931847 268.39291 
L 415.599967 267.786525 
L 415.269027 267.182612 
L 414.939024 266.581156 
L 414.609953 265.982144 
L 414.281811 265.385564 
L 413.954594 264.791401 
L 413.628299 264.199644 
L 413.302921 263.610278 
L 412.978457 263.023291 
L 412.654903 262.438671 
L 412.332255 261.856405 
L 412.01051 261.276479 
L 411.689665 260.698882 
L 411.369715 260.123602 
L 411.050657 259.550625 
L 410.732488 258.979939 
L 410.415203 258.411533 
L 410.0988 257.845394 
L 409.783275 257.28151 
L 409.468624 256.71987 
L 409.154844 256.160461 
L 408.841932 255.603272 
L 408.529883 255.04829 
L 408.218696 254.495505 
L 407.908365 253.944905 
L 407.598888 253.396478 
L 407.290262 252.850212 
L 406.982482 252.306098 
L 406.675547 251.764122 
L 406.369452 251.224275 
L 406.064194 250.686545 
L 405.75977 250.15092 
L 405.456176 249.617391 
L 405.15341 249.085945 
L 404.851468 248.556573 
L 404.550347 248.029264 
L 404.250044 247.504006 
L 403.950556 246.98079 
L 403.651878 246.459604 
L 403.354009 245.940439 
L 403.056945 245.423283 
L 402.760684 244.908127 
L 402.465221 244.39496 
L 402.170554 243.883772 
L 401.876679 243.374553 
L 401.583595 242.867293 
L 401.291297 242.361981 
L 400.999782 241.858608 
L 400.709049 241.357165 
L 400.419093 240.85764 
L 400.129912 240.360025 
L 399.841502 239.864309 
L 399.553862 239.370483 
L 399.266987 238.878538 
L 398.980875 238.388463 
" style="fill:none;stroke:#000000;stroke-linecap:square;stroke-width:5;"/>
   </g>
   <g id="line2d_11">
    <path clip-path="url(#pc4316c6205)" d="M 242.838689 310.64 
L 242.838689 10.8 
" style="fill:none;stroke:#000000;stroke-linecap:square;stroke-width:3;"/>
   </g>
   <g id="line2d_12">
    <path clip-path="url(#pc4316c6205)" d="M 35.3 54.610777 
L 450 54.610777 
" style="fill:none;stroke:#000000;stroke-linecap:square;stroke-width:3;"/>
   </g>
  </g>
 </g>
 <defs>
  <clipPath id="pc4316c6205">
   <rect height="299.84" width="414.7" x="35.3" y="10.8"/>
  </clipPath>
 </defs>
</svg>
