<?xml version="1.0" encoding="utf-8" standalone="no"?>
<!DOCTYPE svg PUBLIC "-//W3C//DTD SVG 1.1//EN"
  "http://www.w3.org/Graphics/SVG/1.1/DTD/svg11.dtd">
<svg xmlns:xlink="http://www.w3.org/1999/xlink" width="460.8pt" height="345.6pt" viewBox="0 0 460.8 345.6" xmlns="http://www.w3.org/2000/svg" version="1.1">
 <metadata>
  <rdf:RDF xmlns:dc="http://purl.org/dc/elements/1.1/" xmlns:cc="http://creativecommons.org/ns#" xmlns:rdf="http://www.w3.org/1999/02/22-rdf-syntax-ns#">
   <cc:Work>
    <dc:type rdf:resource="http://purl.org/dc/dcmitype/StillImage"/>
    <dc:date>2022-06-29T13:25:19.426780</dc:date>
    <dc:format>image/svg+xml</dc:format>
    <dc:creator>
     <cc:Agent>
      <dc:title>Matplotlib v3.5.1, https://matplotlib.org/</dc:title>
     </cc:Agent>
    </dc:creator>
   </cc:Work>
  </rdf:RDF>
 </metadata>
 <defs>
  <style type="text/css">*{stroke-linejoin: round; stroke-linecap: butt}</style>
 </defs>
 <g id="figure_1">
  <g id="patch_1">
   <path d="M 0 345.6 
L 460.8 345.6 
L 460.8 0 
L 0 0 
z
" style="fill: #ffffff"/>
  </g>
  <g id="axes_1">
   <g id="patch_2">
    <path d="M 34.96 283.48 
L 402.12 283.48 
L 402.12 10.8 
L 34.96 10.8 
z
" style="fill: #ffffff"/>
   </g>
   <g id="matplotlib.axis_1">
    <g id="xtick_1">
     <g id="line2d_1">
      <defs>
       <path id="m8a41699b77" d="M 0 0 
L 0 3.5 
" style="stroke: #000000; stroke-width: 0.8"/>
      </defs>
      <g>
       <use xlink:href="#m8a41699b77" x="34.96" y="283.48" style="stroke: #000000; stroke-width: 0.8"/>
      </g>
     </g>
     <g id="text_1">
      <!-- 0.0 -->
      <g transform="translate(19.056875 305.676875)scale(0.2 -0.2)">
       <defs>
        <path id="DejaVuSans-30" d="M 2034 4250 
Q 1547 4250 1301 3770 
Q 1056 3291 1056 2328 
Q 1056 1369 1301 889 
Q 1547 409 2034 409 
Q 2525 409 2770 889 
Q 3016 1369 3016 2328 
Q 3016 3291 2770 3770 
Q 2525 4250 2034 4250 
z
M 2034 4750 
Q 2819 4750 3233 4129 
Q 3647 3509 3647 2328 
Q 3647 1150 3233 529 
Q 2819 -91 2034 -91 
Q 1250 -91 836 529 
Q 422 1150 422 2328 
Q 422 3509 836 4129 
Q 1250 4750 2034 4750 
z
" transform="scale(0.015625)"/>
        <path id="DejaVuSans-2e" d="M 684 794 
L 1344 794 
L 1344 0 
L 684 0 
L 684 794 
z
" transform="scale(0.015625)"/>
       </defs>
       <use xlink:href="#DejaVuSans-30"/>
       <use xlink:href="#DejaVuSans-2e" x="63.623047"/>
       <use xlink:href="#DejaVuSans-30" x="95.410156"/>
      </g>
     </g>
    </g>
    <g id="xtick_2">
     <g id="line2d_2">
      <g>
       <use xlink:href="#m8a41699b77" x="157.346667" y="283.48" style="stroke: #000000; stroke-width: 0.8"/>
      </g>
     </g>
     <g id="text_2">
      <!-- 33333.0 -->
      <g transform="translate(115.993542 305.676875)scale(0.2 -0.2)">
       <defs>
        <path id="DejaVuSans-33" d="M 2597 2516 
Q 3050 2419 3304 2112 
Q 3559 1806 3559 1356 
Q 3559 666 3084 287 
Q 2609 -91 1734 -91 
Q 1441 -91 1130 -33 
Q 819 25 488 141 
L 488 750 
Q 750 597 1062 519 
Q 1375 441 1716 441 
Q 2309 441 2620 675 
Q 2931 909 2931 1356 
Q 2931 1769 2642 2001 
Q 2353 2234 1838 2234 
L 1294 2234 
L 1294 2753 
L 1863 2753 
Q 2328 2753 2575 2939 
Q 2822 3125 2822 3475 
Q 2822 3834 2567 4026 
Q 2313 4219 1838 4219 
Q 1578 4219 1281 4162 
Q 984 4106 628 3988 
L 628 4550 
Q 988 4650 1302 4700 
Q 1616 4750 1894 4750 
Q 2613 4750 3031 4423 
Q 3450 4097 3450 3541 
Q 3450 3153 3228 2886 
Q 3006 2619 2597 2516 
z
" transform="scale(0.015625)"/>
       </defs>
       <use xlink:href="#DejaVuSans-33"/>
       <use xlink:href="#DejaVuSans-33" x="63.623047"/>
       <use xlink:href="#DejaVuSans-33" x="127.246094"/>
       <use xlink:href="#DejaVuSans-33" x="190.869141"/>
       <use xlink:href="#DejaVuSans-33" x="254.492188"/>
       <use xlink:href="#DejaVuSans-2e" x="318.115234"/>
       <use xlink:href="#DejaVuSans-30" x="349.902344"/>
      </g>
     </g>
    </g>
    <g id="xtick_3">
     <g id="line2d_3">
      <g>
       <use xlink:href="#m8a41699b77" x="279.733333" y="283.48" style="stroke: #000000; stroke-width: 0.8"/>
      </g>
     </g>
     <g id="text_3">
      <!-- 66667.0 -->
      <g transform="translate(238.380208 305.676875)scale(0.2 -0.2)">
       <defs>
        <path id="DejaVuSans-36" d="M 2113 2584 
Q 1688 2584 1439 2293 
Q 1191 2003 1191 1497 
Q 1191 994 1439 701 
Q 1688 409 2113 409 
Q 2538 409 2786 701 
Q 3034 994 3034 1497 
Q 3034 2003 2786 2293 
Q 2538 2584 2113 2584 
z
M 3366 4563 
L 3366 3988 
Q 3128 4100 2886 4159 
Q 2644 4219 2406 4219 
Q 1781 4219 1451 3797 
Q 1122 3375 1075 2522 
Q 1259 2794 1537 2939 
Q 1816 3084 2150 3084 
Q 2853 3084 3261 2657 
Q 3669 2231 3669 1497 
Q 3669 778 3244 343 
Q 2819 -91 2113 -91 
Q 1303 -91 875 529 
Q 447 1150 447 2328 
Q 447 3434 972 4092 
Q 1497 4750 2381 4750 
Q 2619 4750 2861 4703 
Q 3103 4656 3366 4563 
z
" transform="scale(0.015625)"/>
        <path id="DejaVuSans-37" d="M 525 4666 
L 3525 4666 
L 3525 4397 
L 1831 0 
L 1172 0 
L 2766 4134 
L 525 4134 
L 525 4666 
z
" transform="scale(0.015625)"/>
       </defs>
       <use xlink:href="#DejaVuSans-36"/>
       <use xlink:href="#DejaVuSans-36" x="63.623047"/>
       <use xlink:href="#DejaVuSans-36" x="127.246094"/>
       <use xlink:href="#DejaVuSans-36" x="190.869141"/>
       <use xlink:href="#DejaVuSans-37" x="254.492188"/>
       <use xlink:href="#DejaVuSans-2e" x="318.115234"/>
       <use xlink:href="#DejaVuSans-30" x="349.902344"/>
      </g>
     </g>
    </g>
    <g id="xtick_4">
     <g id="line2d_4">
      <g>
       <use xlink:href="#m8a41699b77" x="402.12" y="283.48" style="stroke: #000000; stroke-width: 0.8"/>
      </g>
     </g>
     <g id="text_4">
      <!-- 100000.0 -->
      <g transform="translate(354.404375 305.676875)scale(0.2 -0.2)">
       <defs>
        <path id="DejaVuSans-31" d="M 794 531 
L 1825 531 
L 1825 4091 
L 703 3866 
L 703 4441 
L 1819 4666 
L 2450 4666 
L 2450 531 
L 3481 531 
L 3481 0 
L 794 0 
L 794 531 
z
" transform="scale(0.015625)"/>
       </defs>
       <use xlink:href="#DejaVuSans-31"/>
       <use xlink:href="#DejaVuSans-30" x="63.623047"/>
       <use xlink:href="#DejaVuSans-30" x="127.246094"/>
       <use xlink:href="#DejaVuSans-30" x="190.869141"/>
       <use xlink:href="#DejaVuSans-30" x="254.492188"/>
       <use xlink:href="#DejaVuSans-30" x="318.115234"/>
       <use xlink:href="#DejaVuSans-2e" x="381.738281"/>
       <use xlink:href="#DejaVuSans-30" x="413.525391"/>
      </g>
     </g>
    </g>
    <g id="text_5">
     <!-- $T$ -->
     <g transform="translate(212.34 329.033125)scale(0.2 -0.2)">
      <defs>
       <path id="DejaVuSans-Oblique-54" d="M 378 4666 
L 4325 4666 
L 4225 4134 
L 2559 4134 
L 1759 0 
L 1125 0 
L 1925 4134 
L 275 4134 
L 378 4666 
z
" transform="scale(0.015625)"/>
      </defs>
      <use xlink:href="#DejaVuSans-Oblique-54" transform="translate(0 0.09375)"/>
     </g>
    </g>
   </g>
   <g id="matplotlib.axis_2">
    <g id="text_6">
     <!-- $x$ -->
     <g transform="translate(26.800625 153.14)rotate(-90)scale(0.2 -0.2)">
      <defs>
       <path id="DejaVuSans-Oblique-78" d="M 3841 3500 
L 2234 1784 
L 3219 0 
L 2559 0 
L 1819 1388 
L 531 0 
L -166 0 
L 1556 1844 
L 641 3500 
L 1300 3500 
L 1972 2234 
L 3144 3500 
L 3841 3500 
z
" transform="scale(0.015625)"/>
      </defs>
      <use xlink:href="#DejaVuSans-Oblique-78" transform="translate(0 0.3125)"/>
     </g>
    </g>
   </g>
   <g id="line2d_5">
    <path d="M 34.96 247.947787 
L 36.054137 242.954621 
L 37.144602 236.907422 
L 38.235067 229.568948 
L 39.329204 220.644159 
L 40.430684 209.767918 
L 41.539507 196.541929 
L 42.666688 180.349044 
L 43.826914 160.359739 
L 45.049557 135.292594 
L 46.441093 101.913787 
L 49.132376 36.027941 
L 49.679444 28.25795 
L 50.028246 25.873322 
L 50.193468 25.615513 
L 50.215498 25.627764 
L 50.325646 25.861706 
L 50.505554 26.891888 
L 50.762566 29.858052 
L 51.104025 36.71782 
L 51.537274 50.389102 
L 52.106372 76.134134 
L 53.105047 133.634204 
L 54.184498 190.955613 
L 54.918818 218.746058 
L 55.587049 236.158956 
L 56.225907 247.398204 
L 56.857422 254.840183 
L 57.488938 259.814307 
L 58.127796 263.184763 
L 58.781341 265.501849 
L 59.456915 267.116203 
L 60.169206 268.263492 
L 60.943913 269.09849 
L 61.825097 269.721421 
L 62.889861 270.19553 
L 64.274054 270.556847 
L 66.23836 270.823114 
L 69.370235 271.000329 
L 75.090588 271.072656 
L 83.138735 270.95825 
L 88.609419 270.678191 
L 92.303049 270.277567 
L 95.075107 269.761199 
L 97.300096 269.126321 
L 99.168941 268.366212 
L 100.799131 267.465652 
L 102.260428 266.405403 
L 103.604234 265.154944 
L 104.867264 263.672344 
L 106.071549 261.909831 
L 107.235446 259.803713 
L 108.36997 257.280432 
L 109.486137 254.241887 
L 110.591288 250.56924 
L 111.689097 246.124156 
L 112.779562 240.75416 
L 113.870027 234.23245 
L 114.960492 226.321489 
L 116.054629 216.706762 
L 117.156109 205.001455 
L 118.272276 190.686139 
L 119.410472 173.122517 
L 120.589055 151.357308 
L 121.852086 123.727834 
L 123.427202 83.927845 
L 125.200585 40.071215 
L 125.839443 29.352228 
L 126.243319 25.679757 
L 126.481973 25.012906 
L 126.581106 25.112752 
L 126.72797 25.700203 
L 126.951938 27.674092 
L 127.256681 32.609856 
L 127.649542 43.024038 
L 128.152551 62.911015 
L 128.872185 101.340255 
L 130.579479 194.900906 
L 131.299112 221.118992 
L 131.96 237.655219 
L 132.598859 248.426324 
L 133.230374 255.543101 
L 133.861889 260.295768 
L 134.500748 263.516034 
L 135.154292 265.730961 
L 135.833538 267.282304 
L 136.5495 268.383511 
L 137.331551 269.187302 
L 138.227422 269.789116 
L 139.321558 270.248676 
L 140.753482 270.59703 
L 142.81325 270.852167 
L 146.158078 271.018339 
L 152.333709 271.074144 
L 160.282723 270.93616 
L 165.492723 270.641604 
L 169.054175 270.228135 
L 171.74913 269.699296 
L 173.926388 269.051105 
L 175.76586 268.275185 
L 177.374021 267.357566 
L 178.820631 266.276583 
L 180.153422 265.001876 
L 181.409109 263.489067 
L 182.606051 261.693238 
L 183.766276 259.542781 
L 184.900801 256.958779 
L 186.016967 253.846855 
L 187.118447 250.099059 
L 188.212584 245.565933 
L 189.303049 240.072879 
L 190.393514 233.401865 
L 191.48398 225.310345 
L 192.578116 215.477491 
L 193.683268 203.465658 
L 194.799434 188.825852 
L 195.93763 170.876808 
L 197.119886 148.586947 
L 198.397602 120.093179 
L 200.064509 77.370747 
L 201.602909 39.566395 
L 202.241768 28.787788 
L 202.645644 25.087085 
L 202.884298 24.409589 
L 202.983431 24.506717 
L 203.130295 25.092265 
L 203.354262 27.068764 
L 203.659005 32.020372 
L 204.051866 42.478582 
L 204.554876 62.461286 
L 205.274509 101.080906 
L 206.97446 194.669144 
L 207.694094 221.016787 
L 208.354982 237.621419 
L 208.99384 248.426773 
L 209.621684 255.525414 
L 210.253199 260.29494 
L 210.892057 263.523404 
L 211.545602 265.741786 
L 212.221176 267.287192 
L 212.937138 268.39026 
L 213.719189 269.194565 
L 214.61506 269.796115 
L 215.705525 270.253755 
L 217.137449 270.601656 
L 219.197216 270.856072 
L 222.545716 271.021655 
L 228.75072 271.077375 
L 236.751136 270.939575 
L 241.975823 270.645493 
L 245.540946 270.232818 
L 248.239572 269.704367 
L 250.416831 269.05721 
L 252.256303 268.282395 
L 253.864464 267.365954 
L 255.311074 266.28623 
L 256.643865 265.012871 
L 257.899552 263.501519 
L 259.096494 261.70726 
L 260.256719 259.558502 
L 261.391244 256.97633 
L 262.50741 253.866358 
L 263.60889 250.120607 
L 264.703027 245.589573 
L 265.793492 240.098564 
L 266.883957 233.429395 
L 267.974422 225.339253 
L 269.068559 215.506881 
L 270.170039 203.537691 
L 271.286206 188.902864 
L 272.424402 170.955289 
L 273.606657 148.658984 
L 274.880702 120.228122 
L 276.52925 77.907194 
L 278.104367 38.994347 
L 278.743225 28.180774 
L 279.147101 24.474901 
L 279.385755 23.803336 
L 279.481217 23.897278 
L 279.628081 24.479122 
L 279.852048 26.455315 
L 280.156791 31.41858 
L 280.549652 41.915379 
L 281.052662 61.987699 
L 281.772295 100.792953 
L 283.464903 194.415158 
L 284.184536 220.899544 
L 284.845424 237.577657 
L 285.480611 248.370041 
L 286.108455 255.503188 
L 286.73997 260.291135 
L 287.378828 263.528801 
L 288.032373 265.751289 
L 288.707948 267.298043 
L 289.42391 268.401013 
L 290.20596 269.204475 
L 291.101831 269.804804 
L 292.192296 270.261041 
L 293.627892 270.608133 
L 295.695002 270.861421 
L 299.06186 271.025808 
L 305.325609 271.080362 
L 313.366413 270.941195 
L 318.583757 270.646951 
L 322.145209 270.234216 
L 324.840163 269.706035 
L 327.017422 269.058358 
L 328.853222 268.28458 
L 330.461383 267.367673 
L 331.907993 266.287259 
L 333.240784 265.012943 
L 334.4928 263.505239 
L 335.689741 261.710466 
L 336.849967 259.560908 
L 337.98082 256.986799 
L 339.096986 253.877214 
L 340.198466 250.131625 
L 341.292603 245.60041 
L 342.383068 240.108706 
L 343.473533 233.438071 
L 344.563998 225.345325 
L 345.658135 215.508653 
L 346.759615 203.532615 
L 347.875782 188.887008 
L 349.013978 170.922425 
L 350.192561 148.673952 
L 351.462935 120.296625 
L 353.096797 78.276549 
L 354.701286 38.438322 
L 355.340144 27.582624 
L 355.74402 23.865077 
L 355.979003 23.195461 
L 356.078136 23.291398 
L 356.225 23.879834 
L 356.448968 25.872629 
L 356.75371 30.872407 
L 357.146572 41.44123 
L 357.649581 61.642984 
L 358.372886 100.888117 
L 360.047136 193.959738 
L 360.766769 220.6423 
L 361.427657 237.439292 
L 362.062844 248.300516 
L 362.690688 255.472543 
L 363.318531 260.25906 
L 363.95739 263.515301 
L 364.607263 265.737866 
L 365.282837 267.293446 
L 365.995128 268.396762 
L 366.773507 269.20138 
L 367.665706 269.803175 
L 368.752499 270.260877 
L 370.180752 270.608556 
L 372.236848 270.862445 
L 375.585347 271.027561 
L 381.830738 271.08387 
L 389.944974 270.947436 
L 395.206377 270.655295 
L 398.789859 270.244257 
L 401.495828 269.717856 
L 402.116328 269.558509 
L 402.116328 269.558509 
" clip-path="url(#pa3d7d75610)" style="fill: none; stroke: #808080; stroke-width: 5; stroke-linecap: square"/>
   </g>
   <g id="line2d_6">
    <path d="M 34.96 268.95827 
L 37.823848 269.029153 
L 40.07821 268.873452 
L 41.77449 268.543216 
L 43.070564 268.072115 
L 44.105956 267.464139 
L 44.976125 266.695918 
L 45.739818 265.721019 
L 46.437422 264.459193 
L 47.090966 262.799509 
L 47.715138 260.581866 
L 48.324624 257.551002 
L 48.923095 253.384453 
L 49.521566 247.567729 
L 50.134723 239.306859 
L 50.788268 227.295524 
L 51.55196 208.793082 
L 53.942172 147.159701 
L 54.496584 139.874902 
L 54.951862 136.458434 
L 55.31535 135.156784 
L 55.572362 134.880587 
L 55.755942 134.964247 
L 55.990925 135.36858 
L 56.336055 136.473806 
L 56.839064 138.927651 
L 57.595414 143.858958 
L 58.961249 154.490734 
L 62.104139 179.042407 
L 63.961968 191.667966 
L 65.73168 202.205654 
L 67.472018 211.256906 
L 69.201342 219.098706 
L 70.926994 225.913746 
L 72.656317 231.855974 
L 74.392984 237.042742 
L 76.136994 241.565517 
L 77.89569 245.521099 
L 79.676416 248.988712 
L 81.482844 252.027697 
L 83.325987 254.699093 
L 85.213189 257.047195 
L 87.155466 259.112628 
L 89.171174 260.934095 
L 91.278672 262.540169 
L 93.503662 263.956074 
L 95.868172 265.19653 
L 98.40892 266.276668 
L 101.155276 267.200332 
L 104.129272 267.963744 
L 107.31255 268.549951 
L 110.561916 268.923823 
L 113.546926 269.049983 
L 115.948153 268.939299 
L 117.75458 268.643986 
L 119.127758 268.202181 
L 120.21088 267.625569 
L 121.110422 266.896492 
L 121.892473 265.973705 
L 122.601092 264.78489 
L 123.26198 263.225837 
L 123.893495 261.138498 
L 124.502981 258.317912 
L 125.101452 254.441581 
L 125.699922 249.021349 
L 126.309408 241.34247 
L 126.951938 230.233907 
L 127.678915 213.491859 
L 128.813439 181.194853 
L 129.834144 154.714952 
L 130.469331 143.52955 
L 130.983355 137.967728 
L 131.405589 135.504739 
L 131.72869 134.705273 
L 131.948986 134.617066 
L 132.14358 134.805736 
L 132.41895 135.441756 
L 132.822826 137.015962 
L 133.413954 140.326331 
L 134.342869 146.958049 
L 137.280149 170.45437 
L 139.273828 185.00663 
L 141.080255 196.589428 
L 142.831608 206.410943 
L 144.564603 214.891962 
L 146.290255 222.251421 
L 148.015907 228.658443 
L 149.745231 234.243104 
L 151.485569 239.126324 
L 153.236922 243.390778 
L 155.006634 247.124834 
L 156.798374 250.394718 
L 158.619488 253.262658 
L 160.480989 255.784585 
L 162.390221 258.001089 
L 164.365542 259.956276 
L 166.421638 261.679947 
L 168.580539 263.199835 
L 170.864274 264.535264 
L 173.305888 265.704057 
L 175.934754 266.714091 
L 178.783915 267.568265 
L 181.864388 268.257452 
L 185.113754 268.756173 
L 188.308046 269.02513 
L 191.069089 269.043466 
L 193.202288 268.846329 
L 194.803106 268.48457 
L 196.036764 267.984356 
L 197.031767 267.343934 
L 197.872564 266.538019 
L 198.617898 265.510362 
L 199.304488 264.171263 
L 199.950689 262.401193 
L 200.57119 260.019502 
L 201.173332 256.782825 
L 201.771803 252.277145 
L 202.370274 245.984878 
L 202.987102 237.012975 
L 203.655334 223.813971 
L 204.463086 203.028238 
L 206.420048 150.700384 
L 207.014848 141.37251 
L 207.50317 136.808184 
L 207.899703 134.903371 
L 208.193431 134.369148 
L 208.391698 134.367967 
L 208.600979 134.639565 
L 208.905722 135.464487 
L 209.349985 137.397393 
L 210.007202 141.371181 
L 211.090324 149.483231 
L 215.481557 183.562119 
L 217.295328 195.371503 
L 219.050352 205.368399 
L 220.783348 213.9841 
L 222.509 221.461501 
L 224.234652 227.971695 
L 225.963975 233.646533 
L 227.700642 238.598992 
L 229.451995 242.933804 
L 231.218035 246.722213 
L 233.006104 250.040834 
L 234.823546 252.952555 
L 236.677704 255.509255 
L 238.583264 257.762008 
L 240.551242 259.746621 
L 242.596323 261.494851 
L 244.740538 263.036045 
L 247.009586 264.392748 
L 249.429171 265.579492 
L 252.036007 266.60865 
L 254.859467 267.482055 
L 257.91791 268.193105 
L 261.163604 268.718516 
L 264.398284 269.019636 
L 267.243774 269.069562 
L 269.465092 268.896822 
L 271.124655 268.554893 
L 272.3987 268.072382 
L 273.419405 267.451242 
L 274.27856 266.666844 
L 275.034909 265.668825 
L 275.72517 264.37809 
L 276.375043 262.67046 
L 276.995544 260.385861 
L 277.601358 257.260126 
L 278.196157 252.960534 
L 278.794628 246.914811 
L 279.407785 238.323144 
L 280.065001 225.772233 
L 280.84338 206.25307 
L 283.042669 148.100963 
L 283.615438 139.891247 
L 284.085403 135.983686 
L 284.459906 134.448167 
L 284.731605 134.071534 
L 284.918856 134.12112 
L 285.142824 134.468403 
L 285.469596 135.453494 
L 285.946904 137.692794 
L 286.659195 142.230428 
L 287.892852 151.75619 
L 291.465319 179.817263 
L 293.308462 192.272082 
L 295.074502 202.721652 
L 296.811169 211.694072 
L 298.536821 219.467233 
L 300.262473 226.236717 
L 301.991796 232.138495 
L 303.728463 237.28952 
L 305.476145 241.789657 
L 307.238513 245.724019 
L 309.019239 249.165204 
L 310.829338 252.186645 
L 312.672481 254.836786 
L 314.563355 257.170381 
L 316.509303 259.222335 
L 318.532354 261.0343 
L 320.647196 262.630837 
L 322.879529 264.037312 
L 325.255054 265.270367 
L 327.806816 266.34291 
L 330.567859 267.260264 
L 333.563885 268.019144 
L 336.772863 268.601339 
L 340.055274 268.972317 
L 343.065986 269.095392 
L 345.478227 268.982177 
L 347.288326 268.685166 
L 348.657832 268.243669 
L 349.740954 267.665731 
L 350.636825 266.937304 
L 351.418876 266.010392 
L 352.123823 264.820968 
L 352.781039 263.261043 
L 353.408883 261.17226 
L 354.018368 258.329105 
L 354.616839 254.412172 
L 355.211638 248.961373 
L 355.817452 241.235669 
L 356.456311 230.052207 
L 357.179616 213.180829 
L 358.317812 180.361392 
L 359.327502 153.908373 
L 359.959017 142.697936 
L 360.46937 137.13963 
L 360.887932 134.683161 
L 361.211033 133.881816 
L 361.427657 133.796799 
L 361.622252 133.988074 
L 361.897622 134.632413 
L 362.301498 136.225885 
L 362.892626 139.573156 
L 363.825212 146.298098 
L 369.516192 189.695468 
L 371.289575 200.512099 
L 373.029913 209.785521 
L 374.759237 217.820781 
L 376.484889 224.804236 
L 378.210541 230.881318 
L 379.943536 236.187415 
L 381.687546 240.824742 
L 383.446242 244.880514 
L 385.223297 248.429174 
L 387.026052 251.540273 
L 388.861852 254.271033 
L 390.741712 256.673135 
L 392.676645 258.787792 
L 394.681338 260.651223 
L 396.77415 262.293986 
L 398.97711 263.740792 
L 401.319591 265.012382 
L 402.116328 265.390397 
L 402.116328 265.390397 
" clip-path="url(#pa3d7d75610)" style="fill: none; stroke: #000000; stroke-width: 5; stroke-linecap: square"/>
   </g>
   <g id="patch_3">
    <path d="M 34.96 283.48 
L 34.96 10.8 
" style="fill: none; stroke: #000000; stroke-width: 3; stroke-linejoin: miter; stroke-linecap: square"/>
   </g>
   <g id="patch_4">
    <path d="M 34.96 283.48 
L 402.12 283.48 
" style="fill: none; stroke: #000000; stroke-width: 3; stroke-linejoin: miter; stroke-linecap: square"/>
   </g>
  </g>
 </g>
 <defs>
  <clipPath id="pa3d7d75610">
   <rect x="34.96" y="10.8" width="367.16" height="272.68"/>
  </clipPath>
 </defs>
</svg>
