<?xml version="1.0" encoding="utf-8" standalone="no"?>
<!DOCTYPE svg PUBLIC "-//W3C//DTD SVG 1.1//EN"
  "http://www.w3.org/Graphics/SVG/1.1/DTD/svg11.dtd">
<svg height="345.6pt" version="1.1" viewBox="0 0 460.8 345.6" width="460.8pt" xmlns="http://www.w3.org/2000/svg" xmlns:xlink="http://www.w3.org/1999/xlink">
 <metadata>
  <rdf:RDF xmlns:cc="http://creativecommons.org/ns#" xmlns:dc="http://purl.org/dc/elements/1.1/" xmlns:rdf="http://www.w3.org/1999/02/22-rdf-syntax-ns#">
   <cc:Work>
    <dc:type rdf:resource="http://purl.org/dc/dcmitype/StillImage"/>
    <dc:date>2022-07-20T14:02:33.880066</dc:date>
    <dc:format>image/svg+xml</dc:format>
    <dc:creator>
     <cc:Agent>
      <dc:title>Matplotlib v3.4.2, https://matplotlib.org/</dc:title>
     </cc:Agent>
    </dc:creator>
   </cc:Work>
  </rdf:RDF>
 </metadata>
 <defs>
  <style type="text/css">*{stroke-linecap:butt;stroke-linejoin:round;}</style>
 </defs>
 <g id="figure_1">
  <g id="patch_1">
   <path d="M 0 345.6 
L 460.8 345.6 
L 460.8 0 
L 0 0 
z
" style="fill:#ffffff;"/>
  </g>
  <g id="axes_1">
   <g id="patch_2">
    <path d="M 59.24 276.964 
L 445.862461 276.964 
L 445.862461 10.8 
L 59.24 10.8 
z
" style="fill:#ffffff;"/>
   </g>
   <g id="matplotlib.axis_1">
    <g id="xtick_1">
     <g id="line2d_1">
      <defs>
       <path d="M 0 0 
L 0 8 
" id="mca15f6e6c4" style="stroke:#000000;stroke-width:3;"/>
      </defs>
      <g>
       <use style="stroke:#000000;stroke-width:3;" x="81.982498" xlink:href="#mca15f6e6c4" y="276.964"/>
      </g>
     </g>
     <g id="text_1">
      <!-- $u_{rest}$ -->
      <g transform="translate(61.782498 303.660875)scale(0.2 -0.2)">
       <defs>
        <path d="M 428 1388 
L 838 3500 
L 1416 3500 
L 1006 1409 
Q 975 1256 961 1147 
Q 947 1038 947 966 
Q 947 700 1109 554 
Q 1272 409 1569 409 
Q 2031 409 2368 721 
Q 2706 1034 2809 1563 
L 3194 3500 
L 3769 3500 
L 3091 0 
L 2516 0 
L 2631 550 
Q 2388 244 2052 76 
Q 1716 -91 1338 -91 
Q 878 -91 622 161 
Q 366 413 366 863 
Q 366 956 381 1097 
Q 397 1238 428 1388 
z
" id="DejaVuSans-Oblique-75" transform="scale(0.015625)"/>
        <path d="M 2853 2969 
Q 2766 3016 2653 3041 
Q 2541 3066 2413 3066 
Q 1953 3066 1609 2717 
Q 1266 2369 1153 1784 
L 800 0 
L 225 0 
L 909 3500 
L 1484 3500 
L 1375 2956 
Q 1603 3259 1920 3421 
Q 2238 3584 2597 3584 
Q 2691 3584 2781 3573 
Q 2872 3563 2963 3538 
L 2853 2969 
z
" id="DejaVuSans-Oblique-72" transform="scale(0.015625)"/>
        <path d="M 3078 2063 
Q 3088 2113 3092 2166 
Q 3097 2219 3097 2272 
Q 3097 2653 2873 2875 
Q 2650 3097 2266 3097 
Q 1838 3097 1509 2826 
Q 1181 2556 1013 2059 
L 3078 2063 
z
M 3578 1613 
L 903 1613 
Q 884 1494 878 1425 
Q 872 1356 872 1306 
Q 872 872 1139 634 
Q 1406 397 1894 397 
Q 2269 397 2603 481 
Q 2938 566 3225 728 
L 3116 159 
Q 2806 34 2476 -28 
Q 2147 -91 1806 -91 
Q 1078 -91 686 257 
Q 294 606 294 1247 
Q 294 1794 489 2264 
Q 684 2734 1063 3103 
Q 1306 3334 1642 3459 
Q 1978 3584 2356 3584 
Q 2950 3584 3301 3228 
Q 3653 2872 3653 2272 
Q 3653 2128 3634 1964 
Q 3616 1800 3578 1613 
z
" id="DejaVuSans-Oblique-65" transform="scale(0.015625)"/>
        <path d="M 3200 3397 
L 3091 2853 
Q 2863 2978 2609 3040 
Q 2356 3103 2088 3103 
Q 1634 3103 1373 2948 
Q 1113 2794 1113 2528 
Q 1113 2219 1719 2053 
Q 1766 2041 1788 2034 
L 1972 1978 
Q 2547 1819 2739 1644 
Q 2931 1469 2931 1166 
Q 2931 609 2489 259 
Q 2047 -91 1331 -91 
Q 1053 -91 747 -37 
Q 441 16 72 128 
L 184 722 
Q 500 559 806 475 
Q 1113 391 1394 391 
Q 1816 391 2080 572 
Q 2344 753 2344 1031 
Q 2344 1331 1650 1516 
L 1591 1531 
L 1394 1581 
Q 956 1697 753 1886 
Q 550 2075 550 2369 
Q 550 2928 970 3256 
Q 1391 3584 2113 3584 
Q 2397 3584 2667 3537 
Q 2938 3491 3200 3397 
z
" id="DejaVuSans-Oblique-73" transform="scale(0.015625)"/>
        <path d="M 2706 3500 
L 2619 3053 
L 1472 3053 
L 1100 1153 
Q 1081 1047 1072 975 
Q 1063 903 1063 863 
Q 1063 663 1183 572 
Q 1303 481 1569 481 
L 2150 481 
L 2053 0 
L 1503 0 
Q 991 0 739 200 
Q 488 400 488 806 
Q 488 878 497 964 
Q 506 1050 525 1153 
L 897 3053 
L 409 3053 
L 500 3500 
L 978 3500 
L 1172 4494 
L 1747 4494 
L 1556 3500 
L 2706 3500 
z
" id="DejaVuSans-Oblique-74" transform="scale(0.015625)"/>
       </defs>
       <use transform="translate(0 0.3125)" xlink:href="#DejaVuSans-Oblique-75"/>
       <use transform="translate(63.378906 -16.09375)scale(0.7)" xlink:href="#DejaVuSans-Oblique-72"/>
       <use transform="translate(92.158203 -16.09375)scale(0.7)" xlink:href="#DejaVuSans-Oblique-65"/>
       <use transform="translate(135.224609 -16.09375)scale(0.7)" xlink:href="#DejaVuSans-Oblique-73"/>
       <use transform="translate(171.694336 -16.09375)scale(0.7)" xlink:href="#DejaVuSans-Oblique-74"/>
      </g>
     </g>
    </g>
    <g id="xtick_2">
     <g id="line2d_2">
      <g>
       <use style="stroke:#000000;stroke-width:3;" x="309.407475" xlink:href="#mca15f6e6c4" y="276.964"/>
      </g>
     </g>
     <g id="text_2">
      <!-- $\vartheta_{rheo}$ -->
      <g transform="translate(287.007475 303.660875)scale(0.2 -0.2)">
       <defs>
        <path d="M 3009 2750 
Q 3178 3519 3081 3913 
Q 2950 4444 2513 4444 
Q 2253 4444 2009 4222 
Q 1794 4016 1741 3734 
Q 1647 3256 1959 2922 
Q 2150 2719 3009 2750 
z
M 2913 2219 
Q 1944 2191 1581 2422 
Q 994 2797 1175 3719 
Q 1272 4219 1663 4563 
Q 2056 4913 2603 4913 
Q 3256 4913 3550 4250 
Q 3828 3625 3566 2422 
Q 3303 1213 2781 594 
Q 2225 -72 1475 -72 
Q 734 -72 425 594 
Q 97 1297 419 2753 
L 1028 2750 
Q 694 1556 928 884 
Q 1100 400 1566 400 
Q 2016 400 2391 888 
Q 2788 1406 2913 2219 
z
" id="DejaVuSans-Oblique-3d1" transform="scale(0.015625)"/>
        <path d="M 3566 2113 
L 3156 0 
L 2578 0 
L 2988 2091 
Q 3016 2238 3031 2350 
Q 3047 2463 3047 2528 
Q 3047 2791 2881 2937 
Q 2716 3084 2419 3084 
Q 1956 3084 1617 2771 
Q 1278 2459 1178 1941 
L 800 0 
L 225 0 
L 1172 4863 
L 1747 4863 
L 1375 2950 
Q 1594 3244 1934 3414 
Q 2275 3584 2650 3584 
Q 3113 3584 3367 3334 
Q 3622 3084 3622 2631 
Q 3622 2519 3608 2391 
Q 3594 2263 3566 2113 
z
" id="DejaVuSans-Oblique-68" transform="scale(0.015625)"/>
        <path d="M 1625 -91 
Q 1009 -91 651 289 
Q 294 669 294 1325 
Q 294 1706 417 2101 
Q 541 2497 738 2766 
Q 1047 3184 1428 3384 
Q 1809 3584 2291 3584 
Q 2888 3584 3255 3212 
Q 3622 2841 3622 2241 
Q 3622 1825 3500 1412 
Q 3378 1000 3181 728 
Q 2875 309 2494 109 
Q 2113 -91 1625 -91 
z
M 891 1344 
Q 891 869 1089 633 
Q 1288 397 1691 397 
Q 2269 397 2648 901 
Q 3028 1406 3028 2181 
Q 3028 2634 2825 2865 
Q 2622 3097 2228 3097 
Q 1903 3097 1650 2945 
Q 1397 2794 1197 2484 
Q 1050 2253 970 1956 
Q 891 1659 891 1344 
z
" id="DejaVuSans-Oblique-6f" transform="scale(0.015625)"/>
       </defs>
       <use transform="translate(0 0.234375)" xlink:href="#DejaVuSans-Oblique-3d1"/>
       <use transform="translate(61.914062 -16.171875)scale(0.7)" xlink:href="#DejaVuSans-Oblique-72"/>
       <use transform="translate(90.693359 -16.171875)scale(0.7)" xlink:href="#DejaVuSans-Oblique-68"/>
       <use transform="translate(135.058594 -16.171875)scale(0.7)" xlink:href="#DejaVuSans-Oblique-65"/>
       <use transform="translate(178.125 -16.171875)scale(0.7)" xlink:href="#DejaVuSans-Oblique-6f"/>
      </g>
     </g>
    </g>
    <g id="xtick_3">
     <g id="line2d_3">
      <g>
       <use style="stroke:#000000;stroke-width:3;" x="423.119963" xlink:href="#mca15f6e6c4" y="276.964"/>
      </g>
     </g>
     <g id="text_3">
      <!-- $u_{reset}$ -->
      <g transform="translate(398.619963 303.660875)scale(0.2 -0.2)">
       <use transform="translate(0 0.3125)" xlink:href="#DejaVuSans-Oblique-75"/>
       <use transform="translate(63.378906 -16.09375)scale(0.7)" xlink:href="#DejaVuSans-Oblique-72"/>
       <use transform="translate(92.158203 -16.09375)scale(0.7)" xlink:href="#DejaVuSans-Oblique-65"/>
       <use transform="translate(135.224609 -16.09375)scale(0.7)" xlink:href="#DejaVuSans-Oblique-73"/>
       <use transform="translate(171.694336 -16.09375)scale(0.7)" xlink:href="#DejaVuSans-Oblique-65"/>
       <use transform="translate(214.760742 -16.09375)scale(0.7)" xlink:href="#DejaVuSans-Oblique-74"/>
      </g>
     </g>
    </g>
    <g id="text_4">
     <!-- u -->
     <g transform="translate(246.21373 327.017125)scale(0.2 -0.2)">
      <defs>
       <path d="M 544 1381 
L 544 3500 
L 1119 3500 
L 1119 1403 
Q 1119 906 1312 657 
Q 1506 409 1894 409 
Q 2359 409 2629 706 
Q 2900 1003 2900 1516 
L 2900 3500 
L 3475 3500 
L 3475 0 
L 2900 0 
L 2900 538 
Q 2691 219 2414 64 
Q 2138 -91 1772 -91 
Q 1169 -91 856 284 
Q 544 659 544 1381 
z
M 1991 3584 
L 1991 3584 
z
" id="DejaVuSans-75" transform="scale(0.015625)"/>
      </defs>
      <use xlink:href="#DejaVuSans-75"/>
     </g>
    </g>
   </g>
   <g id="matplotlib.axis_2">
    <g id="ytick_1">
     <g id="line2d_4">
      <defs>
       <path d="M 0 0 
L -8 0 
" id="m693c2597d6" style="stroke:#000000;stroke-width:3;"/>
      </defs>
      <g>
       <use style="stroke:#000000;stroke-width:3;" x="59.24" xlink:href="#m693c2597d6" y="232.603333"/>
      </g>
     </g>
     <g id="text_5">
      <!-- 0 -->
      <g transform="translate(35.015 240.201771)scale(0.2 -0.2)">
       <defs>
        <path d="M 2034 4250 
Q 1547 4250 1301 3770 
Q 1056 3291 1056 2328 
Q 1056 1369 1301 889 
Q 1547 409 2034 409 
Q 2525 409 2770 889 
Q 3016 1369 3016 2328 
Q 3016 3291 2770 3770 
Q 2525 4250 2034 4250 
z
M 2034 4750 
Q 2819 4750 3233 4129 
Q 3647 3509 3647 2328 
Q 3647 1150 3233 529 
Q 2819 -91 2034 -91 
Q 1250 -91 836 529 
Q 422 1150 422 2328 
Q 422 3509 836 4129 
Q 1250 4750 2034 4750 
z
" id="DejaVuSans-30" transform="scale(0.015625)"/>
       </defs>
       <use xlink:href="#DejaVuSans-30"/>
      </g>
     </g>
    </g>
    <g id="text_6">
     <!-- du -->
     <g transform="translate(26.855625 156.567937)rotate(-90)scale(0.2 -0.2)">
      <defs>
       <path d="M 2906 2969 
L 2906 4863 
L 3481 4863 
L 3481 0 
L 2906 0 
L 2906 525 
Q 2725 213 2448 61 
Q 2172 -91 1784 -91 
Q 1150 -91 751 415 
Q 353 922 353 1747 
Q 353 2572 751 3078 
Q 1150 3584 1784 3584 
Q 2172 3584 2448 3432 
Q 2725 3281 2906 2969 
z
M 947 1747 
Q 947 1113 1208 752 
Q 1469 391 1925 391 
Q 2381 391 2643 752 
Q 2906 1113 2906 1747 
Q 2906 2381 2643 2742 
Q 2381 3103 1925 3103 
Q 1469 3103 1208 2742 
Q 947 2381 947 1747 
z
" id="DejaVuSans-64" transform="scale(0.015625)"/>
      </defs>
      <use xlink:href="#DejaVuSans-64"/>
      <use x="63.476562" xlink:href="#DejaVuSans-75"/>
     </g>
    </g>
   </g>
   <g id="line2d_5">
    <path clip-path="url(#p7a369a4a5f)" d="M 59.24 230.383126 
L 62.915555 230.741349 
L 66.59111 231.099543 
L 70.266666 231.457707 
L 73.942221 231.815835 
L 77.617776 232.173925 
L 81.293331 232.531971 
L 84.968886 232.889969 
L 88.644441 233.247913 
L 92.319997 233.605797 
L 95.995552 233.963615 
L 99.671107 234.321359 
L 103.346662 234.67902 
L 107.022217 235.036589 
L 110.697773 235.394056 
L 114.373328 235.751408 
L 118.048883 236.108633 
L 121.724438 236.465717 
L 125.399993 236.822642 
L 129.075548 237.179393 
L 132.751104 237.535947 
L 136.426659 237.892284 
L 140.102214 238.248377 
L 143.777769 238.604201 
L 147.453324 238.959723 
L 151.12888 239.314911 
L 154.804435 239.669724 
L 158.47999 240.024122 
L 162.155545 240.378056 
L 165.8311 240.731475 
L 169.506655 241.084319 
L 173.182211 241.436522 
L 176.857766 241.788013 
L 180.533321 242.13871 
L 184.208876 242.488523 
L 187.884431 242.83735 
L 191.559987 243.185081 
L 195.235542 243.53159 
L 198.911097 243.876738 
L 202.586652 244.220371 
L 206.262207 244.562316 
L 209.937762 244.902381 
L 213.613318 245.240352 
L 217.288873 245.575991 
L 220.964428 245.909032 
L 224.639983 246.239181 
L 228.315538 246.566108 
L 231.991094 246.889447 
L 235.666649 247.208789 
L 239.342204 247.523679 
L 243.017759 247.833612 
L 246.693314 248.138024 
L 250.368869 248.436285 
L 254.044425 248.727697 
L 257.71998 249.01148 
L 261.395535 249.286766 
L 265.07109 249.55259 
L 268.746645 249.807873 
L 272.422201 250.051418 
L 276.097756 250.281889 
L 279.773311 250.497798 
L 283.448866 250.697489 
L 287.124421 250.879116 
L 290.799976 251.040626 
L 294.475532 251.179729 
L 298.151087 251.293876 
L 301.826642 251.380229 
L 305.502197 251.435624 
L 309.177752 251.456541 
L 312.853308 251.439057 
L 316.528863 251.378804 
L 320.204418 251.270915 
L 323.879973 251.109972 
L 327.555528 250.88994 
L 331.231083 250.604095 
L 334.906639 250.244951 
L 338.582194 249.80417 
L 342.257749 249.272464 
L 345.933304 248.639489 
L 349.608859 247.893724 
L 353.284415 247.022338 
L 356.95997 246.011041 
L 360.635525 244.843916 
L 364.31108 243.503234 
L 367.986635 241.969253 
L 371.66219 240.219981 
L 375.337746 238.230926 
L 379.013301 235.974811 
L 382.688856 233.421254 
L 386.364411 230.536416 
L 390.039966 227.282612 
L 393.715522 223.617864 
L 397.391077 219.495425 
L 401.066632 214.863226 
L 404.742187 209.663274 
L 408.417742 203.830982 
L 412.093297 197.294411 
L 415.768853 189.973442 
L 419.444408 181.778839 
L 423.119963 172.611216 
" style="fill:none;stroke:#c44343;stroke-linecap:square;stroke-width:3;"/>
   </g>
   <g id="line2d_6">
    <path clip-path="url(#p7a369a4a5f)" d="M 423.119963 276.964 
L 423.119963 10.8 
" style="fill:none;stroke:#000000;stroke-dasharray:3,4.95;stroke-dashoffset:0;stroke-width:3;"/>
   </g>
   <g id="line2d_7">
    <path clip-path="url(#p7a369a4a5f)" d="M 59.24 232.603333 
L 445.862461 232.603333 
" style="fill:none;stroke:#000000;stroke-dasharray:11.1,4.8;stroke-dashoffset:0;stroke-width:3;"/>
   </g>
   <g id="patch_3">
    <path d="M 59.24 276.964 
L 59.24 10.8 
" style="fill:none;stroke:#000000;stroke-linecap:square;stroke-linejoin:miter;stroke-width:3;"/>
   </g>
   <g id="patch_4">
    <path d="M 59.24 276.964 
L 445.862461 276.964 
" style="fill:none;stroke:#000000;stroke-linecap:square;stroke-linejoin:miter;stroke-width:3;"/>
   </g>
  </g>
 </g>
 <defs>
  <clipPath id="p7a369a4a5f">
   <rect height="266.164" width="386.622461" x="59.24" y="10.8"/>
  </clipPath>
 </defs>
</svg>
