<?xml version="1.0" encoding="utf-8" standalone="no"?>
<!DOCTYPE svg PUBLIC "-//W3C//DTD SVG 1.1//EN"
  "http://www.w3.org/Graphics/SVG/1.1/DTD/svg11.dtd">
<svg height="345.6pt" version="1.1" viewBox="0 0 460.8 345.6" width="460.8pt" xmlns="http://www.w3.org/2000/svg" xmlns:xlink="http://www.w3.org/1999/xlink">
 <metadata>
  <rdf:RDF xmlns:cc="http://creativecommons.org/ns#" xmlns:dc="http://purl.org/dc/elements/1.1/" xmlns:rdf="http://www.w3.org/1999/02/22-rdf-syntax-ns#">
   <cc:Work>
    <dc:type rdf:resource="http://purl.org/dc/dcmitype/StillImage"/>
    <dc:date>2022-07-20T14:02:34.051794</dc:date>
    <dc:format>image/svg+xml</dc:format>
    <dc:creator>
     <cc:Agent>
      <dc:title>Matplotlib v3.4.2, https://matplotlib.org/</dc:title>
     </cc:Agent>
    </dc:creator>
   </cc:Work>
  </rdf:RDF>
 </metadata>
 <defs>
  <style type="text/css">*{stroke-linecap:butt;stroke-linejoin:round;}</style>
 </defs>
 <g id="figure_1">
  <g id="patch_1">
   <path d="M 0 345.6 
L 460.8 345.6 
L 460.8 0 
L 0 0 
z
" style="fill:#ffffff;"/>
  </g>
  <g id="axes_1">
   <g id="patch_2">
    <path d="M 59.24 276.964 
L 445.862461 276.964 
L 445.862461 10.8 
L 59.24 10.8 
z
" style="fill:#ffffff;"/>
   </g>
   <g id="matplotlib.axis_1">
    <g id="xtick_1">
     <g id="line2d_1">
      <defs>
       <path d="M 0 0 
L 0 8 
" id="m5dfdd6f90d" style="stroke:#000000;stroke-width:3;"/>
      </defs>
      <g>
       <use style="stroke:#000000;stroke-width:3;" x="81.982498" xlink:href="#m5dfdd6f90d" y="276.964"/>
      </g>
     </g>
     <g id="text_1">
      <!-- $u_{rest}$ -->
      <g transform="translate(61.782498 303.660875)scale(0.2 -0.2)">
       <defs>
        <path d="M 428 1388 
L 838 3500 
L 1416 3500 
L 1006 1409 
Q 975 1256 961 1147 
Q 947 1038 947 966 
Q 947 700 1109 554 
Q 1272 409 1569 409 
Q 2031 409 2368 721 
Q 2706 1034 2809 1563 
L 3194 3500 
L 3769 3500 
L 3091 0 
L 2516 0 
L 2631 550 
Q 2388 244 2052 76 
Q 1716 -91 1338 -91 
Q 878 -91 622 161 
Q 366 413 366 863 
Q 366 956 381 1097 
Q 397 1238 428 1388 
z
" id="DejaVuSans-Oblique-75" transform="scale(0.015625)"/>
        <path d="M 2853 2969 
Q 2766 3016 2653 3041 
Q 2541 3066 2413 3066 
Q 1953 3066 1609 2717 
Q 1266 2369 1153 1784 
L 800 0 
L 225 0 
L 909 3500 
L 1484 3500 
L 1375 2956 
Q 1603 3259 1920 3421 
Q 2238 3584 2597 3584 
Q 2691 3584 2781 3573 
Q 2872 3563 2963 3538 
L 2853 2969 
z
" id="DejaVuSans-Oblique-72" transform="scale(0.015625)"/>
        <path d="M 3078 2063 
Q 3088 2113 3092 2166 
Q 3097 2219 3097 2272 
Q 3097 2653 2873 2875 
Q 2650 3097 2266 3097 
Q 1838 3097 1509 2826 
Q 1181 2556 1013 2059 
L 3078 2063 
z
M 3578 1613 
L 903 1613 
Q 884 1494 878 1425 
Q 872 1356 872 1306 
Q 872 872 1139 634 
Q 1406 397 1894 397 
Q 2269 397 2603 481 
Q 2938 566 3225 728 
L 3116 159 
Q 2806 34 2476 -28 
Q 2147 -91 1806 -91 
Q 1078 -91 686 257 
Q 294 606 294 1247 
Q 294 1794 489 2264 
Q 684 2734 1063 3103 
Q 1306 3334 1642 3459 
Q 1978 3584 2356 3584 
Q 2950 3584 3301 3228 
Q 3653 2872 3653 2272 
Q 3653 2128 3634 1964 
Q 3616 1800 3578 1613 
z
" id="DejaVuSans-Oblique-65" transform="scale(0.015625)"/>
        <path d="M 3200 3397 
L 3091 2853 
Q 2863 2978 2609 3040 
Q 2356 3103 2088 3103 
Q 1634 3103 1373 2948 
Q 1113 2794 1113 2528 
Q 1113 2219 1719 2053 
Q 1766 2041 1788 2034 
L 1972 1978 
Q 2547 1819 2739 1644 
Q 2931 1469 2931 1166 
Q 2931 609 2489 259 
Q 2047 -91 1331 -91 
Q 1053 -91 747 -37 
Q 441 16 72 128 
L 184 722 
Q 500 559 806 475 
Q 1113 391 1394 391 
Q 1816 391 2080 572 
Q 2344 753 2344 1031 
Q 2344 1331 1650 1516 
L 1591 1531 
L 1394 1581 
Q 956 1697 753 1886 
Q 550 2075 550 2369 
Q 550 2928 970 3256 
Q 1391 3584 2113 3584 
Q 2397 3584 2667 3537 
Q 2938 3491 3200 3397 
z
" id="DejaVuSans-Oblique-73" transform="scale(0.015625)"/>
        <path d="M 2706 3500 
L 2619 3053 
L 1472 3053 
L 1100 1153 
Q 1081 1047 1072 975 
Q 1063 903 1063 863 
Q 1063 663 1183 572 
Q 1303 481 1569 481 
L 2150 481 
L 2053 0 
L 1503 0 
Q 991 0 739 200 
Q 488 400 488 806 
Q 488 878 497 964 
Q 506 1050 525 1153 
L 897 3053 
L 409 3053 
L 500 3500 
L 978 3500 
L 1172 4494 
L 1747 4494 
L 1556 3500 
L 2706 3500 
z
" id="DejaVuSans-Oblique-74" transform="scale(0.015625)"/>
       </defs>
       <use transform="translate(0 0.3125)" xlink:href="#DejaVuSans-Oblique-75"/>
       <use transform="translate(63.378906 -16.09375)scale(0.7)" xlink:href="#DejaVuSans-Oblique-72"/>
       <use transform="translate(92.158203 -16.09375)scale(0.7)" xlink:href="#DejaVuSans-Oblique-65"/>
       <use transform="translate(135.224609 -16.09375)scale(0.7)" xlink:href="#DejaVuSans-Oblique-73"/>
       <use transform="translate(171.694336 -16.09375)scale(0.7)" xlink:href="#DejaVuSans-Oblique-74"/>
      </g>
     </g>
    </g>
    <g id="xtick_2">
     <g id="line2d_2">
      <g>
       <use style="stroke:#000000;stroke-width:3;" x="309.407475" xlink:href="#m5dfdd6f90d" y="276.964"/>
      </g>
     </g>
     <g id="text_2">
      <!-- $\vartheta_{rheo}$ -->
      <g transform="translate(287.007475 303.660875)scale(0.2 -0.2)">
       <defs>
        <path d="M 3009 2750 
Q 3178 3519 3081 3913 
Q 2950 4444 2513 4444 
Q 2253 4444 2009 4222 
Q 1794 4016 1741 3734 
Q 1647 3256 1959 2922 
Q 2150 2719 3009 2750 
z
M 2913 2219 
Q 1944 2191 1581 2422 
Q 994 2797 1175 3719 
Q 1272 4219 1663 4563 
Q 2056 4913 2603 4913 
Q 3256 4913 3550 4250 
Q 3828 3625 3566 2422 
Q 3303 1213 2781 594 
Q 2225 -72 1475 -72 
Q 734 -72 425 594 
Q 97 1297 419 2753 
L 1028 2750 
Q 694 1556 928 884 
Q 1100 400 1566 400 
Q 2016 400 2391 888 
Q 2788 1406 2913 2219 
z
" id="DejaVuSans-Oblique-3d1" transform="scale(0.015625)"/>
        <path d="M 3566 2113 
L 3156 0 
L 2578 0 
L 2988 2091 
Q 3016 2238 3031 2350 
Q 3047 2463 3047 2528 
Q 3047 2791 2881 2937 
Q 2716 3084 2419 3084 
Q 1956 3084 1617 2771 
Q 1278 2459 1178 1941 
L 800 0 
L 225 0 
L 1172 4863 
L 1747 4863 
L 1375 2950 
Q 1594 3244 1934 3414 
Q 2275 3584 2650 3584 
Q 3113 3584 3367 3334 
Q 3622 3084 3622 2631 
Q 3622 2519 3608 2391 
Q 3594 2263 3566 2113 
z
" id="DejaVuSans-Oblique-68" transform="scale(0.015625)"/>
        <path d="M 1625 -91 
Q 1009 -91 651 289 
Q 294 669 294 1325 
Q 294 1706 417 2101 
Q 541 2497 738 2766 
Q 1047 3184 1428 3384 
Q 1809 3584 2291 3584 
Q 2888 3584 3255 3212 
Q 3622 2841 3622 2241 
Q 3622 1825 3500 1412 
Q 3378 1000 3181 728 
Q 2875 309 2494 109 
Q 2113 -91 1625 -91 
z
M 891 1344 
Q 891 869 1089 633 
Q 1288 397 1691 397 
Q 2269 397 2648 901 
Q 3028 1406 3028 2181 
Q 3028 2634 2825 2865 
Q 2622 3097 2228 3097 
Q 1903 3097 1650 2945 
Q 1397 2794 1197 2484 
Q 1050 2253 970 1956 
Q 891 1659 891 1344 
z
" id="DejaVuSans-Oblique-6f" transform="scale(0.015625)"/>
       </defs>
       <use transform="translate(0 0.234375)" xlink:href="#DejaVuSans-Oblique-3d1"/>
       <use transform="translate(61.914062 -16.171875)scale(0.7)" xlink:href="#DejaVuSans-Oblique-72"/>
       <use transform="translate(90.693359 -16.171875)scale(0.7)" xlink:href="#DejaVuSans-Oblique-68"/>
       <use transform="translate(135.058594 -16.171875)scale(0.7)" xlink:href="#DejaVuSans-Oblique-65"/>
       <use transform="translate(178.125 -16.171875)scale(0.7)" xlink:href="#DejaVuSans-Oblique-6f"/>
      </g>
     </g>
    </g>
    <g id="xtick_3">
     <g id="line2d_3">
      <g>
       <use style="stroke:#000000;stroke-width:3;" x="423.119963" xlink:href="#m5dfdd6f90d" y="276.964"/>
      </g>
     </g>
     <g id="text_3">
      <!-- $u_{reset}$ -->
      <g transform="translate(398.619963 303.660875)scale(0.2 -0.2)">
       <use transform="translate(0 0.3125)" xlink:href="#DejaVuSans-Oblique-75"/>
       <use transform="translate(63.378906 -16.09375)scale(0.7)" xlink:href="#DejaVuSans-Oblique-72"/>
       <use transform="translate(92.158203 -16.09375)scale(0.7)" xlink:href="#DejaVuSans-Oblique-65"/>
       <use transform="translate(135.224609 -16.09375)scale(0.7)" xlink:href="#DejaVuSans-Oblique-73"/>
       <use transform="translate(171.694336 -16.09375)scale(0.7)" xlink:href="#DejaVuSans-Oblique-65"/>
       <use transform="translate(214.760742 -16.09375)scale(0.7)" xlink:href="#DejaVuSans-Oblique-74"/>
      </g>
     </g>
    </g>
    <g id="text_4">
     <!-- u -->
     <g transform="translate(246.21373 327.017125)scale(0.2 -0.2)">
      <defs>
       <path d="M 544 1381 
L 544 3500 
L 1119 3500 
L 1119 1403 
Q 1119 906 1312 657 
Q 1506 409 1894 409 
Q 2359 409 2629 706 
Q 2900 1003 2900 1516 
L 2900 3500 
L 3475 3500 
L 3475 0 
L 2900 0 
L 2900 538 
Q 2691 219 2414 64 
Q 2138 -91 1772 -91 
Q 1169 -91 856 284 
Q 544 659 544 1381 
z
M 1991 3584 
L 1991 3584 
z
" id="DejaVuSans-75" transform="scale(0.015625)"/>
      </defs>
      <use xlink:href="#DejaVuSans-75"/>
     </g>
    </g>
   </g>
   <g id="matplotlib.axis_2">
    <g id="ytick_1">
     <g id="line2d_4">
      <defs>
       <path d="M 0 0 
L -8 0 
" id="m3d6871d5c1" style="stroke:#000000;stroke-width:3;"/>
      </defs>
      <g>
       <use style="stroke:#000000;stroke-width:3;" x="59.24" xlink:href="#m3d6871d5c1" y="232.603333"/>
      </g>
     </g>
     <g id="text_5">
      <!-- 0 -->
      <g transform="translate(35.015 240.201771)scale(0.2 -0.2)">
       <defs>
        <path d="M 2034 4250 
Q 1547 4250 1301 3770 
Q 1056 3291 1056 2328 
Q 1056 1369 1301 889 
Q 1547 409 2034 409 
Q 2525 409 2770 889 
Q 3016 1369 3016 2328 
Q 3016 3291 2770 3770 
Q 2525 4250 2034 4250 
z
M 2034 4750 
Q 2819 4750 3233 4129 
Q 3647 3509 3647 2328 
Q 3647 1150 3233 529 
Q 2819 -91 2034 -91 
Q 1250 -91 836 529 
Q 422 1150 422 2328 
Q 422 3509 836 4129 
Q 1250 4750 2034 4750 
z
" id="DejaVuSans-30" transform="scale(0.015625)"/>
       </defs>
       <use xlink:href="#DejaVuSans-30"/>
      </g>
     </g>
    </g>
    <g id="text_6">
     <!-- du -->
     <g transform="translate(26.855625 156.567937)rotate(-90)scale(0.2 -0.2)">
      <defs>
       <path d="M 2906 2969 
L 2906 4863 
L 3481 4863 
L 3481 0 
L 2906 0 
L 2906 525 
Q 2725 213 2448 61 
Q 2172 -91 1784 -91 
Q 1150 -91 751 415 
Q 353 922 353 1747 
Q 353 2572 751 3078 
Q 1150 3584 1784 3584 
Q 2172 3584 2448 3432 
Q 2725 3281 2906 2969 
z
M 947 1747 
Q 947 1113 1208 752 
Q 1469 391 1925 391 
Q 2381 391 2643 752 
Q 2906 1113 2906 1747 
Q 2906 2381 2643 2742 
Q 2381 3103 1925 3103 
Q 1469 3103 1208 2742 
Q 947 2381 947 1747 
z
" id="DejaVuSans-64" transform="scale(0.015625)"/>
      </defs>
      <use xlink:href="#DejaVuSans-64"/>
      <use x="63.476562" xlink:href="#DejaVuSans-75"/>
     </g>
    </g>
   </g>
   <g id="line2d_5">
    <path clip-path="url(#p86bbbb4cdf)" d="M 59.24 230.383126 
L 62.915555 230.741349 
L 66.59111 231.099543 
L 70.266666 231.457707 
L 73.942221 231.815835 
L 77.617776 232.173925 
L 81.293331 232.531971 
L 84.968886 232.889969 
L 88.644441 233.247913 
L 92.319997 233.605797 
L 95.995552 233.963615 
L 99.671107 234.321359 
L 103.346662 234.67902 
L 107.022217 235.036589 
L 110.697773 235.394056 
L 114.373328 235.751408 
L 118.048883 236.108633 
L 121.724438 236.465717 
L 125.399993 236.822642 
L 129.075548 237.179393 
L 132.751104 237.535947 
L 136.426659 237.892284 
L 140.102214 238.248377 
L 143.777769 238.604201 
L 147.453324 238.959723 
L 151.12888 239.314911 
L 154.804435 239.669724 
L 158.47999 240.024122 
L 162.155545 240.378056 
L 165.8311 240.731475 
L 169.506655 241.084319 
L 173.182211 241.436522 
L 176.857766 241.788013 
L 180.533321 242.13871 
L 184.208876 242.488523 
L 187.884431 242.83735 
L 191.559987 243.185081 
L 195.235542 243.53159 
L 198.911097 243.876738 
L 202.586652 244.220371 
L 206.262207 244.562316 
L 209.937762 244.902381 
L 213.613318 245.240352 
L 217.288873 245.575991 
L 220.964428 245.909032 
L 224.639983 246.239181 
L 228.315538 246.566108 
L 231.991094 246.889447 
L 235.666649 247.208789 
L 239.342204 247.523679 
L 243.017759 247.833612 
L 246.693314 248.138024 
L 250.368869 248.436285 
L 254.044425 248.727697 
L 257.71998 249.01148 
L 261.395535 249.286766 
L 265.07109 249.55259 
L 268.746645 249.807873 
L 272.422201 250.051418 
L 276.097756 250.281889 
L 279.773311 250.497798 
L 283.448866 250.697489 
L 287.124421 250.879116 
L 290.799976 251.040626 
L 294.475532 251.179729 
L 298.151087 251.293876 
L 301.826642 251.380229 
L 305.502197 251.435624 
L 309.177752 251.456541 
L 312.853308 251.439057 
L 316.528863 251.378804 
L 320.204418 251.270915 
L 323.879973 251.109972 
L 327.555528 250.88994 
L 331.231083 250.604095 
L 334.906639 250.244951 
L 338.582194 249.80417 
L 342.257749 249.272464 
L 345.933304 248.639489 
L 349.608859 247.893724 
L 353.284415 247.022338 
L 356.95997 246.011041 
L 360.635525 244.843916 
L 364.31108 243.503234 
L 367.986635 241.969253 
L 371.66219 240.219981 
L 375.337746 238.230926 
L 379.013301 235.974811 
L 382.688856 233.421254 
L 386.364411 230.536416 
L 390.039966 227.282612 
L 393.715522 223.617864 
L 397.391077 219.495425 
L 401.066632 214.863226 
L 404.742187 209.663274 
L 408.417742 203.830982 
L 412.093297 197.294411 
L 415.768853 189.973442 
L 419.444408 181.778839 
L 423.119963 172.611216 
" style="fill:none;stroke:#000000;stroke-linecap:square;stroke-width:3;"/>
   </g>
   <g id="line2d_6">
    <path clip-path="url(#p86bbbb4cdf)" d="M 59.24 221.510993 
L 62.915555 221.869216 
L 66.59111 222.22741 
L 70.266666 222.585573 
L 73.942221 222.943702 
L 77.617776 223.301791 
L 81.293331 223.659837 
L 84.968886 224.017835 
L 88.644441 224.37578 
L 92.319997 224.733664 
L 95.995552 225.091482 
L 99.671107 225.449226 
L 103.346662 225.806887 
L 107.022217 226.164456 
L 110.697773 226.521922 
L 114.373328 226.879275 
L 118.048883 227.2365 
L 121.724438 227.593583 
L 125.399993 227.950509 
L 129.075548 228.307259 
L 132.751104 228.663814 
L 136.426659 229.02015 
L 140.102214 229.376244 
L 143.777769 229.732068 
L 147.453324 230.08759 
L 151.12888 230.442777 
L 154.804435 230.797591 
L 158.47999 231.151989 
L 162.155545 231.505923 
L 165.8311 231.859341 
L 169.506655 232.212185 
L 173.182211 232.564389 
L 176.857766 232.91588 
L 180.533321 233.266577 
L 184.208876 233.616389 
L 187.884431 233.965217 
L 191.559987 234.312948 
L 195.235542 234.659457 
L 198.911097 235.004605 
L 202.586652 235.348238 
L 206.262207 235.690182 
L 209.937762 236.030247 
L 213.613318 236.368218 
L 217.288873 236.703857 
L 220.964428 237.036899 
L 224.639983 237.367048 
L 228.315538 237.693975 
L 231.991094 238.017313 
L 235.666649 238.336655 
L 239.342204 238.651546 
L 243.017759 238.961479 
L 246.693314 239.26589 
L 250.368869 239.564152 
L 254.044425 239.855563 
L 257.71998 240.139346 
L 261.395535 240.414633 
L 265.07109 240.680456 
L 268.746645 240.93574 
L 272.422201 241.179285 
L 276.097756 241.409755 
L 279.773311 241.625664 
L 283.448866 241.825355 
L 287.124421 242.006983 
L 290.799976 242.168493 
L 294.475532 242.307596 
L 298.151087 242.421743 
L 301.826642 242.508096 
L 305.502197 242.563491 
L 309.177752 242.584408 
L 312.853308 242.566924 
L 316.528863 242.506671 
L 320.204418 242.398782 
L 323.879973 242.237839 
L 327.555528 242.017806 
L 331.231083 241.731962 
L 334.906639 241.372818 
L 338.582194 240.932037 
L 342.257749 240.40033 
L 345.933304 239.767355 
L 349.608859 239.02159 
L 353.284415 238.150205 
L 356.95997 237.138908 
L 360.635525 235.971782 
L 364.31108 234.631101 
L 367.986635 233.097119 
L 371.66219 231.347847 
L 375.337746 229.358793 
L 379.013301 227.102678 
L 382.688856 224.549121 
L 386.364411 221.664283 
L 390.039966 218.410478 
L 393.715522 214.745731 
L 397.391077 210.623292 
L 401.066632 205.991093 
L 404.742187 200.791141 
L 408.417742 194.958848 
L 412.093297 188.422278 
L 415.768853 181.101309 
L 419.444408 172.906706 
L 423.119963 163.739082 
" style="fill:none;stroke:#404040;stroke-linecap:square;stroke-width:3;"/>
   </g>
   <g id="line2d_7">
    <path clip-path="url(#p86bbbb4cdf)" d="M 59.24 212.638859 
L 62.915555 212.997082 
L 66.59111 213.355277 
L 70.266666 213.71344 
L 73.942221 214.071568 
L 77.617776 214.429658 
L 81.293331 214.787704 
L 84.968886 215.145702 
L 88.644441 215.503646 
L 92.319997 215.861531 
L 95.995552 216.219349 
L 99.671107 216.577092 
L 103.346662 216.934753 
L 107.022217 217.292322 
L 110.697773 217.649789 
L 114.373328 218.007141 
L 118.048883 218.364366 
L 121.724438 218.72145 
L 125.399993 219.078376 
L 129.075548 219.435126 
L 132.751104 219.79168 
L 136.426659 220.148017 
L 140.102214 220.504111 
L 143.777769 220.859934 
L 147.453324 221.215457 
L 151.12888 221.570644 
L 154.804435 221.925458 
L 158.47999 222.279855 
L 162.155545 222.63379 
L 165.8311 222.987208 
L 169.506655 223.340052 
L 173.182211 223.692256 
L 176.857766 224.043746 
L 180.533321 224.394443 
L 184.208876 224.744256 
L 187.884431 225.093084 
L 191.559987 225.440814 
L 195.235542 225.787323 
L 198.911097 226.132471 
L 202.586652 226.476104 
L 206.262207 226.818049 
L 209.937762 227.158114 
L 213.613318 227.496085 
L 217.288873 227.831724 
L 220.964428 228.164766 
L 224.639983 228.494915 
L 228.315538 228.821842 
L 231.991094 229.14518 
L 235.666649 229.464522 
L 239.342204 229.779413 
L 243.017759 230.089346 
L 246.693314 230.393757 
L 250.368869 230.692018 
L 254.044425 230.98343 
L 257.71998 231.267213 
L 261.395535 231.5425 
L 265.07109 231.808323 
L 268.746645 232.063607 
L 272.422201 232.307151 
L 276.097756 232.537622 
L 279.773311 232.753531 
L 283.448866 232.953222 
L 287.124421 233.13485 
L 290.799976 233.29636 
L 294.475532 233.435463 
L 298.151087 233.54961 
L 301.826642 233.635962 
L 305.502197 233.691358 
L 309.177752 233.712275 
L 312.853308 233.694791 
L 316.528863 233.634537 
L 320.204418 233.526649 
L 323.879973 233.365706 
L 327.555528 233.145673 
L 331.231083 232.859828 
L 334.906639 232.500685 
L 338.582194 232.059903 
L 342.257749 231.528197 
L 345.933304 230.895222 
L 349.608859 230.149457 
L 353.284415 229.278072 
L 356.95997 228.266775 
L 360.635525 227.099649 
L 364.31108 225.758968 
L 367.986635 224.224986 
L 371.66219 222.475714 
L 375.337746 220.48666 
L 379.013301 218.230545 
L 382.688856 215.676987 
L 386.364411 212.79215 
L 390.039966 209.538345 
L 393.715522 205.873598 
L 397.391077 201.751159 
L 401.066632 197.118959 
L 404.742187 191.919008 
L 408.417742 186.086715 
L 412.093297 179.550144 
L 415.768853 172.229175 
L 419.444408 164.034573 
L 423.119963 154.866949 
" style="fill:none;stroke:#7a7a7a;stroke-linecap:square;stroke-width:3;"/>
   </g>
   <g id="line2d_8">
    <path clip-path="url(#p86bbbb4cdf)" d="M 59.24 203.766726 
L 62.915555 204.124949 
L 66.59111 204.483143 
L 70.266666 204.841307 
L 73.942221 205.199435 
L 77.617776 205.557525 
L 81.293331 205.915571 
L 84.968886 206.273569 
L 88.644441 206.631513 
L 92.319997 206.989397 
L 95.995552 207.347215 
L 99.671107 207.704959 
L 103.346662 208.06262 
L 107.022217 208.420189 
L 110.697773 208.777656 
L 114.373328 209.135008 
L 118.048883 209.492233 
L 121.724438 209.849317 
L 125.399993 210.206242 
L 129.075548 210.562993 
L 132.751104 210.919547 
L 136.426659 211.275884 
L 140.102214 211.631977 
L 143.777769 211.987801 
L 147.453324 212.343323 
L 151.12888 212.698511 
L 154.804435 213.053324 
L 158.47999 213.407722 
L 162.155545 213.761656 
L 165.8311 214.115075 
L 169.506655 214.467919 
L 173.182211 214.820122 
L 176.857766 215.171613 
L 180.533321 215.52231 
L 184.208876 215.872123 
L 187.884431 216.22095 
L 191.559987 216.568681 
L 195.235542 216.91519 
L 198.911097 217.260338 
L 202.586652 217.603971 
L 206.262207 217.945916 
L 209.937762 218.285981 
L 213.613318 218.623952 
L 217.288873 218.959591 
L 220.964428 219.292632 
L 224.639983 219.622781 
L 228.315538 219.949708 
L 231.991094 220.273047 
L 235.666649 220.592389 
L 239.342204 220.907279 
L 243.017759 221.217212 
L 246.693314 221.521624 
L 250.368869 221.819885 
L 254.044425 222.111297 
L 257.71998 222.39508 
L 261.395535 222.670366 
L 265.07109 222.93619 
L 268.746645 223.191473 
L 272.422201 223.435018 
L 276.097756 223.665489 
L 279.773311 223.881398 
L 283.448866 224.081089 
L 287.124421 224.262716 
L 290.799976 224.424226 
L 294.475532 224.563329 
L 298.151087 224.677476 
L 301.826642 224.763829 
L 305.502197 224.819224 
L 309.177752 224.840141 
L 312.853308 224.822657 
L 316.528863 224.762404 
L 320.204418 224.654515 
L 323.879973 224.493572 
L 327.555528 224.27354 
L 331.231083 223.987695 
L 334.906639 223.628551 
L 338.582194 223.18777 
L 342.257749 222.656064 
L 345.933304 222.023089 
L 349.608859 221.277324 
L 353.284415 220.405938 
L 356.95997 219.394641 
L 360.635525 218.227516 
L 364.31108 216.886834 
L 367.986635 215.352853 
L 371.66219 213.603581 
L 375.337746 211.614526 
L 379.013301 209.358411 
L 382.688856 206.804854 
L 386.364411 203.920016 
L 390.039966 200.666212 
L 393.715522 197.001464 
L 397.391077 192.879025 
L 401.066632 188.246826 
L 404.742187 183.046874 
L 408.417742 177.214582 
L 412.093297 170.678011 
L 415.768853 163.357042 
L 419.444408 155.162439 
L 423.119963 145.994816 
" style="fill:none;stroke:#b5b5b5;stroke-linecap:square;stroke-width:3;"/>
   </g>
   <g id="line2d_9">
    <path clip-path="url(#p86bbbb4cdf)" d="M 59.24 194.894593 
L 62.915555 195.252816 
L 66.59111 195.61101 
L 70.266666 195.969173 
L 73.942221 196.327302 
L 77.617776 196.685391 
L 81.293331 197.043437 
L 84.968886 197.401435 
L 88.644441 197.75938 
L 92.319997 198.117264 
L 95.995552 198.475082 
L 99.671107 198.832826 
L 103.346662 199.190487 
L 107.022217 199.548056 
L 110.697773 199.905522 
L 114.373328 200.262875 
L 118.048883 200.6201 
L 121.724438 200.977183 
L 125.399993 201.334109 
L 129.075548 201.690859 
L 132.751104 202.047414 
L 136.426659 202.40375 
L 140.102214 202.759844 
L 143.777769 203.115668 
L 147.453324 203.47119 
L 151.12888 203.826377 
L 154.804435 204.181191 
L 158.47999 204.535589 
L 162.155545 204.889523 
L 165.8311 205.242941 
L 169.506655 205.595785 
L 173.182211 205.947989 
L 176.857766 206.29948 
L 180.533321 206.650177 
L 184.208876 206.999989 
L 187.884431 207.348817 
L 191.559987 207.696548 
L 195.235542 208.043057 
L 198.911097 208.388205 
L 202.586652 208.731838 
L 206.262207 209.073782 
L 209.937762 209.413847 
L 213.613318 209.751818 
L 217.288873 210.087457 
L 220.964428 210.420499 
L 224.639983 210.750648 
L 228.315538 211.077575 
L 231.991094 211.400913 
L 235.666649 211.720255 
L 239.342204 212.035146 
L 243.017759 212.345079 
L 246.693314 212.64949 
L 250.368869 212.947752 
L 254.044425 213.239163 
L 257.71998 213.522946 
L 261.395535 213.798233 
L 265.07109 214.064056 
L 268.746645 214.31934 
L 272.422201 214.562885 
L 276.097756 214.793355 
L 279.773311 215.009264 
L 283.448866 215.208955 
L 287.124421 215.390583 
L 290.799976 215.552093 
L 294.475532 215.691196 
L 298.151087 215.805343 
L 301.826642 215.891696 
L 305.502197 215.947091 
L 309.177752 215.968008 
L 312.853308 215.950524 
L 316.528863 215.890271 
L 320.204418 215.782382 
L 323.879973 215.621439 
L 327.555528 215.401406 
L 331.231083 215.115562 
L 334.906639 214.756418 
L 338.582194 214.315637 
L 342.257749 213.78393 
L 345.933304 213.150955 
L 349.608859 212.40519 
L 353.284415 211.533805 
L 356.95997 210.522508 
L 360.635525 209.355382 
L 364.31108 208.014701 
L 367.986635 206.480719 
L 371.66219 204.731447 
L 375.337746 202.742393 
L 379.013301 200.486278 
L 382.688856 197.932721 
L 386.364411 195.047883 
L 390.039966 191.794078 
L 393.715522 188.129331 
L 397.391077 184.006892 
L 401.066632 179.374693 
L 404.742187 174.174741 
L 408.417742 168.342448 
L 412.093297 161.805878 
L 415.768853 154.484909 
L 419.444408 146.290306 
L 423.119963 137.122682 
" style="fill:none;stroke:#e2e2e2;stroke-linecap:square;stroke-width:3;"/>
   </g>
   <g id="line2d_10">
    <path clip-path="url(#p86bbbb4cdf)" d="M 59.24 186.022459 
L 62.915555 186.380682 
L 66.59111 186.738877 
L 70.266666 187.09704 
L 73.942221 187.455168 
L 77.617776 187.813258 
L 81.293331 188.171304 
L 84.968886 188.529302 
L 88.644441 188.887246 
L 92.319997 189.245131 
L 95.995552 189.602949 
L 99.671107 189.960692 
L 103.346662 190.318353 
L 107.022217 190.675922 
L 110.697773 191.033389 
L 114.373328 191.390741 
L 118.048883 191.747966 
L 121.724438 192.10505 
L 125.399993 192.461976 
L 129.075548 192.818726 
L 132.751104 193.17528 
L 136.426659 193.531617 
L 140.102214 193.887711 
L 143.777769 194.243534 
L 147.453324 194.599057 
L 151.12888 194.954244 
L 154.804435 195.309058 
L 158.47999 195.663455 
L 162.155545 196.01739 
L 165.8311 196.370808 
L 169.506655 196.723652 
L 173.182211 197.075856 
L 176.857766 197.427346 
L 180.533321 197.778043 
L 184.208876 198.127856 
L 187.884431 198.476684 
L 191.559987 198.824414 
L 195.235542 199.170923 
L 198.911097 199.516071 
L 202.586652 199.859704 
L 206.262207 200.201649 
L 209.937762 200.541714 
L 213.613318 200.879685 
L 217.288873 201.215324 
L 220.964428 201.548366 
L 224.639983 201.878515 
L 228.315538 202.205442 
L 231.991094 202.52878 
L 235.666649 202.848122 
L 239.342204 203.163013 
L 243.017759 203.472946 
L 246.693314 203.777357 
L 250.368869 204.075618 
L 254.044425 204.36703 
L 257.71998 204.650813 
L 261.395535 204.9261 
L 265.07109 205.191923 
L 268.746645 205.447207 
L 272.422201 205.690751 
L 276.097756 205.921222 
L 279.773311 206.137131 
L 283.448866 206.336822 
L 287.124421 206.51845 
L 290.799976 206.67996 
L 294.475532 206.819063 
L 298.151087 206.93321 
L 301.826642 207.019562 
L 305.502197 207.074958 
L 309.177752 207.095875 
L 312.853308 207.078391 
L 316.528863 207.018137 
L 320.204418 206.910249 
L 323.879973 206.749306 
L 327.555528 206.529273 
L 331.231083 206.243428 
L 334.906639 205.884285 
L 338.582194 205.443503 
L 342.257749 204.911797 
L 345.933304 204.278822 
L 349.608859 203.533057 
L 353.284415 202.661672 
L 356.95997 201.650375 
L 360.635525 200.483249 
L 364.31108 199.142568 
L 367.986635 197.608586 
L 371.66219 195.859314 
L 375.337746 193.87026 
L 379.013301 191.614145 
L 382.688856 189.060587 
L 386.364411 186.17575 
L 390.039966 182.921945 
L 393.715522 179.257198 
L 397.391077 175.134759 
L 401.066632 170.502559 
L 404.742187 165.302608 
L 408.417742 159.470315 
L 412.093297 152.933744 
L 415.768853 145.612775 
L 419.444408 137.418173 
L 423.119963 128.250549 
" style="fill:none;stroke:#ffffff;stroke-linecap:square;stroke-width:3;"/>
   </g>
   <g id="line2d_11">
    <path clip-path="url(#p86bbbb4cdf)" d="M 423.119963 276.964 
L 423.119963 10.8 
" style="fill:none;stroke:#000000;stroke-dasharray:3,4.95;stroke-dashoffset:0;stroke-width:3;"/>
   </g>
   <g id="line2d_12">
    <path clip-path="url(#p86bbbb4cdf)" d="M 59.24 232.603333 
L 445.862461 232.603333 
" style="fill:none;stroke:#000000;stroke-dasharray:11.1,4.8;stroke-dashoffset:0;stroke-width:3;"/>
   </g>
   <g id="patch_3">
    <path d="M 59.24 276.964 
L 59.24 10.8 
" style="fill:none;stroke:#000000;stroke-linecap:square;stroke-linejoin:miter;stroke-width:3;"/>
   </g>
   <g id="patch_4">
    <path d="M 59.24 276.964 
L 445.862461 276.964 
" style="fill:none;stroke:#000000;stroke-linecap:square;stroke-linejoin:miter;stroke-width:3;"/>
   </g>
   <g id="legend_1">
    <g id="patch_5">
     <path d="M 66.24 77.5125 
L 154.40875 77.5125 
Q 156.40875 77.5125 156.40875 75.5125 
L 156.40875 17.8 
Q 156.40875 15.8 154.40875 15.8 
L 66.24 15.8 
Q 64.24 15.8 64.24 17.8 
L 64.24 75.5125 
Q 64.24 77.5125 66.24 77.5125 
z
" style="fill:#ffffff;opacity:0.8;stroke:#cccccc;stroke-linejoin:miter;"/>
    </g>
    <g id="text_7">
     <!-- $I$ -->
     <g transform="translate(108.824375 27.398438)scale(0.1 -0.1)">
      <defs>
       <path d="M 1081 4666 
L 1716 4666 
L 806 0 
L 172 0 
L 1081 4666 
z
" id="DejaVuSans-Oblique-49" transform="scale(0.015625)"/>
      </defs>
      <use transform="translate(0 0.09375)" xlink:href="#DejaVuSans-Oblique-49"/>
     </g>
    </g>
    <g id="line2d_13">
     <path d="M 68.24 38.576563 
L 73.24 38.576563 
" style="fill:none;stroke:#000000;stroke-linecap:square;stroke-width:3;"/>
    </g>
    <g id="line2d_14"/>
    <g id="text_8">
     <!-- 0.0 -->
     <g transform="translate(81.24 42.076563)scale(0.1 -0.1)">
      <defs>
       <path d="M 684 794 
L 1344 794 
L 1344 0 
L 684 0 
L 684 794 
z
" id="DejaVuSans-2e" transform="scale(0.015625)"/>
      </defs>
      <use xlink:href="#DejaVuSans-30"/>
      <use x="63.623047" xlink:href="#DejaVuSans-2e"/>
      <use x="95.410156" xlink:href="#DejaVuSans-30"/>
     </g>
    </g>
    <g id="line2d_15">
     <path d="M 68.24 53.254688 
L 73.24 53.254688 
" style="fill:none;stroke:#404040;stroke-linecap:square;stroke-width:3;"/>
    </g>
    <g id="line2d_16"/>
    <g id="text_9">
     <!-- 4.0 -->
     <g transform="translate(81.24 56.754688)scale(0.1 -0.1)">
      <defs>
       <path d="M 2419 4116 
L 825 1625 
L 2419 1625 
L 2419 4116 
z
M 2253 4666 
L 3047 4666 
L 3047 1625 
L 3713 1625 
L 3713 1100 
L 3047 1100 
L 3047 0 
L 2419 0 
L 2419 1100 
L 313 1100 
L 313 1709 
L 2253 4666 
z
" id="DejaVuSans-34" transform="scale(0.015625)"/>
      </defs>
      <use xlink:href="#DejaVuSans-34"/>
      <use x="63.623047" xlink:href="#DejaVuSans-2e"/>
      <use x="95.410156" xlink:href="#DejaVuSans-30"/>
     </g>
    </g>
    <g id="line2d_17">
     <path d="M 68.24 67.932813 
L 73.24 67.932813 
" style="fill:none;stroke:#7a7a7a;stroke-linecap:square;stroke-width:3;"/>
    </g>
    <g id="line2d_18"/>
    <g id="text_10">
     <!-- 8.0 -->
     <g transform="translate(81.24 71.432813)scale(0.1 -0.1)">
      <defs>
       <path d="M 2034 2216 
Q 1584 2216 1326 1975 
Q 1069 1734 1069 1313 
Q 1069 891 1326 650 
Q 1584 409 2034 409 
Q 2484 409 2743 651 
Q 3003 894 3003 1313 
Q 3003 1734 2745 1975 
Q 2488 2216 2034 2216 
z
M 1403 2484 
Q 997 2584 770 2862 
Q 544 3141 544 3541 
Q 544 4100 942 4425 
Q 1341 4750 2034 4750 
Q 2731 4750 3128 4425 
Q 3525 4100 3525 3541 
Q 3525 3141 3298 2862 
Q 3072 2584 2669 2484 
Q 3125 2378 3379 2068 
Q 3634 1759 3634 1313 
Q 3634 634 3220 271 
Q 2806 -91 2034 -91 
Q 1263 -91 848 271 
Q 434 634 434 1313 
Q 434 1759 690 2068 
Q 947 2378 1403 2484 
z
M 1172 3481 
Q 1172 3119 1398 2916 
Q 1625 2713 2034 2713 
Q 2441 2713 2670 2916 
Q 2900 3119 2900 3481 
Q 2900 3844 2670 4047 
Q 2441 4250 2034 4250 
Q 1625 4250 1398 4047 
Q 1172 3844 1172 3481 
z
" id="DejaVuSans-38" transform="scale(0.015625)"/>
      </defs>
      <use xlink:href="#DejaVuSans-38"/>
      <use x="63.623047" xlink:href="#DejaVuSans-2e"/>
      <use x="95.410156" xlink:href="#DejaVuSans-30"/>
     </g>
    </g>
    <g id="line2d_19">
     <path d="M 117.143125 38.576563 
L 122.143125 38.576563 
" style="fill:none;stroke:#b5b5b5;stroke-linecap:square;stroke-width:3;"/>
    </g>
    <g id="line2d_20"/>
    <g id="text_11">
     <!-- 12.0 -->
     <g transform="translate(130.143125 42.076563)scale(0.1 -0.1)">
      <defs>
       <path d="M 794 531 
L 1825 531 
L 1825 4091 
L 703 3866 
L 703 4441 
L 1819 4666 
L 2450 4666 
L 2450 531 
L 3481 531 
L 3481 0 
L 794 0 
L 794 531 
z
" id="DejaVuSans-31" transform="scale(0.015625)"/>
       <path d="M 1228 531 
L 3431 531 
L 3431 0 
L 469 0 
L 469 531 
Q 828 903 1448 1529 
Q 2069 2156 2228 2338 
Q 2531 2678 2651 2914 
Q 2772 3150 2772 3378 
Q 2772 3750 2511 3984 
Q 2250 4219 1831 4219 
Q 1534 4219 1204 4116 
Q 875 4013 500 3803 
L 500 4441 
Q 881 4594 1212 4672 
Q 1544 4750 1819 4750 
Q 2544 4750 2975 4387 
Q 3406 4025 3406 3419 
Q 3406 3131 3298 2873 
Q 3191 2616 2906 2266 
Q 2828 2175 2409 1742 
Q 1991 1309 1228 531 
z
" id="DejaVuSans-32" transform="scale(0.015625)"/>
      </defs>
      <use xlink:href="#DejaVuSans-31"/>
      <use x="63.623047" xlink:href="#DejaVuSans-32"/>
      <use x="127.246094" xlink:href="#DejaVuSans-2e"/>
      <use x="159.033203" xlink:href="#DejaVuSans-30"/>
     </g>
    </g>
    <g id="line2d_21">
     <path d="M 117.143125 53.254688 
L 122.143125 53.254688 
" style="fill:none;stroke:#e2e2e2;stroke-linecap:square;stroke-width:3;"/>
    </g>
    <g id="line2d_22"/>
    <g id="text_12">
     <!-- 16.0 -->
     <g transform="translate(130.143125 56.754688)scale(0.1 -0.1)">
      <defs>
       <path d="M 2113 2584 
Q 1688 2584 1439 2293 
Q 1191 2003 1191 1497 
Q 1191 994 1439 701 
Q 1688 409 2113 409 
Q 2538 409 2786 701 
Q 3034 994 3034 1497 
Q 3034 2003 2786 2293 
Q 2538 2584 2113 2584 
z
M 3366 4563 
L 3366 3988 
Q 3128 4100 2886 4159 
Q 2644 4219 2406 4219 
Q 1781 4219 1451 3797 
Q 1122 3375 1075 2522 
Q 1259 2794 1537 2939 
Q 1816 3084 2150 3084 
Q 2853 3084 3261 2657 
Q 3669 2231 3669 1497 
Q 3669 778 3244 343 
Q 2819 -91 2113 -91 
Q 1303 -91 875 529 
Q 447 1150 447 2328 
Q 447 3434 972 4092 
Q 1497 4750 2381 4750 
Q 2619 4750 2861 4703 
Q 3103 4656 3366 4563 
z
" id="DejaVuSans-36" transform="scale(0.015625)"/>
      </defs>
      <use xlink:href="#DejaVuSans-31"/>
      <use x="63.623047" xlink:href="#DejaVuSans-36"/>
      <use x="127.246094" xlink:href="#DejaVuSans-2e"/>
      <use x="159.033203" xlink:href="#DejaVuSans-30"/>
     </g>
    </g>
    <g id="line2d_23">
     <path d="M 117.143125 67.932813 
L 122.143125 67.932813 
" style="fill:none;stroke:#ffffff;stroke-linecap:square;stroke-width:3;"/>
    </g>
    <g id="line2d_24"/>
    <g id="text_13">
     <!-- 20.0 -->
     <g transform="translate(130.143125 71.432813)scale(0.1 -0.1)">
      <use xlink:href="#DejaVuSans-32"/>
      <use x="63.623047" xlink:href="#DejaVuSans-30"/>
      <use x="127.246094" xlink:href="#DejaVuSans-2e"/>
      <use x="159.033203" xlink:href="#DejaVuSans-30"/>
     </g>
    </g>
   </g>
  </g>
 </g>
 <defs>
  <clipPath id="p86bbbb4cdf">
   <rect height="266.164" width="386.622461" x="59.24" y="10.8"/>
  </clipPath>
 </defs>
</svg>
