<?xml version="1.0" encoding="utf-8" standalone="no"?>
<!DOCTYPE svg PUBLIC "-//W3C//DTD SVG 1.1//EN"
  "http://www.w3.org/Graphics/SVG/1.1/DTD/svg11.dtd">
<svg height="345.6pt" version="1.1" viewBox="0 0 460.8 345.6" width="460.8pt" xmlns="http://www.w3.org/2000/svg" xmlns:xlink="http://www.w3.org/1999/xlink">
 <metadata>
  <rdf:RDF xmlns:cc="http://creativecommons.org/ns#" xmlns:dc="http://purl.org/dc/elements/1.1/" xmlns:rdf="http://www.w3.org/1999/02/22-rdf-syntax-ns#">
   <cc:Work>
    <dc:type rdf:resource="http://purl.org/dc/dcmitype/StillImage"/>
    <dc:date>2022-07-20T14:03:23.347985</dc:date>
    <dc:format>image/svg+xml</dc:format>
    <dc:creator>
     <cc:Agent>
      <dc:title>Matplotlib v3.4.2, https://matplotlib.org/</dc:title>
     </cc:Agent>
    </dc:creator>
   </cc:Work>
  </rdf:RDF>
 </metadata>
 <defs>
  <style type="text/css">*{stroke-linecap:butt;stroke-linejoin:round;}</style>
 </defs>
 <g id="figure_1">
  <g id="patch_1">
   <path d="M 0 345.6 
L 460.8 345.6 
L 460.8 0 
L 0 0 
z
" style="fill:#ffffff;"/>
  </g>
  <g id="axes_1">
   <g id="patch_2">
    <path d="M 59.24 278.98 
L 450 278.98 
L 450 10.8 
L 59.24 10.8 
z
" style="fill:#ffffff;"/>
   </g>
   <g id="matplotlib.axis_1">
    <g id="xtick_1">
     <g id="line2d_1">
      <defs>
       <path d="M 0 0 
L 0 8 
" id="m431048cf7f" style="stroke:#000000;stroke-width:3;"/>
      </defs>
      <g>
       <use style="stroke:#000000;stroke-width:3;" x="91.803333" xlink:href="#m431048cf7f" y="278.98"/>
      </g>
     </g>
     <g id="text_1">
      <!-- $u_{rest}$ -->
      <g transform="translate(71.603333 305.676875)scale(0.2 -0.2)">
       <defs>
        <path d="M 428 1388 
L 838 3500 
L 1416 3500 
L 1006 1409 
Q 975 1256 961 1147 
Q 947 1038 947 966 
Q 947 700 1109 554 
Q 1272 409 1569 409 
Q 2031 409 2368 721 
Q 2706 1034 2809 1563 
L 3194 3500 
L 3769 3500 
L 3091 0 
L 2516 0 
L 2631 550 
Q 2388 244 2052 76 
Q 1716 -91 1338 -91 
Q 878 -91 622 161 
Q 366 413 366 863 
Q 366 956 381 1097 
Q 397 1238 428 1388 
z
" id="DejaVuSans-Oblique-75" transform="scale(0.015625)"/>
        <path d="M 2853 2969 
Q 2766 3016 2653 3041 
Q 2541 3066 2413 3066 
Q 1953 3066 1609 2717 
Q 1266 2369 1153 1784 
L 800 0 
L 225 0 
L 909 3500 
L 1484 3500 
L 1375 2956 
Q 1603 3259 1920 3421 
Q 2238 3584 2597 3584 
Q 2691 3584 2781 3573 
Q 2872 3563 2963 3538 
L 2853 2969 
z
" id="DejaVuSans-Oblique-72" transform="scale(0.015625)"/>
        <path d="M 3078 2063 
Q 3088 2113 3092 2166 
Q 3097 2219 3097 2272 
Q 3097 2653 2873 2875 
Q 2650 3097 2266 3097 
Q 1838 3097 1509 2826 
Q 1181 2556 1013 2059 
L 3078 2063 
z
M 3578 1613 
L 903 1613 
Q 884 1494 878 1425 
Q 872 1356 872 1306 
Q 872 872 1139 634 
Q 1406 397 1894 397 
Q 2269 397 2603 481 
Q 2938 566 3225 728 
L 3116 159 
Q 2806 34 2476 -28 
Q 2147 -91 1806 -91 
Q 1078 -91 686 257 
Q 294 606 294 1247 
Q 294 1794 489 2264 
Q 684 2734 1063 3103 
Q 1306 3334 1642 3459 
Q 1978 3584 2356 3584 
Q 2950 3584 3301 3228 
Q 3653 2872 3653 2272 
Q 3653 2128 3634 1964 
Q 3616 1800 3578 1613 
z
" id="DejaVuSans-Oblique-65" transform="scale(0.015625)"/>
        <path d="M 3200 3397 
L 3091 2853 
Q 2863 2978 2609 3040 
Q 2356 3103 2088 3103 
Q 1634 3103 1373 2948 
Q 1113 2794 1113 2528 
Q 1113 2219 1719 2053 
Q 1766 2041 1788 2034 
L 1972 1978 
Q 2547 1819 2739 1644 
Q 2931 1469 2931 1166 
Q 2931 609 2489 259 
Q 2047 -91 1331 -91 
Q 1053 -91 747 -37 
Q 441 16 72 128 
L 184 722 
Q 500 559 806 475 
Q 1113 391 1394 391 
Q 1816 391 2080 572 
Q 2344 753 2344 1031 
Q 2344 1331 1650 1516 
L 1591 1531 
L 1394 1581 
Q 956 1697 753 1886 
Q 550 2075 550 2369 
Q 550 2928 970 3256 
Q 1391 3584 2113 3584 
Q 2397 3584 2667 3537 
Q 2938 3491 3200 3397 
z
" id="DejaVuSans-Oblique-73" transform="scale(0.015625)"/>
        <path d="M 2706 3500 
L 2619 3053 
L 1472 3053 
L 1100 1153 
Q 1081 1047 1072 975 
Q 1063 903 1063 863 
Q 1063 663 1183 572 
Q 1303 481 1569 481 
L 2150 481 
L 2053 0 
L 1503 0 
Q 991 0 739 200 
Q 488 400 488 806 
Q 488 878 497 964 
Q 506 1050 525 1153 
L 897 3053 
L 409 3053 
L 500 3500 
L 978 3500 
L 1172 4494 
L 1747 4494 
L 1556 3500 
L 2706 3500 
z
" id="DejaVuSans-Oblique-74" transform="scale(0.015625)"/>
       </defs>
       <use transform="translate(0 0.3125)" xlink:href="#DejaVuSans-Oblique-75"/>
       <use transform="translate(63.378906 -16.09375)scale(0.7)" xlink:href="#DejaVuSans-Oblique-72"/>
       <use transform="translate(92.158203 -16.09375)scale(0.7)" xlink:href="#DejaVuSans-Oblique-65"/>
       <use transform="translate(135.224609 -16.09375)scale(0.7)" xlink:href="#DejaVuSans-Oblique-73"/>
       <use transform="translate(171.694336 -16.09375)scale(0.7)" xlink:href="#DejaVuSans-Oblique-74"/>
      </g>
     </g>
    </g>
    <g id="xtick_2">
     <g id="line2d_2">
      <g>
       <use style="stroke:#000000;stroke-width:3;" x="417.436667" xlink:href="#m431048cf7f" y="278.98"/>
      </g>
     </g>
     <g id="text_2">
      <!-- $u_{reset}$ -->
      <g transform="translate(392.936667 305.676875)scale(0.2 -0.2)">
       <use transform="translate(0 0.3125)" xlink:href="#DejaVuSans-Oblique-75"/>
       <use transform="translate(63.378906 -16.09375)scale(0.7)" xlink:href="#DejaVuSans-Oblique-72"/>
       <use transform="translate(92.158203 -16.09375)scale(0.7)" xlink:href="#DejaVuSans-Oblique-65"/>
       <use transform="translate(135.224609 -16.09375)scale(0.7)" xlink:href="#DejaVuSans-Oblique-73"/>
       <use transform="translate(171.694336 -16.09375)scale(0.7)" xlink:href="#DejaVuSans-Oblique-65"/>
       <use transform="translate(214.760742 -16.09375)scale(0.7)" xlink:href="#DejaVuSans-Oblique-74"/>
      </g>
     </g>
    </g>
    <g id="text_3">
     <!-- u -->
     <g transform="translate(248.2825 329.033125)scale(0.2 -0.2)">
      <defs>
       <path d="M 544 1381 
L 544 3500 
L 1119 3500 
L 1119 1403 
Q 1119 906 1312 657 
Q 1506 409 1894 409 
Q 2359 409 2629 706 
Q 2900 1003 2900 1516 
L 2900 3500 
L 3475 3500 
L 3475 0 
L 2900 0 
L 2900 538 
Q 2691 219 2414 64 
Q 2138 -91 1772 -91 
Q 1169 -91 856 284 
Q 544 659 544 1381 
z
M 1991 3584 
L 1991 3584 
z
" id="DejaVuSans-75" transform="scale(0.015625)"/>
      </defs>
      <use xlink:href="#DejaVuSans-75"/>
     </g>
    </g>
   </g>
   <g id="matplotlib.axis_2">
    <g id="ytick_1">
     <g id="line2d_3">
      <defs>
       <path d="M 0 0 
L -8 0 
" id="m82d0032e1d" style="stroke:#000000;stroke-width:3;"/>
      </defs>
      <g>
       <use style="stroke:#000000;stroke-width:3;" x="59.24" xlink:href="#m82d0032e1d" y="234.283333"/>
      </g>
     </g>
     <g id="text_4">
      <!-- 0 -->
      <g transform="translate(35.015 241.881771)scale(0.2 -0.2)">
       <defs>
        <path d="M 2034 4250 
Q 1547 4250 1301 3770 
Q 1056 3291 1056 2328 
Q 1056 1369 1301 889 
Q 1547 409 2034 409 
Q 2525 409 2770 889 
Q 3016 1369 3016 2328 
Q 3016 3291 2770 3770 
Q 2525 4250 2034 4250 
z
M 2034 4750 
Q 2819 4750 3233 4129 
Q 3647 3509 3647 2328 
Q 3647 1150 3233 529 
Q 2819 -91 2034 -91 
Q 1250 -91 836 529 
Q 422 1150 422 2328 
Q 422 3509 836 4129 
Q 1250 4750 2034 4750 
z
" id="DejaVuSans-30" transform="scale(0.015625)"/>
       </defs>
       <use xlink:href="#DejaVuSans-30"/>
      </g>
     </g>
    </g>
    <g id="text_5">
     <!-- du -->
     <g transform="translate(26.855625 157.575937)rotate(-90)scale(0.2 -0.2)">
      <defs>
       <path d="M 2906 2969 
L 2906 4863 
L 3481 4863 
L 3481 0 
L 2906 0 
L 2906 525 
Q 2725 213 2448 61 
Q 2172 -91 1784 -91 
Q 1150 -91 751 415 
Q 353 922 353 1747 
Q 353 2572 751 3078 
Q 1150 3584 1784 3584 
Q 2172 3584 2448 3432 
Q 2725 3281 2906 2969 
z
M 947 1747 
Q 947 1113 1208 752 
Q 1469 391 1925 391 
Q 2381 391 2643 752 
Q 2906 1113 2906 1747 
Q 2906 2381 2643 2742 
Q 2381 3103 1925 3103 
Q 1469 3103 1208 2742 
Q 947 2381 947 1747 
z
" id="DejaVuSans-64" transform="scale(0.015625)"/>
      </defs>
      <use xlink:href="#DejaVuSans-64"/>
      <use x="63.476562" xlink:href="#DejaVuSans-75"/>
     </g>
    </g>
   </g>
   <g id="line2d_4">
    <path clip-path="url(#pebee028a4e)" d="M 59.24 232.0485 
L 62.858148 232.296815 
L 66.476296 232.54513 
L 70.094444 232.793444 
L 73.712593 233.041759 
L 77.330741 233.290074 
L 80.948889 233.538389 
L 84.567037 233.786704 
L 88.185185 234.035019 
L 91.803333 234.283333 
L 95.421481 234.531648 
L 99.03963 234.779963 
L 102.657778 235.028278 
L 106.275926 235.276593 
L 109.894074 235.524907 
L 113.512222 235.773222 
L 117.13037 236.021537 
L 120.748519 236.269852 
L 124.366667 236.518167 
L 127.984815 236.766481 
L 131.602963 237.014796 
L 135.221111 237.263111 
L 138.839259 237.511426 
L 142.457407 237.759741 
L 146.075556 238.008056 
L 149.693704 238.25637 
L 153.311852 238.504685 
L 156.93 238.753 
L 160.548148 239.001315 
L 164.166296 239.24963 
L 167.784444 239.497944 
L 171.402593 239.746259 
L 175.020741 239.994574 
L 178.638889 240.242889 
L 182.257037 240.491204 
L 185.875185 240.739519 
L 189.493333 240.987833 
L 193.111481 241.236148 
L 196.72963 241.484463 
L 200.347778 241.732778 
L 203.965926 241.981093 
L 207.584074 242.229407 
L 211.202222 242.477722 
L 214.82037 242.726037 
L 218.438519 242.974352 
L 222.056667 243.222667 
L 225.674815 243.470981 
L 229.292963 243.719296 
L 232.911111 243.967611 
L 236.529259 244.215926 
L 240.147407 244.464241 
L 243.765556 244.712556 
L 247.383704 244.96087 
L 251.001852 245.209185 
L 254.62 245.4575 
L 258.238148 245.705815 
L 261.856296 245.95413 
L 265.474444 246.202444 
L 269.092593 246.450759 
L 272.710741 246.699074 
L 276.328889 246.947389 
L 279.947037 247.195704 
L 283.565185 247.444019 
L 287.183333 247.692333 
L 290.801481 247.940648 
L 294.41963 248.188963 
L 298.037778 248.437278 
L 301.655926 248.685593 
L 305.274074 248.933907 
L 308.892222 249.182222 
L 312.51037 249.430537 
L 316.128519 249.678852 
L 319.746667 249.927167 
L 323.364815 250.175481 
L 326.982963 250.423796 
L 330.601111 250.672111 
L 334.219259 250.920426 
L 337.837407 251.168741 
L 341.455556 251.417056 
L 345.073704 251.66537 
L 348.691852 251.913685 
L 352.31 252.162 
L 355.928148 252.410315 
L 359.546296 252.65863 
L 363.164444 252.906944 
L 366.782593 253.155259 
L 370.400741 253.403574 
L 374.018889 253.651889 
L 377.637037 253.900204 
L 381.255185 254.148519 
L 384.873333 254.396833 
L 388.491481 254.645148 
L 392.10963 254.893463 
L 395.727778 255.141778 
L 399.345926 255.390093 
L 402.964074 255.638407 
L 406.582222 255.886722 
L 410.20037 256.135037 
L 413.818519 256.383352 
L 417.436667 256.631667 
" style="fill:none;stroke:#000000;stroke-linecap:square;stroke-width:3;"/>
   </g>
   <g id="line2d_5">
    <path clip-path="url(#pebee028a4e)" d="M 59.24 223.109167 
L 62.858148 223.357481 
L 66.476296 223.605796 
L 70.094444 223.854111 
L 73.712593 224.102426 
L 77.330741 224.350741 
L 80.948889 224.599056 
L 84.567037 224.84737 
L 88.185185 225.095685 
L 91.803333 225.344 
L 95.421481 225.592315 
L 99.03963 225.84063 
L 102.657778 226.088944 
L 106.275926 226.337259 
L 109.894074 226.585574 
L 113.512222 226.833889 
L 117.13037 227.082204 
L 120.748519 227.330519 
L 124.366667 227.578833 
L 127.984815 227.827148 
L 131.602963 228.075463 
L 135.221111 228.323778 
L 138.839259 228.572093 
L 142.457407 228.820407 
L 146.075556 229.068722 
L 149.693704 229.317037 
L 153.311852 229.565352 
L 156.93 229.813667 
L 160.548148 230.061981 
L 164.166296 230.310296 
L 167.784444 230.558611 
L 171.402593 230.806926 
L 175.020741 231.055241 
L 178.638889 231.303556 
L 182.257037 231.55187 
L 185.875185 231.800185 
L 189.493333 232.0485 
L 193.111481 232.296815 
L 196.72963 232.54513 
L 200.347778 232.793444 
L 203.965926 233.041759 
L 207.584074 233.290074 
L 211.202222 233.538389 
L 214.82037 233.786704 
L 218.438519 234.035019 
L 222.056667 234.283333 
L 225.674815 234.531648 
L 229.292963 234.779963 
L 232.911111 235.028278 
L 236.529259 235.276593 
L 240.147407 235.524907 
L 243.765556 235.773222 
L 247.383704 236.021537 
L 251.001852 236.269852 
L 254.62 236.518167 
L 258.238148 236.766481 
L 261.856296 237.014796 
L 265.474444 237.263111 
L 269.092593 237.511426 
L 272.710741 237.759741 
L 276.328889 238.008056 
L 279.947037 238.25637 
L 283.565185 238.504685 
L 287.183333 238.753 
L 290.801481 239.001315 
L 294.41963 239.24963 
L 298.037778 239.497944 
L 301.655926 239.746259 
L 305.274074 239.994574 
L 308.892222 240.242889 
L 312.51037 240.491204 
L 316.128519 240.739519 
L 319.746667 240.987833 
L 323.364815 241.236148 
L 326.982963 241.484463 
L 330.601111 241.732778 
L 334.219259 241.981093 
L 337.837407 242.229407 
L 341.455556 242.477722 
L 345.073704 242.726037 
L 348.691852 242.974352 
L 352.31 243.222667 
L 355.928148 243.470981 
L 359.546296 243.719296 
L 363.164444 243.967611 
L 366.782593 244.215926 
L 370.400741 244.464241 
L 374.018889 244.712556 
L 377.637037 244.96087 
L 381.255185 245.209185 
L 384.873333 245.4575 
L 388.491481 245.705815 
L 392.10963 245.95413 
L 395.727778 246.202444 
L 399.345926 246.450759 
L 402.964074 246.699074 
L 406.582222 246.947389 
L 410.20037 247.195704 
L 413.818519 247.444019 
L 417.436667 247.692333 
" style="fill:none;stroke:#404040;stroke-linecap:square;stroke-width:3;"/>
   </g>
   <g id="line2d_6">
    <path clip-path="url(#pebee028a4e)" d="M 59.24 214.169833 
L 62.858148 214.418148 
L 66.476296 214.666463 
L 70.094444 214.914778 
L 73.712593 215.163093 
L 77.330741 215.411407 
L 80.948889 215.659722 
L 84.567037 215.908037 
L 88.185185 216.156352 
L 91.803333 216.404667 
L 95.421481 216.652981 
L 99.03963 216.901296 
L 102.657778 217.149611 
L 106.275926 217.397926 
L 109.894074 217.646241 
L 113.512222 217.894556 
L 117.13037 218.14287 
L 120.748519 218.391185 
L 124.366667 218.6395 
L 127.984815 218.887815 
L 131.602963 219.13613 
L 135.221111 219.384444 
L 138.839259 219.632759 
L 142.457407 219.881074 
L 146.075556 220.129389 
L 149.693704 220.377704 
L 153.311852 220.626019 
L 156.93 220.874333 
L 160.548148 221.122648 
L 164.166296 221.370963 
L 167.784444 221.619278 
L 171.402593 221.867593 
L 175.020741 222.115907 
L 178.638889 222.364222 
L 182.257037 222.612537 
L 185.875185 222.860852 
L 189.493333 223.109167 
L 193.111481 223.357481 
L 196.72963 223.605796 
L 200.347778 223.854111 
L 203.965926 224.102426 
L 207.584074 224.350741 
L 211.202222 224.599056 
L 214.82037 224.84737 
L 218.438519 225.095685 
L 222.056667 225.344 
L 225.674815 225.592315 
L 229.292963 225.84063 
L 232.911111 226.088944 
L 236.529259 226.337259 
L 240.147407 226.585574 
L 243.765556 226.833889 
L 247.383704 227.082204 
L 251.001852 227.330519 
L 254.62 227.578833 
L 258.238148 227.827148 
L 261.856296 228.075463 
L 265.474444 228.323778 
L 269.092593 228.572093 
L 272.710741 228.820407 
L 276.328889 229.068722 
L 279.947037 229.317037 
L 283.565185 229.565352 
L 287.183333 229.813667 
L 290.801481 230.061981 
L 294.41963 230.310296 
L 298.037778 230.558611 
L 301.655926 230.806926 
L 305.274074 231.055241 
L 308.892222 231.303556 
L 312.51037 231.55187 
L 316.128519 231.800185 
L 319.746667 232.0485 
L 323.364815 232.296815 
L 326.982963 232.54513 
L 330.601111 232.793444 
L 334.219259 233.041759 
L 337.837407 233.290074 
L 341.455556 233.538389 
L 345.073704 233.786704 
L 348.691852 234.035019 
L 352.31 234.283333 
L 355.928148 234.531648 
L 359.546296 234.779963 
L 363.164444 235.028278 
L 366.782593 235.276593 
L 370.400741 235.524907 
L 374.018889 235.773222 
L 377.637037 236.021537 
L 381.255185 236.269852 
L 384.873333 236.518167 
L 388.491481 236.766481 
L 392.10963 237.014796 
L 395.727778 237.263111 
L 399.345926 237.511426 
L 402.964074 237.759741 
L 406.582222 238.008056 
L 410.20037 238.25637 
L 413.818519 238.504685 
L 417.436667 238.753 
" style="fill:none;stroke:#7a7a7a;stroke-linecap:square;stroke-width:3;"/>
   </g>
   <g id="line2d_7">
    <path clip-path="url(#pebee028a4e)" d="M 59.24 205.2305 
L 62.858148 205.478815 
L 66.476296 205.72713 
L 70.094444 205.975444 
L 73.712593 206.223759 
L 77.330741 206.472074 
L 80.948889 206.720389 
L 84.567037 206.968704 
L 88.185185 207.217019 
L 91.803333 207.465333 
L 95.421481 207.713648 
L 99.03963 207.961963 
L 102.657778 208.210278 
L 106.275926 208.458593 
L 109.894074 208.706907 
L 113.512222 208.955222 
L 117.13037 209.203537 
L 120.748519 209.451852 
L 124.366667 209.700167 
L 127.984815 209.948481 
L 131.602963 210.196796 
L 135.221111 210.445111 
L 138.839259 210.693426 
L 142.457407 210.941741 
L 146.075556 211.190056 
L 149.693704 211.43837 
L 153.311852 211.686685 
L 156.93 211.935 
L 160.548148 212.183315 
L 164.166296 212.43163 
L 167.784444 212.679944 
L 171.402593 212.928259 
L 175.020741 213.176574 
L 178.638889 213.424889 
L 182.257037 213.673204 
L 185.875185 213.921519 
L 189.493333 214.169833 
L 193.111481 214.418148 
L 196.72963 214.666463 
L 200.347778 214.914778 
L 203.965926 215.163093 
L 207.584074 215.411407 
L 211.202222 215.659722 
L 214.82037 215.908037 
L 218.438519 216.156352 
L 222.056667 216.404667 
L 225.674815 216.652981 
L 229.292963 216.901296 
L 232.911111 217.149611 
L 236.529259 217.397926 
L 240.147407 217.646241 
L 243.765556 217.894556 
L 247.383704 218.14287 
L 251.001852 218.391185 
L 254.62 218.6395 
L 258.238148 218.887815 
L 261.856296 219.13613 
L 265.474444 219.384444 
L 269.092593 219.632759 
L 272.710741 219.881074 
L 276.328889 220.129389 
L 279.947037 220.377704 
L 283.565185 220.626019 
L 287.183333 220.874333 
L 290.801481 221.122648 
L 294.41963 221.370963 
L 298.037778 221.619278 
L 301.655926 221.867593 
L 305.274074 222.115907 
L 308.892222 222.364222 
L 312.51037 222.612537 
L 316.128519 222.860852 
L 319.746667 223.109167 
L 323.364815 223.357481 
L 326.982963 223.605796 
L 330.601111 223.854111 
L 334.219259 224.102426 
L 337.837407 224.350741 
L 341.455556 224.599056 
L 345.073704 224.84737 
L 348.691852 225.095685 
L 352.31 225.344 
L 355.928148 225.592315 
L 359.546296 225.84063 
L 363.164444 226.088944 
L 366.782593 226.337259 
L 370.400741 226.585574 
L 374.018889 226.833889 
L 377.637037 227.082204 
L 381.255185 227.330519 
L 384.873333 227.578833 
L 388.491481 227.827148 
L 392.10963 228.075463 
L 395.727778 228.323778 
L 399.345926 228.572093 
L 402.964074 228.820407 
L 406.582222 229.068722 
L 410.20037 229.317037 
L 413.818519 229.565352 
L 417.436667 229.813667 
" style="fill:none;stroke:#b5b5b5;stroke-linecap:square;stroke-width:3;"/>
   </g>
   <g id="line2d_8">
    <path clip-path="url(#pebee028a4e)" d="M 59.24 196.291167 
L 62.858148 196.539481 
L 66.476296 196.787796 
L 70.094444 197.036111 
L 73.712593 197.284426 
L 77.330741 197.532741 
L 80.948889 197.781056 
L 84.567037 198.02937 
L 88.185185 198.277685 
L 91.803333 198.526 
L 95.421481 198.774315 
L 99.03963 199.02263 
L 102.657778 199.270944 
L 106.275926 199.519259 
L 109.894074 199.767574 
L 113.512222 200.015889 
L 117.13037 200.264204 
L 120.748519 200.512519 
L 124.366667 200.760833 
L 127.984815 201.009148 
L 131.602963 201.257463 
L 135.221111 201.505778 
L 138.839259 201.754093 
L 142.457407 202.002407 
L 146.075556 202.250722 
L 149.693704 202.499037 
L 153.311852 202.747352 
L 156.93 202.995667 
L 160.548148 203.243981 
L 164.166296 203.492296 
L 167.784444 203.740611 
L 171.402593 203.988926 
L 175.020741 204.237241 
L 178.638889 204.485556 
L 182.257037 204.73387 
L 185.875185 204.982185 
L 189.493333 205.2305 
L 193.111481 205.478815 
L 196.72963 205.72713 
L 200.347778 205.975444 
L 203.965926 206.223759 
L 207.584074 206.472074 
L 211.202222 206.720389 
L 214.82037 206.968704 
L 218.438519 207.217019 
L 222.056667 207.465333 
L 225.674815 207.713648 
L 229.292963 207.961963 
L 232.911111 208.210278 
L 236.529259 208.458593 
L 240.147407 208.706907 
L 243.765556 208.955222 
L 247.383704 209.203537 
L 251.001852 209.451852 
L 254.62 209.700167 
L 258.238148 209.948481 
L 261.856296 210.196796 
L 265.474444 210.445111 
L 269.092593 210.693426 
L 272.710741 210.941741 
L 276.328889 211.190056 
L 279.947037 211.43837 
L 283.565185 211.686685 
L 287.183333 211.935 
L 290.801481 212.183315 
L 294.41963 212.43163 
L 298.037778 212.679944 
L 301.655926 212.928259 
L 305.274074 213.176574 
L 308.892222 213.424889 
L 312.51037 213.673204 
L 316.128519 213.921519 
L 319.746667 214.169833 
L 323.364815 214.418148 
L 326.982963 214.666463 
L 330.601111 214.914778 
L 334.219259 215.163093 
L 337.837407 215.411407 
L 341.455556 215.659722 
L 345.073704 215.908037 
L 348.691852 216.156352 
L 352.31 216.404667 
L 355.928148 216.652981 
L 359.546296 216.901296 
L 363.164444 217.149611 
L 366.782593 217.397926 
L 370.400741 217.646241 
L 374.018889 217.894556 
L 377.637037 218.14287 
L 381.255185 218.391185 
L 384.873333 218.6395 
L 388.491481 218.887815 
L 392.10963 219.13613 
L 395.727778 219.384444 
L 399.345926 219.632759 
L 402.964074 219.881074 
L 406.582222 220.129389 
L 410.20037 220.377704 
L 413.818519 220.626019 
L 417.436667 220.874333 
" style="fill:none;stroke:#e2e2e2;stroke-linecap:square;stroke-width:3;"/>
   </g>
   <g id="line2d_9">
    <path clip-path="url(#pebee028a4e)" d="M 59.24 187.351833 
L 62.858148 187.600148 
L 66.476296 187.848463 
L 70.094444 188.096778 
L 73.712593 188.345093 
L 77.330741 188.593407 
L 80.948889 188.841722 
L 84.567037 189.090037 
L 88.185185 189.338352 
L 91.803333 189.586667 
L 95.421481 189.834981 
L 99.03963 190.083296 
L 102.657778 190.331611 
L 106.275926 190.579926 
L 109.894074 190.828241 
L 113.512222 191.076556 
L 117.13037 191.32487 
L 120.748519 191.573185 
L 124.366667 191.8215 
L 127.984815 192.069815 
L 131.602963 192.31813 
L 135.221111 192.566444 
L 138.839259 192.814759 
L 142.457407 193.063074 
L 146.075556 193.311389 
L 149.693704 193.559704 
L 153.311852 193.808019 
L 156.93 194.056333 
L 160.548148 194.304648 
L 164.166296 194.552963 
L 167.784444 194.801278 
L 171.402593 195.049593 
L 175.020741 195.297907 
L 178.638889 195.546222 
L 182.257037 195.794537 
L 185.875185 196.042852 
L 189.493333 196.291167 
L 193.111481 196.539481 
L 196.72963 196.787796 
L 200.347778 197.036111 
L 203.965926 197.284426 
L 207.584074 197.532741 
L 211.202222 197.781056 
L 214.82037 198.02937 
L 218.438519 198.277685 
L 222.056667 198.526 
L 225.674815 198.774315 
L 229.292963 199.02263 
L 232.911111 199.270944 
L 236.529259 199.519259 
L 240.147407 199.767574 
L 243.765556 200.015889 
L 247.383704 200.264204 
L 251.001852 200.512519 
L 254.62 200.760833 
L 258.238148 201.009148 
L 261.856296 201.257463 
L 265.474444 201.505778 
L 269.092593 201.754093 
L 272.710741 202.002407 
L 276.328889 202.250722 
L 279.947037 202.499037 
L 283.565185 202.747352 
L 287.183333 202.995667 
L 290.801481 203.243981 
L 294.41963 203.492296 
L 298.037778 203.740611 
L 301.655926 203.988926 
L 305.274074 204.237241 
L 308.892222 204.485556 
L 312.51037 204.73387 
L 316.128519 204.982185 
L 319.746667 205.2305 
L 323.364815 205.478815 
L 326.982963 205.72713 
L 330.601111 205.975444 
L 334.219259 206.223759 
L 337.837407 206.472074 
L 341.455556 206.720389 
L 345.073704 206.968704 
L 348.691852 207.217019 
L 352.31 207.465333 
L 355.928148 207.713648 
L 359.546296 207.961963 
L 363.164444 208.210278 
L 366.782593 208.458593 
L 370.400741 208.706907 
L 374.018889 208.955222 
L 377.637037 209.203537 
L 381.255185 209.451852 
L 384.873333 209.700167 
L 388.491481 209.948481 
L 392.10963 210.196796 
L 395.727778 210.445111 
L 399.345926 210.693426 
L 402.964074 210.941741 
L 406.582222 211.190056 
L 410.20037 211.43837 
L 413.818519 211.686685 
L 417.436667 211.935 
" style="fill:none;stroke:#ffffff;stroke-linecap:square;stroke-width:3;"/>
   </g>
   <g id="line2d_10">
    <path clip-path="url(#pebee028a4e)" d="M 417.436667 278.98 
L 417.436667 10.8 
" style="fill:none;stroke:#000000;stroke-dasharray:3,4.95;stroke-dashoffset:0;stroke-width:3;"/>
   </g>
   <g id="line2d_11">
    <path clip-path="url(#pebee028a4e)" d="M 59.24 234.283333 
L 450 234.283333 
" style="fill:none;stroke:#000000;stroke-dasharray:11.1,4.8;stroke-dashoffset:0;stroke-width:3;"/>
   </g>
   <g id="patch_3">
    <path d="M 59.24 278.98 
L 59.24 10.8 
" style="fill:none;stroke:#000000;stroke-linecap:square;stroke-linejoin:miter;stroke-width:3;"/>
   </g>
   <g id="patch_4">
    <path d="M 59.24 278.98 
L 450 278.98 
" style="fill:none;stroke:#000000;stroke-linecap:square;stroke-linejoin:miter;stroke-width:3;"/>
   </g>
   <g id="legend_1">
    <g id="patch_5">
     <path d="M 66.24 77.5125 
L 154.40875 77.5125 
Q 156.40875 77.5125 156.40875 75.5125 
L 156.40875 17.8 
Q 156.40875 15.8 154.40875 15.8 
L 66.24 15.8 
Q 64.24 15.8 64.24 17.8 
L 64.24 75.5125 
Q 64.24 77.5125 66.24 77.5125 
z
" style="fill:#ffffff;opacity:0.8;stroke:#cccccc;stroke-linejoin:miter;"/>
    </g>
    <g id="text_6">
     <!-- $I$ -->
     <g transform="translate(108.824375 27.398438)scale(0.1 -0.1)">
      <defs>
       <path d="M 1081 4666 
L 1716 4666 
L 806 0 
L 172 0 
L 1081 4666 
z
" id="DejaVuSans-Oblique-49" transform="scale(0.015625)"/>
      </defs>
      <use transform="translate(0 0.09375)" xlink:href="#DejaVuSans-Oblique-49"/>
     </g>
    </g>
    <g id="line2d_12">
     <path d="M 68.24 38.576563 
L 73.24 38.576563 
" style="fill:none;stroke:#000000;stroke-linecap:square;stroke-width:3;"/>
    </g>
    <g id="line2d_13"/>
    <g id="text_7">
     <!-- 0.0 -->
     <g transform="translate(81.24 42.076563)scale(0.1 -0.1)">
      <defs>
       <path d="M 684 794 
L 1344 794 
L 1344 0 
L 684 0 
L 684 794 
z
" id="DejaVuSans-2e" transform="scale(0.015625)"/>
      </defs>
      <use xlink:href="#DejaVuSans-30"/>
      <use x="63.623047" xlink:href="#DejaVuSans-2e"/>
      <use x="95.410156" xlink:href="#DejaVuSans-30"/>
     </g>
    </g>
    <g id="line2d_14">
     <path d="M 68.24 53.254688 
L 73.24 53.254688 
" style="fill:none;stroke:#404040;stroke-linecap:square;stroke-width:3;"/>
    </g>
    <g id="line2d_15"/>
    <g id="text_8">
     <!-- 4.0 -->
     <g transform="translate(81.24 56.754688)scale(0.1 -0.1)">
      <defs>
       <path d="M 2419 4116 
L 825 1625 
L 2419 1625 
L 2419 4116 
z
M 2253 4666 
L 3047 4666 
L 3047 1625 
L 3713 1625 
L 3713 1100 
L 3047 1100 
L 3047 0 
L 2419 0 
L 2419 1100 
L 313 1100 
L 313 1709 
L 2253 4666 
z
" id="DejaVuSans-34" transform="scale(0.015625)"/>
      </defs>
      <use xlink:href="#DejaVuSans-34"/>
      <use x="63.623047" xlink:href="#DejaVuSans-2e"/>
      <use x="95.410156" xlink:href="#DejaVuSans-30"/>
     </g>
    </g>
    <g id="line2d_16">
     <path d="M 68.24 67.932813 
L 73.24 67.932813 
" style="fill:none;stroke:#7a7a7a;stroke-linecap:square;stroke-width:3;"/>
    </g>
    <g id="line2d_17"/>
    <g id="text_9">
     <!-- 8.0 -->
     <g transform="translate(81.24 71.432813)scale(0.1 -0.1)">
      <defs>
       <path d="M 2034 2216 
Q 1584 2216 1326 1975 
Q 1069 1734 1069 1313 
Q 1069 891 1326 650 
Q 1584 409 2034 409 
Q 2484 409 2743 651 
Q 3003 894 3003 1313 
Q 3003 1734 2745 1975 
Q 2488 2216 2034 2216 
z
M 1403 2484 
Q 997 2584 770 2862 
Q 544 3141 544 3541 
Q 544 4100 942 4425 
Q 1341 4750 2034 4750 
Q 2731 4750 3128 4425 
Q 3525 4100 3525 3541 
Q 3525 3141 3298 2862 
Q 3072 2584 2669 2484 
Q 3125 2378 3379 2068 
Q 3634 1759 3634 1313 
Q 3634 634 3220 271 
Q 2806 -91 2034 -91 
Q 1263 -91 848 271 
Q 434 634 434 1313 
Q 434 1759 690 2068 
Q 947 2378 1403 2484 
z
M 1172 3481 
Q 1172 3119 1398 2916 
Q 1625 2713 2034 2713 
Q 2441 2713 2670 2916 
Q 2900 3119 2900 3481 
Q 2900 3844 2670 4047 
Q 2441 4250 2034 4250 
Q 1625 4250 1398 4047 
Q 1172 3844 1172 3481 
z
" id="DejaVuSans-38" transform="scale(0.015625)"/>
      </defs>
      <use xlink:href="#DejaVuSans-38"/>
      <use x="63.623047" xlink:href="#DejaVuSans-2e"/>
      <use x="95.410156" xlink:href="#DejaVuSans-30"/>
     </g>
    </g>
    <g id="line2d_18">
     <path d="M 117.143125 38.576563 
L 122.143125 38.576563 
" style="fill:none;stroke:#b5b5b5;stroke-linecap:square;stroke-width:3;"/>
    </g>
    <g id="line2d_19"/>
    <g id="text_10">
     <!-- 12.0 -->
     <g transform="translate(130.143125 42.076563)scale(0.1 -0.1)">
      <defs>
       <path d="M 794 531 
L 1825 531 
L 1825 4091 
L 703 3866 
L 703 4441 
L 1819 4666 
L 2450 4666 
L 2450 531 
L 3481 531 
L 3481 0 
L 794 0 
L 794 531 
z
" id="DejaVuSans-31" transform="scale(0.015625)"/>
       <path d="M 1228 531 
L 3431 531 
L 3431 0 
L 469 0 
L 469 531 
Q 828 903 1448 1529 
Q 2069 2156 2228 2338 
Q 2531 2678 2651 2914 
Q 2772 3150 2772 3378 
Q 2772 3750 2511 3984 
Q 2250 4219 1831 4219 
Q 1534 4219 1204 4116 
Q 875 4013 500 3803 
L 500 4441 
Q 881 4594 1212 4672 
Q 1544 4750 1819 4750 
Q 2544 4750 2975 4387 
Q 3406 4025 3406 3419 
Q 3406 3131 3298 2873 
Q 3191 2616 2906 2266 
Q 2828 2175 2409 1742 
Q 1991 1309 1228 531 
z
" id="DejaVuSans-32" transform="scale(0.015625)"/>
      </defs>
      <use xlink:href="#DejaVuSans-31"/>
      <use x="63.623047" xlink:href="#DejaVuSans-32"/>
      <use x="127.246094" xlink:href="#DejaVuSans-2e"/>
      <use x="159.033203" xlink:href="#DejaVuSans-30"/>
     </g>
    </g>
    <g id="line2d_20">
     <path d="M 117.143125 53.254688 
L 122.143125 53.254688 
" style="fill:none;stroke:#e2e2e2;stroke-linecap:square;stroke-width:3;"/>
    </g>
    <g id="line2d_21"/>
    <g id="text_11">
     <!-- 16.0 -->
     <g transform="translate(130.143125 56.754688)scale(0.1 -0.1)">
      <defs>
       <path d="M 2113 2584 
Q 1688 2584 1439 2293 
Q 1191 2003 1191 1497 
Q 1191 994 1439 701 
Q 1688 409 2113 409 
Q 2538 409 2786 701 
Q 3034 994 3034 1497 
Q 3034 2003 2786 2293 
Q 2538 2584 2113 2584 
z
M 3366 4563 
L 3366 3988 
Q 3128 4100 2886 4159 
Q 2644 4219 2406 4219 
Q 1781 4219 1451 3797 
Q 1122 3375 1075 2522 
Q 1259 2794 1537 2939 
Q 1816 3084 2150 3084 
Q 2853 3084 3261 2657 
Q 3669 2231 3669 1497 
Q 3669 778 3244 343 
Q 2819 -91 2113 -91 
Q 1303 -91 875 529 
Q 447 1150 447 2328 
Q 447 3434 972 4092 
Q 1497 4750 2381 4750 
Q 2619 4750 2861 4703 
Q 3103 4656 3366 4563 
z
" id="DejaVuSans-36" transform="scale(0.015625)"/>
      </defs>
      <use xlink:href="#DejaVuSans-31"/>
      <use x="63.623047" xlink:href="#DejaVuSans-36"/>
      <use x="127.246094" xlink:href="#DejaVuSans-2e"/>
      <use x="159.033203" xlink:href="#DejaVuSans-30"/>
     </g>
    </g>
    <g id="line2d_22">
     <path d="M 117.143125 67.932813 
L 122.143125 67.932813 
" style="fill:none;stroke:#ffffff;stroke-linecap:square;stroke-width:3;"/>
    </g>
    <g id="line2d_23"/>
    <g id="text_12">
     <!-- 20.0 -->
     <g transform="translate(130.143125 71.432813)scale(0.1 -0.1)">
      <use xlink:href="#DejaVuSans-32"/>
      <use x="63.623047" xlink:href="#DejaVuSans-30"/>
      <use x="127.246094" xlink:href="#DejaVuSans-2e"/>
      <use x="159.033203" xlink:href="#DejaVuSans-30"/>
     </g>
    </g>
   </g>
  </g>
 </g>
 <defs>
  <clipPath id="pebee028a4e">
   <rect height="268.18" width="390.76" x="59.24" y="10.8"/>
  </clipPath>
 </defs>
</svg>
