<?xml version="1.0" encoding="utf-8" standalone="no"?>
<!DOCTYPE svg PUBLIC "-//W3C//DTD SVG 1.1//EN"
  "http://www.w3.org/Graphics/SVG/1.1/DTD/svg11.dtd">
<svg height="345.6pt" version="1.1" viewBox="0 0 460.8 345.6" width="460.8pt" xmlns="http://www.w3.org/2000/svg" xmlns:xlink="http://www.w3.org/1999/xlink">
 <metadata>
  <rdf:RDF xmlns:cc="http://creativecommons.org/ns#" xmlns:dc="http://purl.org/dc/elements/1.1/" xmlns:rdf="http://www.w3.org/1999/02/22-rdf-syntax-ns#">
   <cc:Work>
    <dc:type rdf:resource="http://purl.org/dc/dcmitype/StillImage"/>
    <dc:date>2022-07-20T12:24:52.766761</dc:date>
    <dc:format>image/svg+xml</dc:format>
    <dc:creator>
     <cc:Agent>
      <dc:title>Matplotlib v3.4.2, https://matplotlib.org/</dc:title>
     </cc:Agent>
    </dc:creator>
   </cc:Work>
  </rdf:RDF>
 </metadata>
 <defs>
  <style type="text/css">*{stroke-linecap:butt;stroke-linejoin:round;}</style>
 </defs>
 <g id="figure_1">
  <g id="patch_1">
   <path d="M 0 345.6 
L 460.8 345.6 
L 460.8 0 
L 0 0 
z
" style="fill:#ffffff;"/>
  </g>
  <g id="axes_1">
   <g id="patch_2">
    <path d="M 57.6 307.584 
L 414.72 307.584 
L 414.72 41.472 
L 57.6 41.472 
z
" style="fill:#ffffff;"/>
   </g>
   <g id="matplotlib.axis_1">
    <g id="xtick_1">
     <g id="line2d_1">
      <defs>
       <path d="M 0 0 
L 0 8 
" id="mef9c5561e4" style="stroke:#000000;stroke-width:3;"/>
      </defs>
      <g>
       <use style="stroke:#000000;stroke-width:3;" x="78.607059" xlink:href="#mef9c5561e4" y="307.584"/>
      </g>
     </g>
     <g id="text_1">
      <!-- $u_{rest}$ -->
      <g transform="translate(58.407059 334.280875)scale(0.2 -0.2)">
       <defs>
        <path d="M 428 1388 
L 838 3500 
L 1416 3500 
L 1006 1409 
Q 975 1256 961 1147 
Q 947 1038 947 966 
Q 947 700 1109 554 
Q 1272 409 1569 409 
Q 2031 409 2368 721 
Q 2706 1034 2809 1563 
L 3194 3500 
L 3769 3500 
L 3091 0 
L 2516 0 
L 2631 550 
Q 2388 244 2052 76 
Q 1716 -91 1338 -91 
Q 878 -91 622 161 
Q 366 413 366 863 
Q 366 956 381 1097 
Q 397 1238 428 1388 
z
" id="DejaVuSans-Oblique-75" transform="scale(0.015625)"/>
        <path d="M 2853 2969 
Q 2766 3016 2653 3041 
Q 2541 3066 2413 3066 
Q 1953 3066 1609 2717 
Q 1266 2369 1153 1784 
L 800 0 
L 225 0 
L 909 3500 
L 1484 3500 
L 1375 2956 
Q 1603 3259 1920 3421 
Q 2238 3584 2597 3584 
Q 2691 3584 2781 3573 
Q 2872 3563 2963 3538 
L 2853 2969 
z
" id="DejaVuSans-Oblique-72" transform="scale(0.015625)"/>
        <path d="M 3078 2063 
Q 3088 2113 3092 2166 
Q 3097 2219 3097 2272 
Q 3097 2653 2873 2875 
Q 2650 3097 2266 3097 
Q 1838 3097 1509 2826 
Q 1181 2556 1013 2059 
L 3078 2063 
z
M 3578 1613 
L 903 1613 
Q 884 1494 878 1425 
Q 872 1356 872 1306 
Q 872 872 1139 634 
Q 1406 397 1894 397 
Q 2269 397 2603 481 
Q 2938 566 3225 728 
L 3116 159 
Q 2806 34 2476 -28 
Q 2147 -91 1806 -91 
Q 1078 -91 686 257 
Q 294 606 294 1247 
Q 294 1794 489 2264 
Q 684 2734 1063 3103 
Q 1306 3334 1642 3459 
Q 1978 3584 2356 3584 
Q 2950 3584 3301 3228 
Q 3653 2872 3653 2272 
Q 3653 2128 3634 1964 
Q 3616 1800 3578 1613 
z
" id="DejaVuSans-Oblique-65" transform="scale(0.015625)"/>
        <path d="M 3200 3397 
L 3091 2853 
Q 2863 2978 2609 3040 
Q 2356 3103 2088 3103 
Q 1634 3103 1373 2948 
Q 1113 2794 1113 2528 
Q 1113 2219 1719 2053 
Q 1766 2041 1788 2034 
L 1972 1978 
Q 2547 1819 2739 1644 
Q 2931 1469 2931 1166 
Q 2931 609 2489 259 
Q 2047 -91 1331 -91 
Q 1053 -91 747 -37 
Q 441 16 72 128 
L 184 722 
Q 500 559 806 475 
Q 1113 391 1394 391 
Q 1816 391 2080 572 
Q 2344 753 2344 1031 
Q 2344 1331 1650 1516 
L 1591 1531 
L 1394 1581 
Q 956 1697 753 1886 
Q 550 2075 550 2369 
Q 550 2928 970 3256 
Q 1391 3584 2113 3584 
Q 2397 3584 2667 3537 
Q 2938 3491 3200 3397 
z
" id="DejaVuSans-Oblique-73" transform="scale(0.015625)"/>
        <path d="M 2706 3500 
L 2619 3053 
L 1472 3053 
L 1100 1153 
Q 1081 1047 1072 975 
Q 1063 903 1063 863 
Q 1063 663 1183 572 
Q 1303 481 1569 481 
L 2150 481 
L 2053 0 
L 1503 0 
Q 991 0 739 200 
Q 488 400 488 806 
Q 488 878 497 964 
Q 506 1050 525 1153 
L 897 3053 
L 409 3053 
L 500 3500 
L 978 3500 
L 1172 4494 
L 1747 4494 
L 1556 3500 
L 2706 3500 
z
" id="DejaVuSans-Oblique-74" transform="scale(0.015625)"/>
       </defs>
       <use transform="translate(0 0.3125)" xlink:href="#DejaVuSans-Oblique-75"/>
       <use transform="translate(63.378906 -16.09375)scale(0.7)" xlink:href="#DejaVuSans-Oblique-72"/>
       <use transform="translate(92.158203 -16.09375)scale(0.7)" xlink:href="#DejaVuSans-Oblique-65"/>
       <use transform="translate(135.224609 -16.09375)scale(0.7)" xlink:href="#DejaVuSans-Oblique-73"/>
       <use transform="translate(171.694336 -16.09375)scale(0.7)" xlink:href="#DejaVuSans-Oblique-74"/>
      </g>
     </g>
    </g>
    <g id="xtick_2">
     <g id="line2d_2">
      <g>
       <use style="stroke:#000000;stroke-width:3;" x="393.712941" xlink:href="#mef9c5561e4" y="307.584"/>
      </g>
     </g>
     <g id="text_2">
      <!-- $u_{reset}$ -->
      <g transform="translate(369.212941 334.280875)scale(0.2 -0.2)">
       <use transform="translate(0 0.3125)" xlink:href="#DejaVuSans-Oblique-75"/>
       <use transform="translate(63.378906 -16.09375)scale(0.7)" xlink:href="#DejaVuSans-Oblique-72"/>
       <use transform="translate(92.158203 -16.09375)scale(0.7)" xlink:href="#DejaVuSans-Oblique-65"/>
       <use transform="translate(135.224609 -16.09375)scale(0.7)" xlink:href="#DejaVuSans-Oblique-73"/>
       <use transform="translate(171.694336 -16.09375)scale(0.7)" xlink:href="#DejaVuSans-Oblique-65"/>
       <use transform="translate(214.760742 -16.09375)scale(0.7)" xlink:href="#DejaVuSans-Oblique-74"/>
      </g>
     </g>
    </g>
   </g>
   <g id="matplotlib.axis_2">
    <g id="ytick_1">
     <g id="line2d_3">
      <defs>
       <path d="M 0 0 
L -8 0 
" id="me46792e6b8" style="stroke:#000000;stroke-width:3;"/>
      </defs>
      <g>
       <use style="stroke:#000000;stroke-width:3;" x="57.6" xlink:href="#me46792e6b8" y="263.232"/>
      </g>
     </g>
     <g id="text_3">
      <!-- 0 -->
      <g transform="translate(33.375 270.830438)scale(0.2 -0.2)">
       <defs>
        <path d="M 2034 4250 
Q 1547 4250 1301 3770 
Q 1056 3291 1056 2328 
Q 1056 1369 1301 889 
Q 1547 409 2034 409 
Q 2525 409 2770 889 
Q 3016 1369 3016 2328 
Q 3016 3291 2770 3770 
Q 2525 4250 2034 4250 
z
M 2034 4750 
Q 2819 4750 3233 4129 
Q 3647 3509 3647 2328 
Q 3647 1150 3233 529 
Q 2819 -91 2034 -91 
Q 1250 -91 836 529 
Q 422 1150 422 2328 
Q 422 3509 836 4129 
Q 1250 4750 2034 4750 
z
" id="DejaVuSans-30" transform="scale(0.015625)"/>
       </defs>
       <use xlink:href="#DejaVuSans-30"/>
      </g>
     </g>
    </g>
   </g>
   <g id="line2d_4">
    <path clip-path="url(#pb0b681425a)" d="M 57.6 261.0144 
L 60.99508 261.3728 
L 64.39016 261.7312 
L 67.785241 262.0896 
L 71.180321 262.448 
L 74.575401 262.8064 
L 77.970481 263.1648 
L 81.365561 263.5232 
L 84.760642 263.8816 
L 88.155722 264.24 
L 91.550802 264.5984 
L 94.945882 264.9568 
L 98.340963 265.3152 
L 101.736043 265.6736 
L 105.131123 266.032 
L 108.526203 266.3904 
L 111.921283 266.7488 
L 115.316364 267.1072 
L 118.711444 267.4656 
L 122.106524 267.824 
L 125.501604 268.1824 
L 128.896684 268.5408 
L 132.291765 268.8992 
L 135.686845 269.2576 
L 139.081925 269.616 
L 142.477005 269.9744 
L 145.872086 270.3328 
L 149.267166 270.6912 
L 152.662246 271.0496 
L 156.057326 271.408 
L 159.452406 271.7664 
L 162.847487 272.1248 
L 166.242567 272.4832 
L 169.637647 272.8416 
L 173.032727 273.2 
L 176.427807 273.5584 
L 179.822888 273.9168 
L 183.217968 274.2752 
L 186.613048 274.6336 
L 190.008128 274.992 
L 193.403209 275.3504 
L 196.798289 275.7088 
L 200.193369 276.0672 
L 203.588449 276.4256 
L 206.983529 276.784 
L 210.37861 277.1424 
L 213.77369 277.5008 
L 217.16877 277.8592 
L 220.56385 278.2176 
L 223.95893 278.576 
L 227.354011 278.9344 
L 230.749091 279.2928 
L 234.144171 279.6512 
L 237.539251 280.0096 
L 240.934332 280.368 
L 244.329412 280.7264 
L 247.724492 281.0848 
L 251.119572 281.4432 
L 254.514652 281.8016 
L 257.909733 282.16 
L 261.304813 282.5184 
L 264.699893 282.8768 
L 268.094973 283.2352 
L 271.490053 283.5936 
L 274.885134 283.952 
L 278.280214 284.3104 
L 281.675294 284.6688 
L 285.070374 285.0272 
L 288.465455 285.3856 
L 291.860535 285.744 
L 295.255615 286.1024 
L 298.650695 286.4608 
L 302.045775 286.8192 
L 305.440856 287.1776 
L 308.835936 287.536 
L 312.231016 287.8944 
L 315.626096 288.2528 
L 319.021176 288.6112 
L 322.416257 288.9696 
L 325.811337 289.328 
L 329.206417 289.6864 
L 332.601497 290.0448 
L 335.996578 290.4032 
L 339.391658 290.7616 
L 342.786738 291.12 
L 346.181818 291.4784 
L 349.576898 291.8368 
L 352.971979 292.1952 
L 356.367059 292.5536 
L 359.762139 292.912 
L 363.157219 293.2704 
L 366.552299 293.6288 
L 369.94738 293.9872 
L 373.34246 294.3456 
L 376.73754 294.704 
L 380.13262 295.0624 
L 383.527701 295.4208 
L 386.922781 295.7792 
L 390.317861 296.1376 
L 393.712941 296.496 
" style="fill:none;stroke:#9e0142;stroke-linecap:square;stroke-width:3;"/>
   </g>
   <g id="line2d_5">
    <path clip-path="url(#pb0b681425a)" d="M 57.6 261.0144 
L 60.99508 261.3728 
L 64.39016 261.7312 
L 67.785241 262.0896 
L 71.180321 262.448 
L 74.575401 262.8064 
L 77.970481 263.1648 
L 81.365561 263.5232 
L 84.760642 263.8816 
L 88.155722 264.24 
L 91.550802 264.5984 
L 94.945882 264.9568 
L 98.340963 265.3152 
L 101.736043 265.6736 
L 105.131123 266.032 
L 108.526203 266.3904 
L 111.921283 266.7488 
L 115.316364 267.1072 
L 118.711444 267.4656 
L 122.106524 267.824 
L 125.501604 268.1824 
L 128.896684 268.5408 
L 132.291765 268.8992 
L 135.686845 269.2576 
L 139.081925 269.616 
L 142.477005 269.9744 
L 145.872086 270.3328 
L 149.267166 270.6912 
L 152.662246 271.0496 
L 156.057326 271.408 
L 159.452406 271.7664 
L 162.847487 272.1248 
L 166.242567 272.4832 
L 169.637647 272.8416 
L 173.032727 273.2 
L 176.427807 273.5584 
L 179.822888 273.9168 
L 183.217968 274.2752 
L 186.613048 274.6336 
L 190.008128 274.992 
L 193.403209 275.3504 
L 196.798289 275.7088 
L 200.193369 276.0672 
L 203.588449 276.4256 
L 206.983529 276.784 
L 210.37861 277.1424 
L 213.77369 277.5008 
L 217.16877 277.8592 
L 220.56385 278.2176 
L 223.95893 278.576 
L 227.354011 278.9344 
L 230.749091 279.2928 
L 234.144171 279.6512 
L 237.539251 280.0096 
L 240.934332 280.368 
L 244.329412 280.7264 
L 247.724492 281.0848 
L 251.119572 281.4432 
L 254.514652 281.8016 
L 257.909733 282.16 
L 261.304813 282.5184 
L 264.699893 282.8768 
L 268.094973 283.2352 
L 271.490053 283.5936 
L 274.885134 283.952 
L 278.280214 284.3104 
L 281.675294 284.6688 
L 285.070374 285.0272 
L 288.465455 285.3856 
L 291.860535 285.744 
L 295.255615 286.1024 
L 298.650695 286.4608 
L 302.045775 286.8192 
L 305.440856 287.1776 
L 308.835936 287.536 
L 312.231016 287.8944 
L 315.626096 288.2528 
L 319.021176 288.6112 
L 322.416257 288.9696 
L 325.811337 289.328 
L 329.206417 289.6864 
L 332.601497 290.0448 
L 335.996578 290.4032 
L 339.391658 290.7616 
L 342.786738 291.12 
L 346.181818 291.4784 
L 349.576898 291.8368 
L 352.971979 292.1952 
L 356.367059 292.5536 
L 359.762139 292.912 
L 363.157219 293.2704 
L 366.552299 293.6288 
L 369.94738 293.9872 
L 373.34246 294.3456 
L 376.73754 294.704 
L 380.13262 295.0624 
L 383.527701 295.4208 
L 386.922781 295.7792 
L 390.317861 296.1376 
L 393.712941 296.496 
" style="fill:none;stroke:#d43d4f;stroke-linecap:square;stroke-width:3;"/>
   </g>
   <g id="line2d_6">
    <path clip-path="url(#pb0b681425a)" d="M 57.6 261.0144 
L 60.99508 261.3728 
L 64.39016 261.7312 
L 67.785241 262.0896 
L 71.180321 262.448 
L 74.575401 262.8064 
L 77.970481 263.1648 
L 81.365561 263.5232 
L 84.760642 263.8816 
L 88.155722 264.24 
L 91.550802 264.5984 
L 94.945882 264.9568 
L 98.340963 265.3152 
L 101.736043 265.6736 
L 105.131123 266.032 
L 108.526203 266.3904 
L 111.921283 266.7488 
L 115.316364 267.1072 
L 118.711444 267.4656 
L 122.106524 267.824 
L 125.501604 268.1824 
L 128.896684 268.5408 
L 132.291765 268.8992 
L 135.686845 269.2576 
L 139.081925 269.616 
L 142.477005 269.9744 
L 145.872086 270.3328 
L 149.267166 270.6912 
L 152.662246 271.0496 
L 156.057326 271.408 
L 159.452406 271.7664 
L 162.847487 272.1248 
L 166.242567 272.4832 
L 169.637647 272.8416 
L 173.032727 273.2 
L 176.427807 273.5584 
L 179.822888 273.9168 
L 183.217968 274.2752 
L 186.613048 274.6336 
L 190.008128 274.992 
L 193.403209 275.3504 
L 196.798289 275.7088 
L 200.193369 276.0672 
L 203.588449 276.4256 
L 206.983529 276.784 
L 210.37861 277.1424 
L 213.77369 277.5008 
L 217.16877 277.8592 
L 220.56385 278.2176 
L 223.95893 278.576 
L 227.354011 278.9344 
L 230.749091 279.2928 
L 234.144171 279.6512 
L 237.539251 280.0096 
L 240.934332 280.368 
L 244.329412 280.7264 
L 247.724492 281.0848 
L 251.119572 281.4432 
L 254.514652 281.8016 
L 257.909733 282.16 
L 261.304813 282.5184 
L 264.699893 282.8768 
L 268.094973 283.2352 
L 271.490053 283.5936 
L 274.885134 283.952 
L 278.280214 284.3104 
L 281.675294 284.6688 
L 285.070374 285.0272 
L 288.465455 285.3856 
L 291.860535 285.744 
L 295.255615 286.1024 
L 298.650695 286.4608 
L 302.045775 286.8192 
L 305.440856 287.1776 
L 308.835936 287.536 
L 312.231016 287.8944 
L 315.626096 288.2528 
L 319.021176 288.6112 
L 322.416257 288.9696 
L 325.811337 289.328 
L 329.206417 289.6864 
L 332.601497 290.0448 
L 335.996578 290.4032 
L 339.391658 290.7616 
L 342.786738 291.12 
L 346.181818 291.4784 
L 349.576898 291.8368 
L 352.971979 292.1952 
L 356.367059 292.5536 
L 359.762139 292.912 
L 363.157219 293.2704 
L 366.552299 293.6288 
L 369.94738 293.9872 
L 373.34246 294.3456 
L 376.73754 294.704 
L 380.13262 295.0624 
L 383.527701 295.4208 
L 386.922781 295.7792 
L 390.317861 296.1376 
L 393.712941 296.496 
" style="fill:none;stroke:#f46d43;stroke-linecap:square;stroke-width:3;"/>
   </g>
   <g id="line2d_7">
    <path clip-path="url(#pb0b681425a)" d="M 57.6 261.0144 
L 60.99508 261.3728 
L 64.39016 261.7312 
L 67.785241 262.0896 
L 71.180321 262.448 
L 74.575401 262.8064 
L 77.970481 263.1648 
L 81.365561 263.5232 
L 84.760642 263.8816 
L 88.155722 264.24 
L 91.550802 264.5984 
L 94.945882 264.9568 
L 98.340963 265.3152 
L 101.736043 265.6736 
L 105.131123 266.032 
L 108.526203 266.3904 
L 111.921283 266.7488 
L 115.316364 267.1072 
L 118.711444 267.4656 
L 122.106524 267.824 
L 125.501604 268.1824 
L 128.896684 268.5408 
L 132.291765 268.8992 
L 135.686845 269.2576 
L 139.081925 269.616 
L 142.477005 269.9744 
L 145.872086 270.3328 
L 149.267166 270.6912 
L 152.662246 271.0496 
L 156.057326 271.408 
L 159.452406 271.7664 
L 162.847487 272.1248 
L 166.242567 272.4832 
L 169.637647 272.8416 
L 173.032727 273.2 
L 176.427807 273.5584 
L 179.822888 273.9168 
L 183.217968 274.2752 
L 186.613048 274.6336 
L 190.008128 274.992 
L 193.403209 275.3504 
L 196.798289 275.7088 
L 200.193369 276.0672 
L 203.588449 276.4256 
L 206.983529 276.784 
L 210.37861 277.1424 
L 213.77369 277.5008 
L 217.16877 277.8592 
L 220.56385 278.2176 
L 223.95893 278.576 
L 227.354011 278.9344 
L 230.749091 279.2928 
L 234.144171 279.6512 
L 237.539251 280.0096 
L 240.934332 280.368 
L 244.329412 280.7264 
L 247.724492 281.0848 
L 251.119572 281.4432 
L 254.514652 281.8016 
L 257.909733 282.16 
L 261.304813 282.5184 
L 264.699893 282.8768 
L 268.094973 283.2352 
L 271.490053 283.5936 
L 274.885134 283.952 
L 278.280214 284.3104 
L 281.675294 284.6688 
L 285.070374 285.0272 
L 288.465455 285.3856 
L 291.860535 285.744 
L 295.255615 286.1024 
L 298.650695 286.4608 
L 302.045775 286.8192 
L 305.440856 287.1776 
L 308.835936 287.536 
L 312.231016 287.8944 
L 315.626096 288.2528 
L 319.021176 288.6112 
L 322.416257 288.9696 
L 325.811337 289.328 
L 329.206417 289.6864 
L 332.601497 290.0448 
L 335.996578 290.4032 
L 339.391658 290.7616 
L 342.786738 291.12 
L 346.181818 291.4784 
L 349.576898 291.8368 
L 352.971979 292.1952 
L 356.367059 292.5536 
L 359.762139 292.912 
L 363.157219 293.2704 
L 366.552299 293.6288 
L 369.94738 293.9872 
L 373.34246 294.3456 
L 376.73754 294.704 
L 380.13262 295.0624 
L 383.527701 295.4208 
L 386.922781 295.7792 
L 390.317861 296.1376 
L 393.712941 296.496 
" style="fill:none;stroke:#fdad60;stroke-linecap:square;stroke-width:3;"/>
   </g>
   <g id="line2d_8">
    <path clip-path="url(#pb0b681425a)" d="M 57.6 261.0144 
L 60.99508 261.3728 
L 64.39016 261.7312 
L 67.785241 262.0896 
L 71.180321 262.448 
L 74.575401 262.8064 
L 77.970481 263.1648 
L 81.365561 263.5232 
L 84.760642 263.8816 
L 88.155722 264.24 
L 91.550802 264.5984 
L 94.945882 264.9568 
L 98.340963 265.3152 
L 101.736043 265.6736 
L 105.131123 266.032 
L 108.526203 266.3904 
L 111.921283 266.7488 
L 115.316364 267.1072 
L 118.711444 267.4656 
L 122.106524 267.824 
L 125.501604 268.1824 
L 128.896684 268.5408 
L 132.291765 268.8992 
L 135.686845 269.2576 
L 139.081925 269.616 
L 142.477005 269.9744 
L 145.872086 270.3328 
L 149.267166 270.6912 
L 152.662246 271.0496 
L 156.057326 271.408 
L 159.452406 271.7664 
L 162.847487 272.1248 
L 166.242567 272.4832 
L 169.637647 272.8416 
L 173.032727 273.2 
L 176.427807 273.5584 
L 179.822888 273.9168 
L 183.217968 274.2752 
L 186.613048 274.6336 
L 190.008128 274.992 
L 193.403209 275.3504 
L 196.798289 275.7088 
L 200.193369 276.0672 
L 203.588449 276.4256 
L 206.983529 276.784 
L 210.37861 277.1424 
L 213.77369 277.5008 
L 217.16877 277.8592 
L 220.56385 278.2176 
L 223.95893 278.576 
L 227.354011 278.9344 
L 230.749091 279.2928 
L 234.144171 279.6512 
L 237.539251 280.0096 
L 240.934332 280.368 
L 244.329412 280.7264 
L 247.724492 281.0848 
L 251.119572 281.4432 
L 254.514652 281.8016 
L 257.909733 282.16 
L 261.304813 282.5184 
L 264.699893 282.8768 
L 268.094973 283.2352 
L 271.490053 283.5936 
L 274.885134 283.952 
L 278.280214 284.3104 
L 281.675294 284.6688 
L 285.070374 285.0272 
L 288.465455 285.3856 
L 291.860535 285.744 
L 295.255615 286.1024 
L 298.650695 286.4608 
L 302.045775 286.8192 
L 305.440856 287.1776 
L 308.835936 287.536 
L 312.231016 287.8944 
L 315.626096 288.2528 
L 319.021176 288.6112 
L 322.416257 288.9696 
L 325.811337 289.328 
L 329.206417 289.6864 
L 332.601497 290.0448 
L 335.996578 290.4032 
L 339.391658 290.7616 
L 342.786738 291.12 
L 346.181818 291.4784 
L 349.576898 291.8368 
L 352.971979 292.1952 
L 356.367059 292.5536 
L 359.762139 292.912 
L 363.157219 293.2704 
L 366.552299 293.6288 
L 369.94738 293.9872 
L 373.34246 294.3456 
L 376.73754 294.704 
L 380.13262 295.0624 
L 383.527701 295.4208 
L 386.922781 295.7792 
L 390.317861 296.1376 
L 393.712941 296.496 
" style="fill:none;stroke:#fee08b;stroke-linecap:square;stroke-width:3;"/>
   </g>
   <g id="line2d_9">
    <path clip-path="url(#pb0b681425a)" d="M 57.6 261.0144 
L 60.99508 261.3728 
L 64.39016 261.7312 
L 67.785241 262.0896 
L 71.180321 262.448 
L 74.575401 262.8064 
L 77.970481 263.1648 
L 81.365561 263.5232 
L 84.760642 263.8816 
L 88.155722 264.24 
L 91.550802 264.5984 
L 94.945882 264.9568 
L 98.340963 265.3152 
L 101.736043 265.6736 
L 105.131123 266.032 
L 108.526203 266.3904 
L 111.921283 266.7488 
L 115.316364 267.1072 
L 118.711444 267.4656 
L 122.106524 267.824 
L 125.501604 268.1824 
L 128.896684 268.5408 
L 132.291765 268.8992 
L 135.686845 269.2576 
L 139.081925 269.616 
L 142.477005 269.9744 
L 145.872086 270.3328 
L 149.267166 270.6912 
L 152.662246 271.0496 
L 156.057326 271.408 
L 159.452406 271.7664 
L 162.847487 272.1248 
L 166.242567 272.4832 
L 169.637647 272.8416 
L 173.032727 273.2 
L 176.427807 273.5584 
L 179.822888 273.9168 
L 183.217968 274.2752 
L 186.613048 274.6336 
L 190.008128 274.992 
L 193.403209 275.3504 
L 196.798289 275.7088 
L 200.193369 276.0672 
L 203.588449 276.4256 
L 206.983529 276.784 
L 210.37861 277.1424 
L 213.77369 277.5008 
L 217.16877 277.8592 
L 220.56385 278.2176 
L 223.95893 278.576 
L 227.354011 278.9344 
L 230.749091 279.2928 
L 234.144171 279.6512 
L 237.539251 280.0096 
L 240.934332 280.368 
L 244.329412 280.7264 
L 247.724492 281.0848 
L 251.119572 281.4432 
L 254.514652 281.8016 
L 257.909733 282.16 
L 261.304813 282.5184 
L 264.699893 282.8768 
L 268.094973 283.2352 
L 271.490053 283.5936 
L 274.885134 283.952 
L 278.280214 284.3104 
L 281.675294 284.6688 
L 285.070374 285.0272 
L 288.465455 285.3856 
L 291.860535 285.744 
L 295.255615 286.1024 
L 298.650695 286.4608 
L 302.045775 286.8192 
L 305.440856 287.1776 
L 308.835936 287.536 
L 312.231016 287.8944 
L 315.626096 288.2528 
L 319.021176 288.6112 
L 322.416257 288.9696 
L 325.811337 289.328 
L 329.206417 289.6864 
L 332.601497 290.0448 
L 335.996578 290.4032 
L 339.391658 290.7616 
L 342.786738 291.12 
L 346.181818 291.4784 
L 349.576898 291.8368 
L 352.971979 292.1952 
L 356.367059 292.5536 
L 359.762139 292.912 
L 363.157219 293.2704 
L 366.552299 293.6288 
L 369.94738 293.9872 
L 373.34246 294.3456 
L 376.73754 294.704 
L 380.13262 295.0624 
L 383.527701 295.4208 
L 386.922781 295.7792 
L 390.317861 296.1376 
L 393.712941 296.496 
" style="fill:none;stroke:#ffffbe;stroke-linecap:square;stroke-width:3;"/>
   </g>
   <g id="line2d_10">
    <path clip-path="url(#pb0b681425a)" d="M 57.6 261.0144 
L 60.99508 261.3728 
L 64.39016 261.7312 
L 67.785241 262.0896 
L 71.180321 262.448 
L 74.575401 262.8064 
L 77.970481 263.1648 
L 81.365561 263.5232 
L 84.760642 263.8816 
L 88.155722 264.24 
L 91.550802 264.5984 
L 94.945882 264.9568 
L 98.340963 265.3152 
L 101.736043 265.6736 
L 105.131123 266.032 
L 108.526203 266.3904 
L 111.921283 266.7488 
L 115.316364 267.1072 
L 118.711444 267.4656 
L 122.106524 267.824 
L 125.501604 268.1824 
L 128.896684 268.5408 
L 132.291765 268.8992 
L 135.686845 269.2576 
L 139.081925 269.616 
L 142.477005 269.9744 
L 145.872086 270.3328 
L 149.267166 270.6912 
L 152.662246 271.0496 
L 156.057326 271.408 
L 159.452406 271.7664 
L 162.847487 272.1248 
L 166.242567 272.4832 
L 169.637647 272.8416 
L 173.032727 273.2 
L 176.427807 273.5584 
L 179.822888 273.9168 
L 183.217968 274.2752 
L 186.613048 274.6336 
L 190.008128 274.992 
L 193.403209 275.3504 
L 196.798289 275.7088 
L 200.193369 276.0672 
L 203.588449 276.4256 
L 206.983529 276.784 
L 210.37861 277.1424 
L 213.77369 277.5008 
L 217.16877 277.8592 
L 220.56385 278.2176 
L 223.95893 278.576 
L 227.354011 278.9344 
L 230.749091 279.2928 
L 234.144171 279.6512 
L 237.539251 280.0096 
L 240.934332 280.368 
L 244.329412 280.7264 
L 247.724492 281.0848 
L 251.119572 281.4432 
L 254.514652 281.8016 
L 257.909733 282.16 
L 261.304813 282.5184 
L 264.699893 282.8768 
L 268.094973 283.2352 
L 271.490053 283.5936 
L 274.885134 283.952 
L 278.280214 284.3104 
L 281.675294 284.6688 
L 285.070374 285.0272 
L 288.465455 285.3856 
L 291.860535 285.744 
L 295.255615 286.1024 
L 298.650695 286.4608 
L 302.045775 286.8192 
L 305.440856 287.1776 
L 308.835936 287.536 
L 312.231016 287.8944 
L 315.626096 288.2528 
L 319.021176 288.6112 
L 322.416257 288.9696 
L 325.811337 289.328 
L 329.206417 289.6864 
L 332.601497 290.0448 
L 335.996578 290.4032 
L 339.391658 290.7616 
L 342.786738 291.12 
L 346.181818 291.4784 
L 349.576898 291.8368 
L 352.971979 292.1952 
L 356.367059 292.5536 
L 359.762139 292.912 
L 363.157219 293.2704 
L 366.552299 293.6288 
L 369.94738 293.9872 
L 373.34246 294.3456 
L 376.73754 294.704 
L 380.13262 295.0624 
L 383.527701 295.4208 
L 386.922781 295.7792 
L 390.317861 296.1376 
L 393.712941 296.496 
" style="fill:none;stroke:#e6f598;stroke-linecap:square;stroke-width:3;"/>
   </g>
   <g id="line2d_11">
    <path clip-path="url(#pb0b681425a)" d="M 57.6 261.0144 
L 60.99508 261.3728 
L 64.39016 261.7312 
L 67.785241 262.0896 
L 71.180321 262.448 
L 74.575401 262.8064 
L 77.970481 263.1648 
L 81.365561 263.5232 
L 84.760642 263.8816 
L 88.155722 264.24 
L 91.550802 264.5984 
L 94.945882 264.9568 
L 98.340963 265.3152 
L 101.736043 265.6736 
L 105.131123 266.032 
L 108.526203 266.3904 
L 111.921283 266.7488 
L 115.316364 267.1072 
L 118.711444 267.4656 
L 122.106524 267.824 
L 125.501604 268.1824 
L 128.896684 268.5408 
L 132.291765 268.8992 
L 135.686845 269.2576 
L 139.081925 269.616 
L 142.477005 269.9744 
L 145.872086 270.3328 
L 149.267166 270.6912 
L 152.662246 271.0496 
L 156.057326 271.408 
L 159.452406 271.7664 
L 162.847487 272.1248 
L 166.242567 272.4832 
L 169.637647 272.8416 
L 173.032727 273.2 
L 176.427807 273.5584 
L 179.822888 273.9168 
L 183.217968 274.2752 
L 186.613048 274.6336 
L 190.008128 274.992 
L 193.403209 275.3504 
L 196.798289 275.7088 
L 200.193369 276.0672 
L 203.588449 276.4256 
L 206.983529 276.784 
L 210.37861 277.1424 
L 213.77369 277.5008 
L 217.16877 277.8592 
L 220.56385 278.2176 
L 223.95893 278.576 
L 227.354011 278.9344 
L 230.749091 279.2928 
L 234.144171 279.6512 
L 237.539251 280.0096 
L 240.934332 280.368 
L 244.329412 280.7264 
L 247.724492 281.0848 
L 251.119572 281.4432 
L 254.514652 281.8016 
L 257.909733 282.16 
L 261.304813 282.5184 
L 264.699893 282.8768 
L 268.094973 283.2352 
L 271.490053 283.5936 
L 274.885134 283.952 
L 278.280214 284.3104 
L 281.675294 284.6688 
L 285.070374 285.0272 
L 288.465455 285.3856 
L 291.860535 285.744 
L 295.255615 286.1024 
L 298.650695 286.4608 
L 302.045775 286.8192 
L 305.440856 287.1776 
L 308.835936 287.536 
L 312.231016 287.8944 
L 315.626096 288.2528 
L 319.021176 288.6112 
L 322.416257 288.9696 
L 325.811337 289.328 
L 329.206417 289.6864 
L 332.601497 290.0448 
L 335.996578 290.4032 
L 339.391658 290.7616 
L 342.786738 291.12 
L 346.181818 291.4784 
L 349.576898 291.8368 
L 352.971979 292.1952 
L 356.367059 292.5536 
L 359.762139 292.912 
L 363.157219 293.2704 
L 366.552299 293.6288 
L 369.94738 293.9872 
L 373.34246 294.3456 
L 376.73754 294.704 
L 380.13262 295.0624 
L 383.527701 295.4208 
L 386.922781 295.7792 
L 390.317861 296.1376 
L 393.712941 296.496 
" style="fill:none;stroke:#aadca4;stroke-linecap:square;stroke-width:3;"/>
   </g>
   <g id="line2d_12">
    <path clip-path="url(#pb0b681425a)" d="M 57.6 261.0144 
L 60.99508 261.3728 
L 64.39016 261.7312 
L 67.785241 262.0896 
L 71.180321 262.448 
L 74.575401 262.8064 
L 77.970481 263.1648 
L 81.365561 263.5232 
L 84.760642 263.8816 
L 88.155722 264.24 
L 91.550802 264.5984 
L 94.945882 264.9568 
L 98.340963 265.3152 
L 101.736043 265.6736 
L 105.131123 266.032 
L 108.526203 266.3904 
L 111.921283 266.7488 
L 115.316364 267.1072 
L 118.711444 267.4656 
L 122.106524 267.824 
L 125.501604 268.1824 
L 128.896684 268.5408 
L 132.291765 268.8992 
L 135.686845 269.2576 
L 139.081925 269.616 
L 142.477005 269.9744 
L 145.872086 270.3328 
L 149.267166 270.6912 
L 152.662246 271.0496 
L 156.057326 271.408 
L 159.452406 271.7664 
L 162.847487 272.1248 
L 166.242567 272.4832 
L 169.637647 272.8416 
L 173.032727 273.2 
L 176.427807 273.5584 
L 179.822888 273.9168 
L 183.217968 274.2752 
L 186.613048 274.6336 
L 190.008128 274.992 
L 193.403209 275.3504 
L 196.798289 275.7088 
L 200.193369 276.0672 
L 203.588449 276.4256 
L 206.983529 276.784 
L 210.37861 277.1424 
L 213.77369 277.5008 
L 217.16877 277.8592 
L 220.56385 278.2176 
L 223.95893 278.576 
L 227.354011 278.9344 
L 230.749091 279.2928 
L 234.144171 279.6512 
L 237.539251 280.0096 
L 240.934332 280.368 
L 244.329412 280.7264 
L 247.724492 281.0848 
L 251.119572 281.4432 
L 254.514652 281.8016 
L 257.909733 282.16 
L 261.304813 282.5184 
L 264.699893 282.8768 
L 268.094973 283.2352 
L 271.490053 283.5936 
L 274.885134 283.952 
L 278.280214 284.3104 
L 281.675294 284.6688 
L 285.070374 285.0272 
L 288.465455 285.3856 
L 291.860535 285.744 
L 295.255615 286.1024 
L 298.650695 286.4608 
L 302.045775 286.8192 
L 305.440856 287.1776 
L 308.835936 287.536 
L 312.231016 287.8944 
L 315.626096 288.2528 
L 319.021176 288.6112 
L 322.416257 288.9696 
L 325.811337 289.328 
L 329.206417 289.6864 
L 332.601497 290.0448 
L 335.996578 290.4032 
L 339.391658 290.7616 
L 342.786738 291.12 
L 346.181818 291.4784 
L 349.576898 291.8368 
L 352.971979 292.1952 
L 356.367059 292.5536 
L 359.762139 292.912 
L 363.157219 293.2704 
L 366.552299 293.6288 
L 369.94738 293.9872 
L 373.34246 294.3456 
L 376.73754 294.704 
L 380.13262 295.0624 
L 383.527701 295.4208 
L 386.922781 295.7792 
L 390.317861 296.1376 
L 393.712941 296.496 
" style="fill:none;stroke:#66c2a5;stroke-linecap:square;stroke-width:3;"/>
   </g>
   <g id="line2d_13">
    <path clip-path="url(#pb0b681425a)" d="M 57.6 261.0144 
L 60.99508 261.3728 
L 64.39016 261.7312 
L 67.785241 262.0896 
L 71.180321 262.448 
L 74.575401 262.8064 
L 77.970481 263.1648 
L 81.365561 263.5232 
L 84.760642 263.8816 
L 88.155722 264.24 
L 91.550802 264.5984 
L 94.945882 264.9568 
L 98.340963 265.3152 
L 101.736043 265.6736 
L 105.131123 266.032 
L 108.526203 266.3904 
L 111.921283 266.7488 
L 115.316364 267.1072 
L 118.711444 267.4656 
L 122.106524 267.824 
L 125.501604 268.1824 
L 128.896684 268.5408 
L 132.291765 268.8992 
L 135.686845 269.2576 
L 139.081925 269.616 
L 142.477005 269.9744 
L 145.872086 270.3328 
L 149.267166 270.6912 
L 152.662246 271.0496 
L 156.057326 271.408 
L 159.452406 271.7664 
L 162.847487 272.1248 
L 166.242567 272.4832 
L 169.637647 272.8416 
L 173.032727 273.2 
L 176.427807 273.5584 
L 179.822888 273.9168 
L 183.217968 274.2752 
L 186.613048 274.6336 
L 190.008128 274.992 
L 193.403209 275.3504 
L 196.798289 275.7088 
L 200.193369 276.0672 
L 203.588449 276.4256 
L 206.983529 276.784 
L 210.37861 277.1424 
L 213.77369 277.5008 
L 217.16877 277.8592 
L 220.56385 278.2176 
L 223.95893 278.576 
L 227.354011 278.9344 
L 230.749091 279.2928 
L 234.144171 279.6512 
L 237.539251 280.0096 
L 240.934332 280.368 
L 244.329412 280.7264 
L 247.724492 281.0848 
L 251.119572 281.4432 
L 254.514652 281.8016 
L 257.909733 282.16 
L 261.304813 282.5184 
L 264.699893 282.8768 
L 268.094973 283.2352 
L 271.490053 283.5936 
L 274.885134 283.952 
L 278.280214 284.3104 
L 281.675294 284.6688 
L 285.070374 285.0272 
L 288.465455 285.3856 
L 291.860535 285.744 
L 295.255615 286.1024 
L 298.650695 286.4608 
L 302.045775 286.8192 
L 305.440856 287.1776 
L 308.835936 287.536 
L 312.231016 287.8944 
L 315.626096 288.2528 
L 319.021176 288.6112 
L 322.416257 288.9696 
L 325.811337 289.328 
L 329.206417 289.6864 
L 332.601497 290.0448 
L 335.996578 290.4032 
L 339.391658 290.7616 
L 342.786738 291.12 
L 346.181818 291.4784 
L 349.576898 291.8368 
L 352.971979 292.1952 
L 356.367059 292.5536 
L 359.762139 292.912 
L 363.157219 293.2704 
L 366.552299 293.6288 
L 369.94738 293.9872 
L 373.34246 294.3456 
L 376.73754 294.704 
L 380.13262 295.0624 
L 383.527701 295.4208 
L 386.922781 295.7792 
L 390.317861 296.1376 
L 393.712941 296.496 
" style="fill:none;stroke:#3387bc;stroke-linecap:square;stroke-width:3;"/>
   </g>
   <g id="line2d_14">
    <path clip-path="url(#pb0b681425a)" d="M 57.6 261.0144 
L 60.99508 261.3728 
L 64.39016 261.7312 
L 67.785241 262.0896 
L 71.180321 262.448 
L 74.575401 262.8064 
L 77.970481 263.1648 
L 81.365561 263.5232 
L 84.760642 263.8816 
L 88.155722 264.24 
L 91.550802 264.5984 
L 94.945882 264.9568 
L 98.340963 265.3152 
L 101.736043 265.6736 
L 105.131123 266.032 
L 108.526203 266.3904 
L 111.921283 266.7488 
L 115.316364 267.1072 
L 118.711444 267.4656 
L 122.106524 267.824 
L 125.501604 268.1824 
L 128.896684 268.5408 
L 132.291765 268.8992 
L 135.686845 269.2576 
L 139.081925 269.616 
L 142.477005 269.9744 
L 145.872086 270.3328 
L 149.267166 270.6912 
L 152.662246 271.0496 
L 156.057326 271.408 
L 159.452406 271.7664 
L 162.847487 272.1248 
L 166.242567 272.4832 
L 169.637647 272.8416 
L 173.032727 273.2 
L 176.427807 273.5584 
L 179.822888 273.9168 
L 183.217968 274.2752 
L 186.613048 274.6336 
L 190.008128 274.992 
L 193.403209 275.3504 
L 196.798289 275.7088 
L 200.193369 276.0672 
L 203.588449 276.4256 
L 206.983529 276.784 
L 210.37861 277.1424 
L 213.77369 277.5008 
L 217.16877 277.8592 
L 220.56385 278.2176 
L 223.95893 278.576 
L 227.354011 278.9344 
L 230.749091 279.2928 
L 234.144171 279.6512 
L 237.539251 280.0096 
L 240.934332 280.368 
L 244.329412 280.7264 
L 247.724492 281.0848 
L 251.119572 281.4432 
L 254.514652 281.8016 
L 257.909733 282.16 
L 261.304813 282.5184 
L 264.699893 282.8768 
L 268.094973 283.2352 
L 271.490053 283.5936 
L 274.885134 283.952 
L 278.280214 284.3104 
L 281.675294 284.6688 
L 285.070374 285.0272 
L 288.465455 285.3856 
L 291.860535 285.744 
L 295.255615 286.1024 
L 298.650695 286.4608 
L 302.045775 286.8192 
L 305.440856 287.1776 
L 308.835936 287.536 
L 312.231016 287.8944 
L 315.626096 288.2528 
L 319.021176 288.6112 
L 322.416257 288.9696 
L 325.811337 289.328 
L 329.206417 289.6864 
L 332.601497 290.0448 
L 335.996578 290.4032 
L 339.391658 290.7616 
L 342.786738 291.12 
L 346.181818 291.4784 
L 349.576898 291.8368 
L 352.971979 292.1952 
L 356.367059 292.5536 
L 359.762139 292.912 
L 363.157219 293.2704 
L 366.552299 293.6288 
L 369.94738 293.9872 
L 373.34246 294.3456 
L 376.73754 294.704 
L 380.13262 295.0624 
L 383.527701 295.4208 
L 386.922781 295.7792 
L 390.317861 296.1376 
L 393.712941 296.496 
" style="fill:none;stroke:#5e4fa2;stroke-linecap:square;stroke-width:3;"/>
   </g>
   <g id="line2d_15">
    <path clip-path="url(#pb0b681425a)" d="M 393.712941 307.584 
L 393.712941 41.472 
" style="fill:none;stroke:#000000;stroke-dasharray:3,4.95;stroke-dashoffset:0;stroke-width:3;"/>
   </g>
   <g id="line2d_16">
    <path clip-path="url(#pb0b681425a)" d="M 57.6 263.232 
L 414.72 263.232 
" style="fill:none;stroke:#000000;stroke-dasharray:11.1,4.8;stroke-dashoffset:0;stroke-width:3;"/>
   </g>
   <g id="patch_3">
    <path d="M 57.6 307.584 
L 57.6 41.472 
" style="fill:none;stroke:#000000;stroke-linecap:square;stroke-linejoin:miter;stroke-width:3;"/>
   </g>
   <g id="patch_4">
    <path d="M 57.6 307.584 
L 414.72 307.584 
" style="fill:none;stroke:#000000;stroke-linecap:square;stroke-linejoin:miter;stroke-width:3;"/>
   </g>
   <g id="legend_1">
    <g id="patch_5">
     <path d="M 64.6 152.218875 
L 146.40625 152.218875 
Q 148.40625 152.218875 148.40625 150.218875 
L 148.40625 48.472 
Q 148.40625 46.472 146.40625 46.472 
L 64.6 46.472 
Q 62.6 46.472 62.6 48.472 
L 62.6 150.218875 
Q 62.6 152.218875 64.6 152.218875 
z
" style="fill:#ffffff;opacity:0.8;stroke:#cccccc;stroke-linejoin:miter;"/>
    </g>
    <g id="text_4">
     <!-- $d_T$ -->
     <g transform="translate(100.053125 58.070438)scale(0.1 -0.1)">
      <defs>
       <path d="M 2675 525 
Q 2444 222 2128 65 
Q 1813 -91 1428 -91 
Q 903 -91 598 267 
Q 294 625 294 1247 
Q 294 1766 478 2236 
Q 663 2706 1013 3078 
Q 1244 3325 1534 3454 
Q 1825 3584 2144 3584 
Q 2481 3584 2739 3421 
Q 2997 3259 3138 2956 
L 3513 4863 
L 4091 4863 
L 3144 0 
L 2566 0 
L 2675 525 
z
M 891 1350 
Q 891 897 1095 644 
Q 1300 391 1663 391 
Q 1931 391 2161 520 
Q 2391 650 2566 903 
Q 2750 1166 2856 1509 
Q 2963 1853 2963 2188 
Q 2963 2622 2758 2865 
Q 2553 3109 2194 3109 
Q 1922 3109 1687 2981 
Q 1453 2853 1288 2613 
Q 1106 2353 998 2009 
Q 891 1666 891 1350 
z
" id="DejaVuSans-Oblique-64" transform="scale(0.015625)"/>
       <path d="M 378 4666 
L 4325 4666 
L 4225 4134 
L 2559 4134 
L 1759 0 
L 1125 0 
L 1925 4134 
L 275 4134 
L 378 4666 
z
" id="DejaVuSans-Oblique-54" transform="scale(0.015625)"/>
      </defs>
      <use transform="translate(0 0.015625)" xlink:href="#DejaVuSans-Oblique-64"/>
      <use transform="translate(63.476562 -16.390625)scale(0.7)" xlink:href="#DejaVuSans-Oblique-54"/>
     </g>
    </g>
    <g id="line2d_17">
     <path d="M 66.6 69.248563 
L 71.6 69.248563 
" style="fill:none;stroke:#9e0142;stroke-linecap:square;stroke-width:3;"/>
    </g>
    <g id="line2d_18"/>
    <g id="text_5">
     <!-- 0.0 -->
     <g transform="translate(79.6 72.748563)scale(0.1 -0.1)">
      <defs>
       <path d="M 684 794 
L 1344 794 
L 1344 0 
L 684 0 
L 684 794 
z
" id="DejaVuSans-2e" transform="scale(0.015625)"/>
      </defs>
      <use xlink:href="#DejaVuSans-30"/>
      <use x="63.623047" xlink:href="#DejaVuSans-2e"/>
      <use x="95.410156" xlink:href="#DejaVuSans-30"/>
     </g>
    </g>
    <g id="line2d_19">
     <path d="M 66.6 83.926688 
L 71.6 83.926688 
" style="fill:none;stroke:#d43d4f;stroke-linecap:square;stroke-width:3;"/>
    </g>
    <g id="line2d_20"/>
    <g id="text_6">
     <!-- 0.2 -->
     <g transform="translate(79.6 87.426688)scale(0.1 -0.1)">
      <defs>
       <path d="M 1228 531 
L 3431 531 
L 3431 0 
L 469 0 
L 469 531 
Q 828 903 1448 1529 
Q 2069 2156 2228 2338 
Q 2531 2678 2651 2914 
Q 2772 3150 2772 3378 
Q 2772 3750 2511 3984 
Q 2250 4219 1831 4219 
Q 1534 4219 1204 4116 
Q 875 4013 500 3803 
L 500 4441 
Q 881 4594 1212 4672 
Q 1544 4750 1819 4750 
Q 2544 4750 2975 4387 
Q 3406 4025 3406 3419 
Q 3406 3131 3298 2873 
Q 3191 2616 2906 2266 
Q 2828 2175 2409 1742 
Q 1991 1309 1228 531 
z
" id="DejaVuSans-32" transform="scale(0.015625)"/>
      </defs>
      <use xlink:href="#DejaVuSans-30"/>
      <use x="63.623047" xlink:href="#DejaVuSans-2e"/>
      <use x="95.410156" xlink:href="#DejaVuSans-32"/>
     </g>
    </g>
    <g id="line2d_21">
     <path d="M 66.6 98.604813 
L 71.6 98.604813 
" style="fill:none;stroke:#f46d43;stroke-linecap:square;stroke-width:3;"/>
    </g>
    <g id="line2d_22"/>
    <g id="text_7">
     <!-- 0.4 -->
     <g transform="translate(79.6 102.104813)scale(0.1 -0.1)">
      <defs>
       <path d="M 2419 4116 
L 825 1625 
L 2419 1625 
L 2419 4116 
z
M 2253 4666 
L 3047 4666 
L 3047 1625 
L 3713 1625 
L 3713 1100 
L 3047 1100 
L 3047 0 
L 2419 0 
L 2419 1100 
L 313 1100 
L 313 1709 
L 2253 4666 
z
" id="DejaVuSans-34" transform="scale(0.015625)"/>
      </defs>
      <use xlink:href="#DejaVuSans-30"/>
      <use x="63.623047" xlink:href="#DejaVuSans-2e"/>
      <use x="95.410156" xlink:href="#DejaVuSans-34"/>
     </g>
    </g>
    <g id="line2d_23">
     <path d="M 66.6 113.282938 
L 71.6 113.282938 
" style="fill:none;stroke:#fdad60;stroke-linecap:square;stroke-width:3;"/>
    </g>
    <g id="line2d_24"/>
    <g id="text_8">
     <!-- 0.6 -->
     <g transform="translate(79.6 116.782938)scale(0.1 -0.1)">
      <defs>
       <path d="M 2113 2584 
Q 1688 2584 1439 2293 
Q 1191 2003 1191 1497 
Q 1191 994 1439 701 
Q 1688 409 2113 409 
Q 2538 409 2786 701 
Q 3034 994 3034 1497 
Q 3034 2003 2786 2293 
Q 2538 2584 2113 2584 
z
M 3366 4563 
L 3366 3988 
Q 3128 4100 2886 4159 
Q 2644 4219 2406 4219 
Q 1781 4219 1451 3797 
Q 1122 3375 1075 2522 
Q 1259 2794 1537 2939 
Q 1816 3084 2150 3084 
Q 2853 3084 3261 2657 
Q 3669 2231 3669 1497 
Q 3669 778 3244 343 
Q 2819 -91 2113 -91 
Q 1303 -91 875 529 
Q 447 1150 447 2328 
Q 447 3434 972 4092 
Q 1497 4750 2381 4750 
Q 2619 4750 2861 4703 
Q 3103 4656 3366 4563 
z
" id="DejaVuSans-36" transform="scale(0.015625)"/>
      </defs>
      <use xlink:href="#DejaVuSans-30"/>
      <use x="63.623047" xlink:href="#DejaVuSans-2e"/>
      <use x="95.410156" xlink:href="#DejaVuSans-36"/>
     </g>
    </g>
    <g id="line2d_25">
     <path d="M 66.6 127.961063 
L 71.6 127.961063 
" style="fill:none;stroke:#fee08b;stroke-linecap:square;stroke-width:3;"/>
    </g>
    <g id="line2d_26"/>
    <g id="text_9">
     <!-- 0.8 -->
     <g transform="translate(79.6 131.461063)scale(0.1 -0.1)">
      <defs>
       <path d="M 2034 2216 
Q 1584 2216 1326 1975 
Q 1069 1734 1069 1313 
Q 1069 891 1326 650 
Q 1584 409 2034 409 
Q 2484 409 2743 651 
Q 3003 894 3003 1313 
Q 3003 1734 2745 1975 
Q 2488 2216 2034 2216 
z
M 1403 2484 
Q 997 2584 770 2862 
Q 544 3141 544 3541 
Q 544 4100 942 4425 
Q 1341 4750 2034 4750 
Q 2731 4750 3128 4425 
Q 3525 4100 3525 3541 
Q 3525 3141 3298 2862 
Q 3072 2584 2669 2484 
Q 3125 2378 3379 2068 
Q 3634 1759 3634 1313 
Q 3634 634 3220 271 
Q 2806 -91 2034 -91 
Q 1263 -91 848 271 
Q 434 634 434 1313 
Q 434 1759 690 2068 
Q 947 2378 1403 2484 
z
M 1172 3481 
Q 1172 3119 1398 2916 
Q 1625 2713 2034 2713 
Q 2441 2713 2670 2916 
Q 2900 3119 2900 3481 
Q 2900 3844 2670 4047 
Q 2441 4250 2034 4250 
Q 1625 4250 1398 4047 
Q 1172 3844 1172 3481 
z
" id="DejaVuSans-38" transform="scale(0.015625)"/>
      </defs>
      <use xlink:href="#DejaVuSans-30"/>
      <use x="63.623047" xlink:href="#DejaVuSans-2e"/>
      <use x="95.410156" xlink:href="#DejaVuSans-38"/>
     </g>
    </g>
    <g id="line2d_27">
     <path d="M 66.6 142.639188 
L 71.6 142.639188 
" style="fill:none;stroke:#ffffbe;stroke-linecap:square;stroke-width:3;"/>
    </g>
    <g id="line2d_28"/>
    <g id="text_10">
     <!-- 1.0 -->
     <g transform="translate(79.6 146.139188)scale(0.1 -0.1)">
      <defs>
       <path d="M 794 531 
L 1825 531 
L 1825 4091 
L 703 3866 
L 703 4441 
L 1819 4666 
L 2450 4666 
L 2450 531 
L 3481 531 
L 3481 0 
L 794 0 
L 794 531 
z
" id="DejaVuSans-31" transform="scale(0.015625)"/>
      </defs>
      <use xlink:href="#DejaVuSans-31"/>
      <use x="63.623047" xlink:href="#DejaVuSans-2e"/>
      <use x="95.410156" xlink:href="#DejaVuSans-30"/>
     </g>
    </g>
    <g id="line2d_29">
     <path d="M 115.503125 69.248563 
L 120.503125 69.248563 
" style="fill:none;stroke:#e6f598;stroke-linecap:square;stroke-width:3;"/>
    </g>
    <g id="line2d_30"/>
    <g id="text_11">
     <!-- 1.2 -->
     <g transform="translate(128.503125 72.748563)scale(0.1 -0.1)">
      <use xlink:href="#DejaVuSans-31"/>
      <use x="63.623047" xlink:href="#DejaVuSans-2e"/>
      <use x="95.410156" xlink:href="#DejaVuSans-32"/>
     </g>
    </g>
    <g id="line2d_31">
     <path d="M 115.503125 83.926688 
L 120.503125 83.926688 
" style="fill:none;stroke:#aadca4;stroke-linecap:square;stroke-width:3;"/>
    </g>
    <g id="line2d_32"/>
    <g id="text_12">
     <!-- 1.4 -->
     <g transform="translate(128.503125 87.426688)scale(0.1 -0.1)">
      <use xlink:href="#DejaVuSans-31"/>
      <use x="63.623047" xlink:href="#DejaVuSans-2e"/>
      <use x="95.410156" xlink:href="#DejaVuSans-34"/>
     </g>
    </g>
    <g id="line2d_33">
     <path d="M 115.503125 98.604813 
L 120.503125 98.604813 
" style="fill:none;stroke:#66c2a5;stroke-linecap:square;stroke-width:3;"/>
    </g>
    <g id="line2d_34"/>
    <g id="text_13">
     <!-- 1.6 -->
     <g transform="translate(128.503125 102.104813)scale(0.1 -0.1)">
      <use xlink:href="#DejaVuSans-31"/>
      <use x="63.623047" xlink:href="#DejaVuSans-2e"/>
      <use x="95.410156" xlink:href="#DejaVuSans-36"/>
     </g>
    </g>
    <g id="line2d_35">
     <path d="M 115.503125 113.282938 
L 120.503125 113.282938 
" style="fill:none;stroke:#3387bc;stroke-linecap:square;stroke-width:3;"/>
    </g>
    <g id="line2d_36"/>
    <g id="text_14">
     <!-- 1.8 -->
     <g transform="translate(128.503125 116.782938)scale(0.1 -0.1)">
      <use xlink:href="#DejaVuSans-31"/>
      <use x="63.623047" xlink:href="#DejaVuSans-2e"/>
      <use x="95.410156" xlink:href="#DejaVuSans-38"/>
     </g>
    </g>
    <g id="line2d_37">
     <path d="M 115.503125 127.961063 
L 120.503125 127.961063 
" style="fill:none;stroke:#5e4fa2;stroke-linecap:square;stroke-width:3;"/>
    </g>
    <g id="line2d_38"/>
    <g id="text_15">
     <!-- 2.0 -->
     <g transform="translate(128.503125 131.461063)scale(0.1 -0.1)">
      <use xlink:href="#DejaVuSans-32"/>
      <use x="63.623047" xlink:href="#DejaVuSans-2e"/>
      <use x="95.410156" xlink:href="#DejaVuSans-30"/>
     </g>
    </g>
   </g>
  </g>
 </g>
 <defs>
  <clipPath id="pb0b681425a">
   <rect height="266.112" width="357.12" x="57.6" y="41.472"/>
  </clipPath>
 </defs>
</svg>
