<?xml version="1.0" encoding="utf-8" standalone="no"?>
<!DOCTYPE svg PUBLIC "-//W3C//DTD SVG 1.1//EN"
  "http://www.w3.org/Graphics/SVG/1.1/DTD/svg11.dtd">
<svg height="345.6pt" version="1.1" viewBox="0 0 460.8 345.6" width="460.8pt" xmlns="http://www.w3.org/2000/svg" xmlns:xlink="http://www.w3.org/1999/xlink">
 <metadata>
  <rdf:RDF xmlns:cc="http://creativecommons.org/ns#" xmlns:dc="http://purl.org/dc/elements/1.1/" xmlns:rdf="http://www.w3.org/1999/02/22-rdf-syntax-ns#">
   <cc:Work>
    <dc:type rdf:resource="http://purl.org/dc/dcmitype/StillImage"/>
    <dc:date>2022-07-20T14:10:21.778833</dc:date>
    <dc:format>image/svg+xml</dc:format>
    <dc:creator>
     <cc:Agent>
      <dc:title>Matplotlib v3.4.2, https://matplotlib.org/</dc:title>
     </cc:Agent>
    </dc:creator>
   </cc:Work>
  </rdf:RDF>
 </metadata>
 <defs>
  <style type="text/css">*{stroke-linecap:butt;stroke-linejoin:round;}</style>
 </defs>
 <g id="figure_1">
  <g id="patch_1">
   <path d="M 0 345.6 
L 460.8 345.6 
L 460.8 0 
L 0 0 
z
" style="fill:#ffffff;"/>
  </g>
  <g id="axes_1">
   <g id="patch_2">
    <path d="M 59.24 278.98 
L 445.862461 278.98 
L 445.862461 10.8 
L 59.24 10.8 
z
" style="fill:#ffffff;"/>
   </g>
   <g id="matplotlib.axis_1">
    <g id="xtick_1">
     <g id="line2d_1">
      <defs>
       <path d="M 0 0 
L 0 8 
" id="m5d0354d828" style="stroke:#000000;stroke-width:3;"/>
      </defs>
      <g>
       <use style="stroke:#000000;stroke-width:3;" x="81.982498" xlink:href="#m5d0354d828" y="278.98"/>
      </g>
     </g>
     <g id="text_1">
      <!-- $u_{rest}$ -->
      <g transform="translate(61.782498 305.676875)scale(0.2 -0.2)">
       <defs>
        <path d="M 428 1388 
L 838 3500 
L 1416 3500 
L 1006 1409 
Q 975 1256 961 1147 
Q 947 1038 947 966 
Q 947 700 1109 554 
Q 1272 409 1569 409 
Q 2031 409 2368 721 
Q 2706 1034 2809 1563 
L 3194 3500 
L 3769 3500 
L 3091 0 
L 2516 0 
L 2631 550 
Q 2388 244 2052 76 
Q 1716 -91 1338 -91 
Q 878 -91 622 161 
Q 366 413 366 863 
Q 366 956 381 1097 
Q 397 1238 428 1388 
z
" id="DejaVuSans-Oblique-75" transform="scale(0.015625)"/>
        <path d="M 2853 2969 
Q 2766 3016 2653 3041 
Q 2541 3066 2413 3066 
Q 1953 3066 1609 2717 
Q 1266 2369 1153 1784 
L 800 0 
L 225 0 
L 909 3500 
L 1484 3500 
L 1375 2956 
Q 1603 3259 1920 3421 
Q 2238 3584 2597 3584 
Q 2691 3584 2781 3573 
Q 2872 3563 2963 3538 
L 2853 2969 
z
" id="DejaVuSans-Oblique-72" transform="scale(0.015625)"/>
        <path d="M 3078 2063 
Q 3088 2113 3092 2166 
Q 3097 2219 3097 2272 
Q 3097 2653 2873 2875 
Q 2650 3097 2266 3097 
Q 1838 3097 1509 2826 
Q 1181 2556 1013 2059 
L 3078 2063 
z
M 3578 1613 
L 903 1613 
Q 884 1494 878 1425 
Q 872 1356 872 1306 
Q 872 872 1139 634 
Q 1406 397 1894 397 
Q 2269 397 2603 481 
Q 2938 566 3225 728 
L 3116 159 
Q 2806 34 2476 -28 
Q 2147 -91 1806 -91 
Q 1078 -91 686 257 
Q 294 606 294 1247 
Q 294 1794 489 2264 
Q 684 2734 1063 3103 
Q 1306 3334 1642 3459 
Q 1978 3584 2356 3584 
Q 2950 3584 3301 3228 
Q 3653 2872 3653 2272 
Q 3653 2128 3634 1964 
Q 3616 1800 3578 1613 
z
" id="DejaVuSans-Oblique-65" transform="scale(0.015625)"/>
        <path d="M 3200 3397 
L 3091 2853 
Q 2863 2978 2609 3040 
Q 2356 3103 2088 3103 
Q 1634 3103 1373 2948 
Q 1113 2794 1113 2528 
Q 1113 2219 1719 2053 
Q 1766 2041 1788 2034 
L 1972 1978 
Q 2547 1819 2739 1644 
Q 2931 1469 2931 1166 
Q 2931 609 2489 259 
Q 2047 -91 1331 -91 
Q 1053 -91 747 -37 
Q 441 16 72 128 
L 184 722 
Q 500 559 806 475 
Q 1113 391 1394 391 
Q 1816 391 2080 572 
Q 2344 753 2344 1031 
Q 2344 1331 1650 1516 
L 1591 1531 
L 1394 1581 
Q 956 1697 753 1886 
Q 550 2075 550 2369 
Q 550 2928 970 3256 
Q 1391 3584 2113 3584 
Q 2397 3584 2667 3537 
Q 2938 3491 3200 3397 
z
" id="DejaVuSans-Oblique-73" transform="scale(0.015625)"/>
        <path d="M 2706 3500 
L 2619 3053 
L 1472 3053 
L 1100 1153 
Q 1081 1047 1072 975 
Q 1063 903 1063 863 
Q 1063 663 1183 572 
Q 1303 481 1569 481 
L 2150 481 
L 2053 0 
L 1503 0 
Q 991 0 739 200 
Q 488 400 488 806 
Q 488 878 497 964 
Q 506 1050 525 1153 
L 897 3053 
L 409 3053 
L 500 3500 
L 978 3500 
L 1172 4494 
L 1747 4494 
L 1556 3500 
L 2706 3500 
z
" id="DejaVuSans-Oblique-74" transform="scale(0.015625)"/>
       </defs>
       <use transform="translate(0 0.3125)" xlink:href="#DejaVuSans-Oblique-75"/>
       <use transform="translate(63.378906 -16.09375)scale(0.7)" xlink:href="#DejaVuSans-Oblique-72"/>
       <use transform="translate(92.158203 -16.09375)scale(0.7)" xlink:href="#DejaVuSans-Oblique-65"/>
       <use transform="translate(135.224609 -16.09375)scale(0.7)" xlink:href="#DejaVuSans-Oblique-73"/>
       <use transform="translate(171.694336 -16.09375)scale(0.7)" xlink:href="#DejaVuSans-Oblique-74"/>
      </g>
     </g>
    </g>
    <g id="xtick_2">
     <g id="line2d_2">
      <g>
       <use style="stroke:#000000;stroke-width:3;" x="309.407475" xlink:href="#m5d0354d828" y="278.98"/>
      </g>
     </g>
     <g id="text_2">
      <!-- $u_{c}$ -->
      <g transform="translate(298.907475 305.676875)scale(0.2 -0.2)">
       <defs>
        <path d="M 3431 3366 
L 3316 2797 
Q 3109 2947 2876 3022 
Q 2644 3097 2394 3097 
Q 2119 3097 1870 3000 
Q 1622 2903 1453 2725 
Q 1184 2453 1037 2087 
Q 891 1722 891 1331 
Q 891 859 1127 628 
Q 1363 397 1844 397 
Q 2081 397 2348 469 
Q 2616 541 2906 684 
L 2797 116 
Q 2547 13 2283 -39 
Q 2019 -91 1741 -91 
Q 1044 -91 669 257 
Q 294 606 294 1253 
Q 294 1797 489 2255 
Q 684 2713 1069 3078 
Q 1331 3328 1684 3456 
Q 2038 3584 2456 3584 
Q 2700 3584 2940 3529 
Q 3181 3475 3431 3366 
z
" id="DejaVuSans-Oblique-63" transform="scale(0.015625)"/>
       </defs>
       <use transform="translate(0 0.3125)" xlink:href="#DejaVuSans-Oblique-75"/>
       <use transform="translate(63.378906 -16.09375)scale(0.7)" xlink:href="#DejaVuSans-Oblique-63"/>
      </g>
     </g>
    </g>
    <g id="xtick_3">
     <g id="line2d_3">
      <g>
       <use style="stroke:#000000;stroke-width:3;" x="423.119963" xlink:href="#m5d0354d828" y="278.98"/>
      </g>
     </g>
     <g id="text_3">
      <!-- $u_{reset}$ -->
      <g transform="translate(398.619963 305.676875)scale(0.2 -0.2)">
       <use transform="translate(0 0.3125)" xlink:href="#DejaVuSans-Oblique-75"/>
       <use transform="translate(63.378906 -16.09375)scale(0.7)" xlink:href="#DejaVuSans-Oblique-72"/>
       <use transform="translate(92.158203 -16.09375)scale(0.7)" xlink:href="#DejaVuSans-Oblique-65"/>
       <use transform="translate(135.224609 -16.09375)scale(0.7)" xlink:href="#DejaVuSans-Oblique-73"/>
       <use transform="translate(171.694336 -16.09375)scale(0.7)" xlink:href="#DejaVuSans-Oblique-65"/>
       <use transform="translate(214.760742 -16.09375)scale(0.7)" xlink:href="#DejaVuSans-Oblique-74"/>
      </g>
     </g>
    </g>
    <g id="text_4">
     <!-- u -->
     <g transform="translate(246.21373 329.033125)scale(0.2 -0.2)">
      <defs>
       <path d="M 544 1381 
L 544 3500 
L 1119 3500 
L 1119 1403 
Q 1119 906 1312 657 
Q 1506 409 1894 409 
Q 2359 409 2629 706 
Q 2900 1003 2900 1516 
L 2900 3500 
L 3475 3500 
L 3475 0 
L 2900 0 
L 2900 538 
Q 2691 219 2414 64 
Q 2138 -91 1772 -91 
Q 1169 -91 856 284 
Q 544 659 544 1381 
z
M 1991 3584 
L 1991 3584 
z
" id="DejaVuSans-75" transform="scale(0.015625)"/>
      </defs>
      <use xlink:href="#DejaVuSans-75"/>
     </g>
    </g>
   </g>
   <g id="matplotlib.axis_2">
    <g id="ytick_1">
     <g id="line2d_4">
      <defs>
       <path d="M 0 0 
L -8 0 
" id="maa7e3aa4e7" style="stroke:#000000;stroke-width:3;"/>
      </defs>
      <g>
       <use style="stroke:#000000;stroke-width:3;" x="59.24" xlink:href="#maa7e3aa4e7" y="234.283333"/>
      </g>
     </g>
     <g id="text_5">
      <!-- 0 -->
      <g transform="translate(35.015 241.881771)scale(0.2 -0.2)">
       <defs>
        <path d="M 2034 4250 
Q 1547 4250 1301 3770 
Q 1056 3291 1056 2328 
Q 1056 1369 1301 889 
Q 1547 409 2034 409 
Q 2525 409 2770 889 
Q 3016 1369 3016 2328 
Q 3016 3291 2770 3770 
Q 2525 4250 2034 4250 
z
M 2034 4750 
Q 2819 4750 3233 4129 
Q 3647 3509 3647 2328 
Q 3647 1150 3233 529 
Q 2819 -91 2034 -91 
Q 1250 -91 836 529 
Q 422 1150 422 2328 
Q 422 3509 836 4129 
Q 1250 4750 2034 4750 
z
" id="DejaVuSans-30" transform="scale(0.015625)"/>
       </defs>
       <use xlink:href="#DejaVuSans-30"/>
      </g>
     </g>
    </g>
    <g id="text_6">
     <!-- du -->
     <g transform="translate(26.855625 157.575937)rotate(-90)scale(0.2 -0.2)">
      <defs>
       <path d="M 2906 2969 
L 2906 4863 
L 3481 4863 
L 3481 0 
L 2906 0 
L 2906 525 
Q 2725 213 2448 61 
Q 2172 -91 1784 -91 
Q 1150 -91 751 415 
Q 353 922 353 1747 
Q 353 2572 751 3078 
Q 1150 3584 1784 3584 
Q 2172 3584 2448 3432 
Q 2725 3281 2906 2969 
z
M 947 1747 
Q 947 1113 1208 752 
Q 1469 391 1925 391 
Q 2381 391 2643 752 
Q 2906 1113 2906 1747 
Q 2906 2381 2643 2742 
Q 2381 3103 1925 3103 
Q 1469 3103 1208 2742 
Q 947 2381 947 1747 
z
" id="DejaVuSans-64" transform="scale(0.015625)"/>
      </defs>
      <use xlink:href="#DejaVuSans-64"/>
      <use x="63.476562" xlink:href="#DejaVuSans-75"/>
     </g>
    </g>
   </g>
   <g id="line2d_5">
    <path clip-path="url(#pa69fc72d28)" d="M 59.24 234.283333 
L 62.915555 234.283333 
L 66.59111 234.283333 
L 70.266666 234.283333 
L 73.942221 234.283333 
L 77.617776 234.283333 
L 81.293331 234.283333 
L 84.968886 234.283333 
L 88.644441 234.283333 
L 92.319997 234.283333 
L 95.995552 234.283333 
L 99.671107 234.283333 
L 103.346662 234.283333 
L 107.022217 234.283333 
L 110.697773 234.283333 
L 114.373328 234.283333 
L 118.048883 234.283333 
L 121.724438 234.283333 
L 125.399993 234.283333 
L 129.075548 234.283333 
L 132.751104 234.283333 
L 136.426659 234.283333 
L 140.102214 234.283333 
L 143.777769 234.283333 
L 147.453324 234.283333 
L 151.12888 234.283333 
L 154.804435 234.283333 
L 158.47999 234.283333 
L 162.155545 234.283333 
L 165.8311 234.283333 
L 169.506655 234.283333 
L 173.182211 234.283333 
L 176.857766 234.283333 
L 180.533321 234.283333 
L 184.208876 234.283333 
L 187.884431 234.283333 
L 191.559987 234.283333 
L 195.235542 234.283333 
L 198.911097 234.283333 
L 202.586652 234.283333 
L 206.262207 234.283333 
L 209.937762 234.283333 
L 213.613318 234.283333 
L 217.288873 234.283333 
L 220.964428 234.283333 
L 224.639983 234.283333 
L 228.315538 234.283333 
L 231.991094 234.283333 
L 235.666649 234.283333 
L 239.342204 234.283333 
L 243.017759 234.283333 
L 246.693314 234.283333 
L 250.368869 234.283333 
L 254.044425 234.283333 
L 257.71998 234.283333 
L 261.395535 234.283333 
L 265.07109 234.283333 
L 268.746645 234.283333 
L 272.422201 234.283333 
L 276.097756 234.283333 
L 279.773311 234.283333 
L 283.448866 234.283333 
L 287.124421 234.283333 
L 290.799976 234.283333 
L 294.475532 234.283333 
L 298.151087 234.283333 
L 301.826642 234.283333 
L 305.502197 234.283333 
L 309.177752 234.283333 
L 312.853308 234.283333 
L 316.528863 234.283333 
L 320.204418 234.283333 
L 323.879973 234.283333 
L 327.555528 234.283333 
L 331.231083 234.283333 
L 334.906639 234.283333 
L 338.582194 234.283333 
L 342.257749 234.283333 
L 345.933304 234.283333 
L 349.608859 234.283333 
L 353.284415 234.283333 
L 356.95997 234.283333 
L 360.635525 234.283333 
L 364.31108 234.283333 
L 367.986635 234.283333 
L 371.66219 234.283333 
L 375.337746 234.283333 
L 379.013301 234.283333 
L 382.688856 234.283333 
L 386.364411 234.283333 
L 390.039966 234.283333 
L 393.715522 234.283333 
L 397.391077 234.283333 
L 401.066632 234.283333 
L 404.742187 234.283333 
L 408.417742 234.283333 
L 412.093297 234.283333 
L 415.768853 234.283333 
L 419.444408 234.283333 
L 423.119963 234.283333 
" style="fill:none;stroke:#9e0142;stroke-linecap:square;stroke-width:3;"/>
   </g>
   <g id="line2d_6">
    <path clip-path="url(#pa69fc72d28)" d="M 59.24 229.3667 
L 62.915555 230.22187 
L 66.59111 231.05369 
L 70.266666 231.862161 
L 73.942221 232.647283 
L 77.617776 233.409055 
L 81.293331 234.147478 
L 84.968886 234.862552 
L 88.644441 235.554277 
L 92.319997 236.222652 
L 95.995552 236.867677 
L 99.671107 237.489353 
L 103.346662 238.08768 
L 107.022217 238.662658 
L 110.697773 239.214286 
L 114.373328 239.742565 
L 118.048883 240.247495 
L 121.724438 240.729075 
L 125.399993 241.187306 
L 129.075548 241.622188 
L 132.751104 242.03372 
L 136.426659 242.421903 
L 140.102214 242.786736 
L 143.777769 243.12822 
L 147.453324 243.446355 
L 151.12888 243.741141 
L 154.804435 244.012577 
L 158.47999 244.260664 
L 162.155545 244.485401 
L 165.8311 244.686789 
L 169.506655 244.864828 
L 173.182211 245.019517 
L 176.857766 245.150857 
L 180.533321 245.258848 
L 184.208876 245.34349 
L 187.884431 245.404782 
L 191.559987 245.442724 
L 195.235542 245.457318 
L 198.911097 245.448562 
L 202.586652 245.416456 
L 206.262207 245.361002 
L 209.937762 245.282197 
L 213.613318 245.180044 
L 217.288873 245.054541 
L 220.964428 244.905689 
L 224.639983 244.733488 
L 228.315538 244.537937 
L 231.991094 244.319037 
L 235.666649 244.076788 
L 239.342204 243.811189 
L 243.017759 243.522241 
L 246.693314 243.209943 
L 250.368869 242.874296 
L 254.044425 242.5153 
L 257.71998 242.132955 
L 261.395535 241.72726 
L 265.07109 241.298215 
L 268.746645 240.845822 
L 272.422201 240.370079 
L 276.097756 239.870987 
L 279.773311 239.348545 
L 283.448866 238.802754 
L 287.124421 238.233614 
L 290.799976 237.641124 
L 294.475532 237.025285 
L 298.151087 236.386097 
L 301.826642 235.723559 
L 305.502197 235.037672 
L 309.177752 234.328436 
L 312.853308 233.59585 
L 316.528863 232.839915 
L 320.204418 232.060631 
L 323.879973 231.257997 
L 327.555528 230.432014 
L 331.231083 229.582681 
L 334.906639 228.71 
L 338.582194 227.813969 
L 342.257749 226.894588 
L 345.933304 225.951858 
L 349.608859 224.985779 
L 353.284415 223.996351 
L 356.95997 222.983573 
L 360.635525 221.947446 
L 364.31108 220.887969 
L 367.986635 219.805143 
L 371.66219 218.698968 
L 375.337746 217.569443 
L 379.013301 216.416569 
L 382.688856 215.240346 
L 386.364411 214.040773 
L 390.039966 212.817852 
L 393.715522 211.57158 
L 397.391077 210.30196 
L 401.066632 209.00899 
L 404.742187 207.69267 
L 408.417742 206.353002 
L 412.093297 204.989984 
L 415.768853 203.603616 
L 419.444408 202.193899 
L 423.119963 200.760833 
" style="fill:none;stroke:#d43d4f;stroke-linecap:square;stroke-width:3;"/>
   </g>
   <g id="line2d_7">
    <path clip-path="url(#pa69fc72d28)" d="M 59.24 224.450067 
L 62.915555 226.160406 
L 66.59111 227.824047 
L 70.266666 229.440989 
L 73.942221 231.011233 
L 77.617776 232.534777 
L 81.293331 234.011624 
L 84.968886 235.441771 
L 88.644441 236.82522 
L 92.319997 238.16197 
L 95.995552 239.452021 
L 99.671107 240.695374 
L 103.346662 241.892028 
L 107.022217 243.041983 
L 110.697773 244.145239 
L 114.373328 245.201797 
L 118.048883 246.211656 
L 121.724438 247.174817 
L 125.399993 248.091279 
L 129.075548 248.961042 
L 132.751104 249.784106 
L 136.426659 250.560472 
L 140.102214 251.290139 
L 143.777769 251.973107 
L 147.453324 252.609377 
L 151.12888 253.198948 
L 154.804435 253.74182 
L 158.47999 254.237994 
L 162.155545 254.687469 
L 165.8311 255.090245 
L 169.506655 255.446323 
L 173.182211 255.755701 
L 176.857766 256.018382 
L 180.533321 256.234363 
L 184.208876 256.403646 
L 187.884431 256.52623 
L 191.559987 256.602115 
L 195.235542 256.631302 
L 198.911097 256.61379 
L 202.586652 256.549579 
L 206.262207 256.43867 
L 209.937762 256.281062 
L 213.613318 256.076755 
L 217.288873 255.825749 
L 220.964428 255.528045 
L 224.639983 255.183642 
L 228.315538 254.792541 
L 231.991094 254.354741 
L 235.666649 253.870242 
L 239.342204 253.339044 
L 243.017759 252.761148 
L 246.693314 252.136553 
L 250.368869 251.465259 
L 254.044425 250.747267 
L 257.71998 249.982576 
L 261.395535 249.171186 
L 265.07109 248.313098 
L 268.746645 247.40831 
L 272.422201 246.456825 
L 276.097756 245.45864 
L 279.773311 244.413757 
L 283.448866 243.322175 
L 287.124421 242.183894 
L 290.799976 240.998915 
L 294.475532 239.767237 
L 298.151087 238.488861 
L 301.826642 237.163785 
L 305.502197 235.792011 
L 309.177752 234.373538 
L 312.853308 232.908367 
L 316.528863 231.396497 
L 320.204418 229.837928 
L 323.879973 228.232661 
L 327.555528 226.580694 
L 331.231083 224.88203 
L 334.906639 223.136666 
L 338.582194 221.344604 
L 342.257749 219.505843 
L 345.933304 217.620383 
L 349.608859 215.688225 
L 353.284415 213.709368 
L 356.95997 211.683812 
L 360.635525 209.611558 
L 364.31108 207.492605 
L 367.986635 205.326953 
L 371.66219 203.114602 
L 375.337746 200.855553 
L 379.013301 198.549805 
L 382.688856 196.197359 
L 386.364411 193.798214 
L 390.039966 191.35237 
L 393.715522 188.859827 
L 397.391077 186.320586 
L 401.066632 183.734646 
L 404.742187 181.102007 
L 408.417742 178.42267 
L 412.093297 175.696634 
L 415.768853 172.923899 
L 419.444408 170.104465 
L 423.119963 167.238333 
" style="fill:none;stroke:#f46d43;stroke-linecap:square;stroke-width:3;"/>
   </g>
   <g id="line2d_8">
    <path clip-path="url(#pa69fc72d28)" d="M 59.24 219.533433 
L 62.915555 222.098943 
L 66.59111 224.594404 
L 70.266666 227.019817 
L 73.942221 229.375182 
L 77.617776 231.6605 
L 81.293331 233.875769 
L 84.968886 236.02099 
L 88.644441 238.096163 
L 92.319997 240.101288 
L 95.995552 242.036365 
L 99.671107 243.901394 
L 103.346662 245.696375 
L 107.022217 247.421308 
L 110.697773 249.076192 
L 114.373328 250.661029 
L 118.048883 252.175818 
L 121.724438 253.620559 
L 125.399993 254.995252 
L 129.075548 256.299896 
L 132.751104 257.534493 
L 136.426659 258.699041 
L 140.102214 259.793542 
L 143.777769 260.817995 
L 147.453324 261.772399 
L 151.12888 262.656755 
L 154.804435 263.471064 
L 158.47999 264.215324 
L 162.155545 264.889537 
L 165.8311 265.493701 
L 169.506655 266.027817 
L 173.182211 266.491885 
L 176.857766 266.885906 
L 180.533321 267.209878 
L 184.208876 267.463802 
L 187.884431 267.647678 
L 191.559987 267.761506 
L 195.235542 267.805286 
L 198.911097 267.779018 
L 202.586652 267.682702 
L 206.262207 267.516338 
L 209.937762 267.279926 
L 213.613318 266.973466 
L 217.288873 266.596957 
L 220.964428 266.150401 
L 224.639983 265.633797 
L 228.315538 265.047145 
L 231.991094 264.390444 
L 235.666649 263.663696 
L 239.342204 262.8669 
L 243.017759 262.000055 
L 246.693314 261.063163 
L 250.368869 260.056222 
L 254.044425 258.979234 
L 257.71998 257.832197 
L 261.395535 256.615112 
L 265.07109 255.32798 
L 268.746645 253.970799 
L 272.422201 252.54357 
L 276.097756 251.046293 
L 279.773311 249.478969 
L 283.448866 247.841596 
L 287.124421 246.134175 
L 290.799976 244.356706 
L 294.475532 242.509189 
L 298.151087 240.591624 
L 301.826642 238.604011 
L 305.502197 236.54635 
L 309.177752 234.418641 
L 312.853308 232.220884 
L 316.528863 229.953079 
L 320.204418 227.615225 
L 323.879973 225.207324 
L 327.555528 222.729375 
L 331.231083 220.181378 
L 334.906639 217.563332 
L 338.582194 214.875239 
L 342.257749 212.117098 
L 345.933304 209.288908 
L 349.608859 206.390671 
L 353.284415 203.422385 
L 356.95997 200.384052 
L 360.635525 197.27567 
L 364.31108 194.09724 
L 367.986635 190.848763 
L 371.66219 187.530237 
L 375.337746 184.141663 
L 379.013301 180.683041 
L 382.688856 177.154372 
L 386.364411 173.555654 
L 390.039966 169.886888 
L 393.715522 166.148074 
L 397.391077 162.339212 
L 401.066632 158.460302 
L 404.742187 154.511344 
L 408.417742 150.492338 
L 412.093297 146.403284 
L 415.768853 142.244182 
L 419.444408 138.015032 
L 423.119963 133.715833 
" style="fill:none;stroke:#fdad60;stroke-linecap:square;stroke-width:3;"/>
   </g>
   <g id="line2d_9">
    <path clip-path="url(#pa69fc72d28)" d="M 59.24 214.6168 
L 62.915555 218.037479 
L 66.59111 221.364761 
L 70.266666 224.598645 
L 73.942221 227.739132 
L 77.617776 230.786222 
L 81.293331 233.739914 
L 84.968886 236.600209 
L 88.644441 239.367106 
L 92.319997 242.040606 
L 95.995552 244.620709 
L 99.671107 247.107414 
L 103.346662 249.500722 
L 107.022217 251.800632 
L 110.697773 254.007146 
L 114.373328 256.120261 
L 118.048883 258.13998 
L 121.724438 260.066301 
L 125.399993 261.899224 
L 129.075548 263.63875 
L 132.751104 265.284879 
L 136.426659 266.837611 
L 140.102214 268.296945 
L 143.777769 269.662882 
L 147.453324 270.935421 
L 151.12888 272.114563 
L 154.804435 273.200307 
L 158.47999 274.192655 
L 162.155545 275.091604 
L 165.8311 275.897157 
L 169.506655 276.609312 
L 173.182211 277.228069 
L 176.857766 277.75343 
L 180.533321 278.185393 
L 184.208876 278.523958 
L 187.884431 278.769126 
L 191.559987 278.920897 
L 195.235542 278.97927 
L 198.911097 278.944246 
L 202.586652 278.815825 
L 206.262207 278.594006 
L 209.937762 278.27879 
L 213.613318 277.870176 
L 217.288873 277.368166 
L 220.964428 276.772757 
L 224.639983 276.083952 
L 228.315538 275.301748 
L 231.991094 274.426148 
L 235.666649 273.45715 
L 239.342204 272.394755 
L 243.017759 271.238962 
L 246.693314 269.989772 
L 250.368869 268.647185 
L 254.044425 267.2112 
L 257.71998 265.681818 
L 261.395535 264.059039 
L 265.07109 262.342862 
L 268.746645 260.533288 
L 272.422201 258.630316 
L 276.097756 256.633947 
L 279.773311 254.54418 
L 283.448866 252.361017 
L 287.124421 250.084456 
L 290.799976 247.714497 
L 294.475532 245.251141 
L 298.151087 242.694388 
L 301.826642 240.044237 
L 305.502197 237.300689 
L 309.177752 234.463744 
L 312.853308 231.533401 
L 316.528863 228.50966 
L 320.204418 225.392523 
L 323.879973 222.181988 
L 327.555528 218.878056 
L 331.231083 215.480726 
L 334.906639 211.989999 
L 338.582194 208.405874 
L 342.257749 204.728352 
L 345.933304 200.957433 
L 349.608859 197.093116 
L 353.284415 193.135402 
L 356.95997 189.084291 
L 360.635525 184.939782 
L 364.31108 180.701876 
L 367.986635 176.370572 
L 371.66219 171.945871 
L 375.337746 167.427773 
L 379.013301 162.816277 
L 382.688856 158.111384 
L 386.364411 153.313094 
L 390.039966 148.421406 
L 393.715522 143.436321 
L 397.391077 138.357838 
L 401.066632 133.185958 
L 404.742187 127.920681 
L 408.417742 122.562006 
L 412.093297 117.109934 
L 415.768853 111.564464 
L 419.444408 105.925598 
L 423.119963 100.193333 
" style="fill:none;stroke:#fee08b;stroke-linecap:square;stroke-width:3;"/>
   </g>
   <g id="line2d_10">
    <path clip-path="url(#pa69fc72d28)" d="M 59.24 209.700167 
L 62.915555 213.976016 
L 66.59111 218.135118 
L 70.266666 222.177473 
L 73.942221 226.103082 
L 77.617776 229.911944 
L 81.293331 233.604059 
L 84.968886 237.179427 
L 88.644441 240.638049 
L 92.319997 243.979924 
L 95.995552 247.205053 
L 99.671107 250.313434 
L 103.346662 253.305069 
L 107.022217 256.179957 
L 110.697773 258.938099 
L 114.373328 261.579493 
L 118.048883 264.104141 
L 121.724438 266.512042 
L 125.399993 268.803197 
L 129.075548 270.977605 
L 132.751104 273.035266 
L 136.426659 274.97618 
L 140.102214 276.800348 
L 143.777769 278.507769 
L 147.453324 280.098443 
L 151.12888 281.57237 
L 154.804435 282.929551 
L 158.47999 284.169985 
L 162.155545 285.293672 
L 165.8311 286.300613 
L 169.506655 287.190806 
L 173.182211 287.964253 
L 176.857766 288.620954 
L 180.533321 289.160907 
L 184.208876 289.584114 
L 187.884431 289.890574 
L 191.559987 290.080288 
L 195.235542 290.153255 
L 198.911097 290.109475 
L 202.586652 289.948948 
L 206.262207 289.671674 
L 209.937762 289.277654 
L 213.613318 288.766887 
L 217.288873 288.139374 
L 220.964428 287.395113 
L 224.639983 286.534106 
L 228.315538 285.556352 
L 231.991094 284.461852 
L 235.666649 283.250604 
L 239.342204 281.92261 
L 243.017759 280.47787 
L 246.693314 278.916382 
L 250.368869 277.238148 
L 254.044425 275.443167 
L 257.71998 273.531439 
L 261.395535 271.502965 
L 265.07109 269.357744 
L 268.746645 267.095776 
L 272.422201 264.717062 
L 276.097756 262.2216 
L 279.773311 259.609392 
L 283.448866 256.880438 
L 287.124421 254.034736 
L 290.799976 251.072288 
L 294.475532 247.993093 
L 298.151087 244.797151 
L 301.826642 241.484463 
L 305.502197 238.055028 
L 309.177752 234.508846 
L 312.853308 230.845918 
L 316.528863 227.066242 
L 320.204418 223.16982 
L 323.879973 219.156652 
L 327.555528 215.026736 
L 331.231083 210.780074 
L 334.906639 206.416665 
L 338.582194 201.936509 
L 342.257749 197.339607 
L 345.933304 192.625958 
L 349.608859 187.795562 
L 353.284415 182.84842 
L 356.95997 177.78453 
L 360.635525 172.603894 
L 364.31108 167.306512 
L 367.986635 161.892382 
L 371.66219 156.361506 
L 375.337746 150.713883 
L 379.013301 144.949513 
L 382.688856 139.068397 
L 386.364411 133.070534 
L 390.039966 126.955924 
L 393.715522 120.724568 
L 397.391077 114.376464 
L 401.066632 107.911614 
L 404.742187 101.330018 
L 408.417742 94.631674 
L 412.093297 87.816584 
L 415.768853 80.884747 
L 419.444408 73.836164 
L 423.119963 66.670833 
" style="fill:none;stroke:#ffffbe;stroke-linecap:square;stroke-width:3;"/>
   </g>
   <g id="line2d_11">
    <path clip-path="url(#pa69fc72d28)" d="M 59.24 204.783533 
L 62.915555 209.914552 
L 66.59111 214.905475 
L 70.266666 219.756301 
L 73.942221 224.467031 
L 77.617776 229.037666 
L 81.293331 233.468204 
L 84.968886 237.758646 
L 88.644441 241.908992 
L 92.319997 245.919242 
L 95.995552 249.789396 
L 99.671107 253.519454 
L 103.346662 257.109416 
L 107.022217 260.559282 
L 110.697773 263.869052 
L 114.373328 267.038725 
L 118.048883 270.068303 
L 121.724438 272.957784 
L 125.399993 275.70717 
L 129.075548 278.316459 
L 132.751104 280.785652 
L 136.426659 283.114749 
L 140.102214 285.303751 
L 143.777769 287.352656 
L 147.453324 289.261465 
L 151.12888 291.030178 
L 154.804435 292.658794 
L 158.47999 294.147315 
L 162.155545 295.49574 
L 165.8311 296.704068 
L 169.506655 297.772301 
L 173.182211 298.700437 
L 176.857766 299.488478 
L 180.533321 300.136422 
L 184.208876 300.64427 
L 187.884431 301.012023 
L 191.559987 301.239679 
L 195.235542 301.327239 
L 198.911097 301.274703 
L 202.586652 301.082071 
L 206.262207 300.749343 
L 209.937762 300.276518 
L 213.613318 299.663598 
L 217.288873 298.910582 
L 220.964428 298.017469 
L 224.639983 296.984261 
L 228.315538 295.810956 
L 231.991094 294.497555 
L 235.666649 293.044059 
L 239.342204 291.450466 
L 243.017759 289.716777 
L 246.693314 287.842992 
L 250.368869 285.829111 
L 254.044425 283.675134 
L 257.71998 281.381061 
L 261.395535 278.946891 
L 265.07109 276.372626 
L 268.746645 273.658265 
L 272.422201 270.803807 
L 276.097756 267.809254 
L 279.773311 264.674604 
L 283.448866 261.399858 
L 287.124421 257.985017 
L 290.799976 254.430079 
L 294.475532 250.735045 
L 298.151087 246.899915 
L 301.826642 242.924689 
L 305.502197 238.809367 
L 309.177752 234.553949 
L 312.853308 230.158434 
L 316.528863 225.622824 
L 320.204418 220.947118 
L 323.879973 216.131315 
L 327.555528 211.175417 
L 331.231083 206.079422 
L 334.906639 200.843331 
L 338.582194 195.467145 
L 342.257749 189.950862 
L 345.933304 184.294483 
L 349.608859 178.498008 
L 353.284415 172.561437 
L 356.95997 166.48477 
L 360.635525 160.268007 
L 364.31108 153.911147 
L 367.986635 147.414192 
L 371.66219 140.777141 
L 375.337746 133.999993 
L 379.013301 127.082749 
L 382.688856 120.02541 
L 386.364411 112.827974 
L 390.039966 105.490442 
L 393.715522 98.012815 
L 397.391077 90.395091 
L 401.066632 82.637271 
L 404.742187 74.739355 
L 408.417742 66.701343 
L 412.093297 58.523234 
L 415.768853 50.20503 
L 419.444408 41.74673 
L 423.119963 33.148333 
" style="fill:none;stroke:#e6f598;stroke-linecap:square;stroke-width:3;"/>
   </g>
   <g id="line2d_12">
    <path clip-path="url(#pa69fc72d28)" d="M 59.24 199.8669 
L 62.915555 205.853088 
L 66.59111 211.675831 
L 70.266666 217.335129 
L 73.942221 222.830981 
L 77.617776 228.163388 
L 81.293331 233.332349 
L 84.968886 238.337865 
L 88.644441 243.179936 
L 92.319997 247.858561 
L 95.995552 252.37374 
L 99.671107 256.725474 
L 103.346662 260.913763 
L 107.022217 264.938607 
L 110.697773 268.800005 
L 114.373328 272.497957 
L 118.048883 276.032464 
L 121.724438 279.403526 
L 125.399993 282.611142 
L 129.075548 285.655313 
L 132.751104 288.536039 
L 136.426659 291.253319 
L 140.102214 293.807153 
L 143.777769 296.197543 
L 147.453324 298.424487 
L 151.12888 300.487985 
L 154.804435 302.388038 
L 158.47999 304.124645 
L 162.155545 305.697808 
L 165.8311 307.107524 
L 169.506655 308.353796 
L 173.182211 309.436622 
L 176.857766 310.356002 
L 180.533321 311.111937 
L 184.208876 311.704427 
L 187.884431 312.133471 
L 191.559987 312.39907 
L 195.235542 312.501223 
L 198.911097 312.439931 
L 202.586652 312.215194 
L 206.262207 311.827011 
L 209.937762 311.275382 
L 213.613318 310.560309 
L 217.288873 309.68179 
L 220.964428 308.639825 
L 224.639983 307.434415 
L 228.315538 306.06556 
L 231.991094 304.533259 
L 235.666649 302.837513 
L 239.342204 300.978321 
L 243.017759 298.955684 
L 246.693314 296.769602 
L 250.368869 294.420074 
L 254.044425 291.907101 
L 257.71998 289.230682 
L 261.395535 286.390818 
L 265.07109 283.387508 
L 268.746645 280.220753 
L 272.422201 276.890553 
L 276.097756 273.396907 
L 279.773311 269.739816 
L 283.448866 265.919279 
L 287.124421 261.935297 
L 290.799976 257.78787 
L 294.475532 253.476997 
L 298.151087 249.002679 
L 301.826642 244.364915 
L 305.502197 239.563706 
L 309.177752 234.599051 
L 312.853308 229.470951 
L 316.528863 224.179406 
L 320.204418 218.724415 
L 323.879973 213.105979 
L 327.555528 207.324097 
L 331.231083 201.37877 
L 334.906639 195.269998 
L 338.582194 188.99778 
L 342.257749 182.562116 
L 345.933304 175.963008 
L 349.608859 169.200454 
L 353.284415 162.274454 
L 356.95997 155.185009 
L 360.635525 147.932119 
L 364.31108 140.515783 
L 367.986635 132.936002 
L 371.66219 125.192775 
L 375.337746 117.286103 
L 379.013301 109.215986 
L 382.688856 100.982423 
L 386.364411 92.585414 
L 390.039966 84.024961 
L 393.715522 75.301061 
L 397.391077 66.413717 
L 401.066632 57.362927 
L 404.742187 48.148692 
L 408.417742 38.771011 
L 412.093297 29.229885 
L 415.768853 19.525313 
L 419.444408 9.657296 
L 423.119963 -0.374167 
" style="fill:none;stroke:#aadca4;stroke-linecap:square;stroke-width:3;"/>
   </g>
   <g id="line2d_13">
    <path clip-path="url(#pa69fc72d28)" d="M 59.24 194.950267 
L 62.915555 201.791625 
L 66.59111 208.446188 
L 70.266666 214.913957 
L 73.942221 221.194931 
L 77.617776 227.28911 
L 81.293331 233.196494 
L 84.968886 238.917084 
L 88.644441 244.450879 
L 92.319997 249.797879 
L 95.995552 254.958084 
L 99.671107 259.931495 
L 103.346662 264.71811 
L 107.022217 269.317931 
L 110.697773 273.730958 
L 114.373328 277.957189 
L 118.048883 281.996626 
L 121.724438 285.849268 
L 125.399993 289.515115 
L 129.075548 292.994168 
L 132.751104 296.286425 
L 136.426659 299.391888 
L 140.102214 302.310556 
L 143.777769 305.04243 
L 147.453324 307.587508 
L 151.12888 309.945792 
L 154.804435 312.117281 
L 158.47999 314.101976 
L 162.155545 315.899875 
L 165.8311 317.51098 
L 169.506655 318.93529 
L 173.182211 320.172806 
L 176.857766 321.223526 
L 180.533321 322.087452 
L 184.208876 322.764583 
L 187.884431 323.254919 
L 191.559987 323.558461 
L 195.235542 323.675207 
L 198.911097 323.605159 
L 202.586652 323.348316 
L 206.262207 322.904679 
L 209.937762 322.274247 
L 213.613318 321.45702 
L 217.288873 320.452998 
L 220.964428 319.262181 
L 224.639983 317.88457 
L 228.315538 316.320164 
L 231.991094 314.568963 
L 235.666649 312.630967 
L 239.342204 310.506177 
L 243.017759 308.194591 
L 246.693314 305.696211 
L 250.368869 303.011037 
L 254.044425 300.139067 
L 257.71998 297.080303 
L 261.395535 293.834744 
L 265.07109 290.40239 
L 268.746645 286.783242 
L 272.422201 282.977298 
L 276.097756 278.98456 
L 279.773311 274.805028 
L 283.448866 270.4387 
L 287.124421 265.885578 
L 290.799976 261.145661 
L 294.475532 256.218949 
L 298.151087 251.105442 
L 301.826642 245.805141 
L 305.502197 240.318045 
L 309.177752 234.644154 
L 312.853308 228.783468 
L 316.528863 222.735988 
L 320.204418 216.501712 
L 323.879973 210.080642 
L 327.555528 203.472778 
L 331.231083 196.678118 
L 334.906639 189.696664 
L 338.582194 182.528415 
L 342.257749 175.173371 
L 345.933304 167.631533 
L 349.608859 159.902899 
L 353.284415 151.987471 
L 356.95997 143.885248 
L 360.635525 135.596231 
L 364.31108 127.120419 
L 367.986635 118.457811 
L 371.66219 109.60841 
L 375.337746 100.572213 
L 379.013301 91.349222 
L 382.688856 81.939435 
L 386.364411 72.342854 
L 390.039966 62.559479 
L 393.715522 52.589308 
L 397.391077 42.432343 
L 401.066632 32.088583 
L 404.742187 21.558028 
L 408.417742 10.840679 
L 412.093297 -0.063465 
L 412.403667 -1 
" style="fill:none;stroke:#66c2a5;stroke-linecap:square;stroke-width:3;"/>
   </g>
   <g id="line2d_14">
    <path clip-path="url(#pa69fc72d28)" d="M 59.24 190.033633 
L 62.915555 197.730161 
L 66.59111 205.216545 
L 70.266666 212.492785 
L 73.942221 219.55888 
L 77.617776 226.414832 
L 81.293331 233.060639 
L 84.968886 239.496303 
L 88.644441 245.721822 
L 92.319997 251.737197 
L 95.995552 257.542428 
L 99.671107 263.137515 
L 103.346662 268.522458 
L 107.022217 273.697256 
L 110.697773 278.661911 
L 114.373328 283.416421 
L 118.048883 287.960788 
L 121.724438 292.29501 
L 125.399993 296.419088 
L 129.075548 300.333022 
L 132.751104 304.036812 
L 136.426659 307.530458 
L 140.102214 310.813959 
L 143.777769 313.887317 
L 147.453324 316.75053 
L 151.12888 319.4036 
L 154.804435 321.846525 
L 158.47999 324.079306 
L 162.155545 326.101943 
L 165.8311 327.914436 
L 169.506655 329.516785 
L 173.182211 330.90899 
L 176.857766 332.09105 
L 180.533321 333.062967 
L 184.208876 333.824739 
L 187.884431 334.376367 
L 191.559987 334.717852 
L 195.235542 334.849192 
L 198.911097 334.770388 
L 202.586652 334.481439 
L 206.262207 333.982347 
L 209.937762 333.273111 
L 213.613318 332.35373 
L 217.288873 331.224206 
L 220.964428 329.884537 
L 224.639983 328.334724 
L 228.315538 326.574767 
L 231.991094 324.604666 
L 235.666649 322.424421 
L 239.342204 320.034032 
L 243.017759 317.433499 
L 246.693314 314.622821 
L 250.368869 311.602 
L 254.044425 308.371034 
L 257.71998 304.929924 
L 261.395535 301.27867 
L 265.07109 297.417272 
L 268.746645 293.34573 
L 272.422201 289.064044 
L 276.097756 284.572214 
L 279.773311 279.870239 
L 283.448866 274.958121 
L 287.124421 269.835858 
L 290.799976 264.503452 
L 294.475532 258.960901 
L 298.151087 253.208206 
L 301.826642 247.245367 
L 305.502197 241.072384 
L 309.177752 234.689256 
L 312.853308 228.095985 
L 316.528863 221.292569 
L 320.204418 214.27901 
L 323.879973 207.055306 
L 327.555528 199.621458 
L 331.231083 191.977466 
L 334.906639 184.12333 
L 338.582194 176.05905 
L 342.257749 167.784626 
L 345.933304 159.300058 
L 349.608859 150.605345 
L 353.284415 141.700489 
L 356.95997 132.585488 
L 360.635525 123.260343 
L 364.31108 113.725054 
L 367.986635 103.979621 
L 371.66219 94.024044 
L 375.337746 83.858323 
L 379.013301 73.482458 
L 382.688856 62.896448 
L 386.364411 52.100295 
L 390.039966 41.093997 
L 393.715522 29.877555 
L 397.391077 18.450969 
L 401.066632 6.814239 
L 403.491041 -1 
" style="fill:none;stroke:#3387bc;stroke-linecap:square;stroke-width:3;"/>
   </g>
   <g id="line2d_15">
    <path clip-path="url(#pa69fc72d28)" d="M 59.24 185.117 
L 62.915555 193.668698 
L 66.59111 201.986902 
L 70.266666 210.071613 
L 73.942221 217.92283 
L 77.617776 225.540554 
L 81.293331 232.924785 
L 84.968886 240.075522 
L 88.644441 246.992765 
L 92.319997 253.676515 
L 95.995552 260.126772 
L 99.671107 266.343535 
L 103.346662 272.326805 
L 107.022217 278.076581 
L 110.697773 283.592864 
L 114.373328 288.875653 
L 118.048883 293.924949 
L 121.724438 298.740752 
L 125.399993 303.323061 
L 129.075548 307.671876 
L 132.751104 311.787198 
L 136.426659 315.669027 
L 140.102214 319.317362 
L 143.777769 322.732204 
L 147.453324 325.913552 
L 151.12888 328.861407 
L 154.804435 331.575768 
L 158.47999 334.056636 
L 162.155545 336.304011 
L 165.8311 338.317892 
L 169.506655 340.098279 
L 173.182211 341.645174 
L 176.857766 342.958574 
L 180.533321 344.038481 
L 184.208876 344.884895 
L 187.884431 345.497816 
L 191.559987 345.877242 
L 195.235542 346.023176 
L 198.911097 345.935616 
L 202.586652 345.614562 
L 206.262207 345.060015 
L 209.937762 344.271975 
L 213.613318 343.250441 
L 217.288873 341.995414 
L 220.964428 340.506893 
L 224.639983 338.784879 
L 228.315538 336.829371 
L 231.991094 334.64037 
L 235.666649 332.217875 
L 239.342204 329.561887 
L 243.017759 326.672406 
L 246.693314 323.549431 
L 250.368869 320.192963 
L 254.044425 316.603001 
L 257.71998 312.779545 
L 261.395535 308.722597 
L 265.07109 304.432155 
L 268.746645 299.908219 
L 272.422201 295.15079 
L 276.097756 290.159867 
L 279.773311 284.935451 
L 283.448866 279.477542 
L 287.124421 273.786139 
L 290.799976 267.861242 
L 294.475532 261.702853 
L 298.151087 255.310969 
L 301.826642 248.685593 
L 305.502197 241.826722 
L 309.177752 234.734359 
L 312.853308 227.408502 
L 316.528863 219.849151 
L 320.204418 212.056307 
L 323.879973 204.02997 
L 327.555528 195.770139 
L 331.231083 187.276814 
L 334.906639 178.549997 
L 338.582194 169.589685 
L 342.257749 160.395881 
L 345.933304 150.968582 
L 349.608859 141.307791 
L 353.284415 131.413506 
L 356.95997 121.285727 
L 360.635525 110.924455 
L 364.31108 100.32969 
L 367.986635 89.501431 
L 371.66219 78.439679 
L 375.337746 67.144433 
L 379.013301 55.615694 
L 382.688856 43.853461 
L 386.364411 31.857735 
L 390.039966 19.628515 
L 393.715522 7.165802 
L 396.079523 -1 
" style="fill:none;stroke:#5e4fa2;stroke-linecap:square;stroke-width:3;"/>
   </g>
   <g id="line2d_16">
    <path clip-path="url(#pa69fc72d28)" d="M 423.119963 278.98 
L 423.119963 10.8 
" style="fill:none;stroke:#000000;stroke-dasharray:3,4.95;stroke-dashoffset:0;stroke-width:3;"/>
   </g>
   <g id="line2d_17">
    <path clip-path="url(#pa69fc72d28)" d="M 59.24 234.283333 
L 445.862461 234.283333 
" style="fill:none;stroke:#000000;stroke-dasharray:11.1,4.8;stroke-dashoffset:0;stroke-width:3;"/>
   </g>
   <g id="patch_3">
    <path d="M 59.24 278.98 
L 59.24 10.8 
" style="fill:none;stroke:#000000;stroke-linecap:square;stroke-linejoin:miter;stroke-width:3;"/>
   </g>
   <g id="patch_4">
    <path d="M 59.24 278.98 
L 445.862461 278.98 
" style="fill:none;stroke:#000000;stroke-linecap:square;stroke-linejoin:miter;stroke-width:3;"/>
   </g>
   <g id="legend_1">
    <g id="patch_5">
     <path d="M 66.24 121.546875 
L 148.04625 121.546875 
Q 150.04625 121.546875 150.04625 119.546875 
L 150.04625 17.8 
Q 150.04625 15.8 148.04625 15.8 
L 66.24 15.8 
Q 64.24 15.8 64.24 17.8 
L 64.24 119.546875 
Q 64.24 121.546875 66.24 121.546875 
z
" style="fill:#ffffff;opacity:0.8;stroke:#cccccc;stroke-linejoin:miter;"/>
    </g>
    <g id="text_7">
     <!-- $a0$ -->
     <g transform="translate(100.893125 27.398438)scale(0.1 -0.1)">
      <defs>
       <path d="M 3438 1997 
L 3047 0 
L 2472 0 
L 2578 531 
Q 2325 219 2001 64 
Q 1678 -91 1281 -91 
Q 834 -91 548 182 
Q 263 456 263 884 
Q 263 1497 752 1853 
Q 1241 2209 2100 2209 
L 2900 2209 
L 2931 2363 
Q 2938 2388 2941 2417 
Q 2944 2447 2944 2509 
Q 2944 2788 2717 2942 
Q 2491 3097 2081 3097 
Q 1800 3097 1504 3025 
Q 1209 2953 897 2809 
L 997 3341 
Q 1322 3463 1633 3523 
Q 1944 3584 2234 3584 
Q 2853 3584 3176 3315 
Q 3500 3047 3500 2534 
Q 3500 2431 3484 2292 
Q 3469 2153 3438 1997 
z
M 2816 1759 
L 2241 1759 
Q 1534 1759 1195 1570 
Q 856 1381 856 984 
Q 856 709 1029 553 
Q 1203 397 1509 397 
Q 1978 397 2328 733 
Q 2678 1069 2791 1631 
L 2816 1759 
z
" id="DejaVuSans-Oblique-61" transform="scale(0.015625)"/>
      </defs>
      <use transform="translate(0 0.78125)" xlink:href="#DejaVuSans-Oblique-61"/>
      <use transform="translate(61.279297 0.78125)" xlink:href="#DejaVuSans-30"/>
     </g>
    </g>
    <g id="line2d_18">
     <path d="M 68.24 38.576563 
L 73.24 38.576563 
" style="fill:none;stroke:#9e0142;stroke-linecap:square;stroke-width:3;"/>
    </g>
    <g id="line2d_19"/>
    <g id="text_8">
     <!-- 0.0 -->
     <g transform="translate(81.24 42.076563)scale(0.1 -0.1)">
      <defs>
       <path d="M 684 794 
L 1344 794 
L 1344 0 
L 684 0 
L 684 794 
z
" id="DejaVuSans-2e" transform="scale(0.015625)"/>
      </defs>
      <use xlink:href="#DejaVuSans-30"/>
      <use x="63.623047" xlink:href="#DejaVuSans-2e"/>
      <use x="95.410156" xlink:href="#DejaVuSans-30"/>
     </g>
    </g>
    <g id="line2d_20">
     <path d="M 68.24 53.254688 
L 73.24 53.254688 
" style="fill:none;stroke:#d43d4f;stroke-linecap:square;stroke-width:3;"/>
    </g>
    <g id="line2d_21"/>
    <g id="text_9">
     <!-- 0.2 -->
     <g transform="translate(81.24 56.754688)scale(0.1 -0.1)">
      <defs>
       <path d="M 1228 531 
L 3431 531 
L 3431 0 
L 469 0 
L 469 531 
Q 828 903 1448 1529 
Q 2069 2156 2228 2338 
Q 2531 2678 2651 2914 
Q 2772 3150 2772 3378 
Q 2772 3750 2511 3984 
Q 2250 4219 1831 4219 
Q 1534 4219 1204 4116 
Q 875 4013 500 3803 
L 500 4441 
Q 881 4594 1212 4672 
Q 1544 4750 1819 4750 
Q 2544 4750 2975 4387 
Q 3406 4025 3406 3419 
Q 3406 3131 3298 2873 
Q 3191 2616 2906 2266 
Q 2828 2175 2409 1742 
Q 1991 1309 1228 531 
z
" id="DejaVuSans-32" transform="scale(0.015625)"/>
      </defs>
      <use xlink:href="#DejaVuSans-30"/>
      <use x="63.623047" xlink:href="#DejaVuSans-2e"/>
      <use x="95.410156" xlink:href="#DejaVuSans-32"/>
     </g>
    </g>
    <g id="line2d_22">
     <path d="M 68.24 67.932813 
L 73.24 67.932813 
" style="fill:none;stroke:#f46d43;stroke-linecap:square;stroke-width:3;"/>
    </g>
    <g id="line2d_23"/>
    <g id="text_10">
     <!-- 0.4 -->
     <g transform="translate(81.24 71.432813)scale(0.1 -0.1)">
      <defs>
       <path d="M 2419 4116 
L 825 1625 
L 2419 1625 
L 2419 4116 
z
M 2253 4666 
L 3047 4666 
L 3047 1625 
L 3713 1625 
L 3713 1100 
L 3047 1100 
L 3047 0 
L 2419 0 
L 2419 1100 
L 313 1100 
L 313 1709 
L 2253 4666 
z
" id="DejaVuSans-34" transform="scale(0.015625)"/>
      </defs>
      <use xlink:href="#DejaVuSans-30"/>
      <use x="63.623047" xlink:href="#DejaVuSans-2e"/>
      <use x="95.410156" xlink:href="#DejaVuSans-34"/>
     </g>
    </g>
    <g id="line2d_24">
     <path d="M 68.24 82.610938 
L 73.24 82.610938 
" style="fill:none;stroke:#fdad60;stroke-linecap:square;stroke-width:3;"/>
    </g>
    <g id="line2d_25"/>
    <g id="text_11">
     <!-- 0.6 -->
     <g transform="translate(81.24 86.110938)scale(0.1 -0.1)">
      <defs>
       <path d="M 2113 2584 
Q 1688 2584 1439 2293 
Q 1191 2003 1191 1497 
Q 1191 994 1439 701 
Q 1688 409 2113 409 
Q 2538 409 2786 701 
Q 3034 994 3034 1497 
Q 3034 2003 2786 2293 
Q 2538 2584 2113 2584 
z
M 3366 4563 
L 3366 3988 
Q 3128 4100 2886 4159 
Q 2644 4219 2406 4219 
Q 1781 4219 1451 3797 
Q 1122 3375 1075 2522 
Q 1259 2794 1537 2939 
Q 1816 3084 2150 3084 
Q 2853 3084 3261 2657 
Q 3669 2231 3669 1497 
Q 3669 778 3244 343 
Q 2819 -91 2113 -91 
Q 1303 -91 875 529 
Q 447 1150 447 2328 
Q 447 3434 972 4092 
Q 1497 4750 2381 4750 
Q 2619 4750 2861 4703 
Q 3103 4656 3366 4563 
z
" id="DejaVuSans-36" transform="scale(0.015625)"/>
      </defs>
      <use xlink:href="#DejaVuSans-30"/>
      <use x="63.623047" xlink:href="#DejaVuSans-2e"/>
      <use x="95.410156" xlink:href="#DejaVuSans-36"/>
     </g>
    </g>
    <g id="line2d_26">
     <path d="M 68.24 97.289063 
L 73.24 97.289063 
" style="fill:none;stroke:#fee08b;stroke-linecap:square;stroke-width:3;"/>
    </g>
    <g id="line2d_27"/>
    <g id="text_12">
     <!-- 0.8 -->
     <g transform="translate(81.24 100.789063)scale(0.1 -0.1)">
      <defs>
       <path d="M 2034 2216 
Q 1584 2216 1326 1975 
Q 1069 1734 1069 1313 
Q 1069 891 1326 650 
Q 1584 409 2034 409 
Q 2484 409 2743 651 
Q 3003 894 3003 1313 
Q 3003 1734 2745 1975 
Q 2488 2216 2034 2216 
z
M 1403 2484 
Q 997 2584 770 2862 
Q 544 3141 544 3541 
Q 544 4100 942 4425 
Q 1341 4750 2034 4750 
Q 2731 4750 3128 4425 
Q 3525 4100 3525 3541 
Q 3525 3141 3298 2862 
Q 3072 2584 2669 2484 
Q 3125 2378 3379 2068 
Q 3634 1759 3634 1313 
Q 3634 634 3220 271 
Q 2806 -91 2034 -91 
Q 1263 -91 848 271 
Q 434 634 434 1313 
Q 434 1759 690 2068 
Q 947 2378 1403 2484 
z
M 1172 3481 
Q 1172 3119 1398 2916 
Q 1625 2713 2034 2713 
Q 2441 2713 2670 2916 
Q 2900 3119 2900 3481 
Q 2900 3844 2670 4047 
Q 2441 4250 2034 4250 
Q 1625 4250 1398 4047 
Q 1172 3844 1172 3481 
z
" id="DejaVuSans-38" transform="scale(0.015625)"/>
      </defs>
      <use xlink:href="#DejaVuSans-30"/>
      <use x="63.623047" xlink:href="#DejaVuSans-2e"/>
      <use x="95.410156" xlink:href="#DejaVuSans-38"/>
     </g>
    </g>
    <g id="line2d_28">
     <path d="M 68.24 111.967188 
L 73.24 111.967188 
" style="fill:none;stroke:#ffffbe;stroke-linecap:square;stroke-width:3;"/>
    </g>
    <g id="line2d_29"/>
    <g id="text_13">
     <!-- 1.0 -->
     <g transform="translate(81.24 115.467188)scale(0.1 -0.1)">
      <defs>
       <path d="M 794 531 
L 1825 531 
L 1825 4091 
L 703 3866 
L 703 4441 
L 1819 4666 
L 2450 4666 
L 2450 531 
L 3481 531 
L 3481 0 
L 794 0 
L 794 531 
z
" id="DejaVuSans-31" transform="scale(0.015625)"/>
      </defs>
      <use xlink:href="#DejaVuSans-31"/>
      <use x="63.623047" xlink:href="#DejaVuSans-2e"/>
      <use x="95.410156" xlink:href="#DejaVuSans-30"/>
     </g>
    </g>
    <g id="line2d_30">
     <path d="M 117.143125 38.576563 
L 122.143125 38.576563 
" style="fill:none;stroke:#e6f598;stroke-linecap:square;stroke-width:3;"/>
    </g>
    <g id="line2d_31"/>
    <g id="text_14">
     <!-- 1.2 -->
     <g transform="translate(130.143125 42.076563)scale(0.1 -0.1)">
      <use xlink:href="#DejaVuSans-31"/>
      <use x="63.623047" xlink:href="#DejaVuSans-2e"/>
      <use x="95.410156" xlink:href="#DejaVuSans-32"/>
     </g>
    </g>
    <g id="line2d_32">
     <path d="M 117.143125 53.254688 
L 122.143125 53.254688 
" style="fill:none;stroke:#aadca4;stroke-linecap:square;stroke-width:3;"/>
    </g>
    <g id="line2d_33"/>
    <g id="text_15">
     <!-- 1.4 -->
     <g transform="translate(130.143125 56.754688)scale(0.1 -0.1)">
      <use xlink:href="#DejaVuSans-31"/>
      <use x="63.623047" xlink:href="#DejaVuSans-2e"/>
      <use x="95.410156" xlink:href="#DejaVuSans-34"/>
     </g>
    </g>
    <g id="line2d_34">
     <path d="M 117.143125 67.932813 
L 122.143125 67.932813 
" style="fill:none;stroke:#66c2a5;stroke-linecap:square;stroke-width:3;"/>
    </g>
    <g id="line2d_35"/>
    <g id="text_16">
     <!-- 1.6 -->
     <g transform="translate(130.143125 71.432813)scale(0.1 -0.1)">
      <use xlink:href="#DejaVuSans-31"/>
      <use x="63.623047" xlink:href="#DejaVuSans-2e"/>
      <use x="95.410156" xlink:href="#DejaVuSans-36"/>
     </g>
    </g>
    <g id="line2d_36">
     <path d="M 117.143125 82.610938 
L 122.143125 82.610938 
" style="fill:none;stroke:#3387bc;stroke-linecap:square;stroke-width:3;"/>
    </g>
    <g id="line2d_37"/>
    <g id="text_17">
     <!-- 1.8 -->
     <g transform="translate(130.143125 86.110938)scale(0.1 -0.1)">
      <use xlink:href="#DejaVuSans-31"/>
      <use x="63.623047" xlink:href="#DejaVuSans-2e"/>
      <use x="95.410156" xlink:href="#DejaVuSans-38"/>
     </g>
    </g>
    <g id="line2d_38">
     <path d="M 117.143125 97.289063 
L 122.143125 97.289063 
" style="fill:none;stroke:#5e4fa2;stroke-linecap:square;stroke-width:3;"/>
    </g>
    <g id="line2d_39"/>
    <g id="text_18">
     <!-- 2.0 -->
     <g transform="translate(130.143125 100.789063)scale(0.1 -0.1)">
      <use xlink:href="#DejaVuSans-32"/>
      <use x="63.623047" xlink:href="#DejaVuSans-2e"/>
      <use x="95.410156" xlink:href="#DejaVuSans-30"/>
     </g>
    </g>
   </g>
  </g>
 </g>
 <defs>
  <clipPath id="pa69fc72d28">
   <rect height="268.18" width="386.622461" x="59.24" y="10.8"/>
  </clipPath>
 </defs>
</svg>
