<?xml version="1.0" encoding="utf-8" standalone="no"?>
<!DOCTYPE svg PUBLIC "-//W3C//DTD SVG 1.1//EN"
  "http://www.w3.org/Graphics/SVG/1.1/DTD/svg11.dtd">
<svg height="345.6pt" version="1.1" viewBox="0 0 345.6 345.6" width="345.6pt" xmlns="http://www.w3.org/2000/svg" xmlns:xlink="http://www.w3.org/1999/xlink">
 <metadata>
  <rdf:RDF xmlns:cc="http://creativecommons.org/ns#" xmlns:dc="http://purl.org/dc/elements/1.1/" xmlns:rdf="http://www.w3.org/1999/02/22-rdf-syntax-ns#">
   <cc:Work>
    <dc:type rdf:resource="http://purl.org/dc/dcmitype/StillImage"/>
    <dc:date>2022-08-08T17:29:14.680165</dc:date>
    <dc:format>image/svg+xml</dc:format>
    <dc:creator>
     <cc:Agent>
      <dc:title>Matplotlib v3.4.2, https://matplotlib.org/</dc:title>
     </cc:Agent>
    </dc:creator>
   </cc:Work>
  </rdf:RDF>
 </metadata>
 <defs>
  <style type="text/css">*{stroke-linecap:butt;stroke-linejoin:round;}</style>
 </defs>
 <g id="figure_1">
  <g id="patch_1">
   <path d="M 0 345.6 
L 345.6 345.6 
L 345.6 0 
L 0 0 
z
" style="fill:#ffffff;"/>
  </g>
  <g id="axes_1">
   <g id="patch_2">
    <path d="M 35.3 310.64 
L 334.8 310.64 
L 334.8 10.8 
L 35.3 10.8 
z
" style="fill:#ffffff;"/>
   </g>
   <g id="patch_3">
    <path clip-path="url(#p04484a8ff9)" d="M 35.3 153.224 
L 35.3 168.216 
L 20.325 160.72 
z
"/>
   </g>
   <g id="patch_4">
    <path clip-path="url(#p04484a8ff9)" d="M 56.692857 153.224 
L 56.692857 168.216 
L 41.717857 160.72 
z
"/>
   </g>
   <g id="patch_5">
    <path clip-path="url(#p04484a8ff9)" d="M 78.085714 153.224 
L 78.085714 168.216 
L 63.110714 160.72 
z
"/>
   </g>
   <g id="patch_6">
    <path clip-path="url(#p04484a8ff9)" d="M 99.478571 153.224 
L 99.478571 168.216 
L 114.453571 160.72 
z
"/>
   </g>
   <g id="patch_7">
    <path clip-path="url(#p04484a8ff9)" d="M 120.871429 153.224 
L 120.871429 168.216 
L 135.846429 160.72 
z
"/>
   </g>
   <g id="patch_8">
    <path clip-path="url(#p04484a8ff9)" d="M 142.264286 153.224 
L 142.264286 168.216 
L 157.239286 160.72 
z
"/>
   </g>
   <g id="patch_9">
    <path clip-path="url(#p04484a8ff9)" d="M 163.657143 153.224 
L 163.657143 168.216 
L 178.632143 160.72 
z
"/>
   </g>
   <g id="patch_10">
    <path clip-path="url(#p04484a8ff9)" d="M 185.05 153.224 
L 185.05 168.216 
L 170.075 160.72 
z
"/>
   </g>
   <g id="patch_11">
    <path clip-path="url(#p04484a8ff9)" d="M 206.442857 153.224 
L 206.442857 168.216 
L 191.467857 160.72 
z
"/>
   </g>
   <g id="patch_12">
    <path clip-path="url(#p04484a8ff9)" d="M 227.835714 153.224 
L 227.835714 168.216 
L 212.860714 160.72 
z
"/>
   </g>
   <g id="patch_13">
    <path clip-path="url(#p04484a8ff9)" d="M 249.228571 153.224 
L 249.228571 168.216 
L 234.253571 160.72 
z
"/>
   </g>
   <g id="patch_14">
    <path clip-path="url(#p04484a8ff9)" d="M 270.621429 153.224 
L 270.621429 168.216 
L 255.646429 160.72 
z
"/>
   </g>
   <g id="patch_15">
    <path clip-path="url(#p04484a8ff9)" d="M 292.014286 153.224 
L 292.014286 168.216 
L 277.039286 160.72 
z
"/>
   </g>
   <g id="patch_16">
    <path clip-path="url(#p04484a8ff9)" d="M 313.407143 153.224 
L 313.407143 168.216 
L 298.432143 160.72 
z
"/>
   </g>
   <g id="patch_17">
    <path clip-path="url(#p04484a8ff9)" d="M 334.8 153.224 
L 334.8 168.216 
L 319.825 160.72 
z
"/>
   </g>
   <g id="matplotlib.axis_1">
    <g id="text_1">
     <!-- $x$ -->
     <g transform="translate(179.05 329.836875)scale(0.2 -0.2)">
      <defs>
       <path d="M 3841 3500 
L 2234 1784 
L 3219 0 
L 2559 0 
L 1819 1388 
L 531 0 
L -166 0 
L 1556 1844 
L 641 3500 
L 1300 3500 
L 1972 2234 
L 3144 3500 
L 3841 3500 
z
" id="DejaVuSans-Oblique-78" transform="scale(0.015625)"/>
      </defs>
      <use transform="translate(0 0.3125)" xlink:href="#DejaVuSans-Oblique-78"/>
     </g>
    </g>
   </g>
   <g id="matplotlib.axis_2">
    <g id="text_2">
     <!-- $\dot{x}$ -->
     <g transform="translate(27.140625 166.72)rotate(-90)scale(0.2 -0.2)">
      <defs>
       <path d="M -1894 4863 
L -1319 4863 
L -1319 4134 
L -1894 4134 
L -1894 4863 
z
M -1600 3584 
L -1600 3584 
z
" id="DejaVuSans-307" transform="scale(0.015625)"/>
      </defs>
      <use transform="translate(62.388672 12.015625)" xlink:href="#DejaVuSans-307"/>
      <use transform="translate(0 0.828125)" xlink:href="#DejaVuSans-Oblique-78"/>
     </g>
    </g>
   </g>
   <g id="line2d_1">
    <path clip-path="url(#p04484a8ff9)" d="M 185.05 310.64 
L 185.05 10.8 
" style="fill:none;stroke:#000000;stroke-linecap:square;stroke-width:3;"/>
   </g>
   <g id="line2d_2">
    <path clip-path="url(#p04484a8ff9)" d="M 35.3 160.72 
L 334.8 160.72 
" style="fill:none;stroke:#000000;stroke-linecap:square;stroke-width:3;"/>
   </g>
   <g id="line2d_3">
    <path clip-path="url(#p04484a8ff9)" d="M 35.3 265.664 
L 38.325253 256.730903 
L 41.350505 248.103735 
L 44.375758 239.782494 
L 47.40101 231.767181 
L 50.426263 224.057797 
L 53.451515 216.65434 
L 56.476768 209.556811 
L 59.50202 202.76521 
L 62.527273 196.279537 
L 65.552525 190.099792 
L 68.577778 184.225975 
L 71.60303 178.658086 
L 74.628283 173.396125 
L 77.653535 168.440092 
L 80.678788 163.789987 
L 83.70404 159.44581 
L 86.729293 155.407561 
L 89.754545 151.67524 
L 92.779798 148.248846 
L 95.805051 145.128381 
L 98.830303 142.313844 
L 101.855556 139.805235 
L 104.880808 137.602553 
L 107.906061 135.7058 
L 110.931313 134.114974 
L 113.956566 132.830077 
L 116.981818 131.851107 
L 120.007071 131.178066 
L 123.032323 130.810952 
L 126.057576 130.749767 
L 129.082828 130.994509 
L 132.108081 131.545179 
L 135.133333 132.401778 
L 138.158586 133.564304 
L 141.183838 135.032758 
L 144.209091 136.80714 
L 147.234343 138.887451 
L 150.259596 141.273689 
L 153.284848 143.965855 
L 156.310101 146.963949 
L 159.335354 150.267971 
L 162.360606 153.877921 
L 165.385859 157.793799 
L 168.411111 162.015605 
L 171.436364 166.543339 
L 174.461616 171.377001 
L 177.486869 176.516591 
L 180.512121 181.962108 
L 183.537374 187.713554 
L 186.562626 193.770928 
L 189.587879 200.13423 
L 192.613131 206.803459 
L 195.638384 213.778617 
L 198.663636 221.059702 
L 201.688889 228.646716 
L 204.714141 236.539658 
L 207.739394 244.738527 
L 210.764646 253.243325 
L 213.789899 262.05405 
L 216.815152 271.170703 
L 219.840404 280.593285 
L 222.865657 290.321794 
L 225.890909 300.356231 
L 228.916162 310.696597 
L 231.941414 321.34289 
L 234.966667 332.295111 
L 237.991919 343.55326 
L 238.78897 346.6 
" style="fill:none;stroke:#000000;stroke-linecap:square;stroke-width:5;"/>
   </g>
   <g id="line2d_4">
    <defs>
     <path d="M 0 7 
C 1.856422 7 3.637059 6.262436 4.949747 4.949747 
C 6.262436 3.637059 7 1.856422 7 0 
C 7 -1.856422 6.262436 -3.637059 4.949747 -4.949747 
C 3.637059 -6.262436 1.856422 -7 0 -7 
C -1.856422 -7 -3.637059 -6.262436 -4.949747 -4.949747 
C -6.262436 -3.637059 -7 -1.856422 -7 0 
C -7 1.856422 -6.262436 3.637059 -4.949747 4.949747 
C -3.637059 6.262436 -1.856422 7 0 7 
z
" id="m58893683ae" style="stroke:#000000;stroke-width:5;"/>
    </defs>
    <g clip-path="url(#p04484a8ff9)">
     <use style="fill:#ffffff;stroke:#000000;stroke-width:5;" x="82.794304" xlink:href="#m58893683ae" y="160.72"/>
    </g>
   </g>
   <g id="line2d_5">
    <defs>
     <path d="M 0 7 
C 1.856422 7 3.637059 6.262436 4.949747 4.949747 
C 6.262436 3.637059 7 1.856422 7 0 
C 7 -1.856422 6.262436 -3.637059 4.949747 -4.949747 
C 3.637059 -6.262436 1.856422 -7 0 -7 
C -1.856422 -7 -3.637059 -6.262436 -4.949747 -4.949747 
C -6.262436 -3.637059 -7 -1.856422 -7 0 
C -7 1.856422 -6.262436 3.637059 -4.949747 4.949747 
C -3.637059 6.262436 -1.856422 7 0 7 
z
" id="mbe1c87148a" style="stroke:#000000;stroke-width:5;"/>
    </defs>
    <g clip-path="url(#p04484a8ff9)">
     <use style="stroke:#000000;stroke-width:5;" x="167.505696" xlink:href="#mbe1c87148a" y="160.72"/>
    </g>
   </g>
  </g>
 </g>
 <defs>
  <clipPath id="p04484a8ff9">
   <rect height="299.84" width="299.5" x="35.3" y="10.8"/>
  </clipPath>
 </defs>
</svg>
