<?xml version="1.0" encoding="utf-8" standalone="no"?>
<!DOCTYPE svg PUBLIC "-//W3C//DTD SVG 1.1//EN"
  "http://www.w3.org/Graphics/SVG/1.1/DTD/svg11.dtd">
<svg height="345.6pt" version="1.1" viewBox="0 0 345.6 345.6" width="345.6pt" xmlns="http://www.w3.org/2000/svg" xmlns:xlink="http://www.w3.org/1999/xlink">
 <metadata>
  <rdf:RDF xmlns:cc="http://creativecommons.org/ns#" xmlns:dc="http://purl.org/dc/elements/1.1/" xmlns:rdf="http://www.w3.org/1999/02/22-rdf-syntax-ns#">
   <cc:Work>
    <dc:type rdf:resource="http://purl.org/dc/dcmitype/StillImage"/>
    <dc:date>2022-08-08T15:19:54.351362</dc:date>
    <dc:format>image/svg+xml</dc:format>
    <dc:creator>
     <cc:Agent>
      <dc:title>Matplotlib v3.4.2, https://matplotlib.org/</dc:title>
     </cc:Agent>
    </dc:creator>
   </cc:Work>
  </rdf:RDF>
 </metadata>
 <defs>
  <style type="text/css">*{stroke-linecap:butt;stroke-linejoin:round;}</style>
 </defs>
 <g id="figure_1">
  <g id="patch_1">
   <path d="M 0 345.6 
L 345.6 345.6 
L 345.6 0 
L 0 0 
z
" style="fill:#ffffff;"/>
  </g>
  <g id="axes_1">
   <g id="patch_2">
    <path d="M 34.96 283.48 
L 306.09 283.48 
L 306.09 10.8 
L 34.96 10.8 
z
" style="fill:#ffffff;"/>
   </g>
   <g id="matplotlib.axis_1">
    <g id="xtick_1">
     <g id="line2d_1">
      <defs>
       <path d="M 0 0 
L 0 3.5 
" id="m80c9b4cedf" style="stroke:#000000;stroke-width:0.8;"/>
      </defs>
      <g>
       <use style="stroke:#000000;stroke-width:0.8;" x="34.96" xlink:href="#m80c9b4cedf" y="283.48"/>
      </g>
     </g>
     <g id="text_1">
      <!-- 0.0 -->
      <g transform="translate(19.056875 305.676875)scale(0.2 -0.2)">
       <defs>
        <path d="M 2034 4250 
Q 1547 4250 1301 3770 
Q 1056 3291 1056 2328 
Q 1056 1369 1301 889 
Q 1547 409 2034 409 
Q 2525 409 2770 889 
Q 3016 1369 3016 2328 
Q 3016 3291 2770 3770 
Q 2525 4250 2034 4250 
z
M 2034 4750 
Q 2819 4750 3233 4129 
Q 3647 3509 3647 2328 
Q 3647 1150 3233 529 
Q 2819 -91 2034 -91 
Q 1250 -91 836 529 
Q 422 1150 422 2328 
Q 422 3509 836 4129 
Q 1250 4750 2034 4750 
z
" id="DejaVuSans-30" transform="scale(0.015625)"/>
        <path d="M 684 794 
L 1344 794 
L 1344 0 
L 684 0 
L 684 794 
z
" id="DejaVuSans-2e" transform="scale(0.015625)"/>
       </defs>
       <use xlink:href="#DejaVuSans-30"/>
       <use x="63.623047" xlink:href="#DejaVuSans-2e"/>
       <use x="95.410156" xlink:href="#DejaVuSans-30"/>
      </g>
     </g>
    </g>
    <g id="xtick_2">
     <g id="line2d_2">
      <g>
       <use style="stroke:#000000;stroke-width:0.8;" x="125.336667" xlink:href="#m80c9b4cedf" y="283.48"/>
      </g>
     </g>
     <g id="text_2">
      <!-- 33.0 -->
      <g transform="translate(103.071042 305.676875)scale(0.2 -0.2)">
       <defs>
        <path d="M 2597 2516 
Q 3050 2419 3304 2112 
Q 3559 1806 3559 1356 
Q 3559 666 3084 287 
Q 2609 -91 1734 -91 
Q 1441 -91 1130 -33 
Q 819 25 488 141 
L 488 750 
Q 750 597 1062 519 
Q 1375 441 1716 441 
Q 2309 441 2620 675 
Q 2931 909 2931 1356 
Q 2931 1769 2642 2001 
Q 2353 2234 1838 2234 
L 1294 2234 
L 1294 2753 
L 1863 2753 
Q 2328 2753 2575 2939 
Q 2822 3125 2822 3475 
Q 2822 3834 2567 4026 
Q 2313 4219 1838 4219 
Q 1578 4219 1281 4162 
Q 984 4106 628 3988 
L 628 4550 
Q 988 4650 1302 4700 
Q 1616 4750 1894 4750 
Q 2613 4750 3031 4423 
Q 3450 4097 3450 3541 
Q 3450 3153 3228 2886 
Q 3006 2619 2597 2516 
z
" id="DejaVuSans-33" transform="scale(0.015625)"/>
       </defs>
       <use xlink:href="#DejaVuSans-33"/>
       <use x="63.623047" xlink:href="#DejaVuSans-33"/>
       <use x="127.246094" xlink:href="#DejaVuSans-2e"/>
       <use x="159.033203" xlink:href="#DejaVuSans-30"/>
      </g>
     </g>
    </g>
    <g id="xtick_3">
     <g id="line2d_3">
      <g>
       <use style="stroke:#000000;stroke-width:0.8;" x="215.713333" xlink:href="#m80c9b4cedf" y="283.48"/>
      </g>
     </g>
     <g id="text_3">
      <!-- 67.0 -->
      <g transform="translate(193.447708 305.676875)scale(0.2 -0.2)">
       <defs>
        <path d="M 2113 2584 
Q 1688 2584 1439 2293 
Q 1191 2003 1191 1497 
Q 1191 994 1439 701 
Q 1688 409 2113 409 
Q 2538 409 2786 701 
Q 3034 994 3034 1497 
Q 3034 2003 2786 2293 
Q 2538 2584 2113 2584 
z
M 3366 4563 
L 3366 3988 
Q 3128 4100 2886 4159 
Q 2644 4219 2406 4219 
Q 1781 4219 1451 3797 
Q 1122 3375 1075 2522 
Q 1259 2794 1537 2939 
Q 1816 3084 2150 3084 
Q 2853 3084 3261 2657 
Q 3669 2231 3669 1497 
Q 3669 778 3244 343 
Q 2819 -91 2113 -91 
Q 1303 -91 875 529 
Q 447 1150 447 2328 
Q 447 3434 972 4092 
Q 1497 4750 2381 4750 
Q 2619 4750 2861 4703 
Q 3103 4656 3366 4563 
z
" id="DejaVuSans-36" transform="scale(0.015625)"/>
        <path d="M 525 4666 
L 3525 4666 
L 3525 4397 
L 1831 0 
L 1172 0 
L 2766 4134 
L 525 4134 
L 525 4666 
z
" id="DejaVuSans-37" transform="scale(0.015625)"/>
       </defs>
       <use xlink:href="#DejaVuSans-36"/>
       <use x="63.623047" xlink:href="#DejaVuSans-37"/>
       <use x="127.246094" xlink:href="#DejaVuSans-2e"/>
       <use x="159.033203" xlink:href="#DejaVuSans-30"/>
      </g>
     </g>
    </g>
    <g id="xtick_4">
     <g id="line2d_4">
      <g>
       <use style="stroke:#000000;stroke-width:0.8;" x="306.09" xlink:href="#m80c9b4cedf" y="283.48"/>
      </g>
     </g>
     <g id="text_4">
      <!-- 100.0 -->
      <g transform="translate(277.461875 305.676875)scale(0.2 -0.2)">
       <defs>
        <path d="M 794 531 
L 1825 531 
L 1825 4091 
L 703 3866 
L 703 4441 
L 1819 4666 
L 2450 4666 
L 2450 531 
L 3481 531 
L 3481 0 
L 794 0 
L 794 531 
z
" id="DejaVuSans-31" transform="scale(0.015625)"/>
       </defs>
       <use xlink:href="#DejaVuSans-31"/>
       <use x="63.623047" xlink:href="#DejaVuSans-30"/>
       <use x="127.246094" xlink:href="#DejaVuSans-30"/>
       <use x="190.869141" xlink:href="#DejaVuSans-2e"/>
       <use x="222.65625" xlink:href="#DejaVuSans-30"/>
      </g>
     </g>
    </g>
    <g id="text_5">
     <!-- $T$ -->
     <g transform="translate(164.325 329.033125)scale(0.2 -0.2)">
      <defs>
       <path d="M 378 4666 
L 4325 4666 
L 4225 4134 
L 2559 4134 
L 1759 0 
L 1125 0 
L 1925 4134 
L 275 4134 
L 378 4666 
z
" id="DejaVuSans-Oblique-54" transform="scale(0.015625)"/>
      </defs>
      <use transform="translate(0 0.09375)" xlink:href="#DejaVuSans-Oblique-54"/>
     </g>
    </g>
   </g>
   <g id="matplotlib.axis_2">
    <g id="text_6">
     <!-- $x$ -->
     <g transform="translate(26.800625 153.14)rotate(-90)scale(0.2 -0.2)">
      <defs>
       <path d="M 3841 3500 
L 2234 1784 
L 3219 0 
L 2559 0 
L 1819 1388 
L 531 0 
L -166 0 
L 1556 1844 
L 641 3500 
L 1300 3500 
L 1972 2234 
L 3144 3500 
L 3841 3500 
z
" id="DejaVuSans-Oblique-78" transform="scale(0.015625)"/>
      </defs>
      <use transform="translate(0 0.3125)" xlink:href="#DejaVuSans-Oblique-78"/>
     </g>
    </g>
   </g>
   <g id="line2d_5">
    <path clip-path="url(#paa0f44b957)" d="M 34.96 148.129669 
L 37.6713 148.179153 
L 40.3826 148.23111 
L 43.0939 148.285666 
L 45.8052 148.342949 
L 48.5165 148.403096 
L 51.2278 148.466251 
L 53.9391 148.532564 
L 56.6504 148.602192 
L 59.3617 148.675302 
L 62.073 148.752067 
L 64.7843 148.83267 
L 67.4956 148.917303 
L 70.2069 149.006169 
L 72.9182 149.099477 
L 75.6295 149.197451 
L 78.3408 149.300323 
L 81.0521 149.40834 
L 83.7634 149.521757 
L 86.4747 149.640844 
L 89.186 149.765887 
L 91.8973 149.897181 
L 94.6086 150.03504 
L 97.3199 150.179792 
L 100.0312 150.331782 
L 102.7425 150.491371 
L 105.4538 150.658939 
L 108.1651 150.834886 
L 110.8764 151.019631 
L 113.5877 151.213612 
L 116.299 151.417293 
L 119.0103 151.631157 
L 121.7216 151.855715 
L 124.4329 152.091501 
L 127.1442 152.339076 
L 129.8555 152.59903 
L 132.5668 152.871981 
L 135.2781 153.15858 
L 137.9894 153.459509 
L 140.7007 153.775485 
L 143.412 154.107259 
L 146.1233 154.455622 
L 148.8346 154.821403 
L 151.5459 155.205473 
L 154.2572 155.608747 
L 156.9685 156.032184 
L 159.6798 156.476794 
L 162.3911 156.943633 
L 165.1024 157.433815 
L 167.8137 157.948506 
L 170.525 158.488931 
L 173.2363 159.056377 
L 175.9476 159.652196 
L 178.6589 160.277806 
L 181.3702 160.934696 
L 184.0815 161.624431 
L 186.7928 162.348653 
L 189.5041 163.109085 
L 192.2154 163.90754 
L 194.9267 164.745917 
L 197.638 165.626212 
L 200.3493 166.550523 
L 203.0606 167.521049 
L 205.7719 168.540102 
L 208.4832 169.610107 
L 211.1945 170.733612 
L 213.9058 171.913293 
L 216.6171 173.151957 
L 219.3284 174.452555 
L 222.0397 175.818183 
L 224.751 177.252092 
L 227.4623 178.757697 
L 230.1736 180.338582 
L 232.8849 181.998511 
L 235.5962 183.741436 
L 238.3075 185.571508 
L 241.0188 187.493083 
L 243.7301 189.510738 
L 246.4414 191.629275 
L 249.1527 193.853738 
L 251.864 196.189425 
L 254.5753 198.641896 
L 257.2866 201.216991 
L 259.9979 203.920841 
L 262.7092 206.759883 
L 265.4205 209.740877 
L 268.1318 212.870921 
L 270.8431 216.157467 
L 273.5544 219.60834 
L 276.2657 223.231757 
L 278.977 227.036345 
L 281.6883 231.031162 
L 284.3996 235.22572 
L 287.1109 239.630007 
L 289.8222 244.254507 
L 292.5335 249.110232 
L 295.2448 254.208744 
L 297.9561 259.562181 
L 300.6674 265.18329 
L 303.3787 271.085455 
" style="fill:none;stroke:#9e0142;stroke-linecap:square;stroke-width:5;"/>
   </g>
   <g id="line2d_6">
    <path clip-path="url(#paa0f44b957)" d="M 34.96 147.931735 
L 37.6713 147.971322 
L 40.3826 148.012888 
L 43.0939 148.056533 
L 45.8052 148.102359 
L 48.5165 148.150477 
L 51.2278 148.201001 
L 53.9391 148.254051 
L 56.6504 148.309754 
L 59.3617 148.368241 
L 62.073 148.429653 
L 64.7843 148.494136 
L 67.4956 148.561843 
L 70.2069 148.632935 
L 72.9182 148.707582 
L 75.6295 148.785961 
L 78.3408 148.868259 
L 81.0521 148.954672 
L 83.7634 149.045405 
L 86.4747 149.140676 
L 89.186 149.240709 
L 91.8973 149.345745 
L 94.6086 149.456032 
L 97.3199 149.571834 
L 100.0312 149.693425 
L 102.7425 149.821097 
L 105.4538 149.955151 
L 108.1651 150.095909 
L 110.8764 150.243704 
L 113.5877 150.39889 
L 116.299 150.561834 
L 119.0103 150.732926 
L 121.7216 150.912572 
L 124.4329 151.101201 
L 127.1442 151.299261 
L 129.8555 151.507224 
L 132.5668 151.725585 
L 135.2781 151.954864 
L 137.9894 152.195607 
L 140.7007 152.448388 
L 143.412 152.713807 
L 146.1233 152.992498 
L 148.8346 153.285122 
L 151.5459 153.592379 
L 154.2572 153.914998 
L 156.9685 154.253747 
L 159.6798 154.609435 
L 162.3911 154.982907 
L 165.1024 155.375052 
L 167.8137 155.786804 
L 170.525 156.219145 
L 173.2363 156.673102 
L 175.9476 157.149757 
L 178.6589 157.650245 
L 181.3702 158.175757 
L 184.0815 158.727545 
L 186.7928 159.306922 
L 189.5041 159.915268 
L 192.2154 160.554032 
L 194.9267 161.224733 
L 197.638 161.92897 
L 200.3493 162.668418 
L 203.0606 163.444839 
L 205.7719 164.260081 
L 208.4832 165.116085 
L 211.1945 166.01489 
L 213.9058 166.958634 
L 216.6171 167.949566 
L 219.3284 168.990044 
L 222.0397 170.082546 
L 224.751 171.229674 
L 227.4623 172.434157 
L 230.1736 173.698865 
L 232.8849 175.026809 
L 235.5962 176.421149 
L 238.3075 177.885206 
L 241.0188 179.422467 
L 243.7301 181.03659 
L 246.4414 182.73142 
L 249.1527 184.510991 
L 251.864 186.37954 
L 254.5753 188.341517 
L 257.2866 190.401593 
L 259.9979 192.564673 
L 262.7092 194.835906 
L 265.4205 197.220702 
L 268.1318 199.724737 
L 270.8431 202.353974 
L 273.5544 205.114672 
L 276.2657 208.013406 
L 278.977 211.057076 
L 281.6883 214.25293 
L 284.3996 217.608576 
L 287.1109 221.132005 
L 289.8222 224.831605 
L 292.5335 228.716186 
L 295.2448 232.794995 
L 297.9561 237.077745 
L 300.6674 241.574632 
L 303.3787 246.296364 
" style="fill:none;stroke:#d43d4f;stroke-linecap:square;stroke-width:5;"/>
   </g>
   <g id="line2d_7">
    <path clip-path="url(#paa0f44b957)" d="M 34.96 147.733801 
L 37.6713 147.763492 
L 40.3826 147.794666 
L 43.0939 147.827399 
L 45.8052 147.861769 
L 48.5165 147.897858 
L 51.2278 147.935751 
L 53.9391 147.975538 
L 56.6504 148.017315 
L 59.3617 148.061181 
L 62.073 148.10724 
L 64.7843 148.155602 
L 67.4956 148.206382 
L 70.2069 148.259701 
L 72.9182 148.315686 
L 75.6295 148.374471 
L 78.3408 148.436194 
L 81.0521 148.501004 
L 83.7634 148.569054 
L 86.4747 148.640507 
L 89.186 148.715532 
L 91.8973 148.794309 
L 94.6086 148.877024 
L 97.3199 148.963875 
L 100.0312 149.055069 
L 102.7425 149.150822 
L 105.4538 149.251364 
L 108.1651 149.356932 
L 110.8764 149.467778 
L 113.5877 149.584167 
L 116.299 149.706376 
L 119.0103 149.834694 
L 121.7216 149.969429 
L 124.4329 150.110901 
L 127.1442 150.259446 
L 129.8555 150.415418 
L 132.5668 150.579189 
L 135.2781 150.751148 
L 137.9894 150.931706 
L 140.7007 151.121291 
L 143.412 151.320355 
L 146.1233 151.529373 
L 148.8346 151.748842 
L 151.5459 151.979284 
L 154.2572 152.221248 
L 156.9685 152.475311 
L 159.6798 152.742076 
L 162.3911 153.02218 
L 165.1024 153.316289 
L 167.8137 153.625103 
L 170.525 153.949359 
L 173.2363 154.289826 
L 175.9476 154.647318 
L 178.6589 155.022684 
L 181.3702 155.416818 
L 184.0815 155.830659 
L 186.7928 156.265192 
L 189.5041 156.721451 
L 192.2154 157.200524 
L 194.9267 157.70355 
L 197.638 158.231727 
L 200.3493 158.786314 
L 203.0606 159.36863 
L 205.7719 159.980061 
L 208.4832 160.622064 
L 211.1945 161.296167 
L 213.9058 162.003976 
L 216.6171 162.747174 
L 219.3284 163.527533 
L 222.0397 164.34691 
L 224.751 165.207255 
L 227.4623 166.110618 
L 230.1736 167.059149 
L 232.8849 168.055106 
L 235.5962 169.100862 
L 238.3075 170.198905 
L 241.0188 171.35185 
L 243.7301 172.562443 
L 246.4414 173.833565 
L 249.1527 175.168243 
L 251.864 176.569655 
L 254.5753 178.041138 
L 257.2866 179.586195 
L 259.9979 181.208504 
L 262.7092 182.91193 
L 265.4205 184.700526 
L 268.1318 186.578553 
L 270.8431 188.55048 
L 273.5544 190.621004 
L 276.2657 192.795054 
L 278.977 195.077807 
L 281.6883 197.474697 
L 284.3996 199.991432 
L 287.1109 202.634004 
L 289.8222 205.408704 
L 292.5335 208.322139 
L 295.2448 211.381246 
L 297.9561 214.593309 
L 300.6674 217.965974 
L 303.3787 221.507273 
" style="fill:none;stroke:#f46d43;stroke-linecap:square;stroke-width:5;"/>
   </g>
   <g id="line2d_8">
    <path clip-path="url(#paa0f44b957)" d="M 34.96 147.535868 
L 37.6713 147.555661 
L 40.3826 147.576444 
L 43.0939 147.598266 
L 45.8052 147.62118 
L 48.5165 147.645239 
L 51.2278 147.6705 
L 53.9391 147.697026 
L 56.6504 147.724877 
L 59.3617 147.754121 
L 62.073 147.784827 
L 64.7843 147.817068 
L 67.4956 147.850921 
L 70.2069 147.886467 
L 72.9182 147.923791 
L 75.6295 147.96298 
L 78.3408 148.004129 
L 81.0521 148.047336 
L 83.7634 148.092703 
L 86.4747 148.140338 
L 89.186 148.190355 
L 91.8973 148.242872 
L 94.6086 148.298016 
L 97.3199 148.355917 
L 100.0312 148.416713 
L 102.7425 148.480548 
L 105.4538 148.547576 
L 108.1651 148.617954 
L 110.8764 148.691852 
L 113.5877 148.769445 
L 116.299 148.850917 
L 119.0103 148.936463 
L 121.7216 149.026286 
L 124.4329 149.1206 
L 127.1442 149.21963 
L 129.8555 149.323612 
L 132.5668 149.432793 
L 135.2781 149.547432 
L 137.9894 149.667804 
L 140.7007 149.794194 
L 143.412 149.926904 
L 146.1233 150.066249 
L 148.8346 150.212561 
L 151.5459 150.366189 
L 154.2572 150.527499 
L 156.9685 150.696874 
L 159.6798 150.874717 
L 162.3911 151.061453 
L 165.1024 151.257526 
L 167.8137 151.463402 
L 170.525 151.679572 
L 173.2363 151.906551 
L 175.9476 152.144879 
L 178.6589 152.395122 
L 181.3702 152.657879 
L 184.0815 152.933772 
L 186.7928 153.223461 
L 189.5041 153.527634 
L 192.2154 153.847016 
L 194.9267 154.182367 
L 197.638 154.534485 
L 200.3493 154.904209 
L 203.0606 155.29242 
L 205.7719 155.700041 
L 208.4832 156.128043 
L 211.1945 156.577445 
L 213.9058 157.049317 
L 216.6171 157.544783 
L 219.3284 158.065022 
L 222.0397 158.611273 
L 224.751 159.184837 
L 227.4623 159.787079 
L 230.1736 160.419433 
L 232.8849 161.083404 
L 235.5962 161.780575 
L 238.3075 162.512603 
L 241.0188 163.281233 
L 243.7301 164.088295 
L 246.4414 164.93571 
L 249.1527 165.825495 
L 251.864 166.75977 
L 254.5753 167.740759 
L 257.2866 168.770797 
L 259.9979 169.852336 
L 262.7092 170.987953 
L 265.4205 172.180351 
L 268.1318 173.432368 
L 270.8431 174.746987 
L 273.5544 176.127336 
L 276.2657 177.576703 
L 278.977 179.098538 
L 281.6883 180.696465 
L 284.3996 182.374288 
L 287.1109 184.136003 
L 289.8222 185.985803 
L 292.5335 187.928093 
L 295.2448 189.967498 
L 297.9561 192.108872 
L 300.6674 194.357316 
L 303.3787 196.718182 
" style="fill:none;stroke:#fdad60;stroke-linecap:square;stroke-width:5;"/>
   </g>
   <g id="line2d_9">
    <path clip-path="url(#paa0f44b957)" d="M 34.96 147.337934 
L 37.6713 147.347831 
L 40.3826 147.358222 
L 43.0939 147.369133 
L 45.8052 147.38059 
L 48.5165 147.392619 
L 51.2278 147.40525 
L 53.9391 147.418513 
L 56.6504 147.432438 
L 59.3617 147.44706 
L 62.073 147.462413 
L 64.7843 147.478534 
L 67.4956 147.495461 
L 70.2069 147.513234 
L 72.9182 147.531895 
L 75.6295 147.55149 
L 78.3408 147.572065 
L 81.0521 147.593668 
L 83.7634 147.616351 
L 86.4747 147.640169 
L 89.186 147.665177 
L 91.8973 147.691436 
L 94.6086 147.719008 
L 97.3199 147.747958 
L 100.0312 147.778356 
L 102.7425 147.810274 
L 105.4538 147.843788 
L 108.1651 147.878977 
L 110.8764 147.915926 
L 113.5877 147.954722 
L 116.299 147.995459 
L 119.0103 148.038231 
L 121.7216 148.083143 
L 124.4329 148.1303 
L 127.1442 148.179815 
L 129.8555 148.231806 
L 132.5668 148.286396 
L 135.2781 148.343716 
L 137.9894 148.403902 
L 140.7007 148.467097 
L 143.412 148.533452 
L 146.1233 148.603124 
L 148.8346 148.676281 
L 151.5459 148.753095 
L 154.2572 148.833749 
L 156.9685 148.918437 
L 159.6798 149.007359 
L 162.3911 149.100727 
L 165.1024 149.198763 
L 167.8137 149.301701 
L 170.525 149.409786 
L 173.2363 149.523275 
L 175.9476 149.642439 
L 178.6589 149.767561 
L 181.3702 149.898939 
L 184.0815 150.036886 
L 186.7928 150.181731 
L 189.5041 150.333817 
L 192.2154 150.493508 
L 194.9267 150.661183 
L 197.638 150.837242 
L 200.3493 151.022105 
L 203.0606 151.21621 
L 205.7719 151.42002 
L 208.4832 151.634021 
L 211.1945 151.858722 
L 213.9058 152.094659 
L 216.6171 152.342391 
L 219.3284 152.602511 
L 222.0397 152.875637 
L 224.751 153.162418 
L 227.4623 153.463539 
L 230.1736 153.779716 
L 232.8849 154.111702 
L 235.5962 154.460287 
L 238.3075 154.826302 
L 241.0188 155.210617 
L 243.7301 155.614148 
L 246.4414 156.037855 
L 249.1527 156.482748 
L 251.864 156.949885 
L 254.5753 157.440379 
L 257.2866 157.955398 
L 259.9979 158.496168 
L 262.7092 159.063977 
L 265.4205 159.660175 
L 268.1318 160.286184 
L 270.8431 160.943493 
L 273.5544 161.633668 
L 276.2657 162.358351 
L 278.977 163.119269 
L 281.6883 163.918232 
L 284.3996 164.757144 
L 287.1109 165.638001 
L 289.8222 166.562901 
L 292.5335 167.534046 
L 295.2448 168.553749 
L 297.9561 169.624436 
L 300.6674 170.748658 
L 303.3787 171.929091 
" style="fill:none;stroke:#fee08b;stroke-linecap:square;stroke-width:5;"/>
   </g>
   <g id="line2d_10">
    <path clip-path="url(#paa0f44b957)" d="M 34.96 147.14 
L 37.6713 147.14 
L 40.3826 147.14 
L 43.0939 147.14 
L 45.8052 147.14 
L 48.5165 147.14 
L 51.2278 147.14 
L 53.9391 147.14 
L 56.6504 147.14 
L 59.3617 147.14 
L 62.073 147.14 
L 64.7843 147.14 
L 67.4956 147.14 
L 70.2069 147.14 
L 72.9182 147.14 
L 75.6295 147.14 
L 78.3408 147.14 
L 81.0521 147.14 
L 83.7634 147.14 
L 86.4747 147.14 
L 89.186 147.14 
L 91.8973 147.14 
L 94.6086 147.14 
L 97.3199 147.14 
L 100.0312 147.14 
L 102.7425 147.14 
L 105.4538 147.14 
L 108.1651 147.14 
L 110.8764 147.14 
L 113.5877 147.14 
L 116.299 147.14 
L 119.0103 147.14 
L 121.7216 147.14 
L 124.4329 147.14 
L 127.1442 147.14 
L 129.8555 147.14 
L 132.5668 147.14 
L 135.2781 147.14 
L 137.9894 147.14 
L 140.7007 147.14 
L 143.412 147.14 
L 146.1233 147.14 
L 148.8346 147.14 
L 151.5459 147.14 
L 154.2572 147.14 
L 156.9685 147.14 
L 159.6798 147.14 
L 162.3911 147.14 
L 165.1024 147.14 
L 167.8137 147.14 
L 170.525 147.14 
L 173.2363 147.14 
L 175.9476 147.14 
L 178.6589 147.14 
L 181.3702 147.14 
L 184.0815 147.14 
L 186.7928 147.14 
L 189.5041 147.14 
L 192.2154 147.14 
L 194.9267 147.14 
L 197.638 147.14 
L 200.3493 147.14 
L 203.0606 147.14 
L 205.7719 147.14 
L 208.4832 147.14 
L 211.1945 147.14 
L 213.9058 147.14 
L 216.6171 147.14 
L 219.3284 147.14 
L 222.0397 147.14 
L 224.751 147.14 
L 227.4623 147.14 
L 230.1736 147.14 
L 232.8849 147.14 
L 235.5962 147.14 
L 238.3075 147.14 
L 241.0188 147.14 
L 243.7301 147.14 
L 246.4414 147.14 
L 249.1527 147.14 
L 251.864 147.14 
L 254.5753 147.14 
L 257.2866 147.14 
L 259.9979 147.14 
L 262.7092 147.14 
L 265.4205 147.14 
L 268.1318 147.14 
L 270.8431 147.14 
L 273.5544 147.14 
L 276.2657 147.14 
L 278.977 147.14 
L 281.6883 147.14 
L 284.3996 147.14 
L 287.1109 147.14 
L 289.8222 147.14 
L 292.5335 147.14 
L 295.2448 147.14 
L 297.9561 147.14 
L 300.6674 147.14 
L 303.3787 147.14 
" style="fill:none;stroke:#ffffbe;stroke-linecap:square;stroke-width:5;"/>
   </g>
   <g id="line2d_11">
    <path clip-path="url(#paa0f44b957)" d="M 34.96 146.942066 
L 37.6713 146.932169 
L 40.3826 146.921778 
L 43.0939 146.910867 
L 45.8052 146.89941 
L 48.5165 146.887381 
L 51.2278 146.87475 
L 53.9391 146.861487 
L 56.6504 146.847562 
L 59.3617 146.83294 
L 62.073 146.817587 
L 64.7843 146.801466 
L 67.4956 146.784539 
L 70.2069 146.766766 
L 72.9182 146.748105 
L 75.6295 146.72851 
L 78.3408 146.707935 
L 81.0521 146.686332 
L 83.7634 146.663649 
L 86.4747 146.639831 
L 89.186 146.614823 
L 91.8973 146.588564 
L 94.6086 146.560992 
L 97.3199 146.532042 
L 100.0312 146.501644 
L 102.7425 146.469726 
L 105.4538 146.436212 
L 108.1651 146.401023 
L 110.8764 146.364074 
L 113.5877 146.325278 
L 116.299 146.284541 
L 119.0103 146.241769 
L 121.7216 146.196857 
L 124.4329 146.1497 
L 127.1442 146.100185 
L 129.8555 146.048194 
L 132.5668 145.993604 
L 135.2781 145.936284 
L 137.9894 145.876098 
L 140.7007 145.812903 
L 143.412 145.746548 
L 146.1233 145.676876 
L 148.8346 145.603719 
L 151.5459 145.526905 
L 154.2572 145.446251 
L 156.9685 145.361563 
L 159.6798 145.272641 
L 162.3911 145.179273 
L 165.1024 145.081237 
L 167.8137 144.978299 
L 170.525 144.870214 
L 173.2363 144.756725 
L 175.9476 144.637561 
L 178.6589 144.512439 
L 181.3702 144.381061 
L 184.0815 144.243114 
L 186.7928 144.098269 
L 189.5041 143.946183 
L 192.2154 143.786492 
L 194.9267 143.618817 
L 197.638 143.442758 
L 200.3493 143.257895 
L 203.0606 143.06379 
L 205.7719 142.85998 
L 208.4832 142.645979 
L 211.1945 142.421278 
L 213.9058 142.185341 
L 216.6171 141.937609 
L 219.3284 141.677489 
L 222.0397 141.404363 
L 224.751 141.117582 
L 227.4623 140.816461 
L 230.1736 140.500284 
L 232.8849 140.168298 
L 235.5962 139.819713 
L 238.3075 139.453698 
L 241.0188 139.069383 
L 243.7301 138.665852 
L 246.4414 138.242145 
L 249.1527 137.797252 
L 251.864 137.330115 
L 254.5753 136.839621 
L 257.2866 136.324602 
L 259.9979 135.783832 
L 262.7092 135.216023 
L 265.4205 134.619825 
L 268.1318 133.993816 
L 270.8431 133.336507 
L 273.5544 132.646332 
L 276.2657 131.921649 
L 278.977 131.160731 
L 281.6883 130.361768 
L 284.3996 129.522856 
L 287.1109 128.641999 
L 289.8222 127.717099 
L 292.5335 126.745954 
L 295.2448 125.726251 
L 297.9561 124.655564 
L 300.6674 123.531342 
L 303.3787 122.350909 
" style="fill:none;stroke:#e6f598;stroke-linecap:square;stroke-width:5;"/>
   </g>
   <g id="line2d_12">
    <path clip-path="url(#paa0f44b957)" d="M 34.96 146.744132 
L 37.6713 146.724339 
L 40.3826 146.703556 
L 43.0939 146.681734 
L 45.8052 146.65882 
L 48.5165 146.634761 
L 51.2278 146.6095 
L 53.9391 146.582974 
L 56.6504 146.555123 
L 59.3617 146.525879 
L 62.073 146.495173 
L 64.7843 146.462932 
L 67.4956 146.429079 
L 70.2069 146.393533 
L 72.9182 146.356209 
L 75.6295 146.31702 
L 78.3408 146.275871 
L 81.0521 146.232664 
L 83.7634 146.187297 
L 86.4747 146.139662 
L 89.186 146.089645 
L 91.8973 146.037128 
L 94.6086 145.981984 
L 97.3199 145.924083 
L 100.0312 145.863287 
L 102.7425 145.799452 
L 105.4538 145.732424 
L 108.1651 145.662046 
L 110.8764 145.588148 
L 113.5877 145.510555 
L 116.299 145.429083 
L 119.0103 145.343537 
L 121.7216 145.253714 
L 124.4329 145.1594 
L 127.1442 145.06037 
L 129.8555 144.956388 
L 132.5668 144.847207 
L 135.2781 144.732568 
L 137.9894 144.612196 
L 140.7007 144.485806 
L 143.412 144.353096 
L 146.1233 144.213751 
L 148.8346 144.067439 
L 151.5459 143.913811 
L 154.2572 143.752501 
L 156.9685 143.583126 
L 159.6798 143.405283 
L 162.3911 143.218547 
L 165.1024 143.022474 
L 167.8137 142.816598 
L 170.525 142.600428 
L 173.2363 142.373449 
L 175.9476 142.135121 
L 178.6589 141.884878 
L 181.3702 141.622121 
L 184.0815 141.346228 
L 186.7928 141.056539 
L 189.5041 140.752366 
L 192.2154 140.432984 
L 194.9267 140.097633 
L 197.638 139.745515 
L 200.3493 139.375791 
L 203.0606 138.98758 
L 205.7719 138.579959 
L 208.4832 138.151957 
L 211.1945 137.702555 
L 213.9058 137.230683 
L 216.6171 136.735217 
L 219.3284 136.214978 
L 222.0397 135.668727 
L 224.751 135.095163 
L 227.4623 134.492921 
L 230.1736 133.860567 
L 232.8849 133.196596 
L 235.5962 132.499425 
L 238.3075 131.767397 
L 241.0188 130.998767 
L 243.7301 130.191705 
L 246.4414 129.34429 
L 249.1527 128.454505 
L 251.864 127.52023 
L 254.5753 126.539241 
L 257.2866 125.509203 
L 259.9979 124.427664 
L 262.7092 123.292047 
L 265.4205 122.099649 
L 268.1318 120.847632 
L 270.8431 119.533013 
L 273.5544 118.152664 
L 276.2657 116.703297 
L 278.977 115.181462 
L 281.6883 113.583535 
L 284.3996 111.905712 
L 287.1109 110.143997 
L 289.8222 108.294197 
L 292.5335 106.351907 
L 295.2448 104.312502 
L 297.9561 102.171128 
L 300.6674 99.922684 
L 303.3787 97.561818 
" style="fill:none;stroke:#aadca4;stroke-linecap:square;stroke-width:5;"/>
   </g>
   <g id="line2d_13">
    <path clip-path="url(#paa0f44b957)" d="M 34.96 146.546199 
L 37.6713 146.516508 
L 40.3826 146.485334 
L 43.0939 146.452601 
L 45.8052 146.418231 
L 48.5165 146.382142 
L 51.2278 146.344249 
L 53.9391 146.304462 
L 56.6504 146.262685 
L 59.3617 146.218819 
L 62.073 146.17276 
L 64.7843 146.124398 
L 67.4956 146.073618 
L 70.2069 146.020299 
L 72.9182 145.964314 
L 75.6295 145.905529 
L 78.3408 145.843806 
L 81.0521 145.778996 
L 83.7634 145.710946 
L 86.4747 145.639493 
L 89.186 145.564468 
L 91.8973 145.485691 
L 94.6086 145.402976 
L 97.3199 145.316125 
L 100.0312 145.224931 
L 102.7425 145.129178 
L 105.4538 145.028636 
L 108.1651 144.923068 
L 110.8764 144.812222 
L 113.5877 144.695833 
L 116.299 144.573624 
L 119.0103 144.445306 
L 121.7216 144.310571 
L 124.4329 144.169099 
L 127.1442 144.020554 
L 129.8555 143.864582 
L 132.5668 143.700811 
L 135.2781 143.528852 
L 137.9894 143.348294 
L 140.7007 143.158709 
L 143.412 142.959645 
L 146.1233 142.750627 
L 148.8346 142.531158 
L 151.5459 142.300716 
L 154.2572 142.058752 
L 156.9685 141.804689 
L 159.6798 141.537924 
L 162.3911 141.25782 
L 165.1024 140.963711 
L 167.8137 140.654897 
L 170.525 140.330641 
L 173.2363 139.990174 
L 175.9476 139.632682 
L 178.6589 139.257316 
L 181.3702 138.863182 
L 184.0815 138.449341 
L 186.7928 138.014808 
L 189.5041 137.558549 
L 192.2154 137.079476 
L 194.9267 136.57645 
L 197.638 136.048273 
L 200.3493 135.493686 
L 203.0606 134.91137 
L 205.7719 134.299939 
L 208.4832 133.657936 
L 211.1945 132.983833 
L 213.9058 132.276024 
L 216.6171 131.532826 
L 219.3284 130.752467 
L 222.0397 129.93309 
L 224.751 129.072745 
L 227.4623 128.169382 
L 230.1736 127.220851 
L 232.8849 126.224894 
L 235.5962 125.179138 
L 238.3075 124.081095 
L 241.0188 122.92815 
L 243.7301 121.717557 
L 246.4414 120.446435 
L 249.1527 119.111757 
L 251.864 117.710345 
L 254.5753 116.238862 
L 257.2866 114.693805 
L 259.9979 113.071496 
L 262.7092 111.36807 
L 265.4205 109.579474 
L 268.1318 107.701447 
L 270.8431 105.72952 
L 273.5544 103.658996 
L 276.2657 101.484946 
L 278.977 99.202193 
L 281.6883 96.805303 
L 284.3996 94.288568 
L 287.1109 91.645996 
L 289.8222 88.871296 
L 292.5335 85.957861 
L 295.2448 82.898754 
L 297.9561 79.686691 
L 300.6674 76.314026 
L 303.3787 72.772727 
" style="fill:none;stroke:#66c2a5;stroke-linecap:square;stroke-width:5;"/>
   </g>
   <g id="line2d_14">
    <path clip-path="url(#paa0f44b957)" d="M 34.96 146.348265 
L 37.6713 146.308678 
L 40.3826 146.267112 
L 43.0939 146.223467 
L 45.8052 146.177641 
L 48.5165 146.129523 
L 51.2278 146.078999 
L 53.9391 146.025949 
L 56.6504 145.970246 
L 59.3617 145.911759 
L 62.073 145.850347 
L 64.7843 145.785864 
L 67.4956 145.718157 
L 70.2069 145.647065 
L 72.9182 145.572418 
L 75.6295 145.494039 
L 78.3408 145.411741 
L 81.0521 145.325328 
L 83.7634 145.234595 
L 86.4747 145.139324 
L 89.186 145.039291 
L 91.8973 144.934255 
L 94.6086 144.823968 
L 97.3199 144.708166 
L 100.0312 144.586575 
L 102.7425 144.458903 
L 105.4538 144.324849 
L 108.1651 144.184091 
L 110.8764 144.036296 
L 113.5877 143.88111 
L 116.299 143.718166 
L 119.0103 143.547074 
L 121.7216 143.367428 
L 124.4329 143.178799 
L 127.1442 142.980739 
L 129.8555 142.772776 
L 132.5668 142.554415 
L 135.2781 142.325136 
L 137.9894 142.084393 
L 140.7007 141.831612 
L 143.412 141.566193 
L 146.1233 141.287502 
L 148.8346 140.994878 
L 151.5459 140.687621 
L 154.2572 140.365002 
L 156.9685 140.026253 
L 159.6798 139.670565 
L 162.3911 139.297093 
L 165.1024 138.904948 
L 167.8137 138.493196 
L 170.525 138.060855 
L 173.2363 137.606898 
L 175.9476 137.130243 
L 178.6589 136.629755 
L 181.3702 136.104243 
L 184.0815 135.552455 
L 186.7928 134.973078 
L 189.5041 134.364732 
L 192.2154 133.725968 
L 194.9267 133.055267 
L 197.638 132.35103 
L 200.3493 131.611582 
L 203.0606 130.835161 
L 205.7719 130.019919 
L 208.4832 129.163915 
L 211.1945 128.26511 
L 213.9058 127.321366 
L 216.6171 126.330434 
L 219.3284 125.289956 
L 222.0397 124.197454 
L 224.751 123.050326 
L 227.4623 121.845843 
L 230.1736 120.581135 
L 232.8849 119.253191 
L 235.5962 117.858851 
L 238.3075 116.394794 
L 241.0188 114.857533 
L 243.7301 113.24341 
L 246.4414 111.54858 
L 249.1527 109.769009 
L 251.864 107.90046 
L 254.5753 105.938483 
L 257.2866 103.878407 
L 259.9979 101.715327 
L 262.7092 99.444094 
L 265.4205 97.059298 
L 268.1318 94.555263 
L 270.8431 91.926026 
L 273.5544 89.165328 
L 276.2657 86.266594 
L 278.977 83.222924 
L 281.6883 80.02707 
L 284.3996 76.671424 
L 287.1109 73.147995 
L 289.8222 69.448395 
L 292.5335 65.563814 
L 295.2448 61.485005 
L 297.9561 57.202255 
L 300.6674 52.705368 
L 303.3787 47.983636 
" style="fill:none;stroke:#3387bc;stroke-linecap:square;stroke-width:5;"/>
   </g>
   <g id="line2d_15">
    <path clip-path="url(#paa0f44b957)" d="M 34.96 146.150331 
L 37.6713 146.100847 
L 40.3826 146.04889 
L 43.0939 145.994334 
L 45.8052 145.937051 
L 48.5165 145.876904 
L 51.2278 145.813749 
L 53.9391 145.747436 
L 56.6504 145.677808 
L 59.3617 145.604698 
L 62.073 145.527933 
L 64.7843 145.44733 
L 67.4956 145.362697 
L 70.2069 145.273831 
L 72.9182 145.180523 
L 75.6295 145.082549 
L 78.3408 144.979677 
L 81.0521 144.87166 
L 83.7634 144.758243 
L 86.4747 144.639156 
L 89.186 144.514113 
L 91.8973 144.382819 
L 94.6086 144.24496 
L 97.3199 144.100208 
L 100.0312 143.948218 
L 102.7425 143.788629 
L 105.4538 143.621061 
L 108.1651 143.445114 
L 110.8764 143.260369 
L 113.5877 143.066388 
L 116.299 142.862707 
L 119.0103 142.648843 
L 121.7216 142.424285 
L 124.4329 142.188499 
L 127.1442 141.940924 
L 129.8555 141.68097 
L 132.5668 141.408019 
L 135.2781 141.12142 
L 137.9894 140.820491 
L 140.7007 140.504515 
L 143.412 140.172741 
L 146.1233 139.824378 
L 148.8346 139.458597 
L 151.5459 139.074527 
L 154.2572 138.671253 
L 156.9685 138.247816 
L 159.6798 137.803206 
L 162.3911 137.336367 
L 165.1024 136.846185 
L 167.8137 136.331494 
L 170.525 135.791069 
L 173.2363 135.223623 
L 175.9476 134.627804 
L 178.6589 134.002194 
L 181.3702 133.345304 
L 184.0815 132.655569 
L 186.7928 131.931347 
L 189.5041 131.170915 
L 192.2154 130.37246 
L 194.9267 129.534083 
L 197.638 128.653788 
L 200.3493 127.729477 
L 203.0606 126.758951 
L 205.7719 125.739898 
L 208.4832 124.669893 
L 211.1945 123.546388 
L 213.9058 122.366707 
L 216.6171 121.128043 
L 219.3284 119.827445 
L 222.0397 118.461817 
L 224.751 117.027908 
L 227.4623 115.522303 
L 230.1736 113.941418 
L 232.8849 112.281489 
L 235.5962 110.538564 
L 238.3075 108.708492 
L 241.0188 106.786917 
L 243.7301 104.769262 
L 246.4414 102.650725 
L 249.1527 100.426262 
L 251.864 98.090575 
L 254.5753 95.638104 
L 257.2866 93.063009 
L 259.9979 90.359159 
L 262.7092 87.520117 
L 265.4205 84.539123 
L 268.1318 81.409079 
L 270.8431 78.122533 
L 273.5544 74.67166 
L 276.2657 71.048243 
L 278.977 67.243655 
L 281.6883 63.248838 
L 284.3996 59.05428 
L 287.1109 54.649993 
L 289.8222 50.025493 
L 292.5335 45.169768 
L 295.2448 40.071256 
L 297.9561 34.717819 
L 300.6674 29.09671 
L 303.3787 23.194545 
" style="fill:none;stroke:#5e4fa2;stroke-linecap:square;stroke-width:5;"/>
   </g>
   <g id="patch_3">
    <path d="M 34.96 283.48 
L 34.96 10.8 
" style="fill:none;stroke:#000000;stroke-linecap:square;stroke-linejoin:miter;stroke-width:3;"/>
   </g>
   <g id="patch_4">
    <path d="M 34.96 283.48 
L 306.09 283.48 
" style="fill:none;stroke:#000000;stroke-linecap:square;stroke-linejoin:miter;stroke-width:3;"/>
   </g>
  </g>
 </g>
 <defs>
  <clipPath id="paa0f44b957">
   <rect height="272.68" width="271.13" x="34.96" y="10.8"/>
  </clipPath>
 </defs>
</svg>
