<?xml version="1.0" encoding="utf-8" standalone="no"?>
<!DOCTYPE svg PUBLIC "-//W3C//DTD SVG 1.1//EN"
  "http://www.w3.org/Graphics/SVG/1.1/DTD/svg11.dtd">
<svg height="345.6pt" version="1.1" viewBox="0 0 345.6 345.6" width="345.6pt" xmlns="http://www.w3.org/2000/svg" xmlns:xlink="http://www.w3.org/1999/xlink">
 <metadata>
  <rdf:RDF xmlns:cc="http://creativecommons.org/ns#" xmlns:dc="http://purl.org/dc/elements/1.1/" xmlns:rdf="http://www.w3.org/1999/02/22-rdf-syntax-ns#">
   <cc:Work>
    <dc:type rdf:resource="http://purl.org/dc/dcmitype/StillImage"/>
    <dc:date>2022-08-08T16:19:13.201225</dc:date>
    <dc:format>image/svg+xml</dc:format>
    <dc:creator>
     <cc:Agent>
      <dc:title>Matplotlib v3.4.2, https://matplotlib.org/</dc:title>
     </cc:Agent>
    </dc:creator>
   </cc:Work>
  </rdf:RDF>
 </metadata>
 <defs>
  <style type="text/css">*{stroke-linecap:butt;stroke-linejoin:round;}</style>
 </defs>
 <g id="figure_1">
  <g id="patch_1">
   <path d="M 0 345.6 
L 345.6 345.6 
L 345.6 0 
L 0 0 
z
" style="fill:#ffffff;"/>
  </g>
  <g id="axes_1">
   <g id="patch_2">
    <path d="M 35.3 310.64 
L 334.8 310.64 
L 334.8 10.8 
L 35.3 10.8 
z
" style="fill:#ffffff;"/>
   </g>
   <g id="patch_3">
    <path clip-path="url(#p7afe496635)" d="M 65.25 160.72 
L 50.275 145.728 
L 50.275 160.727496 
L 35.3 160.727496 
L 35.3 160.712504 
L 50.275 160.712504 
L 50.275 175.712 
z
" style="stroke:#000000;stroke-linejoin:miter;"/>
   </g>
   <g id="patch_4">
    <path clip-path="url(#p7afe496635)" d="M 98.527778 160.72 
L 83.552778 149.059556 
L 83.552778 160.727496 
L 68.577778 160.727496 
L 68.577778 160.712504 
L 83.552778 160.712504 
L 83.552778 172.380444 
z
" style="stroke:#000000;stroke-linejoin:miter;"/>
   </g>
   <g id="patch_5">
    <path clip-path="url(#p7afe496635)" d="M 131.805556 160.72 
L 116.830556 152.391111 
L 116.830556 160.727496 
L 101.855556 160.727496 
L 101.855556 160.712504 
L 116.830556 160.712504 
L 116.830556 169.048889 
z
" style="stroke:#000000;stroke-linejoin:miter;"/>
   </g>
   <g id="patch_6">
    <path clip-path="url(#p7afe496635)" d="M 165.083333 160.72 
L 150.108333 155.722667 
L 150.108333 160.727496 
L 135.133333 160.727496 
L 135.133333 160.712504 
L 150.108333 160.712504 
L 150.108333 165.717333 
z
" style="stroke:#000000;stroke-linejoin:miter;"/>
   </g>
   <g id="patch_7">
    <path clip-path="url(#p7afe496635)" d="M 198.361111 160.72 
L 183.386111 159.054222 
L 183.386111 160.727496 
L 168.411111 160.727496 
L 168.411111 160.712504 
L 183.386111 160.712504 
L 183.386111 162.385778 
z
" style="stroke:#000000;stroke-linejoin:miter;"/>
   </g>
   <g id="patch_8">
    <path clip-path="url(#p7afe496635)" d="M 171.738889 160.72 
L 186.713889 159.054222 
L 186.713889 160.712504 
L 201.688889 160.712504 
L 201.688889 160.727496 
L 186.713889 160.727496 
L 186.713889 162.385778 
z
" style="stroke:#000000;stroke-linejoin:miter;"/>
   </g>
   <g id="patch_9">
    <path clip-path="url(#p7afe496635)" d="M 205.016667 160.72 
L 219.991667 155.722667 
L 219.991667 160.712504 
L 234.966667 160.712504 
L 234.966667 160.727496 
L 219.991667 160.727496 
L 219.991667 165.717333 
z
" style="stroke:#000000;stroke-linejoin:miter;"/>
   </g>
   <g id="patch_10">
    <path clip-path="url(#p7afe496635)" d="M 238.294444 160.72 
L 253.269444 152.391111 
L 253.269444 160.712504 
L 268.244444 160.712504 
L 268.244444 160.727496 
L 253.269444 160.727496 
L 253.269444 169.048889 
z
" style="stroke:#000000;stroke-linejoin:miter;"/>
   </g>
   <g id="patch_11">
    <path clip-path="url(#p7afe496635)" d="M 271.572222 160.72 
L 286.547222 149.059556 
L 286.547222 160.712504 
L 301.522222 160.712504 
L 301.522222 160.727496 
L 286.547222 160.727496 
L 286.547222 172.380444 
z
" style="stroke:#000000;stroke-linejoin:miter;"/>
   </g>
   <g id="patch_12">
    <path clip-path="url(#p7afe496635)" d="M 304.85 160.72 
L 319.825 145.728 
L 319.825 160.712504 
L 334.8 160.712504 
L 334.8 160.727496 
L 319.825 160.727496 
L 319.825 175.712 
z
" style="stroke:#000000;stroke-linejoin:miter;"/>
   </g>
   <g id="matplotlib.axis_1">
    <g id="text_1">
     <!-- $x$ -->
     <g transform="translate(179.05 329.836875)scale(0.2 -0.2)">
      <defs>
       <path d="M 3841 3500 
L 2234 1784 
L 3219 0 
L 2559 0 
L 1819 1388 
L 531 0 
L -166 0 
L 1556 1844 
L 641 3500 
L 1300 3500 
L 1972 2234 
L 3144 3500 
L 3841 3500 
z
" id="DejaVuSans-Oblique-78" transform="scale(0.015625)"/>
      </defs>
      <use transform="translate(0 0.3125)" xlink:href="#DejaVuSans-Oblique-78"/>
     </g>
    </g>
   </g>
   <g id="matplotlib.axis_2">
    <g id="text_2">
     <!-- $\dot{x}$ -->
     <g transform="translate(27.140625 166.72)rotate(-90)scale(0.2 -0.2)">
      <defs>
       <path d="M -1894 4863 
L -1319 4863 
L -1319 4134 
L -1894 4134 
L -1894 4863 
z
M -1600 3584 
L -1600 3584 
z
" id="DejaVuSans-307" transform="scale(0.015625)"/>
      </defs>
      <use transform="translate(62.388672 12.015625)" xlink:href="#DejaVuSans-307"/>
      <use transform="translate(0 0.828125)" xlink:href="#DejaVuSans-Oblique-78"/>
     </g>
    </g>
   </g>
   <g id="line2d_1">
    <path clip-path="url(#p7afe496635)" d="M 185.05 310.64 
L 185.05 10.8 
" style="fill:none;stroke:#000000;stroke-linecap:square;stroke-width:3;"/>
   </g>
   <g id="line2d_2">
    <path clip-path="url(#p7afe496635)" d="M 35.3 160.72 
L 334.8 160.72 
" style="fill:none;stroke:#000000;stroke-linecap:square;stroke-width:3;"/>
   </g>
   <g id="line2d_3">
    <path clip-path="url(#p7afe496635)" d="M 132.326343 346.6 
L 135.133333 327.297778 
L 138.158586 307.718388 
L 141.183838 289.36271 
L 144.209091 272.230744 
L 147.234343 256.32249 
L 150.259596 241.637947 
L 153.284848 228.177117 
L 156.310101 215.939998 
L 159.335354 204.926591 
L 162.360606 195.136896 
L 165.385859 186.570913 
L 168.411111 179.228642 
L 171.436364 173.110083 
L 174.461616 168.215235 
L 177.486869 164.5441 
L 180.512121 162.096676 
L 183.537374 160.872964 
L 186.562626 160.872964 
L 189.587879 162.096676 
L 192.613131 164.5441 
L 195.638384 168.215235 
L 198.663636 173.110083 
L 201.688889 179.228642 
L 204.714141 186.570913 
L 207.739394 195.136896 
L 210.764646 204.926591 
L 213.789899 215.939998 
L 216.815152 228.177117 
L 219.840404 241.637947 
L 222.865657 256.32249 
L 225.890909 272.230744 
L 228.916162 289.36271 
L 231.941414 307.718388 
L 234.966667 327.297778 
L 237.773657 346.6 
" style="fill:none;stroke:#000000;stroke-linecap:square;stroke-width:5;"/>
   </g>
  </g>
 </g>
 <defs>
  <clipPath id="p7afe496635">
   <rect height="299.84" width="299.5" x="35.3" y="10.8"/>
  </clipPath>
 </defs>
</svg>
