<?xml version="1.0" encoding="utf-8" standalone="no"?>
<!DOCTYPE svg PUBLIC "-//W3C//DTD SVG 1.1//EN"
  "http://www.w3.org/Graphics/SVG/1.1/DTD/svg11.dtd">
<svg height="345.6pt" version="1.1" viewBox="0 0 345.6 345.6" width="345.6pt" xmlns="http://www.w3.org/2000/svg" xmlns:xlink="http://www.w3.org/1999/xlink">
 <metadata>
  <rdf:RDF xmlns:cc="http://creativecommons.org/ns#" xmlns:dc="http://purl.org/dc/elements/1.1/" xmlns:rdf="http://www.w3.org/1999/02/22-rdf-syntax-ns#">
   <cc:Work>
    <dc:type rdf:resource="http://purl.org/dc/dcmitype/StillImage"/>
    <dc:date>2022-08-08T15:19:31.893684</dc:date>
    <dc:format>image/svg+xml</dc:format>
    <dc:creator>
     <cc:Agent>
      <dc:title>Matplotlib v3.4.2, https://matplotlib.org/</dc:title>
     </cc:Agent>
    </dc:creator>
   </cc:Work>
  </rdf:RDF>
 </metadata>
 <defs>
  <style type="text/css">*{stroke-linecap:butt;stroke-linejoin:round;}</style>
 </defs>
 <g id="figure_1">
  <g id="patch_1">
   <path d="M 0 345.6 
L 345.6 345.6 
L 345.6 0 
L 0 0 
z
" style="fill:#ffffff;"/>
  </g>
  <g id="axes_1">
   <g id="patch_2">
    <path d="M 34.96 283.48 
L 306.09 283.48 
L 306.09 10.8 
L 34.96 10.8 
z
" style="fill:#ffffff;"/>
   </g>
   <g id="matplotlib.axis_1">
    <g id="xtick_1">
     <g id="line2d_1">
      <defs>
       <path d="M 0 0 
L 0 3.5 
" id="mf403a4f6b9" style="stroke:#000000;stroke-width:0.8;"/>
      </defs>
      <g>
       <use style="stroke:#000000;stroke-width:0.8;" x="34.96" xlink:href="#mf403a4f6b9" y="283.48"/>
      </g>
     </g>
     <g id="text_1">
      <!-- 0.0 -->
      <g transform="translate(19.056875 305.676875)scale(0.2 -0.2)">
       <defs>
        <path d="M 2034 4250 
Q 1547 4250 1301 3770 
Q 1056 3291 1056 2328 
Q 1056 1369 1301 889 
Q 1547 409 2034 409 
Q 2525 409 2770 889 
Q 3016 1369 3016 2328 
Q 3016 3291 2770 3770 
Q 2525 4250 2034 4250 
z
M 2034 4750 
Q 2819 4750 3233 4129 
Q 3647 3509 3647 2328 
Q 3647 1150 3233 529 
Q 2819 -91 2034 -91 
Q 1250 -91 836 529 
Q 422 1150 422 2328 
Q 422 3509 836 4129 
Q 1250 4750 2034 4750 
z
" id="DejaVuSans-30" transform="scale(0.015625)"/>
        <path d="M 684 794 
L 1344 794 
L 1344 0 
L 684 0 
L 684 794 
z
" id="DejaVuSans-2e" transform="scale(0.015625)"/>
       </defs>
       <use xlink:href="#DejaVuSans-30"/>
       <use x="63.623047" xlink:href="#DejaVuSans-2e"/>
       <use x="95.410156" xlink:href="#DejaVuSans-30"/>
      </g>
     </g>
    </g>
    <g id="xtick_2">
     <g id="line2d_2">
      <g>
       <use style="stroke:#000000;stroke-width:0.8;" x="125.336667" xlink:href="#mf403a4f6b9" y="283.48"/>
      </g>
     </g>
     <g id="text_2">
      <!-- 33.0 -->
      <g transform="translate(103.071042 305.676875)scale(0.2 -0.2)">
       <defs>
        <path d="M 2597 2516 
Q 3050 2419 3304 2112 
Q 3559 1806 3559 1356 
Q 3559 666 3084 287 
Q 2609 -91 1734 -91 
Q 1441 -91 1130 -33 
Q 819 25 488 141 
L 488 750 
Q 750 597 1062 519 
Q 1375 441 1716 441 
Q 2309 441 2620 675 
Q 2931 909 2931 1356 
Q 2931 1769 2642 2001 
Q 2353 2234 1838 2234 
L 1294 2234 
L 1294 2753 
L 1863 2753 
Q 2328 2753 2575 2939 
Q 2822 3125 2822 3475 
Q 2822 3834 2567 4026 
Q 2313 4219 1838 4219 
Q 1578 4219 1281 4162 
Q 984 4106 628 3988 
L 628 4550 
Q 988 4650 1302 4700 
Q 1616 4750 1894 4750 
Q 2613 4750 3031 4423 
Q 3450 4097 3450 3541 
Q 3450 3153 3228 2886 
Q 3006 2619 2597 2516 
z
" id="DejaVuSans-33" transform="scale(0.015625)"/>
       </defs>
       <use xlink:href="#DejaVuSans-33"/>
       <use x="63.623047" xlink:href="#DejaVuSans-33"/>
       <use x="127.246094" xlink:href="#DejaVuSans-2e"/>
       <use x="159.033203" xlink:href="#DejaVuSans-30"/>
      </g>
     </g>
    </g>
    <g id="xtick_3">
     <g id="line2d_3">
      <g>
       <use style="stroke:#000000;stroke-width:0.8;" x="215.713333" xlink:href="#mf403a4f6b9" y="283.48"/>
      </g>
     </g>
     <g id="text_3">
      <!-- 67.0 -->
      <g transform="translate(193.447708 305.676875)scale(0.2 -0.2)">
       <defs>
        <path d="M 2113 2584 
Q 1688 2584 1439 2293 
Q 1191 2003 1191 1497 
Q 1191 994 1439 701 
Q 1688 409 2113 409 
Q 2538 409 2786 701 
Q 3034 994 3034 1497 
Q 3034 2003 2786 2293 
Q 2538 2584 2113 2584 
z
M 3366 4563 
L 3366 3988 
Q 3128 4100 2886 4159 
Q 2644 4219 2406 4219 
Q 1781 4219 1451 3797 
Q 1122 3375 1075 2522 
Q 1259 2794 1537 2939 
Q 1816 3084 2150 3084 
Q 2853 3084 3261 2657 
Q 3669 2231 3669 1497 
Q 3669 778 3244 343 
Q 2819 -91 2113 -91 
Q 1303 -91 875 529 
Q 447 1150 447 2328 
Q 447 3434 972 4092 
Q 1497 4750 2381 4750 
Q 2619 4750 2861 4703 
Q 3103 4656 3366 4563 
z
" id="DejaVuSans-36" transform="scale(0.015625)"/>
        <path d="M 525 4666 
L 3525 4666 
L 3525 4397 
L 1831 0 
L 1172 0 
L 2766 4134 
L 525 4134 
L 525 4666 
z
" id="DejaVuSans-37" transform="scale(0.015625)"/>
       </defs>
       <use xlink:href="#DejaVuSans-36"/>
       <use x="63.623047" xlink:href="#DejaVuSans-37"/>
       <use x="127.246094" xlink:href="#DejaVuSans-2e"/>
       <use x="159.033203" xlink:href="#DejaVuSans-30"/>
      </g>
     </g>
    </g>
    <g id="xtick_4">
     <g id="line2d_4">
      <g>
       <use style="stroke:#000000;stroke-width:0.8;" x="306.09" xlink:href="#mf403a4f6b9" y="283.48"/>
      </g>
     </g>
     <g id="text_4">
      <!-- 100.0 -->
      <g transform="translate(277.461875 305.676875)scale(0.2 -0.2)">
       <defs>
        <path d="M 794 531 
L 1825 531 
L 1825 4091 
L 703 3866 
L 703 4441 
L 1819 4666 
L 2450 4666 
L 2450 531 
L 3481 531 
L 3481 0 
L 794 0 
L 794 531 
z
" id="DejaVuSans-31" transform="scale(0.015625)"/>
       </defs>
       <use xlink:href="#DejaVuSans-31"/>
       <use x="63.623047" xlink:href="#DejaVuSans-30"/>
       <use x="127.246094" xlink:href="#DejaVuSans-30"/>
       <use x="190.869141" xlink:href="#DejaVuSans-2e"/>
       <use x="222.65625" xlink:href="#DejaVuSans-30"/>
      </g>
     </g>
    </g>
    <g id="text_5">
     <!-- $T$ -->
     <g transform="translate(164.325 329.033125)scale(0.2 -0.2)">
      <defs>
       <path d="M 378 4666 
L 4325 4666 
L 4225 4134 
L 2559 4134 
L 1759 0 
L 1125 0 
L 1925 4134 
L 275 4134 
L 378 4666 
z
" id="DejaVuSans-Oblique-54" transform="scale(0.015625)"/>
      </defs>
      <use transform="translate(0 0.09375)" xlink:href="#DejaVuSans-Oblique-54"/>
     </g>
    </g>
   </g>
   <g id="matplotlib.axis_2">
    <g id="text_6">
     <!-- $x$ -->
     <g transform="translate(26.800625 153.14)rotate(-90)scale(0.2 -0.2)">
      <defs>
       <path d="M 3841 3500 
L 2234 1784 
L 3219 0 
L 2559 0 
L 1819 1388 
L 531 0 
L -166 0 
L 1556 1844 
L 641 3500 
L 1300 3500 
L 1972 2234 
L 3144 3500 
L 3841 3500 
z
" id="DejaVuSans-Oblique-78" transform="scale(0.015625)"/>
      </defs>
      <use transform="translate(0 0.3125)" xlink:href="#DejaVuSans-Oblique-78"/>
     </g>
    </g>
   </g>
   <g id="line2d_5">
    <path clip-path="url(#pf50cc06c63)" d="M 34.96 271.085455 
L 37.6713 271.085455 
L 40.3826 271.085455 
L 43.0939 271.085455 
L 45.8052 271.085455 
L 48.5165 271.085455 
L 51.2278 271.085455 
L 53.9391 271.085455 
L 56.6504 271.085455 
L 59.3617 271.085455 
L 62.073 271.085455 
L 64.7843 271.085455 
L 67.4956 271.085455 
L 70.2069 271.085455 
L 72.9182 271.085455 
L 75.6295 271.085455 
L 78.3408 271.085455 
L 81.0521 271.085455 
L 83.7634 271.085455 
L 86.4747 271.085455 
L 89.186 271.085455 
L 91.8973 271.085455 
L 94.6086 271.085455 
L 97.3199 271.085455 
L 100.0312 271.085455 
L 102.7425 271.085455 
L 105.4538 271.085455 
L 108.1651 271.085455 
L 110.8764 271.085455 
L 113.5877 271.085455 
L 116.299 271.085455 
L 119.0103 271.085455 
L 121.7216 271.085455 
L 124.4329 271.085455 
L 127.1442 271.085455 
L 129.8555 271.085455 
L 132.5668 271.085455 
L 135.2781 271.085455 
L 137.9894 271.085455 
L 140.7007 271.085455 
L 143.412 271.085455 
L 146.1233 271.085455 
L 148.8346 271.085455 
L 151.5459 271.085455 
L 154.2572 271.085455 
L 156.9685 271.085455 
L 159.6798 271.085455 
L 162.3911 271.085455 
L 165.1024 271.085455 
L 167.8137 271.085455 
L 170.525 271.085455 
L 173.2363 271.085455 
L 175.9476 271.085455 
L 178.6589 271.085455 
L 181.3702 271.085455 
L 184.0815 271.085455 
L 186.7928 271.085455 
L 189.5041 271.085455 
L 192.2154 271.085455 
L 194.9267 271.085455 
L 197.638 271.085455 
L 200.3493 271.085455 
L 203.0606 271.085455 
L 205.7719 271.085455 
L 208.4832 271.085455 
L 211.1945 271.085455 
L 213.9058 271.085455 
L 216.6171 271.085455 
L 219.3284 271.085455 
L 222.0397 271.085455 
L 224.751 271.085455 
L 227.4623 271.085455 
L 230.1736 271.085455 
L 232.8849 271.085455 
L 235.5962 271.085455 
L 238.3075 271.085455 
L 241.0188 271.085455 
L 243.7301 271.085455 
L 246.4414 271.085455 
L 249.1527 271.085455 
L 251.864 271.085455 
L 254.5753 271.085455 
L 257.2866 271.085455 
L 259.9979 271.085455 
L 262.7092 271.085455 
L 265.4205 271.085455 
L 268.1318 271.085455 
L 270.8431 271.085455 
L 273.5544 271.085455 
L 276.2657 271.085455 
L 278.977 271.085455 
L 281.6883 271.085455 
L 284.3996 271.085455 
L 287.1109 271.085455 
L 289.8222 271.085455 
L 292.5335 271.085455 
L 295.2448 271.085455 
L 297.9561 271.085455 
L 300.6674 271.085455 
L 303.3787 271.085455 
" style="fill:none;stroke:#9e0142;stroke-linecap:square;stroke-width:5;"/>
   </g>
   <g id="line2d_6">
    <path clip-path="url(#pf50cc06c63)" d="M 34.96 246.296364 
L 37.6713 246.296364 
L 40.3826 246.296364 
L 43.0939 246.296364 
L 45.8052 246.296364 
L 48.5165 246.296364 
L 51.2278 246.296364 
L 53.9391 246.296364 
L 56.6504 246.296364 
L 59.3617 246.296364 
L 62.073 246.296364 
L 64.7843 246.296364 
L 67.4956 246.296364 
L 70.2069 246.296364 
L 72.9182 246.296364 
L 75.6295 246.296364 
L 78.3408 246.296364 
L 81.0521 246.296364 
L 83.7634 246.296364 
L 86.4747 246.296364 
L 89.186 246.296364 
L 91.8973 246.296364 
L 94.6086 246.296364 
L 97.3199 246.296364 
L 100.0312 246.296364 
L 102.7425 246.296364 
L 105.4538 246.296364 
L 108.1651 246.296364 
L 110.8764 246.296364 
L 113.5877 246.296364 
L 116.299 246.296364 
L 119.0103 246.296364 
L 121.7216 246.296364 
L 124.4329 246.296364 
L 127.1442 246.296364 
L 129.8555 246.296364 
L 132.5668 246.296364 
L 135.2781 246.296364 
L 137.9894 246.296364 
L 140.7007 246.296364 
L 143.412 246.296364 
L 146.1233 246.296364 
L 148.8346 246.296364 
L 151.5459 246.296364 
L 154.2572 246.296364 
L 156.9685 246.296364 
L 159.6798 246.296364 
L 162.3911 246.296364 
L 165.1024 246.296364 
L 167.8137 246.296364 
L 170.525 246.296364 
L 173.2363 246.296364 
L 175.9476 246.296364 
L 178.6589 246.296364 
L 181.3702 246.296364 
L 184.0815 246.296364 
L 186.7928 246.296364 
L 189.5041 246.296364 
L 192.2154 246.296364 
L 194.9267 246.296364 
L 197.638 246.296364 
L 200.3493 246.296364 
L 203.0606 246.296364 
L 205.7719 246.296364 
L 208.4832 246.296364 
L 211.1945 246.296364 
L 213.9058 246.296364 
L 216.6171 246.296364 
L 219.3284 246.296364 
L 222.0397 246.296364 
L 224.751 246.296364 
L 227.4623 246.296364 
L 230.1736 246.296364 
L 232.8849 246.296364 
L 235.5962 246.296364 
L 238.3075 246.296364 
L 241.0188 246.296364 
L 243.7301 246.296364 
L 246.4414 246.296364 
L 249.1527 246.296364 
L 251.864 246.296364 
L 254.5753 246.296364 
L 257.2866 246.296364 
L 259.9979 246.296364 
L 262.7092 246.296364 
L 265.4205 246.296364 
L 268.1318 246.296364 
L 270.8431 246.296364 
L 273.5544 246.296364 
L 276.2657 246.296364 
L 278.977 246.296364 
L 281.6883 246.296364 
L 284.3996 246.296364 
L 287.1109 246.296364 
L 289.8222 246.296364 
L 292.5335 246.296364 
L 295.2448 246.296364 
L 297.9561 246.296364 
L 300.6674 246.296364 
L 303.3787 246.296364 
" style="fill:none;stroke:#d43d4f;stroke-linecap:square;stroke-width:5;"/>
   </g>
   <g id="line2d_7">
    <path clip-path="url(#pf50cc06c63)" d="M 34.96 221.507273 
L 37.6713 221.507273 
L 40.3826 221.507273 
L 43.0939 221.507273 
L 45.8052 221.507273 
L 48.5165 221.507273 
L 51.2278 221.507273 
L 53.9391 221.507273 
L 56.6504 221.507273 
L 59.3617 221.507273 
L 62.073 221.507273 
L 64.7843 221.507273 
L 67.4956 221.507273 
L 70.2069 221.507273 
L 72.9182 221.507273 
L 75.6295 221.507273 
L 78.3408 221.507273 
L 81.0521 221.507273 
L 83.7634 221.507273 
L 86.4747 221.507273 
L 89.186 221.507273 
L 91.8973 221.507273 
L 94.6086 221.507273 
L 97.3199 221.507273 
L 100.0312 221.507273 
L 102.7425 221.507273 
L 105.4538 221.507273 
L 108.1651 221.507273 
L 110.8764 221.507273 
L 113.5877 221.507273 
L 116.299 221.507273 
L 119.0103 221.507273 
L 121.7216 221.507273 
L 124.4329 221.507273 
L 127.1442 221.507273 
L 129.8555 221.507273 
L 132.5668 221.507273 
L 135.2781 221.507273 
L 137.9894 221.507273 
L 140.7007 221.507273 
L 143.412 221.507273 
L 146.1233 221.507273 
L 148.8346 221.507273 
L 151.5459 221.507273 
L 154.2572 221.507273 
L 156.9685 221.507273 
L 159.6798 221.507273 
L 162.3911 221.507273 
L 165.1024 221.507273 
L 167.8137 221.507273 
L 170.525 221.507273 
L 173.2363 221.507273 
L 175.9476 221.507273 
L 178.6589 221.507273 
L 181.3702 221.507273 
L 184.0815 221.507273 
L 186.7928 221.507273 
L 189.5041 221.507273 
L 192.2154 221.507273 
L 194.9267 221.507273 
L 197.638 221.507273 
L 200.3493 221.507273 
L 203.0606 221.507273 
L 205.7719 221.507273 
L 208.4832 221.507273 
L 211.1945 221.507273 
L 213.9058 221.507273 
L 216.6171 221.507273 
L 219.3284 221.507273 
L 222.0397 221.507273 
L 224.751 221.507273 
L 227.4623 221.507273 
L 230.1736 221.507273 
L 232.8849 221.507273 
L 235.5962 221.507273 
L 238.3075 221.507273 
L 241.0188 221.507273 
L 243.7301 221.507273 
L 246.4414 221.507273 
L 249.1527 221.507273 
L 251.864 221.507273 
L 254.5753 221.507273 
L 257.2866 221.507273 
L 259.9979 221.507273 
L 262.7092 221.507273 
L 265.4205 221.507273 
L 268.1318 221.507273 
L 270.8431 221.507273 
L 273.5544 221.507273 
L 276.2657 221.507273 
L 278.977 221.507273 
L 281.6883 221.507273 
L 284.3996 221.507273 
L 287.1109 221.507273 
L 289.8222 221.507273 
L 292.5335 221.507273 
L 295.2448 221.507273 
L 297.9561 221.507273 
L 300.6674 221.507273 
L 303.3787 221.507273 
" style="fill:none;stroke:#f46d43;stroke-linecap:square;stroke-width:5;"/>
   </g>
   <g id="line2d_8">
    <path clip-path="url(#pf50cc06c63)" d="M 34.96 196.718182 
L 37.6713 196.718182 
L 40.3826 196.718182 
L 43.0939 196.718182 
L 45.8052 196.718182 
L 48.5165 196.718182 
L 51.2278 196.718182 
L 53.9391 196.718182 
L 56.6504 196.718182 
L 59.3617 196.718182 
L 62.073 196.718182 
L 64.7843 196.718182 
L 67.4956 196.718182 
L 70.2069 196.718182 
L 72.9182 196.718182 
L 75.6295 196.718182 
L 78.3408 196.718182 
L 81.0521 196.718182 
L 83.7634 196.718182 
L 86.4747 196.718182 
L 89.186 196.718182 
L 91.8973 196.718182 
L 94.6086 196.718182 
L 97.3199 196.718182 
L 100.0312 196.718182 
L 102.7425 196.718182 
L 105.4538 196.718182 
L 108.1651 196.718182 
L 110.8764 196.718182 
L 113.5877 196.718182 
L 116.299 196.718182 
L 119.0103 196.718182 
L 121.7216 196.718182 
L 124.4329 196.718182 
L 127.1442 196.718182 
L 129.8555 196.718182 
L 132.5668 196.718182 
L 135.2781 196.718182 
L 137.9894 196.718182 
L 140.7007 196.718182 
L 143.412 196.718182 
L 146.1233 196.718182 
L 148.8346 196.718182 
L 151.5459 196.718182 
L 154.2572 196.718182 
L 156.9685 196.718182 
L 159.6798 196.718182 
L 162.3911 196.718182 
L 165.1024 196.718182 
L 167.8137 196.718182 
L 170.525 196.718182 
L 173.2363 196.718182 
L 175.9476 196.718182 
L 178.6589 196.718182 
L 181.3702 196.718182 
L 184.0815 196.718182 
L 186.7928 196.718182 
L 189.5041 196.718182 
L 192.2154 196.718182 
L 194.9267 196.718182 
L 197.638 196.718182 
L 200.3493 196.718182 
L 203.0606 196.718182 
L 205.7719 196.718182 
L 208.4832 196.718182 
L 211.1945 196.718182 
L 213.9058 196.718182 
L 216.6171 196.718182 
L 219.3284 196.718182 
L 222.0397 196.718182 
L 224.751 196.718182 
L 227.4623 196.718182 
L 230.1736 196.718182 
L 232.8849 196.718182 
L 235.5962 196.718182 
L 238.3075 196.718182 
L 241.0188 196.718182 
L 243.7301 196.718182 
L 246.4414 196.718182 
L 249.1527 196.718182 
L 251.864 196.718182 
L 254.5753 196.718182 
L 257.2866 196.718182 
L 259.9979 196.718182 
L 262.7092 196.718182 
L 265.4205 196.718182 
L 268.1318 196.718182 
L 270.8431 196.718182 
L 273.5544 196.718182 
L 276.2657 196.718182 
L 278.977 196.718182 
L 281.6883 196.718182 
L 284.3996 196.718182 
L 287.1109 196.718182 
L 289.8222 196.718182 
L 292.5335 196.718182 
L 295.2448 196.718182 
L 297.9561 196.718182 
L 300.6674 196.718182 
L 303.3787 196.718182 
" style="fill:none;stroke:#fdad60;stroke-linecap:square;stroke-width:5;"/>
   </g>
   <g id="line2d_9">
    <path clip-path="url(#pf50cc06c63)" d="M 34.96 171.929091 
L 37.6713 171.929091 
L 40.3826 171.929091 
L 43.0939 171.929091 
L 45.8052 171.929091 
L 48.5165 171.929091 
L 51.2278 171.929091 
L 53.9391 171.929091 
L 56.6504 171.929091 
L 59.3617 171.929091 
L 62.073 171.929091 
L 64.7843 171.929091 
L 67.4956 171.929091 
L 70.2069 171.929091 
L 72.9182 171.929091 
L 75.6295 171.929091 
L 78.3408 171.929091 
L 81.0521 171.929091 
L 83.7634 171.929091 
L 86.4747 171.929091 
L 89.186 171.929091 
L 91.8973 171.929091 
L 94.6086 171.929091 
L 97.3199 171.929091 
L 100.0312 171.929091 
L 102.7425 171.929091 
L 105.4538 171.929091 
L 108.1651 171.929091 
L 110.8764 171.929091 
L 113.5877 171.929091 
L 116.299 171.929091 
L 119.0103 171.929091 
L 121.7216 171.929091 
L 124.4329 171.929091 
L 127.1442 171.929091 
L 129.8555 171.929091 
L 132.5668 171.929091 
L 135.2781 171.929091 
L 137.9894 171.929091 
L 140.7007 171.929091 
L 143.412 171.929091 
L 146.1233 171.929091 
L 148.8346 171.929091 
L 151.5459 171.929091 
L 154.2572 171.929091 
L 156.9685 171.929091 
L 159.6798 171.929091 
L 162.3911 171.929091 
L 165.1024 171.929091 
L 167.8137 171.929091 
L 170.525 171.929091 
L 173.2363 171.929091 
L 175.9476 171.929091 
L 178.6589 171.929091 
L 181.3702 171.929091 
L 184.0815 171.929091 
L 186.7928 171.929091 
L 189.5041 171.929091 
L 192.2154 171.929091 
L 194.9267 171.929091 
L 197.638 171.929091 
L 200.3493 171.929091 
L 203.0606 171.929091 
L 205.7719 171.929091 
L 208.4832 171.929091 
L 211.1945 171.929091 
L 213.9058 171.929091 
L 216.6171 171.929091 
L 219.3284 171.929091 
L 222.0397 171.929091 
L 224.751 171.929091 
L 227.4623 171.929091 
L 230.1736 171.929091 
L 232.8849 171.929091 
L 235.5962 171.929091 
L 238.3075 171.929091 
L 241.0188 171.929091 
L 243.7301 171.929091 
L 246.4414 171.929091 
L 249.1527 171.929091 
L 251.864 171.929091 
L 254.5753 171.929091 
L 257.2866 171.929091 
L 259.9979 171.929091 
L 262.7092 171.929091 
L 265.4205 171.929091 
L 268.1318 171.929091 
L 270.8431 171.929091 
L 273.5544 171.929091 
L 276.2657 171.929091 
L 278.977 171.929091 
L 281.6883 171.929091 
L 284.3996 171.929091 
L 287.1109 171.929091 
L 289.8222 171.929091 
L 292.5335 171.929091 
L 295.2448 171.929091 
L 297.9561 171.929091 
L 300.6674 171.929091 
L 303.3787 171.929091 
" style="fill:none;stroke:#fee08b;stroke-linecap:square;stroke-width:5;"/>
   </g>
   <g id="line2d_10">
    <path clip-path="url(#pf50cc06c63)" d="M 34.96 147.14 
L 37.6713 147.14 
L 40.3826 147.14 
L 43.0939 147.14 
L 45.8052 147.14 
L 48.5165 147.14 
L 51.2278 147.14 
L 53.9391 147.14 
L 56.6504 147.14 
L 59.3617 147.14 
L 62.073 147.14 
L 64.7843 147.14 
L 67.4956 147.14 
L 70.2069 147.14 
L 72.9182 147.14 
L 75.6295 147.14 
L 78.3408 147.14 
L 81.0521 147.14 
L 83.7634 147.14 
L 86.4747 147.14 
L 89.186 147.14 
L 91.8973 147.14 
L 94.6086 147.14 
L 97.3199 147.14 
L 100.0312 147.14 
L 102.7425 147.14 
L 105.4538 147.14 
L 108.1651 147.14 
L 110.8764 147.14 
L 113.5877 147.14 
L 116.299 147.14 
L 119.0103 147.14 
L 121.7216 147.14 
L 124.4329 147.14 
L 127.1442 147.14 
L 129.8555 147.14 
L 132.5668 147.14 
L 135.2781 147.14 
L 137.9894 147.14 
L 140.7007 147.14 
L 143.412 147.14 
L 146.1233 147.14 
L 148.8346 147.14 
L 151.5459 147.14 
L 154.2572 147.14 
L 156.9685 147.14 
L 159.6798 147.14 
L 162.3911 147.14 
L 165.1024 147.14 
L 167.8137 147.14 
L 170.525 147.14 
L 173.2363 147.14 
L 175.9476 147.14 
L 178.6589 147.14 
L 181.3702 147.14 
L 184.0815 147.14 
L 186.7928 147.14 
L 189.5041 147.14 
L 192.2154 147.14 
L 194.9267 147.14 
L 197.638 147.14 
L 200.3493 147.14 
L 203.0606 147.14 
L 205.7719 147.14 
L 208.4832 147.14 
L 211.1945 147.14 
L 213.9058 147.14 
L 216.6171 147.14 
L 219.3284 147.14 
L 222.0397 147.14 
L 224.751 147.14 
L 227.4623 147.14 
L 230.1736 147.14 
L 232.8849 147.14 
L 235.5962 147.14 
L 238.3075 147.14 
L 241.0188 147.14 
L 243.7301 147.14 
L 246.4414 147.14 
L 249.1527 147.14 
L 251.864 147.14 
L 254.5753 147.14 
L 257.2866 147.14 
L 259.9979 147.14 
L 262.7092 147.14 
L 265.4205 147.14 
L 268.1318 147.14 
L 270.8431 147.14 
L 273.5544 147.14 
L 276.2657 147.14 
L 278.977 147.14 
L 281.6883 147.14 
L 284.3996 147.14 
L 287.1109 147.14 
L 289.8222 147.14 
L 292.5335 147.14 
L 295.2448 147.14 
L 297.9561 147.14 
L 300.6674 147.14 
L 303.3787 147.14 
" style="fill:none;stroke:#ffffbe;stroke-linecap:square;stroke-width:5;"/>
   </g>
   <g id="line2d_11">
    <path clip-path="url(#pf50cc06c63)" d="M 34.96 122.350909 
L 37.6713 122.350909 
L 40.3826 122.350909 
L 43.0939 122.350909 
L 45.8052 122.350909 
L 48.5165 122.350909 
L 51.2278 122.350909 
L 53.9391 122.350909 
L 56.6504 122.350909 
L 59.3617 122.350909 
L 62.073 122.350909 
L 64.7843 122.350909 
L 67.4956 122.350909 
L 70.2069 122.350909 
L 72.9182 122.350909 
L 75.6295 122.350909 
L 78.3408 122.350909 
L 81.0521 122.350909 
L 83.7634 122.350909 
L 86.4747 122.350909 
L 89.186 122.350909 
L 91.8973 122.350909 
L 94.6086 122.350909 
L 97.3199 122.350909 
L 100.0312 122.350909 
L 102.7425 122.350909 
L 105.4538 122.350909 
L 108.1651 122.350909 
L 110.8764 122.350909 
L 113.5877 122.350909 
L 116.299 122.350909 
L 119.0103 122.350909 
L 121.7216 122.350909 
L 124.4329 122.350909 
L 127.1442 122.350909 
L 129.8555 122.350909 
L 132.5668 122.350909 
L 135.2781 122.350909 
L 137.9894 122.350909 
L 140.7007 122.350909 
L 143.412 122.350909 
L 146.1233 122.350909 
L 148.8346 122.350909 
L 151.5459 122.350909 
L 154.2572 122.350909 
L 156.9685 122.350909 
L 159.6798 122.350909 
L 162.3911 122.350909 
L 165.1024 122.350909 
L 167.8137 122.350909 
L 170.525 122.350909 
L 173.2363 122.350909 
L 175.9476 122.350909 
L 178.6589 122.350909 
L 181.3702 122.350909 
L 184.0815 122.350909 
L 186.7928 122.350909 
L 189.5041 122.350909 
L 192.2154 122.350909 
L 194.9267 122.350909 
L 197.638 122.350909 
L 200.3493 122.350909 
L 203.0606 122.350909 
L 205.7719 122.350909 
L 208.4832 122.350909 
L 211.1945 122.350909 
L 213.9058 122.350909 
L 216.6171 122.350909 
L 219.3284 122.350909 
L 222.0397 122.350909 
L 224.751 122.350909 
L 227.4623 122.350909 
L 230.1736 122.350909 
L 232.8849 122.350909 
L 235.5962 122.350909 
L 238.3075 122.350909 
L 241.0188 122.350909 
L 243.7301 122.350909 
L 246.4414 122.350909 
L 249.1527 122.350909 
L 251.864 122.350909 
L 254.5753 122.350909 
L 257.2866 122.350909 
L 259.9979 122.350909 
L 262.7092 122.350909 
L 265.4205 122.350909 
L 268.1318 122.350909 
L 270.8431 122.350909 
L 273.5544 122.350909 
L 276.2657 122.350909 
L 278.977 122.350909 
L 281.6883 122.350909 
L 284.3996 122.350909 
L 287.1109 122.350909 
L 289.8222 122.350909 
L 292.5335 122.350909 
L 295.2448 122.350909 
L 297.9561 122.350909 
L 300.6674 122.350909 
L 303.3787 122.350909 
" style="fill:none;stroke:#e6f598;stroke-linecap:square;stroke-width:5;"/>
   </g>
   <g id="line2d_12">
    <path clip-path="url(#pf50cc06c63)" d="M 34.96 97.561818 
L 37.6713 97.561818 
L 40.3826 97.561818 
L 43.0939 97.561818 
L 45.8052 97.561818 
L 48.5165 97.561818 
L 51.2278 97.561818 
L 53.9391 97.561818 
L 56.6504 97.561818 
L 59.3617 97.561818 
L 62.073 97.561818 
L 64.7843 97.561818 
L 67.4956 97.561818 
L 70.2069 97.561818 
L 72.9182 97.561818 
L 75.6295 97.561818 
L 78.3408 97.561818 
L 81.0521 97.561818 
L 83.7634 97.561818 
L 86.4747 97.561818 
L 89.186 97.561818 
L 91.8973 97.561818 
L 94.6086 97.561818 
L 97.3199 97.561818 
L 100.0312 97.561818 
L 102.7425 97.561818 
L 105.4538 97.561818 
L 108.1651 97.561818 
L 110.8764 97.561818 
L 113.5877 97.561818 
L 116.299 97.561818 
L 119.0103 97.561818 
L 121.7216 97.561818 
L 124.4329 97.561818 
L 127.1442 97.561818 
L 129.8555 97.561818 
L 132.5668 97.561818 
L 135.2781 97.561818 
L 137.9894 97.561818 
L 140.7007 97.561818 
L 143.412 97.561818 
L 146.1233 97.561818 
L 148.8346 97.561818 
L 151.5459 97.561818 
L 154.2572 97.561818 
L 156.9685 97.561818 
L 159.6798 97.561818 
L 162.3911 97.561818 
L 165.1024 97.561818 
L 167.8137 97.561818 
L 170.525 97.561818 
L 173.2363 97.561818 
L 175.9476 97.561818 
L 178.6589 97.561818 
L 181.3702 97.561818 
L 184.0815 97.561818 
L 186.7928 97.561818 
L 189.5041 97.561818 
L 192.2154 97.561818 
L 194.9267 97.561818 
L 197.638 97.561818 
L 200.3493 97.561818 
L 203.0606 97.561818 
L 205.7719 97.561818 
L 208.4832 97.561818 
L 211.1945 97.561818 
L 213.9058 97.561818 
L 216.6171 97.561818 
L 219.3284 97.561818 
L 222.0397 97.561818 
L 224.751 97.561818 
L 227.4623 97.561818 
L 230.1736 97.561818 
L 232.8849 97.561818 
L 235.5962 97.561818 
L 238.3075 97.561818 
L 241.0188 97.561818 
L 243.7301 97.561818 
L 246.4414 97.561818 
L 249.1527 97.561818 
L 251.864 97.561818 
L 254.5753 97.561818 
L 257.2866 97.561818 
L 259.9979 97.561818 
L 262.7092 97.561818 
L 265.4205 97.561818 
L 268.1318 97.561818 
L 270.8431 97.561818 
L 273.5544 97.561818 
L 276.2657 97.561818 
L 278.977 97.561818 
L 281.6883 97.561818 
L 284.3996 97.561818 
L 287.1109 97.561818 
L 289.8222 97.561818 
L 292.5335 97.561818 
L 295.2448 97.561818 
L 297.9561 97.561818 
L 300.6674 97.561818 
L 303.3787 97.561818 
" style="fill:none;stroke:#aadca4;stroke-linecap:square;stroke-width:5;"/>
   </g>
   <g id="line2d_13">
    <path clip-path="url(#pf50cc06c63)" d="M 34.96 72.772727 
L 37.6713 72.772727 
L 40.3826 72.772727 
L 43.0939 72.772727 
L 45.8052 72.772727 
L 48.5165 72.772727 
L 51.2278 72.772727 
L 53.9391 72.772727 
L 56.6504 72.772727 
L 59.3617 72.772727 
L 62.073 72.772727 
L 64.7843 72.772727 
L 67.4956 72.772727 
L 70.2069 72.772727 
L 72.9182 72.772727 
L 75.6295 72.772727 
L 78.3408 72.772727 
L 81.0521 72.772727 
L 83.7634 72.772727 
L 86.4747 72.772727 
L 89.186 72.772727 
L 91.8973 72.772727 
L 94.6086 72.772727 
L 97.3199 72.772727 
L 100.0312 72.772727 
L 102.7425 72.772727 
L 105.4538 72.772727 
L 108.1651 72.772727 
L 110.8764 72.772727 
L 113.5877 72.772727 
L 116.299 72.772727 
L 119.0103 72.772727 
L 121.7216 72.772727 
L 124.4329 72.772727 
L 127.1442 72.772727 
L 129.8555 72.772727 
L 132.5668 72.772727 
L 135.2781 72.772727 
L 137.9894 72.772727 
L 140.7007 72.772727 
L 143.412 72.772727 
L 146.1233 72.772727 
L 148.8346 72.772727 
L 151.5459 72.772727 
L 154.2572 72.772727 
L 156.9685 72.772727 
L 159.6798 72.772727 
L 162.3911 72.772727 
L 165.1024 72.772727 
L 167.8137 72.772727 
L 170.525 72.772727 
L 173.2363 72.772727 
L 175.9476 72.772727 
L 178.6589 72.772727 
L 181.3702 72.772727 
L 184.0815 72.772727 
L 186.7928 72.772727 
L 189.5041 72.772727 
L 192.2154 72.772727 
L 194.9267 72.772727 
L 197.638 72.772727 
L 200.3493 72.772727 
L 203.0606 72.772727 
L 205.7719 72.772727 
L 208.4832 72.772727 
L 211.1945 72.772727 
L 213.9058 72.772727 
L 216.6171 72.772727 
L 219.3284 72.772727 
L 222.0397 72.772727 
L 224.751 72.772727 
L 227.4623 72.772727 
L 230.1736 72.772727 
L 232.8849 72.772727 
L 235.5962 72.772727 
L 238.3075 72.772727 
L 241.0188 72.772727 
L 243.7301 72.772727 
L 246.4414 72.772727 
L 249.1527 72.772727 
L 251.864 72.772727 
L 254.5753 72.772727 
L 257.2866 72.772727 
L 259.9979 72.772727 
L 262.7092 72.772727 
L 265.4205 72.772727 
L 268.1318 72.772727 
L 270.8431 72.772727 
L 273.5544 72.772727 
L 276.2657 72.772727 
L 278.977 72.772727 
L 281.6883 72.772727 
L 284.3996 72.772727 
L 287.1109 72.772727 
L 289.8222 72.772727 
L 292.5335 72.772727 
L 295.2448 72.772727 
L 297.9561 72.772727 
L 300.6674 72.772727 
L 303.3787 72.772727 
" style="fill:none;stroke:#66c2a5;stroke-linecap:square;stroke-width:5;"/>
   </g>
   <g id="line2d_14">
    <path clip-path="url(#pf50cc06c63)" d="M 34.96 47.983636 
L 37.6713 47.983636 
L 40.3826 47.983636 
L 43.0939 47.983636 
L 45.8052 47.983636 
L 48.5165 47.983636 
L 51.2278 47.983636 
L 53.9391 47.983636 
L 56.6504 47.983636 
L 59.3617 47.983636 
L 62.073 47.983636 
L 64.7843 47.983636 
L 67.4956 47.983636 
L 70.2069 47.983636 
L 72.9182 47.983636 
L 75.6295 47.983636 
L 78.3408 47.983636 
L 81.0521 47.983636 
L 83.7634 47.983636 
L 86.4747 47.983636 
L 89.186 47.983636 
L 91.8973 47.983636 
L 94.6086 47.983636 
L 97.3199 47.983636 
L 100.0312 47.983636 
L 102.7425 47.983636 
L 105.4538 47.983636 
L 108.1651 47.983636 
L 110.8764 47.983636 
L 113.5877 47.983636 
L 116.299 47.983636 
L 119.0103 47.983636 
L 121.7216 47.983636 
L 124.4329 47.983636 
L 127.1442 47.983636 
L 129.8555 47.983636 
L 132.5668 47.983636 
L 135.2781 47.983636 
L 137.9894 47.983636 
L 140.7007 47.983636 
L 143.412 47.983636 
L 146.1233 47.983636 
L 148.8346 47.983636 
L 151.5459 47.983636 
L 154.2572 47.983636 
L 156.9685 47.983636 
L 159.6798 47.983636 
L 162.3911 47.983636 
L 165.1024 47.983636 
L 167.8137 47.983636 
L 170.525 47.983636 
L 173.2363 47.983636 
L 175.9476 47.983636 
L 178.6589 47.983636 
L 181.3702 47.983636 
L 184.0815 47.983636 
L 186.7928 47.983636 
L 189.5041 47.983636 
L 192.2154 47.983636 
L 194.9267 47.983636 
L 197.638 47.983636 
L 200.3493 47.983636 
L 203.0606 47.983636 
L 205.7719 47.983636 
L 208.4832 47.983636 
L 211.1945 47.983636 
L 213.9058 47.983636 
L 216.6171 47.983636 
L 219.3284 47.983636 
L 222.0397 47.983636 
L 224.751 47.983636 
L 227.4623 47.983636 
L 230.1736 47.983636 
L 232.8849 47.983636 
L 235.5962 47.983636 
L 238.3075 47.983636 
L 241.0188 47.983636 
L 243.7301 47.983636 
L 246.4414 47.983636 
L 249.1527 47.983636 
L 251.864 47.983636 
L 254.5753 47.983636 
L 257.2866 47.983636 
L 259.9979 47.983636 
L 262.7092 47.983636 
L 265.4205 47.983636 
L 268.1318 47.983636 
L 270.8431 47.983636 
L 273.5544 47.983636 
L 276.2657 47.983636 
L 278.977 47.983636 
L 281.6883 47.983636 
L 284.3996 47.983636 
L 287.1109 47.983636 
L 289.8222 47.983636 
L 292.5335 47.983636 
L 295.2448 47.983636 
L 297.9561 47.983636 
L 300.6674 47.983636 
L 303.3787 47.983636 
" style="fill:none;stroke:#3387bc;stroke-linecap:square;stroke-width:5;"/>
   </g>
   <g id="line2d_15">
    <path clip-path="url(#pf50cc06c63)" d="M 34.96 23.194545 
L 37.6713 23.194545 
L 40.3826 23.194545 
L 43.0939 23.194545 
L 45.8052 23.194545 
L 48.5165 23.194545 
L 51.2278 23.194545 
L 53.9391 23.194545 
L 56.6504 23.194545 
L 59.3617 23.194545 
L 62.073 23.194545 
L 64.7843 23.194545 
L 67.4956 23.194545 
L 70.2069 23.194545 
L 72.9182 23.194545 
L 75.6295 23.194545 
L 78.3408 23.194545 
L 81.0521 23.194545 
L 83.7634 23.194545 
L 86.4747 23.194545 
L 89.186 23.194545 
L 91.8973 23.194545 
L 94.6086 23.194545 
L 97.3199 23.194545 
L 100.0312 23.194545 
L 102.7425 23.194545 
L 105.4538 23.194545 
L 108.1651 23.194545 
L 110.8764 23.194545 
L 113.5877 23.194545 
L 116.299 23.194545 
L 119.0103 23.194545 
L 121.7216 23.194545 
L 124.4329 23.194545 
L 127.1442 23.194545 
L 129.8555 23.194545 
L 132.5668 23.194545 
L 135.2781 23.194545 
L 137.9894 23.194545 
L 140.7007 23.194545 
L 143.412 23.194545 
L 146.1233 23.194545 
L 148.8346 23.194545 
L 151.5459 23.194545 
L 154.2572 23.194545 
L 156.9685 23.194545 
L 159.6798 23.194545 
L 162.3911 23.194545 
L 165.1024 23.194545 
L 167.8137 23.194545 
L 170.525 23.194545 
L 173.2363 23.194545 
L 175.9476 23.194545 
L 178.6589 23.194545 
L 181.3702 23.194545 
L 184.0815 23.194545 
L 186.7928 23.194545 
L 189.5041 23.194545 
L 192.2154 23.194545 
L 194.9267 23.194545 
L 197.638 23.194545 
L 200.3493 23.194545 
L 203.0606 23.194545 
L 205.7719 23.194545 
L 208.4832 23.194545 
L 211.1945 23.194545 
L 213.9058 23.194545 
L 216.6171 23.194545 
L 219.3284 23.194545 
L 222.0397 23.194545 
L 224.751 23.194545 
L 227.4623 23.194545 
L 230.1736 23.194545 
L 232.8849 23.194545 
L 235.5962 23.194545 
L 238.3075 23.194545 
L 241.0188 23.194545 
L 243.7301 23.194545 
L 246.4414 23.194545 
L 249.1527 23.194545 
L 251.864 23.194545 
L 254.5753 23.194545 
L 257.2866 23.194545 
L 259.9979 23.194545 
L 262.7092 23.194545 
L 265.4205 23.194545 
L 268.1318 23.194545 
L 270.8431 23.194545 
L 273.5544 23.194545 
L 276.2657 23.194545 
L 278.977 23.194545 
L 281.6883 23.194545 
L 284.3996 23.194545 
L 287.1109 23.194545 
L 289.8222 23.194545 
L 292.5335 23.194545 
L 295.2448 23.194545 
L 297.9561 23.194545 
L 300.6674 23.194545 
L 303.3787 23.194545 
" style="fill:none;stroke:#5e4fa2;stroke-linecap:square;stroke-width:5;"/>
   </g>
   <g id="patch_3">
    <path d="M 34.96 283.48 
L 34.96 10.8 
" style="fill:none;stroke:#000000;stroke-linecap:square;stroke-linejoin:miter;stroke-width:3;"/>
   </g>
   <g id="patch_4">
    <path d="M 34.96 283.48 
L 306.09 283.48 
" style="fill:none;stroke:#000000;stroke-linecap:square;stroke-linejoin:miter;stroke-width:3;"/>
   </g>
  </g>
 </g>
 <defs>
  <clipPath id="pf50cc06c63">
   <rect height="272.68" width="271.13" x="34.96" y="10.8"/>
  </clipPath>
 </defs>
</svg>
