<?xml version="1.0" encoding="utf-8" standalone="no"?>
<!DOCTYPE svg PUBLIC "-//W3C//DTD SVG 1.1//EN"
  "http://www.w3.org/Graphics/SVG/1.1/DTD/svg11.dtd">
<svg xmlns:xlink="http://www.w3.org/1999/xlink" width="460.8pt" height="345.6pt" viewBox="0 0 460.8 345.6" xmlns="http://www.w3.org/2000/svg" version="1.1">
 <metadata>
  <rdf:RDF xmlns:dc="http://purl.org/dc/elements/1.1/" xmlns:cc="http://creativecommons.org/ns#" xmlns:rdf="http://www.w3.org/1999/02/22-rdf-syntax-ns#">
   <cc:Work>
    <dc:type rdf:resource="http://purl.org/dc/dcmitype/StillImage"/>
    <dc:date>2022-06-29T11:17:59.053858</dc:date>
    <dc:format>image/svg+xml</dc:format>
    <dc:creator>
     <cc:Agent>
      <dc:title>Matplotlib v3.5.1, https://matplotlib.org/</dc:title>
     </cc:Agent>
    </dc:creator>
   </cc:Work>
  </rdf:RDF>
 </metadata>
 <defs>
  <style type="text/css">*{stroke-linejoin: round; stroke-linecap: butt}</style>
 </defs>
 <g id="figure_1">
  <g id="patch_1">
   <path d="M 0 345.6 
L 460.8 345.6 
L 460.8 0 
L 0 0 
z
" style="fill: #ffffff"/>
  </g>
  <g id="axes_1">
   <g id="patch_2">
    <path d="M 35.3 310.64 
L 450 310.64 
L 450 10.8 
L 35.3 10.8 
z
" style="fill: #ffffff"/>
   </g>
   <g id="matplotlib.axis_1">
    <g id="text_1">
     <!-- $x$ -->
     <g transform="translate(236.65 329.836875)scale(0.2 -0.2)">
      <defs>
       <path id="DejaVuSans-Oblique-78" d="M 3841 3500 
L 2234 1784 
L 3219 0 
L 2559 0 
L 1819 1388 
L 531 0 
L -166 0 
L 1556 1844 
L 641 3500 
L 1300 3500 
L 1972 2234 
L 3144 3500 
L 3841 3500 
z
" transform="scale(0.015625)"/>
      </defs>
      <use xlink:href="#DejaVuSans-Oblique-78" transform="translate(0 0.3125)"/>
     </g>
    </g>
   </g>
   <g id="matplotlib.axis_2">
    <g id="text_2">
     <!-- $\dot{x}$ -->
     <g transform="translate(27.140625 166.72)rotate(-90)scale(0.2 -0.2)">
      <defs>
       <path id="DejaVuSans-307" d="M -1894 4863 
L -1319 4863 
L -1319 4134 
L -1894 4134 
L -1894 4863 
z
M -1600 3584 
L -1600 3584 
z
" transform="scale(0.015625)"/>
      </defs>
      <use xlink:href="#DejaVuSans-307" transform="translate(62.388672 12.015625)"/>
      <use xlink:href="#DejaVuSans-Oblique-78" transform="translate(0 0.828125)"/>
     </g>
    </g>
   </g>
   <g id="line2d_1">
    <path d="M 54.15 160.72 
L 54.15 160.72 
L 54.15 160.72 
L 54.15 160.72 
L 54.15 160.72 
L 54.15 160.72 
L 54.15 160.72 
L 54.15 160.72 
L 54.15 160.72 
L 54.15 160.72 
L 54.15 160.72 
L 54.15 160.72 
L 54.15 160.72 
L 54.15 160.72 
L 54.15 160.72 
L 54.15 160.72 
L 54.15 160.72 
L 54.15 160.72 
L 54.15 160.72 
L 54.15 160.72 
L 54.15 160.72 
L 54.15 160.72 
L 54.15 160.72 
L 54.15 160.72 
L 54.15 160.72 
L 54.15 160.72 
L 54.15 160.72 
L 54.15 160.72 
L 54.15 160.72 
L 54.15 160.72 
L 54.15 160.72 
L 54.15 160.72 
L 54.15 160.72 
L 54.15 160.72 
L 54.15 160.72 
L 54.15 160.72 
L 54.15 160.72 
L 54.15 160.72 
L 54.15 160.72 
L 54.15 160.72 
L 54.15 160.72 
L 54.15 160.72 
L 54.15 160.72 
L 54.15 160.72 
L 54.15 160.72 
L 54.15 160.72 
L 54.15 160.72 
L 54.15 160.72 
L 54.15 160.72 
L 54.15 160.72 
L 54.15 160.72 
L 54.15 160.72 
L 54.15 160.72 
L 54.15 160.72 
L 54.15 160.72 
L 54.15 160.72 
L 54.15 160.72 
L 54.15 160.72 
L 54.15 160.72 
L 54.15 160.72 
L 54.15 160.72 
L 54.15 160.72 
L 54.15 160.72 
L 54.15 160.72 
L 54.15 160.72 
L 54.15 160.72 
L 54.15 160.72 
L 54.15 160.72 
L 54.15 160.72 
L 54.15 160.72 
L 54.15 160.72 
L 54.15 160.72 
L 54.15 160.72 
L 54.15 160.72 
L 54.15 160.72 
L 54.15 160.72 
L 54.15 160.72 
L 54.15 160.72 
L 54.15 160.72 
L 54.15 160.72 
L 54.15 160.72 
L 54.15 160.72 
L 54.15 160.72 
L 54.15 160.72 
L 54.15 160.72 
L 54.15 160.72 
L 54.15 160.72 
L 54.15 160.72 
L 54.15 160.72 
L 54.15 160.72 
L 54.15 160.72 
L 54.15 160.72 
L 54.15 160.72 
L 54.15 160.72 
L 54.15 160.72 
L 54.15 160.72 
L 54.15 160.72 
L 54.15 160.72 
L 54.15 160.72 
" clip-path="url(#pcf4783eb2d)" style="fill: none; stroke: #000000; stroke-width: 5; stroke-linecap: square"/>
   </g>
   <g id="line2d_2">
    <path d="M 96.038889 160.72 
L 96.038889 160.72 
L 96.038889 160.72 
L 96.038889 160.72 
L 96.038889 160.72 
L 96.038889 160.72 
L 96.038889 160.72 
L 96.038889 160.72 
L 96.038889 160.72 
L 96.038889 160.72 
L 96.038889 160.72 
L 96.038889 160.72 
L 96.038889 160.72 
L 96.038889 160.72 
L 96.038889 160.72 
L 96.038889 160.72 
L 96.038889 160.72 
L 96.038889 160.72 
L 96.038889 160.72 
L 96.038889 160.72 
L 96.038889 160.72 
L 96.038889 160.72 
L 96.038889 160.72 
L 96.038889 160.72 
L 96.038889 160.72 
L 96.038889 160.72 
L 96.038889 160.72 
L 96.038889 160.72 
L 96.038889 160.72 
L 96.038889 160.72 
L 96.038889 160.72 
L 96.038889 160.72 
L 96.038889 160.72 
L 96.038889 160.72 
L 96.038889 160.72 
L 96.038889 160.72 
L 96.038889 160.72 
L 96.038889 160.72 
L 96.038889 160.72 
L 96.038889 160.72 
L 96.038889 160.72 
L 96.038889 160.72 
L 96.038889 160.72 
L 96.038889 160.72 
L 96.038889 160.72 
L 96.038889 160.72 
L 96.038889 160.72 
L 96.038889 160.72 
L 96.038889 160.72 
L 96.038889 160.72 
L 96.038889 160.72 
L 96.038889 160.72 
L 96.038889 160.72 
L 96.038889 160.72 
L 96.038889 160.72 
L 96.038889 160.72 
L 96.038889 160.72 
L 96.038889 160.72 
L 96.038889 160.72 
L 96.038889 160.72 
L 96.038889 160.72 
L 96.038889 160.72 
L 96.038889 160.72 
L 96.038889 160.72 
L 96.038889 160.72 
L 96.038889 160.72 
L 96.038889 160.72 
L 96.038889 160.72 
L 96.038889 160.72 
L 96.038889 160.72 
L 96.038889 160.72 
L 96.038889 160.72 
L 96.038889 160.72 
L 96.038889 160.72 
L 96.038889 160.72 
L 96.038889 160.72 
L 96.038889 160.72 
L 96.038889 160.72 
L 96.038889 160.72 
L 96.038889 160.72 
L 96.038889 160.72 
L 96.038889 160.72 
L 96.038889 160.72 
L 96.038889 160.72 
L 96.038889 160.72 
L 96.038889 160.72 
L 96.038889 160.72 
L 96.038889 160.72 
L 96.038889 160.72 
L 96.038889 160.72 
L 96.038889 160.72 
L 96.038889 160.72 
L 96.038889 160.72 
L 96.038889 160.72 
L 96.038889 160.72 
L 96.038889 160.72 
L 96.038889 160.72 
L 96.038889 160.72 
L 96.038889 160.72 
" clip-path="url(#pcf4783eb2d)" style="fill: none; stroke: #000000; stroke-width: 5; stroke-linecap: square"/>
   </g>
   <g id="line2d_3">
    <path d="M 137.927778 160.72 
L 137.927778 160.72 
L 137.927778 160.72 
L 137.927778 160.72 
L 137.927778 160.72 
L 137.927778 160.72 
L 137.927778 160.72 
L 137.927778 160.72 
L 137.927778 160.72 
L 137.927778 160.72 
L 137.927778 160.72 
L 137.927778 160.72 
L 137.927778 160.72 
L 137.927778 160.72 
L 137.927778 160.72 
L 137.927778 160.72 
L 137.927778 160.72 
L 137.927778 160.72 
L 137.927778 160.72 
L 137.927778 160.72 
L 137.927778 160.72 
L 137.927778 160.72 
L 137.927778 160.72 
L 137.927778 160.72 
L 137.927778 160.72 
L 137.927778 160.72 
L 137.927778 160.72 
L 137.927778 160.72 
L 137.927778 160.72 
L 137.927778 160.72 
L 137.927778 160.72 
L 137.927778 160.72 
L 137.927778 160.72 
L 137.927778 160.72 
L 137.927778 160.72 
L 137.927778 160.72 
L 137.927778 160.72 
L 137.927778 160.72 
L 137.927778 160.72 
L 137.927778 160.72 
L 137.927778 160.72 
L 137.927778 160.72 
L 137.927778 160.72 
L 137.927778 160.72 
L 137.927778 160.72 
L 137.927778 160.72 
L 137.927778 160.72 
L 137.927778 160.72 
L 137.927778 160.72 
L 137.927778 160.72 
L 137.927778 160.72 
L 137.927778 160.72 
L 137.927778 160.72 
L 137.927778 160.72 
L 137.927778 160.72 
L 137.927778 160.72 
L 137.927778 160.72 
L 137.927778 160.72 
L 137.927778 160.72 
L 137.927778 160.72 
L 137.927778 160.72 
L 137.927778 160.72 
L 137.927778 160.72 
L 137.927778 160.72 
L 137.927778 160.72 
L 137.927778 160.72 
L 137.927778 160.72 
L 137.927778 160.72 
L 137.927778 160.72 
L 137.927778 160.72 
L 137.927778 160.72 
L 137.927778 160.72 
L 137.927778 160.72 
L 137.927778 160.72 
L 137.927778 160.72 
L 137.927778 160.72 
L 137.927778 160.72 
L 137.927778 160.72 
L 137.927778 160.72 
L 137.927778 160.72 
L 137.927778 160.72 
L 137.927778 160.72 
L 137.927778 160.72 
L 137.927778 160.72 
L 137.927778 160.72 
L 137.927778 160.72 
L 137.927778 160.72 
L 137.927778 160.72 
L 137.927778 160.72 
L 137.927778 160.72 
L 137.927778 160.72 
L 137.927778 160.72 
L 137.927778 160.72 
L 137.927778 160.72 
L 137.927778 160.72 
L 137.927778 160.72 
L 137.927778 160.72 
L 137.927778 160.72 
L 137.927778 160.72 
" clip-path="url(#pcf4783eb2d)" style="fill: none; stroke: #000000; stroke-width: 5; stroke-linecap: square"/>
   </g>
   <g id="line2d_4">
    <path d="M 179.816667 160.72 
L 179.816667 160.72 
L 179.816667 160.72 
L 179.816667 160.72 
L 179.816667 160.72 
L 179.816667 160.72 
L 179.816667 160.72 
L 179.816667 160.72 
L 179.816667 160.72 
L 179.816667 160.72 
L 179.816667 160.72 
L 179.816667 160.72 
L 179.816667 160.72 
L 179.816667 160.72 
L 179.816667 160.72 
L 179.816667 160.72 
L 179.816667 160.72 
L 179.816667 160.72 
L 179.816667 160.72 
L 179.816667 160.72 
L 179.816667 160.72 
L 179.816667 160.72 
L 179.816667 160.72 
L 179.816667 160.72 
L 179.816667 160.72 
L 179.816667 160.72 
L 179.816667 160.72 
L 179.816667 160.72 
L 179.816667 160.72 
L 179.816667 160.72 
L 179.816667 160.72 
L 179.816667 160.72 
L 179.816667 160.72 
L 179.816667 160.72 
L 179.816667 160.72 
L 179.816667 160.72 
L 179.816667 160.72 
L 179.816667 160.72 
L 179.816667 160.72 
L 179.816667 160.72 
L 179.816667 160.72 
L 179.816667 160.72 
L 179.816667 160.72 
L 179.816667 160.72 
L 179.816667 160.72 
L 179.816667 160.72 
L 179.816667 160.72 
L 179.816667 160.72 
L 179.816667 160.72 
L 179.816667 160.72 
L 179.816667 160.72 
L 179.816667 160.72 
L 179.816667 160.72 
L 179.816667 160.72 
L 179.816667 160.72 
L 179.816667 160.72 
L 179.816667 160.72 
L 179.816667 160.72 
L 179.816667 160.72 
L 179.816667 160.72 
L 179.816667 160.72 
L 179.816667 160.72 
L 179.816667 160.72 
L 179.816667 160.72 
L 179.816667 160.72 
L 179.816667 160.72 
L 179.816667 160.72 
L 179.816667 160.72 
L 179.816667 160.72 
L 179.816667 160.72 
L 179.816667 160.72 
L 179.816667 160.72 
L 179.816667 160.72 
L 179.816667 160.72 
L 179.816667 160.72 
L 179.816667 160.72 
L 179.816667 160.72 
L 179.816667 160.72 
L 179.816667 160.72 
L 179.816667 160.72 
L 179.816667 160.72 
L 179.816667 160.72 
L 179.816667 160.72 
L 179.816667 160.72 
L 179.816667 160.72 
L 179.816667 160.72 
L 179.816667 160.72 
L 179.816667 160.72 
L 179.816667 160.72 
L 179.816667 160.72 
L 179.816667 160.72 
L 179.816667 160.72 
L 179.816667 160.72 
L 179.816667 160.72 
L 179.816667 160.72 
L 179.816667 160.72 
L 179.816667 160.72 
L 179.816667 160.72 
L 179.816667 160.72 
" clip-path="url(#pcf4783eb2d)" style="fill: none; stroke: #000000; stroke-width: 5; stroke-linecap: square"/>
   </g>
   <g id="line2d_5">
    <path d="M 221.705556 160.72 
L 221.705556 160.72 
L 221.705556 160.72 
L 221.705556 160.72 
L 221.705556 160.72 
L 221.705556 160.72 
L 221.705556 160.72 
L 221.705556 160.72 
L 221.705556 160.72 
L 221.705556 160.72 
L 221.705556 160.72 
L 221.705556 160.72 
L 221.705556 160.72 
L 221.705556 160.72 
L 221.705556 160.72 
L 221.705556 160.72 
L 221.705556 160.72 
L 221.705556 160.72 
L 221.705556 160.72 
L 221.705556 160.72 
L 221.705556 160.72 
L 221.705556 160.72 
L 221.705556 160.72 
L 221.705556 160.72 
L 221.705556 160.72 
L 221.705556 160.72 
L 221.705556 160.72 
L 221.705556 160.72 
L 221.705556 160.72 
L 221.705556 160.72 
L 221.705556 160.72 
L 221.705556 160.72 
L 221.705556 160.72 
L 221.705556 160.72 
L 221.705556 160.72 
L 221.705556 160.72 
L 221.705556 160.72 
L 221.705556 160.72 
L 221.705556 160.72 
L 221.705556 160.72 
L 221.705556 160.72 
L 221.705556 160.72 
L 221.705556 160.72 
L 221.705556 160.72 
L 221.705556 160.72 
L 221.705556 160.72 
L 221.705556 160.72 
L 221.705556 160.72 
L 221.705556 160.72 
L 221.705556 160.72 
L 221.705556 160.72 
L 221.705556 160.72 
L 221.705556 160.72 
L 221.705556 160.72 
L 221.705556 160.72 
L 221.705556 160.72 
L 221.705556 160.72 
L 221.705556 160.72 
L 221.705556 160.72 
L 221.705556 160.72 
L 221.705556 160.72 
L 221.705556 160.72 
L 221.705556 160.72 
L 221.705556 160.72 
L 221.705556 160.72 
L 221.705556 160.72 
L 221.705556 160.72 
L 221.705556 160.72 
L 221.705556 160.72 
L 221.705556 160.72 
L 221.705556 160.72 
L 221.705556 160.72 
L 221.705556 160.72 
L 221.705556 160.72 
L 221.705556 160.72 
L 221.705556 160.72 
L 221.705556 160.72 
L 221.705556 160.72 
L 221.705556 160.72 
L 221.705556 160.72 
L 221.705556 160.72 
L 221.705556 160.72 
L 221.705556 160.72 
L 221.705556 160.72 
L 221.705556 160.72 
L 221.705556 160.72 
L 221.705556 160.72 
L 221.705556 160.72 
L 221.705556 160.72 
L 221.705556 160.72 
L 221.705556 160.72 
L 221.705556 160.72 
L 221.705556 160.72 
L 221.705556 160.72 
L 221.705556 160.72 
L 221.705556 160.72 
L 221.705556 160.72 
L 221.705556 160.72 
L 221.705556 160.72 
" clip-path="url(#pcf4783eb2d)" style="fill: none; stroke: #000000; stroke-width: 5; stroke-linecap: square"/>
   </g>
   <g id="line2d_6">
    <path d="M 263.594444 160.72 
L 263.594444 160.72 
L 263.594444 160.72 
L 263.594444 160.72 
L 263.594444 160.72 
L 263.594444 160.72 
L 263.594444 160.72 
L 263.594444 160.72 
L 263.594444 160.72 
L 263.594444 160.72 
L 263.594444 160.72 
L 263.594444 160.72 
L 263.594444 160.72 
L 263.594444 160.72 
L 263.594444 160.72 
L 263.594444 160.72 
L 263.594444 160.72 
L 263.594444 160.72 
L 263.594444 160.72 
L 263.594444 160.72 
L 263.594444 160.72 
L 263.594444 160.72 
L 263.594444 160.72 
L 263.594444 160.72 
L 263.594444 160.72 
L 263.594444 160.72 
L 263.594444 160.72 
L 263.594444 160.72 
L 263.594444 160.72 
L 263.594444 160.72 
L 263.594444 160.72 
L 263.594444 160.72 
L 263.594444 160.72 
L 263.594444 160.72 
L 263.594444 160.72 
L 263.594444 160.72 
L 263.594444 160.72 
L 263.594444 160.72 
L 263.594444 160.72 
L 263.594444 160.72 
L 263.594444 160.72 
L 263.594444 160.72 
L 263.594444 160.72 
L 263.594444 160.72 
L 263.594444 160.72 
L 263.594444 160.72 
L 263.594444 160.72 
L 263.594444 160.72 
L 263.594444 160.72 
L 263.594444 160.72 
L 263.594444 160.72 
L 263.594444 160.72 
L 263.594444 160.72 
L 263.594444 160.72 
L 263.594444 160.72 
L 263.594444 160.72 
L 263.594444 160.72 
L 263.594444 160.72 
L 263.594444 160.72 
L 263.594444 160.72 
L 263.594444 160.72 
L 263.594444 160.72 
L 263.594444 160.72 
L 263.594444 160.72 
L 263.594444 160.72 
L 263.594444 160.72 
L 263.594444 160.72 
L 263.594444 160.72 
L 263.594444 160.72 
L 263.594444 160.72 
L 263.594444 160.72 
L 263.594444 160.72 
L 263.594444 160.72 
L 263.594444 160.72 
L 263.594444 160.72 
L 263.594444 160.72 
L 263.594444 160.72 
L 263.594444 160.72 
L 263.594444 160.72 
L 263.594444 160.72 
L 263.594444 160.72 
L 263.594444 160.72 
L 263.594444 160.72 
L 263.594444 160.72 
L 263.594444 160.72 
L 263.594444 160.72 
L 263.594444 160.72 
L 263.594444 160.72 
L 263.594444 160.72 
L 263.594444 160.72 
L 263.594444 160.72 
L 263.594444 160.72 
L 263.594444 160.72 
L 263.594444 160.72 
L 263.594444 160.72 
L 263.594444 160.72 
L 263.594444 160.72 
L 263.594444 160.72 
L 263.594444 160.72 
" clip-path="url(#pcf4783eb2d)" style="fill: none; stroke: #000000; stroke-width: 5; stroke-linecap: square"/>
   </g>
   <g id="line2d_7">
    <path d="M 305.483333 160.72 
L 305.483333 160.72 
L 305.483333 160.72 
L 305.483333 160.72 
L 305.483333 160.72 
L 305.483333 160.72 
L 305.483333 160.72 
L 305.483333 160.72 
L 305.483333 160.72 
L 305.483333 160.72 
L 305.483333 160.72 
L 305.483333 160.72 
L 305.483333 160.72 
L 305.483333 160.72 
L 305.483333 160.72 
L 305.483333 160.72 
L 305.483333 160.72 
L 305.483333 160.72 
L 305.483333 160.72 
L 305.483333 160.72 
L 305.483333 160.72 
L 305.483333 160.72 
L 305.483333 160.72 
L 305.483333 160.72 
L 305.483333 160.72 
L 305.483333 160.72 
L 305.483333 160.72 
L 305.483333 160.72 
L 305.483333 160.72 
L 305.483333 160.72 
L 305.483333 160.72 
L 305.483333 160.72 
L 305.483333 160.72 
L 305.483333 160.72 
L 305.483333 160.72 
L 305.483333 160.72 
L 305.483333 160.72 
L 305.483333 160.72 
L 305.483333 160.72 
L 305.483333 160.72 
L 305.483333 160.72 
L 305.483333 160.72 
L 305.483333 160.72 
L 305.483333 160.72 
L 305.483333 160.72 
L 305.483333 160.72 
L 305.483333 160.72 
L 305.483333 160.72 
L 305.483333 160.72 
L 305.483333 160.72 
L 305.483333 160.72 
L 305.483333 160.72 
L 305.483333 160.72 
L 305.483333 160.72 
L 305.483333 160.72 
L 305.483333 160.72 
L 305.483333 160.72 
L 305.483333 160.72 
L 305.483333 160.72 
L 305.483333 160.72 
L 305.483333 160.72 
L 305.483333 160.72 
L 305.483333 160.72 
L 305.483333 160.72 
L 305.483333 160.72 
L 305.483333 160.72 
L 305.483333 160.72 
L 305.483333 160.72 
L 305.483333 160.72 
L 305.483333 160.72 
L 305.483333 160.72 
L 305.483333 160.72 
L 305.483333 160.72 
L 305.483333 160.72 
L 305.483333 160.72 
L 305.483333 160.72 
L 305.483333 160.72 
L 305.483333 160.72 
L 305.483333 160.72 
L 305.483333 160.72 
L 305.483333 160.72 
L 305.483333 160.72 
L 305.483333 160.72 
L 305.483333 160.72 
L 305.483333 160.72 
L 305.483333 160.72 
L 305.483333 160.72 
L 305.483333 160.72 
L 305.483333 160.72 
L 305.483333 160.72 
L 305.483333 160.72 
L 305.483333 160.72 
L 305.483333 160.72 
L 305.483333 160.72 
L 305.483333 160.72 
L 305.483333 160.72 
L 305.483333 160.72 
L 305.483333 160.72 
L 305.483333 160.72 
" clip-path="url(#pcf4783eb2d)" style="fill: none; stroke: #000000; stroke-width: 5; stroke-linecap: square"/>
   </g>
   <g id="line2d_8">
    <path d="M 347.372222 160.72 
L 347.372222 160.72 
L 347.372222 160.72 
L 347.372222 160.72 
L 347.372222 160.72 
L 347.372222 160.72 
L 347.372222 160.72 
L 347.372222 160.72 
L 347.372222 160.72 
L 347.372222 160.72 
L 347.372222 160.72 
L 347.372222 160.72 
L 347.372222 160.72 
L 347.372222 160.72 
L 347.372222 160.72 
L 347.372222 160.72 
L 347.372222 160.72 
L 347.372222 160.72 
L 347.372222 160.72 
L 347.372222 160.72 
L 347.372222 160.72 
L 347.372222 160.72 
L 347.372222 160.72 
L 347.372222 160.72 
L 347.372222 160.72 
L 347.372222 160.72 
L 347.372222 160.72 
L 347.372222 160.72 
L 347.372222 160.72 
L 347.372222 160.72 
L 347.372222 160.72 
L 347.372222 160.72 
L 347.372222 160.72 
L 347.372222 160.72 
L 347.372222 160.72 
L 347.372222 160.72 
L 347.372222 160.72 
L 347.372222 160.72 
L 347.372222 160.72 
L 347.372222 160.72 
L 347.372222 160.72 
L 347.372222 160.72 
L 347.372222 160.72 
L 347.372222 160.72 
L 347.372222 160.72 
L 347.372222 160.72 
L 347.372222 160.72 
L 347.372222 160.72 
L 347.372222 160.72 
L 347.372222 160.72 
L 347.372222 160.72 
L 347.372222 160.72 
L 347.372222 160.72 
L 347.372222 160.72 
L 347.372222 160.72 
L 347.372222 160.72 
L 347.372222 160.72 
L 347.372222 160.72 
L 347.372222 160.72 
L 347.372222 160.72 
L 347.372222 160.72 
L 347.372222 160.72 
L 347.372222 160.72 
L 347.372222 160.72 
L 347.372222 160.72 
L 347.372222 160.72 
L 347.372222 160.72 
L 347.372222 160.72 
L 347.372222 160.72 
L 347.372222 160.72 
L 347.372222 160.72 
L 347.372222 160.72 
L 347.372222 160.72 
L 347.372222 160.72 
L 347.372222 160.72 
L 347.372222 160.72 
L 347.372222 160.72 
L 347.372222 160.72 
L 347.372222 160.72 
L 347.372222 160.72 
L 347.372222 160.72 
L 347.372222 160.72 
L 347.372222 160.72 
L 347.372222 160.72 
L 347.372222 160.72 
L 347.372222 160.72 
L 347.372222 160.72 
L 347.372222 160.72 
L 347.372222 160.72 
L 347.372222 160.72 
L 347.372222 160.72 
L 347.372222 160.72 
L 347.372222 160.72 
L 347.372222 160.72 
L 347.372222 160.72 
L 347.372222 160.72 
L 347.372222 160.72 
L 347.372222 160.72 
L 347.372222 160.72 
" clip-path="url(#pcf4783eb2d)" style="fill: none; stroke: #000000; stroke-width: 5; stroke-linecap: square"/>
   </g>
   <g id="line2d_9">
    <path d="M 389.261111 160.72 
L 389.261111 160.72 
L 389.261111 160.72 
L 389.261111 160.72 
L 389.261111 160.72 
L 389.261111 160.72 
L 389.261111 160.72 
L 389.261111 160.72 
L 389.261111 160.72 
L 389.261111 160.72 
L 389.261111 160.72 
L 389.261111 160.72 
L 389.261111 160.72 
L 389.261111 160.72 
L 389.261111 160.72 
L 389.261111 160.72 
L 389.261111 160.72 
L 389.261111 160.72 
L 389.261111 160.72 
L 389.261111 160.72 
L 389.261111 160.72 
L 389.261111 160.72 
L 389.261111 160.72 
L 389.261111 160.72 
L 389.261111 160.72 
L 389.261111 160.72 
L 389.261111 160.72 
L 389.261111 160.72 
L 389.261111 160.72 
L 389.261111 160.72 
L 389.261111 160.72 
L 389.261111 160.72 
L 389.261111 160.72 
L 389.261111 160.72 
L 389.261111 160.72 
L 389.261111 160.72 
L 389.261111 160.72 
L 389.261111 160.72 
L 389.261111 160.72 
L 389.261111 160.72 
L 389.261111 160.72 
L 389.261111 160.72 
L 389.261111 160.72 
L 389.261111 160.72 
L 389.261111 160.72 
L 389.261111 160.72 
L 389.261111 160.72 
L 389.261111 160.72 
L 389.261111 160.72 
L 389.261111 160.72 
L 389.261111 160.72 
L 389.261111 160.72 
L 389.261111 160.72 
L 389.261111 160.72 
L 389.261111 160.72 
L 389.261111 160.72 
L 389.261111 160.72 
L 389.261111 160.72 
L 389.261111 160.72 
L 389.261111 160.72 
L 389.261111 160.72 
L 389.261111 160.72 
L 389.261111 160.72 
L 389.261111 160.72 
L 389.261111 160.72 
L 389.261111 160.72 
L 389.261111 160.72 
L 389.261111 160.72 
L 389.261111 160.72 
L 389.261111 160.72 
L 389.261111 160.72 
L 389.261111 160.72 
L 389.261111 160.72 
L 389.261111 160.72 
L 389.261111 160.72 
L 389.261111 160.72 
L 389.261111 160.72 
L 389.261111 160.72 
L 389.261111 160.72 
L 389.261111 160.72 
L 389.261111 160.72 
L 389.261111 160.72 
L 389.261111 160.72 
L 389.261111 160.72 
L 389.261111 160.72 
L 389.261111 160.72 
L 389.261111 160.72 
L 389.261111 160.72 
L 389.261111 160.72 
L 389.261111 160.72 
L 389.261111 160.72 
L 389.261111 160.72 
L 389.261111 160.72 
L 389.261111 160.72 
L 389.261111 160.72 
L 389.261111 160.72 
L 389.261111 160.72 
L 389.261111 160.72 
L 389.261111 160.72 
" clip-path="url(#pcf4783eb2d)" style="fill: none; stroke: #000000; stroke-width: 5; stroke-linecap: square"/>
   </g>
   <g id="line2d_10">
    <path d="M 431.15 160.72 
L 431.15 160.72 
L 431.15 160.72 
L 431.15 160.72 
L 431.15 160.72 
L 431.15 160.72 
L 431.15 160.72 
L 431.15 160.72 
L 431.15 160.72 
L 431.15 160.72 
L 431.15 160.72 
L 431.15 160.72 
L 431.15 160.72 
L 431.15 160.72 
L 431.15 160.72 
L 431.15 160.72 
L 431.15 160.72 
L 431.15 160.72 
L 431.15 160.72 
L 431.15 160.72 
L 431.15 160.72 
L 431.15 160.72 
L 431.15 160.72 
L 431.15 160.72 
L 431.15 160.72 
L 431.15 160.72 
L 431.15 160.72 
L 431.15 160.72 
L 431.15 160.72 
L 431.15 160.72 
L 431.15 160.72 
L 431.15 160.72 
L 431.15 160.72 
L 431.15 160.72 
L 431.15 160.72 
L 431.15 160.72 
L 431.15 160.72 
L 431.15 160.72 
L 431.15 160.72 
L 431.15 160.72 
L 431.15 160.72 
L 431.15 160.72 
L 431.15 160.72 
L 431.15 160.72 
L 431.15 160.72 
L 431.15 160.72 
L 431.15 160.72 
L 431.15 160.72 
L 431.15 160.72 
L 431.15 160.72 
L 431.15 160.72 
L 431.15 160.72 
L 431.15 160.72 
L 431.15 160.72 
L 431.15 160.72 
L 431.15 160.72 
L 431.15 160.72 
L 431.15 160.72 
L 431.15 160.72 
L 431.15 160.72 
L 431.15 160.72 
L 431.15 160.72 
L 431.15 160.72 
L 431.15 160.72 
L 431.15 160.72 
L 431.15 160.72 
L 431.15 160.72 
L 431.15 160.72 
L 431.15 160.72 
L 431.15 160.72 
L 431.15 160.72 
L 431.15 160.72 
L 431.15 160.72 
L 431.15 160.72 
L 431.15 160.72 
L 431.15 160.72 
L 431.15 160.72 
L 431.15 160.72 
L 431.15 160.72 
L 431.15 160.72 
L 431.15 160.72 
L 431.15 160.72 
L 431.15 160.72 
L 431.15 160.72 
L 431.15 160.72 
L 431.15 160.72 
L 431.15 160.72 
L 431.15 160.72 
L 431.15 160.72 
L 431.15 160.72 
L 431.15 160.72 
L 431.15 160.72 
L 431.15 160.72 
L 431.15 160.72 
L 431.15 160.72 
L 431.15 160.72 
L 431.15 160.72 
L 431.15 160.72 
L 431.15 160.72 
" clip-path="url(#pcf4783eb2d)" style="fill: none; stroke: #000000; stroke-width: 5; stroke-linecap: square"/>
   </g>
   <g id="line2d_11">
    <path d="M 242.65 310.64 
L 242.65 10.8 
" clip-path="url(#pcf4783eb2d)" style="fill: none; stroke: #000000; stroke-width: 3; stroke-linecap: square"/>
   </g>
   <g id="line2d_12">
    <path d="M 35.3 160.72 
L 450 160.72 
" clip-path="url(#pcf4783eb2d)" style="fill: none; stroke: #000000; stroke-width: 3; stroke-linecap: square"/>
   </g>
  </g>
 </g>
 <defs>
  <clipPath id="pcf4783eb2d">
   <rect x="35.3" y="10.8" width="414.7" height="299.84"/>
  </clipPath>
 </defs>
</svg>
