<?xml version="1.0" encoding="utf-8" standalone="no"?>
<!DOCTYPE svg PUBLIC "-//W3C//DTD SVG 1.1//EN"
  "http://www.w3.org/Graphics/SVG/1.1/DTD/svg11.dtd">
<svg xmlns:xlink="http://www.w3.org/1999/xlink" width="460.8pt" height="345.6pt" viewBox="0 0 460.8 345.6" xmlns="http://www.w3.org/2000/svg" version="1.1">
 <metadata>
  <rdf:RDF xmlns:dc="http://purl.org/dc/elements/1.1/" xmlns:cc="http://creativecommons.org/ns#" xmlns:rdf="http://www.w3.org/1999/02/22-rdf-syntax-ns#">
   <cc:Work>
    <dc:type rdf:resource="http://purl.org/dc/dcmitype/StillImage"/>
    <dc:date>2022-06-29T11:10:54.420406</dc:date>
    <dc:format>image/svg+xml</dc:format>
    <dc:creator>
     <cc:Agent>
      <dc:title>Matplotlib v3.5.1, https://matplotlib.org/</dc:title>
     </cc:Agent>
    </dc:creator>
   </cc:Work>
  </rdf:RDF>
 </metadata>
 <defs>
  <style type="text/css">*{stroke-linejoin: round; stroke-linecap: butt}</style>
 </defs>
 <g id="figure_1">
  <g id="patch_1">
   <path d="M 0 345.6 
L 460.8 345.6 
L 460.8 0 
L 0 0 
z
" style="fill: #ffffff"/>
  </g>
  <g id="axes_1">
   <g id="patch_2">
    <path d="M 34.96 283.48 
L 421.29 283.48 
L 421.29 10.8 
L 34.96 10.8 
z
" style="fill: #ffffff"/>
   </g>
   <g id="matplotlib.axis_1">
    <g id="xtick_1">
     <g id="line2d_1">
      <defs>
       <path id="mc0b8a3c05c" d="M 0 0 
L 0 3.5 
" style="stroke: #000000; stroke-width: 0.8"/>
      </defs>
      <g>
       <use xlink:href="#mc0b8a3c05c" x="34.96" y="283.48" style="stroke: #000000; stroke-width: 0.8"/>
      </g>
     </g>
     <g id="text_1">
      <!-- 0.0 -->
      <g transform="translate(19.056875 305.676875)scale(0.2 -0.2)">
       <defs>
        <path id="DejaVuSans-30" d="M 2034 4250 
Q 1547 4250 1301 3770 
Q 1056 3291 1056 2328 
Q 1056 1369 1301 889 
Q 1547 409 2034 409 
Q 2525 409 2770 889 
Q 3016 1369 3016 2328 
Q 3016 3291 2770 3770 
Q 2525 4250 2034 4250 
z
M 2034 4750 
Q 2819 4750 3233 4129 
Q 3647 3509 3647 2328 
Q 3647 1150 3233 529 
Q 2819 -91 2034 -91 
Q 1250 -91 836 529 
Q 422 1150 422 2328 
Q 422 3509 836 4129 
Q 1250 4750 2034 4750 
z
" transform="scale(0.015625)"/>
        <path id="DejaVuSans-2e" d="M 684 794 
L 1344 794 
L 1344 0 
L 684 0 
L 684 794 
z
" transform="scale(0.015625)"/>
       </defs>
       <use xlink:href="#DejaVuSans-30"/>
       <use xlink:href="#DejaVuSans-2e" x="63.623047"/>
       <use xlink:href="#DejaVuSans-30" x="95.410156"/>
      </g>
     </g>
    </g>
    <g id="xtick_2">
     <g id="line2d_2">
      <g>
       <use xlink:href="#mc0b8a3c05c" x="163.736667" y="283.48" style="stroke: #000000; stroke-width: 0.8"/>
      </g>
     </g>
     <g id="text_2">
      <!-- 33.0 -->
      <g transform="translate(141.471042 305.676875)scale(0.2 -0.2)">
       <defs>
        <path id="DejaVuSans-33" d="M 2597 2516 
Q 3050 2419 3304 2112 
Q 3559 1806 3559 1356 
Q 3559 666 3084 287 
Q 2609 -91 1734 -91 
Q 1441 -91 1130 -33 
Q 819 25 488 141 
L 488 750 
Q 750 597 1062 519 
Q 1375 441 1716 441 
Q 2309 441 2620 675 
Q 2931 909 2931 1356 
Q 2931 1769 2642 2001 
Q 2353 2234 1838 2234 
L 1294 2234 
L 1294 2753 
L 1863 2753 
Q 2328 2753 2575 2939 
Q 2822 3125 2822 3475 
Q 2822 3834 2567 4026 
Q 2313 4219 1838 4219 
Q 1578 4219 1281 4162 
Q 984 4106 628 3988 
L 628 4550 
Q 988 4650 1302 4700 
Q 1616 4750 1894 4750 
Q 2613 4750 3031 4423 
Q 3450 4097 3450 3541 
Q 3450 3153 3228 2886 
Q 3006 2619 2597 2516 
z
" transform="scale(0.015625)"/>
       </defs>
       <use xlink:href="#DejaVuSans-33"/>
       <use xlink:href="#DejaVuSans-33" x="63.623047"/>
       <use xlink:href="#DejaVuSans-2e" x="127.246094"/>
       <use xlink:href="#DejaVuSans-30" x="159.033203"/>
      </g>
     </g>
    </g>
    <g id="xtick_3">
     <g id="line2d_3">
      <g>
       <use xlink:href="#mc0b8a3c05c" x="292.513333" y="283.48" style="stroke: #000000; stroke-width: 0.8"/>
      </g>
     </g>
     <g id="text_3">
      <!-- 67.0 -->
      <g transform="translate(270.247708 305.676875)scale(0.2 -0.2)">
       <defs>
        <path id="DejaVuSans-36" d="M 2113 2584 
Q 1688 2584 1439 2293 
Q 1191 2003 1191 1497 
Q 1191 994 1439 701 
Q 1688 409 2113 409 
Q 2538 409 2786 701 
Q 3034 994 3034 1497 
Q 3034 2003 2786 2293 
Q 2538 2584 2113 2584 
z
M 3366 4563 
L 3366 3988 
Q 3128 4100 2886 4159 
Q 2644 4219 2406 4219 
Q 1781 4219 1451 3797 
Q 1122 3375 1075 2522 
Q 1259 2794 1537 2939 
Q 1816 3084 2150 3084 
Q 2853 3084 3261 2657 
Q 3669 2231 3669 1497 
Q 3669 778 3244 343 
Q 2819 -91 2113 -91 
Q 1303 -91 875 529 
Q 447 1150 447 2328 
Q 447 3434 972 4092 
Q 1497 4750 2381 4750 
Q 2619 4750 2861 4703 
Q 3103 4656 3366 4563 
z
" transform="scale(0.015625)"/>
        <path id="DejaVuSans-37" d="M 525 4666 
L 3525 4666 
L 3525 4397 
L 1831 0 
L 1172 0 
L 2766 4134 
L 525 4134 
L 525 4666 
z
" transform="scale(0.015625)"/>
       </defs>
       <use xlink:href="#DejaVuSans-36"/>
       <use xlink:href="#DejaVuSans-37" x="63.623047"/>
       <use xlink:href="#DejaVuSans-2e" x="127.246094"/>
       <use xlink:href="#DejaVuSans-30" x="159.033203"/>
      </g>
     </g>
    </g>
    <g id="xtick_4">
     <g id="line2d_4">
      <g>
       <use xlink:href="#mc0b8a3c05c" x="421.29" y="283.48" style="stroke: #000000; stroke-width: 0.8"/>
      </g>
     </g>
     <g id="text_4">
      <!-- 100.0 -->
      <g transform="translate(392.661875 305.676875)scale(0.2 -0.2)">
       <defs>
        <path id="DejaVuSans-31" d="M 794 531 
L 1825 531 
L 1825 4091 
L 703 3866 
L 703 4441 
L 1819 4666 
L 2450 4666 
L 2450 531 
L 3481 531 
L 3481 0 
L 794 0 
L 794 531 
z
" transform="scale(0.015625)"/>
       </defs>
       <use xlink:href="#DejaVuSans-31"/>
       <use xlink:href="#DejaVuSans-30" x="63.623047"/>
       <use xlink:href="#DejaVuSans-30" x="127.246094"/>
       <use xlink:href="#DejaVuSans-2e" x="190.869141"/>
       <use xlink:href="#DejaVuSans-30" x="222.65625"/>
      </g>
     </g>
    </g>
    <g id="text_5">
     <!-- $T$ -->
     <g transform="translate(221.925 329.033125)scale(0.2 -0.2)">
      <defs>
       <path id="DejaVuSans-Oblique-54" d="M 378 4666 
L 4325 4666 
L 4225 4134 
L 2559 4134 
L 1759 0 
L 1125 0 
L 1925 4134 
L 275 4134 
L 378 4666 
z
" transform="scale(0.015625)"/>
      </defs>
      <use xlink:href="#DejaVuSans-Oblique-54" transform="translate(0 0.09375)"/>
     </g>
    </g>
   </g>
   <g id="matplotlib.axis_2">
    <g id="text_6">
     <!-- $x$ -->
     <g transform="translate(26.800625 153.14)rotate(-90)scale(0.2 -0.2)">
      <defs>
       <path id="DejaVuSans-Oblique-78" d="M 3841 3500 
L 2234 1784 
L 3219 0 
L 2559 0 
L 1819 1388 
L 531 0 
L -166 0 
L 1556 1844 
L 641 3500 
L 1300 3500 
L 1972 2234 
L 3144 3500 
L 3841 3500 
z
" transform="scale(0.015625)"/>
      </defs>
      <use xlink:href="#DejaVuSans-Oblique-78" transform="translate(0 0.3125)"/>
     </g>
    </g>
   </g>
   <g id="line2d_5">
    <path d="M 34.96 271.085455 
L 38.8233 271.085455 
L 42.6866 271.085455 
L 46.5499 271.085455 
L 50.4132 271.085455 
L 54.2765 271.085455 
L 58.1398 271.085455 
L 62.0031 271.085455 
L 65.8664 271.085455 
L 69.7297 271.085455 
L 73.593 271.085455 
L 77.4563 271.085455 
L 81.3196 271.085455 
L 85.1829 271.085455 
L 89.0462 271.085455 
L 92.9095 271.085455 
L 96.7728 271.085455 
L 100.6361 271.085455 
L 104.4994 271.085455 
L 108.3627 271.085455 
L 112.226 271.085455 
L 116.0893 271.085455 
L 119.9526 271.085455 
L 123.8159 271.085455 
L 127.6792 271.085455 
L 131.5425 271.085455 
L 135.4058 271.085455 
L 139.2691 271.085455 
L 143.1324 271.085455 
L 146.9957 271.085455 
L 150.859 271.085455 
L 154.7223 271.085455 
L 158.5856 271.085455 
L 162.4489 271.085455 
L 166.3122 271.085455 
L 170.1755 271.085455 
L 174.0388 271.085455 
L 177.9021 271.085455 
L 181.7654 271.085455 
L 185.6287 271.085455 
L 189.492 271.085455 
L 193.3553 271.085455 
L 197.2186 271.085455 
L 201.0819 271.085455 
L 204.9452 271.085455 
L 208.8085 271.085455 
L 212.6718 271.085455 
L 216.5351 271.085455 
L 220.3984 271.085455 
L 224.2617 271.085455 
L 228.125 271.085455 
L 231.9883 271.085455 
L 235.8516 271.085455 
L 239.7149 271.085455 
L 243.5782 271.085455 
L 247.4415 271.085455 
L 251.3048 271.085455 
L 255.1681 271.085455 
L 259.0314 271.085455 
L 262.8947 271.085455 
L 266.758 271.085455 
L 270.6213 271.085455 
L 274.4846 271.085455 
L 278.3479 271.085455 
L 282.2112 271.085455 
L 286.0745 271.085455 
L 289.9378 271.085455 
L 293.8011 271.085455 
L 297.6644 271.085455 
L 301.5277 271.085455 
L 305.391 271.085455 
L 309.2543 271.085455 
L 313.1176 271.085455 
L 316.9809 271.085455 
L 320.8442 271.085455 
L 324.7075 271.085455 
L 328.5708 271.085455 
L 332.4341 271.085455 
L 336.2974 271.085455 
L 340.1607 271.085455 
L 344.024 271.085455 
L 347.8873 271.085455 
L 351.7506 271.085455 
L 355.6139 271.085455 
L 359.4772 271.085455 
L 363.3405 271.085455 
L 367.2038 271.085455 
L 371.0671 271.085455 
L 374.9304 271.085455 
L 378.7937 271.085455 
L 382.657 271.085455 
L 386.5203 271.085455 
L 390.3836 271.085455 
L 394.2469 271.085455 
L 398.1102 271.085455 
L 401.9735 271.085455 
L 405.8368 271.085455 
L 409.7001 271.085455 
L 413.5634 271.085455 
L 417.4267 271.085455 
" clip-path="url(#pa2a3881fb1)" style="fill: none; stroke: #9e0142; stroke-width: 5; stroke-linecap: square"/>
   </g>
   <g id="line2d_6">
    <path d="M 34.96 243.54202 
L 38.8233 243.54202 
L 42.6866 243.54202 
L 46.5499 243.54202 
L 50.4132 243.54202 
L 54.2765 243.54202 
L 58.1398 243.54202 
L 62.0031 243.54202 
L 65.8664 243.54202 
L 69.7297 243.54202 
L 73.593 243.54202 
L 77.4563 243.54202 
L 81.3196 243.54202 
L 85.1829 243.54202 
L 89.0462 243.54202 
L 92.9095 243.54202 
L 96.7728 243.54202 
L 100.6361 243.54202 
L 104.4994 243.54202 
L 108.3627 243.54202 
L 112.226 243.54202 
L 116.0893 243.54202 
L 119.9526 243.54202 
L 123.8159 243.54202 
L 127.6792 243.54202 
L 131.5425 243.54202 
L 135.4058 243.54202 
L 139.2691 243.54202 
L 143.1324 243.54202 
L 146.9957 243.54202 
L 150.859 243.54202 
L 154.7223 243.54202 
L 158.5856 243.54202 
L 162.4489 243.54202 
L 166.3122 243.54202 
L 170.1755 243.54202 
L 174.0388 243.54202 
L 177.9021 243.54202 
L 181.7654 243.54202 
L 185.6287 243.54202 
L 189.492 243.54202 
L 193.3553 243.54202 
L 197.2186 243.54202 
L 201.0819 243.54202 
L 204.9452 243.54202 
L 208.8085 243.54202 
L 212.6718 243.54202 
L 216.5351 243.54202 
L 220.3984 243.54202 
L 224.2617 243.54202 
L 228.125 243.54202 
L 231.9883 243.54202 
L 235.8516 243.54202 
L 239.7149 243.54202 
L 243.5782 243.54202 
L 247.4415 243.54202 
L 251.3048 243.54202 
L 255.1681 243.54202 
L 259.0314 243.54202 
L 262.8947 243.54202 
L 266.758 243.54202 
L 270.6213 243.54202 
L 274.4846 243.54202 
L 278.3479 243.54202 
L 282.2112 243.54202 
L 286.0745 243.54202 
L 289.9378 243.54202 
L 293.8011 243.54202 
L 297.6644 243.54202 
L 301.5277 243.54202 
L 305.391 243.54202 
L 309.2543 243.54202 
L 313.1176 243.54202 
L 316.9809 243.54202 
L 320.8442 243.54202 
L 324.7075 243.54202 
L 328.5708 243.54202 
L 332.4341 243.54202 
L 336.2974 243.54202 
L 340.1607 243.54202 
L 344.024 243.54202 
L 347.8873 243.54202 
L 351.7506 243.54202 
L 355.6139 243.54202 
L 359.4772 243.54202 
L 363.3405 243.54202 
L 367.2038 243.54202 
L 371.0671 243.54202 
L 374.9304 243.54202 
L 378.7937 243.54202 
L 382.657 243.54202 
L 386.5203 243.54202 
L 390.3836 243.54202 
L 394.2469 243.54202 
L 398.1102 243.54202 
L 401.9735 243.54202 
L 405.8368 243.54202 
L 409.7001 243.54202 
L 413.5634 243.54202 
L 417.4267 243.54202 
" clip-path="url(#pa2a3881fb1)" style="fill: none; stroke: #d8434e; stroke-width: 5; stroke-linecap: square"/>
   </g>
   <g id="line2d_7">
    <path d="M 34.96 215.998586 
L 38.8233 215.998586 
L 42.6866 215.998586 
L 46.5499 215.998586 
L 50.4132 215.998586 
L 54.2765 215.998586 
L 58.1398 215.998586 
L 62.0031 215.998586 
L 65.8664 215.998586 
L 69.7297 215.998586 
L 73.593 215.998586 
L 77.4563 215.998586 
L 81.3196 215.998586 
L 85.1829 215.998586 
L 89.0462 215.998586 
L 92.9095 215.998586 
L 96.7728 215.998586 
L 100.6361 215.998586 
L 104.4994 215.998586 
L 108.3627 215.998586 
L 112.226 215.998586 
L 116.0893 215.998586 
L 119.9526 215.998586 
L 123.8159 215.998586 
L 127.6792 215.998586 
L 131.5425 215.998586 
L 135.4058 215.998586 
L 139.2691 215.998586 
L 143.1324 215.998586 
L 146.9957 215.998586 
L 150.859 215.998586 
L 154.7223 215.998586 
L 158.5856 215.998586 
L 162.4489 215.998586 
L 166.3122 215.998586 
L 170.1755 215.998586 
L 174.0388 215.998586 
L 177.9021 215.998586 
L 181.7654 215.998586 
L 185.6287 215.998586 
L 189.492 215.998586 
L 193.3553 215.998586 
L 197.2186 215.998586 
L 201.0819 215.998586 
L 204.9452 215.998586 
L 208.8085 215.998586 
L 212.6718 215.998586 
L 216.5351 215.998586 
L 220.3984 215.998586 
L 224.2617 215.998586 
L 228.125 215.998586 
L 231.9883 215.998586 
L 235.8516 215.998586 
L 239.7149 215.998586 
L 243.5782 215.998586 
L 247.4415 215.998586 
L 251.3048 215.998586 
L 255.1681 215.998586 
L 259.0314 215.998586 
L 262.8947 215.998586 
L 266.758 215.998586 
L 270.6213 215.998586 
L 274.4846 215.998586 
L 278.3479 215.998586 
L 282.2112 215.998586 
L 286.0745 215.998586 
L 289.9378 215.998586 
L 293.8011 215.998586 
L 297.6644 215.998586 
L 301.5277 215.998586 
L 305.391 215.998586 
L 309.2543 215.998586 
L 313.1176 215.998586 
L 316.9809 215.998586 
L 320.8442 215.998586 
L 324.7075 215.998586 
L 328.5708 215.998586 
L 332.4341 215.998586 
L 336.2974 215.998586 
L 340.1607 215.998586 
L 344.024 215.998586 
L 347.8873 215.998586 
L 351.7506 215.998586 
L 355.6139 215.998586 
L 359.4772 215.998586 
L 363.3405 215.998586 
L 367.2038 215.998586 
L 371.0671 215.998586 
L 374.9304 215.998586 
L 378.7937 215.998586 
L 382.657 215.998586 
L 386.5203 215.998586 
L 390.3836 215.998586 
L 394.2469 215.998586 
L 398.1102 215.998586 
L 401.9735 215.998586 
L 405.8368 215.998586 
L 409.7001 215.998586 
L 413.5634 215.998586 
L 417.4267 215.998586 
" clip-path="url(#pa2a3881fb1)" style="fill: none; stroke: #f67a49; stroke-width: 5; stroke-linecap: square"/>
   </g>
   <g id="line2d_8">
    <path d="M 34.96 188.455152 
L 38.8233 188.455152 
L 42.6866 188.455152 
L 46.5499 188.455152 
L 50.4132 188.455152 
L 54.2765 188.455152 
L 58.1398 188.455152 
L 62.0031 188.455152 
L 65.8664 188.455152 
L 69.7297 188.455152 
L 73.593 188.455152 
L 77.4563 188.455152 
L 81.3196 188.455152 
L 85.1829 188.455152 
L 89.0462 188.455152 
L 92.9095 188.455152 
L 96.7728 188.455152 
L 100.6361 188.455152 
L 104.4994 188.455152 
L 108.3627 188.455152 
L 112.226 188.455152 
L 116.0893 188.455152 
L 119.9526 188.455152 
L 123.8159 188.455152 
L 127.6792 188.455152 
L 131.5425 188.455152 
L 135.4058 188.455152 
L 139.2691 188.455152 
L 143.1324 188.455152 
L 146.9957 188.455152 
L 150.859 188.455152 
L 154.7223 188.455152 
L 158.5856 188.455152 
L 162.4489 188.455152 
L 166.3122 188.455152 
L 170.1755 188.455152 
L 174.0388 188.455152 
L 177.9021 188.455152 
L 181.7654 188.455152 
L 185.6287 188.455152 
L 189.492 188.455152 
L 193.3553 188.455152 
L 197.2186 188.455152 
L 201.0819 188.455152 
L 204.9452 188.455152 
L 208.8085 188.455152 
L 212.6718 188.455152 
L 216.5351 188.455152 
L 220.3984 188.455152 
L 224.2617 188.455152 
L 228.125 188.455152 
L 231.9883 188.455152 
L 235.8516 188.455152 
L 239.7149 188.455152 
L 243.5782 188.455152 
L 247.4415 188.455152 
L 251.3048 188.455152 
L 255.1681 188.455152 
L 259.0314 188.455152 
L 262.8947 188.455152 
L 266.758 188.455152 
L 270.6213 188.455152 
L 274.4846 188.455152 
L 278.3479 188.455152 
L 282.2112 188.455152 
L 286.0745 188.455152 
L 289.9378 188.455152 
L 293.8011 188.455152 
L 297.6644 188.455152 
L 301.5277 188.455152 
L 305.391 188.455152 
L 309.2543 188.455152 
L 313.1176 188.455152 
L 316.9809 188.455152 
L 320.8442 188.455152 
L 324.7075 188.455152 
L 328.5708 188.455152 
L 332.4341 188.455152 
L 336.2974 188.455152 
L 340.1607 188.455152 
L 344.024 188.455152 
L 347.8873 188.455152 
L 351.7506 188.455152 
L 355.6139 188.455152 
L 359.4772 188.455152 
L 363.3405 188.455152 
L 367.2038 188.455152 
L 371.0671 188.455152 
L 374.9304 188.455152 
L 378.7937 188.455152 
L 382.657 188.455152 
L 386.5203 188.455152 
L 390.3836 188.455152 
L 394.2469 188.455152 
L 398.1102 188.455152 
L 401.9735 188.455152 
L 405.8368 188.455152 
L 409.7001 188.455152 
L 413.5634 188.455152 
L 417.4267 188.455152 
" clip-path="url(#pa2a3881fb1)" style="fill: none; stroke: #fdbf6f; stroke-width: 5; stroke-linecap: square"/>
   </g>
   <g id="line2d_9">
    <path d="M 34.96 160.911717 
L 38.8233 160.911717 
L 42.6866 160.911717 
L 46.5499 160.911717 
L 50.4132 160.911717 
L 54.2765 160.911717 
L 58.1398 160.911717 
L 62.0031 160.911717 
L 65.8664 160.911717 
L 69.7297 160.911717 
L 73.593 160.911717 
L 77.4563 160.911717 
L 81.3196 160.911717 
L 85.1829 160.911717 
L 89.0462 160.911717 
L 92.9095 160.911717 
L 96.7728 160.911717 
L 100.6361 160.911717 
L 104.4994 160.911717 
L 108.3627 160.911717 
L 112.226 160.911717 
L 116.0893 160.911717 
L 119.9526 160.911717 
L 123.8159 160.911717 
L 127.6792 160.911717 
L 131.5425 160.911717 
L 135.4058 160.911717 
L 139.2691 160.911717 
L 143.1324 160.911717 
L 146.9957 160.911717 
L 150.859 160.911717 
L 154.7223 160.911717 
L 158.5856 160.911717 
L 162.4489 160.911717 
L 166.3122 160.911717 
L 170.1755 160.911717 
L 174.0388 160.911717 
L 177.9021 160.911717 
L 181.7654 160.911717 
L 185.6287 160.911717 
L 189.492 160.911717 
L 193.3553 160.911717 
L 197.2186 160.911717 
L 201.0819 160.911717 
L 204.9452 160.911717 
L 208.8085 160.911717 
L 212.6718 160.911717 
L 216.5351 160.911717 
L 220.3984 160.911717 
L 224.2617 160.911717 
L 228.125 160.911717 
L 231.9883 160.911717 
L 235.8516 160.911717 
L 239.7149 160.911717 
L 243.5782 160.911717 
L 247.4415 160.911717 
L 251.3048 160.911717 
L 255.1681 160.911717 
L 259.0314 160.911717 
L 262.8947 160.911717 
L 266.758 160.911717 
L 270.6213 160.911717 
L 274.4846 160.911717 
L 278.3479 160.911717 
L 282.2112 160.911717 
L 286.0745 160.911717 
L 289.9378 160.911717 
L 293.8011 160.911717 
L 297.6644 160.911717 
L 301.5277 160.911717 
L 305.391 160.911717 
L 309.2543 160.911717 
L 313.1176 160.911717 
L 316.9809 160.911717 
L 320.8442 160.911717 
L 324.7075 160.911717 
L 328.5708 160.911717 
L 332.4341 160.911717 
L 336.2974 160.911717 
L 340.1607 160.911717 
L 344.024 160.911717 
L 347.8873 160.911717 
L 351.7506 160.911717 
L 355.6139 160.911717 
L 359.4772 160.911717 
L 363.3405 160.911717 
L 367.2038 160.911717 
L 371.0671 160.911717 
L 374.9304 160.911717 
L 378.7937 160.911717 
L 382.657 160.911717 
L 386.5203 160.911717 
L 390.3836 160.911717 
L 394.2469 160.911717 
L 398.1102 160.911717 
L 401.9735 160.911717 
L 405.8368 160.911717 
L 409.7001 160.911717 
L 413.5634 160.911717 
L 417.4267 160.911717 
" clip-path="url(#pa2a3881fb1)" style="fill: none; stroke: #feeda1; stroke-width: 5; stroke-linecap: square"/>
   </g>
   <g id="line2d_10">
    <path d="M 34.96 133.368283 
L 38.8233 133.368283 
L 42.6866 133.368283 
L 46.5499 133.368283 
L 50.4132 133.368283 
L 54.2765 133.368283 
L 58.1398 133.368283 
L 62.0031 133.368283 
L 65.8664 133.368283 
L 69.7297 133.368283 
L 73.593 133.368283 
L 77.4563 133.368283 
L 81.3196 133.368283 
L 85.1829 133.368283 
L 89.0462 133.368283 
L 92.9095 133.368283 
L 96.7728 133.368283 
L 100.6361 133.368283 
L 104.4994 133.368283 
L 108.3627 133.368283 
L 112.226 133.368283 
L 116.0893 133.368283 
L 119.9526 133.368283 
L 123.8159 133.368283 
L 127.6792 133.368283 
L 131.5425 133.368283 
L 135.4058 133.368283 
L 139.2691 133.368283 
L 143.1324 133.368283 
L 146.9957 133.368283 
L 150.859 133.368283 
L 154.7223 133.368283 
L 158.5856 133.368283 
L 162.4489 133.368283 
L 166.3122 133.368283 
L 170.1755 133.368283 
L 174.0388 133.368283 
L 177.9021 133.368283 
L 181.7654 133.368283 
L 185.6287 133.368283 
L 189.492 133.368283 
L 193.3553 133.368283 
L 197.2186 133.368283 
L 201.0819 133.368283 
L 204.9452 133.368283 
L 208.8085 133.368283 
L 212.6718 133.368283 
L 216.5351 133.368283 
L 220.3984 133.368283 
L 224.2617 133.368283 
L 228.125 133.368283 
L 231.9883 133.368283 
L 235.8516 133.368283 
L 239.7149 133.368283 
L 243.5782 133.368283 
L 247.4415 133.368283 
L 251.3048 133.368283 
L 255.1681 133.368283 
L 259.0314 133.368283 
L 262.8947 133.368283 
L 266.758 133.368283 
L 270.6213 133.368283 
L 274.4846 133.368283 
L 278.3479 133.368283 
L 282.2112 133.368283 
L 286.0745 133.368283 
L 289.9378 133.368283 
L 293.8011 133.368283 
L 297.6644 133.368283 
L 301.5277 133.368283 
L 305.391 133.368283 
L 309.2543 133.368283 
L 313.1176 133.368283 
L 316.9809 133.368283 
L 320.8442 133.368283 
L 324.7075 133.368283 
L 328.5708 133.368283 
L 332.4341 133.368283 
L 336.2974 133.368283 
L 340.1607 133.368283 
L 344.024 133.368283 
L 347.8873 133.368283 
L 351.7506 133.368283 
L 355.6139 133.368283 
L 359.4772 133.368283 
L 363.3405 133.368283 
L 367.2038 133.368283 
L 371.0671 133.368283 
L 374.9304 133.368283 
L 378.7937 133.368283 
L 382.657 133.368283 
L 386.5203 133.368283 
L 390.3836 133.368283 
L 394.2469 133.368283 
L 398.1102 133.368283 
L 401.9735 133.368283 
L 405.8368 133.368283 
L 409.7001 133.368283 
L 413.5634 133.368283 
L 417.4267 133.368283 
" clip-path="url(#pa2a3881fb1)" style="fill: none; stroke: #f1f9a9; stroke-width: 5; stroke-linecap: square"/>
   </g>
   <g id="line2d_11">
    <path d="M 34.96 105.824848 
L 38.8233 105.824848 
L 42.6866 105.824848 
L 46.5499 105.824848 
L 50.4132 105.824848 
L 54.2765 105.824848 
L 58.1398 105.824848 
L 62.0031 105.824848 
L 65.8664 105.824848 
L 69.7297 105.824848 
L 73.593 105.824848 
L 77.4563 105.824848 
L 81.3196 105.824848 
L 85.1829 105.824848 
L 89.0462 105.824848 
L 92.9095 105.824848 
L 96.7728 105.824848 
L 100.6361 105.824848 
L 104.4994 105.824848 
L 108.3627 105.824848 
L 112.226 105.824848 
L 116.0893 105.824848 
L 119.9526 105.824848 
L 123.8159 105.824848 
L 127.6792 105.824848 
L 131.5425 105.824848 
L 135.4058 105.824848 
L 139.2691 105.824848 
L 143.1324 105.824848 
L 146.9957 105.824848 
L 150.859 105.824848 
L 154.7223 105.824848 
L 158.5856 105.824848 
L 162.4489 105.824848 
L 166.3122 105.824848 
L 170.1755 105.824848 
L 174.0388 105.824848 
L 177.9021 105.824848 
L 181.7654 105.824848 
L 185.6287 105.824848 
L 189.492 105.824848 
L 193.3553 105.824848 
L 197.2186 105.824848 
L 201.0819 105.824848 
L 204.9452 105.824848 
L 208.8085 105.824848 
L 212.6718 105.824848 
L 216.5351 105.824848 
L 220.3984 105.824848 
L 224.2617 105.824848 
L 228.125 105.824848 
L 231.9883 105.824848 
L 235.8516 105.824848 
L 239.7149 105.824848 
L 243.5782 105.824848 
L 247.4415 105.824848 
L 251.3048 105.824848 
L 255.1681 105.824848 
L 259.0314 105.824848 
L 262.8947 105.824848 
L 266.758 105.824848 
L 270.6213 105.824848 
L 274.4846 105.824848 
L 278.3479 105.824848 
L 282.2112 105.824848 
L 286.0745 105.824848 
L 289.9378 105.824848 
L 293.8011 105.824848 
L 297.6644 105.824848 
L 301.5277 105.824848 
L 305.391 105.824848 
L 309.2543 105.824848 
L 313.1176 105.824848 
L 316.9809 105.824848 
L 320.8442 105.824848 
L 324.7075 105.824848 
L 328.5708 105.824848 
L 332.4341 105.824848 
L 336.2974 105.824848 
L 340.1607 105.824848 
L 344.024 105.824848 
L 347.8873 105.824848 
L 351.7506 105.824848 
L 355.6139 105.824848 
L 359.4772 105.824848 
L 363.3405 105.824848 
L 367.2038 105.824848 
L 371.0671 105.824848 
L 374.9304 105.824848 
L 378.7937 105.824848 
L 382.657 105.824848 
L 386.5203 105.824848 
L 390.3836 105.824848 
L 394.2469 105.824848 
L 398.1102 105.824848 
L 401.9735 105.824848 
L 405.8368 105.824848 
L 409.7001 105.824848 
L 413.5634 105.824848 
L 417.4267 105.824848 
" clip-path="url(#pa2a3881fb1)" style="fill: none; stroke: #bfe5a0; stroke-width: 5; stroke-linecap: square"/>
   </g>
   <g id="line2d_12">
    <path d="M 34.96 78.281414 
L 38.8233 78.281414 
L 42.6866 78.281414 
L 46.5499 78.281414 
L 50.4132 78.281414 
L 54.2765 78.281414 
L 58.1398 78.281414 
L 62.0031 78.281414 
L 65.8664 78.281414 
L 69.7297 78.281414 
L 73.593 78.281414 
L 77.4563 78.281414 
L 81.3196 78.281414 
L 85.1829 78.281414 
L 89.0462 78.281414 
L 92.9095 78.281414 
L 96.7728 78.281414 
L 100.6361 78.281414 
L 104.4994 78.281414 
L 108.3627 78.281414 
L 112.226 78.281414 
L 116.0893 78.281414 
L 119.9526 78.281414 
L 123.8159 78.281414 
L 127.6792 78.281414 
L 131.5425 78.281414 
L 135.4058 78.281414 
L 139.2691 78.281414 
L 143.1324 78.281414 
L 146.9957 78.281414 
L 150.859 78.281414 
L 154.7223 78.281414 
L 158.5856 78.281414 
L 162.4489 78.281414 
L 166.3122 78.281414 
L 170.1755 78.281414 
L 174.0388 78.281414 
L 177.9021 78.281414 
L 181.7654 78.281414 
L 185.6287 78.281414 
L 189.492 78.281414 
L 193.3553 78.281414 
L 197.2186 78.281414 
L 201.0819 78.281414 
L 204.9452 78.281414 
L 208.8085 78.281414 
L 212.6718 78.281414 
L 216.5351 78.281414 
L 220.3984 78.281414 
L 224.2617 78.281414 
L 228.125 78.281414 
L 231.9883 78.281414 
L 235.8516 78.281414 
L 239.7149 78.281414 
L 243.5782 78.281414 
L 247.4415 78.281414 
L 251.3048 78.281414 
L 255.1681 78.281414 
L 259.0314 78.281414 
L 262.8947 78.281414 
L 266.758 78.281414 
L 270.6213 78.281414 
L 274.4846 78.281414 
L 278.3479 78.281414 
L 282.2112 78.281414 
L 286.0745 78.281414 
L 289.9378 78.281414 
L 293.8011 78.281414 
L 297.6644 78.281414 
L 301.5277 78.281414 
L 305.391 78.281414 
L 309.2543 78.281414 
L 313.1176 78.281414 
L 316.9809 78.281414 
L 320.8442 78.281414 
L 324.7075 78.281414 
L 328.5708 78.281414 
L 332.4341 78.281414 
L 336.2974 78.281414 
L 340.1607 78.281414 
L 344.024 78.281414 
L 347.8873 78.281414 
L 351.7506 78.281414 
L 355.6139 78.281414 
L 359.4772 78.281414 
L 363.3405 78.281414 
L 367.2038 78.281414 
L 371.0671 78.281414 
L 374.9304 78.281414 
L 378.7937 78.281414 
L 382.657 78.281414 
L 386.5203 78.281414 
L 390.3836 78.281414 
L 394.2469 78.281414 
L 398.1102 78.281414 
L 401.9735 78.281414 
L 405.8368 78.281414 
L 409.7001 78.281414 
L 413.5634 78.281414 
L 417.4267 78.281414 
" clip-path="url(#pa2a3881fb1)" style="fill: none; stroke: #74c7a5; stroke-width: 5; stroke-linecap: square"/>
   </g>
   <g id="line2d_13">
    <path d="M 34.96 50.73798 
L 38.8233 50.73798 
L 42.6866 50.73798 
L 46.5499 50.73798 
L 50.4132 50.73798 
L 54.2765 50.73798 
L 58.1398 50.73798 
L 62.0031 50.73798 
L 65.8664 50.73798 
L 69.7297 50.73798 
L 73.593 50.73798 
L 77.4563 50.73798 
L 81.3196 50.73798 
L 85.1829 50.73798 
L 89.0462 50.73798 
L 92.9095 50.73798 
L 96.7728 50.73798 
L 100.6361 50.73798 
L 104.4994 50.73798 
L 108.3627 50.73798 
L 112.226 50.73798 
L 116.0893 50.73798 
L 119.9526 50.73798 
L 123.8159 50.73798 
L 127.6792 50.73798 
L 131.5425 50.73798 
L 135.4058 50.73798 
L 139.2691 50.73798 
L 143.1324 50.73798 
L 146.9957 50.73798 
L 150.859 50.73798 
L 154.7223 50.73798 
L 158.5856 50.73798 
L 162.4489 50.73798 
L 166.3122 50.73798 
L 170.1755 50.73798 
L 174.0388 50.73798 
L 177.9021 50.73798 
L 181.7654 50.73798 
L 185.6287 50.73798 
L 189.492 50.73798 
L 193.3553 50.73798 
L 197.2186 50.73798 
L 201.0819 50.73798 
L 204.9452 50.73798 
L 208.8085 50.73798 
L 212.6718 50.73798 
L 216.5351 50.73798 
L 220.3984 50.73798 
L 224.2617 50.73798 
L 228.125 50.73798 
L 231.9883 50.73798 
L 235.8516 50.73798 
L 239.7149 50.73798 
L 243.5782 50.73798 
L 247.4415 50.73798 
L 251.3048 50.73798 
L 255.1681 50.73798 
L 259.0314 50.73798 
L 262.8947 50.73798 
L 266.758 50.73798 
L 270.6213 50.73798 
L 274.4846 50.73798 
L 278.3479 50.73798 
L 282.2112 50.73798 
L 286.0745 50.73798 
L 289.9378 50.73798 
L 293.8011 50.73798 
L 297.6644 50.73798 
L 301.5277 50.73798 
L 305.391 50.73798 
L 309.2543 50.73798 
L 313.1176 50.73798 
L 316.9809 50.73798 
L 320.8442 50.73798 
L 324.7075 50.73798 
L 328.5708 50.73798 
L 332.4341 50.73798 
L 336.2974 50.73798 
L 340.1607 50.73798 
L 344.024 50.73798 
L 347.8873 50.73798 
L 351.7506 50.73798 
L 355.6139 50.73798 
L 359.4772 50.73798 
L 363.3405 50.73798 
L 367.2038 50.73798 
L 371.0671 50.73798 
L 374.9304 50.73798 
L 378.7937 50.73798 
L 382.657 50.73798 
L 386.5203 50.73798 
L 390.3836 50.73798 
L 394.2469 50.73798 
L 398.1102 50.73798 
L 401.9735 50.73798 
L 405.8368 50.73798 
L 409.7001 50.73798 
L 413.5634 50.73798 
L 417.4267 50.73798 
" clip-path="url(#pa2a3881fb1)" style="fill: none; stroke: #378ebb; stroke-width: 5; stroke-linecap: square"/>
   </g>
   <g id="line2d_14">
    <path d="M 34.96 23.194545 
L 38.8233 23.194545 
L 42.6866 23.194545 
L 46.5499 23.194545 
L 50.4132 23.194545 
L 54.2765 23.194545 
L 58.1398 23.194545 
L 62.0031 23.194545 
L 65.8664 23.194545 
L 69.7297 23.194545 
L 73.593 23.194545 
L 77.4563 23.194545 
L 81.3196 23.194545 
L 85.1829 23.194545 
L 89.0462 23.194545 
L 92.9095 23.194545 
L 96.7728 23.194545 
L 100.6361 23.194545 
L 104.4994 23.194545 
L 108.3627 23.194545 
L 112.226 23.194545 
L 116.0893 23.194545 
L 119.9526 23.194545 
L 123.8159 23.194545 
L 127.6792 23.194545 
L 131.5425 23.194545 
L 135.4058 23.194545 
L 139.2691 23.194545 
L 143.1324 23.194545 
L 146.9957 23.194545 
L 150.859 23.194545 
L 154.7223 23.194545 
L 158.5856 23.194545 
L 162.4489 23.194545 
L 166.3122 23.194545 
L 170.1755 23.194545 
L 174.0388 23.194545 
L 177.9021 23.194545 
L 181.7654 23.194545 
L 185.6287 23.194545 
L 189.492 23.194545 
L 193.3553 23.194545 
L 197.2186 23.194545 
L 201.0819 23.194545 
L 204.9452 23.194545 
L 208.8085 23.194545 
L 212.6718 23.194545 
L 216.5351 23.194545 
L 220.3984 23.194545 
L 224.2617 23.194545 
L 228.125 23.194545 
L 231.9883 23.194545 
L 235.8516 23.194545 
L 239.7149 23.194545 
L 243.5782 23.194545 
L 247.4415 23.194545 
L 251.3048 23.194545 
L 255.1681 23.194545 
L 259.0314 23.194545 
L 262.8947 23.194545 
L 266.758 23.194545 
L 270.6213 23.194545 
L 274.4846 23.194545 
L 278.3479 23.194545 
L 282.2112 23.194545 
L 286.0745 23.194545 
L 289.9378 23.194545 
L 293.8011 23.194545 
L 297.6644 23.194545 
L 301.5277 23.194545 
L 305.391 23.194545 
L 309.2543 23.194545 
L 313.1176 23.194545 
L 316.9809 23.194545 
L 320.8442 23.194545 
L 324.7075 23.194545 
L 328.5708 23.194545 
L 332.4341 23.194545 
L 336.2974 23.194545 
L 340.1607 23.194545 
L 344.024 23.194545 
L 347.8873 23.194545 
L 351.7506 23.194545 
L 355.6139 23.194545 
L 359.4772 23.194545 
L 363.3405 23.194545 
L 367.2038 23.194545 
L 371.0671 23.194545 
L 374.9304 23.194545 
L 378.7937 23.194545 
L 382.657 23.194545 
L 386.5203 23.194545 
L 390.3836 23.194545 
L 394.2469 23.194545 
L 398.1102 23.194545 
L 401.9735 23.194545 
L 405.8368 23.194545 
L 409.7001 23.194545 
L 413.5634 23.194545 
L 417.4267 23.194545 
" clip-path="url(#pa2a3881fb1)" style="fill: none; stroke: #5e4fa2; stroke-width: 5; stroke-linecap: square"/>
   </g>
   <g id="patch_3">
    <path d="M 34.96 283.48 
L 34.96 10.8 
" style="fill: none; stroke: #000000; stroke-width: 3; stroke-linejoin: miter; stroke-linecap: square"/>
   </g>
   <g id="patch_4">
    <path d="M 34.96 283.48 
L 421.29 283.48 
" style="fill: none; stroke: #000000; stroke-width: 3; stroke-linejoin: miter; stroke-linecap: square"/>
   </g>
  </g>
 </g>
 <defs>
  <clipPath id="pa2a3881fb1">
   <rect x="34.96" y="10.8" width="386.33" height="272.68"/>
  </clipPath>
 </defs>
</svg>
