<?xml version="1.0" encoding="utf-8" standalone="no"?>
<!DOCTYPE svg PUBLIC "-//W3C//DTD SVG 1.1//EN"
  "http://www.w3.org/Graphics/SVG/1.1/DTD/svg11.dtd">
<svg height="345.6pt" version="1.1" viewBox="0 0 345.6 345.6" width="345.6pt" xmlns="http://www.w3.org/2000/svg" xmlns:xlink="http://www.w3.org/1999/xlink">
 <metadata>
  <rdf:RDF xmlns:cc="http://creativecommons.org/ns#" xmlns:dc="http://purl.org/dc/elements/1.1/" xmlns:rdf="http://www.w3.org/1999/02/22-rdf-syntax-ns#">
   <cc:Work>
    <dc:type rdf:resource="http://purl.org/dc/dcmitype/StillImage"/>
    <dc:date>2022-08-08T15:19:54.525177</dc:date>
    <dc:format>image/svg+xml</dc:format>
    <dc:creator>
     <cc:Agent>
      <dc:title>Matplotlib v3.4.2, https://matplotlib.org/</dc:title>
     </cc:Agent>
    </dc:creator>
   </cc:Work>
  </rdf:RDF>
 </metadata>
 <defs>
  <style type="text/css">*{stroke-linecap:butt;stroke-linejoin:round;}</style>
 </defs>
 <g id="figure_1">
  <g id="patch_1">
   <path d="M 0 345.6 
L 345.6 345.6 
L 345.6 0 
L 0 0 
z
" style="fill:#ffffff;"/>
  </g>
  <g id="axes_1">
   <g id="patch_2">
    <path d="M 35.3 310.64 
L 334.8 310.64 
L 334.8 10.8 
L 35.3 10.8 
z
" style="fill:#ffffff;"/>
   </g>
   <g id="patch_3">
    <path clip-path="url(#p47ee32610b)" d="M 5.35 160.72 
L 20.325 175.712 
L 20.325 160.712504 
L 35.3 160.712504 
L 35.3 160.727496 
L 20.325 160.727496 
L 20.325 145.728 
z
" style="stroke:#000000;stroke-linejoin:miter;"/>
   </g>
   <g id="patch_4">
    <path clip-path="url(#p47ee32610b)" d="M 35.3 160.72 
L 50.275 172.7136 
L 50.275 160.712504 
L 65.25 160.712504 
L 65.25 160.727496 
L 50.275 160.727496 
L 50.275 148.7264 
z
" style="stroke:#000000;stroke-linejoin:miter;"/>
   </g>
   <g id="patch_5">
    <path clip-path="url(#p47ee32610b)" d="M 65.25 160.72 
L 80.225 169.7152 
L 80.225 160.712504 
L 95.2 160.712504 
L 95.2 160.727496 
L 80.225 160.727496 
L 80.225 151.7248 
z
" style="stroke:#000000;stroke-linejoin:miter;"/>
   </g>
   <g id="patch_6">
    <path clip-path="url(#p47ee32610b)" d="M 95.2 160.72 
L 110.175 166.7168 
L 110.175 160.712504 
L 125.15 160.712504 
L 125.15 160.727496 
L 110.175 160.727496 
L 110.175 154.7232 
z
" style="stroke:#000000;stroke-linejoin:miter;"/>
   </g>
   <g id="patch_7">
    <path clip-path="url(#p47ee32610b)" d="M 125.15 160.72 
L 140.125 163.7184 
L 140.125 160.712504 
L 155.1 160.712504 
L 155.1 160.727496 
L 140.125 160.727496 
L 140.125 157.7216 
z
" style="stroke:#000000;stroke-linejoin:miter;"/>
   </g>
   <g id="patch_8">
    <path clip-path="url(#p47ee32610b)" d="M 185.05 145.728 
L 185.05 160.72 
L 185.057487 160.72 
L 185.057487 160.72 
L 185.042512 160.72 
L 185.042512 160.72 
L 185.05 160.72 
z
" style="stroke:#000000;stroke-linejoin:miter;"/>
   </g>
   <g id="patch_9">
    <path clip-path="url(#p47ee32610b)" d="M 244.95 160.72 
L 229.975 163.7184 
L 229.975 160.727496 
L 215 160.727496 
L 215 160.712504 
L 229.975 160.712504 
L 229.975 157.7216 
z
" style="stroke:#000000;stroke-linejoin:miter;"/>
   </g>
   <g id="patch_10">
    <path clip-path="url(#p47ee32610b)" d="M 274.9 160.72 
L 259.925 166.7168 
L 259.925 160.727496 
L 244.95 160.727496 
L 244.95 160.712504 
L 259.925 160.712504 
L 259.925 154.7232 
z
" style="stroke:#000000;stroke-linejoin:miter;"/>
   </g>
   <g id="patch_11">
    <path clip-path="url(#p47ee32610b)" d="M 304.85 160.72 
L 289.875 169.7152 
L 289.875 160.727496 
L 274.9 160.727496 
L 274.9 160.712504 
L 289.875 160.712504 
L 289.875 151.7248 
z
" style="stroke:#000000;stroke-linejoin:miter;"/>
   </g>
   <g id="patch_12">
    <path clip-path="url(#p47ee32610b)" d="M 334.8 160.72 
L 319.825 172.7136 
L 319.825 160.727496 
L 304.85 160.727496 
L 304.85 160.712504 
L 319.825 160.712504 
L 319.825 148.7264 
z
" style="stroke:#000000;stroke-linejoin:miter;"/>
   </g>
   <g id="patch_13">
    <path clip-path="url(#p47ee32610b)" d="M 364.75 160.72 
L 349.775 175.712 
L 349.775 160.727496 
L 334.8 160.727496 
L 334.8 160.712504 
L 349.775 160.712504 
L 349.775 145.728 
z
" style="stroke:#000000;stroke-linejoin:miter;"/>
   </g>
   <g id="matplotlib.axis_1">
    <g id="text_1">
     <!-- $x$ -->
     <g transform="translate(179.05 329.836875)scale(0.2 -0.2)">
      <defs>
       <path d="M 3841 3500 
L 2234 1784 
L 3219 0 
L 2559 0 
L 1819 1388 
L 531 0 
L -166 0 
L 1556 1844 
L 641 3500 
L 1300 3500 
L 1972 2234 
L 3144 3500 
L 3841 3500 
z
" id="DejaVuSans-Oblique-78" transform="scale(0.015625)"/>
      </defs>
      <use transform="translate(0 0.3125)" xlink:href="#DejaVuSans-Oblique-78"/>
     </g>
    </g>
   </g>
   <g id="matplotlib.axis_2">
    <g id="text_2">
     <!-- $\dot{x}$ -->
     <g transform="translate(27.140625 166.72)rotate(-90)scale(0.2 -0.2)">
      <defs>
       <path d="M -1894 4863 
L -1319 4863 
L -1319 4134 
L -1894 4134 
L -1894 4863 
z
M -1600 3584 
L -1600 3584 
z
" id="DejaVuSans-307" transform="scale(0.015625)"/>
      </defs>
      <use transform="translate(62.388672 12.015625)" xlink:href="#DejaVuSans-307"/>
      <use transform="translate(0 0.828125)" xlink:href="#DejaVuSans-Oblique-78"/>
     </g>
    </g>
   </g>
   <g id="line2d_1">
    <path clip-path="url(#p47ee32610b)" d="M 185.05 310.64 
L 185.05 10.8 
" style="fill:none;stroke:#000000;stroke-linecap:square;stroke-width:3;"/>
   </g>
   <g id="line2d_2">
    <path clip-path="url(#p47ee32610b)" d="M 35.3 160.72 
L 334.8 160.72 
" style="fill:none;stroke:#000000;stroke-linecap:square;stroke-width:3;"/>
   </g>
   <g id="line2d_3">
    <path clip-path="url(#p47ee32610b)" d="M 35.3 310.64 
L 65.25 280.656 
L 95.2 250.672 
L 125.15 220.688 
L 155.1 190.704 
L 185.05 160.72 
L 215 130.736 
L 244.95 100.752 
L 274.9 70.768 
L 304.85 40.784 
L 334.8 10.8 
" style="fill:none;stroke:#000000;stroke-linecap:square;stroke-width:5;"/>
   </g>
  </g>
 </g>
 <defs>
  <clipPath id="p47ee32610b">
   <rect height="299.84" width="299.5" x="35.3" y="10.8"/>
  </clipPath>
 </defs>
</svg>
