<?xml version="1.0" encoding="utf-8" standalone="no"?>
<!DOCTYPE svg PUBLIC "-//W3C//DTD SVG 1.1//EN"
  "http://www.w3.org/Graphics/SVG/1.1/DTD/svg11.dtd">
<svg height="345.6pt" version="1.1" viewBox="0 0 460.8 345.6" width="460.8pt" xmlns="http://www.w3.org/2000/svg" xmlns:xlink="http://www.w3.org/1999/xlink">
 <metadata>
  <rdf:RDF xmlns:cc="http://creativecommons.org/ns#" xmlns:dc="http://purl.org/dc/elements/1.1/" xmlns:rdf="http://www.w3.org/1999/02/22-rdf-syntax-ns#">
   <cc:Work>
    <dc:type rdf:resource="http://purl.org/dc/dcmitype/StillImage"/>
    <dc:date>2022-08-08T16:14:35.319257</dc:date>
    <dc:format>image/svg+xml</dc:format>
    <dc:creator>
     <cc:Agent>
      <dc:title>Matplotlib v3.4.2, https://matplotlib.org/</dc:title>
     </cc:Agent>
    </dc:creator>
   </cc:Work>
  </rdf:RDF>
 </metadata>
 <defs>
  <style type="text/css">*{stroke-linecap:butt;stroke-linejoin:round;}</style>
 </defs>
 <g id="figure_1">
  <g id="patch_1">
   <path d="M 0 345.6 
L 460.8 345.6 
L 460.8 0 
L 0 0 
z
" style="fill:#ffffff;"/>
  </g>
  <g id="axes_1">
   <g id="patch_2">
    <path d="M 34.96 283.48 
L 421.29 283.48 
L 421.29 10.8 
L 34.96 10.8 
z
" style="fill:#ffffff;"/>
   </g>
   <g id="matplotlib.axis_1">
    <g id="xtick_1">
     <g id="line2d_1">
      <defs>
       <path d="M 0 0 
L 0 3.5 
" id="mb712af5a7f" style="stroke:#000000;stroke-width:0.8;"/>
      </defs>
      <g>
       <use style="stroke:#000000;stroke-width:0.8;" x="34.96" xlink:href="#mb712af5a7f" y="283.48"/>
      </g>
     </g>
     <g id="text_1">
      <!-- 0.0 -->
      <g transform="translate(19.056875 305.676875)scale(0.2 -0.2)">
       <defs>
        <path d="M 2034 4250 
Q 1547 4250 1301 3770 
Q 1056 3291 1056 2328 
Q 1056 1369 1301 889 
Q 1547 409 2034 409 
Q 2525 409 2770 889 
Q 3016 1369 3016 2328 
Q 3016 3291 2770 3770 
Q 2525 4250 2034 4250 
z
M 2034 4750 
Q 2819 4750 3233 4129 
Q 3647 3509 3647 2328 
Q 3647 1150 3233 529 
Q 2819 -91 2034 -91 
Q 1250 -91 836 529 
Q 422 1150 422 2328 
Q 422 3509 836 4129 
Q 1250 4750 2034 4750 
z
" id="DejaVuSans-30" transform="scale(0.015625)"/>
        <path d="M 684 794 
L 1344 794 
L 1344 0 
L 684 0 
L 684 794 
z
" id="DejaVuSans-2e" transform="scale(0.015625)"/>
       </defs>
       <use xlink:href="#DejaVuSans-30"/>
       <use x="63.623047" xlink:href="#DejaVuSans-2e"/>
       <use x="95.410156" xlink:href="#DejaVuSans-30"/>
      </g>
     </g>
    </g>
    <g id="xtick_2">
     <g id="line2d_2">
      <g>
       <use style="stroke:#000000;stroke-width:0.8;" x="163.736667" xlink:href="#mb712af5a7f" y="283.48"/>
      </g>
     </g>
     <g id="text_2">
      <!-- 33.0 -->
      <g transform="translate(141.471042 305.676875)scale(0.2 -0.2)">
       <defs>
        <path d="M 2597 2516 
Q 3050 2419 3304 2112 
Q 3559 1806 3559 1356 
Q 3559 666 3084 287 
Q 2609 -91 1734 -91 
Q 1441 -91 1130 -33 
Q 819 25 488 141 
L 488 750 
Q 750 597 1062 519 
Q 1375 441 1716 441 
Q 2309 441 2620 675 
Q 2931 909 2931 1356 
Q 2931 1769 2642 2001 
Q 2353 2234 1838 2234 
L 1294 2234 
L 1294 2753 
L 1863 2753 
Q 2328 2753 2575 2939 
Q 2822 3125 2822 3475 
Q 2822 3834 2567 4026 
Q 2313 4219 1838 4219 
Q 1578 4219 1281 4162 
Q 984 4106 628 3988 
L 628 4550 
Q 988 4650 1302 4700 
Q 1616 4750 1894 4750 
Q 2613 4750 3031 4423 
Q 3450 4097 3450 3541 
Q 3450 3153 3228 2886 
Q 3006 2619 2597 2516 
z
" id="DejaVuSans-33" transform="scale(0.015625)"/>
       </defs>
       <use xlink:href="#DejaVuSans-33"/>
       <use x="63.623047" xlink:href="#DejaVuSans-33"/>
       <use x="127.246094" xlink:href="#DejaVuSans-2e"/>
       <use x="159.033203" xlink:href="#DejaVuSans-30"/>
      </g>
     </g>
    </g>
    <g id="xtick_3">
     <g id="line2d_3">
      <g>
       <use style="stroke:#000000;stroke-width:0.8;" x="292.513333" xlink:href="#mb712af5a7f" y="283.48"/>
      </g>
     </g>
     <g id="text_3">
      <!-- 67.0 -->
      <g transform="translate(270.247708 305.676875)scale(0.2 -0.2)">
       <defs>
        <path d="M 2113 2584 
Q 1688 2584 1439 2293 
Q 1191 2003 1191 1497 
Q 1191 994 1439 701 
Q 1688 409 2113 409 
Q 2538 409 2786 701 
Q 3034 994 3034 1497 
Q 3034 2003 2786 2293 
Q 2538 2584 2113 2584 
z
M 3366 4563 
L 3366 3988 
Q 3128 4100 2886 4159 
Q 2644 4219 2406 4219 
Q 1781 4219 1451 3797 
Q 1122 3375 1075 2522 
Q 1259 2794 1537 2939 
Q 1816 3084 2150 3084 
Q 2853 3084 3261 2657 
Q 3669 2231 3669 1497 
Q 3669 778 3244 343 
Q 2819 -91 2113 -91 
Q 1303 -91 875 529 
Q 447 1150 447 2328 
Q 447 3434 972 4092 
Q 1497 4750 2381 4750 
Q 2619 4750 2861 4703 
Q 3103 4656 3366 4563 
z
" id="DejaVuSans-36" transform="scale(0.015625)"/>
        <path d="M 525 4666 
L 3525 4666 
L 3525 4397 
L 1831 0 
L 1172 0 
L 2766 4134 
L 525 4134 
L 525 4666 
z
" id="DejaVuSans-37" transform="scale(0.015625)"/>
       </defs>
       <use xlink:href="#DejaVuSans-36"/>
       <use x="63.623047" xlink:href="#DejaVuSans-37"/>
       <use x="127.246094" xlink:href="#DejaVuSans-2e"/>
       <use x="159.033203" xlink:href="#DejaVuSans-30"/>
      </g>
     </g>
    </g>
    <g id="xtick_4">
     <g id="line2d_4">
      <g>
       <use style="stroke:#000000;stroke-width:0.8;" x="421.29" xlink:href="#mb712af5a7f" y="283.48"/>
      </g>
     </g>
     <g id="text_4">
      <!-- 100.0 -->
      <g transform="translate(392.661875 305.676875)scale(0.2 -0.2)">
       <defs>
        <path d="M 794 531 
L 1825 531 
L 1825 4091 
L 703 3866 
L 703 4441 
L 1819 4666 
L 2450 4666 
L 2450 531 
L 3481 531 
L 3481 0 
L 794 0 
L 794 531 
z
" id="DejaVuSans-31" transform="scale(0.015625)"/>
       </defs>
       <use xlink:href="#DejaVuSans-31"/>
       <use x="63.623047" xlink:href="#DejaVuSans-30"/>
       <use x="127.246094" xlink:href="#DejaVuSans-30"/>
       <use x="190.869141" xlink:href="#DejaVuSans-2e"/>
       <use x="222.65625" xlink:href="#DejaVuSans-30"/>
      </g>
     </g>
    </g>
    <g id="text_5">
     <!-- $T$ -->
     <g transform="translate(221.925 329.033125)scale(0.2 -0.2)">
      <defs>
       <path d="M 378 4666 
L 4325 4666 
L 4225 4134 
L 2559 4134 
L 1759 0 
L 1125 0 
L 1925 4134 
L 275 4134 
L 378 4666 
z
" id="DejaVuSans-Oblique-54" transform="scale(0.015625)"/>
      </defs>
      <use transform="translate(0 0.09375)" xlink:href="#DejaVuSans-Oblique-54"/>
     </g>
    </g>
   </g>
   <g id="matplotlib.axis_2">
    <g id="text_6">
     <!-- $x$ -->
     <g transform="translate(26.800625 153.14)rotate(-90)scale(0.2 -0.2)">
      <defs>
       <path d="M 3841 3500 
L 2234 1784 
L 3219 0 
L 2559 0 
L 1819 1388 
L 531 0 
L -166 0 
L 1556 1844 
L 641 3500 
L 1300 3500 
L 1972 2234 
L 3144 3500 
L 3841 3500 
z
" id="DejaVuSans-Oblique-78" transform="scale(0.015625)"/>
      </defs>
      <use transform="translate(0 0.3125)" xlink:href="#DejaVuSans-Oblique-78"/>
     </g>
    </g>
   </g>
   <g id="line2d_5">
    <path clip-path="url(#pa8246c0029)" d="M 34.96 271.085455 
L 38.8233 271.085455 
L 42.6866 271.085455 
L 46.5499 271.085455 
L 50.4132 271.085455 
L 54.2765 271.085455 
L 58.1398 271.085455 
L 62.0031 271.085455 
L 65.8664 271.085455 
L 69.7297 271.085455 
L 73.593 271.085455 
L 77.4563 271.085455 
L 81.3196 271.085455 
L 85.1829 271.085455 
L 89.0462 271.085455 
L 92.9095 271.085455 
L 96.7728 271.085455 
L 100.6361 271.085455 
L 104.4994 271.085455 
L 108.3627 271.085455 
L 112.226 271.085455 
L 116.0893 271.085455 
L 119.9526 271.085455 
L 123.8159 271.085455 
L 127.6792 271.085455 
L 131.5425 271.085455 
L 135.4058 271.085455 
L 139.2691 271.085455 
L 143.1324 271.085455 
L 146.9957 271.085455 
L 150.859 271.085455 
L 154.7223 271.085455 
L 158.5856 271.085455 
L 162.4489 271.085455 
L 166.3122 271.085455 
L 170.1755 271.085455 
L 174.0388 271.085455 
L 177.9021 271.085455 
L 181.7654 271.085455 
L 185.6287 271.085455 
L 189.492 271.085455 
L 193.3553 271.085455 
L 197.2186 271.085455 
L 201.0819 271.085455 
L 204.9452 271.085455 
L 208.8085 271.085455 
L 212.6718 271.085455 
L 216.5351 271.085455 
L 220.3984 271.085455 
L 224.2617 271.085455 
L 228.125 271.085455 
L 231.9883 271.085455 
L 235.8516 271.085455 
L 239.7149 271.085455 
L 243.5782 271.085455 
L 247.4415 271.085455 
L 251.3048 271.085455 
L 255.1681 271.085455 
L 259.0314 271.085455 
L 262.8947 271.085455 
L 266.758 271.085455 
L 270.6213 271.085455 
L 274.4846 271.085455 
L 278.3479 271.085455 
L 282.2112 271.085455 
L 286.0745 271.085455 
L 289.9378 271.085455 
L 293.8011 271.085455 
L 297.6644 271.085455 
L 301.5277 271.085455 
L 305.391 271.085455 
L 309.2543 271.085455 
L 313.1176 271.085455 
L 316.9809 271.085455 
L 320.8442 271.085455 
L 324.7075 271.085455 
L 328.5708 271.085455 
L 332.4341 271.085455 
L 336.2974 271.085455 
L 340.1607 271.085455 
L 344.024 271.085455 
L 347.8873 271.085455 
L 351.7506 271.085455 
L 355.6139 271.085455 
L 359.4772 271.085455 
L 363.3405 271.085455 
L 367.2038 271.085455 
L 371.0671 271.085455 
L 374.9304 271.085455 
L 378.7937 271.085455 
L 382.657 271.085455 
L 386.5203 271.085455 
L 390.3836 271.085455 
L 394.2469 271.085455 
L 398.1102 271.085455 
L 401.9735 271.085455 
L 405.8368 271.085455 
L 409.7001 271.085455 
L 413.5634 271.085455 
L 417.4267 271.085455 
" style="fill:none;stroke:#9e0142;stroke-linecap:square;stroke-width:5;"/>
   </g>
   <g id="line2d_6">
    <path clip-path="url(#pa8246c0029)" d="M 34.96 243.54202 
L 38.8233 243.520598 
L 42.6866 243.499163 
L 46.5499 243.477716 
L 50.4132 243.456258 
L 54.2765 243.434788 
L 58.1398 243.413306 
L 62.0031 243.391812 
L 65.8664 243.370306 
L 69.7297 243.348788 
L 73.593 243.327258 
L 77.4563 243.305717 
L 81.3196 243.284163 
L 85.1829 243.262598 
L 89.0462 243.24102 
L 92.9095 243.219431 
L 96.7728 243.19783 
L 100.6361 243.176217 
L 104.4994 243.154592 
L 108.3627 243.132956 
L 112.226 243.111307 
L 116.0893 243.089647 
L 119.9526 243.067974 
L 123.8159 243.04629 
L 127.6792 243.024594 
L 131.5425 243.002886 
L 135.4058 242.981166 
L 139.2691 242.959435 
L 143.1324 242.937691 
L 146.9957 242.915935 
L 150.859 242.894168 
L 154.7223 242.872389 
L 158.5856 242.850598 
L 162.4489 242.828795 
L 166.3122 242.80698 
L 170.1755 242.785153 
L 174.0388 242.763315 
L 177.9021 242.741465 
L 181.7654 242.719602 
L 185.6287 242.697728 
L 189.492 242.675842 
L 193.3553 242.653944 
L 197.2186 242.632035 
L 201.0819 242.610113 
L 204.9452 242.58818 
L 208.8085 242.566235 
L 212.6718 242.544277 
L 216.5351 242.522308 
L 220.3984 242.500328 
L 224.2617 242.478335 
L 228.125 242.456331 
L 231.9883 242.434314 
L 235.8516 242.412286 
L 239.7149 242.390246 
L 243.5782 242.368194 
L 247.4415 242.346131 
L 251.3048 242.324055 
L 255.1681 242.301968 
L 259.0314 242.279869 
L 262.8947 242.257758 
L 266.758 242.235635 
L 270.6213 242.2135 
L 274.4846 242.191353 
L 278.3479 242.169195 
L 282.2112 242.147025 
L 286.0745 242.124843 
L 289.9378 242.102649 
L 293.8011 242.080444 
L 297.6644 242.058226 
L 301.5277 242.035997 
L 305.391 242.013756 
L 309.2543 241.991503 
L 313.1176 241.969238 
L 316.9809 241.946962 
L 320.8442 241.924674 
L 324.7075 241.902374 
L 328.5708 241.880062 
L 332.4341 241.857738 
L 336.2974 241.835402 
L 340.1607 241.813055 
L 344.024 241.790696 
L 347.8873 241.768325 
L 351.7506 241.745943 
L 355.6139 241.723548 
L 359.4772 241.701142 
L 363.3405 241.678724 
L 367.2038 241.656294 
L 371.0671 241.633852 
L 374.9304 241.611399 
L 378.7937 241.588934 
L 382.657 241.566457 
L 386.5203 241.543968 
L 390.3836 241.521468 
L 394.2469 241.498955 
L 398.1102 241.476431 
L 401.9735 241.453896 
L 405.8368 241.431348 
L 409.7001 241.408789 
L 413.5634 241.386218 
L 417.4267 241.363635 
" style="fill:none;stroke:#d8434e;stroke-linecap:square;stroke-width:5;"/>
   </g>
   <g id="line2d_7">
    <path clip-path="url(#pa8246c0029)" d="M 34.96 215.998586 
L 38.8233 215.967982 
L 42.6866 215.937375 
L 46.5499 215.906764 
L 50.4132 215.87615 
L 54.2765 215.845533 
L 58.1398 215.814912 
L 62.0031 215.784288 
L 65.8664 215.753661 
L 69.7297 215.723031 
L 73.593 215.692397 
L 77.4563 215.66176 
L 81.3196 215.631119 
L 85.1829 215.600476 
L 89.0462 215.569829 
L 92.9095 215.539179 
L 96.7728 215.508526 
L 100.6361 215.47787 
L 104.4994 215.44721 
L 108.3627 215.416547 
L 112.226 215.385882 
L 116.0893 215.355213 
L 119.9526 215.324541 
L 123.8159 215.293866 
L 127.6792 215.263188 
L 131.5425 215.232507 
L 135.4058 215.201822 
L 139.2691 215.171135 
L 143.1324 215.140445 
L 146.9957 215.109752 
L 150.859 215.079056 
L 154.7223 215.048356 
L 158.5856 215.017654 
L 162.4489 214.986949 
L 166.3122 214.956241 
L 170.1755 214.92553 
L 174.0388 214.894817 
L 177.9021 214.8641 
L 181.7654 214.83338 
L 185.6287 214.802658 
L 189.492 214.771933 
L 193.3553 214.741205 
L 197.2186 214.710474 
L 201.0819 214.679741 
L 204.9452 214.649004 
L 208.8085 214.618265 
L 212.6718 214.587523 
L 216.5351 214.556779 
L 220.3984 214.526032 
L 224.2617 214.495282 
L 228.125 214.464529 
L 231.9883 214.433774 
L 235.8516 214.403016 
L 239.7149 214.372255 
L 243.5782 214.341492 
L 247.4415 214.310726 
L 251.3048 214.279958 
L 255.1681 214.249187 
L 259.0314 214.218414 
L 262.8947 214.187638 
L 266.758 214.156859 
L 270.6213 214.126078 
L 274.4846 214.095294 
L 278.3479 214.064508 
L 282.2112 214.03372 
L 286.0745 214.002929 
L 289.9378 213.972135 
L 293.8011 213.941339 
L 297.6644 213.910541 
L 301.5277 213.879741 
L 305.391 213.848938 
L 309.2543 213.818132 
L 313.1176 213.787324 
L 316.9809 213.756514 
L 320.8442 213.725702 
L 324.7075 213.694887 
L 328.5708 213.66407 
L 332.4341 213.633251 
L 336.2974 213.60243 
L 340.1607 213.571606 
L 344.024 213.54078 
L 347.8873 213.509952 
L 351.7506 213.479121 
L 355.6139 213.448289 
L 359.4772 213.417454 
L 363.3405 213.386617 
L 367.2038 213.355778 
L 371.0671 213.324937 
L 374.9304 213.294094 
L 378.7937 213.263249 
L 382.657 213.232401 
L 386.5203 213.201552 
L 390.3836 213.1707 
L 394.2469 213.139847 
L 398.1102 213.108991 
L 401.9735 213.078134 
L 405.8368 213.047274 
L 409.7001 213.016413 
L 413.5634 212.985549 
L 417.4267 212.954684 
" style="fill:none;stroke:#f67a49;stroke-linecap:square;stroke-width:5;"/>
   </g>
   <g id="line2d_8">
    <path clip-path="url(#pa8246c0029)" d="M 34.96 188.455152 
L 38.8233 188.427608 
L 42.6866 188.400074 
L 46.5499 188.372549 
L 50.4132 188.345033 
L 54.2765 188.317526 
L 58.1398 188.290029 
L 62.0031 188.262541 
L 65.8664 188.235062 
L 69.7297 188.207592 
L 73.593 188.180132 
L 77.4563 188.152681 
L 81.3196 188.125239 
L 85.1829 188.097806 
L 89.0462 188.070383 
L 92.9095 188.042969 
L 96.7728 188.015564 
L 100.6361 187.988169 
L 104.4994 187.960783 
L 108.3627 187.933406 
L 112.226 187.906039 
L 116.0893 187.878681 
L 119.9526 187.851332 
L 123.8159 187.823993 
L 127.6792 187.796663 
L 131.5425 187.769343 
L 135.4058 187.742032 
L 139.2691 187.71473 
L 143.1324 187.687438 
L 146.9957 187.660155 
L 150.859 187.632882 
L 154.7223 187.605618 
L 158.5856 187.578363 
L 162.4489 187.551118 
L 166.3122 187.523883 
L 170.1755 187.496657 
L 174.0388 187.46944 
L 177.9021 187.442233 
L 181.7654 187.415036 
L 185.6287 187.387848 
L 189.492 187.360669 
L 193.3553 187.3335 
L 197.2186 187.306341 
L 201.0819 187.279191 
L 204.9452 187.252051 
L 208.8085 187.22492 
L 212.6718 187.197799 
L 216.5351 187.170687 
L 220.3984 187.143586 
L 224.2617 187.116493 
L 228.125 187.08941 
L 231.9883 187.062337 
L 235.8516 187.035274 
L 239.7149 187.00822 
L 243.5782 186.981176 
L 247.4415 186.954141 
L 251.3048 186.927116 
L 255.1681 186.900101 
L 259.0314 186.873095 
L 262.8947 186.846099 
L 266.758 186.819113 
L 270.6213 186.792137 
L 274.4846 186.76517 
L 278.3479 186.738213 
L 282.2112 186.711266 
L 286.0745 186.684328 
L 289.9378 186.6574 
L 293.8011 186.630482 
L 297.6644 186.603574 
L 301.5277 186.576675 
L 305.391 186.549786 
L 309.2543 186.522907 
L 313.1176 186.496038 
L 316.9809 186.469179 
L 320.8442 186.442329 
L 324.7075 186.415489 
L 328.5708 186.388659 
L 332.4341 186.361839 
L 336.2974 186.335029 
L 340.1607 186.308228 
L 344.024 186.281438 
L 347.8873 186.254657 
L 351.7506 186.227886 
L 355.6139 186.201125 
L 359.4772 186.174374 
L 363.3405 186.147633 
L 367.2038 186.120901 
L 371.0671 186.09418 
L 374.9304 186.067469 
L 378.7937 186.040767 
L 382.657 186.014075 
L 386.5203 185.987394 
L 390.3836 185.960722 
L 394.2469 185.93406 
L 398.1102 185.907408 
L 401.9735 185.880767 
L 405.8368 185.854135 
L 409.7001 185.827513 
L 413.5634 185.800901 
L 417.4267 185.774299 
" style="fill:none;stroke:#fdbf6f;stroke-linecap:square;stroke-width:5;"/>
   </g>
   <g id="line2d_9">
    <path clip-path="url(#pa8246c0029)" d="M 34.96 160.911717 
L 38.8233 160.899476 
L 42.6866 160.887244 
L 46.5499 160.875021 
L 50.4132 160.862808 
L 54.2765 160.850605 
L 58.1398 160.838411 
L 62.0031 160.826226 
L 65.8664 160.814051 
L 69.7297 160.801886 
L 73.593 160.78973 
L 77.4563 160.777583 
L 81.3196 160.765446 
L 85.1829 160.753319 
L 89.0462 160.741201 
L 92.9095 160.729092 
L 96.7728 160.716993 
L 100.6361 160.704903 
L 104.4994 160.692823 
L 108.3627 160.680752 
L 112.226 160.66869 
L 116.0893 160.656638 
L 119.9526 160.644596 
L 123.8159 160.632562 
L 127.6792 160.620539 
L 131.5425 160.608524 
L 135.4058 160.596519 
L 139.2691 160.584524 
L 143.1324 160.572538 
L 146.9957 160.560561 
L 150.859 160.548593 
L 154.7223 160.536635 
L 158.5856 160.524687 
L 162.4489 160.512747 
L 166.3122 160.500817 
L 170.1755 160.488897 
L 174.0388 160.476986 
L 177.9021 160.465084 
L 181.7654 160.453191 
L 185.6287 160.441308 
L 189.492 160.429434 
L 193.3553 160.41757 
L 197.2186 160.405714 
L 201.0819 160.393868 
L 204.9452 160.382032 
L 208.8085 160.370205 
L 212.6718 160.358387 
L 216.5351 160.346578 
L 220.3984 160.334779 
L 224.2617 160.322988 
L 228.125 160.311208 
L 231.9883 160.299436 
L 235.8516 160.287674 
L 239.7149 160.275921 
L 243.5782 160.264177 
L 247.4415 160.252442 
L 251.3048 160.240717 
L 255.1681 160.229001 
L 259.0314 160.217294 
L 262.8947 160.205597 
L 266.758 160.193909 
L 270.6213 160.18223 
L 274.4846 160.17056 
L 278.3479 160.158899 
L 282.2112 160.147248 
L 286.0745 160.135605 
L 289.9378 160.123972 
L 293.8011 160.112349 
L 297.6644 160.100734 
L 301.5277 160.089128 
L 305.391 160.077532 
L 309.2543 160.065945 
L 313.1176 160.054367 
L 316.9809 160.042798 
L 320.8442 160.031239 
L 324.7075 160.019688 
L 328.5708 160.008147 
L 332.4341 159.996615 
L 336.2974 159.985092 
L 340.1607 159.973578 
L 344.024 159.962073 
L 347.8873 159.950578 
L 351.7506 159.939091 
L 355.6139 159.927614 
L 359.4772 159.916145 
L 363.3405 159.904686 
L 367.2038 159.893236 
L 371.0671 159.881795 
L 374.9304 159.870363 
L 378.7937 159.85894 
L 382.657 159.847526 
L 386.5203 159.836122 
L 390.3836 159.824726 
L 394.2469 159.81334 
L 398.1102 159.801962 
L 401.9735 159.790594 
L 405.8368 159.779234 
L 409.7001 159.767884 
L 413.5634 159.756543 
L 417.4267 159.74521 
" style="fill:none;stroke:#feeda1;stroke-linecap:square;stroke-width:5;"/>
   </g>
   <g id="line2d_10">
    <path clip-path="url(#pa8246c0029)" d="M 34.96 133.368283 
L 38.8233 133.383585 
L 42.6866 133.398868 
L 46.5499 133.414132 
L 50.4132 133.429378 
L 54.2765 133.444606 
L 58.1398 133.459814 
L 62.0031 133.475004 
L 65.8664 133.490176 
L 69.7297 133.505329 
L 73.593 133.520464 
L 77.4563 133.53558 
L 81.3196 133.550677 
L 85.1829 133.565757 
L 89.0462 133.580817 
L 92.9095 133.59586 
L 96.7728 133.610884 
L 100.6361 133.62589 
L 104.4994 133.640878 
L 108.3627 133.655847 
L 112.226 133.670798 
L 116.0893 133.685731 
L 119.9526 133.700646 
L 123.8159 133.715542 
L 127.6792 133.730421 
L 131.5425 133.745281 
L 135.4058 133.760123 
L 139.2691 133.774948 
L 143.1324 133.789754 
L 146.9957 133.804542 
L 150.859 133.819312 
L 154.7223 133.834065 
L 158.5856 133.848799 
L 162.4489 133.863515 
L 166.3122 133.878214 
L 170.1755 133.892895 
L 174.0388 133.907558 
L 177.9021 133.922203 
L 181.7654 133.93683 
L 185.6287 133.95144 
L 189.492 133.966032 
L 193.3553 133.980606 
L 197.2186 133.995162 
L 201.0819 134.009701 
L 204.9452 134.024223 
L 208.8085 134.038726 
L 212.6718 134.053212 
L 216.5351 134.067681 
L 220.3984 134.082132 
L 224.2617 134.096566 
L 228.125 134.110982 
L 231.9883 134.12538 
L 235.8516 134.139761 
L 239.7149 134.154125 
L 243.5782 134.168472 
L 247.4415 134.182801 
L 251.3048 134.197112 
L 255.1681 134.211407 
L 259.0314 134.225684 
L 262.8947 134.239944 
L 266.758 134.254187 
L 270.6213 134.268412 
L 274.4846 134.28262 
L 278.3479 134.296811 
L 282.2112 134.310985 
L 286.0745 134.325142 
L 289.9378 134.339282 
L 293.8011 134.353405 
L 297.6644 134.367511 
L 301.5277 134.381599 
L 305.391 134.395671 
L 309.2543 134.409726 
L 313.1176 134.423763 
L 316.9809 134.437784 
L 320.8442 134.451788 
L 324.7075 134.465775 
L 328.5708 134.479746 
L 332.4341 134.493699 
L 336.2974 134.507636 
L 340.1607 134.521556 
L 344.024 134.535459 
L 347.8873 134.549345 
L 351.7506 134.563215 
L 355.6139 134.577068 
L 359.4772 134.590904 
L 363.3405 134.604723 
L 367.2038 134.618527 
L 371.0671 134.632313 
L 374.9304 134.646083 
L 378.7937 134.659836 
L 382.657 134.673573 
L 386.5203 134.687293 
L 390.3836 134.700997 
L 394.2469 134.714684 
L 398.1102 134.728355 
L 401.9735 134.74201 
L 405.8368 134.755648 
L 409.7001 134.76927 
L 413.5634 134.782875 
L 417.4267 134.796464 
" style="fill:none;stroke:#f1f9a9;stroke-linecap:square;stroke-width:5;"/>
   </g>
   <g id="line2d_11">
    <path clip-path="url(#pa8246c0029)" d="M 34.96 105.824848 
L 38.8233 105.879935 
L 42.6866 105.93493 
L 46.5499 105.989834 
L 50.4132 106.044646 
L 54.2765 106.099367 
L 58.1398 106.153997 
L 62.0031 106.208536 
L 65.8664 106.262985 
L 69.7297 106.317343 
L 73.593 106.371611 
L 77.4563 106.425789 
L 81.3196 106.479877 
L 85.1829 106.533876 
L 89.0462 106.587785 
L 92.9095 106.641605 
L 96.7728 106.695336 
L 100.6361 106.748978 
L 104.4994 106.802532 
L 108.3627 106.855997 
L 112.226 106.909374 
L 116.0893 106.962662 
L 119.9526 107.015863 
L 123.8159 107.068977 
L 127.6792 107.122002 
L 131.5425 107.174941 
L 135.4058 107.227792 
L 139.2691 107.280557 
L 143.1324 107.333235 
L 146.9957 107.385826 
L 150.859 107.438331 
L 154.7223 107.49075 
L 158.5856 107.543082 
L 162.4489 107.595329 
L 166.3122 107.647491 
L 170.1755 107.699567 
L 174.0388 107.751557 
L 177.9021 107.803463 
L 181.7654 107.855284 
L 185.6287 107.90702 
L 189.492 107.958671 
L 193.3553 108.010239 
L 197.2186 108.061722 
L 201.0819 108.113121 
L 204.9452 108.164436 
L 208.8085 108.215668 
L 212.6718 108.266816 
L 216.5351 108.317881 
L 220.3984 108.368863 
L 224.2617 108.419762 
L 228.125 108.470578 
L 231.9883 108.521312 
L 235.8516 108.571964 
L 239.7149 108.622533 
L 243.5782 108.67302 
L 247.4415 108.723426 
L 251.3048 108.773749 
L 255.1681 108.823991 
L 259.0314 108.874152 
L 262.8947 108.924232 
L 266.758 108.974231 
L 270.6213 109.024149 
L 274.4846 109.073986 
L 278.3479 109.123743 
L 282.2112 109.173419 
L 286.0745 109.223016 
L 289.9378 109.272532 
L 293.8011 109.321969 
L 297.6644 109.371326 
L 301.5277 109.420603 
L 305.391 109.469801 
L 309.2543 109.518921 
L 313.1176 109.567961 
L 316.9809 109.616922 
L 320.8442 109.665805 
L 324.7075 109.714609 
L 328.5708 109.763335 
L 332.4341 109.811983 
L 336.2974 109.860553 
L 340.1607 109.909045 
L 344.024 109.95746 
L 347.8873 110.005797 
L 351.7506 110.054056 
L 355.6139 110.102239 
L 359.4772 110.150344 
L 363.3405 110.198373 
L 367.2038 110.246325 
L 371.0671 110.2942 
L 374.9304 110.341999 
L 378.7937 110.389722 
L 382.657 110.437369 
L 386.5203 110.48494 
L 390.3836 110.532435 
L 394.2469 110.579855 
L 398.1102 110.627199 
L 401.9735 110.674468 
L 405.8368 110.721662 
L 409.7001 110.768781 
L 413.5634 110.815826 
L 417.4267 110.862795 
" style="fill:none;stroke:#bfe5a0;stroke-linecap:square;stroke-width:5;"/>
   </g>
   <g id="line2d_12">
    <path clip-path="url(#pa8246c0029)" d="M 34.96 78.281414 
L 38.8233 78.388527 
L 42.6866 78.495415 
L 46.5499 78.602077 
L 50.4132 78.708514 
L 54.2765 78.814727 
L 58.1398 78.920717 
L 62.0031 79.026484 
L 65.8664 79.132029 
L 69.7297 79.237352 
L 73.593 79.342455 
L 77.4563 79.447337 
L 81.3196 79.552 
L 85.1829 79.656444 
L 89.0462 79.76067 
L 92.9095 79.864678 
L 96.7728 79.968469 
L 100.6361 80.072044 
L 104.4994 80.175403 
L 108.3627 80.278547 
L 112.226 80.381476 
L 116.0893 80.484192 
L 119.9526 80.586694 
L 123.8159 80.688984 
L 127.6792 80.791061 
L 131.5425 80.892927 
L 135.4058 80.994582 
L 139.2691 81.096027 
L 143.1324 81.197263 
L 146.9957 81.298289 
L 150.859 81.399107 
L 154.7223 81.499717 
L 158.5856 81.600119 
L 162.4489 81.700315 
L 166.3122 81.800305 
L 170.1755 81.90009 
L 174.0388 81.999669 
L 177.9021 82.099045 
L 181.7654 82.198216 
L 185.6287 82.297185 
L 189.492 82.39595 
L 193.3553 82.494514 
L 197.2186 82.592876 
L 201.0819 82.691038 
L 204.9452 82.788999 
L 208.8085 82.88676 
L 212.6718 82.984322 
L 216.5351 83.081685 
L 220.3984 83.178851 
L 224.2617 83.275819 
L 228.125 83.372589 
L 231.9883 83.469164 
L 235.8516 83.565542 
L 239.7149 83.661726 
L 243.5782 83.757714 
L 247.4415 83.853508 
L 251.3048 83.949109 
L 255.1681 84.044516 
L 259.0314 84.139731 
L 262.8947 84.234754 
L 266.758 84.329585 
L 270.6213 84.424225 
L 274.4846 84.518675 
L 278.3479 84.612934 
L 282.2112 84.707005 
L 286.0745 84.800886 
L 289.9378 84.894579 
L 293.8011 84.988084 
L 297.6644 85.081402 
L 301.5277 85.174533 
L 305.391 85.267477 
L 309.2543 85.360236 
L 313.1176 85.452809 
L 316.9809 85.545198 
L 320.8442 85.637403 
L 324.7075 85.729423 
L 328.5708 85.82126 
L 332.4341 85.912915 
L 336.2974 86.004387 
L 340.1607 86.095678 
L 344.024 86.186787 
L 347.8873 86.277716 
L 351.7506 86.368464 
L 355.6139 86.459032 
L 359.4772 86.549421 
L 363.3405 86.639631 
L 367.2038 86.729663 
L 371.0671 86.819517 
L 374.9304 86.909194 
L 378.7937 86.998694 
L 382.657 87.088017 
L 386.5203 87.177164 
L 390.3836 87.266136 
L 394.2469 87.354933 
L 398.1102 87.443555 
L 401.9735 87.532004 
L 405.8368 87.620278 
L 409.7001 87.70838 
L 413.5634 87.796309 
L 417.4267 87.884066 
" style="fill:none;stroke:#74c7a5;stroke-linecap:square;stroke-width:5;"/>
   </g>
   <g id="line2d_13">
    <path clip-path="url(#pa8246c0029)" d="M 34.96 50.73798 
L 38.8233 50.909361 
L 42.6866 51.080305 
L 46.5499 51.250812 
L 50.4132 51.420885 
L 54.2765 51.590525 
L 58.1398 51.759734 
L 62.0031 51.928512 
L 65.8664 52.096863 
L 69.7297 52.264786 
L 73.593 52.432285 
L 77.4563 52.599359 
L 81.3196 52.766012 
L 85.1829 52.932243 
L 89.0462 53.098056 
L 92.9095 53.263451 
L 96.7728 53.42843 
L 100.6361 53.592994 
L 104.4994 53.757145 
L 108.3627 53.920884 
L 112.226 54.084213 
L 116.0893 54.247134 
L 119.9526 54.409646 
L 123.8159 54.571753 
L 127.6792 54.733456 
L 131.5425 54.894756 
L 135.4058 55.055653 
L 139.2691 55.216151 
L 143.1324 55.37625 
L 146.9957 55.535952 
L 150.859 55.695257 
L 154.7223 55.854168 
L 158.5856 56.012686 
L 162.4489 56.170812 
L 166.3122 56.328548 
L 170.1755 56.485894 
L 174.0388 56.642853 
L 177.9021 56.799426 
L 181.7654 56.955613 
L 185.6287 57.111417 
L 189.492 57.266838 
L 193.3553 57.421879 
L 197.2186 57.576539 
L 201.0819 57.730822 
L 204.9452 57.884727 
L 208.8085 58.038257 
L 212.6718 58.191412 
L 216.5351 58.344194 
L 220.3984 58.496604 
L 224.2617 58.648643 
L 228.125 58.800313 
L 231.9883 58.951615 
L 235.8516 59.102551 
L 239.7149 59.25312 
L 243.5782 59.403326 
L 247.4415 59.553168 
L 251.3048 59.702649 
L 255.1681 59.851769 
L 259.0314 60.00053 
L 262.8947 60.148932 
L 266.758 60.296978 
L 270.6213 60.444668 
L 274.4846 60.592003 
L 278.3479 60.738986 
L 282.2112 60.885616 
L 286.0745 61.031895 
L 289.9378 61.177825 
L 293.8011 61.323406 
L 297.6644 61.46864 
L 301.5277 61.613527 
L 305.391 61.75807 
L 309.2543 61.902269 
L 313.1176 62.046125 
L 316.9809 62.189639 
L 320.8442 62.332813 
L 324.7075 62.475648 
L 328.5708 62.618145 
L 332.4341 62.760304 
L 336.2974 62.902128 
L 340.1607 63.043617 
L 344.024 63.184772 
L 347.8873 63.325595 
L 351.7506 63.466087 
L 355.6139 63.606248 
L 359.4772 63.74608 
L 363.3405 63.885583 
L 367.2038 64.02476 
L 371.0671 64.16361 
L 374.9304 64.302136 
L 378.7937 64.440338 
L 382.657 64.578217 
L 386.5203 64.715774 
L 390.3836 64.853011 
L 394.2469 64.989928 
L 398.1102 65.126526 
L 401.9735 65.262807 
L 405.8368 65.398772 
L 409.7001 65.534421 
L 413.5634 65.669756 
L 417.4267 65.804777 
" style="fill:none;stroke:#378ebb;stroke-linecap:square;stroke-width:5;"/>
   </g>
   <g id="line2d_14">
    <path clip-path="url(#pa8246c0029)" d="M 34.96 23.194545 
L 38.8233 23.442436 
L 42.6866 23.689584 
L 46.5499 23.935992 
L 50.4132 24.181663 
L 54.2765 24.4266 
L 58.1398 24.670807 
L 62.0031 24.914287 
L 65.8664 25.157043 
L 69.7297 25.399077 
L 73.593 25.640394 
L 77.4563 25.880995 
L 81.3196 26.120885 
L 85.1829 26.360066 
L 89.0462 26.598541 
L 92.9095 26.836314 
L 96.7728 27.073386 
L 100.6361 27.309762 
L 104.4994 27.545444 
L 108.3627 27.780435 
L 112.226 28.014738 
L 116.0893 28.248355 
L 119.9526 28.481291 
L 123.8159 28.713547 
L 127.6792 28.945127 
L 131.5425 29.176033 
L 135.4058 29.406268 
L 139.2691 29.635835 
L 143.1324 29.864737 
L 146.9957 30.092976 
L 150.859 30.320556 
L 154.7223 30.547478 
L 158.5856 30.773747 
L 162.4489 30.999363 
L 166.3122 31.224331 
L 170.1755 31.448653 
L 174.0388 31.672331 
L 177.9021 31.895369 
L 181.7654 32.117768 
L 185.6287 32.339532 
L 189.492 32.560662 
L 193.3553 32.781163 
L 197.2186 33.001035 
L 201.0819 33.220282 
L 204.9452 33.438907 
L 208.8085 33.656912 
L 212.6718 33.874299 
L 216.5351 34.09107 
L 220.3984 34.30723 
L 224.2617 34.522779 
L 228.125 34.73772 
L 231.9883 34.952057 
L 235.8516 35.165791 
L 239.7149 35.378924 
L 243.5782 35.59146 
L 247.4415 35.8034 
L 251.3048 36.014747 
L 255.1681 36.225503 
L 259.0314 36.435671 
L 262.8947 36.645253 
L 266.758 36.854252 
L 270.6213 37.062669 
L 274.4846 37.270507 
L 278.3479 37.477769 
L 282.2112 37.684456 
L 286.0745 37.890571 
L 289.9378 38.096116 
L 293.8011 38.301094 
L 297.6644 38.505507 
L 301.5277 38.709356 
L 305.391 38.912644 
L 309.2543 39.115374 
L 313.1176 39.317548 
L 316.9809 39.519167 
L 320.8442 39.720234 
L 324.7075 39.920751 
L 328.5708 40.120721 
L 332.4341 40.320145 
L 336.2974 40.519025 
L 340.1607 40.717364 
L 344.024 40.915164 
L 347.8873 41.112426 
L 351.7506 41.309154 
L 355.6139 41.505348 
L 359.4772 41.701012 
L 363.3405 41.896147 
L 367.2038 42.090755 
L 371.0671 42.284838 
L 374.9304 42.478398 
L 378.7937 42.671438 
L 382.657 42.863959 
L 386.5203 43.055963 
L 390.3836 43.247452 
L 394.2469 43.438428 
L 398.1102 43.628894 
L 401.9735 43.818851 
L 405.8368 44.008301 
L 409.7001 44.197246 
L 413.5634 44.385687 
L 417.4267 44.573628 
" style="fill:none;stroke:#5e4fa2;stroke-linecap:square;stroke-width:5;"/>
   </g>
   <g id="patch_3">
    <path d="M 34.96 283.48 
L 34.96 10.8 
" style="fill:none;stroke:#000000;stroke-linecap:square;stroke-linejoin:miter;stroke-width:3;"/>
   </g>
   <g id="patch_4">
    <path d="M 34.96 283.48 
L 421.29 283.48 
" style="fill:none;stroke:#000000;stroke-linecap:square;stroke-linejoin:miter;stroke-width:3;"/>
   </g>
  </g>
 </g>
 <defs>
  <clipPath id="pa8246c0029">
   <rect height="272.68" width="386.33" x="34.96" y="10.8"/>
  </clipPath>
 </defs>
</svg>
