<?xml version="1.0" encoding="utf-8" standalone="no"?>
<!DOCTYPE svg PUBLIC "-//W3C//DTD SVG 1.1//EN"
  "http://www.w3.org/Graphics/SVG/1.1/DTD/svg11.dtd">
<svg height="345.6pt" version="1.1" viewBox="0 0 460.8 345.6" width="460.8pt" xmlns="http://www.w3.org/2000/svg" xmlns:xlink="http://www.w3.org/1999/xlink">
 <metadata>
  <rdf:RDF xmlns:cc="http://creativecommons.org/ns#" xmlns:dc="http://purl.org/dc/elements/1.1/" xmlns:rdf="http://www.w3.org/1999/02/22-rdf-syntax-ns#">
   <cc:Work>
    <dc:type rdf:resource="http://purl.org/dc/dcmitype/StillImage"/>
    <dc:date>2022-07-20T14:02:34.297299</dc:date>
    <dc:format>image/svg+xml</dc:format>
    <dc:creator>
     <cc:Agent>
      <dc:title>Matplotlib v3.4.2, https://matplotlib.org/</dc:title>
     </cc:Agent>
    </dc:creator>
   </cc:Work>
  </rdf:RDF>
 </metadata>
 <defs>
  <style type="text/css">*{stroke-linecap:butt;stroke-linejoin:round;}</style>
 </defs>
 <g id="figure_1">
  <g id="patch_1">
   <path d="M 0 345.6 
L 460.8 345.6 
L 460.8 0 
L 0 0 
z
" style="fill:#ffffff;"/>
  </g>
  <g id="axes_1">
   <g id="patch_2">
    <path d="M 59.24 276.964 
L 445.862461 276.964 
L 445.862461 10.8 
L 59.24 10.8 
z
" style="fill:#ffffff;"/>
   </g>
   <g id="matplotlib.axis_1">
    <g id="xtick_1">
     <g id="line2d_1">
      <defs>
       <path d="M 0 0 
L 0 8 
" id="mfd851c2dcc" style="stroke:#000000;stroke-width:3;"/>
      </defs>
      <g>
       <use style="stroke:#000000;stroke-width:3;" x="81.982498" xlink:href="#mfd851c2dcc" y="276.964"/>
      </g>
     </g>
     <g id="text_1">
      <!-- $u_{rest}$ -->
      <g transform="translate(61.782498 303.660875)scale(0.2 -0.2)">
       <defs>
        <path d="M 428 1388 
L 838 3500 
L 1416 3500 
L 1006 1409 
Q 975 1256 961 1147 
Q 947 1038 947 966 
Q 947 700 1109 554 
Q 1272 409 1569 409 
Q 2031 409 2368 721 
Q 2706 1034 2809 1563 
L 3194 3500 
L 3769 3500 
L 3091 0 
L 2516 0 
L 2631 550 
Q 2388 244 2052 76 
Q 1716 -91 1338 -91 
Q 878 -91 622 161 
Q 366 413 366 863 
Q 366 956 381 1097 
Q 397 1238 428 1388 
z
" id="DejaVuSans-Oblique-75" transform="scale(0.015625)"/>
        <path d="M 2853 2969 
Q 2766 3016 2653 3041 
Q 2541 3066 2413 3066 
Q 1953 3066 1609 2717 
Q 1266 2369 1153 1784 
L 800 0 
L 225 0 
L 909 3500 
L 1484 3500 
L 1375 2956 
Q 1603 3259 1920 3421 
Q 2238 3584 2597 3584 
Q 2691 3584 2781 3573 
Q 2872 3563 2963 3538 
L 2853 2969 
z
" id="DejaVuSans-Oblique-72" transform="scale(0.015625)"/>
        <path d="M 3078 2063 
Q 3088 2113 3092 2166 
Q 3097 2219 3097 2272 
Q 3097 2653 2873 2875 
Q 2650 3097 2266 3097 
Q 1838 3097 1509 2826 
Q 1181 2556 1013 2059 
L 3078 2063 
z
M 3578 1613 
L 903 1613 
Q 884 1494 878 1425 
Q 872 1356 872 1306 
Q 872 872 1139 634 
Q 1406 397 1894 397 
Q 2269 397 2603 481 
Q 2938 566 3225 728 
L 3116 159 
Q 2806 34 2476 -28 
Q 2147 -91 1806 -91 
Q 1078 -91 686 257 
Q 294 606 294 1247 
Q 294 1794 489 2264 
Q 684 2734 1063 3103 
Q 1306 3334 1642 3459 
Q 1978 3584 2356 3584 
Q 2950 3584 3301 3228 
Q 3653 2872 3653 2272 
Q 3653 2128 3634 1964 
Q 3616 1800 3578 1613 
z
" id="DejaVuSans-Oblique-65" transform="scale(0.015625)"/>
        <path d="M 3200 3397 
L 3091 2853 
Q 2863 2978 2609 3040 
Q 2356 3103 2088 3103 
Q 1634 3103 1373 2948 
Q 1113 2794 1113 2528 
Q 1113 2219 1719 2053 
Q 1766 2041 1788 2034 
L 1972 1978 
Q 2547 1819 2739 1644 
Q 2931 1469 2931 1166 
Q 2931 609 2489 259 
Q 2047 -91 1331 -91 
Q 1053 -91 747 -37 
Q 441 16 72 128 
L 184 722 
Q 500 559 806 475 
Q 1113 391 1394 391 
Q 1816 391 2080 572 
Q 2344 753 2344 1031 
Q 2344 1331 1650 1516 
L 1591 1531 
L 1394 1581 
Q 956 1697 753 1886 
Q 550 2075 550 2369 
Q 550 2928 970 3256 
Q 1391 3584 2113 3584 
Q 2397 3584 2667 3537 
Q 2938 3491 3200 3397 
z
" id="DejaVuSans-Oblique-73" transform="scale(0.015625)"/>
        <path d="M 2706 3500 
L 2619 3053 
L 1472 3053 
L 1100 1153 
Q 1081 1047 1072 975 
Q 1063 903 1063 863 
Q 1063 663 1183 572 
Q 1303 481 1569 481 
L 2150 481 
L 2053 0 
L 1503 0 
Q 991 0 739 200 
Q 488 400 488 806 
Q 488 878 497 964 
Q 506 1050 525 1153 
L 897 3053 
L 409 3053 
L 500 3500 
L 978 3500 
L 1172 4494 
L 1747 4494 
L 1556 3500 
L 2706 3500 
z
" id="DejaVuSans-Oblique-74" transform="scale(0.015625)"/>
       </defs>
       <use transform="translate(0 0.3125)" xlink:href="#DejaVuSans-Oblique-75"/>
       <use transform="translate(63.378906 -16.09375)scale(0.7)" xlink:href="#DejaVuSans-Oblique-72"/>
       <use transform="translate(92.158203 -16.09375)scale(0.7)" xlink:href="#DejaVuSans-Oblique-65"/>
       <use transform="translate(135.224609 -16.09375)scale(0.7)" xlink:href="#DejaVuSans-Oblique-73"/>
       <use transform="translate(171.694336 -16.09375)scale(0.7)" xlink:href="#DejaVuSans-Oblique-74"/>
      </g>
     </g>
    </g>
    <g id="xtick_2">
     <g id="line2d_2">
      <g>
       <use style="stroke:#000000;stroke-width:3;" x="309.407475" xlink:href="#mfd851c2dcc" y="276.964"/>
      </g>
     </g>
     <g id="text_2">
      <!-- $\vartheta_{rheo}$ -->
      <g transform="translate(287.007475 303.660875)scale(0.2 -0.2)">
       <defs>
        <path d="M 3009 2750 
Q 3178 3519 3081 3913 
Q 2950 4444 2513 4444 
Q 2253 4444 2009 4222 
Q 1794 4016 1741 3734 
Q 1647 3256 1959 2922 
Q 2150 2719 3009 2750 
z
M 2913 2219 
Q 1944 2191 1581 2422 
Q 994 2797 1175 3719 
Q 1272 4219 1663 4563 
Q 2056 4913 2603 4913 
Q 3256 4913 3550 4250 
Q 3828 3625 3566 2422 
Q 3303 1213 2781 594 
Q 2225 -72 1475 -72 
Q 734 -72 425 594 
Q 97 1297 419 2753 
L 1028 2750 
Q 694 1556 928 884 
Q 1100 400 1566 400 
Q 2016 400 2391 888 
Q 2788 1406 2913 2219 
z
" id="DejaVuSans-Oblique-3d1" transform="scale(0.015625)"/>
        <path d="M 3566 2113 
L 3156 0 
L 2578 0 
L 2988 2091 
Q 3016 2238 3031 2350 
Q 3047 2463 3047 2528 
Q 3047 2791 2881 2937 
Q 2716 3084 2419 3084 
Q 1956 3084 1617 2771 
Q 1278 2459 1178 1941 
L 800 0 
L 225 0 
L 1172 4863 
L 1747 4863 
L 1375 2950 
Q 1594 3244 1934 3414 
Q 2275 3584 2650 3584 
Q 3113 3584 3367 3334 
Q 3622 3084 3622 2631 
Q 3622 2519 3608 2391 
Q 3594 2263 3566 2113 
z
" id="DejaVuSans-Oblique-68" transform="scale(0.015625)"/>
        <path d="M 1625 -91 
Q 1009 -91 651 289 
Q 294 669 294 1325 
Q 294 1706 417 2101 
Q 541 2497 738 2766 
Q 1047 3184 1428 3384 
Q 1809 3584 2291 3584 
Q 2888 3584 3255 3212 
Q 3622 2841 3622 2241 
Q 3622 1825 3500 1412 
Q 3378 1000 3181 728 
Q 2875 309 2494 109 
Q 2113 -91 1625 -91 
z
M 891 1344 
Q 891 869 1089 633 
Q 1288 397 1691 397 
Q 2269 397 2648 901 
Q 3028 1406 3028 2181 
Q 3028 2634 2825 2865 
Q 2622 3097 2228 3097 
Q 1903 3097 1650 2945 
Q 1397 2794 1197 2484 
Q 1050 2253 970 1956 
Q 891 1659 891 1344 
z
" id="DejaVuSans-Oblique-6f" transform="scale(0.015625)"/>
       </defs>
       <use transform="translate(0 0.234375)" xlink:href="#DejaVuSans-Oblique-3d1"/>
       <use transform="translate(61.914062 -16.171875)scale(0.7)" xlink:href="#DejaVuSans-Oblique-72"/>
       <use transform="translate(90.693359 -16.171875)scale(0.7)" xlink:href="#DejaVuSans-Oblique-68"/>
       <use transform="translate(135.058594 -16.171875)scale(0.7)" xlink:href="#DejaVuSans-Oblique-65"/>
       <use transform="translate(178.125 -16.171875)scale(0.7)" xlink:href="#DejaVuSans-Oblique-6f"/>
      </g>
     </g>
    </g>
    <g id="xtick_3">
     <g id="line2d_3">
      <g>
       <use style="stroke:#000000;stroke-width:3;" x="423.119963" xlink:href="#mfd851c2dcc" y="276.964"/>
      </g>
     </g>
     <g id="text_3">
      <!-- $u_{reset}$ -->
      <g transform="translate(398.619963 303.660875)scale(0.2 -0.2)">
       <use transform="translate(0 0.3125)" xlink:href="#DejaVuSans-Oblique-75"/>
       <use transform="translate(63.378906 -16.09375)scale(0.7)" xlink:href="#DejaVuSans-Oblique-72"/>
       <use transform="translate(92.158203 -16.09375)scale(0.7)" xlink:href="#DejaVuSans-Oblique-65"/>
       <use transform="translate(135.224609 -16.09375)scale(0.7)" xlink:href="#DejaVuSans-Oblique-73"/>
       <use transform="translate(171.694336 -16.09375)scale(0.7)" xlink:href="#DejaVuSans-Oblique-65"/>
       <use transform="translate(214.760742 -16.09375)scale(0.7)" xlink:href="#DejaVuSans-Oblique-74"/>
      </g>
     </g>
    </g>
    <g id="text_4">
     <!-- u -->
     <g transform="translate(246.21373 327.017125)scale(0.2 -0.2)">
      <defs>
       <path d="M 544 1381 
L 544 3500 
L 1119 3500 
L 1119 1403 
Q 1119 906 1312 657 
Q 1506 409 1894 409 
Q 2359 409 2629 706 
Q 2900 1003 2900 1516 
L 2900 3500 
L 3475 3500 
L 3475 0 
L 2900 0 
L 2900 538 
Q 2691 219 2414 64 
Q 2138 -91 1772 -91 
Q 1169 -91 856 284 
Q 544 659 544 1381 
z
M 1991 3584 
L 1991 3584 
z
" id="DejaVuSans-75" transform="scale(0.015625)"/>
      </defs>
      <use xlink:href="#DejaVuSans-75"/>
     </g>
    </g>
   </g>
   <g id="matplotlib.axis_2">
    <g id="ytick_1">
     <g id="line2d_4">
      <defs>
       <path d="M 0 0 
L -8 0 
" id="m07dae2ced8" style="stroke:#000000;stroke-width:3;"/>
      </defs>
      <g>
       <use style="stroke:#000000;stroke-width:3;" x="59.24" xlink:href="#m07dae2ced8" y="232.603333"/>
      </g>
     </g>
     <g id="text_5">
      <!-- 0 -->
      <g transform="translate(35.015 240.201771)scale(0.2 -0.2)">
       <defs>
        <path d="M 2034 4250 
Q 1547 4250 1301 3770 
Q 1056 3291 1056 2328 
Q 1056 1369 1301 889 
Q 1547 409 2034 409 
Q 2525 409 2770 889 
Q 3016 1369 3016 2328 
Q 3016 3291 2770 3770 
Q 2525 4250 2034 4250 
z
M 2034 4750 
Q 2819 4750 3233 4129 
Q 3647 3509 3647 2328 
Q 3647 1150 3233 529 
Q 2819 -91 2034 -91 
Q 1250 -91 836 529 
Q 422 1150 422 2328 
Q 422 3509 836 4129 
Q 1250 4750 2034 4750 
z
" id="DejaVuSans-30" transform="scale(0.015625)"/>
       </defs>
       <use xlink:href="#DejaVuSans-30"/>
      </g>
     </g>
    </g>
    <g id="text_6">
     <!-- du -->
     <g transform="translate(26.855625 156.567937)rotate(-90)scale(0.2 -0.2)">
      <defs>
       <path d="M 2906 2969 
L 2906 4863 
L 3481 4863 
L 3481 0 
L 2906 0 
L 2906 525 
Q 2725 213 2448 61 
Q 2172 -91 1784 -91 
Q 1150 -91 751 415 
Q 353 922 353 1747 
Q 353 2572 751 3078 
Q 1150 3584 1784 3584 
Q 2172 3584 2448 3432 
Q 2725 3281 2906 2969 
z
M 947 1747 
Q 947 1113 1208 752 
Q 1469 391 1925 391 
Q 2381 391 2643 752 
Q 2906 1113 2906 1747 
Q 2906 2381 2643 2742 
Q 2381 3103 1925 3103 
Q 1469 3103 1208 2742 
Q 947 2381 947 1747 
z
" id="DejaVuSans-64" transform="scale(0.015625)"/>
      </defs>
      <use xlink:href="#DejaVuSans-64"/>
      <use x="63.476562" xlink:href="#DejaVuSans-75"/>
     </g>
    </g>
   </g>
   <g id="line2d_5">
    <path clip-path="url(#p9f806a65ab)" d="M 59.24 230.3853 
L 62.915555 230.74377 
L 66.59111 231.10224 
L 70.266666 231.46071 
L 73.942221 231.81918 
L 77.617776 232.17765 
L 81.293331 232.53612 
L 84.968886 232.89459 
L 88.644441 233.25306 
L 92.319997 233.61153 
L 95.995552 233.97 
L 99.671107 234.32847 
L 103.346662 234.68694 
L 107.022217 235.04541 
L 110.697773 235.40388 
L 114.373328 235.762351 
L 118.048883 236.120821 
L 121.724438 236.479291 
L 125.399993 236.837761 
L 129.075548 237.196231 
L 132.751104 237.554701 
L 136.426659 237.913171 
L 140.102214 238.271641 
L 143.777769 238.630111 
L 147.453324 238.988581 
L 151.12888 239.347051 
L 154.804435 239.705521 
L 158.47999 240.063991 
L 162.155545 240.422461 
L 165.8311 240.780931 
L 169.506655 241.139401 
L 173.182211 241.497871 
L 176.857766 241.856341 
L 180.533321 242.214811 
L 184.208876 242.573281 
L 187.884431 242.931751 
L 191.559987 243.290221 
L 195.235542 243.648691 
L 198.911097 244.007161 
L 202.586652 244.365631 
L 206.262207 244.724101 
L 209.937762 245.082571 
L 213.613318 245.441041 
L 217.288873 245.799511 
L 220.964428 246.157981 
L 224.639983 246.516452 
L 228.315538 246.874922 
L 231.991094 247.233392 
L 235.666649 247.591862 
L 239.342204 247.950332 
L 243.017759 248.308802 
L 246.693314 248.667272 
L 250.368869 249.025742 
L 254.044425 249.384212 
L 257.71998 249.742682 
L 261.395535 250.101152 
L 265.07109 250.459622 
L 268.746645 250.818092 
L 272.422201 251.176562 
L 276.097756 251.535032 
L 279.773311 251.893502 
L 283.448866 252.25197 
L 287.124421 252.61043 
L 290.799976 252.96885 
L 294.475532 253.32707 
L 298.151087 253.68428 
L 301.826642 254.03641 
L 305.502197 254.362962 
L 309.177752 254.560769 
L 312.853308 254.110503 
L 316.528863 250.398011 
L 320.204418 230.264351 
L 323.879973 127.470935 
L 324.790013 -1 
" style="fill:none;stroke:#9e0142;stroke-linecap:square;stroke-width:3;"/>
   </g>
   <g id="line2d_6">
    <path clip-path="url(#p9f806a65ab)" d="M 59.24 230.3853 
L 62.915555 230.74377 
L 66.59111 231.10224 
L 70.266666 231.46071 
L 73.942221 231.81918 
L 77.617776 232.17765 
L 81.293331 232.53612 
L 84.968886 232.89459 
L 88.644441 233.25306 
L 92.319997 233.61153 
L 95.995552 233.97 
L 99.671107 234.32847 
L 103.346662 234.68694 
L 107.022217 235.04541 
L 110.697773 235.40388 
L 114.373328 235.762351 
L 118.048883 236.120821 
L 121.724438 236.479291 
L 125.399993 236.837761 
L 129.075548 237.196231 
L 132.751104 237.554701 
L 136.426659 237.913171 
L 140.102214 238.271641 
L 143.777769 238.630111 
L 147.453324 238.988581 
L 151.12888 239.347051 
L 154.804435 239.705521 
L 158.47999 240.063991 
L 162.155545 240.422461 
L 165.8311 240.780931 
L 169.506655 241.139401 
L 173.182211 241.497871 
L 176.857766 241.856341 
L 180.533321 242.214811 
L 184.208876 242.573281 
L 187.884431 242.931751 
L 191.559987 243.290221 
L 195.235542 243.648691 
L 198.911097 244.007161 
L 202.586652 244.365631 
L 206.262207 244.724101 
L 209.937762 245.082571 
L 213.613318 245.441041 
L 217.288873 245.799511 
L 220.964428 246.157981 
L 224.639983 246.516452 
L 228.315538 246.874922 
L 231.991094 247.233392 
L 235.666649 247.591862 
L 239.342204 247.950332 
L 243.017759 248.308801 
L 246.693314 248.667271 
L 250.368869 249.025741 
L 254.044425 249.384209 
L 257.71998 249.742677 
L 261.395535 250.10114 
L 265.07109 250.459596 
L 268.746645 250.818034 
L 272.422201 251.176431 
L 276.097756 251.534739 
L 279.773311 251.892845 
L 283.448866 252.250498 
L 287.124421 252.607135 
L 290.799976 252.961493 
L 294.475532 253.310737 
L 298.151087 253.648507 
L 301.826642 253.960536 
L 305.502197 254.214809 
L 309.177752 254.339504 
L 312.853308 254.173475 
L 316.528863 253.355182 
L 320.204418 251.073469 
L 323.879973 245.50843 
L 327.555528 232.576925 
L 331.231083 203.118036 
L 334.906639 136.578339 
L 338.283803 -1 
" style="fill:none;stroke:#d43d4f;stroke-linecap:square;stroke-width:3;"/>
   </g>
   <g id="line2d_7">
    <path clip-path="url(#p9f806a65ab)" d="M 59.24 230.3853 
L 62.915555 230.74377 
L 66.59111 231.10224 
L 70.266666 231.46071 
L 73.942221 231.81918 
L 77.617776 232.17765 
L 81.293331 232.53612 
L 84.968886 232.89459 
L 88.644441 233.25306 
L 92.319997 233.61153 
L 95.995552 233.97 
L 99.671107 234.32847 
L 103.346662 234.68694 
L 107.022217 235.04541 
L 110.697773 235.40388 
L 114.373328 235.762351 
L 118.048883 236.120821 
L 121.724438 236.479291 
L 125.399993 236.837761 
L 129.075548 237.196231 
L 132.751104 237.554701 
L 136.426659 237.913171 
L 140.102214 238.271641 
L 143.777769 238.630111 
L 147.453324 238.988581 
L 151.12888 239.347051 
L 154.804435 239.705521 
L 158.47999 240.063991 
L 162.155545 240.422461 
L 165.8311 240.780931 
L 169.506655 241.139401 
L 173.182211 241.497871 
L 176.857766 241.856341 
L 180.533321 242.21481 
L 184.208876 242.57328 
L 187.884431 242.93175 
L 191.559987 243.290219 
L 195.235542 243.648688 
L 198.911097 244.007157 
L 202.586652 244.365624 
L 206.262207 244.724091 
L 209.937762 245.082556 
L 213.613318 245.441018 
L 217.288873 245.799476 
L 220.964428 246.157928 
L 224.639983 246.516372 
L 228.315538 246.874802 
L 231.991094 247.233213 
L 235.666649 247.591594 
L 239.342204 247.949931 
L 243.017759 248.308201 
L 246.693314 248.666372 
L 250.368869 249.024394 
L 254.044425 249.382194 
L 257.71998 249.739659 
L 261.395535 250.096624 
L 265.07109 250.452839 
L 268.746645 250.807933 
L 272.422201 251.161345 
L 276.097756 251.512239 
L 279.773311 251.859361 
L 283.448866 252.200833 
L 287.124421 252.533843 
L 290.799976 252.854176 
L 294.475532 253.155524 
L 298.151087 253.428431 
L 301.826642 253.658741 
L 305.502197 253.825244 
L 309.177752 253.896173 
L 312.853308 253.823946 
L 316.528863 253.537289 
L 320.204418 252.929448 
L 323.879973 251.840514 
L 327.555528 250.030969 
L 331.231083 247.142047 
L 334.906639 242.636364 
L 338.582194 235.708991 
L 342.257749 225.154257 
L 345.933304 209.166225 
L 349.608859 185.039851 
L 353.284415 148.723344 
L 356.95997 94.147669 
L 360.635525 12.222234 
L 361.030987 -1 
" style="fill:none;stroke:#f46d43;stroke-linecap:square;stroke-width:3;"/>
   </g>
   <g id="line2d_8">
    <path clip-path="url(#p9f806a65ab)" d="M 59.24 230.3853 
L 62.915555 230.74377 
L 66.59111 231.10224 
L 70.266666 231.46071 
L 73.942221 231.81918 
L 77.617776 232.17765 
L 81.293331 232.53612 
L 84.968886 232.89459 
L 88.644441 233.25306 
L 92.319997 233.61153 
L 95.995552 233.97 
L 99.671107 234.32847 
L 103.346662 234.68694 
L 107.022217 235.04541 
L 110.697773 235.40388 
L 114.373328 235.76235 
L 118.048883 236.120819 
L 121.724438 236.479289 
L 125.399993 236.837759 
L 129.075548 237.196228 
L 132.751104 237.554697 
L 136.426659 237.913167 
L 140.102214 238.271635 
L 143.777769 238.630104 
L 147.453324 238.988571 
L 151.12888 239.347039 
L 154.804435 239.705505 
L 158.47999 240.06397 
L 162.155545 240.422434 
L 165.8311 240.780895 
L 169.506655 241.139354 
L 173.182211 241.49781 
L 176.857766 241.856261 
L 180.533321 242.214706 
L 184.208876 242.573143 
L 187.884431 242.931571 
L 191.559987 243.289985 
L 195.235542 243.648382 
L 198.911097 244.006756 
L 202.586652 244.365101 
L 206.262207 244.723407 
L 209.937762 245.081663 
L 213.613318 245.439852 
L 217.288873 245.797955 
L 220.964428 246.155943 
L 224.639983 246.513783 
L 228.315538 246.871428 
L 231.991094 247.228819 
L 235.666649 247.585875 
L 239.342204 247.942495 
L 243.017759 248.298542 
L 246.693314 248.65384 
L 250.368869 249.008158 
L 254.044425 249.361193 
L 257.71998 249.712547 
L 261.395535 250.061702 
L 265.07109 250.407977 
L 268.746645 250.750482 
L 272.422201 251.088052 
L 276.097756 251.419161 
L 279.773311 251.741813 
L 283.448866 252.053392 
L 287.124421 252.350475 
L 290.799976 252.628583 
L 294.475532 252.881848 
L 298.151087 253.102591 
L 301.826642 253.28076 
L 305.502197 253.403192 
L 309.177752 253.452659 
L 312.853308 253.406605 
L 316.528863 253.235502 
L 320.204418 252.900693 
L 323.879973 252.351573 
L 327.555528 251.521894 
L 331.231083 250.324925 
L 334.906639 248.647129 
L 338.582194 246.339869 
L 342.257749 243.20856 
L 345.933304 238.998467 
L 349.608859 233.37611 
L 353.284415 225.904919 
L 356.95997 216.013372 
L 360.635525 202.95327 
L 364.31108 185.745129 
L 367.986635 163.106681 
L 371.66219 133.35927 
L 375.337746 94.305329 
L 379.013301 43.067958 
L 381.424097 -1 
" style="fill:none;stroke:#fdad60;stroke-linecap:square;stroke-width:3;"/>
   </g>
   <g id="line2d_9">
    <path clip-path="url(#p9f806a65ab)" d="M 59.24 230.385298 
L 62.915555 230.743768 
L 66.59111 231.102237 
L 70.266666 231.460707 
L 73.942221 231.819176 
L 77.617776 232.177645 
L 81.293331 232.536114 
L 84.968886 232.894582 
L 88.644441 233.253051 
L 92.319997 233.611519 
L 95.995552 233.969986 
L 99.671107 234.328453 
L 103.346662 234.686919 
L 107.022217 235.045384 
L 110.697773 235.403848 
L 114.373328 235.762311 
L 118.048883 236.120773 
L 121.724438 236.479232 
L 125.399993 236.837689 
L 129.075548 237.196143 
L 132.751104 237.554593 
L 136.426659 237.913039 
L 140.102214 238.271479 
L 143.777769 238.629913 
L 147.453324 238.988339 
L 151.12888 239.346755 
L 154.804435 239.705159 
L 158.47999 240.063548 
L 162.155545 240.421919 
L 165.8311 240.780267 
L 169.506655 241.138589 
L 173.182211 241.496877 
L 176.857766 241.855125 
L 180.533321 242.213322 
L 184.208876 242.571459 
L 187.884431 242.929521 
L 191.559987 243.287492 
L 195.235542 243.645351 
L 198.911097 244.003074 
L 202.586652 244.360628 
L 206.262207 244.717978 
L 209.937762 245.075078 
L 213.613318 245.43187 
L 217.288873 245.788287 
L 220.964428 246.144244 
L 224.639983 246.499639 
L 228.315538 246.854345 
L 231.991094 247.208208 
L 235.666649 247.56104 
L 239.342204 247.91261 
L 243.017759 248.262636 
L 246.693314 248.61077 
L 250.368869 248.956591 
L 254.044425 249.299581 
L 257.71998 249.639104 
L 261.395535 249.974386 
L 265.07109 250.304476 
L 268.746645 250.628213 
L 272.422201 250.944175 
L 276.097756 251.25062 
L 279.773311 251.545418 
L 283.448866 251.825961 
L 287.124421 252.089059 
L 290.799976 252.330806 
L 294.475532 252.546421 
L 298.151087 252.730055 
L 301.826642 252.874548 
L 305.502197 252.971138 
L 309.177752 253.009099 
L 312.853308 252.975308 
L 316.528863 252.853699 
L 320.204418 252.624615 
L 323.879973 252.263993 
L 327.555528 251.742386 
L 331.231083 251.023753 
L 334.906639 250.063987 
L 338.582194 248.809103 
L 342.257749 247.193034 
L 345.933304 245.134919 
L 349.608859 242.535797 
L 353.284415 239.27455 
L 356.95997 235.202947 
L 360.635525 230.139572 
L 364.31108 223.862394 
L 367.986635 216.099675 
L 371.66219 206.518843 
L 375.337746 194.712872 
L 379.013301 180.183615 
L 382.688856 162.321402 
L 386.364411 140.380074 
L 390.039966 113.44643 
L 393.715522 80.402826 
L 397.391077 39.881408 
L 400.416079 -1 
" style="fill:none;stroke:#fee08b;stroke-linecap:square;stroke-width:3;"/>
   </g>
   <g id="line2d_10">
    <path clip-path="url(#p9f806a65ab)" d="M 59.24 230.385263 
L 62.915555 230.743726 
L 66.59111 231.102189 
L 70.266666 231.46065 
L 73.942221 231.819109 
L 77.617776 232.177567 
L 81.293331 232.536023 
L 84.968886 232.894475 
L 88.644441 233.252925 
L 92.319997 233.611372 
L 95.995552 233.969814 
L 99.671107 234.328251 
L 103.346662 234.686683 
L 107.022217 235.045108 
L 110.697773 235.403525 
L 114.373328 235.761932 
L 118.048883 236.120329 
L 121.724438 236.478713 
L 125.399993 236.837081 
L 129.075548 237.195432 
L 132.751104 237.553762 
L 136.426659 237.912067 
L 140.102214 238.270344 
L 143.777769 238.628586 
L 147.453324 238.986789 
L 151.12888 239.344945 
L 154.804435 239.703045 
L 158.47999 240.061081 
L 162.155545 240.419041 
L 165.8311 240.776911 
L 169.506655 241.134676 
L 173.182211 241.492317 
L 176.857766 241.849813 
L 180.533321 242.207138 
L 184.208876 242.564262 
L 187.884431 242.92115 
L 191.559987 243.277761 
L 195.235542 243.634045 
L 198.911097 243.989946 
L 202.586652 244.345396 
L 206.262207 244.700317 
L 209.937762 245.054615 
L 213.613318 245.408181 
L 217.288873 245.760888 
L 220.964428 246.112583 
L 224.639983 246.463089 
L 228.315538 246.812199 
L 231.991094 247.159667 
L 235.666649 247.505205 
L 239.342204 247.848475 
L 243.017759 248.189078 
L 246.693314 248.526548 
L 250.368869 248.860334 
L 254.044425 249.189789 
L 257.71998 249.514156 
L 261.395535 249.832541 
L 265.07109 250.143894 
L 268.746645 250.446982 
L 272.422201 250.740356 
L 276.097756 251.022312 
L 279.773311 251.290846 
L 283.448866 251.543605 
L 287.124421 251.777821 
L 290.799976 251.990242 
L 294.475532 252.177045 
L 298.151087 252.333735 
L 301.826642 252.455032 
L 305.502197 252.534726 
L 309.177752 252.565521 
L 312.853308 252.538838 
L 316.528863 252.444596 
L 320.204418 252.270944 
L 323.879973 252.003953 
L 327.555528 251.627251 
L 331.231083 251.121593 
L 334.906639 250.464359 
L 338.582194 249.628961 
L 342.257749 248.584149 
L 345.933304 247.293188 
L 349.608859 245.712902 
L 353.284415 243.79254 
L 356.95997 241.472452 
L 360.635525 238.68252 
L 364.31108 235.340329 
L 367.986635 231.34901 
L 371.66219 226.594699 
L 375.337746 220.94356 
L 379.013301 214.238282 
L 382.688856 206.293958 
L 386.364411 196.89325 
L 390.039966 185.780695 
L 393.715522 172.656018 
L 397.391077 157.166277 
L 401.066632 138.896616 
L 404.742187 117.359414 
L 408.417742 91.981515 
L 412.093297 62.089225 
L 415.768853 26.890679 
L 418.242904 -1 
" style="fill:none;stroke:#ffffbe;stroke-linecap:square;stroke-width:3;"/>
   </g>
   <g id="line2d_11">
    <path clip-path="url(#p9f806a65ab)" d="M 59.24 230.385022 
L 62.915555 230.743452 
L 66.59111 231.101876 
L 70.266666 231.460294 
L 73.942221 231.818704 
L 77.617776 232.177105 
L 81.293331 232.535496 
L 84.968886 232.893876 
L 88.644441 233.252244 
L 92.319997 233.610596 
L 95.995552 233.968931 
L 99.671107 234.327247 
L 103.346662 234.685541 
L 107.022217 235.043809 
L 110.697773 235.402048 
L 114.373328 235.760254 
L 118.048883 236.118422 
L 121.724438 236.476546 
L 125.399993 236.83462 
L 129.075548 237.192638 
L 132.751104 237.55059 
L 136.426659 237.908467 
L 140.102214 238.266259 
L 143.777769 238.623953 
L 147.453324 238.981536 
L 151.12888 239.33899 
L 154.804435 239.696298 
L 158.47999 240.053438 
L 162.155545 240.410387 
L 165.8311 240.767116 
L 169.506655 241.123594 
L 173.182211 241.479785 
L 176.857766 241.835648 
L 180.533321 242.191135 
L 184.208876 242.546191 
L 187.884431 242.900756 
L 191.559987 243.254757 
L 195.235542 243.608114 
L 198.911097 243.960735 
L 202.586652 244.312511 
L 206.262207 244.663323 
L 209.937762 245.01303 
L 213.613318 245.361475 
L 217.288873 245.708473 
L 220.964428 246.053818 
L 224.639983 246.397271 
L 228.315538 246.738559 
L 231.991094 247.07737 
L 235.666649 247.413346 
L 239.342204 247.746079 
L 243.017759 248.075102 
L 246.693314 248.399879 
L 250.368869 248.719799 
L 254.044425 249.034161 
L 257.71998 249.342164 
L 261.395535 249.642891 
L 265.07109 249.935293 
L 268.746645 250.21817 
L 272.422201 250.490149 
L 276.097756 250.749659 
L 279.773311 250.994901 
L 283.448866 251.223819 
L 287.124421 251.434059 
L 290.799976 251.62293 
L 294.475532 251.787348 
L 298.151087 251.92379 
L 301.826642 252.028223 
L 305.502197 252.09603 
L 309.177752 252.121933 
L 312.853308 252.099889 
L 316.528863 252.022985 
L 320.204418 251.883314 
L 323.879973 251.671826 
L 327.555528 251.378166 
L 331.231083 250.990488 
L 334.906639 250.495237 
L 338.582194 249.876905 
L 342.257749 249.117746 
L 345.933304 248.197459 
L 349.608859 247.092811 
L 353.284415 245.777225 
L 356.95997 244.220289 
L 360.635525 242.387208 
L 364.31108 240.238168 
L 367.986635 237.72762 
L 371.66219 234.803443 
L 375.337746 231.406004 
L 379.013301 227.467073 
L 382.688856 222.908582 
L 386.364411 217.64121 
L 390.039966 211.562755 
L 393.715522 204.556285 
L 397.391077 196.488005 
L 401.066632 187.204835 
L 404.742187 176.531622 
L 408.417742 164.267964 
L 412.093297 150.184564 
L 415.768853 134.019068 
L 419.444408 115.4713 
L 423.119963 94.197806 
" style="fill:none;stroke:#e6f598;stroke-linecap:square;stroke-width:3;"/>
   </g>
   <g id="line2d_12">
    <path clip-path="url(#p9f806a65ab)" d="M 59.24 230.384098 
L 62.915555 230.742421 
L 66.59111 231.100726 
L 70.266666 231.459011 
L 73.942221 231.817273 
L 77.617776 232.17551 
L 81.293331 232.533718 
L 84.968886 232.891894 
L 88.644441 233.250034 
L 92.319997 233.608134 
L 95.995552 233.966189 
L 99.671107 234.324192 
L 103.346662 234.682139 
L 107.022217 235.040021 
L 110.697773 235.397832 
L 114.373328 235.755561 
L 118.048883 236.113201 
L 121.724438 236.470738 
L 125.399993 236.828162 
L 129.075548 237.185457 
L 132.751104 237.542609 
L 136.426659 237.8996 
L 140.102214 238.256409 
L 143.777769 238.613015 
L 147.453324 238.969393 
L 151.12888 239.325515 
L 154.804435 239.68135 
L 158.47999 240.036862 
L 162.155545 240.392013 
L 165.8311 240.746757 
L 169.506655 241.101045 
L 173.182211 241.454822 
L 176.857766 241.808024 
L 180.533321 242.160581 
L 184.208876 242.512415 
L 187.884431 242.863438 
L 191.559987 243.213548 
L 195.235542 243.562636 
L 198.911097 243.910576 
L 202.586652 244.257227 
L 206.262207 244.602432 
L 209.937762 244.946013 
L 213.613318 245.287773 
L 217.288873 245.627488 
L 220.964428 245.964908 
L 224.639983 246.299752 
L 228.315538 246.631705 
L 231.991094 246.960414 
L 235.666649 247.28548 
L 239.342204 247.606459 
L 243.017759 247.92285 
L 246.693314 248.234093 
L 250.368869 248.539556 
L 254.044425 248.838532 
L 257.71998 249.130229 
L 261.395535 249.413755 
L 265.07109 249.68811 
L 268.746645 249.952172 
L 272.422201 250.204682 
L 276.097756 250.444226 
L 279.773311 250.669217 
L 283.448866 250.877874 
L 287.124421 251.0682 
L 290.799976 251.23795 
L 294.475532 251.384607 
L 298.151087 251.505344 
L 301.826642 251.596992 
L 305.502197 251.655988 
L 309.177752 251.678339 
L 312.853308 251.65956 
L 316.528863 251.594619 
L 320.204418 251.477865 
L 323.879973 251.30296 
L 327.555528 251.062786 
L 331.231083 250.749359 
L 334.906639 250.353713 
L 338.582194 249.865788 
L 342.257749 249.274292 
L 345.933304 248.566551 
L 349.608859 247.728341 
L 353.284415 246.743696 
L 356.95997 245.594698 
L 360.635525 244.261236 
L 364.31108 242.720736 
L 367.986635 240.947864 
L 371.66219 238.914185 
L 375.337746 236.587786 
L 379.013301 233.932847 
L 382.688856 230.909165 
L 386.364411 227.471618 
L 390.039966 223.569562 
L 393.715522 219.146158 
L 397.391077 214.137609 
L 401.066632 208.472312 
L 404.742187 202.069903 
L 408.417742 194.840183 
L 412.093297 186.681917 
L 415.768853 177.481481 
L 419.444408 167.111348 
L 423.119963 155.428384 
" style="fill:none;stroke:#aadca4;stroke-linecap:square;stroke-width:3;"/>
   </g>
   <g id="line2d_13">
    <path clip-path="url(#p9f806a65ab)" d="M 59.24 230.381633 
L 62.915555 230.739713 
L 66.59111 231.097752 
L 70.266666 231.455745 
L 73.942221 231.813687 
L 77.617776 232.171574 
L 81.293331 232.529398 
L 84.968886 232.887153 
L 88.644441 233.244833 
L 92.319997 233.602429 
L 95.995552 233.959931 
L 99.671107 234.317331 
L 103.346662 234.674617 
L 107.022217 235.031777 
L 110.697773 235.388798 
L 114.373328 235.745665 
L 118.048883 236.102362 
L 121.724438 236.45887 
L 125.399993 236.815169 
L 129.075548 237.171238 
L 132.751104 237.527052 
L 136.426659 237.882583 
L 140.102214 238.237802 
L 143.777769 238.592676 
L 147.453324 238.947167 
L 151.12888 239.301235 
L 154.804435 239.654835 
L 158.47999 240.007918 
L 162.155545 240.360428 
L 165.8311 240.712305 
L 169.506655 241.063481 
L 173.182211 241.413881 
L 176.857766 241.763424 
L 180.533321 242.112019 
L 184.208876 242.459563 
L 187.884431 242.805946 
L 191.559987 243.151045 
L 195.235542 243.494722 
L 198.911097 243.836827 
L 202.586652 244.177192 
L 206.262207 244.515634 
L 209.937762 244.851946 
L 213.613318 245.185904 
L 217.288873 245.517256 
L 220.964428 245.845725 
L 224.639983 246.171006 
L 228.315538 246.49276 
L 231.991094 246.81061 
L 235.666649 247.124144 
L 239.342204 247.432901 
L 243.017759 247.736375 
L 246.693314 248.034003 
L 250.368869 248.325164 
L 254.044425 248.609171 
L 257.71998 248.885264 
L 261.395535 249.152601 
L 265.07109 249.410252 
L 268.746645 249.657186 
L 272.422201 249.892266 
L 276.097756 250.114231 
L 279.773311 250.321688 
L 283.448866 250.513093 
L 287.124421 250.686741 
L 290.799976 250.840745 
L 294.475532 250.973017 
L 298.151087 251.081247 
L 301.826642 251.162879 
L 305.502197 251.215087 
L 309.177752 251.234743 
L 312.853308 251.218387 
L 316.528863 251.162191 
L 320.204418 251.061922 
L 323.879973 250.912894 
L 327.555528 250.709926 
L 331.231083 250.447283 
L 334.906639 250.118623 
L 338.582194 249.716931 
L 342.257749 249.234442 
L 345.933304 248.662569 
L 349.608859 247.991812 
L 353.284415 247.211661 
L 356.95997 246.310489 
L 360.635525 245.275431 
L 364.31108 244.092259 
L 367.986635 242.745229 
L 371.66219 241.216926 
L 375.337746 239.488081 
L 379.013301 237.53738 
L 382.688856 235.341242 
L 386.364411 232.87358 
L 390.039966 230.105536 
L 393.715522 227.00518 
L 397.391077 223.537194 
L 401.066632 219.662502 
L 404.742187 215.337877 
L 408.417742 210.515495 
L 412.093297 205.142452 
L 415.768853 199.160219 
L 419.444408 192.504047 
L 423.119963 185.102304 
" style="fill:none;stroke:#66c2a5;stroke-linecap:square;stroke-width:3;"/>
   </g>
   <g id="line2d_14">
    <path clip-path="url(#p9f806a65ab)" d="M 59.24 230.376444 
L 62.915555 230.734083 
L 66.59111 231.091642 
L 70.266666 231.449117 
L 73.942221 231.806498 
L 77.617776 232.163777 
L 81.293331 232.520943 
L 84.968886 232.877988 
L 88.644441 233.234898 
L 92.319997 233.591662 
L 95.995552 233.948265 
L 99.671107 234.304694 
L 103.346662 234.66093 
L 107.022217 235.016957 
L 110.697773 235.372754 
L 114.373328 235.7283 
L 118.048883 236.083571 
L 121.724438 236.438542 
L 125.399993 236.793184 
L 129.075548 237.147466 
L 132.751104 237.501355 
L 136.426659 237.854814 
L 140.102214 238.207802 
L 143.777769 238.560275 
L 147.453324 238.912185 
L 151.12888 239.263478 
L 154.804435 239.614097 
L 158.47999 239.963979 
L 162.155545 240.313053 
L 165.8311 240.661245 
L 169.506655 241.008472 
L 173.182211 241.354643 
L 176.857766 241.699658 
L 180.533321 242.043409 
L 184.208876 242.385777 
L 187.884431 242.726633 
L 191.559987 243.065834 
L 195.235542 243.403224 
L 198.911097 243.738635 
L 202.586652 244.071879 
L 206.262207 244.402754 
L 209.937762 244.731037 
L 213.613318 245.056483 
L 217.288873 245.378827 
L 220.964428 245.697778 
L 224.639983 246.013016 
L 228.315538 246.324193 
L 231.991094 246.630927 
L 235.666649 246.932801 
L 239.342204 247.229358 
L 243.017759 247.520099 
L 246.693314 247.804477 
L 250.368869 248.081896 
L 254.044425 248.3517 
L 257.71998 248.613175 
L 261.395535 248.865538 
L 265.07109 249.107933 
L 268.746645 249.339424 
L 272.422201 249.558987 
L 276.097756 249.7655 
L 279.773311 249.957738 
L 283.448866 250.134361 
L 287.124421 250.293901 
L 290.799976 250.434752 
L 294.475532 250.555161 
L 298.151087 250.653206 
L 301.826642 250.726786 
L 305.502197 250.773603 
L 309.177752 250.791144 
L 312.853308 250.776657 
L 316.528863 250.727134 
L 320.204418 250.639284 
L 323.879973 250.509507 
L 327.555528 250.333863 
L 331.231083 250.108043 
L 334.906639 249.827335 
L 338.582194 249.486582 
L 342.257749 249.080143 
L 345.933304 248.601848 
L 349.608859 248.044946 
L 353.284415 247.402054 
L 356.95997 246.665092 
L 360.635525 245.825225 
L 364.31108 244.872784 
L 367.986635 243.797195 
L 371.66219 242.58689 
L 375.337746 241.229212 
L 379.013301 239.710317 
L 382.688856 238.015061 
L 386.364411 236.126876 
L 390.039966 234.027638 
L 393.715522 231.69752 
L 397.391077 229.114834 
L 401.066632 226.255853 
L 404.742187 223.094621 
L 408.417742 219.602745 
L 412.093297 215.749164 
L 415.768853 211.499898 
L 419.444408 206.817777 
L 423.119963 201.662138 
" style="fill:none;stroke:#3387bc;stroke-linecap:square;stroke-width:3;"/>
   </g>
   <g id="line2d_15">
    <path clip-path="url(#p9f806a65ab)" d="M 59.24 230.367171 
L 62.915555 230.724115 
L 66.59111 231.080931 
L 70.266666 231.437607 
L 73.942221 231.794133 
L 77.617776 232.150495 
L 81.293331 232.50668 
L 84.968886 232.862672 
L 88.644441 233.218456 
L 92.319997 233.574013 
L 95.995552 233.929326 
L 99.671107 234.284372 
L 103.346662 234.639131 
L 107.022217 234.993577 
L 110.697773 235.347685 
L 114.373328 235.701425 
L 118.048883 236.054768 
L 121.724438 236.407679 
L 125.399993 236.760122 
L 129.075548 237.112057 
L 132.751104 237.463443 
L 136.426659 237.814233 
L 140.102214 238.164376 
L 143.777769 238.513818 
L 147.453324 238.862501 
L 151.12888 239.21036 
L 154.804435 239.557325 
L 158.47999 239.903323 
L 162.155545 240.24827 
L 165.8311 240.59208 
L 169.506655 240.934656 
L 173.182211 241.275894 
L 176.857766 241.615682 
L 180.533321 241.953897 
L 184.208876 242.290408 
L 187.884431 242.625071 
L 191.559987 242.95773 
L 195.235542 243.288216 
L 198.911097 243.616348 
L 202.586652 243.941926 
L 206.262207 244.264736 
L 209.937762 244.584544 
L 213.613318 244.901099 
L 217.288873 245.214126 
L 220.964428 245.523328 
L 224.639983 245.828384 
L 228.315538 246.128944 
L 231.991094 246.424631 
L 235.666649 246.715033 
L 239.342204 246.999707 
L 243.017759 247.27817 
L 246.693314 247.549899 
L 250.368869 247.814328 
L 254.044425 248.070842 
L 257.71998 248.318775 
L 261.395535 248.557405 
L 265.07109 248.785949 
L 268.746645 249.003558 
L 272.422201 249.209312 
L 276.097756 249.402212 
L 279.773311 249.581178 
L 283.448866 249.745037 
L 287.124421 249.892516 
L 290.799976 250.022238 
L 294.475532 250.132707 
L 298.151087 250.222305 
L 301.826642 250.289273 
L 305.502197 250.331707 
L 309.177752 250.347544 
L 312.853308 250.334543 
L 316.528863 250.290278 
L 320.204418 250.212117 
L 323.879973 250.097209 
L 327.555528 249.94246 
L 331.231083 249.744517 
L 334.906639 249.499744 
L 338.582194 249.204201 
L 342.257749 248.853615 
L 345.933304 248.443352 
L 349.608859 247.968391 
L 353.284415 247.423285 
L 356.95997 246.802133 
L 360.635525 246.098532 
L 364.31108 245.305545 
L 367.986635 244.415647 
L 371.66219 243.420684 
L 375.337746 242.311812 
L 379.013301 241.079444 
L 382.688856 239.713186 
L 386.364411 238.201771 
L 390.039966 236.532981 
L 393.715522 234.693572 
L 397.391077 232.669182 
L 401.066632 230.444245 
L 404.742187 228.00188 
L 408.417742 225.32379 
L 412.093297 222.390134 
L 415.768853 219.179403 
L 419.444408 215.668278 
L 423.119963 211.831478 
" style="fill:none;stroke:#5e4fa2;stroke-linecap:square;stroke-width:3;"/>
   </g>
   <g id="line2d_16">
    <path clip-path="url(#p9f806a65ab)" d="M 423.119963 276.964 
L 423.119963 10.8 
" style="fill:none;stroke:#000000;stroke-dasharray:3,4.95;stroke-dashoffset:0;stroke-width:3;"/>
   </g>
   <g id="line2d_17">
    <path clip-path="url(#p9f806a65ab)" d="M 59.24 232.603333 
L 445.862461 232.603333 
" style="fill:none;stroke:#000000;stroke-dasharray:11.1,4.8;stroke-dashoffset:0;stroke-width:3;"/>
   </g>
   <g id="patch_3">
    <path d="M 59.24 276.964 
L 59.24 10.8 
" style="fill:none;stroke:#000000;stroke-linecap:square;stroke-linejoin:miter;stroke-width:3;"/>
   </g>
   <g id="patch_4">
    <path d="M 59.24 276.964 
L 445.862461 276.964 
" style="fill:none;stroke:#000000;stroke-linecap:square;stroke-linejoin:miter;stroke-width:3;"/>
   </g>
   <g id="legend_1">
    <g id="patch_5">
     <path d="M 66.24 121.546875 
L 148.04625 121.546875 
Q 150.04625 121.546875 150.04625 119.546875 
L 150.04625 17.8 
Q 150.04625 15.8 148.04625 15.8 
L 66.24 15.8 
Q 64.24 15.8 64.24 17.8 
L 64.24 119.546875 
Q 64.24 121.546875 66.24 121.546875 
z
" style="fill:#ffffff;opacity:0.8;stroke:#cccccc;stroke-linejoin:miter;"/>
    </g>
    <g id="text_7">
     <!-- $\Delta_T$ -->
     <g transform="translate(101.393125 27.398438)scale(0.1 -0.1)">
      <defs>
       <path d="M 2188 4044 
L 906 525 
L 3472 525 
L 2188 4044 
z
M 50 0 
L 1831 4666 
L 2547 4666 
L 4325 0 
L 50 0 
z
" id="DejaVuSans-394" transform="scale(0.015625)"/>
       <path d="M 378 4666 
L 4325 4666 
L 4225 4134 
L 2559 4134 
L 1759 0 
L 1125 0 
L 1925 4134 
L 275 4134 
L 378 4666 
z
" id="DejaVuSans-Oblique-54" transform="scale(0.015625)"/>
      </defs>
      <use transform="translate(0 0.09375)" xlink:href="#DejaVuSans-394"/>
      <use transform="translate(69.365234 -16.3125)scale(0.7)" xlink:href="#DejaVuSans-Oblique-54"/>
     </g>
    </g>
    <g id="line2d_18">
     <path d="M 68.24 38.576563 
L 73.24 38.576563 
" style="fill:none;stroke:#9e0142;stroke-linecap:square;stroke-width:3;"/>
    </g>
    <g id="line2d_19"/>
    <g id="text_8">
     <!-- 0.1 -->
     <g transform="translate(81.24 42.076563)scale(0.1 -0.1)">
      <defs>
       <path d="M 684 794 
L 1344 794 
L 1344 0 
L 684 0 
L 684 794 
z
" id="DejaVuSans-2e" transform="scale(0.015625)"/>
       <path d="M 794 531 
L 1825 531 
L 1825 4091 
L 703 3866 
L 703 4441 
L 1819 4666 
L 2450 4666 
L 2450 531 
L 3481 531 
L 3481 0 
L 794 0 
L 794 531 
z
" id="DejaVuSans-31" transform="scale(0.015625)"/>
      </defs>
      <use xlink:href="#DejaVuSans-30"/>
      <use x="63.623047" xlink:href="#DejaVuSans-2e"/>
      <use x="95.410156" xlink:href="#DejaVuSans-31"/>
     </g>
    </g>
    <g id="line2d_20">
     <path d="M 68.24 53.254688 
L 73.24 53.254688 
" style="fill:none;stroke:#d43d4f;stroke-linecap:square;stroke-width:3;"/>
    </g>
    <g id="line2d_21"/>
    <g id="text_9">
     <!-- 0.2 -->
     <g transform="translate(81.24 56.754688)scale(0.1 -0.1)">
      <defs>
       <path d="M 1228 531 
L 3431 531 
L 3431 0 
L 469 0 
L 469 531 
Q 828 903 1448 1529 
Q 2069 2156 2228 2338 
Q 2531 2678 2651 2914 
Q 2772 3150 2772 3378 
Q 2772 3750 2511 3984 
Q 2250 4219 1831 4219 
Q 1534 4219 1204 4116 
Q 875 4013 500 3803 
L 500 4441 
Q 881 4594 1212 4672 
Q 1544 4750 1819 4750 
Q 2544 4750 2975 4387 
Q 3406 4025 3406 3419 
Q 3406 3131 3298 2873 
Q 3191 2616 2906 2266 
Q 2828 2175 2409 1742 
Q 1991 1309 1228 531 
z
" id="DejaVuSans-32" transform="scale(0.015625)"/>
      </defs>
      <use xlink:href="#DejaVuSans-30"/>
      <use x="63.623047" xlink:href="#DejaVuSans-2e"/>
      <use x="95.410156" xlink:href="#DejaVuSans-32"/>
     </g>
    </g>
    <g id="line2d_22">
     <path d="M 68.24 67.932813 
L 73.24 67.932813 
" style="fill:none;stroke:#f46d43;stroke-linecap:square;stroke-width:3;"/>
    </g>
    <g id="line2d_23"/>
    <g id="text_10">
     <!-- 0.4 -->
     <g transform="translate(81.24 71.432813)scale(0.1 -0.1)">
      <defs>
       <path d="M 2419 4116 
L 825 1625 
L 2419 1625 
L 2419 4116 
z
M 2253 4666 
L 3047 4666 
L 3047 1625 
L 3713 1625 
L 3713 1100 
L 3047 1100 
L 3047 0 
L 2419 0 
L 2419 1100 
L 313 1100 
L 313 1709 
L 2253 4666 
z
" id="DejaVuSans-34" transform="scale(0.015625)"/>
      </defs>
      <use xlink:href="#DejaVuSans-30"/>
      <use x="63.623047" xlink:href="#DejaVuSans-2e"/>
      <use x="95.410156" xlink:href="#DejaVuSans-34"/>
     </g>
    </g>
    <g id="line2d_24">
     <path d="M 68.24 82.610938 
L 73.24 82.610938 
" style="fill:none;stroke:#fdad60;stroke-linecap:square;stroke-width:3;"/>
    </g>
    <g id="line2d_25"/>
    <g id="text_11">
     <!-- 0.6 -->
     <g transform="translate(81.24 86.110938)scale(0.1 -0.1)">
      <defs>
       <path d="M 2113 2584 
Q 1688 2584 1439 2293 
Q 1191 2003 1191 1497 
Q 1191 994 1439 701 
Q 1688 409 2113 409 
Q 2538 409 2786 701 
Q 3034 994 3034 1497 
Q 3034 2003 2786 2293 
Q 2538 2584 2113 2584 
z
M 3366 4563 
L 3366 3988 
Q 3128 4100 2886 4159 
Q 2644 4219 2406 4219 
Q 1781 4219 1451 3797 
Q 1122 3375 1075 2522 
Q 1259 2794 1537 2939 
Q 1816 3084 2150 3084 
Q 2853 3084 3261 2657 
Q 3669 2231 3669 1497 
Q 3669 778 3244 343 
Q 2819 -91 2113 -91 
Q 1303 -91 875 529 
Q 447 1150 447 2328 
Q 447 3434 972 4092 
Q 1497 4750 2381 4750 
Q 2619 4750 2861 4703 
Q 3103 4656 3366 4563 
z
" id="DejaVuSans-36" transform="scale(0.015625)"/>
      </defs>
      <use xlink:href="#DejaVuSans-30"/>
      <use x="63.623047" xlink:href="#DejaVuSans-2e"/>
      <use x="95.410156" xlink:href="#DejaVuSans-36"/>
     </g>
    </g>
    <g id="line2d_26">
     <path d="M 68.24 97.289063 
L 73.24 97.289063 
" style="fill:none;stroke:#fee08b;stroke-linecap:square;stroke-width:3;"/>
    </g>
    <g id="line2d_27"/>
    <g id="text_12">
     <!-- 0.8 -->
     <g transform="translate(81.24 100.789063)scale(0.1 -0.1)">
      <defs>
       <path d="M 2034 2216 
Q 1584 2216 1326 1975 
Q 1069 1734 1069 1313 
Q 1069 891 1326 650 
Q 1584 409 2034 409 
Q 2484 409 2743 651 
Q 3003 894 3003 1313 
Q 3003 1734 2745 1975 
Q 2488 2216 2034 2216 
z
M 1403 2484 
Q 997 2584 770 2862 
Q 544 3141 544 3541 
Q 544 4100 942 4425 
Q 1341 4750 2034 4750 
Q 2731 4750 3128 4425 
Q 3525 4100 3525 3541 
Q 3525 3141 3298 2862 
Q 3072 2584 2669 2484 
Q 3125 2378 3379 2068 
Q 3634 1759 3634 1313 
Q 3634 634 3220 271 
Q 2806 -91 2034 -91 
Q 1263 -91 848 271 
Q 434 634 434 1313 
Q 434 1759 690 2068 
Q 947 2378 1403 2484 
z
M 1172 3481 
Q 1172 3119 1398 2916 
Q 1625 2713 2034 2713 
Q 2441 2713 2670 2916 
Q 2900 3119 2900 3481 
Q 2900 3844 2670 4047 
Q 2441 4250 2034 4250 
Q 1625 4250 1398 4047 
Q 1172 3844 1172 3481 
z
" id="DejaVuSans-38" transform="scale(0.015625)"/>
      </defs>
      <use xlink:href="#DejaVuSans-30"/>
      <use x="63.623047" xlink:href="#DejaVuSans-2e"/>
      <use x="95.410156" xlink:href="#DejaVuSans-38"/>
     </g>
    </g>
    <g id="line2d_28">
     <path d="M 68.24 111.967188 
L 73.24 111.967188 
" style="fill:none;stroke:#ffffbe;stroke-linecap:square;stroke-width:3;"/>
    </g>
    <g id="line2d_29"/>
    <g id="text_13">
     <!-- 1.0 -->
     <g transform="translate(81.24 115.467188)scale(0.1 -0.1)">
      <use xlink:href="#DejaVuSans-31"/>
      <use x="63.623047" xlink:href="#DejaVuSans-2e"/>
      <use x="95.410156" xlink:href="#DejaVuSans-30"/>
     </g>
    </g>
    <g id="line2d_30">
     <path d="M 117.143125 38.576563 
L 122.143125 38.576563 
" style="fill:none;stroke:#e6f598;stroke-linecap:square;stroke-width:3;"/>
    </g>
    <g id="line2d_31"/>
    <g id="text_14">
     <!-- 1.2 -->
     <g transform="translate(130.143125 42.076563)scale(0.1 -0.1)">
      <use xlink:href="#DejaVuSans-31"/>
      <use x="63.623047" xlink:href="#DejaVuSans-2e"/>
      <use x="95.410156" xlink:href="#DejaVuSans-32"/>
     </g>
    </g>
    <g id="line2d_32">
     <path d="M 117.143125 53.254688 
L 122.143125 53.254688 
" style="fill:none;stroke:#aadca4;stroke-linecap:square;stroke-width:3;"/>
    </g>
    <g id="line2d_33"/>
    <g id="text_15">
     <!-- 1.4 -->
     <g transform="translate(130.143125 56.754688)scale(0.1 -0.1)">
      <use xlink:href="#DejaVuSans-31"/>
      <use x="63.623047" xlink:href="#DejaVuSans-2e"/>
      <use x="95.410156" xlink:href="#DejaVuSans-34"/>
     </g>
    </g>
    <g id="line2d_34">
     <path d="M 117.143125 67.932813 
L 122.143125 67.932813 
" style="fill:none;stroke:#66c2a5;stroke-linecap:square;stroke-width:3;"/>
    </g>
    <g id="line2d_35"/>
    <g id="text_16">
     <!-- 1.6 -->
     <g transform="translate(130.143125 71.432813)scale(0.1 -0.1)">
      <use xlink:href="#DejaVuSans-31"/>
      <use x="63.623047" xlink:href="#DejaVuSans-2e"/>
      <use x="95.410156" xlink:href="#DejaVuSans-36"/>
     </g>
    </g>
    <g id="line2d_36">
     <path d="M 117.143125 82.610938 
L 122.143125 82.610938 
" style="fill:none;stroke:#3387bc;stroke-linecap:square;stroke-width:3;"/>
    </g>
    <g id="line2d_37"/>
    <g id="text_17">
     <!-- 1.8 -->
     <g transform="translate(130.143125 86.110938)scale(0.1 -0.1)">
      <use xlink:href="#DejaVuSans-31"/>
      <use x="63.623047" xlink:href="#DejaVuSans-2e"/>
      <use x="95.410156" xlink:href="#DejaVuSans-38"/>
     </g>
    </g>
    <g id="line2d_38">
     <path d="M 117.143125 97.289063 
L 122.143125 97.289063 
" style="fill:none;stroke:#5e4fa2;stroke-linecap:square;stroke-width:3;"/>
    </g>
    <g id="line2d_39"/>
    <g id="text_18">
     <!-- 2.0 -->
     <g transform="translate(130.143125 100.789063)scale(0.1 -0.1)">
      <use xlink:href="#DejaVuSans-32"/>
      <use x="63.623047" xlink:href="#DejaVuSans-2e"/>
      <use x="95.410156" xlink:href="#DejaVuSans-30"/>
     </g>
    </g>
   </g>
  </g>
 </g>
 <defs>
  <clipPath id="p9f806a65ab">
   <rect height="266.164" width="386.622461" x="59.24" y="10.8"/>
  </clipPath>
 </defs>
</svg>
