<?xml version="1.0" encoding="utf-8" standalone="no"?>
<!DOCTYPE svg PUBLIC "-//W3C//DTD SVG 1.1//EN"
  "http://www.w3.org/Graphics/SVG/1.1/DTD/svg11.dtd">
<svg height="345.6pt" version="1.1" viewBox="0 0 345.6 345.6" width="345.6pt" xmlns="http://www.w3.org/2000/svg" xmlns:xlink="http://www.w3.org/1999/xlink">
 <metadata>
  <rdf:RDF xmlns:cc="http://creativecommons.org/ns#" xmlns:dc="http://purl.org/dc/elements/1.1/" xmlns:rdf="http://www.w3.org/1999/02/22-rdf-syntax-ns#">
   <cc:Work>
    <dc:type rdf:resource="http://purl.org/dc/dcmitype/StillImage"/>
    <dc:date>2022-08-08T17:51:28.669194</dc:date>
    <dc:format>image/svg+xml</dc:format>
    <dc:creator>
     <cc:Agent>
      <dc:title>Matplotlib v3.4.2, https://matplotlib.org/</dc:title>
     </cc:Agent>
    </dc:creator>
   </cc:Work>
  </rdf:RDF>
 </metadata>
 <defs>
  <style type="text/css">*{stroke-linecap:butt;stroke-linejoin:round;}</style>
 </defs>
 <g id="figure_1">
  <g id="patch_1">
   <path d="M 0 345.6 
L 345.6 345.6 
L 345.6 0 
L 0 0 
z
" style="fill:#ffffff;"/>
  </g>
  <g id="axes_1">
   <g id="patch_2">
    <path d="M 34.96 310.64 
L 334.8 310.64 
L 334.8 10.8 
L 34.96 10.8 
z
" style="fill:#ffffff;"/>
   </g>
   <g id="patch_3">
    <path clip-path="url(#p23062d90a0)" d="M 147.4 203.554286 
L 222.36 203.554286 
L 222.36 160.72 
L 147.4 160.72 
z
" style="fill:none;stroke:#000000;stroke-dasharray:5,8.25;stroke-dashoffset:0;stroke-linejoin:miter;stroke-width:5;"/>
   </g>
   <g id="matplotlib.axis_1">
    <g id="text_1">
     <!-- $x$ -->
     <g transform="translate(178.88 329.836875)scale(0.2 -0.2)">
      <defs>
       <path d="M 3841 3500 
L 2234 1784 
L 3219 0 
L 2559 0 
L 1819 1388 
L 531 0 
L -166 0 
L 1556 1844 
L 641 3500 
L 1300 3500 
L 1972 2234 
L 3144 3500 
L 3841 3500 
z
" id="DejaVuSans-Oblique-78" transform="scale(0.015625)"/>
      </defs>
      <use transform="translate(0 0.3125)" xlink:href="#DejaVuSans-Oblique-78"/>
     </g>
    </g>
   </g>
   <g id="matplotlib.axis_2">
    <g id="text_2">
     <!-- $y$ -->
     <g transform="translate(26.76 166.72)rotate(-90)scale(0.2 -0.2)">
      <defs>
       <path d="M 1588 -325 
Q 1188 -997 936 -1164 
Q 684 -1331 294 -1331 
L -159 -1331 
L -63 -850 
L 269 -850 
Q 509 -850 678 -719 
Q 847 -588 1056 -206 
L 1234 128 
L 459 3500 
L 1069 3500 
L 1650 819 
L 3256 3500 
L 3859 3500 
L 1588 -325 
z
" id="DejaVuSans-Oblique-79" transform="scale(0.015625)"/>
      </defs>
      <use transform="translate(0 0.3125)" xlink:href="#DejaVuSans-Oblique-79"/>
     </g>
    </g>
   </g>
   <g id="line2d_1">
    <path clip-path="url(#p23062d90a0)" d="M 109.92 310.64 
L 109.92 10.8 
" style="fill:none;stroke:#000000;stroke-linecap:square;stroke-width:3;"/>
   </g>
   <g id="line2d_2">
    <path clip-path="url(#p23062d90a0)" d="M 34.96 224.971429 
L 334.8 224.971429 
" style="fill:none;stroke:#000000;stroke-linecap:square;stroke-width:3;"/>
   </g>
   <g id="line2d_3">
    <path clip-path="url(#p23062d90a0)" d="M -1 131.126894 
L 0.130101 133.083779 
L 7.701818 145.320897 
L 15.273535 156.683936 
L 22.845253 167.172895 
L 30.41697 176.787774 
L 37.988687 185.528573 
L 45.560404 193.395292 
L 53.132121 200.387931 
L 60.703838 206.506491 
L 68.275556 211.75097 
L 75.847273 216.12137 
L 83.41899 219.617689 
L 90.990707 222.239929 
L 98.562424 223.988089 
L 106.134141 224.862169 
L 113.705859 224.862169 
L 121.277576 223.988089 
L 128.849293 222.239929 
L 136.42101 219.617689 
L 143.992727 216.12137 
L 151.564444 211.75097 
L 159.136162 206.506491 
L 166.707879 200.387931 
L 174.279596 193.395292 
L 181.851313 185.528573 
L 189.42303 176.787774 
L 196.994747 167.172895 
L 204.566465 156.683936 
L 212.138182 145.320897 
L 219.709899 133.083779 
L 227.281616 119.97258 
L 234.853333 105.987302 
L 242.425051 91.127943 
L 249.996768 75.394505 
L 257.568485 58.786987 
L 265.140202 41.305389 
L 272.711919 22.949711 
L 280.283636 3.719953 
L 282.061314 -1 
" style="fill:none;stroke:#000000;stroke-linecap:square;stroke-width:5;"/>
   </g>
   <g id="line2d_4">
    <path clip-path="url(#p23062d90a0)" d="M 40.975 346.6 
L 45.560404 341.359538 
L 53.132121 332.706147 
L 60.703838 324.052756 
L 68.275556 315.399365 
L 75.847273 306.745974 
L 83.41899 298.092583 
L 90.990707 289.439192 
L 98.562424 280.785801 
L 106.134141 272.13241 
L 113.705859 263.479019 
L 121.277576 254.825628 
L 128.849293 246.172237 
L 136.42101 237.518846 
L 143.992727 228.865455 
L 151.564444 220.212063 
L 159.136162 211.558672 
L 166.707879 202.905281 
L 174.279596 194.25189 
L 181.851313 185.598499 
L 189.42303 176.945108 
L 196.994747 168.291717 
L 204.566465 159.638326 
L 212.138182 150.984935 
L 219.709899 142.331544 
L 227.281616 133.678153 
L 234.853333 125.024762 
L 242.425051 116.371371 
L 249.996768 107.71798 
L 257.568485 99.064589 
L 265.140202 90.411198 
L 272.711919 81.757807 
L 280.283636 73.104416 
L 287.855354 64.451025 
L 295.427071 55.797633 
L 302.998788 47.144242 
L 310.570505 38.490851 
L 318.142222 29.83746 
L 325.713939 21.184069 
L 333.285657 12.530678 
L 340.857374 3.877287 
L 345.125 -1 
" style="fill:none;stroke:#4872a1;stroke-linecap:square;stroke-width:5;"/>
   </g>
  </g>
 </g>
 <defs>
  <clipPath id="p23062d90a0">
   <rect height="299.84" width="299.84" x="34.96" y="10.8"/>
  </clipPath>
 </defs>
</svg>
