<?xml version="1.0" encoding="utf-8" standalone="no"?>
<!DOCTYPE svg PUBLIC "-//W3C//DTD SVG 1.1//EN"
  "http://www.w3.org/Graphics/SVG/1.1/DTD/svg11.dtd">
<svg height="345.6pt" version="1.1" viewBox="0 0 460.8 345.6" width="460.8pt" xmlns="http://www.w3.org/2000/svg" xmlns:xlink="http://www.w3.org/1999/xlink">
 <metadata>
  <rdf:RDF xmlns:cc="http://creativecommons.org/ns#" xmlns:dc="http://purl.org/dc/elements/1.1/" xmlns:rdf="http://www.w3.org/1999/02/22-rdf-syntax-ns#">
   <cc:Work>
    <dc:type rdf:resource="http://purl.org/dc/dcmitype/StillImage"/>
    <dc:date>2022-07-20T14:10:21.609579</dc:date>
    <dc:format>image/svg+xml</dc:format>
    <dc:creator>
     <cc:Agent>
      <dc:title>Matplotlib v3.4.2, https://matplotlib.org/</dc:title>
     </cc:Agent>
    </dc:creator>
   </cc:Work>
  </rdf:RDF>
 </metadata>
 <defs>
  <style type="text/css">*{stroke-linecap:butt;stroke-linejoin:round;}</style>
 </defs>
 <g id="figure_1">
  <g id="patch_1">
   <path d="M 0 345.6 
L 460.8 345.6 
L 460.8 0 
L 0 0 
z
" style="fill:#ffffff;"/>
  </g>
  <g id="axes_1">
   <g id="patch_2">
    <path d="M 59.24 278.98 
L 445.862461 278.98 
L 445.862461 10.8 
L 59.24 10.8 
z
" style="fill:#ffffff;"/>
   </g>
   <g id="matplotlib.axis_1">
    <g id="xtick_1">
     <g id="line2d_1">
      <defs>
       <path d="M 0 0 
L 0 8 
" id="md0191ffe57" style="stroke:#000000;stroke-width:3;"/>
      </defs>
      <g>
       <use style="stroke:#000000;stroke-width:3;" x="81.982498" xlink:href="#md0191ffe57" y="278.98"/>
      </g>
     </g>
     <g id="text_1">
      <!-- $u_{rest}$ -->
      <g transform="translate(61.782498 305.676875)scale(0.2 -0.2)">
       <defs>
        <path d="M 428 1388 
L 838 3500 
L 1416 3500 
L 1006 1409 
Q 975 1256 961 1147 
Q 947 1038 947 966 
Q 947 700 1109 554 
Q 1272 409 1569 409 
Q 2031 409 2368 721 
Q 2706 1034 2809 1563 
L 3194 3500 
L 3769 3500 
L 3091 0 
L 2516 0 
L 2631 550 
Q 2388 244 2052 76 
Q 1716 -91 1338 -91 
Q 878 -91 622 161 
Q 366 413 366 863 
Q 366 956 381 1097 
Q 397 1238 428 1388 
z
" id="DejaVuSans-Oblique-75" transform="scale(0.015625)"/>
        <path d="M 2853 2969 
Q 2766 3016 2653 3041 
Q 2541 3066 2413 3066 
Q 1953 3066 1609 2717 
Q 1266 2369 1153 1784 
L 800 0 
L 225 0 
L 909 3500 
L 1484 3500 
L 1375 2956 
Q 1603 3259 1920 3421 
Q 2238 3584 2597 3584 
Q 2691 3584 2781 3573 
Q 2872 3563 2963 3538 
L 2853 2969 
z
" id="DejaVuSans-Oblique-72" transform="scale(0.015625)"/>
        <path d="M 3078 2063 
Q 3088 2113 3092 2166 
Q 3097 2219 3097 2272 
Q 3097 2653 2873 2875 
Q 2650 3097 2266 3097 
Q 1838 3097 1509 2826 
Q 1181 2556 1013 2059 
L 3078 2063 
z
M 3578 1613 
L 903 1613 
Q 884 1494 878 1425 
Q 872 1356 872 1306 
Q 872 872 1139 634 
Q 1406 397 1894 397 
Q 2269 397 2603 481 
Q 2938 566 3225 728 
L 3116 159 
Q 2806 34 2476 -28 
Q 2147 -91 1806 -91 
Q 1078 -91 686 257 
Q 294 606 294 1247 
Q 294 1794 489 2264 
Q 684 2734 1063 3103 
Q 1306 3334 1642 3459 
Q 1978 3584 2356 3584 
Q 2950 3584 3301 3228 
Q 3653 2872 3653 2272 
Q 3653 2128 3634 1964 
Q 3616 1800 3578 1613 
z
" id="DejaVuSans-Oblique-65" transform="scale(0.015625)"/>
        <path d="M 3200 3397 
L 3091 2853 
Q 2863 2978 2609 3040 
Q 2356 3103 2088 3103 
Q 1634 3103 1373 2948 
Q 1113 2794 1113 2528 
Q 1113 2219 1719 2053 
Q 1766 2041 1788 2034 
L 1972 1978 
Q 2547 1819 2739 1644 
Q 2931 1469 2931 1166 
Q 2931 609 2489 259 
Q 2047 -91 1331 -91 
Q 1053 -91 747 -37 
Q 441 16 72 128 
L 184 722 
Q 500 559 806 475 
Q 1113 391 1394 391 
Q 1816 391 2080 572 
Q 2344 753 2344 1031 
Q 2344 1331 1650 1516 
L 1591 1531 
L 1394 1581 
Q 956 1697 753 1886 
Q 550 2075 550 2369 
Q 550 2928 970 3256 
Q 1391 3584 2113 3584 
Q 2397 3584 2667 3537 
Q 2938 3491 3200 3397 
z
" id="DejaVuSans-Oblique-73" transform="scale(0.015625)"/>
        <path d="M 2706 3500 
L 2619 3053 
L 1472 3053 
L 1100 1153 
Q 1081 1047 1072 975 
Q 1063 903 1063 863 
Q 1063 663 1183 572 
Q 1303 481 1569 481 
L 2150 481 
L 2053 0 
L 1503 0 
Q 991 0 739 200 
Q 488 400 488 806 
Q 488 878 497 964 
Q 506 1050 525 1153 
L 897 3053 
L 409 3053 
L 500 3500 
L 978 3500 
L 1172 4494 
L 1747 4494 
L 1556 3500 
L 2706 3500 
z
" id="DejaVuSans-Oblique-74" transform="scale(0.015625)"/>
       </defs>
       <use transform="translate(0 0.3125)" xlink:href="#DejaVuSans-Oblique-75"/>
       <use transform="translate(63.378906 -16.09375)scale(0.7)" xlink:href="#DejaVuSans-Oblique-72"/>
       <use transform="translate(92.158203 -16.09375)scale(0.7)" xlink:href="#DejaVuSans-Oblique-65"/>
       <use transform="translate(135.224609 -16.09375)scale(0.7)" xlink:href="#DejaVuSans-Oblique-73"/>
       <use transform="translate(171.694336 -16.09375)scale(0.7)" xlink:href="#DejaVuSans-Oblique-74"/>
      </g>
     </g>
    </g>
    <g id="xtick_2">
     <g id="line2d_2">
      <g>
       <use style="stroke:#000000;stroke-width:3;" x="309.407475" xlink:href="#md0191ffe57" y="278.98"/>
      </g>
     </g>
     <g id="text_2">
      <!-- $u_{c}$ -->
      <g transform="translate(298.907475 305.676875)scale(0.2 -0.2)">
       <defs>
        <path d="M 3431 3366 
L 3316 2797 
Q 3109 2947 2876 3022 
Q 2644 3097 2394 3097 
Q 2119 3097 1870 3000 
Q 1622 2903 1453 2725 
Q 1184 2453 1037 2087 
Q 891 1722 891 1331 
Q 891 859 1127 628 
Q 1363 397 1844 397 
Q 2081 397 2348 469 
Q 2616 541 2906 684 
L 2797 116 
Q 2547 13 2283 -39 
Q 2019 -91 1741 -91 
Q 1044 -91 669 257 
Q 294 606 294 1253 
Q 294 1797 489 2255 
Q 684 2713 1069 3078 
Q 1331 3328 1684 3456 
Q 2038 3584 2456 3584 
Q 2700 3584 2940 3529 
Q 3181 3475 3431 3366 
z
" id="DejaVuSans-Oblique-63" transform="scale(0.015625)"/>
       </defs>
       <use transform="translate(0 0.3125)" xlink:href="#DejaVuSans-Oblique-75"/>
       <use transform="translate(63.378906 -16.09375)scale(0.7)" xlink:href="#DejaVuSans-Oblique-63"/>
      </g>
     </g>
    </g>
    <g id="xtick_3">
     <g id="line2d_3">
      <g>
       <use style="stroke:#000000;stroke-width:3;" x="423.119963" xlink:href="#md0191ffe57" y="278.98"/>
      </g>
     </g>
     <g id="text_3">
      <!-- $u_{reset}$ -->
      <g transform="translate(398.619963 305.676875)scale(0.2 -0.2)">
       <use transform="translate(0 0.3125)" xlink:href="#DejaVuSans-Oblique-75"/>
       <use transform="translate(63.378906 -16.09375)scale(0.7)" xlink:href="#DejaVuSans-Oblique-72"/>
       <use transform="translate(92.158203 -16.09375)scale(0.7)" xlink:href="#DejaVuSans-Oblique-65"/>
       <use transform="translate(135.224609 -16.09375)scale(0.7)" xlink:href="#DejaVuSans-Oblique-73"/>
       <use transform="translate(171.694336 -16.09375)scale(0.7)" xlink:href="#DejaVuSans-Oblique-65"/>
       <use transform="translate(214.760742 -16.09375)scale(0.7)" xlink:href="#DejaVuSans-Oblique-74"/>
      </g>
     </g>
    </g>
    <g id="text_4">
     <!-- u -->
     <g transform="translate(246.21373 329.033125)scale(0.2 -0.2)">
      <defs>
       <path d="M 544 1381 
L 544 3500 
L 1119 3500 
L 1119 1403 
Q 1119 906 1312 657 
Q 1506 409 1894 409 
Q 2359 409 2629 706 
Q 2900 1003 2900 1516 
L 2900 3500 
L 3475 3500 
L 3475 0 
L 2900 0 
L 2900 538 
Q 2691 219 2414 64 
Q 2138 -91 1772 -91 
Q 1169 -91 856 284 
Q 544 659 544 1381 
z
M 1991 3584 
L 1991 3584 
z
" id="DejaVuSans-75" transform="scale(0.015625)"/>
      </defs>
      <use xlink:href="#DejaVuSans-75"/>
     </g>
    </g>
   </g>
   <g id="matplotlib.axis_2">
    <g id="ytick_1">
     <g id="line2d_4">
      <defs>
       <path d="M 0 0 
L -8 0 
" id="m7cbaadbeb8" style="stroke:#000000;stroke-width:3;"/>
      </defs>
      <g>
       <use style="stroke:#000000;stroke-width:3;" x="59.24" xlink:href="#m7cbaadbeb8" y="234.283333"/>
      </g>
     </g>
     <g id="text_5">
      <!-- 0 -->
      <g transform="translate(35.015 241.881771)scale(0.2 -0.2)">
       <defs>
        <path d="M 2034 4250 
Q 1547 4250 1301 3770 
Q 1056 3291 1056 2328 
Q 1056 1369 1301 889 
Q 1547 409 2034 409 
Q 2525 409 2770 889 
Q 3016 1369 3016 2328 
Q 3016 3291 2770 3770 
Q 2525 4250 2034 4250 
z
M 2034 4750 
Q 2819 4750 3233 4129 
Q 3647 3509 3647 2328 
Q 3647 1150 3233 529 
Q 2819 -91 2034 -91 
Q 1250 -91 836 529 
Q 422 1150 422 2328 
Q 422 3509 836 4129 
Q 1250 4750 2034 4750 
z
" id="DejaVuSans-30" transform="scale(0.015625)"/>
       </defs>
       <use xlink:href="#DejaVuSans-30"/>
      </g>
     </g>
    </g>
    <g id="text_6">
     <!-- du -->
     <g transform="translate(26.855625 157.575937)rotate(-90)scale(0.2 -0.2)">
      <defs>
       <path d="M 2906 2969 
L 2906 4863 
L 3481 4863 
L 3481 0 
L 2906 0 
L 2906 525 
Q 2725 213 2448 61 
Q 2172 -91 1784 -91 
Q 1150 -91 751 415 
Q 353 922 353 1747 
Q 353 2572 751 3078 
Q 1150 3584 1784 3584 
Q 2172 3584 2448 3432 
Q 2725 3281 2906 2969 
z
M 947 1747 
Q 947 1113 1208 752 
Q 1469 391 1925 391 
Q 2381 391 2643 752 
Q 2906 1113 2906 1747 
Q 2906 2381 2643 2742 
Q 2381 3103 1925 3103 
Q 1469 3103 1208 2742 
Q 947 2381 947 1747 
z
" id="DejaVuSans-64" transform="scale(0.015625)"/>
      </defs>
      <use xlink:href="#DejaVuSans-64"/>
      <use x="63.476562" xlink:href="#DejaVuSans-75"/>
     </g>
    </g>
   </g>
   <g id="line2d_5">
    <path clip-path="url(#p21773ce3cc)" d="M 59.24 209.700167 
L 62.915555 213.976016 
L 66.59111 218.135118 
L 70.266666 222.177473 
L 73.942221 226.103082 
L 77.617776 229.911944 
L 81.293331 233.604059 
L 84.968886 237.179427 
L 88.644441 240.638049 
L 92.319997 243.979924 
L 95.995552 247.205053 
L 99.671107 250.313434 
L 103.346662 253.305069 
L 107.022217 256.179957 
L 110.697773 258.938099 
L 114.373328 261.579493 
L 118.048883 264.104141 
L 121.724438 266.512042 
L 125.399993 268.803197 
L 129.075548 270.977605 
L 132.751104 273.035266 
L 136.426659 274.97618 
L 140.102214 276.800348 
L 143.777769 278.507769 
L 147.453324 280.098443 
L 151.12888 281.57237 
L 154.804435 282.929551 
L 158.47999 284.169985 
L 162.155545 285.293672 
L 165.8311 286.300613 
L 169.506655 287.190806 
L 173.182211 287.964253 
L 176.857766 288.620954 
L 180.533321 289.160907 
L 184.208876 289.584114 
L 187.884431 289.890574 
L 191.559987 290.080288 
L 195.235542 290.153255 
L 198.911097 290.109475 
L 202.586652 289.948948 
L 206.262207 289.671674 
L 209.937762 289.277654 
L 213.613318 288.766887 
L 217.288873 288.139374 
L 220.964428 287.395113 
L 224.639983 286.534106 
L 228.315538 285.556352 
L 231.991094 284.461852 
L 235.666649 283.250604 
L 239.342204 281.92261 
L 243.017759 280.47787 
L 246.693314 278.916382 
L 250.368869 277.238148 
L 254.044425 275.443167 
L 257.71998 273.531439 
L 261.395535 271.502965 
L 265.07109 269.357744 
L 268.746645 267.095776 
L 272.422201 264.717062 
L 276.097756 262.2216 
L 279.773311 259.609392 
L 283.448866 256.880438 
L 287.124421 254.034736 
L 290.799976 251.072288 
L 294.475532 247.993093 
L 298.151087 244.797151 
L 301.826642 241.484463 
L 305.502197 238.055028 
L 309.177752 234.508846 
L 312.853308 230.845918 
L 316.528863 227.066242 
L 320.204418 223.16982 
L 323.879973 219.156652 
L 327.555528 215.026736 
L 331.231083 210.780074 
L 334.906639 206.416665 
L 338.582194 201.936509 
L 342.257749 197.339607 
L 345.933304 192.625958 
L 349.608859 187.795562 
L 353.284415 182.84842 
L 356.95997 177.78453 
L 360.635525 172.603894 
L 364.31108 167.306512 
L 367.986635 161.892382 
L 371.66219 156.361506 
L 375.337746 150.713883 
L 379.013301 144.949513 
L 382.688856 139.068397 
L 386.364411 133.070534 
L 390.039966 126.955924 
L 393.715522 120.724568 
L 397.391077 114.376464 
L 401.066632 107.911614 
L 404.742187 101.330018 
L 408.417742 94.631674 
L 412.093297 87.816584 
L 415.768853 80.884747 
L 419.444408 73.836164 
L 423.119963 66.670833 
" style="fill:none;stroke:#000000;stroke-linecap:square;stroke-width:3;"/>
   </g>
   <g id="line2d_6">
    <path clip-path="url(#p21773ce3cc)" d="M 59.24 200.760833 
L 62.915555 205.036682 
L 66.59111 209.195784 
L 70.266666 213.23814 
L 73.942221 217.163748 
L 77.617776 220.97261 
L 81.293331 224.664726 
L 84.968886 228.240094 
L 88.644441 231.698716 
L 92.319997 235.040591 
L 95.995552 238.265719 
L 99.671107 241.374101 
L 103.346662 244.365736 
L 107.022217 247.240624 
L 110.697773 249.998765 
L 114.373328 252.64016 
L 118.048883 255.164808 
L 121.724438 257.572709 
L 125.399993 259.863864 
L 129.075548 262.038271 
L 132.751104 264.095932 
L 136.426659 266.036847 
L 140.102214 267.861014 
L 143.777769 269.568435 
L 147.453324 271.159109 
L 151.12888 272.633037 
L 154.804435 273.990218 
L 158.47999 275.230652 
L 162.155545 276.354339 
L 165.8311 277.361279 
L 169.506655 278.251473 
L 173.182211 279.02492 
L 176.857766 279.68162 
L 180.533321 280.221574 
L 184.208876 280.644781 
L 187.884431 280.951241 
L 191.559987 281.140955 
L 195.235542 281.213921 
L 198.911097 281.170141 
L 202.586652 281.009614 
L 206.262207 280.732341 
L 209.937762 280.338321 
L 213.613318 279.827554 
L 217.288873 279.20004 
L 220.964428 278.45578 
L 224.639983 277.594773 
L 228.315538 276.617019 
L 231.991094 275.522518 
L 235.666649 274.311271 
L 239.342204 272.983277 
L 243.017759 271.538536 
L 246.693314 269.977049 
L 250.368869 268.298815 
L 254.044425 266.503834 
L 257.71998 264.592106 
L 261.395535 262.563632 
L 265.07109 260.418411 
L 268.746645 258.156443 
L 272.422201 255.777728 
L 276.097756 253.282267 
L 279.773311 250.670059 
L 283.448866 247.941104 
L 287.124421 245.095403 
L 290.799976 242.132955 
L 294.475532 239.05376 
L 298.151087 235.857818 
L 301.826642 232.54513 
L 305.502197 229.115695 
L 309.177752 225.569513 
L 312.853308 221.906584 
L 316.528863 218.126909 
L 320.204418 214.230487 
L 323.879973 210.217318 
L 327.555528 206.087403 
L 331.231083 201.840741 
L 334.906639 197.477332 
L 338.582194 192.997176 
L 342.257749 188.400274 
L 345.933304 183.686625 
L 349.608859 178.856229 
L 353.284415 173.909086 
L 356.95997 168.845197 
L 360.635525 163.664561 
L 364.31108 158.367178 
L 367.986635 152.953049 
L 371.66219 147.422173 
L 375.337746 141.77455 
L 379.013301 136.01018 
L 382.688856 130.129064 
L 386.364411 124.131201 
L 390.039966 118.016591 
L 393.715522 111.785234 
L 397.391077 105.437131 
L 401.066632 98.972281 
L 404.742187 92.390684 
L 408.417742 85.692341 
L 412.093297 78.877251 
L 415.768853 71.945414 
L 419.444408 64.89683 
L 423.119963 57.7315 
" style="fill:none;stroke:#404040;stroke-linecap:square;stroke-width:3;"/>
   </g>
   <g id="line2d_7">
    <path clip-path="url(#p21773ce3cc)" d="M 59.24 191.8215 
L 62.915555 196.097349 
L 66.59111 200.256451 
L 70.266666 204.298806 
L 73.942221 208.224415 
L 77.617776 212.033277 
L 81.293331 215.725392 
L 84.968886 219.300761 
L 88.644441 222.759383 
L 92.319997 226.101258 
L 95.995552 229.326386 
L 99.671107 232.434767 
L 103.346662 235.426402 
L 107.022217 238.30129 
L 110.697773 241.059432 
L 114.373328 243.700827 
L 118.048883 246.225475 
L 121.724438 248.633376 
L 125.399993 250.92453 
L 129.075548 253.098938 
L 132.751104 255.156599 
L 136.426659 257.097513 
L 140.102214 258.921681 
L 143.777769 260.629102 
L 147.453324 262.219776 
L 151.12888 263.693704 
L 154.804435 265.050884 
L 158.47999 266.291318 
L 162.155545 267.415005 
L 165.8311 268.421946 
L 169.506655 269.31214 
L 173.182211 270.085587 
L 176.857766 270.742287 
L 180.533321 271.282241 
L 184.208876 271.705448 
L 187.884431 272.011908 
L 191.559987 272.201621 
L 195.235542 272.274588 
L 198.911097 272.230808 
L 202.586652 272.070281 
L 206.262207 271.793008 
L 209.937762 271.398987 
L 213.613318 270.888221 
L 217.288873 270.260707 
L 220.964428 269.516447 
L 224.639983 268.655439 
L 228.315538 267.677686 
L 231.991094 266.583185 
L 235.666649 265.371938 
L 239.342204 264.043944 
L 243.017759 262.599203 
L 246.693314 261.037715 
L 250.368869 259.359481 
L 254.044425 257.5645 
L 257.71998 255.652773 
L 261.395535 253.624298 
L 265.07109 251.479077 
L 268.746645 249.217109 
L 272.422201 246.838395 
L 276.097756 244.342934 
L 279.773311 241.730726 
L 283.448866 239.001771 
L 287.124421 236.156069 
L 290.799976 233.193621 
L 294.475532 230.114426 
L 298.151087 226.918485 
L 301.826642 223.605796 
L 305.502197 220.176361 
L 309.177752 216.630179 
L 312.853308 212.967251 
L 316.528863 209.187576 
L 320.204418 205.291154 
L 323.879973 201.277985 
L 327.555528 197.148069 
L 331.231083 192.901407 
L 334.906639 188.537998 
L 338.582194 184.057843 
L 342.257749 179.46094 
L 345.933304 174.747291 
L 349.608859 169.916895 
L 353.284415 164.969753 
L 356.95997 159.905864 
L 360.635525 154.725228 
L 364.31108 149.427845 
L 367.986635 144.013715 
L 371.66219 138.482839 
L 375.337746 132.835216 
L 379.013301 127.070847 
L 382.688856 121.18973 
L 386.364411 115.191867 
L 390.039966 109.077258 
L 393.715522 102.845901 
L 397.391077 96.497798 
L 401.066632 90.032948 
L 404.742187 83.451351 
L 408.417742 76.753008 
L 412.093297 69.937918 
L 415.768853 63.006081 
L 419.444408 55.957497 
L 423.119963 48.792167 
" style="fill:none;stroke:#7a7a7a;stroke-linecap:square;stroke-width:3;"/>
   </g>
   <g id="line2d_8">
    <path clip-path="url(#p21773ce3cc)" d="M 59.24 182.882167 
L 62.915555 187.158016 
L 66.59111 191.317118 
L 70.266666 195.359473 
L 73.942221 199.285082 
L 77.617776 203.093944 
L 81.293331 206.786059 
L 84.968886 210.361427 
L 88.644441 213.820049 
L 92.319997 217.161924 
L 95.995552 220.387053 
L 99.671107 223.495434 
L 103.346662 226.487069 
L 107.022217 229.361957 
L 110.697773 232.120099 
L 114.373328 234.761493 
L 118.048883 237.286141 
L 121.724438 239.694042 
L 125.399993 241.985197 
L 129.075548 244.159605 
L 132.751104 246.217266 
L 136.426659 248.15818 
L 140.102214 249.982348 
L 143.777769 251.689769 
L 147.453324 253.280443 
L 151.12888 254.75437 
L 154.804435 256.111551 
L 158.47999 257.351985 
L 162.155545 258.475672 
L 165.8311 259.482613 
L 169.506655 260.372806 
L 173.182211 261.146253 
L 176.857766 261.802954 
L 180.533321 262.342907 
L 184.208876 262.766114 
L 187.884431 263.072574 
L 191.559987 263.262288 
L 195.235542 263.335255 
L 198.911097 263.291475 
L 202.586652 263.130948 
L 206.262207 262.853674 
L 209.937762 262.459654 
L 213.613318 261.948887 
L 217.288873 261.321374 
L 220.964428 260.577113 
L 224.639983 259.716106 
L 228.315538 258.738352 
L 231.991094 257.643852 
L 235.666649 256.432604 
L 239.342204 255.10461 
L 243.017759 253.65987 
L 246.693314 252.098382 
L 250.368869 250.420148 
L 254.044425 248.625167 
L 257.71998 246.713439 
L 261.395535 244.684965 
L 265.07109 242.539744 
L 268.746645 240.277776 
L 272.422201 237.899062 
L 276.097756 235.4036 
L 279.773311 232.791392 
L 283.448866 230.062438 
L 287.124421 227.216736 
L 290.799976 224.254288 
L 294.475532 221.175093 
L 298.151087 217.979151 
L 301.826642 214.666463 
L 305.502197 211.237028 
L 309.177752 207.690846 
L 312.853308 204.027918 
L 316.528863 200.248242 
L 320.204418 196.35182 
L 323.879973 192.338652 
L 327.555528 188.208736 
L 331.231083 183.962074 
L 334.906639 179.598665 
L 338.582194 175.118509 
L 342.257749 170.521607 
L 345.933304 165.807958 
L 349.608859 160.977562 
L 353.284415 156.03042 
L 356.95997 150.96653 
L 360.635525 145.785894 
L 364.31108 140.488512 
L 367.986635 135.074382 
L 371.66219 129.543506 
L 375.337746 123.895883 
L 379.013301 118.131513 
L 382.688856 112.250397 
L 386.364411 106.252534 
L 390.039966 100.137924 
L 393.715522 93.906568 
L 397.391077 87.558464 
L 401.066632 81.093614 
L 404.742187 74.512018 
L 408.417742 67.813674 
L 412.093297 60.998584 
L 415.768853 54.066747 
L 419.444408 47.018164 
L 423.119963 39.852833 
" style="fill:none;stroke:#b5b5b5;stroke-linecap:square;stroke-width:3;"/>
   </g>
   <g id="line2d_9">
    <path clip-path="url(#p21773ce3cc)" d="M 59.24 173.942833 
L 62.915555 178.218682 
L 66.59111 182.377784 
L 70.266666 186.42014 
L 73.942221 190.345748 
L 77.617776 194.15461 
L 81.293331 197.846726 
L 84.968886 201.422094 
L 88.644441 204.880716 
L 92.319997 208.222591 
L 95.995552 211.447719 
L 99.671107 214.556101 
L 103.346662 217.547736 
L 107.022217 220.422624 
L 110.697773 223.180765 
L 114.373328 225.82216 
L 118.048883 228.346808 
L 121.724438 230.754709 
L 125.399993 233.045864 
L 129.075548 235.220271 
L 132.751104 237.277932 
L 136.426659 239.218847 
L 140.102214 241.043014 
L 143.777769 242.750435 
L 147.453324 244.341109 
L 151.12888 245.815037 
L 154.804435 247.172218 
L 158.47999 248.412652 
L 162.155545 249.536339 
L 165.8311 250.543279 
L 169.506655 251.433473 
L 173.182211 252.20692 
L 176.857766 252.86362 
L 180.533321 253.403574 
L 184.208876 253.826781 
L 187.884431 254.133241 
L 191.559987 254.322955 
L 195.235542 254.395921 
L 198.911097 254.352141 
L 202.586652 254.191614 
L 206.262207 253.914341 
L 209.937762 253.520321 
L 213.613318 253.009554 
L 217.288873 252.38204 
L 220.964428 251.63778 
L 224.639983 250.776773 
L 228.315538 249.799019 
L 231.991094 248.704518 
L 235.666649 247.493271 
L 239.342204 246.165277 
L 243.017759 244.720536 
L 246.693314 243.159049 
L 250.368869 241.480815 
L 254.044425 239.685834 
L 257.71998 237.774106 
L 261.395535 235.745632 
L 265.07109 233.600411 
L 268.746645 231.338443 
L 272.422201 228.959728 
L 276.097756 226.464267 
L 279.773311 223.852059 
L 283.448866 221.123104 
L 287.124421 218.277403 
L 290.799976 215.314955 
L 294.475532 212.23576 
L 298.151087 209.039818 
L 301.826642 205.72713 
L 305.502197 202.297695 
L 309.177752 198.751513 
L 312.853308 195.088584 
L 316.528863 191.308909 
L 320.204418 187.412487 
L 323.879973 183.399318 
L 327.555528 179.269403 
L 331.231083 175.022741 
L 334.906639 170.659332 
L 338.582194 166.179176 
L 342.257749 161.582274 
L 345.933304 156.868625 
L 349.608859 152.038229 
L 353.284415 147.091086 
L 356.95997 142.027197 
L 360.635525 136.846561 
L 364.31108 131.549178 
L 367.986635 126.135049 
L 371.66219 120.604173 
L 375.337746 114.95655 
L 379.013301 109.19218 
L 382.688856 103.311064 
L 386.364411 97.313201 
L 390.039966 91.198591 
L 393.715522 84.967234 
L 397.391077 78.619131 
L 401.066632 72.154281 
L 404.742187 65.572684 
L 408.417742 58.874341 
L 412.093297 52.059251 
L 415.768853 45.127414 
L 419.444408 38.07883 
L 423.119963 30.9135 
" style="fill:none;stroke:#e2e2e2;stroke-linecap:square;stroke-width:3;"/>
   </g>
   <g id="line2d_10">
    <path clip-path="url(#p21773ce3cc)" d="M 59.24 165.0035 
L 62.915555 169.279349 
L 66.59111 173.438451 
L 70.266666 177.480806 
L 73.942221 181.406415 
L 77.617776 185.215277 
L 81.293331 188.907392 
L 84.968886 192.482761 
L 88.644441 195.941383 
L 92.319997 199.283258 
L 95.995552 202.508386 
L 99.671107 205.616767 
L 103.346662 208.608402 
L 107.022217 211.48329 
L 110.697773 214.241432 
L 114.373328 216.882827 
L 118.048883 219.407475 
L 121.724438 221.815376 
L 125.399993 224.10653 
L 129.075548 226.280938 
L 132.751104 228.338599 
L 136.426659 230.279513 
L 140.102214 232.103681 
L 143.777769 233.811102 
L 147.453324 235.401776 
L 151.12888 236.875704 
L 154.804435 238.232884 
L 158.47999 239.473318 
L 162.155545 240.597005 
L 165.8311 241.603946 
L 169.506655 242.49414 
L 173.182211 243.267587 
L 176.857766 243.924287 
L 180.533321 244.464241 
L 184.208876 244.887448 
L 187.884431 245.193908 
L 191.559987 245.383621 
L 195.235542 245.456588 
L 198.911097 245.412808 
L 202.586652 245.252281 
L 206.262207 244.975008 
L 209.937762 244.580987 
L 213.613318 244.070221 
L 217.288873 243.442707 
L 220.964428 242.698447 
L 224.639983 241.837439 
L 228.315538 240.859686 
L 231.991094 239.765185 
L 235.666649 238.553938 
L 239.342204 237.225944 
L 243.017759 235.781203 
L 246.693314 234.219715 
L 250.368869 232.541481 
L 254.044425 230.7465 
L 257.71998 228.834773 
L 261.395535 226.806298 
L 265.07109 224.661077 
L 268.746645 222.399109 
L 272.422201 220.020395 
L 276.097756 217.524934 
L 279.773311 214.912726 
L 283.448866 212.183771 
L 287.124421 209.338069 
L 290.799976 206.375621 
L 294.475532 203.296426 
L 298.151087 200.100485 
L 301.826642 196.787796 
L 305.502197 193.358361 
L 309.177752 189.812179 
L 312.853308 186.149251 
L 316.528863 182.369576 
L 320.204418 178.473154 
L 323.879973 174.459985 
L 327.555528 170.330069 
L 331.231083 166.083407 
L 334.906639 161.719998 
L 338.582194 157.239843 
L 342.257749 152.64294 
L 345.933304 147.929291 
L 349.608859 143.098895 
L 353.284415 138.151753 
L 356.95997 133.087864 
L 360.635525 127.907228 
L 364.31108 122.609845 
L 367.986635 117.195715 
L 371.66219 111.664839 
L 375.337746 106.017216 
L 379.013301 100.252847 
L 382.688856 94.37173 
L 386.364411 88.373867 
L 390.039966 82.259258 
L 393.715522 76.027901 
L 397.391077 69.679798 
L 401.066632 63.214948 
L 404.742187 56.633351 
L 408.417742 49.935008 
L 412.093297 43.119918 
L 415.768853 36.188081 
L 419.444408 29.139497 
L 423.119963 21.974167 
" style="fill:none;stroke:#ffffff;stroke-linecap:square;stroke-width:3;"/>
   </g>
   <g id="line2d_11">
    <path clip-path="url(#p21773ce3cc)" d="M 423.119963 278.98 
L 423.119963 10.8 
" style="fill:none;stroke:#000000;stroke-dasharray:3,4.95;stroke-dashoffset:0;stroke-width:3;"/>
   </g>
   <g id="line2d_12">
    <path clip-path="url(#p21773ce3cc)" d="M 59.24 234.283333 
L 445.862461 234.283333 
" style="fill:none;stroke:#000000;stroke-dasharray:11.1,4.8;stroke-dashoffset:0;stroke-width:3;"/>
   </g>
   <g id="patch_3">
    <path d="M 59.24 278.98 
L 59.24 10.8 
" style="fill:none;stroke:#000000;stroke-linecap:square;stroke-linejoin:miter;stroke-width:3;"/>
   </g>
   <g id="patch_4">
    <path d="M 59.24 278.98 
L 445.862461 278.98 
" style="fill:none;stroke:#000000;stroke-linecap:square;stroke-linejoin:miter;stroke-width:3;"/>
   </g>
   <g id="legend_1">
    <g id="patch_5">
     <path d="M 66.24 77.5125 
L 154.40875 77.5125 
Q 156.40875 77.5125 156.40875 75.5125 
L 156.40875 17.8 
Q 156.40875 15.8 154.40875 15.8 
L 66.24 15.8 
Q 64.24 15.8 64.24 17.8 
L 64.24 75.5125 
Q 64.24 77.5125 66.24 77.5125 
z
" style="fill:#ffffff;opacity:0.8;stroke:#cccccc;stroke-linejoin:miter;"/>
    </g>
    <g id="text_7">
     <!-- $I$ -->
     <g transform="translate(108.824375 27.398438)scale(0.1 -0.1)">
      <defs>
       <path d="M 1081 4666 
L 1716 4666 
L 806 0 
L 172 0 
L 1081 4666 
z
" id="DejaVuSans-Oblique-49" transform="scale(0.015625)"/>
      </defs>
      <use transform="translate(0 0.09375)" xlink:href="#DejaVuSans-Oblique-49"/>
     </g>
    </g>
    <g id="line2d_13">
     <path d="M 68.24 38.576563 
L 73.24 38.576563 
" style="fill:none;stroke:#000000;stroke-linecap:square;stroke-width:3;"/>
    </g>
    <g id="line2d_14"/>
    <g id="text_8">
     <!-- 0.0 -->
     <g transform="translate(81.24 42.076563)scale(0.1 -0.1)">
      <defs>
       <path d="M 684 794 
L 1344 794 
L 1344 0 
L 684 0 
L 684 794 
z
" id="DejaVuSans-2e" transform="scale(0.015625)"/>
      </defs>
      <use xlink:href="#DejaVuSans-30"/>
      <use x="63.623047" xlink:href="#DejaVuSans-2e"/>
      <use x="95.410156" xlink:href="#DejaVuSans-30"/>
     </g>
    </g>
    <g id="line2d_15">
     <path d="M 68.24 53.254688 
L 73.24 53.254688 
" style="fill:none;stroke:#404040;stroke-linecap:square;stroke-width:3;"/>
    </g>
    <g id="line2d_16"/>
    <g id="text_9">
     <!-- 4.0 -->
     <g transform="translate(81.24 56.754688)scale(0.1 -0.1)">
      <defs>
       <path d="M 2419 4116 
L 825 1625 
L 2419 1625 
L 2419 4116 
z
M 2253 4666 
L 3047 4666 
L 3047 1625 
L 3713 1625 
L 3713 1100 
L 3047 1100 
L 3047 0 
L 2419 0 
L 2419 1100 
L 313 1100 
L 313 1709 
L 2253 4666 
z
" id="DejaVuSans-34" transform="scale(0.015625)"/>
      </defs>
      <use xlink:href="#DejaVuSans-34"/>
      <use x="63.623047" xlink:href="#DejaVuSans-2e"/>
      <use x="95.410156" xlink:href="#DejaVuSans-30"/>
     </g>
    </g>
    <g id="line2d_17">
     <path d="M 68.24 67.932813 
L 73.24 67.932813 
" style="fill:none;stroke:#7a7a7a;stroke-linecap:square;stroke-width:3;"/>
    </g>
    <g id="line2d_18"/>
    <g id="text_10">
     <!-- 8.0 -->
     <g transform="translate(81.24 71.432813)scale(0.1 -0.1)">
      <defs>
       <path d="M 2034 2216 
Q 1584 2216 1326 1975 
Q 1069 1734 1069 1313 
Q 1069 891 1326 650 
Q 1584 409 2034 409 
Q 2484 409 2743 651 
Q 3003 894 3003 1313 
Q 3003 1734 2745 1975 
Q 2488 2216 2034 2216 
z
M 1403 2484 
Q 997 2584 770 2862 
Q 544 3141 544 3541 
Q 544 4100 942 4425 
Q 1341 4750 2034 4750 
Q 2731 4750 3128 4425 
Q 3525 4100 3525 3541 
Q 3525 3141 3298 2862 
Q 3072 2584 2669 2484 
Q 3125 2378 3379 2068 
Q 3634 1759 3634 1313 
Q 3634 634 3220 271 
Q 2806 -91 2034 -91 
Q 1263 -91 848 271 
Q 434 634 434 1313 
Q 434 1759 690 2068 
Q 947 2378 1403 2484 
z
M 1172 3481 
Q 1172 3119 1398 2916 
Q 1625 2713 2034 2713 
Q 2441 2713 2670 2916 
Q 2900 3119 2900 3481 
Q 2900 3844 2670 4047 
Q 2441 4250 2034 4250 
Q 1625 4250 1398 4047 
Q 1172 3844 1172 3481 
z
" id="DejaVuSans-38" transform="scale(0.015625)"/>
      </defs>
      <use xlink:href="#DejaVuSans-38"/>
      <use x="63.623047" xlink:href="#DejaVuSans-2e"/>
      <use x="95.410156" xlink:href="#DejaVuSans-30"/>
     </g>
    </g>
    <g id="line2d_19">
     <path d="M 117.143125 38.576563 
L 122.143125 38.576563 
" style="fill:none;stroke:#b5b5b5;stroke-linecap:square;stroke-width:3;"/>
    </g>
    <g id="line2d_20"/>
    <g id="text_11">
     <!-- 12.0 -->
     <g transform="translate(130.143125 42.076563)scale(0.1 -0.1)">
      <defs>
       <path d="M 794 531 
L 1825 531 
L 1825 4091 
L 703 3866 
L 703 4441 
L 1819 4666 
L 2450 4666 
L 2450 531 
L 3481 531 
L 3481 0 
L 794 0 
L 794 531 
z
" id="DejaVuSans-31" transform="scale(0.015625)"/>
       <path d="M 1228 531 
L 3431 531 
L 3431 0 
L 469 0 
L 469 531 
Q 828 903 1448 1529 
Q 2069 2156 2228 2338 
Q 2531 2678 2651 2914 
Q 2772 3150 2772 3378 
Q 2772 3750 2511 3984 
Q 2250 4219 1831 4219 
Q 1534 4219 1204 4116 
Q 875 4013 500 3803 
L 500 4441 
Q 881 4594 1212 4672 
Q 1544 4750 1819 4750 
Q 2544 4750 2975 4387 
Q 3406 4025 3406 3419 
Q 3406 3131 3298 2873 
Q 3191 2616 2906 2266 
Q 2828 2175 2409 1742 
Q 1991 1309 1228 531 
z
" id="DejaVuSans-32" transform="scale(0.015625)"/>
      </defs>
      <use xlink:href="#DejaVuSans-31"/>
      <use x="63.623047" xlink:href="#DejaVuSans-32"/>
      <use x="127.246094" xlink:href="#DejaVuSans-2e"/>
      <use x="159.033203" xlink:href="#DejaVuSans-30"/>
     </g>
    </g>
    <g id="line2d_21">
     <path d="M 117.143125 53.254688 
L 122.143125 53.254688 
" style="fill:none;stroke:#e2e2e2;stroke-linecap:square;stroke-width:3;"/>
    </g>
    <g id="line2d_22"/>
    <g id="text_12">
     <!-- 16.0 -->
     <g transform="translate(130.143125 56.754688)scale(0.1 -0.1)">
      <defs>
       <path d="M 2113 2584 
Q 1688 2584 1439 2293 
Q 1191 2003 1191 1497 
Q 1191 994 1439 701 
Q 1688 409 2113 409 
Q 2538 409 2786 701 
Q 3034 994 3034 1497 
Q 3034 2003 2786 2293 
Q 2538 2584 2113 2584 
z
M 3366 4563 
L 3366 3988 
Q 3128 4100 2886 4159 
Q 2644 4219 2406 4219 
Q 1781 4219 1451 3797 
Q 1122 3375 1075 2522 
Q 1259 2794 1537 2939 
Q 1816 3084 2150 3084 
Q 2853 3084 3261 2657 
Q 3669 2231 3669 1497 
Q 3669 778 3244 343 
Q 2819 -91 2113 -91 
Q 1303 -91 875 529 
Q 447 1150 447 2328 
Q 447 3434 972 4092 
Q 1497 4750 2381 4750 
Q 2619 4750 2861 4703 
Q 3103 4656 3366 4563 
z
" id="DejaVuSans-36" transform="scale(0.015625)"/>
      </defs>
      <use xlink:href="#DejaVuSans-31"/>
      <use x="63.623047" xlink:href="#DejaVuSans-36"/>
      <use x="127.246094" xlink:href="#DejaVuSans-2e"/>
      <use x="159.033203" xlink:href="#DejaVuSans-30"/>
     </g>
    </g>
    <g id="line2d_23">
     <path d="M 117.143125 67.932813 
L 122.143125 67.932813 
" style="fill:none;stroke:#ffffff;stroke-linecap:square;stroke-width:3;"/>
    </g>
    <g id="line2d_24"/>
    <g id="text_13">
     <!-- 20.0 -->
     <g transform="translate(130.143125 71.432813)scale(0.1 -0.1)">
      <use xlink:href="#DejaVuSans-32"/>
      <use x="63.623047" xlink:href="#DejaVuSans-30"/>
      <use x="127.246094" xlink:href="#DejaVuSans-2e"/>
      <use x="159.033203" xlink:href="#DejaVuSans-30"/>
     </g>
    </g>
   </g>
  </g>
 </g>
 <defs>
  <clipPath id="p21773ce3cc">
   <rect height="268.18" width="386.622461" x="59.24" y="10.8"/>
  </clipPath>
 </defs>
</svg>
