<?xml version="1.0" encoding="utf-8" standalone="no"?>
<!DOCTYPE svg PUBLIC "-//W3C//DTD SVG 1.1//EN"
  "http://www.w3.org/Graphics/SVG/1.1/DTD/svg11.dtd">
<svg height="345.6pt" version="1.1" viewBox="0 0 460.8 345.6" width="460.8pt" xmlns="http://www.w3.org/2000/svg" xmlns:xlink="http://www.w3.org/1999/xlink">
 <metadata>
  <rdf:RDF xmlns:cc="http://creativecommons.org/ns#" xmlns:dc="http://purl.org/dc/elements/1.1/" xmlns:rdf="http://www.w3.org/1999/02/22-rdf-syntax-ns#">
   <cc:Work>
    <dc:type rdf:resource="http://purl.org/dc/dcmitype/StillImage"/>
    <dc:date>2022-07-20T14:10:21.968682</dc:date>
    <dc:format>image/svg+xml</dc:format>
    <dc:creator>
     <cc:Agent>
      <dc:title>Matplotlib v3.4.2, https://matplotlib.org/</dc:title>
     </cc:Agent>
    </dc:creator>
   </cc:Work>
  </rdf:RDF>
 </metadata>
 <defs>
  <style type="text/css">*{stroke-linecap:butt;stroke-linejoin:round;}</style>
 </defs>
 <g id="figure_1">
  <g id="patch_1">
   <path d="M 0 345.6 
L 460.8 345.6 
L 460.8 0 
L 0 0 
z
" style="fill:#ffffff;"/>
  </g>
  <g id="axes_1">
   <g id="patch_2">
    <path d="M 59.24 278.98 
L 445.862461 278.98 
L 445.862461 10.8 
L 59.24 10.8 
z
" style="fill:#ffffff;"/>
   </g>
   <g id="matplotlib.axis_1">
    <g id="xtick_1">
     <g id="line2d_1">
      <defs>
       <path d="M 0 0 
L 0 8 
" id="mf091669f06" style="stroke:#000000;stroke-width:3;"/>
      </defs>
      <g>
       <use style="stroke:#000000;stroke-width:3;" x="81.982498" xlink:href="#mf091669f06" y="278.98"/>
      </g>
     </g>
     <g id="text_1">
      <!-- $u_{rest}$ -->
      <g transform="translate(61.782498 305.676875)scale(0.2 -0.2)">
       <defs>
        <path d="M 428 1388 
L 838 3500 
L 1416 3500 
L 1006 1409 
Q 975 1256 961 1147 
Q 947 1038 947 966 
Q 947 700 1109 554 
Q 1272 409 1569 409 
Q 2031 409 2368 721 
Q 2706 1034 2809 1563 
L 3194 3500 
L 3769 3500 
L 3091 0 
L 2516 0 
L 2631 550 
Q 2388 244 2052 76 
Q 1716 -91 1338 -91 
Q 878 -91 622 161 
Q 366 413 366 863 
Q 366 956 381 1097 
Q 397 1238 428 1388 
z
" id="DejaVuSans-Oblique-75" transform="scale(0.015625)"/>
        <path d="M 2853 2969 
Q 2766 3016 2653 3041 
Q 2541 3066 2413 3066 
Q 1953 3066 1609 2717 
Q 1266 2369 1153 1784 
L 800 0 
L 225 0 
L 909 3500 
L 1484 3500 
L 1375 2956 
Q 1603 3259 1920 3421 
Q 2238 3584 2597 3584 
Q 2691 3584 2781 3573 
Q 2872 3563 2963 3538 
L 2853 2969 
z
" id="DejaVuSans-Oblique-72" transform="scale(0.015625)"/>
        <path d="M 3078 2063 
Q 3088 2113 3092 2166 
Q 3097 2219 3097 2272 
Q 3097 2653 2873 2875 
Q 2650 3097 2266 3097 
Q 1838 3097 1509 2826 
Q 1181 2556 1013 2059 
L 3078 2063 
z
M 3578 1613 
L 903 1613 
Q 884 1494 878 1425 
Q 872 1356 872 1306 
Q 872 872 1139 634 
Q 1406 397 1894 397 
Q 2269 397 2603 481 
Q 2938 566 3225 728 
L 3116 159 
Q 2806 34 2476 -28 
Q 2147 -91 1806 -91 
Q 1078 -91 686 257 
Q 294 606 294 1247 
Q 294 1794 489 2264 
Q 684 2734 1063 3103 
Q 1306 3334 1642 3459 
Q 1978 3584 2356 3584 
Q 2950 3584 3301 3228 
Q 3653 2872 3653 2272 
Q 3653 2128 3634 1964 
Q 3616 1800 3578 1613 
z
" id="DejaVuSans-Oblique-65" transform="scale(0.015625)"/>
        <path d="M 3200 3397 
L 3091 2853 
Q 2863 2978 2609 3040 
Q 2356 3103 2088 3103 
Q 1634 3103 1373 2948 
Q 1113 2794 1113 2528 
Q 1113 2219 1719 2053 
Q 1766 2041 1788 2034 
L 1972 1978 
Q 2547 1819 2739 1644 
Q 2931 1469 2931 1166 
Q 2931 609 2489 259 
Q 2047 -91 1331 -91 
Q 1053 -91 747 -37 
Q 441 16 72 128 
L 184 722 
Q 500 559 806 475 
Q 1113 391 1394 391 
Q 1816 391 2080 572 
Q 2344 753 2344 1031 
Q 2344 1331 1650 1516 
L 1591 1531 
L 1394 1581 
Q 956 1697 753 1886 
Q 550 2075 550 2369 
Q 550 2928 970 3256 
Q 1391 3584 2113 3584 
Q 2397 3584 2667 3537 
Q 2938 3491 3200 3397 
z
" id="DejaVuSans-Oblique-73" transform="scale(0.015625)"/>
        <path d="M 2706 3500 
L 2619 3053 
L 1472 3053 
L 1100 1153 
Q 1081 1047 1072 975 
Q 1063 903 1063 863 
Q 1063 663 1183 572 
Q 1303 481 1569 481 
L 2150 481 
L 2053 0 
L 1503 0 
Q 991 0 739 200 
Q 488 400 488 806 
Q 488 878 497 964 
Q 506 1050 525 1153 
L 897 3053 
L 409 3053 
L 500 3500 
L 978 3500 
L 1172 4494 
L 1747 4494 
L 1556 3500 
L 2706 3500 
z
" id="DejaVuSans-Oblique-74" transform="scale(0.015625)"/>
       </defs>
       <use transform="translate(0 0.3125)" xlink:href="#DejaVuSans-Oblique-75"/>
       <use transform="translate(63.378906 -16.09375)scale(0.7)" xlink:href="#DejaVuSans-Oblique-72"/>
       <use transform="translate(92.158203 -16.09375)scale(0.7)" xlink:href="#DejaVuSans-Oblique-65"/>
       <use transform="translate(135.224609 -16.09375)scale(0.7)" xlink:href="#DejaVuSans-Oblique-73"/>
       <use transform="translate(171.694336 -16.09375)scale(0.7)" xlink:href="#DejaVuSans-Oblique-74"/>
      </g>
     </g>
    </g>
    <g id="xtick_2">
     <g id="line2d_2">
      <g>
       <use style="stroke:#000000;stroke-width:3;" x="423.119963" xlink:href="#mf091669f06" y="278.98"/>
      </g>
     </g>
     <g id="text_2">
      <!-- $u_{reset}$ -->
      <g transform="translate(398.619963 305.676875)scale(0.2 -0.2)">
       <use transform="translate(0 0.3125)" xlink:href="#DejaVuSans-Oblique-75"/>
       <use transform="translate(63.378906 -16.09375)scale(0.7)" xlink:href="#DejaVuSans-Oblique-72"/>
       <use transform="translate(92.158203 -16.09375)scale(0.7)" xlink:href="#DejaVuSans-Oblique-65"/>
       <use transform="translate(135.224609 -16.09375)scale(0.7)" xlink:href="#DejaVuSans-Oblique-73"/>
       <use transform="translate(171.694336 -16.09375)scale(0.7)" xlink:href="#DejaVuSans-Oblique-65"/>
       <use transform="translate(214.760742 -16.09375)scale(0.7)" xlink:href="#DejaVuSans-Oblique-74"/>
      </g>
     </g>
    </g>
    <g id="text_3">
     <!-- u -->
     <g transform="translate(246.21373 329.033125)scale(0.2 -0.2)">
      <defs>
       <path d="M 544 1381 
L 544 3500 
L 1119 3500 
L 1119 1403 
Q 1119 906 1312 657 
Q 1506 409 1894 409 
Q 2359 409 2629 706 
Q 2900 1003 2900 1516 
L 2900 3500 
L 3475 3500 
L 3475 0 
L 2900 0 
L 2900 538 
Q 2691 219 2414 64 
Q 2138 -91 1772 -91 
Q 1169 -91 856 284 
Q 544 659 544 1381 
z
M 1991 3584 
L 1991 3584 
z
" id="DejaVuSans-75" transform="scale(0.015625)"/>
      </defs>
      <use xlink:href="#DejaVuSans-75"/>
     </g>
    </g>
   </g>
   <g id="matplotlib.axis_2">
    <g id="ytick_1">
     <g id="line2d_3">
      <defs>
       <path d="M 0 0 
L -8 0 
" id="mc0177df0dc" style="stroke:#000000;stroke-width:3;"/>
      </defs>
      <g>
       <use style="stroke:#000000;stroke-width:3;" x="59.24" xlink:href="#mc0177df0dc" y="234.283333"/>
      </g>
     </g>
     <g id="text_4">
      <!-- 0 -->
      <g transform="translate(35.015 241.881771)scale(0.2 -0.2)">
       <defs>
        <path d="M 2034 4250 
Q 1547 4250 1301 3770 
Q 1056 3291 1056 2328 
Q 1056 1369 1301 889 
Q 1547 409 2034 409 
Q 2525 409 2770 889 
Q 3016 1369 3016 2328 
Q 3016 3291 2770 3770 
Q 2525 4250 2034 4250 
z
M 2034 4750 
Q 2819 4750 3233 4129 
Q 3647 3509 3647 2328 
Q 3647 1150 3233 529 
Q 2819 -91 2034 -91 
Q 1250 -91 836 529 
Q 422 1150 422 2328 
Q 422 3509 836 4129 
Q 1250 4750 2034 4750 
z
" id="DejaVuSans-30" transform="scale(0.015625)"/>
       </defs>
       <use xlink:href="#DejaVuSans-30"/>
      </g>
     </g>
    </g>
    <g id="text_5">
     <!-- du -->
     <g transform="translate(26.855625 157.575937)rotate(-90)scale(0.2 -0.2)">
      <defs>
       <path d="M 2906 2969 
L 2906 4863 
L 3481 4863 
L 3481 0 
L 2906 0 
L 2906 525 
Q 2725 213 2448 61 
Q 2172 -91 1784 -91 
Q 1150 -91 751 415 
Q 353 922 353 1747 
Q 353 2572 751 3078 
Q 1150 3584 1784 3584 
Q 2172 3584 2448 3432 
Q 2725 3281 2906 2969 
z
M 947 1747 
Q 947 1113 1208 752 
Q 1469 391 1925 391 
Q 2381 391 2643 752 
Q 2906 1113 2906 1747 
Q 2906 2381 2643 2742 
Q 2381 3103 1925 3103 
Q 1469 3103 1208 2742 
Q 947 2381 947 1747 
z
" id="DejaVuSans-64" transform="scale(0.015625)"/>
      </defs>
      <use xlink:href="#DejaVuSans-64"/>
      <use x="63.476562" xlink:href="#DejaVuSans-75"/>
     </g>
    </g>
   </g>
   <g id="line2d_4">
    <path clip-path="url(#p992a77f3e4)" d="M 59.24 232.0485 
L 62.915555 232.712497 
L 66.59111 233.259747 
L 70.266666 233.690251 
L 73.942221 234.004008 
L 77.617776 234.201018 
L 81.293331 234.281281 
L 84.968886 234.244798 
L 88.644441 234.091568 
L 92.319997 233.821591 
L 95.995552 233.434867 
L 99.671107 232.931397 
L 103.346662 232.31118 
L 107.022217 231.574216 
L 110.697773 230.720506 
L 114.373328 229.750049 
L 118.048883 228.662845 
L 121.724438 227.458894 
L 125.399993 226.138197 
L 129.075548 224.700753 
L 132.751104 223.146562 
L 136.426659 221.475625 
L 140.102214 219.68794 
L 143.777769 217.783509 
L 147.453324 215.762332 
L 151.12888 213.624407 
L 154.804435 211.369736 
L 158.47999 208.998318 
L 162.155545 206.510154 
L 165.8311 203.905242 
L 169.506655 201.183584 
L 173.182211 198.345179 
L 176.857766 195.390028 
L 180.533321 192.31813 
L 184.208876 189.129485 
L 187.884431 185.824093 
L 191.559987 182.401955 
L 195.235542 178.863069 
L 198.911097 175.207438 
L 202.586652 171.435059 
L 206.262207 167.545934 
L 209.937762 163.540062 
L 213.613318 159.417443 
L 217.288873 155.178077 
L 220.964428 150.821965 
L 224.639983 146.349106 
L 228.315538 141.7595 
L 231.991094 137.053148 
L 235.666649 132.230049 
L 239.342204 127.290203 
L 243.017759 122.23361 
L 246.693314 117.060271 
L 250.368869 111.770185 
L 254.044425 106.363352 
L 257.71998 100.839773 
L 261.395535 95.199447 
L 265.07109 89.442374 
L 268.746645 83.568554 
L 272.422201 77.577987 
L 276.097756 71.470674 
L 279.773311 65.246614 
L 283.448866 58.905808 
L 287.124421 52.448255 
L 290.799976 45.873955 
L 294.475532 39.182908 
L 298.151087 32.375114 
L 301.826642 25.450574 
L 305.502197 18.409287 
L 309.177752 11.251253 
L 312.853308 3.976473 
L 315.327938 -1 
" style="fill:none;stroke:#9e0142;stroke-linecap:square;stroke-width:3;"/>
   </g>
   <g id="line2d_5">
    <path clip-path="url(#p992a77f3e4)" d="M 59.24 228.69625 
L 62.915555 229.902025 
L 66.59111 230.991053 
L 70.266666 231.963334 
L 73.942221 232.818869 
L 77.617776 233.557657 
L 81.293331 234.179698 
L 84.968886 234.684992 
L 88.644441 235.07354 
L 92.319997 235.345341 
L 95.995552 235.500395 
L 99.671107 235.538703 
L 103.346662 235.460263 
L 107.022217 235.265078 
L 110.697773 234.953145 
L 114.373328 234.524465 
L 118.048883 233.979039 
L 121.724438 233.316867 
L 125.399993 232.537947 
L 129.075548 231.642281 
L 132.751104 230.629868 
L 136.426659 229.500708 
L 140.102214 228.254801 
L 143.777769 226.892148 
L 147.453324 225.412748 
L 151.12888 223.816602 
L 154.804435 222.103708 
L 158.47999 220.274068 
L 162.155545 218.327681 
L 165.8311 216.264548 
L 169.506655 214.084668 
L 173.182211 211.78804 
L 176.857766 209.374667 
L 180.533321 206.844546 
L 184.208876 204.197679 
L 187.884431 201.434065 
L 191.559987 198.553705 
L 195.235542 195.556597 
L 198.911097 192.442743 
L 202.586652 189.212142 
L 206.262207 185.864795 
L 209.937762 182.4007 
L 213.613318 178.819859 
L 217.288873 175.122272 
L 220.964428 171.307937 
L 224.639983 167.376856 
L 228.315538 163.329028 
L 231.991094 159.164454 
L 235.666649 154.883132 
L 239.342204 150.485064 
L 243.017759 145.970249 
L 246.693314 141.338688 
L 250.368869 136.590379 
L 254.044425 131.725324 
L 257.71998 126.743523 
L 261.395535 121.644974 
L 265.07109 116.429679 
L 268.746645 111.097637 
L 272.422201 105.648849 
L 276.097756 100.083313 
L 279.773311 94.401031 
L 283.448866 88.602002 
L 287.124421 82.686227 
L 290.799976 76.653705 
L 294.475532 70.504436 
L 298.151087 64.23842 
L 301.826642 57.855657 
L 305.502197 51.356148 
L 309.177752 44.739892 
L 312.853308 38.00689 
L 316.528863 31.15714 
L 320.204418 24.190644 
L 323.879973 17.107402 
L 327.555528 9.907412 
L 331.231083 2.590676 
L 333.006527 -1 
" style="fill:none;stroke:#d43d4f;stroke-linecap:square;stroke-width:3;"/>
   </g>
   <g id="line2d_6">
    <path clip-path="url(#p992a77f3e4)" d="M 59.24 225.344 
L 62.915555 227.091553 
L 66.59111 228.722358 
L 70.266666 230.236418 
L 73.942221 231.63373 
L 77.617776 232.914296 
L 81.293331 234.078114 
L 84.968886 235.125187 
L 88.644441 236.055512 
L 92.319997 236.869091 
L 95.995552 237.565923 
L 99.671107 238.146008 
L 103.346662 238.609347 
L 107.022217 238.955939 
L 110.697773 239.185784 
L 114.373328 239.298882 
L 118.048883 239.295234 
L 121.724438 239.174839 
L 125.399993 238.937697 
L 129.075548 238.583808 
L 132.751104 238.113173 
L 136.426659 237.525791 
L 140.102214 236.821663 
L 143.777769 236.000787 
L 147.453324 235.063165 
L 151.12888 234.008796 
L 154.804435 232.837681 
L 158.47999 231.549818 
L 162.155545 230.145209 
L 165.8311 228.623853 
L 169.506655 226.985751 
L 173.182211 225.230902 
L 176.857766 223.359306 
L 180.533321 221.370963 
L 184.208876 219.265874 
L 187.884431 217.044037 
L 191.559987 214.705455 
L 195.235542 212.250125 
L 198.911097 209.678049 
L 202.586652 206.989226 
L 206.262207 204.183656 
L 209.937762 201.261339 
L 213.613318 198.222276 
L 217.288873 195.066466 
L 220.964428 191.793909 
L 224.639983 188.404606 
L 228.315538 184.898556 
L 231.991094 181.275759 
L 235.666649 177.536215 
L 239.342204 173.679925 
L 243.017759 169.706888 
L 246.693314 165.617104 
L 250.368869 161.410574 
L 254.044425 157.087297 
L 257.71998 152.647273 
L 261.395535 148.090502 
L 265.07109 143.416985 
L 268.746645 138.626721 
L 272.422201 133.71971 
L 276.097756 128.695952 
L 279.773311 123.555448 
L 283.448866 118.298197 
L 287.124421 112.924199 
L 290.799976 107.433455 
L 294.475532 101.825963 
L 298.151087 96.101725 
L 301.826642 90.260741 
L 305.502197 84.303009 
L 309.177752 78.228531 
L 312.853308 72.037306 
L 316.528863 65.729335 
L 320.204418 59.304617 
L 323.879973 52.763152 
L 327.555528 46.10494 
L 331.231083 39.329981 
L 334.906639 32.438276 
L 338.582194 25.429824 
L 342.257749 18.304626 
L 345.933304 11.06268 
L 349.608859 3.703988 
L 351.921736 -1 
" style="fill:none;stroke:#f46d43;stroke-linecap:square;stroke-width:3;"/>
   </g>
   <g id="line2d_7">
    <path clip-path="url(#p992a77f3e4)" d="M 59.24 221.99175 
L 62.915555 224.28108 
L 66.59111 226.453664 
L 70.266666 228.509501 
L 73.942221 230.448591 
L 77.617776 232.270934 
L 81.293331 233.976531 
L 84.968886 235.565381 
L 88.644441 237.037484 
L 92.319997 238.392841 
L 95.995552 239.631451 
L 99.671107 240.753314 
L 103.346662 241.75843 
L 107.022217 242.6468 
L 110.697773 243.418423 
L 114.373328 244.073299 
L 118.048883 244.611428 
L 121.724438 245.032811 
L 125.399993 245.337447 
L 129.075548 245.525336 
L 132.751104 245.596479 
L 136.426659 245.550875 
L 140.102214 245.388524 
L 143.777769 245.109426 
L 147.453324 244.713582 
L 151.12888 244.200991 
L 154.804435 243.571653 
L 158.47999 242.825568 
L 162.155545 241.962737 
L 165.8311 240.983159 
L 169.506655 239.886834 
L 173.182211 238.673763 
L 176.857766 237.343945 
L 180.533321 235.89738 
L 184.208876 234.334068 
L 187.884431 232.65401 
L 191.559987 230.857205 
L 195.235542 228.943653 
L 198.911097 226.913354 
L 202.586652 224.766309 
L 206.262207 222.502517 
L 209.937762 220.121978 
L 213.613318 217.624693 
L 217.288873 215.010661 
L 220.964428 212.279882 
L 224.639983 209.432356 
L 228.315538 206.468084 
L 231.991094 203.387065 
L 235.666649 200.189299 
L 239.342204 196.874786 
L 243.017759 193.443527 
L 246.693314 189.895521 
L 250.368869 186.230768 
L 254.044425 182.449269 
L 257.71998 178.551023 
L 261.395535 174.53603 
L 265.07109 170.40429 
L 268.746645 166.155804 
L 272.422201 161.790571 
L 276.097756 157.308591 
L 279.773311 152.709864 
L 283.448866 147.994391 
L 287.124421 143.162171 
L 290.799976 138.213205 
L 294.475532 133.147491 
L 298.151087 127.965031 
L 301.826642 122.665824 
L 305.502197 117.24987 
L 309.177752 111.71717 
L 312.853308 106.067723 
L 316.528863 100.301529 
L 320.204418 94.418589 
L 323.879973 88.418902 
L 327.555528 82.302468 
L 331.231083 76.069287 
L 334.906639 69.719359 
L 338.582194 63.252685 
L 342.257749 56.669264 
L 345.933304 49.969097 
L 349.608859 43.152182 
L 353.284415 36.218521 
L 356.95997 29.168114 
L 360.635525 22.000959 
L 364.31108 14.717058 
L 367.986635 7.31641 
L 371.66219 -0.200985 
L 372.046887 -1 
" style="fill:none;stroke:#fdad60;stroke-linecap:square;stroke-width:3;"/>
   </g>
   <g id="line2d_8">
    <path clip-path="url(#p992a77f3e4)" d="M 59.24 218.6395 
L 62.915555 221.470608 
L 66.59111 224.18497 
L 70.266666 226.782584 
L 73.942221 229.263452 
L 77.617776 231.627573 
L 81.293331 233.874948 
L 84.968886 236.005576 
L 88.644441 238.019457 
L 92.319997 239.916591 
L 95.995552 241.696978 
L 99.671107 243.360619 
L 103.346662 244.907513 
L 107.022217 246.337661 
L 110.697773 247.651062 
L 114.373328 248.847715 
L 118.048883 249.927623 
L 121.724438 250.890783 
L 125.399993 251.737197 
L 129.075548 252.466864 
L 132.751104 253.079784 
L 136.426659 253.575958 
L 140.102214 253.955385 
L 143.777769 254.218065 
L 147.453324 254.363998 
L 151.12888 254.393185 
L 154.804435 254.305625 
L 158.47999 254.101318 
L 162.155545 253.780265 
L 165.8311 253.342464 
L 169.506655 252.787918 
L 173.182211 252.116624 
L 176.857766 251.328583 
L 180.533321 250.423796 
L 184.208876 249.402262 
L 187.884431 248.263982 
L 191.559987 247.008955 
L 195.235542 245.637181 
L 198.911097 244.14866 
L 202.586652 242.543392 
L 206.262207 240.821378 
L 209.937762 238.982617 
L 213.613318 237.027109 
L 217.288873 234.954855 
L 220.964428 232.765854 
L 224.639983 230.460106 
L 228.315538 228.037611 
L 231.991094 225.49837 
L 235.666649 222.842382 
L 239.342204 220.069647 
L 243.017759 217.180166 
L 246.693314 214.173938 
L 250.368869 211.050963 
L 254.044425 207.811241 
L 257.71998 204.454773 
L 261.395535 200.981558 
L 265.07109 197.391596 
L 268.746645 193.684887 
L 272.422201 189.861432 
L 276.097756 185.92123 
L 279.773311 181.864281 
L 283.448866 177.690586 
L 287.124421 173.400143 
L 290.799976 168.992955 
L 294.475532 164.469019 
L 298.151087 159.828337 
L 301.826642 155.070907 
L 305.502197 150.196732 
L 309.177752 145.205809 
L 312.853308 140.09814 
L 316.528863 134.873724 
L 320.204418 129.532561 
L 323.879973 124.074652 
L 327.555528 118.499995 
L 331.231083 112.808592 
L 334.906639 107.000443 
L 338.582194 101.075546 
L 342.257749 95.033903 
L 345.933304 88.875513 
L 349.608859 82.600377 
L 353.284415 76.208494 
L 356.95997 69.699864 
L 360.635525 63.074487 
L 364.31108 56.332363 
L 367.986635 49.473493 
L 371.66219 42.497876 
L 375.337746 35.405513 
L 379.013301 28.196402 
L 382.688856 20.870545 
L 386.364411 13.427941 
L 390.039966 5.868591 
L 393.328862 -1 
" style="fill:none;stroke:#fee08b;stroke-linecap:square;stroke-width:3;"/>
   </g>
   <g id="line2d_9">
    <path clip-path="url(#p992a77f3e4)" d="M 59.24 215.28725 
L 62.915555 218.660136 
L 66.59111 221.916275 
L 70.266666 225.055668 
L 73.942221 228.078313 
L 77.617776 230.984212 
L 81.293331 233.773364 
L 84.968886 236.44577 
L 88.644441 239.001429 
L 92.319997 241.440341 
L 95.995552 243.762506 
L 99.671107 245.967925 
L 103.346662 248.056597 
L 107.022217 250.028522 
L 110.697773 251.8837 
L 114.373328 253.622132 
L 118.048883 255.243817 
L 121.724438 256.748755 
L 125.399993 258.136947 
L 129.075548 259.408392 
L 132.751104 260.56309 
L 136.426659 261.601041 
L 140.102214 262.522246 
L 143.777769 263.326704 
L 147.453324 264.014415 
L 151.12888 264.585379 
L 154.804435 265.039597 
L 158.47999 265.377068 
L 162.155545 265.597792 
L 165.8311 265.70177 
L 169.506655 265.689001 
L 173.182211 265.559485 
L 176.857766 265.313222 
L 180.533321 264.950213 
L 184.208876 264.470457 
L 187.884431 263.873954 
L 191.559987 263.160705 
L 195.235542 262.330708 
L 198.911097 261.383965 
L 202.586652 260.320476 
L 206.262207 259.140239 
L 209.937762 257.843256 
L 213.613318 256.429526 
L 217.288873 254.899049 
L 220.964428 253.251826 
L 224.639983 251.487856 
L 228.315538 249.607139 
L 231.991094 247.609676 
L 235.666649 245.495465 
L 239.342204 243.264509 
L 243.017759 240.916805 
L 246.693314 238.452354 
L 250.368869 235.871157 
L 254.044425 233.173213 
L 257.71998 230.358523 
L 261.395535 227.427085 
L 265.07109 224.378901 
L 268.746645 221.213971 
L 272.422201 217.932293 
L 276.097756 214.533869 
L 279.773311 211.018698 
L 283.448866 207.38678 
L 287.124421 203.638116 
L 290.799976 199.772705 
L 294.475532 195.790547 
L 298.151087 191.691642 
L 301.826642 187.475991 
L 305.502197 183.143593 
L 309.177752 178.694448 
L 312.853308 174.128556 
L 316.528863 169.445918 
L 320.204418 164.646533 
L 323.879973 159.730402 
L 327.555528 154.697523 
L 331.231083 149.547898 
L 334.906639 144.281526 
L 338.582194 138.898408 
L 342.257749 133.398542 
L 345.933304 127.78193 
L 349.608859 122.048571 
L 353.284415 116.198466 
L 356.95997 110.231614 
L 360.635525 104.148015 
L 364.31108 97.947669 
L 367.986635 91.630577 
L 371.66219 85.196737 
L 375.337746 78.646152 
L 379.013301 71.978819 
L 382.688856 65.19474 
L 386.364411 58.293914 
L 390.039966 51.276341 
L 393.715522 44.142021 
L 397.391077 36.890955 
L 401.066632 29.523142 
L 404.742187 22.038583 
L 408.417742 14.437276 
L 412.093297 6.719223 
L 415.714632 -1 
" style="fill:none;stroke:#ffffbe;stroke-linecap:square;stroke-width:3;"/>
   </g>
   <g id="line2d_10">
    <path clip-path="url(#p992a77f3e4)" d="M 59.24 211.935 
L 62.915555 215.849664 
L 66.59111 219.647581 
L 70.266666 223.328751 
L 73.942221 226.893174 
L 77.617776 230.340851 
L 81.293331 233.671781 
L 84.968886 236.885964 
L 88.644441 239.983401 
L 92.319997 242.964091 
L 95.995552 245.828034 
L 99.671107 248.57523 
L 103.346662 251.20568 
L 107.022217 253.719383 
L 110.697773 256.116339 
L 114.373328 258.396549 
L 118.048883 260.560012 
L 121.724438 262.606728 
L 125.399993 264.536697 
L 129.075548 266.34992 
L 132.751104 268.046395 
L 136.426659 269.626125 
L 140.102214 271.089107 
L 143.777769 272.435343 
L 147.453324 273.664832 
L 151.12888 274.777574 
L 154.804435 275.773569 
L 158.47999 276.652818 
L 162.155545 277.41532 
L 165.8311 278.061076 
L 169.506655 278.590084 
L 173.182211 279.002346 
L 176.857766 279.297861 
L 180.533321 279.47663 
L 184.208876 279.538651 
L 187.884431 279.483926 
L 191.559987 279.312455 
L 195.235542 279.024236 
L 198.911097 278.619271 
L 202.586652 278.097559 
L 206.262207 277.4591 
L 209.937762 276.703895 
L 213.613318 275.831943 
L 217.288873 274.843244 
L 220.964428 273.737798 
L 224.639983 272.515606 
L 228.315538 271.176667 
L 231.991094 269.720981 
L 235.666649 268.148549 
L 239.342204 266.45937 
L 243.017759 264.653444 
L 246.693314 262.730771 
L 250.368869 260.691352 
L 254.044425 258.535186 
L 257.71998 256.262273 
L 261.395535 253.872613 
L 265.07109 251.366207 
L 268.746645 248.743054 
L 272.422201 246.003154 
L 276.097756 243.146508 
L 279.773311 240.173114 
L 283.448866 237.082975 
L 287.124421 233.876088 
L 290.799976 230.552455 
L 294.475532 227.112074 
L 298.151087 223.554948 
L 301.826642 219.881074 
L 305.502197 216.090454 
L 309.177752 212.183087 
L 312.853308 208.158973 
L 316.528863 204.018113 
L 320.204418 199.760505 
L 323.879973 195.386152 
L 327.555528 190.895051 
L 331.231083 186.287204 
L 334.906639 181.562609 
L 338.582194 176.721269 
L 342.257749 171.763181 
L 345.933304 166.688347 
L 349.608859 161.496766 
L 353.284415 156.188438 
L 356.95997 150.763364 
L 360.635525 145.221542 
L 364.31108 139.562975 
L 367.986635 133.78766 
L 371.66219 127.895599 
L 375.337746 121.88679 
L 379.013301 115.761236 
L 382.688856 109.518934 
L 386.364411 103.159886 
L 390.039966 96.684091 
L 393.715522 90.091549 
L 397.391077 83.382261 
L 401.066632 76.556226 
L 404.742187 69.613444 
L 408.417742 62.553915 
L 412.093297 55.37764 
L 415.768853 48.084618 
L 419.444408 40.674849 
L 423.119963 33.148333 
" style="fill:none;stroke:#e6f598;stroke-linecap:square;stroke-width:3;"/>
   </g>
   <g id="line2d_11">
    <path clip-path="url(#p992a77f3e4)" d="M 59.24 208.58275 
L 62.915555 213.039191 
L 66.59111 217.378886 
L 70.266666 221.601834 
L 73.942221 225.708035 
L 77.617776 229.69749 
L 81.293331 233.570198 
L 84.968886 237.326159 
L 88.644441 240.965373 
L 92.319997 244.487841 
L 95.995552 247.893562 
L 99.671107 251.182536 
L 103.346662 254.354763 
L 107.022217 257.410244 
L 110.697773 260.348978 
L 114.373328 263.170965 
L 118.048883 265.876206 
L 121.724438 268.4647 
L 125.399993 270.936447 
L 129.075548 273.291447 
L 132.751104 275.529701 
L 136.426659 277.651208 
L 140.102214 279.655968 
L 143.777769 281.543982 
L 147.453324 283.315248 
L 151.12888 284.969768 
L 154.804435 286.507542 
L 158.47999 287.928568 
L 162.155545 289.232848 
L 165.8311 290.420381 
L 169.506655 291.491168 
L 173.182211 292.445207 
L 176.857766 293.2825 
L 180.533321 294.003046 
L 184.208876 294.606846 
L 187.884431 295.093899 
L 191.559987 295.464205 
L 195.235542 295.717764 
L 198.911097 295.854576 
L 202.586652 295.874642 
L 206.262207 295.777961 
L 209.937762 295.564534 
L 213.613318 295.234359 
L 217.288873 294.787438 
L 220.964428 294.223771 
L 224.639983 293.543356 
L 228.315538 292.746195 
L 231.991094 291.832287 
L 235.666649 290.801632 
L 239.342204 289.654231 
L 243.017759 288.390083 
L 246.693314 287.009188 
L 250.368869 285.511546 
L 254.044425 283.897158 
L 257.71998 282.166023 
L 261.395535 280.318141 
L 265.07109 278.353512 
L 268.746645 276.272137 
L 272.422201 274.074015 
L 276.097756 271.759147 
L 279.773311 269.327531 
L 283.448866 266.779169 
L 287.124421 264.11406 
L 290.799976 261.332205 
L 294.475532 258.433602 
L 298.151087 255.418253 
L 301.826642 252.286157 
L 305.502197 249.037315 
L 309.177752 245.671726 
L 312.853308 242.18939 
L 316.528863 238.590307 
L 320.204418 234.874478 
L 323.879973 231.041902 
L 327.555528 227.092579 
L 331.231083 223.026509 
L 334.906639 218.843693 
L 338.582194 214.54413 
L 342.257749 210.12782 
L 345.933304 205.594763 
L 349.608859 200.94496 
L 353.284415 196.17841 
L 356.95997 191.295114 
L 360.635525 186.29507 
L 364.31108 181.17828 
L 367.986635 175.944743 
L 371.66219 170.59446 
L 375.337746 165.127429 
L 379.013301 159.543652 
L 382.688856 153.843129 
L 386.364411 148.025858 
L 390.039966 142.091841 
L 393.715522 136.041077 
L 397.391077 129.873566 
L 401.066632 123.589309 
L 404.742187 117.188305 
L 408.417742 110.670554 
L 412.093297 104.036056 
L 415.768853 97.284812 
L 419.444408 90.416821 
L 423.119963 83.432083 
" style="fill:none;stroke:#aadca4;stroke-linecap:square;stroke-width:3;"/>
   </g>
   <g id="line2d_12">
    <path clip-path="url(#p992a77f3e4)" d="M 59.24 205.2305 
L 62.915555 210.228719 
L 66.59111 215.110192 
L 70.266666 219.874918 
L 73.942221 224.522897 
L 77.617776 229.054129 
L 81.293331 233.468614 
L 84.968886 237.766353 
L 88.644441 241.947345 
L 92.319997 246.011591 
L 95.995552 249.95909 
L 99.671107 253.789842 
L 103.346662 257.503847 
L 107.022217 261.101105 
L 110.697773 264.581617 
L 114.373328 267.945382 
L 118.048883 271.1924 
L 121.724438 274.322672 
L 125.399993 277.336197 
L 129.075548 280.232975 
L 132.751104 283.013007 
L 136.426659 285.676291 
L 140.102214 288.222829 
L 143.777769 290.65262 
L 147.453324 292.965665 
L 151.12888 295.161963 
L 154.804435 297.241514 
L 158.47999 299.204318 
L 162.155545 301.050376 
L 165.8311 302.779687 
L 169.506655 304.392251 
L 173.182211 305.888068 
L 176.857766 307.267139 
L 180.533321 308.529463 
L 184.208876 309.67504 
L 187.884431 310.703871 
L 191.559987 311.615955 
L 195.235542 312.411292 
L 198.911097 313.089882 
L 202.586652 313.651726 
L 206.262207 314.096822 
L 209.937762 314.425173 
L 213.613318 314.636776 
L 217.288873 314.731633 
L 220.964428 314.709743 
L 224.639983 314.571106 
L 228.315538 314.315723 
L 231.991094 313.943592 
L 235.666649 313.454715 
L 239.342204 312.849092 
L 243.017759 312.126721 
L 246.693314 311.287604 
L 250.368869 310.331741 
L 254.044425 309.25913 
L 257.71998 308.069773 
L 261.395535 306.763669 
L 265.07109 305.340818 
L 268.746645 303.801221 
L 272.422201 302.144876 
L 276.097756 300.371785 
L 279.773311 298.481948 
L 283.448866 296.475363 
L 287.124421 294.352032 
L 290.799976 292.111955 
L 294.475532 289.75513 
L 298.151087 287.281559 
L 301.826642 284.691241 
L 305.502197 281.984176 
L 309.177752 279.160365 
L 312.853308 276.219806 
L 316.528863 273.162501 
L 320.204418 269.98845 
L 323.879973 266.697652 
L 327.555528 263.290106 
L 331.231083 259.765815 
L 334.906639 256.124776 
L 338.582194 252.366991 
L 342.257749 248.492459 
L 345.933304 244.50118 
L 349.608859 240.393155 
L 353.284415 236.168383 
L 356.95997 231.826864 
L 360.635525 227.368598 
L 364.31108 222.793586 
L 367.986635 218.101827 
L 371.66219 213.293321 
L 375.337746 208.368068 
L 379.013301 203.326069 
L 382.688856 198.167323 
L 386.364411 192.89183 
L 390.039966 187.499591 
L 393.715522 181.990605 
L 397.391077 176.364872 
L 401.066632 170.622392 
L 404.742187 164.763166 
L 408.417742 158.787193 
L 412.093297 152.694473 
L 415.768853 146.485007 
L 419.444408 140.158793 
L 423.119963 133.715833 
" style="fill:none;stroke:#66c2a5;stroke-linecap:square;stroke-width:3;"/>
   </g>
   <g id="line2d_13">
    <path clip-path="url(#p992a77f3e4)" d="M 59.24 201.87825 
L 62.915555 207.418247 
L 66.59111 212.841497 
L 70.266666 218.148001 
L 73.942221 223.337758 
L 77.617776 228.410768 
L 81.293331 233.367031 
L 84.968886 238.206548 
L 88.644441 242.929318 
L 92.319997 247.535341 
L 95.995552 252.024617 
L 99.671107 256.397147 
L 103.346662 260.65293 
L 107.022217 264.791966 
L 110.697773 268.814256 
L 114.373328 272.719799 
L 118.048883 276.508595 
L 121.724438 280.180644 
L 125.399993 283.735947 
L 129.075548 287.174503 
L 132.751104 290.496312 
L 136.426659 293.701375 
L 140.102214 296.78969 
L 143.777769 299.761259 
L 147.453324 302.616082 
L 151.12888 305.354157 
L 154.804435 307.975486 
L 158.47999 310.480068 
L 162.155545 312.867904 
L 165.8311 315.138992 
L 169.506655 317.293334 
L 173.182211 319.330929 
L 176.857766 321.251778 
L 180.533321 323.05588 
L 184.208876 324.743235 
L 187.884431 326.313843 
L 191.559987 327.767705 
L 195.235542 329.104819 
L 198.911097 330.325188 
L 202.586652 331.428809 
L 206.262207 332.415684 
L 209.937762 333.285812 
L 213.613318 334.039193 
L 217.288873 334.675827 
L 220.964428 335.195715 
L 224.639983 335.598856 
L 228.315538 335.88525 
L 231.991094 336.054898 
L 235.666649 336.107799 
L 239.342204 336.043953 
L 243.017759 335.86336 
L 246.693314 335.566021 
L 250.368869 335.151935 
L 254.044425 334.621102 
L 257.71998 333.973523 
L 261.395535 333.209197 
L 265.07109 332.328124 
L 268.746645 331.330304 
L 272.422201 330.215737 
L 276.097756 328.984424 
L 279.773311 327.636364 
L 283.448866 326.171558 
L 287.124421 324.590005 
L 290.799976 322.891705 
L 294.475532 321.076658 
L 298.151087 319.144864 
L 301.826642 317.096324 
L 305.502197 314.931037 
L 309.177752 312.649003 
L 312.853308 310.250223 
L 316.528863 307.734696 
L 320.204418 305.102422 
L 323.879973 302.353402 
L 327.555528 299.487634 
L 331.231083 296.50512 
L 334.906639 293.405859 
L 338.582194 290.189852 
L 342.257749 286.857098 
L 345.933304 283.407597 
L 349.608859 279.841349 
L 353.284415 276.158355 
L 356.95997 272.358614 
L 360.635525 268.442126 
L 364.31108 264.408891 
L 367.986635 260.25891 
L 371.66219 255.992182 
L 375.337746 251.608707 
L 379.013301 247.108486 
L 382.688856 242.491517 
L 386.364411 237.757803 
L 390.039966 232.907341 
L 393.715522 227.940133 
L 397.391077 222.856177 
L 401.066632 217.655476 
L 404.742187 212.338027 
L 408.417742 206.903832 
L 412.093297 201.35289 
L 415.768853 195.685201 
L 419.444408 189.900766 
L 423.119963 183.999583 
" style="fill:none;stroke:#3387bc;stroke-linecap:square;stroke-width:3;"/>
   </g>
   <g id="line2d_14">
    <path clip-path="url(#p992a77f3e4)" d="M 59.24 198.526 
L 62.915555 204.607775 
L 66.59111 210.572803 
L 70.266666 216.421084 
L 73.942221 222.152619 
L 77.617776 227.767407 
L 81.293331 233.265448 
L 84.968886 238.646742 
L 88.644441 243.91129 
L 92.319997 249.059091 
L 95.995552 254.090145 
L 99.671107 259.004453 
L 103.346662 263.802013 
L 107.022217 268.482828 
L 110.697773 273.046895 
L 114.373328 277.494215 
L 118.048883 281.824789 
L 121.724438 286.038617 
L 125.399993 290.135697 
L 129.075548 294.116031 
L 132.751104 297.979618 
L 136.426659 301.726458 
L 140.102214 305.356551 
L 143.777769 308.869898 
L 147.453324 312.266498 
L 151.12888 315.546352 
L 154.804435 318.709458 
L 158.47999 321.755818 
L 162.155545 324.685431 
L 165.8311 327.498298 
L 169.506655 330.194418 
L 173.182211 332.77379 
L 176.857766 335.236417 
L 180.533321 337.582296 
L 184.208876 339.811429 
L 187.884431 341.923815 
L 191.559987 343.919455 
L 195.235542 345.798347 
L 196.907662 346.6 
M 308.201217 346.6 
L 309.177752 346.137642 
L 312.853308 344.28064 
L 316.528863 342.30689 
L 320.204418 340.216394 
L 323.879973 338.009152 
L 327.555528 335.685162 
L 331.231083 333.244426 
L 334.906639 330.686943 
L 338.582194 328.012713 
L 342.257749 325.221737 
L 345.933304 322.314013 
L 349.608859 319.289544 
L 353.284415 316.148327 
L 356.95997 312.890364 
L 360.635525 309.515654 
L 364.31108 306.024197 
L 367.986635 302.415993 
L 371.66219 298.691043 
L 375.337746 294.849346 
L 379.013301 290.890902 
L 382.688856 286.815712 
L 386.364411 282.623775 
L 390.039966 278.315091 
L 393.715522 273.88966 
L 397.391077 269.347483 
L 401.066632 264.688559 
L 404.742187 259.912888 
L 408.417742 255.020471 
L 412.093297 250.011306 
L 415.768853 244.885395 
L 419.444408 239.642738 
L 423.119963 234.283333 
" style="fill:none;stroke:#5e4fa2;stroke-linecap:square;stroke-width:3;"/>
   </g>
   <g id="line2d_15">
    <path clip-path="url(#p992a77f3e4)" d="M 423.119963 278.98 
L 423.119963 10.8 
" style="fill:none;stroke:#000000;stroke-dasharray:3,4.95;stroke-dashoffset:0;stroke-width:3;"/>
   </g>
   <g id="line2d_16">
    <path clip-path="url(#p992a77f3e4)" d="M 59.24 234.283333 
L 445.862461 234.283333 
" style="fill:none;stroke:#000000;stroke-dasharray:11.1,4.8;stroke-dashoffset:0;stroke-width:3;"/>
   </g>
   <g id="patch_3">
    <path d="M 59.24 278.98 
L 59.24 10.8 
" style="fill:none;stroke:#000000;stroke-linecap:square;stroke-linejoin:miter;stroke-width:3;"/>
   </g>
   <g id="patch_4">
    <path d="M 59.24 278.98 
L 445.862461 278.98 
" style="fill:none;stroke:#000000;stroke-linecap:square;stroke-linejoin:miter;stroke-width:3;"/>
   </g>
   <g id="legend_1">
    <g id="patch_5">
     <path d="M 66.24 121.546875 
L 154.40875 121.546875 
Q 156.40875 121.546875 156.40875 119.546875 
L 156.40875 17.8 
Q 156.40875 15.8 154.40875 15.8 
L 66.24 15.8 
Q 64.24 15.8 64.24 17.8 
L 64.24 119.546875 
Q 64.24 121.546875 66.24 121.546875 
z
" style="fill:#ffffff;opacity:0.8;stroke:#cccccc;stroke-linejoin:miter;"/>
    </g>
    <g id="text_6">
     <!-- $u_c$ -->
     <g transform="translate(105.074375 27.398438)scale(0.1 -0.1)">
      <defs>
       <path d="M 3431 3366 
L 3316 2797 
Q 3109 2947 2876 3022 
Q 2644 3097 2394 3097 
Q 2119 3097 1870 3000 
Q 1622 2903 1453 2725 
Q 1184 2453 1037 2087 
Q 891 1722 891 1331 
Q 891 859 1127 628 
Q 1363 397 1844 397 
Q 2081 397 2348 469 
Q 2616 541 2906 684 
L 2797 116 
Q 2547 13 2283 -39 
Q 2019 -91 1741 -91 
Q 1044 -91 669 257 
Q 294 606 294 1253 
Q 294 1797 489 2255 
Q 684 2713 1069 3078 
Q 1331 3328 1684 3456 
Q 2038 3584 2456 3584 
Q 2700 3584 2940 3529 
Q 3181 3475 3431 3366 
z
" id="DejaVuSans-Oblique-63" transform="scale(0.015625)"/>
      </defs>
      <use transform="translate(0 0.3125)" xlink:href="#DejaVuSans-Oblique-75"/>
      <use transform="translate(63.378906 -16.09375)scale(0.7)" xlink:href="#DejaVuSans-Oblique-63"/>
     </g>
    </g>
    <g id="line2d_17">
     <path d="M 68.24 38.576563 
L 73.24 38.576563 
" style="fill:none;stroke:#9e0142;stroke-linecap:square;stroke-width:3;"/>
    </g>
    <g id="line2d_18"/>
    <g id="text_7">
     <!-- 0.0 -->
     <g transform="translate(81.24 42.076563)scale(0.1 -0.1)">
      <defs>
       <path d="M 684 794 
L 1344 794 
L 1344 0 
L 684 0 
L 684 794 
z
" id="DejaVuSans-2e" transform="scale(0.015625)"/>
      </defs>
      <use xlink:href="#DejaVuSans-30"/>
      <use x="63.623047" xlink:href="#DejaVuSans-2e"/>
      <use x="95.410156" xlink:href="#DejaVuSans-30"/>
     </g>
    </g>
    <g id="line2d_19">
     <path d="M 68.24 53.254688 
L 73.24 53.254688 
" style="fill:none;stroke:#d43d4f;stroke-linecap:square;stroke-width:3;"/>
    </g>
    <g id="line2d_20"/>
    <g id="text_8">
     <!-- 1.5 -->
     <g transform="translate(81.24 56.754688)scale(0.1 -0.1)">
      <defs>
       <path d="M 794 531 
L 1825 531 
L 1825 4091 
L 703 3866 
L 703 4441 
L 1819 4666 
L 2450 4666 
L 2450 531 
L 3481 531 
L 3481 0 
L 794 0 
L 794 531 
z
" id="DejaVuSans-31" transform="scale(0.015625)"/>
       <path d="M 691 4666 
L 3169 4666 
L 3169 4134 
L 1269 4134 
L 1269 2991 
Q 1406 3038 1543 3061 
Q 1681 3084 1819 3084 
Q 2600 3084 3056 2656 
Q 3513 2228 3513 1497 
Q 3513 744 3044 326 
Q 2575 -91 1722 -91 
Q 1428 -91 1123 -41 
Q 819 9 494 109 
L 494 744 
Q 775 591 1075 516 
Q 1375 441 1709 441 
Q 2250 441 2565 725 
Q 2881 1009 2881 1497 
Q 2881 1984 2565 2268 
Q 2250 2553 1709 2553 
Q 1456 2553 1204 2497 
Q 953 2441 691 2322 
L 691 4666 
z
" id="DejaVuSans-35" transform="scale(0.015625)"/>
      </defs>
      <use xlink:href="#DejaVuSans-31"/>
      <use x="63.623047" xlink:href="#DejaVuSans-2e"/>
      <use x="95.410156" xlink:href="#DejaVuSans-35"/>
     </g>
    </g>
    <g id="line2d_21">
     <path d="M 68.24 67.932813 
L 73.24 67.932813 
" style="fill:none;stroke:#f46d43;stroke-linecap:square;stroke-width:3;"/>
    </g>
    <g id="line2d_22"/>
    <g id="text_9">
     <!-- 3.0 -->
     <g transform="translate(81.24 71.432813)scale(0.1 -0.1)">
      <defs>
       <path d="M 2597 2516 
Q 3050 2419 3304 2112 
Q 3559 1806 3559 1356 
Q 3559 666 3084 287 
Q 2609 -91 1734 -91 
Q 1441 -91 1130 -33 
Q 819 25 488 141 
L 488 750 
Q 750 597 1062 519 
Q 1375 441 1716 441 
Q 2309 441 2620 675 
Q 2931 909 2931 1356 
Q 2931 1769 2642 2001 
Q 2353 2234 1838 2234 
L 1294 2234 
L 1294 2753 
L 1863 2753 
Q 2328 2753 2575 2939 
Q 2822 3125 2822 3475 
Q 2822 3834 2567 4026 
Q 2313 4219 1838 4219 
Q 1578 4219 1281 4162 
Q 984 4106 628 3988 
L 628 4550 
Q 988 4650 1302 4700 
Q 1616 4750 1894 4750 
Q 2613 4750 3031 4423 
Q 3450 4097 3450 3541 
Q 3450 3153 3228 2886 
Q 3006 2619 2597 2516 
z
" id="DejaVuSans-33" transform="scale(0.015625)"/>
      </defs>
      <use xlink:href="#DejaVuSans-33"/>
      <use x="63.623047" xlink:href="#DejaVuSans-2e"/>
      <use x="95.410156" xlink:href="#DejaVuSans-30"/>
     </g>
    </g>
    <g id="line2d_23">
     <path d="M 68.24 82.610938 
L 73.24 82.610938 
" style="fill:none;stroke:#fdad60;stroke-linecap:square;stroke-width:3;"/>
    </g>
    <g id="line2d_24"/>
    <g id="text_10">
     <!-- 4.5 -->
     <g transform="translate(81.24 86.110938)scale(0.1 -0.1)">
      <defs>
       <path d="M 2419 4116 
L 825 1625 
L 2419 1625 
L 2419 4116 
z
M 2253 4666 
L 3047 4666 
L 3047 1625 
L 3713 1625 
L 3713 1100 
L 3047 1100 
L 3047 0 
L 2419 0 
L 2419 1100 
L 313 1100 
L 313 1709 
L 2253 4666 
z
" id="DejaVuSans-34" transform="scale(0.015625)"/>
      </defs>
      <use xlink:href="#DejaVuSans-34"/>
      <use x="63.623047" xlink:href="#DejaVuSans-2e"/>
      <use x="95.410156" xlink:href="#DejaVuSans-35"/>
     </g>
    </g>
    <g id="line2d_25">
     <path d="M 68.24 97.289063 
L 73.24 97.289063 
" style="fill:none;stroke:#fee08b;stroke-linecap:square;stroke-width:3;"/>
    </g>
    <g id="line2d_26"/>
    <g id="text_11">
     <!-- 6.0 -->
     <g transform="translate(81.24 100.789063)scale(0.1 -0.1)">
      <defs>
       <path d="M 2113 2584 
Q 1688 2584 1439 2293 
Q 1191 2003 1191 1497 
Q 1191 994 1439 701 
Q 1688 409 2113 409 
Q 2538 409 2786 701 
Q 3034 994 3034 1497 
Q 3034 2003 2786 2293 
Q 2538 2584 2113 2584 
z
M 3366 4563 
L 3366 3988 
Q 3128 4100 2886 4159 
Q 2644 4219 2406 4219 
Q 1781 4219 1451 3797 
Q 1122 3375 1075 2522 
Q 1259 2794 1537 2939 
Q 1816 3084 2150 3084 
Q 2853 3084 3261 2657 
Q 3669 2231 3669 1497 
Q 3669 778 3244 343 
Q 2819 -91 2113 -91 
Q 1303 -91 875 529 
Q 447 1150 447 2328 
Q 447 3434 972 4092 
Q 1497 4750 2381 4750 
Q 2619 4750 2861 4703 
Q 3103 4656 3366 4563 
z
" id="DejaVuSans-36" transform="scale(0.015625)"/>
      </defs>
      <use xlink:href="#DejaVuSans-36"/>
      <use x="63.623047" xlink:href="#DejaVuSans-2e"/>
      <use x="95.410156" xlink:href="#DejaVuSans-30"/>
     </g>
    </g>
    <g id="line2d_27">
     <path d="M 68.24 111.967188 
L 73.24 111.967188 
" style="fill:none;stroke:#ffffbe;stroke-linecap:square;stroke-width:3;"/>
    </g>
    <g id="line2d_28"/>
    <g id="text_12">
     <!-- 7.5 -->
     <g transform="translate(81.24 115.467188)scale(0.1 -0.1)">
      <defs>
       <path d="M 525 4666 
L 3525 4666 
L 3525 4397 
L 1831 0 
L 1172 0 
L 2766 4134 
L 525 4134 
L 525 4666 
z
" id="DejaVuSans-37" transform="scale(0.015625)"/>
      </defs>
      <use xlink:href="#DejaVuSans-37"/>
      <use x="63.623047" xlink:href="#DejaVuSans-2e"/>
      <use x="95.410156" xlink:href="#DejaVuSans-35"/>
     </g>
    </g>
    <g id="line2d_29">
     <path d="M 117.143125 38.576563 
L 122.143125 38.576563 
" style="fill:none;stroke:#e6f598;stroke-linecap:square;stroke-width:3;"/>
    </g>
    <g id="line2d_30"/>
    <g id="text_13">
     <!-- 9.0 -->
     <g transform="translate(130.143125 42.076563)scale(0.1 -0.1)">
      <defs>
       <path d="M 703 97 
L 703 672 
Q 941 559 1184 500 
Q 1428 441 1663 441 
Q 2288 441 2617 861 
Q 2947 1281 2994 2138 
Q 2813 1869 2534 1725 
Q 2256 1581 1919 1581 
Q 1219 1581 811 2004 
Q 403 2428 403 3163 
Q 403 3881 828 4315 
Q 1253 4750 1959 4750 
Q 2769 4750 3195 4129 
Q 3622 3509 3622 2328 
Q 3622 1225 3098 567 
Q 2575 -91 1691 -91 
Q 1453 -91 1209 -44 
Q 966 3 703 97 
z
M 1959 2075 
Q 2384 2075 2632 2365 
Q 2881 2656 2881 3163 
Q 2881 3666 2632 3958 
Q 2384 4250 1959 4250 
Q 1534 4250 1286 3958 
Q 1038 3666 1038 3163 
Q 1038 2656 1286 2365 
Q 1534 2075 1959 2075 
z
" id="DejaVuSans-39" transform="scale(0.015625)"/>
      </defs>
      <use xlink:href="#DejaVuSans-39"/>
      <use x="63.623047" xlink:href="#DejaVuSans-2e"/>
      <use x="95.410156" xlink:href="#DejaVuSans-30"/>
     </g>
    </g>
    <g id="line2d_31">
     <path d="M 117.143125 53.254688 
L 122.143125 53.254688 
" style="fill:none;stroke:#aadca4;stroke-linecap:square;stroke-width:3;"/>
    </g>
    <g id="line2d_32"/>
    <g id="text_14">
     <!-- 10.5 -->
     <g transform="translate(130.143125 56.754688)scale(0.1 -0.1)">
      <use xlink:href="#DejaVuSans-31"/>
      <use x="63.623047" xlink:href="#DejaVuSans-30"/>
      <use x="127.246094" xlink:href="#DejaVuSans-2e"/>
      <use x="159.033203" xlink:href="#DejaVuSans-35"/>
     </g>
    </g>
    <g id="line2d_33">
     <path d="M 117.143125 67.932813 
L 122.143125 67.932813 
" style="fill:none;stroke:#66c2a5;stroke-linecap:square;stroke-width:3;"/>
    </g>
    <g id="line2d_34"/>
    <g id="text_15">
     <!-- 12.0 -->
     <g transform="translate(130.143125 71.432813)scale(0.1 -0.1)">
      <defs>
       <path d="M 1228 531 
L 3431 531 
L 3431 0 
L 469 0 
L 469 531 
Q 828 903 1448 1529 
Q 2069 2156 2228 2338 
Q 2531 2678 2651 2914 
Q 2772 3150 2772 3378 
Q 2772 3750 2511 3984 
Q 2250 4219 1831 4219 
Q 1534 4219 1204 4116 
Q 875 4013 500 3803 
L 500 4441 
Q 881 4594 1212 4672 
Q 1544 4750 1819 4750 
Q 2544 4750 2975 4387 
Q 3406 4025 3406 3419 
Q 3406 3131 3298 2873 
Q 3191 2616 2906 2266 
Q 2828 2175 2409 1742 
Q 1991 1309 1228 531 
z
" id="DejaVuSans-32" transform="scale(0.015625)"/>
      </defs>
      <use xlink:href="#DejaVuSans-31"/>
      <use x="63.623047" xlink:href="#DejaVuSans-32"/>
      <use x="127.246094" xlink:href="#DejaVuSans-2e"/>
      <use x="159.033203" xlink:href="#DejaVuSans-30"/>
     </g>
    </g>
    <g id="line2d_35">
     <path d="M 117.143125 82.610938 
L 122.143125 82.610938 
" style="fill:none;stroke:#3387bc;stroke-linecap:square;stroke-width:3;"/>
    </g>
    <g id="line2d_36"/>
    <g id="text_16">
     <!-- 13.5 -->
     <g transform="translate(130.143125 86.110938)scale(0.1 -0.1)">
      <use xlink:href="#DejaVuSans-31"/>
      <use x="63.623047" xlink:href="#DejaVuSans-33"/>
      <use x="127.246094" xlink:href="#DejaVuSans-2e"/>
      <use x="159.033203" xlink:href="#DejaVuSans-35"/>
     </g>
    </g>
    <g id="line2d_37">
     <path d="M 117.143125 97.289063 
L 122.143125 97.289063 
" style="fill:none;stroke:#5e4fa2;stroke-linecap:square;stroke-width:3;"/>
    </g>
    <g id="line2d_38"/>
    <g id="text_17">
     <!-- 15.0 -->
     <g transform="translate(130.143125 100.789063)scale(0.1 -0.1)">
      <use xlink:href="#DejaVuSans-31"/>
      <use x="63.623047" xlink:href="#DejaVuSans-35"/>
      <use x="127.246094" xlink:href="#DejaVuSans-2e"/>
      <use x="159.033203" xlink:href="#DejaVuSans-30"/>
     </g>
    </g>
   </g>
  </g>
 </g>
 <defs>
  <clipPath id="p992a77f3e4">
   <rect height="268.18" width="386.622461" x="59.24" y="10.8"/>
  </clipPath>
 </defs>
</svg>
